      <svg
        width="22"
        height="24"
        viewBox="0 0 32 34"
        fill="none"
        xmlns="http://www.w3.org/2000/svg"
      >
        <path
          d="M8.65622 9.05895L4.88535 6.64282C4.56 6.44281 4.50667 5.99212 4.77601 5.72277L6.19209 4.3067C6.4641 4.03468 6.92279 4.09335 7.11747 4.4267L9.47493 8.25891C9.78428 8.78694 9.17891 9.37897 8.65622 9.05895Z"
          fill="#FFC107"
        />
        <path
          d="M5.35996 20.6798L0.981061 20.7679C0.599707 20.7759 0.327693 21.1385 0.423698 21.5066L0.933059 23.4427C1.03173 23.816 1.45575 23.9947 1.79177 23.808L5.66131 21.7839C6.19467 21.4826 5.97333 20.6665 5.35996 20.6798Z"
          fill="#FFC107"
        />
        <path
          d="M15.531 28.1184L14.571 32.3826C14.483 32.7533 14.763 33.1107 15.1443 33.1107H17.1471C17.5338 33.1107 17.8138 32.7453 17.7178 32.372L16.6751 28.1077C16.5204 27.513 15.675 27.521 15.531 28.1184Z"
          fill="#FFC107"
        />
        <path
          d="M23.3447 9.05895L27.1156 6.64282C27.4409 6.44281 27.4943 5.99212 27.2249 5.72277L25.8088 4.3067C25.5368 4.03468 25.0781 4.09335 24.8835 4.4267L22.526 8.25891C22.2167 8.78694 22.822 9.37897 23.3447 9.05895Z"
          fill="#FFC107"
        />
        <path
          d="M26.6411 20.6798L31.02 20.7679C31.4014 20.7759 31.6734 21.1385 31.5774 21.5066L31.068 23.4427C30.9693 23.816 30.5453 23.9947 30.2093 23.808L26.3397 21.7839C25.8064 21.4826 26.0277 20.6665 26.6411 20.6798Z"
          fill="#FFC107"
        />
        <path
          d="M17.0805 1.1697L20.67 9.35681C20.9447 9.98351 21.5394 10.4129 22.2221 10.4742L30.9666 11.2582C31.9559 11.4022 32.3506 12.6156 31.6333 13.3144L25.0462 18.848C24.5129 19.296 24.2702 20 24.4169 20.6801L26.3316 29.6432C26.4996 30.6273 25.4676 31.3793 24.5822 30.9126L16.9498 26.4431C16.3631 26.099 15.6377 26.099 15.051 26.4431L7.41863 30.91C6.53592 31.374 5.5012 30.6246 5.6692 29.6406L7.58397 20.6774C7.72798 19.9974 7.48797 19.2933 6.95461 18.8453L0.364922 13.317C-0.349783 12.621 0.0449049 11.4049 1.03162 11.2609L9.77609 10.4769C10.4588 10.4155 11.0535 9.98617 11.3282 9.35947L14.9177 1.17237C15.3631 0.276322 16.6378 0.276322 17.0805 1.1697Z"
          fill="#FDD835"
        />
        <path
          d="M16.8194 9.84867L16.2113 3.81635C16.1873 3.48033 16.118 2.9043 16.6567 2.9043C17.0834 2.9043 17.3154 3.79234 17.3154 3.79234L19.1395 8.63527C19.8275 10.478 19.5448 11.1101 18.8808 11.4834C18.1181 11.9101 16.9927 11.5768 16.8194 9.84867Z"
          fill="#FFFF8D"
        />
        <path
          d="M24.3425 18.3113L29.5747 14.2284C29.8334 14.0124 30.3001 13.6684 29.9267 13.2763C29.6307 12.967 28.8307 13.4123 28.8307 13.4123L24.2518 15.2018C22.8864 15.6738 21.9797 16.3725 21.8997 17.2525C21.7956 18.4259 22.849 19.33 24.3425 18.3113Z"
          fill="#F4B400"
        />
      </svg>