<svg width="32" height="35" viewBox="0 0 32 35" fill="none" xmlns="http://www.w3.org/2000/svg">
<path d="M22.1996 33.8187C19.7128 33.7985 15.9812 33.7005 12.31 33.3547C9.78288 33.1155 7.17216 32.7381 5.18963 31.6142C4.6306 31.2973 4.01971 31.2195 3.47797 31.1532C3.24744 31.1244 3.03132 31.0984 2.8469 31.0552C1.44069 30.7238 0.45807 29.5078 0.452307 28.0987L0.432136 18.6615C0.429254 17.3562 1.36001 16.264 2.64807 16.0623C2.67113 16.0594 2.6913 16.0537 2.71435 16.0479C2.87284 15.9961 6.65924 14.7627 9.51201 12.5324C10.8548 11.4835 12.0046 9.86692 12.5895 8.21001C13.1716 6.55887 13.1687 4.75787 13.1659 3.31132C13.1659 2.37769 13.163 1.21641 13.4166 1.04639C14.0332 0.640091 14.7133 0.432617 15.4365 0.432617C17.6611 0.432617 19.9318 2.46413 20.0211 4.53311C20.0845 5.96814 19.6033 7.66251 19.1394 9.29925C18.5919 11.2386 18.1164 12.9128 18.5458 14.051C18.6092 14.221 18.7705 14.3305 18.9492 14.3305C18.955 14.3305 21.0499 14.2585 21.0499 14.2585H21.07C23.4214 14.2585 25.3348 16.1718 25.3377 18.5203L25.3521 30.6835C25.3521 31.522 25.0293 32.3087 24.4357 32.8994C23.845 33.4902 23.0583 33.8187 22.2198 33.8187H22.1996Z" fill="url(#paint0_radial_5480_21629)"/>
<path d="M15.4367 0.864475C17.4134 0.864475 19.5083 2.72598 19.589 4.55002C19.6495 5.91589 19.1798 7.57568 18.7245 9.18073C18.154 11.1921 17.6641 12.9297 18.1425 14.2004C18.2693 14.5376 18.592 14.7595 18.9522 14.7595H18.9839L21.0586 14.6874H21.0759C23.1881 14.6874 24.9084 16.4049 24.9113 18.5199L24.9257 30.6831C24.9257 31.4035 24.6462 32.0836 24.1362 32.5936C23.6261 33.1036 22.9489 33.386 22.2257 33.386H22.2026C19.7245 33.3659 16.0043 33.2679 12.3505 32.925C9.87231 32.6916 7.31347 32.3227 5.40298 31.2393C4.76903 30.8791 4.08321 30.7955 3.53283 30.7263C3.31383 30.7004 3.10924 30.6745 2.94787 30.6341C1.7376 30.3488 0.890416 29.3057 0.887534 28.0983L0.864481 18.6611C0.861599 17.5719 1.63963 16.6584 2.71446 16.4913C2.75768 16.4855 2.80379 16.474 2.84413 16.4596C3.0055 16.4077 6.86106 15.1485 9.77434 12.872C11.1777 11.7742 12.3822 10.0855 12.9931 8.35371C13.6011 6.63341 13.5982 4.79207 13.5953 3.31094C13.5953 2.60783 13.5924 1.65691 13.7135 1.36875C14.2437 1.03161 14.8229 0.864475 15.4367 0.864475ZM15.4367 0C14.673 0 13.9008 0.207474 13.1775 0.685817C12.2439 1.30248 13.2553 5.01396 12.1805 8.06267C11.535 9.89248 10.3046 11.3621 9.24413 12.1891C6.42018 14.3964 2.58191 15.6355 2.58191 15.6355C1.09213 15.8689 -0.00287591 17.1541 5.674e-06 18.664L0.0230586 28.1012C0.0288218 29.7264 1.16705 31.1009 2.74904 31.4755C3.38875 31.6254 4.26187 31.585 4.9765 31.9913C6.88699 33.0748 9.33634 33.5071 12.2698 33.7837C15.9006 34.1266 19.589 34.2275 22.1969 34.2505H22.2257C24.1938 34.2505 25.7931 32.6541 25.7902 30.6831L25.7758 18.5199C25.7729 15.9236 23.6665 13.8258 21.0759 13.8258H21.0413L18.9551 13.8979C18.2347 11.9845 20.5947 7.67942 20.4564 4.51256C20.3555 2.26204 17.9552 0 15.4367 0Z" fill="#91674D"/>
<path d="M16.6095 16.7676C17.1513 18.2084 17.157 20.4561 16.6095 21.845C15.8171 23.8506 13.8778 25.6055 11.6388 25.9138C11.0913 25.9887 11.4169 26.493 11.9615 26.4181C14.385 26.0838 17.6642 25.1012 18.5172 22.9256C20.857 16.9463 18.1195 13.814 16.8977 14.7476C16.3099 15.2029 16.3041 15.9521 16.6095 16.7676Z" fill="#91674D"/>
<path d="M22.4188 18.9057C20.0098 18.9057 17.1138 18.459 16.9899 16.3238C16.9554 15.7129 17.1398 15.2 17.5547 14.7591C18.6468 13.6007 21.3296 12.9639 25.1102 12.9639C26.4819 12.9639 27.4818 13.0532 27.4933 13.0532C27.5048 13.0532 27.5192 13.0561 27.5308 13.0561H27.5567C27.597 13.0532 27.6345 13.0532 27.6748 13.0532C28.8995 13.0532 29.9225 14.1568 30.006 15.5659C30.0925 17.024 29.1329 18.2689 27.8679 18.3409C27.8477 18.3409 27.8247 18.3438 27.8045 18.3495C27.7786 18.3524 25.1102 18.9057 22.4188 18.9057Z" fill="url(#paint1_radial_5480_21629)"/>
<path d="M25.1131 13.3967C26.4617 13.3967 27.4472 13.4831 27.4559 13.4831C27.4818 13.486 27.5077 13.486 27.5337 13.486C27.551 13.486 27.5683 13.486 27.5827 13.4831C27.6144 13.4803 27.6461 13.4803 27.6749 13.4803C28.669 13.4803 29.5047 14.4053 29.5738 15.5838C29.6459 16.8027 28.8678 17.843 27.842 17.9035C27.7988 17.9064 27.7556 17.9121 27.7152 17.9208C27.6893 17.9266 25.0584 18.4712 22.4189 18.4712C20.8859 18.4712 19.6698 18.2925 18.8082 17.941C17.6239 17.4569 17.4481 16.771 17.4222 16.2985C17.3934 15.8057 17.5375 15.4109 17.8717 15.0536C18.8659 14.0018 21.5054 13.3967 25.1131 13.3967ZM25.1131 12.5322C21.8224 12.5322 16.3647 13.0307 16.5577 16.3503C16.6989 18.7478 19.592 19.3385 22.4189 19.3385C25.1881 19.3385 27.8939 18.7709 27.8939 18.7709C29.3981 18.6815 30.5392 17.235 30.4383 15.5377C30.3432 13.8952 29.1214 12.6187 27.6778 12.6187C27.6288 12.6187 27.5827 12.6187 27.5337 12.6216C27.5337 12.6216 26.5222 12.5322 25.1131 12.5322Z" fill="#91674D"/>
<path d="M24.2253 24.3895C21.0815 24.3895 17.3354 23.8622 17.3354 21.3437C17.3354 18.8252 21.0815 18.2979 24.2253 18.2979C26.8908 18.2979 29.32 18.6869 29.343 18.6897C29.3661 18.6926 29.3891 18.6955 29.4122 18.6955C30.6829 18.6955 31.5676 20.0383 31.5676 21.2428C31.5676 22.5136 30.6253 23.989 29.4122 23.989C29.3891 23.989 29.3661 23.9919 29.343 23.9947C29.3171 24.0005 26.8879 24.3895 24.2253 24.3895Z" fill="url(#paint2_radial_5480_21629)"/>
<path d="M24.2254 18.7336C26.8534 18.7336 29.2509 19.1169 29.274 19.1197C29.3201 19.1284 29.3662 19.1313 29.4123 19.1313C30.3978 19.1313 31.1355 20.2493 31.1355 21.2464C31.1355 22.2866 30.3401 23.5603 29.4123 23.5603C29.3662 23.5603 29.3201 23.5632 29.274 23.5718C29.2509 23.5747 26.8506 23.9579 24.2254 23.9579C22.2573 23.9579 20.6926 23.7505 19.5717 23.3384C17.9551 22.7448 17.7678 21.9149 17.7678 21.3443C17.7678 20.7709 17.9551 19.9439 19.5717 19.3503C20.6897 18.9411 22.2573 18.7336 24.2254 18.7336ZM24.2254 17.8691C20.7877 17.8691 16.9033 18.5002 16.9033 21.3472C16.9033 24.1942 20.7848 24.8253 24.2254 24.8253C26.9601 24.8253 29.4123 24.4276 29.4123 24.4276C30.8992 24.4276 31.9999 22.7246 31.9999 21.2492C31.9999 19.7739 30.8992 18.2697 29.4123 18.2697C29.4123 18.2668 26.9572 17.8691 24.2254 17.8691Z" fill="#91674D"/>
<path d="M26.6198 33.9682C25.4066 33.9682 19.2602 33.8731 17.3987 32.0087C17.0731 31.6831 16.9175 31.3316 16.9175 30.9339C16.9232 29.4211 19.5138 28.5537 24.0235 28.5537C25.6314 28.5537 26.8762 28.669 26.8906 28.669C26.9022 28.669 26.9166 28.6719 26.9281 28.6719C27.6024 28.6747 28.2392 28.9485 28.7147 29.447C29.1959 29.9484 29.4581 30.6169 29.4581 31.3258C29.4524 32.781 28.3141 33.9624 26.9195 33.9624C26.8993 33.9682 26.7984 33.9682 26.6198 33.9682Z" fill="url(#paint3_radial_5480_21629)"/>
<path d="M24.0265 28.9885C25.6085 28.9885 26.8389 29.1009 26.8505 29.1038C26.8764 29.1066 26.9023 29.1066 26.9283 29.1066C27.4844 29.1095 28.0089 29.3372 28.4036 29.7492C28.8071 30.1699 29.0289 30.7319 29.0261 31.3283C29.0232 32.5444 28.078 33.5356 26.911 33.5356H26.9081H26.8908C26.8851 33.5356 26.7871 33.5385 26.6171 33.5385C21.387 33.5385 18.5457 32.5501 17.7043 31.7058C17.3845 31.386 17.3499 31.1151 17.3499 30.9393C17.3557 29.7348 19.9116 28.9885 24.0265 28.9885ZM24.0265 28.124C20.9375 28.124 16.4941 28.539 16.4883 30.9336C16.4768 34.2359 24.9313 34.4001 26.6199 34.4001C26.8072 34.4001 26.911 34.3972 26.911 34.3972H26.9196C28.5564 34.3972 29.8848 33.0256 29.8905 31.3283C29.8963 29.6282 28.5708 28.245 26.9312 28.2393C26.9312 28.2422 25.6719 28.124 24.0265 28.124Z" fill="#91674D"/>
<path d="M25.5423 29.395C22.9517 29.395 16.9292 29.1011 16.9292 26.378C16.9292 24.09 21.2717 23.75 23.8623 23.75C26.1532 23.75 28.127 24.0036 28.1472 24.0065C28.1645 24.0093 28.1847 24.0093 28.202 24.0093C29.4036 24.0093 30.804 24.6029 30.804 26.2771C30.804 27.862 29.5649 29.3028 28.202 29.3028H28.1674C28.1559 29.3057 27.0464 29.395 25.5423 29.395Z" fill="url(#paint4_radial_5480_21629)"/>
<path d="M23.8624 23.3213V24.1858C26.1187 24.1858 28.0724 24.4365 28.0897 24.4393C28.1271 24.4451 28.1646 24.4451 28.2021 24.4451C29.251 24.4451 30.3719 24.9263 30.3719 26.2807C30.3719 27.6149 29.3172 28.8741 28.2021 28.8741C28.179 28.8741 28.156 28.8741 28.13 28.877C28.1185 28.877 27.0264 28.9663 25.5395 28.9663C23.969 28.9663 21.7243 28.8655 19.9463 28.3929C18.2318 27.9347 17.3615 27.2575 17.3615 26.3844C17.3615 26.1164 17.3615 25.3009 19.1885 24.7275C20.3267 24.3702 21.8972 24.1886 23.8595 24.1886L23.8624 23.3213ZM23.8624 23.3213C20.5313 23.3213 16.4971 23.8457 16.4971 26.3815C16.4971 29.3697 22.0873 29.8308 25.5424 29.8308C27.0869 29.8308 28.2021 29.7386 28.2021 29.7386C29.8273 29.7386 31.2364 28.0586 31.2364 26.2807C31.2364 24.5027 29.8273 23.5806 28.2021 23.5806C28.2021 23.5806 26.2051 23.3213 23.8624 23.3213Z" fill="#91674D"/>
<path d="M5.56451 31.8681L4.18423 26.4219L3.60791 31.3206L5.56451 31.8681Z" fill="#91674D"/>
<defs>
<radialGradient id="paint0_radial_5480_21629" cx="0" cy="0" r="1" gradientUnits="userSpaceOnUse" gradientTransform="translate(12.474 7.8069) rotate(90.125) scale(25.0811 19.7463)">
<stop offset="0.6" stop-color="#BA8D68"/>
<stop offset="1" stop-color="#A47B62"/>
</radialGradient>
<radialGradient id="paint1_radial_5480_21629" cx="0" cy="0" r="1" gradientUnits="userSpaceOnUse" gradientTransform="translate(27.2252 15.6742) rotate(176.727) scale(8.14672 3.98632)">
<stop offset="0.5" stop-color="#BA8D68"/>
<stop offset="1" stop-color="#A47B62"/>
</radialGradient>
<radialGradient id="paint2_radial_5480_21629" cx="0" cy="0" r="1" gradientUnits="userSpaceOnUse" gradientTransform="translate(28.5118 21.2644) rotate(-179.936) scale(9.16869 3.67678)">
<stop offset="0.5" stop-color="#BA8D68"/>
<stop offset="1" stop-color="#A47B62"/>
</radialGradient>
<radialGradient id="paint3_radial_5480_21629" cx="0" cy="0" r="1" gradientUnits="userSpaceOnUse" gradientTransform="translate(26.7379 31.2014) rotate(-179.726) scale(7.69993 4.00879)">
<stop offset="0.5" stop-color="#BA8D68"/>
<stop offset="1" stop-color="#A47B62"/>
</radialGradient>
<radialGradient id="paint4_radial_5480_21629" cx="0" cy="0" r="1" gradientUnits="userSpaceOnUse" gradientTransform="translate(27.8266 26.4994) rotate(-179.934) scale(8.77266 3.64894)">
<stop offset="0.5" stop-color="#BA8D68"/>
<stop offset="1" stop-color="#A47B62"/>
</radialGradient>
</defs>
</svg>
