<svg width="18" height="18" viewBox="0 0 18 18" fill="none" xmlns="http://www.w3.org/2000/svg">
<path d="M17.534 10.3476C17.6489 10.2326 17.7202 10.0738 17.72 9.89838V8.10162C17.72 7.75035 17.4356 7.46598 17.0848 7.46643L10.5329 7.46643L10.5329 0.914537C10.5329 0.563268 10.2486 0.278901 9.89773 0.27935L8.10097 0.27935C7.7497 0.27935 7.46533 0.563717 7.46578 0.914537L7.46578 7.46643H0.913887C0.563067 7.46598 0.278251 7.7508 0.2787 8.10162V9.89838C0.2787 10.2497 0.563067 10.534 0.913887 10.5336H7.46578L7.46578 17.0855C7.46533 17.4363 7.75015 17.7211 8.10097 17.7206L9.89773 17.7206C10.249 17.7206 10.5334 17.4363 10.5329 17.0855L10.5329 10.5336L17.0848 10.5336C17.2604 10.5336 17.4191 10.4625 17.534 10.3476Z" fill="white"/>
</svg>
