<svg width="11" height="11" viewBox="0 0 11 11" fill="none" xmlns="http://www.w3.org/2000/svg">
<path d="M5.5 0.0820312C4.46165 0.0820312 3.44662 0.389938 2.58326 0.966816C1.7199 1.54369 1.04699 2.36363 0.649635 3.32294C0.252275 4.28226 0.148307 5.33785 0.35088 6.35626C0.553452 7.37466 1.05347 8.31012 1.78769 9.04434C2.52192 9.77857 3.45738 10.2786 4.47578 10.4812C5.49418 10.6837 6.54978 10.5798 7.50909 10.1824C8.4684 9.78504 9.28834 9.11213 9.86522 8.24877C10.4421 7.38542 10.75 6.37038 10.75 5.33203C10.75 3.93964 10.1969 2.60429 9.21231 1.61972C8.22775 0.635155 6.89239 0.0820313 5.5 0.0820312ZM4.75 7.42858L2.875 5.55358L3.47148 4.95703L4.75 6.23548L7.52875 3.45703L8.12714 4.05174L4.75 7.42858Z" fill="white"/>
</svg>
