<svg width="24" height="25" viewBox="0 0 24 25" fill="none" xmlns="http://www.w3.org/2000/svg">
<g clip-path="url(#clip0_7053_33834)">
<path d="M12 8.16797C12.8284 8.16797 13.5 7.4964 13.5 6.66797C13.5 5.83954 12.8284 5.16797 12 5.16797C11.1716 5.16797 10.5 5.83954 10.5 6.66797C10.5 7.4964 11.1716 8.16797 12 8.16797Z" fill="black"/>
<path d="M12 14.168C12.8284 14.168 13.5 13.4964 13.5 12.668C13.5 11.8395 12.8284 11.168 12 11.168C11.1716 11.168 10.5 11.8395 10.5 12.668C10.5 13.4964 11.1716 14.168 12 14.168Z" fill="black"/>
<path d="M12 20.168C12.8284 20.168 13.5 19.4964 13.5 18.668C13.5 17.8395 12.8284 17.168 12 17.168C11.1716 17.168 10.5 17.8395 10.5 18.668C10.5 19.4964 11.1716 20.168 12 20.168Z" fill="black"/>
</g>
<defs>
<clipPath id="clip0_7053_33834">
<rect width="24" height="24" fill="white" transform="translate(0 0.667969)"/>
</clipPath>
</defs>
</svg>
