<svg width="18" height="19" viewBox="0 0 18 19" fill="none" xmlns="http://www.w3.org/2000/svg">
<path fill-rule="evenodd" clip-rule="evenodd" d="M5.625 3.70703C5.32663 3.70703 5.04048 3.82556 4.82951 4.03654C4.61853 4.24751 4.5 4.53366 4.5 4.83203V13.832C4.5 14.1304 4.61853 14.4165 4.82951 14.6275C5.04048 14.8385 5.32663 14.957 5.625 14.957H6.75C7.04837 14.957 7.33452 14.8385 7.5455 14.6275C7.75647 14.4165 7.875 14.1304 7.875 13.832V4.83203C7.875 4.53366 7.75647 4.24751 7.5455 4.03654C7.33452 3.82556 7.04837 3.70703 6.75 3.70703H5.625ZM11.25 3.70703C10.9516 3.70703 10.6655 3.82556 10.4545 4.03654C10.2435 4.24751 10.125 4.53366 10.125 4.83203V13.832C10.125 14.1304 10.2435 14.4165 10.4545 14.6275C10.6655 14.8385 10.9516 14.957 11.25 14.957H12.375C12.6734 14.957 12.9595 14.8385 13.1705 14.6275C13.3815 14.4165 13.5 14.1304 13.5 13.832V4.83203C13.5 4.53366 13.3815 4.24751 13.1705 4.03654C12.9595 3.82556 12.6734 3.70703 12.375 3.70703H11.25Z" fill="white"/>
</svg>
