<svg width="43" height="44" viewBox="0 0 43 44" fill="none" xmlns="http://www.w3.org/2000/svg">
<path fill-rule="evenodd" clip-rule="evenodd" d="M7.42891 6.98399C9.60172 4.91159 12.2157 3.319 15.1044 2.3425C19.8714 0.73103 25.0616 0.907233 29.7084 2.83829C34.3552 4.76934 38.1419 8.3236 40.3635 12.8392C42.5851 17.3548 43.0902 22.524 41.7849 27.3843C40.4795 32.2446 37.4525 36.4649 33.2675 39.2593C29.0825 42.0537 24.0247 43.2317 19.0359 42.5739C14.0471 41.9161 9.4674 39.4674 6.14947 35.6838C2.83154 31.9001 1.00153 27.0395 1.0001 22.0069L1 21.6659C0.999872 21.2138 1.17934 20.7802 1.49893 20.4604C1.81851 20.1406 2.25204 19.9609 2.70413 19.9608L3.38597 19.9606C4.3274 19.9603 5.0908 20.7233 5.09107 21.6647L5.09116 22.0057C5.09231 26.0463 6.56159 29.9487 9.22534 32.9863C11.8891 36.0239 15.5658 37.9898 19.5707 38.5178C23.5757 39.0459 27.636 38.1002 30.9958 35.8568C34.3556 33.6135 36.7858 30.2253 37.8338 26.3231C38.8819 22.4209 38.4763 18.2707 36.6927 14.6453C34.909 11.0199 31.8689 8.16651 28.1385 6.61626C24.408 5.06601 20.2414 4.92456 16.4145 6.21824C13.796 7.10339 11.4587 8.61914 9.59481 10.608H15.0753C16.0167 10.608 16.7799 11.3712 16.7799 12.3126V12.9946C16.7799 13.936 16.0167 14.6992 15.0753 14.6992H6.24976C6.20993 14.713 6.16946 14.7255 6.12843 14.7364C5.77351 14.8309 5.3999 14.8077 5.06247 14.6742C4.085 14.5202 3.33785 13.6739 3.33785 12.6536V2.95994C3.33785 2.01851 4.10103 1.25533 5.04246 1.25533H5.7243C6.66573 1.25533 7.42891 2.01851 7.42891 2.95994V6.98399Z" fill="white" stroke="white" stroke-linecap="square" stroke-linejoin="round"/>
</svg>
