<svg width="97" height="100" viewBox="0 0 97 100" fill="none" xmlns="http://www.w3.org/2000/svg">
<rect x="1.95068" y="2" width="93.1343" height="96" rx="46.5672" fill="white"/>
<rect x="1.95068" y="2" width="93.1343" height="96" rx="46.5672" stroke="#EAEAEA" stroke-width="2.04255"/>
<path d="M73.7319 62.8138H74.5383L74.4434 62.0131C74.2091 60.0367 73.2888 58.246 71.6983 56.9551C70.1104 55.6663 67.9037 54.9144 65.1544 54.9144C59.3094 54.9144 55.0321 59.4291 55.0321 65.3574C55.0321 71.3166 59.367 75.8538 65.2613 75.8538C67.9381 75.8538 70.1364 75.2052 71.7537 73.9617C73.3804 72.711 74.352 70.9094 74.6552 68.7434L74.7694 67.9277H73.9457H70.8728H70.3269L70.182 68.4539C69.9564 69.2734 69.5571 70.0202 68.8378 70.57C68.1172 71.1207 66.995 71.5351 65.2079 71.5351C61.9232 71.5351 59.4577 69.0581 59.4577 65.3841C59.4577 61.6795 61.9269 59.2064 65.1811 59.2064C66.9078 59.2064 67.9867 59.6239 68.681 60.1739C69.3777 60.7258 69.768 61.4751 69.9957 62.2902L70.142 62.8138H70.6857H73.7319Z" fill="#9747FF" stroke="#9747FF" stroke-width="1.43284"/>
<path d="M36.6608 74.459L36.3027 75.4246H37.3325H40.5658H41.0711L41.2407 74.9486L43.4225 68.8244H48.8669L51.2546 74.9677L51.4321 75.4246H51.9223H55.1289H56.1753L55.7968 74.449L48.5286 55.7174L48.3512 55.2601H47.8607H44.28H43.7817L43.6083 55.7274L36.6608 74.459ZM44.3718 65.0401L46.0735 61.0128L47.813 65.0401H44.3718Z" fill="#9747FF" stroke="#9747FF" stroke-width="1.43284"/>
<path d="M31.6181 75.4545H32.3345V74.7381V59.5286H36.802H37.5184V58.8122V56.0332V55.3168H36.802H23.4414H22.725V56.0332V58.8122V59.5286H23.4414H27.9089V74.7381V75.4545H28.6253H31.6181Z" fill="#9747FF" stroke="#9747FF" stroke-width="1.43284"/>
<path d="M74.6679 36.8234H75.4742L75.3793 36.0226C75.0841 33.5315 73.9255 31.2794 71.9251 29.6558C69.9273 28.0344 67.1391 27.0785 63.6424 27.0785C56.2494 27.0785 50.8358 32.7828 50.8358 40.2973C50.8358 47.8504 56.3222 53.5848 63.7798 53.5848C67.1887 53.5848 69.9666 52.7589 72.0004 51.1951C74.0437 49.6241 75.2689 47.3592 75.6522 44.6213L75.7664 43.8056H74.9427H70.9927H70.4469L70.302 44.3318C70.0039 45.4144 69.4712 46.4186 68.5012 47.1599C67.5299 47.9023 66.0397 48.4424 63.7111 48.4424C59.3664 48.4424 56.1155 45.1572 56.1155 40.3316C56.1155 35.4678 59.3702 32.1865 63.6768 32.1865C65.9297 32.1865 67.3651 32.7317 68.3024 33.4742C69.2422 34.2187 69.7621 35.2254 70.0623 36.2997L70.2086 36.8234H70.7523H74.6679Z" fill="#9747FF" stroke="#9747FF" stroke-width="1.43284"/>
<path d="M44.0053 52.3516V53.068H44.7217H48.6029H49.3193V52.3516V28.3086V27.5922H48.6029H44.7217H44.0053V28.3086V52.3516Z" fill="#9747FF" stroke="#9747FF" stroke-width="1.43284"/>
<path d="M33.9516 53.068H34.6681V52.3516V32.5971H40.615H41.3314V31.8807V28.3086V27.5922H40.615H23.4414H22.725V28.3086V31.8807V32.5971H23.4414H29.3883V52.3516V53.068H30.1048H33.9516Z" fill="#9747FF" stroke="#9747FF" stroke-width="1.43284"/>
</svg>
