<svg width="90" height="90" viewBox="0 0 90 90" fill="none" xmlns="http://www.w3.org/2000/svg">
<g clip-path="url(#clip0_4963_910)">
<rect width="90" height="90" fill="#1447e6"/>
<path d="M25.2581 33.0324C22.4093 36.2881 22.6298 41.7226 23.0962 44.0329C23.8168 46.4704 25.3217 51.5871 25.5762 52.5536C25.8944 53.7617 25.2581 56.8139 28.1197 57.9585C30.409 58.8741 33.5671 58.7215 34.8599 58.5308L35.6866 62.1552L54.1904 55.6058L53.4273 49.1835C56.1404 49.4378 62.2532 48.5094 65.0002 42.7612C67.7471 37.0129 62.9654 37.6954 60.2312 38.7552L52.5371 22.0317C49.061 18.9584 40.8244 12.9389 35.6866 13.4476C29.2643 14.0834 27.4838 20.3785 26.9751 22.0317C26.5682 23.3543 25.2795 25.3806 24.686 26.2285L25.2581 33.0324Z" fill="white"/>
<path opacity="0.4" d="M49.0161 53.7312C47.1938 54.8861 36.1607 58.2693 34.4497 58.6651L35.3801 62.162L53.7953 55.8418C53.5814 55.2429 53.1023 53.7629 52.897 52.6336C52.6916 51.5043 52.9825 49.7462 53.1536 49.0083C51.043 52.6336 50.8385 52.5763 49.0161 53.7312Z" fill="black"/>
<path d="M52.0562 24.9065C50.3514 20.3603 47.6425 17.8575 44.3174 16.7711C41.203 15.7535 39.177 15.5274 37.5023 15.6895C36.8 14.0067 36.0917 13.7766 35.4411 14.0067C31.4014 14.4915 28.5332 18.9705 26.972 21.6468L25.0985 26.3302V34.225C24.8308 35.3401 24.0815 38.1858 23.2251 40.6479C22.3687 43.1101 24.1172 48.8996 25.0985 51.4867L24.2956 55.501L25.0985 65.2692L15.4642 68.4808L16.6685 56.3039L18.5418 45.599L20.1474 36.0984C21.1734 31.415 23.9747 20.8707 26.972 16.1605C29.9694 11.4504 32.7164 10.2828 34.1437 10.4612C44.4204 3.50305 55.1615 5.76795 58.819 7.5967C61.0938 7.32908 65.6433 9.87149 69.7915 17.6325C73.9396 25.3936 71.7987 43.3243 72.6015 49.3458C73.4044 55.3673 80.8978 67.6779 82.1021 70.2204C83.0656 72.2543 86.4287 88.2849 87.9898 96.0459H82.1021L71.7987 70.2204L69.7915 68.4808L65.6433 54.6982H58.819L56.5442 49.3458C62.6995 48.2753 64.5729 44.3948 65.6433 42.12C66.7138 39.8452 65.2419 37.4366 61.7628 38.3733C59.3385 39.026 56.7382 41.2827 55.3415 42.7382C55.0864 43.004 54.6351 42.9304 54.4974 42.5887C50.9959 33.8951 53.2278 28.0306 52.0562 24.9065Z" fill="#373737"/>
<path d="M24.2819 56.488C23.9976 54.7503 24.7164 52.8152 25.1113 52.0649C24.927 53.2102 25.0638 55.9037 27.0858 57.5149C29.1078 59.1262 33.2466 58.7655 35.0632 58.3838L35.8136 61.9775L25.1113 65.2159C24.9533 63.0307 24.5662 58.2258 24.2819 56.488Z" fill="black"/>
<path d="M27.0456 79.2748C28.0427 80.8418 31.4616 78.7762 32.8862 76.2832C33.4607 75.2779 34.4817 73.8804 35.5202 72.5469C32.3629 74.2672 26.2478 78.0212 27.0456 79.2748Z" fill="black"/>
<path d="M38.2283 69.2317C37.5807 69.9852 36.5419 71.2351 35.5202 72.5469M35.5202 72.5469C34.4817 73.8804 33.4607 75.2779 32.8862 76.2832C31.4616 78.7762 28.0427 80.8418 27.0456 79.2748C26.2478 78.0212 32.3629 74.2672 35.5202 72.5469Z" stroke="black" stroke-width="1.5" stroke-linecap="round" stroke-linejoin="round"/>
<path d="M42.0747 10.2769C41.22 9.70717 39.012 8.69583 37.0176 9.20857" stroke="black" stroke-width="1.5" stroke-linecap="round" stroke-linejoin="round"/>
<path d="M29.9089 37.1123C29.2619 38.0208 27.4218 40.3347 26.8927 41.8715C26.2066 43.8641 28.8606 44.7113 31.5608 45.7023" stroke="black" stroke-width="1.5" stroke-linecap="round" stroke-linejoin="round"/>
<path d="M29.391 36.1399C29.391 40.2189 26.3622 42.2578 23.035 42.2578C19.7079 42.2578 17.2969 37.8575 17.2969 33.7785C17.2969 29.6994 19.7079 27.4863 23.035 27.4863C26.3622 27.4863 29.391 32.0609 29.391 36.1399Z" fill="black"/>
<path d="M28.5874 35.6667L30.1567 35.3364L32.6346 36.2037L33.9561 38.0621" stroke="black" stroke-width="1.5" stroke-linecap="round" stroke-linejoin="round"/>
<path d="M44.9416 42.9352L59.396 39.3837C61.0204 38.2962 64.517 36.7738 65.5081 39.3837C66.7471 42.6462 61.6674 50.8234 52.9121 49.0888M41.7324 56.0984C38.8619 57.7777 33.444 58.9261 30.0741 58.6288C25.8616 58.2571 25.8204 55.9031 25.6139 53.6729C25.4074 51.4428 23.7966 47.6434 23.012 42.2746" stroke="black" stroke-width="1.5" stroke-linecap="round" stroke-linejoin="round"/>
<path d="M56.5432 49.3752L58.7512 54.6929" stroke="black" stroke-width="1.5"/>
<path d="M58.8755 54.6929L56.4499 49.3752L52.8427 49.0642C52.4177 51.438 52.0218 56.0611 53.8378 55.5635C55.6539 55.066 57.9529 54.7758 58.8755 54.6929Z" fill="black"/>
<path d="M34.9722 58.3911L35.8152 61.8152" stroke="black" stroke-width="1.5" stroke-linecap="round" stroke-linejoin="round"/>
<path d="M46.366 42.3577C46.366 46.6389 43.11 48.7788 39.5334 48.7788C35.9567 48.7788 33.3649 44.1605 33.3649 39.8793C33.3649 35.5982 35.9567 33.2754 39.5334 33.2754C43.11 33.2754 46.366 38.0766 46.366 42.3577Z" fill="black"/>
<path opacity="0.3" d="M38.6808 35.3364C44.1728 35.6555 35.4453 41.0459 35.4453 38.8003C35.4453 36.5548 36.8048 35.3364 38.6808 35.3364Z" fill="#F4F4F4"/>
<path d="M24.7878 28.6047V26.1682C25.4349 25.1907 26.8445 22.8147 27.3071 21.1297C27.8853 19.0235 30.9001 13.6959 35.6081 13.3655" stroke="black" stroke-width="1.5" stroke-linecap="round" stroke-linejoin="round"/>
<path d="M30.0328 29.8438C29.551 29.2381 28.3974 27.8533 27.6375 27.1594C26.8776 26.4656 25.757 26.3827 25.0962 26.3551" stroke="black" stroke-width="1.5" stroke-linecap="round" stroke-linejoin="round"/>
<path d="M35.5114 31.1477C37.9755 31.1202 43.4607 31.1261 46.3019 31.8529C46.9902 32.1971 48.5402 33.1002 49.234 33.9592" stroke="black" stroke-width="1.5" stroke-linecap="round" stroke-linejoin="round"/>
<path d="M28.3499 46.6146C26.8501 45.901 26.4367 47.5386 26.4175 48.4466L26.7561 49.8589C26.9416 50.6326 27.568 51.2227 28.3514 51.3618L29.7438 51.6089C30.1438 51.6799 30.5558 51.6275 30.9252 51.4585L34.2788 49.9248C34.5398 49.8054 34.631 49.4802 34.4701 49.2426C34.3744 49.1014 34.209 49.024 34.0394 49.0411L33.4246 49.103C32.2302 48.0502 30.769 46.7978 30.4274 46.6348C29.9739 46.4184 28.8534 46.5312 28.3499 46.6146Z" fill="#FED1D0"/>
<path d="M15.7206 68.2557C15.7918 64.813 16.2191 56.9163 17.3587 52.8705C18.4982 48.8247 19.0682 43.1123 19.2107 40.7618C19.7806 37.5566 21.4473 29.679 23.5556 23.8099C26.1911 16.4734 31.8892 6.43031 38.7983 12.6983" stroke="black" stroke-width="1.5" stroke-linecap="round" stroke-linejoin="round"/>
<path d="M41.8608 7.28527C45.7308 6.14565 54.525 4.62142 58.7417 7.64147C61.5196 7.6177 67.8874 10.5617 71.1353 22.5279C75.1953 37.4856 66.4075 45.2002 79.5551 65.1249C87.0361 76.462 82.0331 94.0638 80.8223 101.163" stroke="black" stroke-width="1.5" stroke-linecap="round" stroke-linejoin="round"/>
<path d="M60.707 42.4929L58.0441 45.2583" stroke="black" stroke-width="1.5" stroke-linecap="round" stroke-linejoin="round"/>
<path d="M58.13 43.4126L60.5601 44.3472" stroke="black" stroke-width="1.5" stroke-linecap="round" stroke-linejoin="round"/>
<path opacity="0.3" d="M22.5358 29.7988C28.0278 30.1179 19.3003 35.5083 19.3003 33.2627C19.3003 31.0172 20.6598 29.7988 22.5358 29.7988Z" fill="#F4F4F4"/>
<path d="M70.0624 68.6832C69.3965 67.7714 66.9252 58.7588 65.7729 54.3665C61.4834 53.8679 51.2483 55.9335 46.8308 57.9991C42.4132 60.0647 28.21 64.4887 23.2803 65.9132C18.3505 67.3378 13.4114 68.6912 14.5639 70.4718C15.4858 71.8964 27.0392 92.212 32.033 100.949L83.3152 97.2453C80.0927 89.4341 73.3661 73.2845 72.2393 71.1762C70.8308 68.5408 70.8948 69.8229 70.0624 68.6832Z" fill="#373737"/>
<path d="M70.0624 68.6832C69.3965 67.7714 66.9252 58.7588 65.7729 54.3665C61.4834 53.8679 51.2483 55.9335 46.8308 57.9991C42.4132 60.0647 28.21 64.4887 23.2803 65.9132C18.3505 67.3378 13.4114 68.6912 14.5639 70.4718C15.4858 71.8964 27.0392 92.212 32.033 100.949L83.3152 97.2453C80.0927 89.4341 73.3661 73.2845 72.2393 71.1762C70.8308 68.5408 70.8948 69.8229 70.0624 68.6832Z" stroke="black" stroke-width="1.5" stroke-linecap="round" stroke-linejoin="round"/>
<path d="M12.2081 73.5277C12.649 72.9667 14.2858 72.2062 15.1708 71.8723L30.4936 99.0259H27.1375C23.2969 93.0146 11.7672 74.0888 12.2081 73.5277Z" fill="black" stroke="black" stroke-width="1.5" stroke-linecap="round" stroke-linejoin="round"/>
<path d="M38.2283 86.1338C39.3441 83.8545 42.4733 78.6407 46.0632 76.0195C50.5507 72.7431 57.8871 69.894 61.0211 70.6063C64.1551 71.3186 75.1241 81.6465 77.617 85.0654" stroke="black" stroke-width="1.5" stroke-linecap="round" stroke-linejoin="round"/>
<path d="M52.1176 74.8086C51.904 75.8058 51.6048 78.1849 52.1176 79.7234C52.7587 81.6465 61.1635 92.2594 61.8046 93.0429" stroke="black" stroke-width="1.5" stroke-linecap="round" stroke-linejoin="round"/>
<path d="M25.0654 51.3801C24.8835 52.1597 24.0372 55.0288 24.4738 58.3339C24.9104 61.639 25.2474 64.0085 25.0654 65.0219" stroke="black" stroke-width="1.5" stroke-linecap="round" stroke-linejoin="round"/>
<path d="M40.4951 13.8801C42.4517 14.0012 47.2362 15.0058 50.7219 18.0557" stroke="black" stroke-width="1.5" stroke-linecap="round" stroke-linejoin="round"/>
<path d="M54.7764 25.6199C56.834 30.4006 59.8597 35.2417 63.9747 38.0254" stroke="black" stroke-width="1.5" stroke-linecap="round" stroke-linejoin="round"/>
<path d="M53.9897 31.0056C54.5748 32.7403 56.7977 36.6334 61.0095 38.3279" stroke="black" stroke-width="1.5" stroke-linecap="round" stroke-linejoin="round"/>
<path d="M55.1396 37.9043C56.0272 38.3078 58.0928 39.1873 59.2546 39.4778" stroke="black" stroke-width="1.5" stroke-linecap="round" stroke-linejoin="round"/>
<path d="M49.0581 19.8494C49.842 20.5666 51.5098 22.8518 51.9102 26.2544C52.4106 30.5077 51.71 34.0103 53.011 38.5138" stroke="black" stroke-width="1.5" stroke-linecap="round" stroke-linejoin="round"/>
<circle cx="54.8485" cy="46.7031" r="1.05322" fill="black"/>
</g>
<defs>
<clipPath id="clip0_4963_910">
<rect width="90" height="90" fill="white"/>
</clipPath>
</defs>
</svg>
