<svg width="84" height="49" viewBox="0 0 84 49" fill="none" xmlns="http://www.w3.org/2000/svg">
<path d="M49.4748 19.9446L28.352 44.9929L4.66582 4.12488L49.4748 19.9446ZM58.9949 12.7401L60.1898 29.5257L53.1539 18.4968L53.0646 18.3872L52.9655 18.2662L52.8713 18.1799L52.7919 18.1169L52.7026 18.0525C52.6431 18.0163 52.5837 17.9905 52.5242 17.9637L52.4201 17.9117L52.4151 17.9102L17.9246 5.73141L58.9949 12.7401ZM75.2633 3.26857L60.17 10.0006L19.065 2.98695L75.2633 3.26857ZM46.6435 27.8007L47.898 26.3112L51.7705 21.7157L58.5288 32.3138L46.6435 27.8007ZM1.44287 0L1.42307 0.00297928L1.33876 0.0109215C1.2743 0.0153847 1.20983 0.0198441 1.14537 0.0327339L1.1305 0.036705L1.09578 0.0485916L1.01647 0.0709152C0.892509 0.109097 0.773479 0.159172 0.664395 0.228092L0.649529 0.240971C0.540445 0.31287 0.441306 0.400654 0.357013 0.498333L0.327234 0.524601L0.317308 0.542953L0.27765 0.593021L0.262785 0.612366C0.218159 0.67881 0.173534 0.748226 0.138825 0.822105L0.128899 0.850868L0.118972 0.877644L0.0892413 0.945072C0.0743661 0.989201 0.0545132 1.03284 0.0445964 1.07896L0.0396574 1.08588L0.0347184 1.13101C0.0198432 1.19398 0.00495839 1.25647 1.16393e-09 1.32291V1.35017V1.42207C1.16393e-09 1.49001 -1.93677e-05 1.55744 0.00493902 1.62339L0.0148655 1.66455L0.0247919 1.72105L0.0396574 1.79146L0.0644493 1.88569L0.0693883 1.90106C0.0941803 1.9794 0.12395 2.05624 0.163617 2.12814L0.173543 2.14501L0.18347 2.15443L0.188409 2.17624L26.8794 48.2287C27.1174 48.6368 27.5389 48.9041 28.0049 48.9452L28.1338 48.9512C28.5603 48.9512 28.9669 48.7642 29.2396 48.436L44.6602 30.1485L61.5038 36.5438L61.5881 36.576C61.7567 36.6385 61.9302 36.6688 62.0988 36.6688C62.5302 36.6688 62.9467 36.4788 63.2293 36.1303C63.5417 35.742 63.6161 35.2293 63.4673 34.7697L61.8757 12.4123L82.5868 3.17734C83.2066 2.89917 83.5537 2.22482 83.4149 1.55594C83.2711 0.888042 82.686 0.409065 82.0018 0.405098L1.4528 0H1.44287Z" fill="#0F62FE"/>
</svg>
