<svg width="83" height="83" viewBox="0 0 83 83" fill="none" xmlns="http://www.w3.org/2000/svg">
<path opacity="0.2" d="M36.3125 56.9555L46.6875 51.875V70.0312L36.3125 64.5779V67.4375C36.3125 68.1254 36.0392 68.7851 35.5528 69.2716C35.0664 69.758 34.4067 70.0312 33.7188 70.0312H15.5625C14.8746 70.0312 14.2149 69.758 13.7284 69.2716C13.242 68.7851 12.9688 68.1254 12.9688 67.4375V54.4688C12.9688 53.7808 13.242 53.1211 13.7284 52.6347C14.2149 52.1483 14.8746 51.875 15.5625 51.875H33.7188C34.4067 51.875 35.0664 52.1483 35.5528 52.6347C36.0392 53.1211 36.3125 53.7808 36.3125 54.4688V56.9555ZM49.2812 10.375V28.5312H67.4375L49.2812 10.375Z" fill="#0233BD"/>
<path d="M48.0589 49.6736C47.6853 49.441 47.2585 49.3074 46.819 49.2853C46.3794 49.2632 45.9414 49.3533 45.5462 49.5471L38.6663 52.9157C38.3358 51.8623 37.6777 50.9417 36.7879 50.2881C35.8981 49.6344 34.8229 49.2817 33.7188 49.2812H15.5625C14.1867 49.2812 12.8672 49.8278 11.8944 50.8006C10.9215 51.7735 10.375 53.0929 10.375 54.4688V67.4375C10.375 68.8133 10.9215 70.1328 11.8944 71.1056C12.8672 72.0785 14.1867 72.625 15.5625 72.625H33.7188C34.8603 72.6237 35.9696 72.2459 36.8747 71.5501C37.7798 70.8543 38.43 69.8794 38.7247 68.7765L45.4814 72.3429C45.8779 72.5512 46.3215 72.6532 46.7691 72.6392C47.2167 72.6251 47.653 72.4953 48.0356 72.2626C48.4182 72.0298 48.734 71.702 48.9523 71.311C49.1706 70.9199 49.2839 70.4791 49.2812 70.0312V51.875C49.2812 51.4345 49.169 51.0012 48.9552 50.616C48.7413 50.2308 48.4329 49.9065 48.0589 49.6736ZM33.7188 67.4375H15.5625V54.4688H33.7188V64.5195C33.7188 64.5617 33.7188 64.6006 33.7188 64.6427V67.4375ZM44.0938 65.7386L38.9062 63.0087V58.5734L44.0938 56.0347V65.7386ZM69.2726 26.6962L51.1163 8.53992C50.8753 8.29913 50.5891 8.1082 50.2743 7.97802C49.9594 7.84785 49.622 7.78098 49.2812 7.78125H18.1562C16.7804 7.78125 15.461 8.32779 14.4881 9.30063C13.5153 10.2735 12.9688 11.5929 12.9688 12.9688V41.5C12.9688 42.1879 13.242 42.8476 13.7284 43.3341C14.2149 43.8205 14.8746 44.0938 15.5625 44.0938C16.2504 44.0938 16.9101 43.8205 17.3966 43.3341C17.883 42.8476 18.1562 42.1879 18.1562 41.5V12.9688H46.6875V28.5312C46.6875 29.2192 46.9608 29.8789 47.4472 30.3653C47.9336 30.8517 48.5933 31.125 49.2812 31.125H64.8438V70.0312H57.0625C56.3746 70.0312 55.7149 70.3045 55.2284 70.7909C54.742 71.2774 54.4688 71.9371 54.4688 72.625C54.4688 73.3129 54.742 73.9726 55.2284 74.4591C55.7149 74.9455 56.3746 75.2188 57.0625 75.2188H64.8438C66.2196 75.2188 67.539 74.6722 68.5119 73.6994C69.4847 72.7265 70.0312 71.4071 70.0312 70.0312V28.5312C70.0315 28.1905 69.9647 27.8531 69.8345 27.5382C69.7043 27.2234 69.5134 26.9372 69.2726 26.6962ZM51.875 16.6357L61.1768 25.9375H51.875V16.6357Z" fill="#0233BD"/>
</svg>
