<svg width="64" height="87" viewBox="0 0 64 87" fill="none" xmlns="http://www.w3.org/2000/svg">
<path d="M3.1925 9.56C3.1925 6.04839 6.23904 3.19176 9.98346 3.19176H50.1719C53.9157 3.19176 56.9623 6.04839 56.9623 9.56V10.714C56.9623 11.2944 57.2764 11.829 57.7849 12.1103C59.6769 13.1602 60.8075 14.9007 60.8075 16.7654V78.0157C60.8075 81.1096 57.761 83.6253 54.0165 83.6253H9.98346C6.23904 83.6253 3.1925 80.7687 3.1925 77.2576V9.56ZM0 9.56V77.2576C0 82.5292 4.4785 86.8184 9.98346 86.8184H54.0165C59.5215 86.8184 64 82.8695 64 78.0157V16.7654C64 14.0207 62.5792 11.486 60.1548 9.82567V9.56C60.1548 4.28784 55.6768 -0.000717163 50.1719 -0.000717163H9.98346C4.4785 -0.000717163 0 4.28784 0 9.56Z" fill="#0233BD"/>
<path d="M12.1344 8.75594H50.9449C51.9123 8.97315 52.5512 9.36078 52.8436 9.90771C53.0986 10.3861 53.1081 10.9893 53.0374 11.5045H37.134C36.2523 11.5045 35.5378 12.2191 35.5378 13.1007V37.789L30.1715 32.8895C29.8663 32.611 29.4803 32.4723 29.0954 32.4723C28.6978 32.4723 28.3007 32.6193 27.9932 32.9134L23.004 37.6765V13.1007C23.004 12.2191 22.2894 11.5045 21.4078 11.5045H12.5583C10.8969 10.0358 10.9269 9.38139 10.928 9.37637C10.9943 9.20205 11.5747 8.88738 12.1344 8.75594ZM10.9559 14.3333C11.2416 14.5689 11.6014 14.6975 11.9707 14.6975H19.8115V41.407C19.8115 42.0464 20.1925 42.6239 20.7801 42.8751C20.9817 42.9615 21.1956 43.0038 21.4066 43.0038C21.8104 43.0038 22.2064 42.8512 22.51 42.5621L29.1189 36.2518L36.0574 42.5866C36.5241 43.0127 37.1986 43.1235 37.7784 42.8679C38.3571 42.6128 38.7303 42.0397 38.7303 41.407V14.6975H54.256C54.8948 14.6975 55.4724 14.3172 55.723 13.7301C55.8495 13.4372 56.9172 10.7955 55.674 8.43177C55.1421 7.41811 53.9725 6.10482 51.4255 5.59409C51.3225 5.57404 51.2172 5.5629 51.112 5.5629H11.9707C11.8782 5.5629 11.7852 5.57179 11.6933 5.58794C11.3636 5.64587 8.45571 6.22513 7.84027 8.56324C7.14742 11.1971 10.0141 13.5574 10.9559 14.3333Z" fill="#0233BD"/>
<path d="M27.5598 24.8179C27.8199 24.7806 28.0444 24.6169 28.1602 24.3813L28.6119 23.4673L29.0625 24.3813C29.1783 24.6169 29.4028 24.7806 29.6629 24.8179L30.6727 24.9644L29.943 25.6756C29.7553 25.8594 29.669 26.1229 29.713 26.3813L29.8862 27.3872L28.9834 26.9126C28.867 26.8508 28.7389 26.8213 28.6119 26.8213C28.4849 26.8213 28.3568 26.8508 28.2399 26.9126L27.3376 27.3872L27.5102 26.3824C27.5553 26.1234 27.469 25.8594 27.2813 25.6756L26.5517 24.9644L27.5598 24.8179ZM25.8655 26.5261L25.4901 28.7105C25.4383 29.0102 25.562 29.3126 25.8065 29.4919C25.9463 29.5933 26.11 29.6445 26.2766 29.6445C26.4036 29.6445 26.5311 29.6133 26.6481 29.5526L28.6119 28.5211L30.5746 29.5526C30.8436 29.6935 31.1689 29.6707 31.4151 29.4919C31.6607 29.3137 31.7832 29.0107 31.7325 28.7105L31.3577 26.5261L32.9445 24.9789C33.1634 24.7678 33.2408 24.4498 33.1472 24.1602C33.0536 23.8717 32.8036 23.6611 32.5028 23.6177L30.3089 23.2985L29.3281 21.3108C29.1934 21.0373 28.916 20.8646 28.6119 20.8646C28.3078 20.8646 28.0305 21.0373 27.8957 21.3108L26.9148 23.2985L24.7204 23.6177C24.4208 23.6611 24.1707 23.8717 24.076 24.1602C23.9825 24.4498 24.0604 24.7678 24.2788 24.9789L25.8655 26.5261Z" fill="#0233BD"/>
</svg>
