<svg width="81" height="19" viewBox="0 0 81 19" fill="none" xmlns="http://www.w3.org/2000/svg">
<path d="M5.9473 7.8378L6.0922 7.4238H13.3993L13.2337 7.8378H5.9473ZM13.7719 2.5386C13.9099 2.028 13.9651 1.6554 13.9375 1.4208C13.9237 1.1724 13.8064 1.0068 13.5856 0.923999C13.3648 0.827399 13.0198 0.772199 12.5506 0.758399L12.6541 0.344399C13.0267 0.358199 13.5097 0.371999 14.1031 0.385799C14.6965 0.399599 15.2899 0.406499 15.8833 0.406499C16.5595 0.406499 17.2012 0.399599 17.8084 0.385799C18.4156 0.371999 18.9124 0.358199 19.2988 0.344399L19.1953 0.758399C18.7261 0.772199 18.3604 0.827399 18.0982 0.923999C17.836 1.0068 17.629 1.1724 17.4772 1.4208C17.3392 1.6554 17.2012 2.028 17.0632 2.5386L14.3308 12.8058C14.2066 13.3026 14.1514 13.6752 14.1652 13.9236C14.179 14.172 14.2963 14.3376 14.5171 14.4204C14.7379 14.5032 15.0829 14.5584 15.5521 14.586L15.4693 15C15.0967 14.9724 14.6068 14.9586 13.9996 14.9586C13.3924 14.9448 12.7507 14.9379 12.0745 14.9379C11.4811 14.9379 10.8808 14.9448 10.2736 14.9586C9.6802 14.9586 9.1972 14.9724 8.8246 15L8.9074 14.586C9.3766 14.5584 9.7423 14.5032 10.0045 14.4204C10.2667 14.3376 10.4737 14.172 10.6255 13.9236C10.7773 13.6752 10.9153 13.3026 11.0395 12.8058L13.7719 2.5386ZM5.6368 12.8058C5.5126 13.3026 5.4574 13.6752 5.4712 13.9236C5.485 14.172 5.6023 14.3376 5.8231 14.4204C6.0439 14.5032 6.3889 14.5584 6.8581 14.586L6.7753 15C6.3889 14.9724 5.899 14.9586 5.3056 14.9586C4.726 14.9448 4.1326 14.9379 3.5254 14.9379C2.8354 14.9379 2.1937 14.9448 1.6003 14.9586C1.0069 14.9586 0.5239 14.9724 0.1513 15L0.2548 14.586C0.7102 14.5584 1.0621 14.5032 1.3105 14.4204C1.5727 14.3376 1.7797 14.172 1.9315 13.9236C2.0833 13.6752 2.2213 13.3026 2.3455 12.8058L5.0779 2.5386C5.2159 2.028 5.2711 1.6554 5.2435 1.4208C5.2159 1.1724 5.0917 1.0068 4.8709 0.923999C4.6639 0.827399 4.3258 0.772199 3.8566 0.758399L3.9601 0.344399C4.3051 0.358199 4.7812 0.371999 5.3884 0.385799C5.9956 0.399599 6.6442 0.406499 7.3342 0.406499C7.9414 0.406499 8.5279 0.399599 9.0937 0.385799C9.6733 0.371999 10.177 0.358199 10.6048 0.344399L10.5013 0.758399C10.0321 0.772199 9.6664 0.827399 9.4042 0.923999C9.142 1.0068 8.935 1.1724 8.7832 1.4208C8.6452 1.6554 8.5072 2.028 8.3692 2.5386L5.6368 12.8058ZM23.7491 13.7373L21.5342 16.242L19.8782 6.0783C19.8092 5.7057 19.7402 5.4504 19.6712 5.3124C19.6022 5.1744 19.4918 5.1054 19.34 5.1054C19.202 5.1054 19.064 5.202 18.926 5.3952C18.788 5.5746 18.6017 5.9886 18.3671 6.6372L17.9945 7.6515H17.6012L18.1187 6.1404C18.4085 5.2986 18.7742 4.7328 19.2158 4.443C19.6574 4.1532 20.1404 4.0083 20.6648 4.0083C21.2306 4.0083 21.686 4.167 22.031 4.4844C22.376 4.788 22.6106 5.3745 22.7348 6.2439L23.7491 13.7373ZM18.8018 17.8773C19.4504 17.5599 20.1197 17.1252 20.8097 16.5732C21.4997 16.035 22.2035 15.3036 22.9211 14.379C23.6939 13.4268 24.3701 12.3987 24.9497 11.2947C25.5293 10.1769 25.9571 9.1074 26.2331 8.0862C25.9019 7.893 25.5845 7.6653 25.2809 7.4031C24.9911 7.1271 24.7565 6.8235 24.5771 6.4923C24.3977 6.1611 24.3149 5.8023 24.3287 5.4159C24.3287 4.9743 24.4529 4.6293 24.7013 4.3809C24.9497 4.1325 25.2878 4.0083 25.7156 4.0083C26.1986 4.0083 26.5436 4.1739 26.7506 4.5051C26.9714 4.8363 27.0818 5.2986 27.0818 5.892C27.0818 6.5406 26.9714 7.2513 26.7506 8.0241C26.5298 8.7969 26.2262 9.5973 25.8398 10.4253C25.4534 11.2395 25.0187 12.033 24.5357 12.8058C24.0527 13.5786 23.5421 14.2824 23.0039 14.9172C22.5761 15.4554 22.0931 15.9591 21.5549 16.4283C21.0305 16.8975 20.4716 17.3184 19.8782 17.691C19.2986 18.0636 18.6914 18.3603 18.0566 18.5811C17.753 18.6915 17.477 18.7674 17.2286 18.8088C16.9802 18.864 16.7663 18.8916 16.5869 18.8916C16.1453 18.8916 15.8003 18.7881 15.5519 18.5811C15.2897 18.3879 15.1586 18.105 15.1586 17.7324C15.1586 17.3736 15.2966 17.07 15.5726 16.8216C15.8348 16.5732 16.1729 16.449 16.5869 16.449C17.0285 16.449 17.4287 16.5732 17.7875 16.8216C18.1601 17.0838 18.4982 17.4357 18.8018 17.8773ZM35.1222 5.1054C34.8462 5.1054 34.5426 5.2848 34.2114 5.6436C33.894 5.9886 33.5697 6.4647 33.2385 7.0719C32.9211 7.6791 32.6175 8.3691 32.3277 9.1419C32.0379 9.9147 31.7964 10.722 31.6032 11.5638L31.9758 9.4524C32.4174 8.1552 32.859 7.1064 33.3006 6.306C33.7422 5.5056 34.2045 4.926 34.6875 4.5672C35.1843 4.1946 35.7087 4.0083 36.2607 4.0083C37.1025 4.0083 37.7373 4.2843 38.1651 4.8363C38.6067 5.3745 38.8275 6.1611 38.8275 7.1961C38.8275 7.8309 38.7378 8.5209 38.5584 9.2661C38.3928 9.9975 38.1375 10.722 37.7925 11.4396C37.4475 12.1434 37.0197 12.7851 36.5091 13.3647C36.0123 13.9443 35.4396 14.4135 34.791 14.7723C34.1424 15.1173 33.4248 15.2898 32.6382 15.2898C32.1966 15.2898 31.7895 15.207 31.4169 15.0414C31.0581 14.8758 30.7959 14.655 30.6303 14.379L30.7752 14.0478C30.9132 14.2824 31.065 14.448 31.2306 14.5446C31.41 14.6412 31.6101 14.6895 31.8309 14.6895C32.2449 14.6895 32.6451 14.5239 33.0315 14.1927C33.4179 13.8615 33.7767 13.4199 34.1079 12.8679C34.4529 12.3159 34.7496 11.7018 34.998 11.0256C35.2602 10.3356 35.4603 9.6318 35.5983 8.9142C35.7363 8.1828 35.8053 7.4859 35.8053 6.8235C35.8053 6.1473 35.7432 5.6919 35.619 5.4573C35.4948 5.2227 35.3292 5.1054 35.1222 5.1054ZM31.6032 1.3794C32.1828 1.338 32.721 1.269 33.2178 1.1724C33.7284 1.0758 34.2183 0.951599 34.6875 0.799798L30.2163 16.5525C30.0231 17.2701 30.0714 17.7393 30.3612 17.9601C30.651 18.1809 31.134 18.2982 31.8102 18.312L31.686 18.7467C31.3686 18.7329 30.9132 18.7122 30.3198 18.6846C29.7264 18.6708 29.0916 18.6639 28.4154 18.6639C27.8634 18.6639 27.3114 18.6708 26.7594 18.6846C26.2074 18.7122 25.7865 18.7329 25.4967 18.7467L25.6209 18.312C26.1177 18.312 26.4765 18.2154 26.6973 18.0222C26.9181 17.8428 27.0975 17.5116 27.2355 17.0286L31.6032 1.3794ZM27.6081 7.755C28.1049 7.2168 28.5741 6.6855 29.0157 6.1611C29.4573 5.6229 29.8851 4.9881 30.2991 4.2567C30.7131 3.5253 31.1409 2.6076 31.5825 1.5036L31.6446 1.8348C31.3548 2.787 31.0098 3.6288 30.6096 4.3602C30.2232 5.0778 29.7954 5.7264 29.3262 6.306C28.857 6.8856 28.3602 7.4583 27.8358 8.0241L27.6081 7.755ZM42.1603 10.5081C42.7261 10.2873 43.2643 10.0389 43.7749 9.7629C44.2855 9.4869 44.7202 9.1833 45.079 8.8521C45.6172 8.3691 46.045 7.8102 46.3624 7.1754C46.6936 6.5268 46.8592 5.8299 46.8592 5.0847C46.8592 4.8087 46.8316 4.6293 46.7764 4.5465C46.7212 4.4499 46.6384 4.4016 46.528 4.4016C46.2244 4.4016 45.8932 4.5603 45.5344 4.8777C45.1894 5.1813 44.8444 5.5953 44.4994 6.1197C44.1544 6.6303 43.837 7.2168 43.5472 7.8792C43.2712 8.5416 43.0435 9.2316 42.8641 9.9492C42.6985 10.6668 42.6157 11.3637 42.6157 12.0399C42.6157 12.8127 42.7606 13.344 43.0504 13.6338C43.354 13.9098 43.7404 14.0478 44.2096 14.0478C44.5822 14.0478 45.0445 13.9236 45.5965 13.6752C46.1485 13.4268 46.6936 12.9852 47.2318 12.3504L47.563 12.516C47.2732 12.9714 46.8937 13.413 46.4245 13.8408C45.9553 14.2686 45.4102 14.6205 44.7892 14.8965C44.1682 15.1587 43.492 15.2898 42.7606 15.2898C42.1396 15.2898 41.5807 15.1794 41.0839 14.9586C40.6009 14.7378 40.2145 14.4135 39.9247 13.9857C39.6487 13.5441 39.5107 13.0059 39.5107 12.3711C39.5107 11.6397 39.628 10.8876 39.8626 10.1148C40.111 9.342 40.456 8.5968 40.8976 7.8792C41.3392 7.1478 41.8705 6.4923 42.4915 5.9127C43.1125 5.3193 43.8025 4.857 44.5615 4.5258C45.3205 4.1808 46.1278 4.0083 46.9834 4.0083C47.5906 4.0083 48.1012 4.1463 48.5152 4.4223C48.9292 4.6845 49.1362 5.0916 49.1362 5.6436C49.1362 6.1818 48.9844 6.6855 48.6808 7.1547C48.391 7.6239 47.9977 8.0517 47.5009 8.4381C47.0041 8.8245 46.4452 9.1695 45.8242 9.4731C45.217 9.7767 44.5891 10.0389 43.9405 10.2597C43.3057 10.4805 42.7054 10.653 42.1396 10.7772L42.1603 10.5081ZM56.4175 4.0704L53.1676 15H50.2489L52.8364 6.2646C52.4776 6.4026 52.0843 6.5406 51.6565 6.6786C51.2425 6.8166 50.7181 6.9684 50.0833 7.134L50.1454 6.6993C51.1528 6.4371 52.0153 6.1611 52.7329 5.8713C53.4505 5.5815 54.0646 5.2779 54.5752 4.9605C55.0996 4.6431 55.5757 4.3464 56.0035 4.0704H56.4175ZM65.486 0.0545982C66.1346 0.0545982 66.7142 0.137398 67.2248 0.302999C67.7492 0.454798 68.1632 0.696299 68.4668 1.0275C68.7704 1.3449 68.9222 1.7589 68.9222 2.2695C68.9222 2.7801 68.7704 3.2631 68.4668 3.7185C68.1632 4.1739 67.763 4.5948 67.2662 4.9812C66.7694 5.3538 66.2381 5.6988 65.6723 6.0162C65.1203 6.3198 64.589 6.582 64.0784 6.8028L63.9956 6.6372C64.382 6.3336 64.7339 5.9472 65.0513 5.478C65.3825 4.995 65.6447 4.4706 65.8379 3.9048C66.0311 3.3252 66.1277 2.7318 66.1277 2.1246C66.1277 0.992998 65.7413 0.427198 64.9685 0.427198C64.5683 0.427198 64.1888 0.565199 63.83 0.841199C63.485 1.1034 63.2021 1.4553 62.9813 1.8969C62.7605 2.3385 62.6501 2.8284 62.6501 3.3666C62.6501 3.9876 62.8019 4.5327 63.1055 5.0019C63.4091 5.4711 63.7817 5.9058 64.2233 6.306C64.6787 6.7062 65.1272 7.1133 65.5688 7.5273C66.0104 7.9413 66.383 8.4036 66.6866 8.9142C66.9902 9.411 67.142 9.9975 67.142 10.6737C67.142 11.3499 66.9695 11.9709 66.6245 12.5367C66.2933 13.1025 65.831 13.5924 65.2376 14.0064C64.658 14.4066 63.9887 14.724 63.2297 14.9586C62.4707 15.1794 61.6772 15.2898 60.8492 15.2898C60.104 15.2898 59.4209 15.1932 58.7999 15C58.1927 14.8068 57.7028 14.517 57.3302 14.1306C56.9576 13.7304 56.7713 13.2129 56.7713 12.5781C56.7713 11.9847 56.9369 11.4258 57.2681 10.9014C57.5993 10.377 58.0409 9.894 58.5929 9.4524C59.1449 9.0108 59.7521 8.6175 60.4145 8.2725C61.0907 7.9275 61.76 7.6308 62.4224 7.3824L62.5052 7.548C61.9946 7.893 61.5254 8.3415 61.0976 8.8935C60.6698 9.4317 60.3317 10.0458 60.0833 10.7358C59.8349 11.412 59.7107 12.1227 59.7107 12.8679C59.7107 13.4751 59.8211 13.9719 60.0419 14.3583C60.2765 14.7309 60.6836 14.9172 61.2632 14.9172C61.7876 14.9172 62.2844 14.7654 62.7536 14.4618C63.2228 14.1582 63.6023 13.7442 63.8921 13.2198C64.1819 12.6816 64.3268 12.0882 64.3268 11.4396C64.3268 10.7634 64.1819 10.1769 63.8921 9.6801C63.6023 9.1833 63.2435 8.7279 62.8157 8.3139C62.3879 7.8999 61.9601 7.4928 61.5323 7.0926C61.1045 6.6786 60.7457 6.237 60.4559 5.7678C60.1661 5.2848 60.0212 4.719 60.0212 4.0704C60.0212 3.4632 60.173 2.9181 60.4766 2.4351C60.7802 1.9383 61.1873 1.5174 61.6979 1.1724C62.2085 0.813599 62.7881 0.537599 63.4367 0.344399C64.0991 0.151199 64.7822 0.0545982 65.486 0.0545982ZM76.6266 4.0083C77.91 4.0083 78.9105 4.3464 79.6281 5.0226C80.3457 5.685 80.7045 6.6027 80.7045 7.7757C80.7045 8.7003 80.5113 9.6111 80.1249 10.5081C79.7385 11.4051 79.2072 12.2124 78.531 12.93C77.8548 13.6476 77.0682 14.2203 76.1712 14.6481C75.288 15.0759 74.3496 15.2898 73.356 15.2898C72.1002 15.2898 71.0997 14.9586 70.3545 14.2962C69.6093 13.6338 69.2367 12.7023 69.2367 11.5017C69.2367 10.5633 69.4299 9.6525 69.8163 8.7693C70.2165 7.8861 70.7547 7.0857 71.4309 6.3681C72.1209 5.6367 72.9075 5.064 73.7907 4.65C74.6877 4.2222 75.633 4.0083 76.6266 4.0083ZM76.2954 4.3809C75.7158 4.3809 75.1776 4.6017 74.6808 5.0433C74.184 5.4711 73.7493 6.0507 73.3767 6.7821C73.0179 7.5135 72.7419 8.3277 72.5487 9.2247C72.3555 10.1217 72.2589 11.0187 72.2589 11.9157C72.2589 12.9921 72.3969 13.7649 72.6729 14.2341C72.9489 14.6895 73.287 14.9172 73.6872 14.9172C74.2944 14.9172 74.8395 14.6895 75.3225 14.2341C75.8055 13.7787 76.2195 13.1784 76.5645 12.4332C76.9233 11.688 77.1993 10.8669 77.3925 9.9699C77.5857 9.0729 77.6823 8.1897 77.6823 7.3203C77.6823 6.2577 77.5512 5.5056 77.289 5.064C77.0268 4.6086 76.6956 4.3809 76.2954 4.3809Z" fill="black"/>
</svg>
