<svg width="32" height="29" viewBox="0 0 32 29" fill="none" xmlns="http://www.w3.org/2000/svg">
<path d="M17.5385 28.4103L22.0513 13.8462C20.547 13.4359 19.3846 12.6496 18.5641 11.4872C17.7436 10.2564 17.3333 8.8547 17.3333 7.28205C17.3333 5.84615 17.641 4.58119 18.2564 3.48718C18.9402 2.39316 19.8291 1.53846 20.9231 0.923071C22.0171 0.307691 23.2479 0 24.6154 0C26.6667 0 28.4103 0.68376 29.8462 2.05128C31.282 3.35042 32 5.05983 32 7.17949C32 8.34188 31.7949 9.47008 31.3846 10.5641C31.0427 11.6581 30.6325 12.7179 30.1538 13.7436L22.5641 28.4103H17.5385ZM0.205126 28.4103L4.71795 13.8462C3.21367 13.4359 2.05128 12.6496 1.23077 11.4872C0.410256 10.2564 0 8.8547 0 7.28205C0 5.84615 0.307692 4.58119 0.923076 3.48718C1.60684 2.39316 2.49573 1.53846 3.58974 0.923071C4.68376 0.307691 5.91453 0 7.28205 0C9.33333 0 11.0769 0.68376 12.5128 2.05128C13.9487 3.35042 14.6667 5.05983 14.6667 7.17949C14.6667 8.34188 14.4615 9.47008 14.0513 10.5641C13.7094 11.6581 13.2991 12.7179 12.8205 13.7436L5.23077 28.4103H0.205126Z" fill="#282828"/>
</svg>
