<svg width="103" height="60" viewBox="0 0 103 60" fill="none" xmlns="http://www.w3.org/2000/svg">
<path d="M46.4167 20.0773C46.4167 19.3739 48.2124 18.3521 51.0272 18.3521C53.8474 18.3521 55.6431 19.3739 55.6431 20.0773C55.6431 20.7802 53.8474 21.8019 51.0272 21.8019C48.2124 21.8019 46.4167 20.7802 46.4167 20.0773ZM6.06812 19.0357C16.9526 15.6398 43.0952 5.80188 50.2285 3.1017L96.3938 18.8622L51.0272 38.5434L21.0728 25.546L46.3671 22.2085C47.4688 22.8871 49.1213 23.3057 51.0272 23.3057C54.5139 23.3057 57.1469 21.9171 57.1469 20.0773C57.1469 18.237 54.5139 16.8488 51.0272 16.8488C48.0196 16.8488 45.6565 17.8822 45.0616 19.3474L15.7132 23.2198L6.06812 19.0357ZM76.013 54.1623C76.013 55.3482 75.0435 56.3128 73.8592 56.3128H31.4505C30.2662 56.3128 29.2968 55.3482 29.2968 54.1623V32.3934L50.4323 41.5614C50.6251 41.6446 50.8234 41.6859 51.0272 41.6859C51.2365 41.6859 51.4348 41.6446 51.6276 41.5614L76.013 30.9838V54.1623ZM13.1078 47.5402L14.6556 38.3595C14.7438 37.8318 14.5455 37.298 14.1378 36.9554C13.8789 36.7411 13.7357 36.4282 13.7357 36.0955C13.7357 35.4791 14.237 34.9768 14.8539 34.9768C15.4708 34.9768 15.9721 35.4791 15.9721 36.0955C15.9721 36.4398 15.8234 36.6849 15.6967 36.8303C15.4102 37.1581 15.278 37.5938 15.3386 38.024L16.6552 47.5402H13.1078ZM13.9891 32.0607C12.1273 32.4589 10.7282 34.1158 10.7282 36.0955C10.7282 37.0077 11.0256 37.8797 11.5654 38.5908L9.84133 48.7939C9.76972 49.2301 9.89094 49.6769 10.1774 50.0151C10.4638 50.3533 10.8824 50.5478 11.3286 50.5478H18.3793C18.8144 50.5478 19.2276 50.3599 19.514 50.0322C19.8004 49.7039 19.9271 49.2687 19.872 48.8374L18.4013 38.2014C18.7759 37.5679 18.9797 36.8414 18.9797 36.0955C18.9797 34.6066 18.1865 33.3028 16.9967 32.5768V27.0574L26.2893 31.0885V54.1623C26.2893 57.0068 28.6027 59.3203 31.4505 59.3203H73.8592C76.707 59.3203 79.0205 57.0068 79.0205 54.1623V29.6789L101.153 20.074C101.726 19.8272 102.084 19.2549 102.062 18.6335C102.034 18.0133 101.632 17.4718 101.043 17.2713L50.6912 0.0809364C50.3607 -0.0330849 49.9971 -0.0259476 49.6721 0.0979881C32.431 6.62592 4.11819 17.0328 1.49072 17.1909C0.780142 17.197 0.174225 17.6955 0.0310085 18.3884C-0.112208 19.0863 0.251331 19.7909 0.901315 20.074L13.9891 25.752V32.0607Z" fill="#0F62FE"/>
</svg>
