<svg width="73" height="83" viewBox="0 0 73 83" fill="none" xmlns="http://www.w3.org/2000/svg">
<g clip-path="url(#clip0_2631_30489)">
<path d="M50.1088 71.5476C50.189 72.0715 49.8091 72.5635 49.2605 72.6471L34.4274 74.9078C33.8789 74.9914 33.3697 74.6347 33.2899 74.1111L33.0829 72.7515C33.0028 72.2275 33.3827 71.7352 33.9312 71.6516L48.7643 69.3909C49.3129 69.3073 49.8217 69.664 49.9019 70.188L50.1088 71.5476Z" fill="#0F62FE"/>
<path d="M49.1937 76.4804C49.2735 77.0044 48.9797 77.4837 48.538 77.5512L36.583 79.3729C36.1409 79.4404 35.7181 79.0703 35.6384 78.5467L35.431 77.1871C35.3513 76.6635 35.6447 76.1842 36.0868 76.1167L48.0418 74.2947C48.4835 74.2275 48.9066 74.5972 48.9868 75.1212L49.1937 76.4804Z" fill="#0F62FE"/>
<path d="M45.9403 79.2983C46.208 81.0546 45.0013 82.695 43.2449 82.9628C41.4886 83.2306 39.8479 82.0238 39.5801 80.2675" fill="#0F62FE"/>
<path d="M31.9097 67.1429L49.519 64.4592C49.5218 64.3706 49.5172 64.2536 49.4954 64.1106C49.4649 63.9092 49.4234 63.77 49.3897 63.6843L48.7248 63.5803L48.6587 62.687C48.2644 57.3648 50.7946 52.6563 52.6423 49.2181C53.2703 48.0489 53.8129 47.0393 54.0996 46.2609L54.1116 46.2297C54.2198 45.9608 54.3245 45.6825 54.4229 45.4028L54.4275 45.3891C55.5053 42.3128 55.8114 38.9604 55.3138 35.6933C54.9128 33.0626 54.0241 30.5872 52.6732 28.3361C51.3695 26.1633 49.6915 24.2892 47.686 22.7666C45.6837 21.2464 43.4561 20.1528 41.0651 19.5164C38.5929 18.8589 36.0518 18.7211 33.5129 19.1084C30.9739 19.4956 28.5892 20.3837 26.4252 21.7479C24.3322 23.0674 22.5316 24.7749 21.0729 26.8229C19.6124 28.8738 18.5687 31.1625 17.9713 33.6252C17.3521 36.1761 17.2418 38.804 17.6428 41.4353C18.1892 45.0194 19.6739 48.3768 21.9374 51.1449L21.9584 51.1716C22.4687 51.8357 23.2899 52.6461 24.2412 53.5836C27.0613 56.3654 30.9237 60.1747 32.0756 65.3879L32.1968 65.9365L31.8384 66.3571C31.8177 66.3926 31.76 66.5532 31.7987 66.8073C31.8226 66.9622 31.8697 67.0733 31.9097 67.1429ZM50.2011 66.6372L32.0267 69.4074C30.8681 69.5841 29.7886 68.5914 29.5686 67.1475C29.4765 66.5441 29.5521 65.947 29.7714 65.453C28.6423 61.0944 25.1953 57.6941 22.6571 55.1903C21.6524 54.1993 20.7844 53.3429 20.1799 52.5596C17.667 49.482 16.0185 45.7528 15.4123 41.7752C14.9667 38.8525 15.0901 35.9312 15.7789 33.0932C16.4441 30.3501 17.6073 27.8002 19.235 25.5143C20.8652 23.2255 22.8791 21.316 25.222 19.839C27.6503 18.3086 30.3252 17.3123 33.1727 16.878C36.0205 16.444 38.8708 16.5979 41.6449 17.3362C44.3212 18.0482 46.8128 19.2707 49.0509 20.9698C51.2855 22.6671 53.1554 24.7545 54.6081 27.175C56.1108 29.6792 57.0986 32.4308 57.5438 35.3538C57.8253 37.1987 57.8791 39.0654 57.7041 40.9033C57.5733 42.2706 57.3165 43.6239 56.9373 44.9407L57.0164 44.959L56.5458 46.1668C56.4397 46.4672 56.3276 46.7663 56.2113 47.0562C55.8686 47.98 55.2944 49.049 54.6299 50.286C52.986 53.345 50.7605 57.4864 50.8789 61.9304C51.2444 62.2604 51.5811 62.8209 51.7258 63.7704C51.9968 65.5489 51.1555 66.4917 50.2011 66.6372Z" fill="#0F62FE"/>
<path d="M32.3209 11.2838C31.7049 11.3777 31.1296 10.9546 31.0354 10.3389L29.6576 1.29531C29.5637 0.680335 29.9868 0.10402 30.6029 0.0126524C31.2185 -0.0822287 31.7941 0.339479 31.888 0.957965L33.2662 9.99872C33.36 10.6147 32.9369 11.19 32.3209 11.2838Z" fill="#0F62FE"/>
<path d="M71.4025 32.2497L62.3607 33.6276C61.745 33.7214 61.1694 33.2983 61.0755 32.6827C60.9817 32.0666 61.4048 31.491 62.0208 31.3972L71.0627 30.019C71.6783 29.9251 72.2539 30.3486 72.3478 30.9642C72.4416 31.5799 72.0185 32.1559 71.4025 32.2497Z" fill="#0F62FE"/>
<path d="M10.34 41.556L1.29813 42.9342C0.682108 43.0281 0.106853 42.6046 0.0130261 41.9886C-0.0808009 41.3729 0.342296 40.7977 0.958321 40.7038L10.0002 39.3256C10.6158 39.2318 11.1911 39.6552 11.2853 40.2709C11.3791 40.8869 10.9556 41.4622 10.34 41.556Z" fill="#0F62FE"/>
<path d="M51.4539 13.6669C51.1985 13.7056 50.9289 13.6574 50.6921 13.5112C50.1618 13.1844 49.9973 12.489 50.3245 11.959L55.1279 4.17387C55.4551 3.64675 56.1502 3.48157 56.6805 3.80838C57.2108 4.1352 57.3752 4.831 57.0481 5.36163L52.2446 13.1437C52.0633 13.4371 51.7699 13.6188 51.4539 13.6669Z" fill="#0F62FE"/>
<path d="M14.5366 19.2935C14.2207 19.342 13.8865 19.2566 13.6264 19.0303L6.72223 13.0313C6.25204 12.623 6.2018 11.9104 6.61049 11.4402C7.01918 10.9696 7.73149 10.9197 8.20168 11.3281L15.1059 17.3274C15.5764 17.736 15.6263 18.448 15.2176 18.9186C15.0349 19.1287 14.7917 19.2549 14.5366 19.2935Z" fill="#0F62FE"/>
</g>
<defs>
<clipPath id="clip0_2631_30489">
<rect width="72.3601" height="83" fill="white" transform="matrix(1 0 0 -1 0 83)"/>
</clipPath>
</defs>
</svg>
