<svg width="276" height="205" viewBox="0 0 276 205" fill="none" xmlns="http://www.w3.org/2000/svg">
<path d="M2.84784 47.2127C1.82731 35.6597 10.3656 25.4669 21.9185 24.4463L237.467 5.40586C249.02 4.38533 259.213 12.9236 260.234 24.4766L272.32 161.302C273.341 172.855 264.802 183.048 253.249 184.069L37.7007 203.109C26.1477 204.13 15.9549 195.591 14.9343 184.038L2.84784 47.2127Z" fill="#3D022B"/>
<path d="M21.8392 20.7669C23.5625 9.29764 34.2571 1.39698 45.7264 3.12024L254.781 34.5308C266.25 36.2541 274.151 46.9487 272.427 58.4179L253.709 183.002C251.985 194.472 241.291 202.372 229.821 200.649L20.767 169.238C9.29778 167.515 1.39709 156.821 3.12035 145.351L21.8392 20.7669Z" fill="#FECC06"/>
<path d="M86.2195 76.5945L84.1557 74.5307L89.2135 69.4689L84.1557 64.407L86.2235 62.3392L93.3492 69.4689L86.2195 76.5945ZM85.1876 47.1251C84.0663 47.1251 83.1563 48.0351 83.1563 49.1563C83.1563 50.2776 84.0663 51.1876 85.1876 51.1876C86.3088 51.1876 87.2188 50.2776 87.2188 49.1563C87.2188 48.0351 86.3088 47.1251 85.1876 47.1251ZM95.3438 49.1563C95.3438 50.2776 94.4339 51.1876 93.3126 51.1876C92.1913 51.1876 91.2813 50.2776 91.2813 49.1563C91.2813 48.0351 92.1913 47.1251 93.3126 47.1251C94.4339 47.1251 95.3438 48.0351 95.3438 49.1563ZM103.469 49.1563C103.469 50.2776 102.559 51.1876 101.438 51.1876C100.316 51.1876 99.4063 50.2776 99.4063 49.1563C99.4063 48.0351 100.316 47.1251 101.438 47.1251C102.559 47.1251 103.469 48.0351 103.469 49.1563ZM148.156 65.4063C148.156 66.5276 147.246 67.4376 146.125 67.4376C145.004 67.4376 144.094 66.5276 144.094 65.4063C144.094 64.2851 145.004 63.3751 146.125 63.3751C147.246 63.3751 148.156 64.2851 148.156 65.4063ZM156.281 65.4063C156.281 66.5276 155.371 67.4376 154.25 67.4376C153.129 67.4376 152.219 66.5276 152.219 65.4063C152.219 64.2851 153.129 63.3751 154.25 63.3751C155.371 63.3751 156.281 64.2851 156.281 65.4063ZM164.406 65.4063C164.406 66.5276 163.496 67.4376 162.375 67.4376C161.254 67.4376 160.344 66.5276 160.344 65.4063C160.344 64.2851 161.254 63.3751 162.375 63.3751C163.496 63.3751 164.406 64.2851 164.406 65.4063ZM95.3438 138.531C95.3438 139.653 94.4339 140.563 93.3126 140.563C92.1913 140.563 91.2813 139.653 91.2813 138.531C91.2813 137.41 92.1913 136.5 93.3126 136.5C94.4339 136.5 95.3438 137.41 95.3438 138.531ZM125.813 97.3376H77.0626C76.2542 97.3376 75.6001 96.6835 75.6001 95.8751V43.0626C75.6001 42.2542 76.2542 41.6001 77.0626 41.6001H125.813C126.621 41.6001 127.275 42.2542 127.275 43.0626V95.8751C127.275 96.6835 126.621 97.3376 125.813 97.3376ZM124.35 56.7126H78.5251V94.4126H124.35V56.7126ZM124.35 44.5251H78.5251V53.7917H124.35V44.5251ZM200.4 59.3126V128.375C200.4 129.184 199.746 129.838 198.938 129.838H152.995C151.772 131.751 150.192 133.433 148.315 134.774C159.994 139.039 167.892 150.122 167.892 162.813L167.9 164.929L164.971 164.938L164.963 162.817C164.963 150.313 156.472 139.543 144.313 136.614C143.704 136.472 143.257 135.952 143.2 135.33C143.143 134.709 143.484 134.115 144.057 133.864C149.399 131.459 152.853 126.145 152.853 120.319C152.853 112.125 146.19 105.463 138 105.463C129.802 105.463 123.131 112.125 123.131 120.319C123.131 126.145 126.584 131.459 131.931 133.864C132.504 134.115 132.845 134.709 132.788 135.33C132.731 135.952 132.28 136.472 131.675 136.614C119.516 139.543 111.021 150.313 111.021 162.813L111.025 164.929L108.1 164.938L108.096 162.817C108.096 150.122 115.989 139.035 127.673 134.774C123.05 131.475 120.206 126.104 120.206 120.315C120.206 111.004 127.405 103.342 136.538 102.594V59.3126C136.538 58.5042 137.192 57.8501 138 57.8501H198.938C199.746 57.8501 200.4 58.5042 200.4 59.3126ZM197.475 72.9626H139.463V102.599C148.587 103.346 155.782 111.008 155.782 120.319C155.782 122.619 155.335 124.849 154.502 126.913H197.475V72.9626ZM197.475 60.7751H139.463V70.0376H197.475V60.7751ZM162.375 86.2876H146.125V89.2126H162.375V86.2876ZM169.038 110.094C169.038 103.687 174.25 98.4751 180.656 98.4751C187.063 98.4751 192.275 103.687 192.275 110.094C192.275 116.5 187.063 121.713 180.656 121.713C174.25 121.713 169.038 116.5 169.038 110.094ZM187.733 105.081L182.115 110.699L182.099 118.641C186.202 117.947 189.346 114.392 189.346 110.094C189.35 108.225 188.741 106.499 187.733 105.081ZM171.963 110.094C171.963 114.38 175.087 117.926 179.169 118.637L179.194 109.484L185.661 103.013C184.244 102.005 182.521 101.4 180.652 101.4C175.863 101.4 171.963 105.3 171.963 110.094ZM105.5 78.1626H93.3126V81.0876H105.5V78.1626ZM87.2188 125.775H99.4063V122.85H87.2188V125.775ZM87.2188 117.65H99.4063V114.725H87.2188V117.65ZM162.375 94.4126H146.125V97.3376H162.375V94.4126ZM190.813 86.2876H174.563V89.2126H190.813V86.2876ZM190.813 78.1626H174.563V81.0876H190.813V78.1626ZM162.375 78.1626H146.125V81.0876H162.375V78.1626ZM106.963 110.435V142.253C106.963 144.369 105.244 146.088 103.128 146.088H83.4976C81.381 146.088 79.6626 144.365 79.6626 142.253V110.435C79.6626 108.319 81.381 106.6 83.4976 106.6H103.128C105.244 106.6 106.963 108.319 106.963 110.435ZM104.038 133.9H82.5876V142.253C82.5876 142.752 82.9979 143.163 83.4976 143.163H103.128C103.631 143.163 104.038 142.752 104.038 142.253V133.9ZM104.038 110.435C104.038 109.935 103.627 109.525 103.128 109.525H83.4976C82.9938 109.525 82.5876 109.935 82.5876 110.435V130.975H104.038V110.435Z" fill="#581010"/>
</svg>
