<svg width="73" height="81" viewBox="0 0 73 81" fill="none" xmlns="http://www.w3.org/2000/svg">
<path d="M41.9909 75.1372L44.4191 76.8264C45.2637 77.4598 45.4748 78.6211 44.9469 79.5712C44.5246 80.0991 43.9968 80.4158 43.3634 80.4158C42.9411 80.4158 42.6244 80.3102 42.3076 80.0991L35.6566 75.4539L35.1288 75.1372C34.6009 74.8205 34.2842 74.1871 34.2842 73.5536C34.2842 72.9202 34.6009 72.2868 35.1288 71.9701L42.0965 67.1138C42.9411 66.4803 44.2079 66.6915 44.8414 67.6416C45.4748 68.4862 45.2637 69.7531 44.3135 70.3865L43.1522 71.1255C57.6156 68.2751 68.595 55.5009 68.595 40.1929C68.595 26.363 59.4103 13.9056 46.1082 9.99939C45.1581 9.47153 44.5246 8.41582 44.8414 7.3601C45.1581 6.30438 46.2138 5.77652 47.2695 6.09324C62.1551 10.5273 72.5012 24.5683 72.5012 39.9818C72.5012 57.929 59.1991 72.7091 41.9909 75.1372Z" fill="#0233BD"/>
<path d="M37.8739 8.41486L30.9062 13.2712C30.5894 13.4823 30.1672 13.5879 29.8504 13.5879C29.217 13.5879 28.5836 13.2712 28.2669 12.7433C27.6334 11.8987 27.8446 10.6319 28.7947 9.99844L29.956 9.25944C15.3871 12.2155 4.40762 24.9896 4.40762 40.2976C4.40762 54.1275 13.5924 66.585 26.8944 70.4911C27.9501 70.8078 28.478 71.8635 28.1613 72.9193C27.9501 73.7638 27.1056 74.2917 26.261 74.2917C26.0499 74.2917 25.9443 74.2917 25.7331 74.1861C10.8475 69.7521 0.501465 55.8166 0.501465 40.2976C0.501465 22.4559 13.8035 7.57029 31.0117 5.24771L28.5836 3.55856C27.739 2.92513 27.5279 1.76384 28.0557 0.813691C28.6891 -0.0308837 29.8504 -0.242027 30.8006 0.285832L37.346 4.82542L37.8739 5.24771C38.4018 5.56442 38.7185 6.19786 38.7185 6.83129C38.7185 7.46472 38.4018 8.09815 37.8739 8.41486Z" fill="#0233BD"/>
<path d="M37.0284 66.6926C22.3539 66.6926 10.4243 54.763 10.4243 40.0885C10.4243 25.414 22.3539 13.4844 37.0284 13.4844C51.7029 13.4844 63.6325 25.414 63.6325 40.0885C63.6325 54.763 51.7029 66.6926 37.0284 66.6926ZM37.0284 14.9624C23.1985 14.9624 12.0079 26.153 12.0079 39.9829C12.0079 53.8128 23.1985 65.0034 37.0284 65.0034C50.8583 65.0034 62.049 53.8128 62.049 39.9829C62.049 26.153 50.8583 14.9624 37.0284 14.9624Z" fill="#040F2D"/>
<path d="M60.8285 45.6273C63.9055 32.4508 55.7182 19.2748 42.5417 16.1979C29.3653 13.1209 16.1893 21.3082 13.1123 34.4847C10.0354 47.6611 18.2227 60.8371 31.3991 63.9141C44.5756 66.991 57.7516 58.8037 60.8285 45.6273Z" fill="#0233BD"/>
<g clip-path="url(#clip0_5480_21555)">
<path d="M41 47.8C41 46.7 40.7 45.8 40 45C39.4 44.3 38.2 43.6 36.7 43C33.6 41.9 31.3 40.6 29.8 39.2C28.3 37.8 27.6 35.9 27.6 33.3C27.6 31 28.3 29 29.8 27.5C31.3 26.1 33.3 25.3 35.8 25V20.5H39.1V25.1C41.5 25.5 43.5 26.5 44.9 28.2C46.3 29.8 47 32 47 34.7L46.9 34.8H41C41 33.2 40.7 31.9 40 31C39.3 30.1 38.4 29.7 37.2 29.7C36 29.7 35.1 30 34.5 30.7C33.9 31.4 33.6 32.3 33.6 33.4C33.6 34.5 33.9 35.4 34.5 36C35.1 36.7 36.3 37.3 37.9 38C41 39.2 43.3 40.5 44.8 41.9C46.3 43.3 47 45.2 47 47.7C47 50.1 46.3 52 44.8 53.5C43.3 55 41.3 55.8 38.7 56.1V60.2H35.4V56.1C32.8 55.9 30.7 55 29 53.4C27.3 51.8 26.5 49.5 26.5 46.4V46.3H32.4C32.4 48.2 32.8 49.5 33.7 50.3C34.6 51.1 35.7 51.5 37 51.5C38.3 51.5 39.2 51.2 39.9 50.5C40.6 49.8 41 48.9 41 47.8Z" fill="#D9E0F5"/>
<path d="M38.8002 60.8H35.4002C35.1002 60.8 34.9002 60.6 34.9002 60.3V56.6C32.4002 56.3 30.3002 55.3 28.6002 53.8C26.8002 52.1 25.9002 49.7 26.0002 46.5C26.0002 46.4 26.0002 46.4 26.0002 46.3V46.2C26.1002 46 26.3002 45.9 26.5002 45.9H32.4002C32.8002 45.8 33.0002 46 33.0002 46.3C33.0002 48 33.4002 49.2 34.1002 49.9C34.9002 50.7 35.8002 51 37.0002 51C38.1002 51 39.0002 50.7 39.6002 50.1C40.2002 49.5 40.5002 48.7 40.5002 47.7C40.5002 46.7 40.2002 45.9 39.7002 45.3C39.1002 44.7 38.0002 44 36.6002 43.4C33.5002 42.3 31.1002 41 29.6002 39.5C27.9002 38.1 27.0002 36.1 27.0002 33.4C27.0002 30.9 27.8002 28.9 29.4002 27.3C30.9002 25.8 32.9002 24.9 35.3002 24.6V20.5C35.3002 20.2 35.6002 20 35.8002 20H39.1002C39.4002 20 39.6002 20.2 39.6002 20.5V24.6C42.0002 25 43.9002 26.1 45.2002 27.8C46.7002 29.6 47.4002 31.9 47.4002 34.7C47.4002 34.8 47.4002 34.9 47.3002 35H47.4002C47.3002 35.2 47.1002 35.2 47.0002 35.2H41.0002C40.7002 35.2 40.5002 35 40.5002 34.7C40.5002 33.2 40.2002 32 39.6002 31.2C39.0002 30.4 38.2002 30.1 37.2002 30.1C36.1002 30.1 35.4002 30.4 34.9002 31C34.4002 31.6 34.1002 32.4 34.1002 33.4C34.1002 34.4 34.4002 35.1 34.9002 35.7C35.5002 36.3 36.6002 36.9 38.1002 37.6C41.2002 38.8 43.6002 40.2 45.1002 41.6C46.7002 43.1 47.5002 45.1 47.5002 47.8C47.5002 50.3 46.7002 52.4 45.1002 54C43.6002 55.4 41.6002 56.3 39.2002 56.7V60.4C39.3002 60.5 39.0002 60.8 38.8002 60.8ZM35.9002 59.8H38.2002V56.2C38.2002 55.9 38.4002 55.7 38.6002 55.7C41.0002 55.4 43.0002 54.6 44.4002 53.3C45.8002 51.9 46.5002 50.1 46.5002 47.9C46.5002 45.6 45.8002 43.8 44.4002 42.5C43.0002 41.2 40.7002 39.9 37.7002 38.7C36.0002 38 34.8002 37.3 34.1002 36.6C33.4002 35.8 33.0002 34.8 33.0002 33.6C33.0002 32.3 33.3002 31.3 34.0002 30.5C34.7002 29.7 35.7002 29.3 37.1002 29.3C38.4002 29.3 39.5002 29.8 40.3002 30.8C41.0002 31.7 41.4002 32.9 41.4002 34.4H46.4002C46.4002 32 45.7002 30.1 44.5002 28.6C43.2002 27 41.4002 26.1 39.1002 25.7C38.9002 25.7 38.7002 25.5 38.7002 25.2V21H36.4002V25C36.4002 25.3 36.2002 25.5 36.0002 25.5C33.5002 25.7 31.6002 26.6 30.1002 28C28.7002 29.4 28.0002 31.2 28.0002 33.4C28.0002 35.8 28.7002 37.6 30.1002 38.9C31.5002 40.2 33.8002 41.5 36.8002 42.6C38.5002 43.3 39.6002 43.9 40.3002 44.7C41.0002 45.5 41.4002 46.5 41.4002 47.8C41.4002 49.1 41.0002 50.1 40.2002 50.9C39.5002 51.6 38.4002 52 37.0002 52C35.6002 52 34.4002 51.5 33.4002 50.7C32.5002 49.9 32.0002 48.6 32.0002 46.8H27.0002C27.0002 49.5 27.8002 51.6 29.3002 53C30.9002 54.5 33.0002 55.4 35.5002 55.6C35.8002 55.6 35.9002 55.8 35.9002 56.1V59.8Z" fill="#040F2D"/>
</g>
<defs>
<clipPath id="clip0_5480_21555">
<rect width="21.6" height="40.8" fill="white" transform="translate(26 20)"/>
</clipPath>
</defs>
</svg>
