<svg width="76" height="78" viewBox="0 0 76 78" fill="none" xmlns="http://www.w3.org/2000/svg">
<path d="M62.2559 60.8821C55.9494 57.4736 51.5468 57.5911 48.572 55.1229C48.334 54.7703 47.8581 53.0074 47.6201 51.832C50.3569 49.7164 52.6177 46.6606 53.9266 42.8995C54.4025 41.6067 54.6405 40.4313 54.7595 39.7261C55.5924 39.4911 56.7823 38.7859 58.4482 37.1404C60.352 35.1423 63.2078 28.7956 61.8989 24.917C61.5419 23.8592 60.828 23.0365 59.8761 22.4488C62.3748 4.93638 53.2126 0 39.4098 0C28.8197 0 17.6346 3.05586 19.5385 22.4488C18.3486 22.9189 17.3966 23.8592 16.9207 25.0345C15.4928 28.9131 18.3486 35.2599 20.3714 37.2579C21.9183 38.9034 23.2271 39.6086 24.0601 39.8437C24.1791 40.5489 24.417 41.6067 24.893 43.0171C26.0829 46.7781 28.4627 49.834 31.0805 51.9496C30.7235 53.4775 30.1286 55.2405 30.1286 55.2405C27.2728 57.7087 22.7512 57.5911 16.4447 60.9996C10.2572 64.2905 7.87744 76.3964 7.87744 76.3964H39.4098H70.9421C70.9421 76.3964 68.5623 64.2905 62.2559 60.8821ZM39.4098 60.4119C33.6983 60.4119 32.5084 56.6509 32.2704 55.358C32.3894 54.8879 32.6274 54.0652 32.8653 53.1249C35.0072 54.4177 37.387 55.1229 39.4098 55.1229C41.4326 55.1229 43.6934 54.4177 45.8352 53.1249C46.0732 54.3002 46.3112 55.1229 46.5492 55.5931C46.1922 56.6509 44.6453 60.4119 39.4098 60.4119ZM45.8352 50.7742C44.5264 51.7145 43.0985 52.4197 41.7896 52.7723C40.9567 53.0074 40.1237 53.1249 39.4098 53.1249C38.6958 53.1249 37.8629 53.0074 37.03 52.7723C35.7211 52.4197 34.2932 51.7145 32.9843 50.7742C30.3665 49.0112 27.9867 46.1904 26.7968 42.4294C26.0829 40.1963 25.8449 38.9034 25.8449 38.9034L25.7259 37.7281L24.655 37.9631C24.417 37.9631 23.5841 37.7281 21.7993 35.8475C20.1334 34.2021 17.7536 28.5605 18.8245 25.6222C19.1815 24.5644 19.8954 24.0943 21.2043 23.9767L22.1562 23.8592V23.6241C22.7512 24.3293 23.2271 26.0923 23.9411 31.3813H25.25V17.2773C25.25 17.2773 43.6934 19.7455 49.8809 11.9884C50.5948 12.341 51.1898 12.6936 51.6657 13.1637C54.4025 19.1579 54.0455 31.3813 54.0455 31.3813H55.4734C55.4734 31.3813 56.0684 25.6222 56.9013 23.8592L57.6152 23.9767C58.8051 24.0943 59.5191 24.6819 59.995 25.6222C61.066 28.5605 58.6862 34.0845 57.0203 35.8475C55.2354 37.6105 54.2835 37.8456 54.1645 37.9631L53.0936 37.7281L52.9746 38.9034C52.9746 38.9034 52.7367 40.4313 52.0227 42.4294C50.8328 46.1904 48.453 49.0112 45.8352 50.7742Z" fill="#040F2D"/>
<path d="M62.2559 62.4092C56.0684 59.1182 51.7847 59.1182 48.81 56.8851H46.4302C46.4302 57.0026 46.5492 57.1202 46.5492 57.1202C46.1922 58.178 44.6453 61.8215 39.4098 61.8215C33.6983 61.8215 32.5084 58.0604 32.2704 56.7676H30.0096C27.1538 59.1182 22.7512 59.0007 16.5637 62.2916C10.2572 65.7001 7.87744 77.806 7.87744 77.806H39.4098H70.9421C71.0611 77.806 68.5623 65.7001 62.2559 62.4092Z" fill="#1D4ED8"/>
<path d="M12.6233 42.8227L13.09 42.3956L12.5666 42.0402C9.50519 39.9617 7.68681 37.0197 7.68681 33.7656H7.18681H6.68681C6.68681 37.0123 4.78807 39.9566 1.71915 42.0402L1.19568 42.3956L1.66246 42.8227C4.72632 45.6264 6.68681 49.791 6.68681 54.3184H7.18681H7.68681C7.68681 49.6925 9.56316 45.6229 12.6233 42.8227Z" fill="#D9E0F5" stroke="#040F2D"/>
<path d="M74.3229 16.0168L74.8517 15.5694L74.2605 15.2083C71.5977 13.5821 70.0918 11.3014 70.0918 8.80859H69.5918H69.0918C69.0918 11.296 67.517 13.5801 64.9178 15.2116L64.3386 15.5751L64.8607 16.0168C67.4468 18.2046 69.0918 21.4451 69.0918 24.9572H69.5918H70.0918C70.0918 21.4451 71.7368 18.2046 74.3229 16.0168Z" fill="#D9E0F5" stroke="#040F2D"/>
</svg>
