<svg width="18" height="19" viewBox="0 0 18 19" fill="none" xmlns="http://www.w3.org/2000/svg">
<path opacity="0.5" d="M5.11101 3.67971C6.26216 2.91054 7.61553 2.5 9 2.5C9.91926 2.5 10.8295 2.68106 11.6788 3.03284C12.5281 3.38463 13.2997 3.90024 13.9497 4.55025C14.5998 5.20026 15.1154 5.97194 15.4672 6.82122C15.8189 7.67049 16 8.58075 16 9.5C16 10.8845 15.5895 12.2378 14.8203 13.389C14.0511 14.5401 12.9579 15.4373 11.6788 15.9672C10.3997 16.497 8.99224 16.6356 7.63437 16.3655C6.2765 16.0954 5.02922 15.4287 4.05026 14.4497C3.07129 13.4708 2.4046 12.2235 2.13451 10.8656C1.86441 9.50776 2.00303 8.1003 2.53285 6.82122C3.06266 5.54213 3.95987 4.44888 5.11101 3.67971ZM5.3888 14.9046C6.45772 15.6188 7.71442 16 9 16C10.7239 16 12.3772 15.3152 13.5962 14.0962C14.8152 12.8772 15.5 11.2239 15.5 9.5C15.5 8.21442 15.1188 6.95771 14.4046 5.88879C13.6903 4.81987 12.6752 3.98675 11.4874 3.49478C10.2997 3.00281 8.99279 2.87409 7.73192 3.1249C6.47104 3.3757 5.31285 3.99476 4.40381 4.90381C3.49477 5.81285 2.8757 6.97104 2.6249 8.23191C2.3741 9.49279 2.50282 10.7997 2.99479 11.9874C3.48676 13.1752 4.31988 14.1903 5.3888 14.9046Z" fill="#F5F5F5" stroke="white"/>
<path d="M15 9.5H16.5C16.5 8.51509 16.306 7.53982 15.9291 6.62987C15.5522 5.71993 14.9997 4.89314 14.3033 4.1967C13.6069 3.50026 12.7801 2.94781 11.8701 2.5709C10.9602 2.19399 9.98491 2 9 2V3.5C10.5913 3.5 12.1174 4.13214 13.2426 5.25736C14.3679 6.38258 15 7.9087 15 9.5Z" fill="#F5F5F5"/>
</svg>