<svg width="72" height="72" viewBox="0 0 72 72" fill="none" xmlns="http://www.w3.org/2000/svg">
<path fill-rule="evenodd" clip-rule="evenodd" d="M22.5 13.5C21.3065 13.5 20.1619 13.9741 19.318 14.818C18.4741 15.6619 18 16.8065 18 18V54C18 55.1935 18.4741 56.3381 19.318 57.182C20.1619 58.0259 21.3065 58.5 22.5 58.5H27C28.1935 58.5 29.3381 58.0259 30.182 57.182C31.0259 56.3381 31.5 55.1935 31.5 54V18C31.5 16.8065 31.0259 15.6619 30.182 14.818C29.3381 13.9741 28.1935 13.5 27 13.5H22.5ZM45 13.5C43.8065 13.5 42.6619 13.9741 41.818 14.818C40.9741 15.6619 40.5 16.8065 40.5 18V54C40.5 55.1935 40.9741 56.3381 41.818 57.182C42.6619 58.0259 43.8065 58.5 45 58.5H49.5C50.6935 58.5 51.8381 58.0259 52.682 57.182C53.5259 56.3381 54 55.1935 54 54V18C54 16.8065 53.5259 15.6619 52.682 14.818C51.8381 13.9741 50.6935 13.5 49.5 13.5H45Z" fill="white"/>
</svg>
