<?xml version="1.0" encoding="UTF-8"?>
<svg xmlns="http://www.w3.org/2000/svg" xmlns:xlink="http://www.w3.org/1999/xlink" width="192px" height="144px" viewBox="0 0 192 144" version="1.1">
<g id="surface1">
<path style=" stroke:none;fill-rule:nonzero;fill:rgb(0, 0, 255);fill-opacity:1;" d="M 153.46875 77.371094 C 173.167969 77.371094 189.132812 61.402344 189.132812 41.707031 C 189.132812 22.007812 173.167969 6.039062 153.46875 6.039062 C 133.769531 6.039062 117.804688 22.007812 117.804688 41.707031 C 117.804688 61.402344 133.769531 77.371094 153.46875 77.371094 Z M 153.46875 77.371094 "/>
<path style=" stroke:none;fill-rule:nonzero;fill:rgb(0, 0, 255);fill-opacity:1;" d="M 189.527344 91.472656 L 189.527344 143.207031 L 111.140625 143.207031 L 111.140625 124.394531 C 111.140625 106.367188 125.640625 91.472656 144.0625 91.472656 Z M 189.527344 91.472656 "/>
<path style=" stroke:none;fill-rule:nonzero;fill:rgb(0, 0, 255);fill-opacity:1;" d="M 98.210938 6.039062 L 98.210938 143.214844 L 68.816406 143.214844 C 50.003906 143.214844 32.757812 135.375 20.214844 123.226562 C 7.675781 110.683594 0.226562 93.441406 0.226562 74.628906 C 0.226562 36.609375 30.796875 6.039062 68.816406 6.039062 Z M 98.210938 6.039062 "/>
</g>
</svg>
