<?xml version="1.0" encoding="UTF-8"?>
<svg xmlns="http://www.w3.org/2000/svg" xmlns:xlink="http://www.w3.org/1999/xlink" width="512px" height="384px" viewBox="0 0 512 384" version="1.1">
<g id="surface1">
<path style=" stroke:none;fill-rule:nonzero;fill:rgb(0, 0, 255);fill-opacity:1;" d="M 409.25 206.324219 C 461.777344 206.324219 504.359375 163.742188 504.359375 111.214844 C 504.359375 58.6875 461.777344 16.105469 409.25 16.105469 C 356.722656 16.105469 314.144531 58.6875 314.144531 111.214844 C 314.144531 163.742188 356.722656 206.324219 409.25 206.324219 Z M 409.25 206.324219 "/>
<path style=" stroke:none;fill-rule:nonzero;fill:rgb(0, 0, 255);fill-opacity:1;" d="M 505.402344 243.929688 L 505.402344 381.886719 L 296.375 381.886719 L 296.375 331.722656 C 296.375 283.644531 335.046875 243.929688 384.167969 243.929688 Z M 505.402344 243.929688 "/>
<path style=" stroke:none;fill-rule:nonzero;fill:rgb(0, 0, 255);fill-opacity:1;" d="M 261.890625 16.105469 L 261.890625 381.90625 L 183.507812 381.90625 C 133.339844 381.90625 87.351562 361.003906 53.910156 328.601562 C 20.464844 295.160156 0.605469 249.171875 0.605469 199.003906 C 0.605469 97.628906 82.128906 16.105469 183.507812 16.105469 Z M 261.890625 16.105469 "/>
</g>
</svg>
