<svg width="232" height="40" viewBox="0 0 232 40" fill="none" xmlns="http://www.w3.org/2000/svg">
<path d="M19.0489 2.92705C19.3483 2.00574 20.6517 2.00574 20.9511 2.92705L24.2658 13.1287C24.3996 13.5407 24.7836 13.8197 25.2168 13.8197H35.9434C36.9122 13.8197 37.3149 15.0593 36.5312 15.6287L27.8532 21.9336C27.5027 22.1883 27.3561 22.6396 27.4899 23.0517L30.8046 33.2533C31.104 34.1746 30.0495 34.9407 29.2658 34.3713L20.5878 28.0664C20.2373 27.8117 19.7627 27.8117 19.4122 28.0664L10.7342 34.3713C9.95048 34.9407 8.896 34.1746 9.19535 33.2533L12.5101 23.0517C12.6439 22.6396 12.4973 22.1883 12.1468 21.9336L3.46877 15.6287C2.68505 15.0593 3.08783 13.8197 4.05655 13.8197H14.7832C15.2164 13.8197 15.6004 13.5407 15.7342 13.1287L19.0489 2.92705Z" fill="#E0AD01"/>
<path d="M67.0489 2.92705C67.3483 2.00574 68.6517 2.00574 68.9511 2.92705L72.2658 13.1287C72.3996 13.5407 72.7836 13.8197 73.2168 13.8197H83.9434C84.9122 13.8197 85.3149 15.0593 84.5312 15.6287L75.8532 21.9336C75.5027 22.1883 75.3561 22.6396 75.4899 23.0517L78.8046 33.2533C79.104 34.1746 78.0495 34.9407 77.2658 34.3713L68.5878 28.0664C68.2373 27.8117 67.7627 27.8117 67.4122 28.0664L58.7342 34.3713C57.9505 34.9407 56.896 34.1746 57.1954 33.2533L60.5101 23.0517C60.6439 22.6396 60.4973 22.1883 60.1468 21.9336L51.4688 15.6287C50.6851 15.0593 51.0878 13.8197 52.0566 13.8197H62.7832C63.2164 13.8197 63.6004 13.5407 63.7342 13.1287L67.0489 2.92705Z" fill="#E0AD01"/>
<path d="M116 3.23607L119.315 13.4377C119.582 14.2617 120.35 14.8197 121.217 14.8197H131.943L123.265 21.1246C122.564 21.6339 122.271 22.5366 122.539 23.3607L125.854 33.5623L117.176 27.2574C116.475 26.7481 115.525 26.7481 114.824 27.2574L106.146 33.5623L109.461 23.3607C109.729 22.5366 109.436 21.6339 108.735 21.1246L108.147 21.9336L108.735 21.1246L100.057 14.8197H110.783C111.65 14.8197 112.418 14.2617 112.685 13.4377L116 3.23607Z" stroke="#D9D9D9" stroke-width="2"/>
<path d="M164 3.23607L167.315 13.4377C167.582 14.2617 168.35 14.8197 169.217 14.8197H179.943L171.265 21.1246C170.564 21.6339 170.271 22.5366 170.539 23.3607L173.854 33.5623L165.176 27.2574C164.475 26.7481 163.525 26.7481 162.824 27.2574L154.146 33.5623L157.461 23.3607C157.729 22.5366 157.436 21.6339 156.735 21.1246L156.147 21.9336L156.735 21.1246L148.057 14.8197H158.783C159.65 14.8197 160.418 14.2617 160.685 13.4377L164 3.23607Z" stroke="#D9D9D9" stroke-width="2"/>
<path d="M212 3.23607L215.315 13.4377C215.582 14.2617 216.35 14.8197 217.217 14.8197H227.943L219.265 21.1246C218.564 21.6339 218.271 22.5366 218.539 23.3607L221.854 33.5623L213.176 27.2574C212.475 26.7481 211.525 26.7481 210.824 27.2574L202.146 33.5623L205.461 23.3607C205.729 22.5366 205.436 21.6339 204.735 21.1246L204.147 21.9336L204.735 21.1246L196.057 14.8197H206.783C207.65 14.8197 208.418 14.2617 208.685 13.4377L212 3.23607Z" stroke="#D9D9D9" stroke-width="2"/>
</svg>
