<svg width="232" height="40" viewBox="0 0 232 40" fill="none" xmlns="http://www.w3.org/2000/svg">
<path d="M19.0489 2.92705C19.3483 2.00574 20.6517 2.00574 20.9511 2.92705L24.2658 13.1287C24.3996 13.5407 24.7836 13.8197 25.2168 13.8197H35.9434C36.9122 13.8197 37.3149 15.0593 36.5312 15.6287L27.8532 21.9336C27.5027 22.1883 27.3561 22.6396 27.4899 23.0517L30.8046 33.2533C31.104 34.1746 30.0495 34.9407 29.2658 34.3713L20.5878 28.0664C20.2373 27.8117 19.7627 27.8117 19.4122 28.0664L10.7342 34.3713C9.95048 34.9407 8.896 34.1746 9.19535 33.2533L12.5101 23.0517C12.6439 22.6396 12.4973 22.1883 12.1468 21.9336L3.46877 15.6287C2.68505 15.0593 3.08783 13.8197 4.05655 13.8197H14.7832C15.2164 13.8197 15.6004 13.5407 15.7342 13.1287L19.0489 2.92705Z" fill="#E0AD01"/>
<path d="M67.0489 2.92705C67.3483 2.00574 68.6517 2.00574 68.9511 2.92705L72.2658 13.1287C72.3996 13.5407 72.7836 13.8197 73.2168 13.8197H83.9434C84.9122 13.8197 85.3149 15.0593 84.5312 15.6287L75.8532 21.9336C75.5027 22.1883 75.3561 22.6396 75.4899 23.0517L78.8046 33.2533C79.104 34.1746 78.0495 34.9407 77.2658 34.3713L68.5878 28.0664C68.2373 27.8117 67.7627 27.8117 67.4122 28.0664L58.7342 34.3713C57.9505 34.9407 56.896 34.1746 57.1954 33.2533L60.5101 23.0517C60.6439 22.6396 60.4973 22.1883 60.1468 21.9336L51.4688 15.6287C50.6851 15.0593 51.0878 13.8197 52.0566 13.8197H62.7832C63.2164 13.8197 63.6004 13.5407 63.7342 13.1287L67.0489 2.92705Z" fill="#E0AD01"/>
<path d="M115.049 2.92705C115.348 2.00574 116.652 2.00574 116.951 2.92705L120.266 13.1287C120.4 13.5407 120.784 13.8197 121.217 13.8197H131.943C132.912 13.8197 133.315 15.0593 132.531 15.6287L123.853 21.9336C123.503 22.1883 123.356 22.6396 123.49 23.0517L126.805 33.2533C127.104 34.1746 126.05 34.9407 125.266 34.3713L116.588 28.0664C116.237 27.8117 115.763 27.8117 115.412 28.0664L106.734 34.3713C105.95 34.9407 104.896 34.1746 105.195 33.2533L108.51 23.0517C108.644 22.6396 108.497 22.1883 108.147 21.9336L99.4688 15.6287C98.6851 15.0593 99.0878 13.8197 100.057 13.8197H110.783C111.216 13.8197 111.6 13.5407 111.734 13.1287L115.049 2.92705Z" fill="#E0AD01"/>
<path d="M163.049 2.92705C163.348 2.00574 164.652 2.00574 164.951 2.92705L168.266 13.1287C168.4 13.5407 168.784 13.8197 169.217 13.8197H179.943C180.912 13.8197 181.315 15.0593 180.531 15.6287L171.853 21.9336C171.503 22.1883 171.356 22.6396 171.49 23.0517L174.805 33.2533C175.104 34.1746 174.05 34.9407 173.266 34.3713L164.588 28.0664C164.237 27.8117 163.763 27.8117 163.412 28.0664L154.734 34.3713C153.95 34.9407 152.896 34.1746 153.195 33.2533L156.51 23.0517C156.644 22.6396 156.497 22.1883 156.147 21.9336L147.469 15.6287C146.685 15.0593 147.088 13.8197 148.057 13.8197H158.783C159.216 13.8197 159.6 13.5407 159.734 13.1287L163.049 2.92705Z" fill="#E0AD01"/>
<path d="M211.049 2.92705C211.348 2.00574 212.652 2.00574 212.951 2.92705L216.266 13.1287C216.4 13.5407 216.784 13.8197 217.217 13.8197H227.943C228.912 13.8197 229.315 15.0593 228.531 15.6287L219.853 21.9336C219.503 22.1883 219.356 22.6396 219.49 23.0517L222.805 33.2533C223.104 34.1746 222.05 34.9407 221.266 34.3713L212.588 28.0664C212.237 27.8117 211.763 27.8117 211.412 28.0664L202.734 34.3713C201.95 34.9407 200.896 34.1746 201.195 33.2533L204.51 23.0517C204.644 22.6396 204.497 22.1883 204.147 21.9336L195.469 15.6287C194.685 15.0593 195.088 13.8197 196.057 13.8197H206.783C207.216 13.8197 207.6 13.5407 207.734 13.1287L211.049 2.92705Z" fill="#E0AD01"/>
</svg>
