<svg width="80" height="80" viewBox="0 0 80 80" fill="none" xmlns="http://www.w3.org/2000/svg">
<g clip-path="url(#clip0_3547_18366)">
<path opacity="0.2" d="M40 55C48.2843 55 55 48.2843 55 40C55 31.7157 48.2843 25 40 25C31.7157 25 25 31.7157 25 40C25 48.2843 31.7157 55 40 55Z" fill="#0233BD"/>
<path d="M40 40L70 10" stroke="#0233BD" stroke-width="5.0625" stroke-linecap="round" stroke-linejoin="round"/>
<path d="M61.2121 18.7841C55.8984 13.4829 48.7886 10.3691 41.2891 10.0588C33.7896 9.74855 26.4469 12.2643 20.7134 17.1084C14.9799 21.9525 11.2734 28.7722 10.3271 36.2182C9.38075 43.6641 11.2636 51.1941 15.6031 57.3184C19.9426 63.4427 26.4226 67.7152 33.7613 69.2907C41.0999 70.8662 48.7626 69.63 55.2335 65.8265C61.7043 62.023 66.5119 55.9294 68.7052 48.7511C70.8985 41.5728 70.3177 33.8328 67.0778 27.0622" stroke="#0233BD" stroke-width="5.0625" stroke-linecap="round" stroke-linejoin="round"/>
<path d="M50.606 29.3948C48.1247 26.9165 44.8534 25.3859 41.3607 25.0691C37.868 24.7524 34.3748 25.6694 31.4881 27.6609C28.6013 29.6524 26.5036 32.5924 25.5596 35.9699C24.6155 39.3475 24.8847 42.9491 26.3205 46.1487C27.7562 49.3484 30.2677 51.9438 33.4184 53.484C36.5692 55.0241 40.1599 55.4116 43.5667 54.5791C46.9735 53.7465 49.9808 51.7466 52.0661 48.9269C54.1514 46.1072 55.1828 42.646 54.981 39.1448" stroke="#0233BD" stroke-width="5.0625" stroke-linecap="round" stroke-linejoin="round"/>
</g>
<defs>
<clipPath id="clip0_3547_18366">
<rect width="80" height="80" fill="white"/>
</clipPath>
</defs>
</svg>
