<svg
    width="168"
    height="191"
    viewBox="0 0 168 191"
    fill="none"
    xmlns="http://www.w3.org/2000/svg"
  >
    <path
      d="M146.744 71.4805H83.6106L78.5507 59.1652C77.772 57.396 76.4872 55.8967 74.858 54.8562C73.2289 53.8157 71.3283 53.2806 69.3956 53.3183H33.7102C31.7775 53.2806 29.8769 53.8157 28.2478 54.8562C26.6186 55.8967 25.3338 57.396 24.5551 59.1652L21.1108 70.3265C20.4728 72.4035 20.1438 74.563 20.1344 76.7357L19.5071 158.404C19.4897 160.913 20.4691 163.327 22.2301 165.114C23.9911 166.902 26.3897 167.917 28.8989 167.938H156.135V81.0203C156.154 78.51 155.176 76.095 153.414 74.3061C151.653 72.5172 149.254 71.5009 146.744 71.4805Z"
      fill="#032587"
    />
    <path
      d="M146.744 71.4805H83.6108L78.5509 59.1652C77.7723 57.396 76.4874 55.8967 74.8583 54.8562C73.2291 53.8157 71.3285 53.2806 69.3958 53.3183H33.7105C32.4474 53.3178 31.1946 53.5443 30.0117 53.987H64.7561C68.8218 53.987 74.3847 56.3187 75.8287 59.834L80.8886 72.1552H142.104C147.288 72.1552 153.413 76.422 153.413 81.689V167.92H156.136V81.0203C156.155 78.51 155.176 76.095 153.415 74.3061C151.654 72.5172 149.254 71.5009 146.744 71.4805Z"
      fill="white"
    />
    <path
      d="M146.744 71.4805H83.6106L78.5507 59.1652C77.772 57.396 76.4872 55.8967 74.858 54.8562C73.2289 53.8157 71.3283 53.2806 69.3956 53.3183H33.7102C31.7775 53.2806 29.8769 53.8157 28.2478 54.8562C26.6186 55.8967 25.3338 57.396 24.5551 59.1652L21.1108 70.3265C20.4728 72.4035 20.1438 74.563 20.1344 76.7357L19.5071 158.404C19.4897 160.913 20.4691 163.327 22.2301 165.114C23.9911 166.902 26.3897 167.917 28.8989 167.938H156.135V81.0203C156.154 78.51 155.176 76.095 153.414 74.3061C151.653 72.5172 149.254 71.5009 146.744 71.4805Z"
      stroke="#263238"
      stroke-width="1.47949"
      stroke-linecap="round"
      stroke-linejoin="round"
    />
    <path
      d="M29.6983 167.917H156.136L134.464 96.9016C133.911 95.0497 132.777 93.4248 131.23 92.2665C129.683 91.1082 127.804 90.478 125.871 90.4688H10.0092C8.58813 90.485 7.19062 90.8334 5.92823 91.4861C4.66584 92.1387 3.57356 93.0776 2.73865 94.2276C1.90375 95.3776 1.34935 96.7069 1.11974 98.1093C0.890134 99.5118 0.991673 100.948 1.41626 102.305L18.9927 159.898C19.6833 162.205 21.0962 164.229 23.0234 165.673C24.9507 167.116 27.2904 167.903 29.6983 167.917Z"
      fill="#0233BD"
    />
    <path
      d="M7.42288 93.6171H123.291C125.223 93.6273 127.102 94.2579 128.649 95.416C130.196 96.5742 131.33 98.1986 131.884 100.05L152.597 167.917H156.148L134.476 96.9016C133.923 95.0497 132.789 93.4248 131.242 92.2665C129.694 91.1082 127.816 90.478 125.883 90.4688H10.009C8.33774 90.4722 6.70093 90.9443 5.2845 91.8314C3.86807 92.7185 2.7288 93.9851 1.99609 95.4872C3.5445 94.2736 5.45555 93.6151 7.42288 93.6171Z"
      fill="white"
    />
    <path
      d="M29.6983 167.917H156.136L134.464 96.9016C133.911 95.0497 132.777 93.4248 131.23 92.2665C129.683 91.1082 127.804 90.478 125.871 90.4688H10.0092C8.58813 90.485 7.19062 90.8334 5.92823 91.4861C4.66584 92.1387 3.57356 93.0776 2.73865 94.2276C1.90375 95.3776 1.34935 96.7069 1.11974 98.1093C0.890134 99.5118 0.991673 100.948 1.41626 102.305L18.9927 159.898C19.6833 162.205 21.0962 164.229 23.0234 165.673C24.9507 167.116 27.2904 167.903 29.6983 167.917Z"
      stroke="#263238"
      stroke-width="1.47949"
      stroke-linecap="round"
      stroke-linejoin="round"
    />
    <path
      d="M71.3727 145.165C79.0338 145.165 85.2444 138.955 85.2444 131.294C85.2444 123.632 79.0338 117.422 71.3727 117.422C63.7115 117.422 57.501 123.632 57.501 131.294C57.501 138.955 63.7115 145.165 71.3727 145.165Z"
      fill="#263238"
      stroke="#263238"
      stroke-width="1.47949"
      stroke-linecap="round"
      stroke-linejoin="round"
    />
    <path
      d="M64.6855 137.982L78.0661 124.578"
      stroke="#F2F2F2"
      stroke-width="1.47949"
      stroke-linecap="round"
      stroke-linejoin="round"
    />
    <path
      d="M64.6855 124.578L78.0661 137.959"
      stroke="#F2F2F2"
      stroke-width="1.47949"
      stroke-linecap="round"
      stroke-linejoin="round"
    />
    <path
      d="M163.982 9.00001H126.415C125.774 9.00001 125.16 9.2544 124.707 9.70721C124.254 10.16 124 10.7742 124 11.4145V40.1286C124 40.7689 124.254 41.3831 124.707 41.8359C125.16 42.2887 125.774 42.5431 126.415 42.5431H135.735V51.7396C135.724 51.9767 135.785 52.2116 135.909 52.4139C136.033 52.6162 136.214 52.7765 136.431 52.8741C136.647 52.9718 136.888 53.0021 137.121 52.9613C137.355 52.9204 137.571 52.8103 137.742 52.6451L149.128 42.5431H163.982C164.622 42.5431 165.236 42.2887 165.689 41.8359C166.142 41.3831 166.396 40.7689 166.396 40.1286V11.4145C166.397 11.0972 166.335 10.7829 166.214 10.4896C166.093 10.1963 165.915 9.92983 165.691 9.70547C165.467 9.4811 165.2 9.30328 164.907 9.18221C164.613 9.06115 164.299 8.99923 163.982 9.00001Z"
      fill="white"
      stroke="#263238"
      stroke-width="1.47949"
      stroke-linecap="round"
      stroke-linejoin="round"
    />
    <path
      d="M144.719 29.8483C144.477 29.8525 144.239 29.7971 144.024 29.687C143.809 29.5768 143.624 29.4154 143.487 29.217C143.349 29.0186 143.263 28.7893 143.235 28.5495C143.207 28.3096 143.239 28.0667 143.328 27.8421C143.577 27.2749 143.911 26.7482 144.316 26.2798C144.706 25.8248 145.127 25.3977 145.577 25.0015C146.021 24.6109 146.441 24.2203 146.837 23.8179C147.212 23.4683 147.538 23.0702 147.808 22.6343C148.118 22.0995 148.237 21.4754 148.147 20.8638C148.057 20.2523 147.762 19.6894 147.311 19.267C146.44 18.5913 145.351 18.2586 144.251 18.3319C143.243 18.3061 142.241 18.5084 141.322 18.9237C140.861 19.1388 140.432 19.4177 140.049 19.7522C139.763 19.9972 139.404 20.1414 139.028 20.1628C138.651 20.1842 138.279 20.0815 137.966 19.8706C137.738 19.7172 137.549 19.5131 137.414 19.2743C137.278 19.0356 137.2 18.7686 137.185 18.4945C137.17 18.2203 137.219 17.9465 137.328 17.6944C137.437 17.4424 137.603 17.219 137.812 17.0418C138.359 16.6036 138.955 16.2302 139.588 15.9292C141.154 15.2226 142.859 14.8768 144.577 14.9172C145.948 14.8869 147.313 15.1137 148.601 15.586C149.677 15.9803 150.619 16.6719 151.317 17.5803C151.97 18.4556 152.31 19.5248 152.282 20.6163C152.302 21.377 152.176 22.1345 151.909 22.8473C151.673 23.4382 151.341 23.986 150.927 24.4689C150.522 24.9353 150.085 25.3723 149.619 25.7767C149.145 26.1851 148.713 26.5816 148.305 26.9603C147.912 27.3411 147.577 27.7778 147.311 28.2564C147.209 28.4443 147.127 28.6427 147.068 28.8482C146.975 29.1491 146.788 29.4125 146.535 29.5998C146.281 29.7871 145.975 29.8887 145.66 29.8897L144.719 29.8483ZM144.943 37.299C144.621 37.3054 144.3 37.247 144.001 37.1274C143.701 37.0078 143.429 36.8293 143.199 36.6026C142.97 36.3759 142.788 36.1054 142.665 35.8073C142.541 35.5091 142.479 35.1893 142.482 34.8667C142.476 34.551 142.535 34.2374 142.655 33.9453C142.775 33.6532 142.954 33.3887 143.18 33.1683C143.665 32.7241 144.298 32.4777 144.955 32.4777C145.613 32.4777 146.246 32.7241 146.731 33.1683C146.954 33.3902 147.13 33.6551 147.248 33.9471C147.366 34.239 147.424 34.5519 147.417 34.8667C147.422 35.1926 147.361 35.5161 147.237 35.8174C147.113 36.1187 146.928 36.3915 146.695 36.6192C146.462 36.8468 146.185 37.0245 145.88 37.1414C145.576 37.2583 145.251 37.3119 144.926 37.299H144.943Z"
      fill="#EC644E"
      stroke="#263238"
      stroke-width="1.47949"
      stroke-linecap="round"
      stroke-linejoin="round"
    />
    <path
      d="M89.0291 190.495C131.502 190.495 165.933 188.569 165.933 186.193C165.933 183.817 131.502 181.891 89.0291 181.891C46.5561 181.891 12.125 183.817 12.125 186.193C12.125 188.569 46.5561 190.495 89.0291 190.495Z"
      fill="#8192C3"
      fill-opacity="0.2"
    />
  </svg>