<svg width="842" height="595" viewBox="0 0 842 595" fill="none" xmlns="http://www.w3.org/2000/svg">
<g opacity="0.15">
<path d="M424.3 1H-1.69995V596.4H424.3V1Z" stroke="#0F163F" stroke-miterlimit="10"/>
<path d="M-1.69995 578.4H424.3" stroke="#0F163F" stroke-miterlimit="10"/>
<path d="M-1.69995 560.4H424.3" stroke="#0F163F" stroke-miterlimit="10"/>
<path d="M-1.69995 542.4H424.3" stroke="#0F163F" stroke-miterlimit="10"/>
<path d="M-1.69995 524.3H424.3" stroke="#0F163F" stroke-miterlimit="10"/>
<path d="M-1.69995 506.3H424.3" stroke="#0F163F" stroke-miterlimit="10"/>
<path d="M-1.69995 488.2H424.3" stroke="#0F163F" stroke-miterlimit="10"/>
<path d="M-1.69995 470.2H424.3" stroke="#0F163F" stroke-miterlimit="10"/>
<path d="M-1.69995 452.1H424.3" stroke="#0F163F" stroke-miterlimit="10"/>
<path d="M-1.69995 434.1H424.3" stroke="#0F163F" stroke-miterlimit="10"/>
<path d="M-1.69995 416.1H424.3" stroke="#0F163F" stroke-miterlimit="10"/>
<path d="M-1.69995 398H424.3" stroke="#0F163F" stroke-miterlimit="10"/>
<path d="M-1.69995 380H424.3" stroke="#0F163F" stroke-miterlimit="10"/>
<path d="M-1.69995 361.9H424.3" stroke="#0F163F" stroke-miterlimit="10"/>
<path d="M-1.69995 343.9H424.3" stroke="#0F163F" stroke-miterlimit="10"/>
<path d="M-1.69995 325.8H424.3" stroke="#0F163F" stroke-miterlimit="10"/>
<path d="M-1.69995 307.8H424.3" stroke="#0F163F" stroke-miterlimit="10"/>
<path d="M-1.69995 289.7H424.3" stroke="#0F163F" stroke-miterlimit="10"/>
<path d="M-1.69995 271.7H424.3" stroke="#0F163F" stroke-miterlimit="10"/>
<path d="M-1.69995 253.7H424.3" stroke="#0F163F" stroke-miterlimit="10"/>
<path d="M-1.69995 235.6H424.3" stroke="#0F163F" stroke-miterlimit="10"/>
<path d="M-1.69995 217.6H424.3" stroke="#0F163F" stroke-miterlimit="10"/>
<path d="M-1.69995 199.5H424.3" stroke="#0F163F" stroke-miterlimit="10"/>
<path d="M-1.69995 181.5H424.3" stroke="#0F163F" stroke-miterlimit="10"/>
<path d="M-1.69995 163.4H424.3" stroke="#0F163F" stroke-miterlimit="10"/>
<path d="M-1.69995 145.4H424.3" stroke="#0F163F" stroke-miterlimit="10"/>
<path d="M-1.69995 127.4H424.3" stroke="#0F163F" stroke-miterlimit="10"/>
<path d="M-1.69995 109.3H424.3" stroke="#0F163F" stroke-miterlimit="10"/>
<path d="M-1.69995 91.2998H424.3" stroke="#0F163F" stroke-miterlimit="10"/>
<path d="M-1.69995 73.2002H424.3" stroke="#0F163F" stroke-miterlimit="10"/>
<path d="M-1.69995 55.2002H424.3" stroke="#0F163F" stroke-miterlimit="10"/>
<path d="M-1.69995 37.0996H424.3" stroke="#0F163F" stroke-miterlimit="10"/>
<path d="M-1.69995 19.0996H424.3" stroke="#0F163F" stroke-miterlimit="10"/>
<path d="M407.3 1V596.5" stroke="#0F163F" stroke-miterlimit="10"/>
<path d="M390.3 1V596.5" stroke="#0F163F" stroke-miterlimit="10"/>
<path d="M373.2 1V596.5" stroke="#0F163F" stroke-miterlimit="10"/>
<path d="M356.2 1V596.5" stroke="#0F163F" stroke-miterlimit="10"/>
<path d="M339.1 1V596.5" stroke="#0F163F" stroke-miterlimit="10"/>
<path d="M322.1 1V596.5" stroke="#0F163F" stroke-miterlimit="10"/>
<path d="M305 1V596.5" stroke="#0F163F" stroke-miterlimit="10"/>
<path d="M288 1V596.5" stroke="#0F163F" stroke-miterlimit="10"/>
<path d="M271 1V596.5" stroke="#0F163F" stroke-miterlimit="10"/>
<path d="M253.9 1V596.5" stroke="#0F163F" stroke-miterlimit="10"/>
<path d="M236.9 1V596.5" stroke="#0F163F" stroke-miterlimit="10"/>
<path d="M219.8 1V596.5" stroke="#0F163F" stroke-miterlimit="10"/>
<path d="M202.8 1V596.5" stroke="#0F163F" stroke-miterlimit="10"/>
<path d="M185.8 1V596.5" stroke="#0F163F" stroke-miterlimit="10"/>
<path d="M168.7 1V596.5" stroke="#0F163F" stroke-miterlimit="10"/>
<path d="M151.7 1V596.5" stroke="#0F163F" stroke-miterlimit="10"/>
<path d="M134.6 1V596.5" stroke="#0F163F" stroke-miterlimit="10"/>
<path d="M117.6 1V596.5" stroke="#0F163F" stroke-miterlimit="10"/>
<path d="M100.6 1V596.5" stroke="#0F163F" stroke-miterlimit="10"/>
<path d="M83.5 1V596.5" stroke="#0F163F" stroke-miterlimit="10"/>
<path d="M66.5 1V596.5" stroke="#0F163F" stroke-miterlimit="10"/>
<path d="M49.4001 1V596.5" stroke="#0F163F" stroke-miterlimit="10"/>
<path d="M32.4001 1V596.5" stroke="#0F163F" stroke-miterlimit="10"/>
<path d="M15.4001 1V596.5" stroke="#0F163F" stroke-miterlimit="10"/>
</g>
<g opacity="0.15">
<path d="M850.3 1H424.3V596.4H850.3V1Z" stroke="#0F163F" stroke-miterlimit="10"/>
<path d="M424.3 578.4H850.4" stroke="#0F163F" stroke-miterlimit="10"/>
<path d="M424.3 560.4H850.4" stroke="#0F163F" stroke-miterlimit="10"/>
<path d="M424.3 542.4H850.4" stroke="#0F163F" stroke-miterlimit="10"/>
<path d="M424.3 524.3H850.4" stroke="#0F163F" stroke-miterlimit="10"/>
<path d="M424.3 506.3H850.4" stroke="#0F163F" stroke-miterlimit="10"/>
<path d="M424.3 488.2H850.4" stroke="#0F163F" stroke-miterlimit="10"/>
<path d="M424.3 470.2H850.4" stroke="#0F163F" stroke-miterlimit="10"/>
<path d="M424.3 452.1H850.4" stroke="#0F163F" stroke-miterlimit="10"/>
<path d="M424.3 434.1H850.4" stroke="#0F163F" stroke-miterlimit="10"/>
<path d="M424.3 416.1H850.4" stroke="#0F163F" stroke-miterlimit="10"/>
<path d="M424.3 398H850.4" stroke="#0F163F" stroke-miterlimit="10"/>
<path d="M424.3 380H850.4" stroke="#0F163F" stroke-miterlimit="10"/>
<path d="M424.3 361.9H850.4" stroke="#0F163F" stroke-miterlimit="10"/>
<path d="M424.3 343.9H850.4" stroke="#0F163F" stroke-miterlimit="10"/>
<path d="M424.3 325.8H850.4" stroke="#0F163F" stroke-miterlimit="10"/>
<path d="M424.3 307.8H850.4" stroke="#0F163F" stroke-miterlimit="10"/>
<path d="M424.3 289.7H850.4" stroke="#0F163F" stroke-miterlimit="10"/>
<path d="M424.3 271.7H850.4" stroke="#0F163F" stroke-miterlimit="10"/>
<path d="M424.3 253.7H850.4" stroke="#0F163F" stroke-miterlimit="10"/>
<path d="M424.3 235.6H850.4" stroke="#0F163F" stroke-miterlimit="10"/>
<path d="M424.3 217.6H850.4" stroke="#0F163F" stroke-miterlimit="10"/>
<path d="M424.3 199.5H850.4" stroke="#0F163F" stroke-miterlimit="10"/>
<path d="M424.3 181.5H850.4" stroke="#0F163F" stroke-miterlimit="10"/>
<path d="M424.3 163.4H850.4" stroke="#0F163F" stroke-miterlimit="10"/>
<path d="M424.3 145.4H850.4" stroke="#0F163F" stroke-miterlimit="10"/>
<path d="M424.3 127.4H850.4" stroke="#0F163F" stroke-miterlimit="10"/>
<path d="M424.3 109.3H850.4" stroke="#0F163F" stroke-miterlimit="10"/>
<path d="M424.3 91.2998H850.4" stroke="#0F163F" stroke-miterlimit="10"/>
<path d="M424.3 73.2002H850.4" stroke="#0F163F" stroke-miterlimit="10"/>
<path d="M424.3 55.2002H850.4" stroke="#0F163F" stroke-miterlimit="10"/>
<path d="M424.3 37.0996H850.4" stroke="#0F163F" stroke-miterlimit="10"/>
<path d="M424.3 19.0996H850.4" stroke="#0F163F" stroke-miterlimit="10"/>
<path d="M833.3 1V596.5" stroke="#0F163F" stroke-miterlimit="10"/>
<path d="M816.3 1V596.5" stroke="#0F163F" stroke-miterlimit="10"/>
<path d="M799.2 1V596.5" stroke="#0F163F" stroke-miterlimit="10"/>
<path d="M782.2 1V596.5" stroke="#0F163F" stroke-miterlimit="10"/>
<path d="M765.2 1V596.5" stroke="#0F163F" stroke-miterlimit="10"/>
<path d="M748.1 1V596.5" stroke="#0F163F" stroke-miterlimit="10"/>
<path d="M731.1 1V596.5" stroke="#0F163F" stroke-miterlimit="10"/>
<path d="M714 1V596.5" stroke="#0F163F" stroke-miterlimit="10"/>
<path d="M697 1V596.5" stroke="#0F163F" stroke-miterlimit="10"/>
<path d="M679.9 1V596.5" stroke="#0F163F" stroke-miterlimit="10"/>
<path d="M662.9 1V596.5" stroke="#0F163F" stroke-miterlimit="10"/>
<path d="M645.9 1V596.5" stroke="#0F163F" stroke-miterlimit="10"/>
<path d="M628.8 1V596.5" stroke="#0F163F" stroke-miterlimit="10"/>
<path d="M611.8 1V596.5" stroke="#0F163F" stroke-miterlimit="10"/>
<path d="M594.7 1V596.5" stroke="#0F163F" stroke-miterlimit="10"/>
<path d="M577.7 1V596.5" stroke="#0F163F" stroke-miterlimit="10"/>
<path d="M560.7 1V596.5" stroke="#0F163F" stroke-miterlimit="10"/>
<path d="M543.6 1V596.5" stroke="#0F163F" stroke-miterlimit="10"/>
<path d="M526.6 1V596.5" stroke="#0F163F" stroke-miterlimit="10"/>
<path d="M509.5 1V596.5" stroke="#0F163F" stroke-miterlimit="10"/>
<path d="M492.5 1V596.5" stroke="#0F163F" stroke-miterlimit="10"/>
<path d="M475.5 1V596.5" stroke="#0F163F" stroke-miterlimit="10"/>
<path d="M458.4 1V596.5" stroke="#0F163F" stroke-miterlimit="10"/>
<path d="M441.4 1V596.5" stroke="#0F163F" stroke-miterlimit="10"/>
</g>
</svg>
