        <svg
          width="34"
          height="27"
          viewBox="0 0 24 17"
          fill="none"
          xmlns="http://www.w3.org/2000/svg"
        >
          <path
            d="M19.2076 9.08656C21.5733 9.08656 23.4911 7.16873 23.4911 4.80302C23.4911 2.43731 21.5733 0.519531 19.2076 0.519531C16.8419 0.519531 14.9241 2.43731 14.9241 4.80302C14.9241 7.16873 16.8419 9.08656 19.2076 9.08656Z"
            fill="#0542CC"
          />
          <path
            d="M23.5385 10.7793V16.9927H14.1243V14.7333C14.1243 12.568 15.8659 10.7793 18.0783 10.7793H23.5385Z"
            fill="#0542CC"
          />
          <path
            d="M12.5701 0.519531V16.9945H9.03974C6.78031 16.9945 4.70918 16.0531 3.20289 14.5939C1.69661 13.0876 0.802246 11.0165 0.802246 8.75703C0.802246 4.1911 4.47382 0.519531 9.03974 0.519531H12.5701Z"
            fill="#0542CC"
          />
        </svg>