<svg width="48" height="48" viewBox="0 0 48 48" fill="none" xmlns="http://www.w3.org/2000/svg">
<rect width="48" height="48" rx="8" fill="#D9E0F5"/>
<g clip-path="url(#clip0_9272_22022)">
<g clip-path="url(#clip1_9272_22022)">
<mask id="path-2-inside-1_9272_22022" fill="white">
<path d="M20.6235 13.0371C19.3257 13.0371 18.2493 13.9269 17.9412 15.1291C17.9065 15.1291 17.8804 15.1204 17.8457 15.1204C16.3136 15.1204 15.0679 16.3661 15.0679 17.8982C15.0679 18.1066 15.094 18.3105 15.1417 18.5059C13.8743 19.0267 12.9846 20.268 12.9846 21.7177C12.9846 22.2645 13.1235 22.7724 13.3448 23.2324C12.3032 23.8314 11.5957 24.9425 11.5957 26.2316C11.5957 27.6769 12.4811 28.9182 13.7398 29.439C13.7007 29.6387 13.679 29.8427 13.679 30.051C13.679 31.7784 15.0766 33.176 16.804 33.176C16.982 33.176 17.1556 33.1543 17.3249 33.1239C17.7415 34.3609 18.896 35.2593 20.2763 35.2593C22.0037 35.2593 23.4013 33.8618 23.4013 32.1343V15.8149C23.4013 14.2828 22.1556 13.0371 20.6235 13.0371ZM36.5957 26.2316C36.5957 24.9425 35.8882 23.8314 34.8466 23.2324C35.0723 22.7724 35.2068 22.2645 35.2068 21.7177C35.2068 20.268 34.3171 19.0267 33.0497 18.5059C33.0931 18.3105 33.1235 18.1066 33.1235 17.8982C33.1235 16.3661 31.8778 15.1204 30.3457 15.1204C30.311 15.1204 30.2806 15.1291 30.2502 15.1291C29.9421 13.9269 28.8657 13.0371 27.5679 13.0371C26.0358 13.0371 24.7901 14.2784 24.7901 15.8149V32.1343C24.7901 33.8618 26.1877 35.2593 27.9151 35.2593C29.2954 35.2593 30.4499 34.3609 30.8665 33.1239C31.0358 33.1543 31.2094 33.176 31.3874 33.176C33.1148 33.176 34.5124 31.7784 34.5124 30.051C34.5124 29.8427 34.4907 29.6387 34.4516 29.439C35.7103 28.9182 36.5957 27.6769 36.5957 26.2316Z"/>
</mask>
<path d="M20.6235 13.0371C19.3257 13.0371 18.2493 13.9269 17.9412 15.1291C17.9065 15.1291 17.8804 15.1204 17.8457 15.1204C16.3136 15.1204 15.0679 16.3661 15.0679 17.8982C15.0679 18.1066 15.094 18.3105 15.1417 18.5059C13.8743 19.0267 12.9846 20.268 12.9846 21.7177C12.9846 22.2645 13.1235 22.7724 13.3448 23.2324C12.3032 23.8314 11.5957 24.9425 11.5957 26.2316C11.5957 27.6769 12.4811 28.9182 13.7398 29.439C13.7007 29.6387 13.679 29.8427 13.679 30.051C13.679 31.7784 15.0766 33.176 16.804 33.176C16.982 33.176 17.1556 33.1543 17.3249 33.1239C17.7415 34.3609 18.896 35.2593 20.2763 35.2593C22.0037 35.2593 23.4013 33.8618 23.4013 32.1343V15.8149C23.4013 14.2828 22.1556 13.0371 20.6235 13.0371ZM36.5957 26.2316C36.5957 24.9425 35.8882 23.8314 34.8466 23.2324C35.0723 22.7724 35.2068 22.2645 35.2068 21.7177C35.2068 20.268 34.3171 19.0267 33.0497 18.5059C33.0931 18.3105 33.1235 18.1066 33.1235 17.8982C33.1235 16.3661 31.8778 15.1204 30.3457 15.1204C30.311 15.1204 30.2806 15.1291 30.2502 15.1291C29.9421 13.9269 28.8657 13.0371 27.5679 13.0371C26.0358 13.0371 24.7901 14.2784 24.7901 15.8149V32.1343C24.7901 33.8618 26.1877 35.2593 27.9151 35.2593C29.2954 35.2593 30.4499 34.3609 30.8665 33.1239C31.0358 33.1543 31.2094 33.176 31.3874 33.176C33.1148 33.176 34.5124 31.7784 34.5124 30.051C34.5124 29.8427 34.4907 29.6387 34.4516 29.439C35.7103 28.9182 36.5957 27.6769 36.5957 26.2316Z" stroke="#0233BD" stroke-width="2" mask="url(#path-2-inside-1_9272_22022)"/>
</g>
</g>
<defs>
<clipPath id="clip0_9272_22022">
<rect width="24" height="24" fill="white" transform="translate(12 12)"/>
</clipPath>
<clipPath id="clip1_9272_22022">
<rect width="24" height="24" fill="white" transform="translate(12 12)"/>
</clipPath>
</defs>
</svg>
