<svg width="48" height="48" viewBox="0 0 48 48" fill="none" xmlns="http://www.w3.org/2000/svg">
<rect width="48" height="48" rx="8" fill="#D9E0F5"/>
<g clip-path="url(#clip0_9275_22429)">
<mask id="path-2-inside-1_9275_22429" fill="white">
<path d="M33.4979 23.9963L35.6535 21.8867C36.296 21.2784 35.9964 20.1973 35.1536 19.9958L32.2169 19.2462L33.0447 16.3393C33.2787 15.5031 32.4902 14.7145 31.6544 14.9485L28.7484 15.7766L27.9991 12.8389C27.8009 12.0093 26.7077 11.7058 26.1089 12.3388L24 14.5111L21.8911 12.3389C21.2991 11.7131 20.2014 11.9998 20.0009 12.8389L19.2517 15.7766L16.3456 14.9485C15.5095 14.7144 14.7214 15.5034 14.9553 16.3393L15.7831 19.2463L12.8464 19.9958C12.0032 20.1974 11.7042 21.2786 12.3465 21.8867L14.502 23.9963L12.3465 26.1058C11.7039 26.7141 12.0036 27.7952 12.8464 27.9967L15.7831 28.7463L14.9552 31.6532C14.7213 32.4894 15.5097 33.278 16.3456 33.044L19.2516 32.2159L20.0008 35.1536C20.2089 36.0243 21.2991 36.2794 21.891 35.6537L24 33.4974L26.1089 35.6537C26.6948 36.2859 27.7957 36.0046 27.9991 35.1536L28.7483 32.2159L31.6543 33.044C32.4904 33.2781 33.2786 32.4892 33.0447 31.6532L32.2168 28.7463L35.1535 27.9967C35.9967 27.7951 36.2957 26.7139 35.6534 26.1058L33.4979 23.9963Z"/>
</mask>
<path d="M33.4979 23.9963L35.6535 21.8867C36.296 21.2784 35.9964 20.1973 35.1536 19.9958L32.2169 19.2462L33.0447 16.3393C33.2787 15.5031 32.4902 14.7145 31.6544 14.9485L28.7484 15.7766L27.9991 12.8389C27.8009 12.0093 26.7077 11.7058 26.1089 12.3388L24 14.5111L21.8911 12.3389C21.2991 11.7131 20.2014 11.9998 20.0009 12.8389L19.2517 15.7766L16.3456 14.9485C15.5095 14.7144 14.7214 15.5034 14.9553 16.3393L15.7831 19.2463L12.8464 19.9958C12.0032 20.1974 11.7042 21.2786 12.3465 21.8867L14.502 23.9963L12.3465 26.1058C11.7039 26.7141 12.0036 27.7952 12.8464 27.9967L15.7831 28.7463L14.9552 31.6532C14.7213 32.4894 15.5097 33.278 16.3456 33.044L19.2516 32.2159L20.0008 35.1536C20.2089 36.0243 21.2991 36.2794 21.891 35.6537L24 33.4974L26.1089 35.6537C26.6948 36.2859 27.7957 36.0046 27.9991 35.1536L28.7483 32.2159L31.6543 33.044C32.4904 33.2781 33.2786 32.4892 33.0447 31.6532L32.2168 28.7463L35.1535 27.9967C35.9967 27.7951 36.2957 26.7139 35.6534 26.1058L33.4979 23.9963Z" stroke="#0233BD" stroke-width="2" mask="url(#path-2-inside-1_9275_22429)"/>
</g>
<defs>
<clipPath id="clip0_9275_22429">
<rect width="24" height="24" fill="white" transform="translate(12 12)"/>
</clipPath>
</defs>
</svg>
