<svg width="48" height="48" viewBox="0 0 48 48" fill="none" xmlns="http://www.w3.org/2000/svg">
<rect width="48" height="48" rx="8" fill="#D9E0F5"/>
<mask id="path-2-inside-1_9414_23052" fill="white">
<path d="M29.2453 27.4575C29.0287 27.7059 28.7869 27.9309 28.5 28.0973V29.1727C31.6181 29.6105 33.75 30.4875 33.75 31.5C33.75 32.9498 29.385 34.125 24 34.125C18.615 34.125 14.25 32.9498 14.25 31.5C14.25 30.4875 16.3819 29.6109 19.5 29.1727V28.0973C19.2131 27.9309 18.9713 27.7059 18.7547 27.4575C14.7595 28.1878 12 29.7211 12 31.5C12 33.9853 17.3728 36 24 36C30.6272 36 36 33.9853 36 31.5C36 29.7211 33.2405 28.1878 29.2453 27.4575ZM24 18C25.657 18 27 16.657 27 15C27 13.343 25.657 12 24 12C22.343 12 21 13.343 21 15C21 16.657 22.343 18 24 18ZM21 27V31.5C21 32.3283 21.6717 33 22.5 33H25.5C26.3283 33 27 32.3283 27 31.5V27C27.8283 27 28.5 26.3283 28.5 25.5V21C28.5 19.7573 27.4927 18.75 26.25 18.75H25.6969C25.178 18.9858 24.6066 19.125 24 19.125C23.3934 19.125 22.822 18.9858 22.3031 18.75H21.75C20.5073 18.75 19.5 19.7573 19.5 21V25.5C19.5 26.3283 20.1717 27 21 27Z"/>
</mask>
<path d="M29.2453 27.4575C29.0287 27.7059 28.7869 27.9309 28.5 28.0973V29.1727C31.6181 29.6105 33.75 30.4875 33.75 31.5C33.75 32.9498 29.385 34.125 24 34.125C18.615 34.125 14.25 32.9498 14.25 31.5C14.25 30.4875 16.3819 29.6109 19.5 29.1727V28.0973C19.2131 27.9309 18.9713 27.7059 18.7547 27.4575C14.7595 28.1878 12 29.7211 12 31.5C12 33.9853 17.3728 36 24 36C30.6272 36 36 33.9853 36 31.5C36 29.7211 33.2405 28.1878 29.2453 27.4575ZM24 18C25.657 18 27 16.657 27 15C27 13.343 25.657 12 24 12C22.343 12 21 13.343 21 15C21 16.657 22.343 18 24 18ZM21 27V31.5C21 32.3283 21.6717 33 22.5 33H25.5C26.3283 33 27 32.3283 27 31.5V27C27.8283 27 28.5 26.3283 28.5 25.5V21C28.5 19.7573 27.4927 18.75 26.25 18.75H25.6969C25.178 18.9858 24.6066 19.125 24 19.125C23.3934 19.125 22.822 18.9858 22.3031 18.75H21.75C20.5073 18.75 19.5 19.7573 19.5 21V25.5C19.5 26.3283 20.1717 27 21 27Z" stroke="#0233BD" stroke-width="2" mask="url(#path-2-inside-1_9414_23052)"/>
</svg>
