<svg width="48" height="48" viewBox="0 0 48 48" fill="none" xmlns="http://www.w3.org/2000/svg">
<rect width="48" height="48" rx="8" fill="#D9E0F5"/>
<g clip-path="url(#clip0_9275_22443)">
<mask id="path-2-inside-1_9275_22443" fill="white">
<path d="M35.625 24C35.625 30.4217 30.4199 35.625 24 35.625C17.5801 35.625 12.375 30.4217 12.375 24C12.375 17.582 17.5801 12.375 24 12.375C30.4199 12.375 35.625 17.582 35.625 24ZM24.312 16.2188C21.7574 16.2188 20.1281 17.2949 18.8487 19.2074C18.683 19.4552 18.7384 19.7894 18.976 19.9695L20.6025 21.2028C20.8465 21.3878 21.1941 21.3438 21.3837 21.1033C22.221 20.0412 22.7952 19.4253 24.0697 19.4253C25.0274 19.4253 26.2118 20.0416 26.2118 20.9702C26.2118 21.6722 25.6323 22.0328 24.6868 22.5629C23.5841 23.181 22.125 23.9504 22.125 25.875V26.0625C22.125 26.3731 22.3769 26.625 22.6875 26.625H25.3125C25.6231 26.625 25.875 26.3731 25.875 26.0625V26C25.875 24.6659 29.7743 24.6103 29.7743 21C29.7743 18.2812 26.9541 16.2188 24.312 16.2188ZM24 27.8438C22.811 27.8438 21.8438 28.811 21.8438 30C21.8438 31.1889 22.811 32.1562 24 32.1562C25.189 32.1562 26.1562 31.1889 26.1562 30C26.1562 28.811 25.189 27.8438 24 27.8438Z"/>
</mask>
<path d="M35.625 24C35.625 30.4217 30.4199 35.625 24 35.625C17.5801 35.625 12.375 30.4217 12.375 24C12.375 17.582 17.5801 12.375 24 12.375C30.4199 12.375 35.625 17.582 35.625 24ZM24.312 16.2188C21.7574 16.2188 20.1281 17.2949 18.8487 19.2074C18.683 19.4552 18.7384 19.7894 18.976 19.9695L20.6025 21.2028C20.8465 21.3878 21.1941 21.3438 21.3837 21.1033C22.221 20.0412 22.7952 19.4253 24.0697 19.4253C25.0274 19.4253 26.2118 20.0416 26.2118 20.9702C26.2118 21.6722 25.6323 22.0328 24.6868 22.5629C23.5841 23.181 22.125 23.9504 22.125 25.875V26.0625C22.125 26.3731 22.3769 26.625 22.6875 26.625H25.3125C25.6231 26.625 25.875 26.3731 25.875 26.0625V26C25.875 24.6659 29.7743 24.6103 29.7743 21C29.7743 18.2812 26.9541 16.2188 24.312 16.2188ZM24 27.8438C22.811 27.8438 21.8438 28.811 21.8438 30C21.8438 31.1889 22.811 32.1562 24 32.1562C25.189 32.1562 26.1562 31.1889 26.1562 30C26.1562 28.811 25.189 27.8438 24 27.8438Z" stroke="#0233BD" stroke-width="2" mask="url(#path-2-inside-1_9275_22443)"/>
</g>
<defs>
<clipPath id="clip0_9275_22443">
<rect width="24" height="24" fill="white" transform="translate(12 12)"/>
</clipPath>
</defs>
</svg>
