<svg width="48" height="48" viewBox="0 0 48 48" fill="none" xmlns="http://www.w3.org/2000/svg">
<rect width="48" height="48" rx="8" fill="#D9E0F5"/>
<mask id="path-2-inside-1_9275_22465" fill="white">
<path d="M35.5608 22.0608L33.4397 19.9397C33.1584 19.6584 32.7769 19.5005 32.3789 19.5005H30V15.75C30 14.5073 28.9927 13.5 27.75 13.5H20.25C19.0073 13.5 18 14.5073 18 15.75V19.5H15.6211C15.2231 19.5 14.842 19.658 14.5603 19.9392L12.4392 22.0608C12.158 22.342 12 22.7236 12 23.1216V27H18V26.25C18 25.8356 18.3356 25.5 18.75 25.5H20.25C20.6644 25.5 21 25.8356 21 26.25V27H27V26.25C27 25.8356 27.3356 25.5 27.75 25.5H29.25C29.6644 25.5 30 25.8356 30 26.25V27H36V23.1211C36 22.7236 35.842 22.342 35.5608 22.0608ZM27 19.5H21V16.5H27V19.5ZM30 29.25C30 29.6644 29.6644 30 29.25 30H27.75C27.3356 30 27 29.6644 27 29.25V28.5H21V29.25C21 29.6644 20.6644 30 20.25 30H18.75C18.3356 30 18 29.6644 18 29.25V28.5H12V33C12 33.8283 12.6717 34.5 13.5 34.5H34.5C35.3283 34.5 36 33.8283 36 33V28.5H30V29.25Z"/>
</mask>
<path d="M35.5608 22.0608L33.4397 19.9397C33.1584 19.6584 32.7769 19.5005 32.3789 19.5005H30V15.75C30 14.5073 28.9927 13.5 27.75 13.5H20.25C19.0073 13.5 18 14.5073 18 15.75V19.5H15.6211C15.2231 19.5 14.842 19.658 14.5603 19.9392L12.4392 22.0608C12.158 22.342 12 22.7236 12 23.1216V27H18V26.25C18 25.8356 18.3356 25.5 18.75 25.5H20.25C20.6644 25.5 21 25.8356 21 26.25V27H27V26.25C27 25.8356 27.3356 25.5 27.75 25.5H29.25C29.6644 25.5 30 25.8356 30 26.25V27H36V23.1211C36 22.7236 35.842 22.342 35.5608 22.0608ZM27 19.5H21V16.5H27V19.5ZM30 29.25C30 29.6644 29.6644 30 29.25 30H27.75C27.3356 30 27 29.6644 27 29.25V28.5H21V29.25C21 29.6644 20.6644 30 20.25 30H18.75C18.3356 30 18 29.6644 18 29.25V28.5H12V33C12 33.8283 12.6717 34.5 13.5 34.5H34.5C35.3283 34.5 36 33.8283 36 33V28.5H30V29.25Z" stroke="#0233BD" stroke-width="2" mask="url(#path-2-inside-1_9275_22465)"/>
</svg>
