<svg width="48" height="48" viewBox="0 0 48 48" fill="none" xmlns="http://www.w3.org/2000/svg">
<rect width="48" height="48" rx="8" fill="#D9E0F5"/>
<g clip-path="url(#clip0_9273_22044)">
<mask id="path-2-inside-1_9273_22044" fill="white">
<path d="M12.5586 18.6612L23.0408 23.4163C23.3468 23.5553 23.6928 23.5553 23.9988 23.4163L34.481 18.6612C35.2257 18.3232 35.2257 17.1978 34.481 16.8598L23.9992 12.1043C23.8489 12.0356 23.6855 12 23.5202 12C23.3549 12 23.1916 12.0356 23.0412 12.1043L12.5586 16.8594C11.8138 17.1973 11.8138 18.3232 12.5586 18.6612ZM34.4814 22.6337L31.8674 21.4489L24.5937 24.746C24.2535 24.9004 23.8921 24.9787 23.52 24.9787C23.1479 24.9787 22.787 24.9004 22.4463 24.746L15.173 21.4489L12.5586 22.6337C11.8138 22.9712 11.8138 24.0962 12.5586 24.4337L23.0408 29.1852C23.3468 29.3238 23.6928 29.3238 23.9988 29.1852L34.4814 24.4337C35.2262 24.0962 35.2262 22.9712 34.4814 22.6337ZM34.4814 28.3847L31.8773 27.2043L24.5937 30.506C24.2535 30.6603 23.8921 30.7386 23.52 30.7386C23.1479 30.7386 22.787 30.6603 22.4463 30.506L15.1631 27.2043L12.5586 28.3847C11.8138 28.7222 11.8138 29.8472 12.5586 30.1847L23.0408 34.9362C23.3468 35.0748 23.6928 35.0748 23.9988 34.9362L34.4814 30.1847C35.2262 29.8472 35.2262 28.7222 34.4814 28.3847Z"/>
</mask>
<path d="M12.5586 18.6612L23.0408 23.4163C23.3468 23.5553 23.6928 23.5553 23.9988 23.4163L34.481 18.6612C35.2257 18.3232 35.2257 17.1978 34.481 16.8598L23.9992 12.1043C23.8489 12.0356 23.6855 12 23.5202 12C23.3549 12 23.1916 12.0356 23.0412 12.1043L12.5586 16.8594C11.8138 17.1973 11.8138 18.3232 12.5586 18.6612ZM34.4814 22.6337L31.8674 21.4489L24.5937 24.746C24.2535 24.9004 23.8921 24.9787 23.52 24.9787C23.1479 24.9787 22.787 24.9004 22.4463 24.746L15.173 21.4489L12.5586 22.6337C11.8138 22.9712 11.8138 24.0962 12.5586 24.4337L23.0408 29.1852C23.3468 29.3238 23.6928 29.3238 23.9988 29.1852L34.4814 24.4337C35.2262 24.0962 35.2262 22.9712 34.4814 22.6337ZM34.4814 28.3847L31.8773 27.2043L24.5937 30.506C24.2535 30.6603 23.8921 30.7386 23.52 30.7386C23.1479 30.7386 22.787 30.6603 22.4463 30.506L15.1631 27.2043L12.5586 28.3847C11.8138 28.7222 11.8138 29.8472 12.5586 30.1847L23.0408 34.9362C23.3468 35.0748 23.6928 35.0748 23.9988 34.9362L34.4814 30.1847C35.2262 29.8472 35.2262 28.7222 34.4814 28.3847Z" stroke="#0233BD" stroke-width="2" mask="url(#path-2-inside-1_9273_22044)"/>
</g>
<defs>
<clipPath id="clip0_9273_22044">
<rect width="24" height="24" fill="white" transform="translate(12 12)"/>
</clipPath>
</defs>
</svg>
