<?xml version="1.0" encoding="UTF-8"?>
<svg xmlns="http://www.w3.org/2000/svg" xmlns:xlink="http://www.w3.org/1999/xlink" width="133px"
    height="38px" viewBox="0 0 132 38" version="1.1">
    <g id="surface1">
        <path style=" stroke:none;fill-rule:nonzero;fill:#111827;fill-opacity:1;"
            d="M 28.375 7.21875 C 28.355469 7.019531 28.179688 6.933594 28.050781 6.910156 C 27.917969 6.890625 25.316406 6.867188 25.316406 6.867188 C 25.316406 6.867188 23.121094 4.726562 22.90625 4.511719 C 22.6875 4.292969 22.273438 4.355469 22.101562 4.402344 C 22.101562 4.402344 21.6875 4.53125 20.992188 4.75 C 20.886719 4.378906 20.710938 3.921875 20.472656 3.460938 C 19.691406 1.953125 18.5625 1.167969 17.171875 1.167969 C 17.085938 1.167969 16.976562 1.167969 16.890625 1.191406 C 16.847656 1.148438 16.804688 1.101562 16.761719 1.039062 C 16.152344 0.382812 15.394531 0.078125 14.480469 0.0976562 C 12.699219 0.140625 10.941406 1.429688 9.488281 3.746094 C 8.46875 5.363281 7.707031 7.390625 7.488281 8.964844 C 5.449219 9.597656 4.015625 10.035156 3.996094 10.058594 C 2.972656 10.382812 2.929688 10.40625 2.800781 11.390625 C 2.691406 12.109375 0 33.097656 0 33.097656 L 22.601562 37.027344 L 32.390625 34.582031 C 32.390625 34.582031 28.398438 7.390625 28.375 7.21875 Z M 19.863281 5.097656 C 19.34375 5.253906 18.757812 5.449219 18.105469 5.644531 C 18.085938 4.75 17.976562 3.484375 17.5625 2.390625 C 18.929688 2.652344 19.582031 4.183594 19.863281 5.097656 Z M 16.933594 6.015625 C 15.738281 6.386719 14.460938 6.78125 13.15625 7.195312 C 13.527344 5.796875 14.21875 4.402344 15.066406 3.484375 C 15.394531 3.132812 15.828125 2.761719 16.347656 2.542969 C 16.847656 3.570312 16.933594 5.035156 16.933594 6.015625 Z M 14.503906 1.300781 C 14.914062 1.300781 15.261719 1.386719 15.566406 1.582031 C 15.089844 1.824219 14.609375 2.195312 14.175781 2.675781 C 13.046875 3.898438 12.179688 5.777344 11.832031 7.609375 C 10.746094 7.9375 9.703125 8.265625 8.726562 8.570312 C 9.378906 5.6875 11.765625 1.386719 14.503906 1.300781 Z M 14.503906 1.300781 " />
        <path
            style=" stroke:none;fill-rule:nonzero;fill:rgb(43.921569%,45.882353%,49.019608%);fill-opacity:1;"
            d="M 28.050781 6.910156 C 27.917969 6.890625 25.316406 6.867188 25.316406 6.867188 C 25.316406 6.867188 23.121094 4.726562 22.90625 4.511719 C 22.816406 4.421875 22.710938 4.378906 22.601562 4.378906 L 22.601562 37.027344 L 32.390625 34.582031 C 32.390625 34.582031 28.398438 7.414062 28.375 7.21875 C 28.332031 7.019531 28.179688 6.933594 28.050781 6.910156 Z M 28.050781 6.910156 " />
        <path style=" stroke:none;fill-rule:nonzero;fill:rgb(100%,100%,100%);fill-opacity:1;"
            d="M 17.171875 11.980469 L 16.042969 16.257812 C 16.042969 16.257812 14.785156 15.667969 13.265625 15.777344 C 11.050781 15.910156 11.027344 17.308594 11.050781 17.679688 C 11.179688 19.601562 16.175781 20.015625 16.457031 24.492188 C 16.671875 28.03125 14.589844 30.433594 11.59375 30.628906 C 7.988281 30.847656 6.015625 28.730469 6.015625 28.730469 L 6.773438 25.476562 C 6.773438 25.476562 8.769531 26.980469 10.355469 26.894531 C 11.398438 26.828125 11.765625 25.976562 11.722656 25.367188 C 11.570312 22.875 7.488281 23.007812 7.230469 18.921875 C 7.011719 15.472656 9.269531 11.980469 14.242188 11.652344 C 16.195312 11.476562 17.171875 11.980469 17.171875 11.980469 Z M 17.171875 11.980469 " />
        <path
            style=" stroke:none;fill-rule:nonzero;fill:#111827;fill-opacity:1;"
            d="M 45.65625 21.109375 C 44.527344 20.496094 43.941406 19.972656 43.941406 19.25 C 43.941406 18.332031 44.746094 17.746094 46.027344 17.746094 C 47.503906 17.746094 48.804688 18.355469 48.804688 18.355469 L 49.847656 15.167969 C 49.847656 15.167969 48.890625 14.425781 46.089844 14.425781 C 42.183594 14.425781 39.46875 16.675781 39.46875 19.839844 C 39.46875 21.632812 40.730469 23.007812 42.421875 23.988281 C 43.789062 24.777344 44.269531 25.324219 44.269531 26.152344 C 44.269531 27.003906 43.59375 27.679688 42.3125 27.679688 C 40.425781 27.679688 38.644531 26.699219 38.644531 26.699219 L 37.539062 29.886719 C 37.539062 29.886719 39.1875 31 41.945312 31 C 45.960938 31 48.847656 29.011719 48.847656 25.429688 C 48.871094 23.488281 47.414062 22.113281 45.65625 21.109375 Z M 61.679688 14.382812 C 59.703125 14.382812 58.140625 15.320312 56.945312 16.761719 L 56.882812 16.738281 L 58.597656 7.699219 L 54.125 7.699219 L 49.78125 30.695312 L 54.253906 30.695312 L 55.753906 22.832031 C 56.339844 19.863281 57.859375 18.027344 59.292969 18.027344 C 60.289062 18.027344 60.679688 18.707031 60.679688 19.6875 C 60.679688 20.300781 60.617188 21.0625 60.484375 21.675781 L 58.792969 30.671875 L 63.265625 30.671875 L 65.023438 21.371094 C 65.21875 20.386719 65.347656 19.207031 65.347656 18.441406 C 65.347656 15.929688 64.003906 14.382812 61.679688 14.382812 Z M 75.464844 14.382812 C 70.082031 14.382812 66.519531 19.273438 66.519531 24.734375 C 66.519531 28.226562 68.671875 31.023438 72.6875 31.023438 C 77.960938 31.023438 81.542969 26.261719 81.542969 20.671875 C 81.523438 17.460938 79.632812 14.382812 75.464844 14.382812 Z M 73.25 27.570312 C 71.730469 27.570312 71.082031 26.261719 71.082031 24.644531 C 71.082031 22.070312 72.40625 17.851562 74.835938 17.851562 C 76.421875 17.851562 76.941406 19.230469 76.941406 20.5625 C 76.941406 23.335938 75.617188 27.570312 73.25 27.570312 Z M 92.964844 14.382812 C 89.945312 14.382812 88.230469 17.046875 88.230469 17.046875 L 88.167969 17.046875 L 88.425781 14.621094 L 84.476562 14.621094 C 84.28125 16.257812 83.933594 18.726562 83.5625 20.582031 L 80.460938 37.050781 L 84.929688 37.050781 L 86.167969 30.390625 L 86.257812 30.390625 C 86.257812 30.390625 87.167969 30.980469 88.882812 30.980469 C 94.136719 30.980469 97.566406 25.5625 97.566406 20.082031 C 97.589844 17.089844 96.242188 14.382812 92.964844 14.382812 Z M 88.6875 27.636719 C 87.515625 27.636719 86.84375 26.980469 86.84375 26.980469 L 87.582031 22.765625 C 88.101562 19.972656 89.554688 18.09375 91.117188 18.09375 C 92.488281 18.09375 92.898438 19.359375 92.898438 20.582031 C 92.898438 23.488281 91.183594 27.636719 88.6875 27.636719 Z M 103.972656 7.9375 C 102.539062 7.9375 101.410156 9.074219 101.410156 10.558594 C 101.410156 11.890625 102.257812 12.808594 103.515625 12.808594 L 103.582031 12.808594 C 104.96875 12.808594 106.1875 11.871094 106.207031 10.1875 C 106.207031 8.878906 105.339844 7.9375 103.972656 7.9375 Z M 97.71875 30.695312 L 102.191406 30.695312 L 105.230469 14.753906 L 100.714844 14.753906 Z M 116.605469 14.707031 L 113.503906 14.707031 L 113.65625 13.964844 C 113.914062 12.4375 114.828125 11.0625 116.304688 11.0625 C 117.105469 11.0625 117.734375 11.28125 117.734375 11.28125 L 118.605469 7.765625 C 118.605469 7.765625 117.824219 7.371094 116.171875 7.371094 C 114.589844 7.371094 113.003906 7.828125 111.789062 8.878906 C 110.269531 10.1875 109.550781 12.066406 109.183594 13.964844 L 109.050781 14.707031 L 106.96875 14.707031 L 106.316406 18.09375 L 108.402344 18.09375 L 106.035156 30.695312 L 110.507812 30.695312 L 112.871094 18.09375 L 115.957031 18.09375 Z M 127.375 14.753906 C 127.375 14.753906 124.574219 21.851562 123.316406 25.714844 L 123.25 25.714844 C 123.164062 24.46875 122.144531 14.753906 122.144531 14.753906 L 117.453125 14.753906 L 120.144531 29.40625 C 120.210938 29.734375 120.167969 29.929688 120.058594 30.148438 C 119.539062 31.152344 118.667969 32.136719 117.628906 32.855469 C 116.78125 33.46875 115.847656 33.863281 115.085938 34.125 L 116.324219 37.945312 C 117.238281 37.75 119.105469 37.007812 120.710938 35.5 C 122.75 33.578125 124.640625 30.609375 126.574219 26.566406 L 132.042969 14.753906 Z M 127.375 14.753906 " />
    </g>
</svg>