<?xml version="1.0" encoding="UTF-8"?>
<svg xmlns="http://www.w3.org/2000/svg" xmlns:xlink="http://www.w3.org/1999/xlink" width="173px"
  height="38px" viewBox="0 0 172 38" version="1.1">
  <defs>
    <clipPath id="clip1">
      <path d="M 99 7 L 125 7 L 125 37.636719 L 99 37.636719 Z M 99 7 " />
    </clipPath>
    <clipPath id="clip2">
      <path d="M 0 7 L 33 7 L 33 37.636719 L 0 37.636719 Z M 0 7 " />
    </clipPath>
    <clipPath id="clip3">
      <path d="M 68 7 L 101 7 L 101 37.636719 L 68 37.636719 Z M 68 7 " />
    </clipPath>
    <clipPath id="clip4">
      <path d="M 139 7 L 171.6875 7 L 171.6875 37.636719 L 139 37.636719 Z M 139 7 " />
    </clipPath>
  </defs>
  <g id="surface1">
    <g clip-path="url(#clip1)" clip-rule="nonzero">
      <path style=" stroke:none;fill-rule:nonzero;fill:#111827;fill-opacity:1;"
        d="M 123.050781 17.90625 L 124.191406 10.203125 C 121.699219 8.847656 118.21875 7.703125 114.214844 7.703125 C 106.316406 7.703125 102.003906 11.867188 102.003906 17.230469 C 102.003906 22.902344 107.148438 24.570312 110.683594 25.765625 C 112.8125 26.546875 114.476562 27.121094 114.476562 28.265625 C 114.476562 29.203125 113.386719 30.085938 111.203125 30.085938 C 108.03125 30.085938 103.617188 28.265625 100.757812 25.714844 L 99.511719 34.148438 C 102.472656 36.335938 106.734375 37.636719 111.253906 37.636719 C 119.101562 37.636719 123.570312 33.785156 123.570312 28.316406 C 123.570312 22.59375 118.738281 20.664062 114.839844 19.261719 C 112.65625 18.480469 111.097656 18.011719 111.097656 16.917969 C 111.097656 15.980469 112.191406 15.253906 114.425781 15.253906 C 117.644531 15.253906 120.972656 16.761719 123.050781 17.90625 Z M 123.050781 17.90625 " />
    </g>
    <g clip-path="url(#clip2)" clip-rule="nonzero">
      <path style=" stroke:none;fill-rule:nonzero;fill:#111827;fill-opacity:1;"
        d="M 22.96875 8.484375 L 22.449219 10.984375 C 20.941406 8.015625 16.472656 7.703125 14.082031 7.703125 C 6.597656 7.703125 0.0507812 14.886719 0.0507812 24.726562 C 0.0507812 32.636719 4.832031 37.636719 10.808594 37.636719 C 14.132812 37.636719 16.992188 36.855469 19.332031 34.097656 L 18.707031 36.855469 L 28.113281 36.855469 L 32.425781 8.433594 L 22.96875 8.433594 Z M 15.121094 28.160156 C 11.898438 28.160156 9.457031 25.664062 9.457031 22.488281 C 9.457031 19.363281 11.953125 16.8125 15.121094 16.8125 C 18.238281 16.8125 20.734375 19.363281 20.734375 22.488281 C 20.734375 25.664062 18.238281 28.160156 15.121094 28.160156 Z M 15.121094 28.160156 " />
    </g>
    <g clip-path="url(#clip3)" clip-rule="nonzero">
      <path style=" stroke:none;fill-rule:nonzero;fill:#111827;fill-opacity:1;"
        d="M 92.339844 8.484375 L 91.351562 8.484375 L 90.832031 10.984375 C 89.324219 8.015625 84.855469 7.703125 82.464844 7.703125 C 74.984375 7.703125 68.4375 14.886719 68.4375 24.726562 C 68.4375 32.636719 73.21875 37.636719 79.191406 37.636719 C 82.519531 37.636719 85.375 36.855469 87.714844 34.097656 L 87.089844 36.855469 L 96.496094 36.855469 L 100.808594 8.433594 L 92.339844 8.433594 Z M 83.503906 28.160156 C 80.285156 28.160156 77.839844 25.664062 77.839844 22.488281 C 77.839844 19.363281 80.335938 16.8125 83.503906 16.8125 C 86.625 16.8125 89.117188 19.363281 89.117188 22.488281 C 89.167969 25.664062 86.625 28.160156 83.503906 28.160156 Z M 83.503906 28.160156 " />
    </g>
    <g clip-path="url(#clip4)" clip-rule="nonzero">
      <path style=" stroke:none;fill-rule:nonzero;fill:#111827;fill-opacity:1;"
        d="M 163.21875 8.484375 L 162.230469 8.484375 L 161.710938 10.984375 C 160.203125 8.015625 155.734375 7.703125 153.34375 7.703125 C 145.863281 7.703125 139.316406 14.886719 139.316406 24.726562 C 139.316406 32.636719 144.09375 37.636719 150.070312 37.636719 C 153.398438 37.636719 156.253906 36.855469 158.59375 34.097656 L 157.96875 36.855469 L 167.375 36.855469 L 171.6875 8.433594 L 163.21875 8.433594 Z M 154.382812 28.160156 C 151.164062 28.160156 148.71875 25.664062 148.71875 22.488281 C 148.71875 19.363281 151.214844 16.8125 154.382812 16.8125 C 157.503906 16.8125 159.996094 19.363281 159.996094 22.488281 C 159.996094 25.664062 157.503906 28.160156 154.382812 28.160156 Z M 154.382812 28.160156 " />
    </g>
    <path style=" stroke:none;fill-rule:nonzero;fill:#111827;fill-opacity:1;"
      d="M 41.519531 9.527344 C 44.128906 9.527344 46.246094 7.40625 46.246094 4.789062 C 46.246094 2.171875 44.128906 0.0507812 41.519531 0.0507812 C 38.90625 0.0507812 36.789062 2.171875 36.789062 4.789062 C 36.789062 7.40625 38.90625 9.527344 41.519531 9.527344 Z M 41.519531 9.527344 " />
    <path style=" stroke:none;fill-rule:nonzero;fill:#111827;fill-opacity:1;"
      d="M 41.46875 11.347656 C 39.441406 11.347656 37.621094 10.410156 36.425781 9.003906 L 32.21875 36.855469 L 41.675781 36.855469 L 45.78125 9.785156 C 44.585938 10.773438 43.128906 11.347656 41.46875 11.347656 Z M 41.46875 11.347656 " />
    <path style=" stroke:none;fill-rule:nonzero;fill:#111827;fill-opacity:1;"
      d="M 63.605469 17.855469 C 66.214844 17.855469 68.332031 15.734375 68.332031 13.117188 C 68.332031 10.5 66.214844 8.378906 63.605469 8.378906 C 60.992188 8.378906 58.875 10.5 58.875 13.117188 C 58.875 15.734375 60.992188 17.855469 63.605469 17.855469 Z M 63.605469 17.855469 " />
    <path style=" stroke:none;fill-rule:nonzero;fill:#111827;fill-opacity:1;"
      d="M 57.003906 13.117188 C 57.003906 11.296875 57.730469 9.628906 58.925781 8.433594 L 50.042969 8.433594 L 45.726562 36.855469 L 55.183594 36.855469 L 58.199219 16.867188 C 57.421875 15.824219 57.003906 14.523438 57.003906 13.117188 Z M 57.003906 13.117188 " />
    <path style=" stroke:none;fill-rule:nonzero;fill:#111827;fill-opacity:1;"
      d="M 134.378906 9.472656 C 136.988281 9.472656 139.105469 7.351562 139.105469 4.738281 C 139.105469 2.121094 136.988281 0 134.378906 0 C 131.765625 0 129.648438 2.121094 129.648438 4.738281 C 129.648438 7.351562 131.765625 9.472656 134.378906 9.472656 Z M 134.378906 9.472656 " />
    <path style=" stroke:none;fill-rule:nonzero;fill:#111827;fill-opacity:1;"
      d="M 134.378906 11.347656 C 132.300781 11.347656 130.429688 10.359375 129.183594 8.847656 L 124.921875 36.855469 L 134.378906 36.855469 L 138.484375 9.890625 C 137.339844 10.828125 135.9375 11.347656 134.378906 11.347656 Z M 134.378906 11.347656 " />
  </g>
</svg>