<svg xmlns="http://www.w3.org/2000/svg" xmlns:xlink="http://www.w3.org/1999/xlink" version="1.1" id="Layer_1" x="0px" y="0px" viewBox="0 0 346.957 284.427" style="enable-background:new 0 0 346.957 284.427;" xml:space="preserve">
<g>
	<g>
		<path style="fill:#DB0018;" d="M116.316,84.421c0,0-7.044,12.942-22.116,26.539c-15.072,13.597-21.789,21.297-30.635,32.765    c-8.847,11.468-13.597,15.891-13.597,15.891l-12.287-4.505c0,0,14.253-32.191,19.905-55.782    c5.652-23.591,7.372-26.785,15.236-30.225c7.864-3.44,21.133-14.498,28.014-26.785s9.829-12.287,17.201-13.024    c7.372-0.737,32.683-8.601,44.97-18.676c9.092-7.126,12.041-6.881,20.888-4.423c8.846,2.457,38.826,10.321,52.833,24.819    C219.279,36.666,190.774,22.577,116.316,84.421z"/>
		<path style="fill:#8C0A1A;" d="M49.968,159.985c-0.043,0-0.085-0.007-0.127-0.022l-12.287-4.505    c-0.097-0.035-0.173-0.109-0.214-0.203c-0.039-0.094-0.039-0.201,0.003-0.294c0.143-0.322,14.303-32.431,19.883-55.718    c5.636-23.526,7.368-26.944,15.446-30.479c8.237-3.602,21.222-14.807,27.841-26.627c6.805-12.154,9.985-12.469,16.951-13.158    L118,28.927c7.47-0.748,32.776-8.757,44.772-18.595c9.339-7.322,12.532-6.908,21.221-4.493l1.067,0.295    c10.496,2.896,38.374,10.589,51.932,24.623c0.088,0.092,0.124,0.223,0.092,0.346c-0.03,0.123-0.123,0.223-0.244,0.262    c-3.871,1.254-8.349,1.551-13.535,1.896c-18.216,1.212-48.701,3.239-106.699,51.398c-0.562,1.002-7.748,13.574-22.159,26.575    c-14.97,13.505-21.791,21.31-30.589,32.716c-8.764,11.36-13.59,15.891-13.639,15.935C50.15,159.95,50.06,159.985,49.968,159.985z     M38.178,154.899l11.701,4.29c0.906-0.88,5.567-5.543,13.394-15.69c8.827-11.442,15.668-19.271,30.681-32.813    c14.846-13.394,21.968-26.313,22.037-26.442c0.023-0.041,0.052-0.077,0.088-0.107c58.218-48.354,88.866-50.393,107.177-51.611    c4.88-0.325,9.126-0.607,12.782-1.685c-13.59-13.622-41.829-21.415-51.175-23.993l-1.07-0.296    c-8.593-2.389-11.479-2.762-20.56,4.358c-12.3,10.086-37.406,17.977-45.162,18.753l-0.534,0.053    c-6.905,0.683-9.764,0.966-16.381,12.783c-6.692,11.954-19.842,23.293-28.187,26.943c-7.779,3.404-9.465,6.765-15.025,29.973    C52.67,121.431,39.758,151.283,38.178,154.899z"/>
	</g>
	<path style="fill:#FF8977;" d="M109.822,32.836c3.526-0.428,7.095-0.309,10.628-0.776c3.629-0.48,7.203-1.296,10.709-2.343   c6.947-2.074,13.394-4.982,19.729-8.479c6.325-3.492,12.563-7.255,19.31-9.897c3.015-1.181,6.168-2.16,9.379-2.626   c3.823-0.556,7.657-0.056,11.392,0.823c4.065,0.957,7.963,2.466,11.991,3.544c2.348,0.628,4.719,1.177,7.098,1.686   c-10.97-4.478-21.503-7.277-26.165-8.572c-8.846-2.457-11.795-2.703-20.888,4.423c-12.287,10.075-37.597,17.939-44.969,18.676   c-4.769,0.477-7.689,0.666-11.018,4.051C107.952,33.131,108.888,32.95,109.822,32.836z"/>
	<path style="fill:#B7021D;" d="M214.4,16.622c-1.262,0.114-2.524,0.224-3.785,0.357c-4.567,0.481-9.122,1.139-13.628,2.027   c-15.769,3.107-30.906,9.132-44.393,17.889c-15.408,10.004-28.972,23.418-38.874,38.9c-0.429,0.671-1.053-0.356-1.093-0.797   c-0.587-6.466,0.35-12.816,2.221-19.008c1.519-5.028,3.475-9.906,5.207-14.861c-5.459,5.371-8.99,12.24-11.702,19.392   c-2.727,7.192-4.761,14.64-7.798,21.716c-1.497,3.487-3.22,6.94-5.447,10.024c-2.52,3.489-5.571,6.534-8.711,9.46   c-3.106,2.895-6.299,5.709-9.15,8.864c-2.736,3.028-4.888,6.324-6.789,9.921c-3.323,6.288-6.556,13.682-13.225,17.086   c-0.389,0.198-0.777-0.43-0.895-0.695c-0.485-1.083-0.813-2.218-0.992-3.391c-0.801-5.264,1.371-10.608,3.351-15.37   c1.035-2.488,2.141-4.951,3.057-7.487c0.955-2.643,1.578-5.397,2.1-8.154c1.121-5.921,1.728-12.04,4.282-17.573   c1.358-2.943,3.276-5.561,5.288-8.087c2.027-2.545,4.228-4.945,6.491-7.28c4.56-4.705,9.392-9.156,13.693-14.107   c3.681-4.236,6.852-8.869,9.65-13.729c1.794-3.115,3.431-6.31,5.014-9.534c-2.194,1.766-4.444,4.784-7.439,10.132   c-6.881,12.287-20.15,23.345-28.014,26.785c-7.863,3.44-9.584,6.635-15.236,30.225S37.681,155.11,37.681,155.11l12.287,4.505   c0,0,4.751-4.423,13.597-15.891c8.846-11.468,15.563-19.167,30.635-32.765c15.072-13.597,22.116-26.539,22.116-26.539   c74.458-61.844,102.963-47.755,120.411-53.407C231.073,25.162,222.818,20.393,214.4,16.622z"/>
	<g>
		<path style="fill:#F9FDF9;" d="M42.745,152.881c-0.117,0.489-4.133-9.538-5.882-4.133c-2.702-5.087-3.815-1.749-3.815,0    c-5.564-2.544-14.307-1.113-6.518,2.226c-9.856,0.477-9.538,4.292-8.902,5.405c-4.451,1.113-6.518,4.928-5.882,8.107    c-4.769,1.272-9.379,10.492-3.179,24.004c6.2,13.512,24.481,22.573,35.767,13.83c11.128,0.636,25.593-18.758,16.055-36.085    c3.497,0.318,3.179-5.723-2.067-7.153c3.974-0.159,0.954-3.656-6.359-2.384c2.066-3.179-2.226-1.749-3.974-0.318    C50.057,151.45,45.288,142.23,42.745,152.881z"/>
		<path style="fill:#BCBEC0;" d="M33.849,206.133c-1.728,0-3.514-0.221-5.334-0.668c-8.602-2.112-16.563-8.715-20.284-16.822    c-3.4-7.412-3.963-14.607-1.547-19.741c1.116-2.369,2.794-4.054,4.645-4.677c-0.439-3.115,1.552-6.833,5.793-8.092    c-0.192-0.598-0.214-1.422,0.235-2.239c0.674-1.228,2.576-2.727,7.737-3.193c-1.283-0.683-1.946-1.326-2.015-1.951    c-0.03-0.266,0.033-0.655,0.499-0.992c1.36-0.985,5.714-0.943,9.129,0.441c0.108-1.03,0.518-2.27,1.401-2.49    c0.823-0.2,1.707,0.512,2.698,2.182c0.346-0.699,0.781-1.065,1.316-1.112c1.524-0.157,3.041,2.502,4.362,4.981    c0.038,0.071,0.075,0.142,0.113,0.212c0.722-2.614,1.653-4.073,2.77-4.341c0.469-0.11,1.183-0.062,1.928,0.814    c1.221,1.437,1.94,4.519,1.37,7.027c1.334-0.784,3.203-1.444,3.934-0.789c0.447,0.4,0.299,1.027,0.066,1.531    c3.865-0.523,6.691,0.261,7.543,1.376c0.348,0.455,0.252,0.836,0.164,1.022c-0.092,0.197-0.287,0.419-0.683,0.586    c2.469,1.198,3.653,3.57,3.322,5.398c-0.206,1.143-0.954,1.868-2.01,1.998c4.252,8.175,3.735,17.865-1.42,26.047    c-3.999,6.346-9.918,10.265-15.13,10.054C41.468,204.966,37.818,206.133,33.849,206.133z M26.84,147.822    c-1.31,0-2.361,0.196-2.829,0.535c-0.215,0.156-0.203,0.269-0.198,0.312c0.02,0.182,0.286,0.861,2.862,1.964    c0.157,0.068,0.248,0.236,0.218,0.406c-0.03,0.169-0.175,0.295-0.346,0.303c-5.899,0.286-7.902,1.739-8.543,2.908    c-0.421,0.769-0.294,1.528-0.056,1.945c0.058,0.1,0.065,0.222,0.019,0.328c-0.045,0.106-0.137,0.185-0.25,0.214    c-4.258,1.064-6.195,4.738-5.609,7.676c0.038,0.191-0.079,0.379-0.267,0.429c-1.765,0.471-3.402,2.065-4.49,4.375    c-1.098,2.335-3.149,8.872,1.552,19.117c3.574,7.788,11.526,14.384,19.787,16.412c4.121,1.011,10.146,1.365,15.417-2.721    c0.071-0.054,0.162-0.08,0.248-0.076c4.94,0.284,10.706-3.524,14.599-9.703c5.125-8.132,5.539-17.789,1.111-25.835    c-0.066-0.12-0.061-0.266,0.014-0.38c0.074-0.115,0.208-0.171,0.342-0.166c1.03,0.095,1.686-0.42,1.862-1.402    c0.273-1.507-0.83-4.147-4.059-5.028c-0.176-0.048-0.292-0.217-0.27-0.398c0.02-0.181,0.17-0.32,0.352-0.328    c0.966-0.038,1.332-0.278,1.396-0.413c0.036-0.076-0.026-0.183-0.084-0.259c-0.504-0.662-3.016-1.772-7.592-0.979    c-0.147,0.025-0.292-0.037-0.372-0.16c-0.081-0.123-0.081-0.281-0.001-0.405c0.541-0.832,0.531-1.189,0.452-1.261    c-0.393-0.349-2.581,0.367-3.882,1.43c-0.131,0.107-0.32,0.111-0.455,0.01c-0.136-0.101-0.186-0.282-0.12-0.439    c0.986-2.349,0.315-5.859-0.918-7.311c-0.277-0.325-0.709-0.691-1.192-0.574c-0.426,0.102-1.513,0.755-2.435,4.616l0,0    c-0.036,0.149-0.173,0.279-0.326,0.298c-0.303,0.04-0.382-0.094-0.947-1.157c-0.684-1.285-2.543-4.7-3.644-4.592    c-0.458,0.04-0.782,0.754-0.973,1.347c-0.046,0.141-0.172,0.241-0.32,0.254c-0.147,0.007-0.289-0.065-0.358-0.195    c-1.332-2.507-2.063-2.542-2.249-2.494c-0.498,0.124-0.87,1.327-0.87,2.321c0,0.126-0.063,0.243-0.17,0.311    c-0.105,0.069-0.237,0.079-0.352,0.025C30.954,148.196,28.65,147.822,26.84,147.822z M42.745,152.88h0.009H42.745z"/>
	</g>
	<path style="fill:#EAE8E4;" d="M58.696,176.057c-1.383-0.499-2.517-1.424-3.474-2.526c0.739,3.584,0.342,7.229-1.784,10.491   c-0.093,0.142-0.3,0.128-0.432,0.082c-3.658-1.274-6.053-4.495-7.224-8.077c-0.627,2.206-1.538,4.427-3.156,5.995   c-1.068,1.034-2.513,1.635-3.967,1.1c-1.427-0.526-2.404-1.894-2.972-3.247c-0.92-2.192-0.983-4.542-0.488-6.806   c-1.893,1.527-4.09,2.695-6.409,3.42c-3.678,1.15-7.875,0.899-10.254-2.508c-1.662-2.38-0.635-4.983,1.481-6.614   c2.689-2.072,6.163-3.16,9.386-4.073c1.629-0.462,3.287-0.882,4.959-1.23c-0.63-0.292-1.248-0.617-1.844-0.997   c-0.931-0.595-1.831-1.25-2.7-1.932c-0.457-0.359-0.384-0.658-0.385-1.209c0-0.334,0.304-0.744,0.599-0.884   c2.943-1.398,6.081-1.395,9.014-0.449c-1.479-1.817-2.605-3.896-3.201-6.212c-0.324-1.257-0.469-2.532-0.484-3.805   c-1.618-1.555-2.314,0.795-2.314,2.174c-5.564-2.543-14.307-1.113-6.517,2.226c-9.856,0.477-9.538,4.292-8.902,5.405   c-4.451,1.113-6.518,4.928-5.882,8.107c-4.769,1.272-9.379,10.492-3.179,24.004c6.2,13.512,24.481,22.573,35.767,13.83   c9.131,0.522,20.499-12.444,19.018-26.686C61.917,176.378,60.266,176.623,58.696,176.057z"/>
	<path style="fill:#EAE8E4;" d="M59.503,189.962c-1.691,0.773-3.451,1.45-5.284,1.79c-3.228,0.599-6.215-0.199-8.503-2.364   c-0.201,2.451-0.993,5.489-3.409,6.333c-2.103,0.735-3.815-0.847-4.996-2.644c-0.031,2.02-0.463,4.101-1.97,5.435   c-3.146,2.785-7.955,0.251-10.385-2.26c-2.581-2.666-3.746-6.223-3.125-9.623c-1.069,0.761-2.269,1.325-3.586,1.573   c-3.606,0.68-7.315-1.217-8.638-4.684c-1.598-4.19,0.71-8.184,3.716-11.045c-1.58-0.584-3.066-1.501-3.721-3.113   c-0.497-1.223-0.452-2.459-0.09-3.644c-3.731,3.13-6.15,11.428-0.945,22.772c6.2,13.512,24.481,22.573,35.767,13.83   c6.013,0.344,12.974-5.178,16.619-13.045C60.473,189.511,59.989,189.74,59.503,189.962z"/>
	<path style="fill:#EAE8E4;" d="M11.841,161.814c0.604-0.691,1.248-1.317,1.858-1.851c2.182-1.913,4.972-3.726,7.911-4.566   c-1.192-0.601-2.248-1.402-2.985-2.396c-1.612,1.263-1.356,2.75-0.997,3.377C14.391,157.187,12.433,159.429,11.841,161.814z"/>
	<g>
		<path style="fill:#C1846D;" d="M133.784,140.553c0.775-1.786,1.651-3.538,2.135-5.426c0.492-1.923,0.692-3.93,0.587-5.976    c-0.106-2.049-0.54-4.129-1.037-6.201c-0.256-1.068-0.612-2.118-1.117-3.17c-0.414-0.862-1.118-1.666-1.337-2.555    c-0.061-0.248,0.259-0.423,0.566-0.339c1.587,0.434,2.854,1.238,3.858,2.226c-0.012-0.027-0.024-0.053-0.035-0.08    c-0.042-0.128-0.068-0.255-0.113-0.383c-1.342-3.768-4.354-7.63-8.927-9.902c-1.951-0.969-4.102-1.63-6.242-1.73    c-1.97-0.092-3.812,0.272-5.413,0.906c-1.683,0.665-3.129,1.591-4.408,2.629c-1.335,1.084-2.56,2.282-3.519,3.602    c-2.362,3.249-3.258,7.274-2.772,11.343c0.502,4.204,2.619,8.448,5.97,12.234c1.557,1.759,3.336,3.432,5.321,4.941    c1.904,1.447,4.067,2.825,6.453,3.665c2.266,0.798,4.689,1.027,6.603,0.227c0.718-0.301,1.361-0.699,1.943-1.154    C132.505,143.712,133.105,142.115,133.784,140.553z"/>
		<path style="fill:#FDDBC1;" d="M127.501,146.486c-2.313,0.06-4.746-1.027-6.726-2.187c-2.04-1.195-3.872-2.63-5.524-4.14    c-3.742-3.419-6.5-7.412-7.729-11.513c-1.172-3.91-0.974-7.893,0.497-11.339c1.268-2.969,3.619-5.554,6.611-7.507    c2.631-1.716,6.14-2.9,10.143-1.896c4.853,1.217,8.623,4.772,10.581,8.287c0.006,0.011,0.011,0.022,0.017,0.034    c-0.086,0.032-0.13,0.091-0.076,0.192c0.632,1.19,1.15,2.393,1.582,3.6c0.096,0.382,0.174,0.764,0.24,1.145    c0.145,0.373,0.27,0.747,0.379,1.122c0.516,1.428,0.81,2.871,0.794,4.27c0.341,4.325-0.476,8.543-2.258,12.32    c-0.884,1.875-2.057,3.62-3.608,5.15C131.217,145.214,129.737,146.429,127.501,146.486z"/>
		<path style="fill:#FDDBC1;" d="M109.207,117.778c1.472-2.568,3.743-4.92,7.056-6.157c3.845-1.436,8.752-1.666,13.248,0.315    c2.133,0.94,3.952,2.238,5.518,3.704c-2.033-3.329-5.656-6.581-10.255-7.735c-4.003-1.004-7.511,0.179-10.143,1.896    c-2.993,1.952-5.344,4.538-6.611,7.507c-1.068,2.503-1.456,5.29-1.144,8.125C107.111,122.731,107.864,120.12,109.207,117.778z"/>
		<path style="fill:#FDDBC1;" d="M136.032,138.874c1.782-3.776,2.599-7.995,2.258-12.32c0.016-1.399-0.278-2.843-0.794-4.27    c-0.11-0.375-0.234-0.749-0.379-1.122c-0.066-0.381-0.144-0.762-0.24-1.145c-0.432-1.207-0.95-2.409-1.582-3.6    c-0.054-0.101-0.01-0.161,0.076-0.192c-0.006-0.011-0.011-0.022-0.017-0.034c-0.4-0.719-0.88-1.438-1.426-2.14    c0.292,0.946,0.482,1.893,0.576,2.807c0.238,2.309-0.024,4.828-1.777,6.497c-0.348,0.331-1.015-0.098-1.003-0.474    c0.087-2.681-1.363-5.63-4.436-7.594c-2.307-1.475-5.244-2.067-7.694-1.489c-3.222,0.761-5,3.251-5.853,5.661    c-0.91,2.569-0.939,5.58,0.575,8.4c1.565,2.915,4.759,4.962,8.576,5.807c0.179,0.04,0.401,0.186,0.449,0.331    c0.732,2.197,0.17,4.997-2.47,5.81c-1.78,0.548-3.863,0.443-5.84-0.374c-0.37-0.153-0.724-0.331-1.07-0.521    c0.417,0.423,0.846,0.839,1.291,1.246c1.652,1.509,3.484,2.945,5.524,4.14c1.98,1.16,4.413,2.246,6.726,2.187    c2.236-0.058,3.716-1.273,4.922-2.463C133.975,142.493,135.148,140.748,136.032,138.874z"/>
		<path style="fill:#C1846D;" d="M125.053,137.055c0.468-0.332,0.853-0.708,1.016-1.176c0.009-0.191,0.007-0.385-0.014-0.582    c-0.057-0.539-0.229-1.069-0.443-1.596c0.021-0.006,0.042-0.013,0.063-0.018c-0.088-0.196-0.18-0.391-0.274-0.587    c-0.019-0.004-0.038-0.01-0.057-0.012c-0.363-0.791-0.773-1.579-1.01-2.384c-0.251-0.852-0.332-1.766,0.652-2.163    c0.889-0.359,1.955-0.51,2.895-0.804c1.809-0.566,3.151-1.59,3.775-3.038c1.106-2.572-0.074-5.601-2.67-8.012    c-2.386-2.214-5.888-4.02-9.237-3.422c-1.78,0.318-3.352,1.09-4.56,2.044c-1.145,0.904-2.074,2.034-2.189,3.421    c-0.014,0.172,0.433,0.268,0.47,0.103c0.247-1.132,1.135-2.096,2.106-2.858c1.074-0.843,2.372-1.537,3.875-1.935    c1.367-0.362,2.8-0.401,4.334,0.149c1.633,0.585,3.076,1.578,4.258,2.655c2.502,2.279,3.634,5.271,2.451,7.677    c-0.686,1.396-2.043,2.256-3.851,2.757c-0.894,0.248-1.907,0.398-2.696,0.784c-0.703,0.344-0.948,0.923-0.897,1.614    c0.087,1.182,0.745,2.326,1.316,3.478c-0.862,0.018-1.761-0.188-2.642-0.467c-1.126-0.357-2.274-0.804-3.303-1.355    c-2.3-1.231-4.391-3.282-4.387-5.321c0-0.094-0.248-0.149-0.256-0.056c-0.183,2.201,1.723,4.391,4.236,5.795    c1.171,0.654,2.516,1.173,3.817,1.562c0.855,0.255,1.916,0.518,2.851,0.515c0.117,0.264,0.226,0.528,0.312,0.794    c0.235,0.727,0.298,1.44,0.152,2.124C125.122,136.85,125.085,136.952,125.053,137.055z"/>
	</g>
	<g>
		<path style="fill:#F9FDF9;" d="M129.627,93.274c-0.276,0.409-4.656,8.217-17.804,6.3c2.739,8.08,10.956,9.997,16.297,7.258    c0,0-1.507,1.78-3.972,2.465c5.752,4.52,11.915,5.204,15.065,1.37c-3.424,5.478-6.985,8.491-10.819,9.45    c4.52,1.506,7.806,0.137,7.806,0.137s-5.478,9.587-13.284,11.367c1.784,0.533,6.667-0.933,6.848-0.959    c0,0-15.168,4.789-21.557,21.499s-1.229,24.574,2.212,30.717c-1.229-5.161,1.72-10.321,1.72-10.321s-3.057,16.205,8.984,27.017    c0.492-3.686,2.811-5.147,2.811-5.147s-10.321,27.768,10.567,40.055c-0.737-2.949,1.72-6.143,1.72-6.143    s-1.72,16.219,22.116,20.642c0,0,14.253,13.761,26.294,11.058c0,0,10.812,13.27,31.208,8.355    c11.795,10.812,49.639,17.693,67.332,2.949c17.693-1.72,21.87-13.516,21.87-13.516s17.202-1.474,21.379-20.642    c0,0,6.881-2.949,5.898-15.236c13.516-5.16,13.27-48.656-10.321-70.035c9.092,1.474,19.167,14.007,19.167,14.007    s3.44-14.99-15.727-25.557c0,0,11.76-14.98,3.44-30.471c-7.126-13.27-17.693-5.898-17.693-5.898s11.938-3.853,12.533,9.829    c0.246,5.652-14.99,9.584-21.87,3.195c10.075,2.949,13.761-6.635,13.761-6.635s-10.567,7.126-27.031-0.246    c12.287-3.932,8.846-15.727,8.355-17.447c-2.212,12.532-13.036,10.633-15.365,9.917c4.656,0.179,3.045-9.134,3.045-9.134    s-3.761,5.731-8.418,5.552c6.806-4.657,5.91-15.044,5.91-15.044s-10.524,16.373-22.056,1.382    c7.15,4.382,11.532,1.614,11.532,1.614s-3.69-2.306-5.305-7.38c3.46,2.537,4.152,1.384,4.152,1.384s-11.301-6.688-11.532-16.606    c-0.461-8.995-20.527-25.14-47.05-21.68C185.322,46.158,153.732,57.592,129.627,93.274z"/>
		<path style="fill:#BCBEC0;" d="M254.42,280.16c-2.328,0.001-4.718-0.111-7.16-0.339c-13.086-1.224-25.425-5.542-31.524-11.022    c-18.982,4.487-29.85-6.796-31.24-8.352c-11.696,2.439-25.053-9.905-26.334-11.123c-12.378-2.323-17.786-7.882-20.144-12.143    c-1.719-3.107-2.115-5.947-2.182-7.542c-0.631,1.139-1.411,3.012-0.976,4.755c0.036,0.144-0.017,0.297-0.137,0.385    c-0.12,0.09-0.281,0.098-0.408,0.022c-18.226-10.721-12.907-33.308-11.173-39.118c-0.641,0.774-1.4,2.052-1.651,3.941    c-0.019,0.136-0.11,0.25-0.238,0.297c-0.128,0.048-0.273,0.02-0.375-0.072c-9.304-8.354-9.686-20.01-9.361-24.972    c-0.709,1.941-1.445,4.945-0.737,7.915c0.043,0.18-0.053,0.363-0.225,0.43c-0.17,0.066-0.367-0.003-0.456-0.164l-0.453-0.804    c-3.359-5.94-7.957-14.074-1.781-30.225c4.448-11.634,13.213-17.581,18.165-20.131c-1.487,0.251-2.55,0.276-3.217,0.077    c-0.162-0.048-0.27-0.199-0.264-0.367c0.006-0.167,0.124-0.31,0.287-0.348c6.225-1.42,11.009-8.03,12.533-10.368    c-1.328,0.315-3.904,0.637-7.089-0.425c-0.156-0.052-0.258-0.201-0.253-0.365c0.007-0.164,0.12-0.304,0.28-0.344    c3.273-0.818,6.286-3.165,9.162-7.149c-3.474,1.936-8.58,0.88-13.547-3.021c-0.11-0.087-0.162-0.227-0.134-0.363    c0.027-0.137,0.13-0.247,0.264-0.284c0.834-0.232,1.554-0.597,2.137-0.971c-2.452,0.665-5.174,0.509-7.622-0.481    c-3.327-1.348-5.845-4.117-7.092-7.797c-0.042-0.121-0.017-0.256,0.065-0.355c0.081-0.099,0.211-0.145,0.338-0.129    c11.542,1.684,16.23-4.212,17.393-6.06c0.001-0.003,0.048-0.074,0.052-0.082l0,0l0,0c19.929-29.5,46.907-46.096,82.477-50.735    c21.828-2.846,36.059,7.375,39.898,10.576c4.634,3.864,7.392,8.037,7.569,11.452c0.224,9.604,11.239,16.241,11.35,16.306    c0.085,0.05,0.146,0.132,0.17,0.228c0.025,0.095,0.01,0.196-0.042,0.281c-0.03,0.052-0.209,0.315-0.671,0.408    c-0.727,0.149-1.754-0.198-3.06-1.028c1.687,4.142,4.731,6.092,4.764,6.113c0.107,0.068,0.173,0.185,0.173,0.313    c0,0.127-0.065,0.245-0.172,0.313c-0.172,0.109-3.96,2.41-10.2-0.66c2.901,3.237,5.927,4.814,9.109,4.678    c6.362-0.267,11.06-7.455,11.108-7.527c0.085-0.132,0.24-0.196,0.4-0.159c0.153,0.038,0.265,0.17,0.278,0.327    c0.036,0.411,0.755,9.64-5.073,14.618c3.844-0.708,6.87-5.246,6.903-5.297c0.084-0.127,0.237-0.188,0.384-0.159    c0.149,0.031,0.263,0.149,0.289,0.299c0.043,0.252,1.043,6.195-1.042,8.578c-0.215,0.245-0.455,0.446-0.717,0.601    c1.915,0.302,5.293,0.46,8.234-1.339c2.674-1.635,4.396-4.538,5.118-8.626c0.03-0.17,0.173-0.296,0.345-0.304    c0.165-0.027,0.328,0.103,0.374,0.267c3.324,11.612-3.651,16.038-7.7,17.586c15.606,6.589,25.715-0.028,25.815-0.097    c0.134-0.091,0.313-0.082,0.436,0.017c0.127,0.101,0.173,0.271,0.116,0.422c-0.036,0.093-3.513,8.822-12.568,7.242    c4.451,2.953,11.347,2.71,15.983,0.567c2.601-1.202,4.053-2.838,3.981-4.486c-0.179-4.119-1.419-7.008-3.686-8.586    c-3.491-2.431-8.316-0.923-8.365-0.908c-0.167,0.058-0.362-0.023-0.443-0.188c-0.082-0.164-0.03-0.362,0.12-0.467    c0.178-0.123,4.398-3.017,9.403-1.823c3.51,0.839,6.48,3.479,8.827,7.849c7.638,14.222-1.536,28.171-3.22,30.527    c18.782,10.569,15.576,25.606,15.541,25.758c-0.032,0.138-0.14,0.245-0.279,0.277c-0.136,0.035-0.28-0.018-0.371-0.128    c-0.094-0.118-9.143-11.272-17.641-13.591c15.517,14.88,20.718,39.698,17.677,55.881c-1.358,7.221-4.265,12.087-8.205,13.747    c0.805,11.239-4.855,14.686-5.964,15.249c-3.986,17.846-19.373,20.457-21.44,20.728c-0.694,1.633-5.685,11.901-21.983,13.531    C276.671,277.193,266.383,280.16,254.42,280.16z M215.839,268.025c0.091,0,0.18,0.035,0.25,0.097    c11.033,10.116,48.942,17.859,66.846,2.937c0.058-0.048,0.127-0.077,0.201-0.084c17.259-1.679,21.517-13.156,21.558-13.271    c0.048-0.136,0.172-0.232,0.316-0.245c0.169-0.014,16.98-1.686,21.05-20.352c0.025-0.116,0.105-0.213,0.215-0.26    c0.066-0.029,6.622-3.02,5.675-14.867c-0.013-0.164,0.082-0.316,0.237-0.375c3.82-1.459,6.661-6.182,7.997-13.297    c3.069-16.326-2.35-41.541-18.435-56.119c-0.121-0.11-0.156-0.286-0.085-0.434c0.071-0.146,0.222-0.233,0.393-0.204    c8.043,1.304,16.65,10.89,18.865,13.501c0.357-3.196,0.533-15.435-15.663-24.363c-0.094-0.052-0.162-0.144-0.183-0.25    c-0.022-0.106,0.004-0.216,0.072-0.302c0.115-0.148,11.509-14.975,3.403-30.069c-2.24-4.173-5.046-6.689-8.339-7.478    c-2.543-0.609-4.917-0.059-6.56,0.576c1.829-0.157,4.314,0.009,6.428,1.479c2.468,1.717,3.816,4.8,4.007,9.164    c0.085,1.963-1.523,3.854-4.409,5.188c-5.334,2.466-13.555,2.499-18.083-1.707c-0.126-0.116-0.155-0.304-0.071-0.453    c0.087-0.149,0.261-0.219,0.426-0.172c7.756,2.27,11.559-3.036,12.824-5.381c-1.192,0.611-3.382,1.547-6.44,2.106    c-4.341,0.795-11.314,0.935-19.909-2.913c-0.139-0.062-0.227-0.205-0.218-0.357c0.009-0.153,0.111-0.285,0.257-0.332    c9.539-3.053,9.43-10.961,8.492-15.46c-0.901,3.488-2.618,6.026-5.121,7.556c-3.663,2.244-8.248,1.734-10.376,1.078    c-0.177-0.054-0.287-0.232-0.255-0.415c0.032-0.182,0.166-0.314,0.378-0.307c0.763,0.02,1.336-0.211,1.795-0.735    c1.409-1.611,1.185-5.342,0.992-7.065c-1.233,1.595-4.37,5.069-8.189,4.957c-0.159-0.007-0.296-0.114-0.341-0.267    c-0.045-0.153,0.014-0.317,0.146-0.408c5.281-3.613,5.79-10.888,5.786-13.63c-1.534,2.029-5.653,6.729-11.051,6.957    c-3.842,0.143-7.544-2.01-10.965-6.459c-0.108-0.141-0.101-0.34,0.019-0.472c0.118-0.133,0.313-0.162,0.468-0.069    c5.483,3.361,9.283,2.405,10.615,1.868c-1.103-0.851-3.647-3.162-4.935-7.207c-0.049-0.152,0.007-0.318,0.137-0.412    c0.128-0.093,0.305-0.091,0.433,0.002c1.595,1.169,2.53,1.501,3.052,1.56c-2.508-1.658-10.817-7.797-11.02-16.476    c-0.162-3.152-2.892-7.235-7.303-10.911c-3.781-3.152-17.807-13.218-39.33-10.41c-35.346,4.61-62.157,21.102-81.96,50.416l0,0    l-0.306-0.207l0.267,0.268c-1.201,1.909-5.984,7.935-17.516,6.48c1.235,3.19,3.513,5.586,6.465,6.783    c2.983,1.207,6.386,1.095,9.109-0.302c0.154-0.079,0.349-0.039,0.457,0.1c0.11,0.138,0.107,0.333-0.007,0.468    c-0.058,0.069-1.334,1.556-3.471,2.359c5.538,4.1,11.109,4.523,13.997,1.002c0.126-0.151,0.343-0.179,0.501-0.066    c0.159,0.114,0.202,0.331,0.098,0.496c-3.068,4.909-6.296,7.946-9.832,9.241c3.708,0.874,6.334-0.177,6.363-0.19    c0.146-0.062,0.313-0.022,0.419,0.097c0.104,0.118,0.123,0.29,0.043,0.427c-0.205,0.359-4.663,8.049-11.343,10.84    c0.981-0.126,2.332-0.395,4.193-0.895c0.195-0.052,0.316-0.082,0.344-0.086c0.188-0.027,0.368,0.097,0.411,0.284    c0.042,0.187-0.066,0.376-0.25,0.434c-0.15,0.048-15.075,4.938-21.323,21.279c-5.753,15.046-2.135,22.69,1.217,28.68    c-0.267-4.481,1.941-8.411,2.049-8.599c0.087-0.156,0.274-0.227,0.447-0.163c0.17,0.062,0.27,0.237,0.237,0.415    c-0.03,0.157-2.791,15.675,8.37,26.216c0.678-3.314,2.771-4.667,2.866-4.726c0.131-0.085,0.309-0.074,0.429,0.026    c0.124,0.1,0.169,0.267,0.114,0.415c-0.101,0.272-9.746,27.008,9.729,39.196c-0.225-2.815,1.823-5.514,1.918-5.638    c0.101-0.132,0.274-0.182,0.43-0.118c0.153,0.061,0.247,0.217,0.231,0.381c-0.017,0.159-1.384,15.935,21.815,20.24    c0.071,0.013,0.137,0.047,0.189,0.097c0.14,0.136,14.261,13.592,25.956,10.963c0.137-0.029,0.279,0.019,0.367,0.127    c0.108,0.133,10.913,13.039,30.836,8.23C215.781,268.028,215.81,268.025,215.839,268.025z M129.627,93.274h0.009H129.627z"/>
	</g>
	<path style="fill:#EAE8E4;" d="M145.375,109.664c-0.654-0.716-0.184-1.817-0.859-1.826c-1.44-0.019-2.861-0.24-4.285-0.424   c3.619-2.678,7.633-4.788,11.108-7.668c0.497-0.412-0.324-2.121-0.868-1.738c-2.581,1.814-5.517,2.561-8.53,2.694   c0.942-0.366,1.815-0.848,2.533-1.531c1.757-1.673,2.033-4.156,2.035-6.461c0.002-3.559-0.35-7.078,0.15-10.624   c0.591-4.19,1.858-8.154,3.648-11.929c19.846-17.272,41.851-24.036,61.171-26.556c26.523-3.46,46.589,12.685,47.05,21.68   c0.048,2.067,0.594,3.983,1.401,5.739c-0.412-0.34-0.825-0.677-1.235-1.018c-0.382-0.318-1.104,0.335-1.094,0.739   c0.076,3.075,1.866,6.235,4.159,8.518c-0.391,0.131-0.729,0.371-0.948,0.789c-0.505,0.963-0.169,2.227,0.226,3.166   c0.841,2.003,2.463,4.126,4.409,5.355c-1.629-0.284-3.564-0.951-5.764-2.3c2.892,3.76,5.721,5.545,8.336,6.113   c-0.875,0.731-1.494,1.697-1.102,2.941c0.404,1.283,1.882,1.624,3.063,1.743c3.913,0.396,7.468-1.101,10.518-3.434   c-0.864,2.341-2.289,4.671-4.669,6.3c4.656,0.179,8.418-5.552,8.418-5.552s1.612,9.313-3.045,9.134   c0.762,0.234,2.434,0.592,4.415,0.533c-0.328,0.254-0.734,0.945-0.329,1.256c2.036,1.567,4.59,2.698,7.181,1.951   c1.373-0.396,2.545-1.227,3.549-2.239c-1.276,2.448-3.632,4.692-7.807,6.028c1.6,0.716,3.142,1.292,4.627,1.755   c-0.522,0.352-1.007,0.762-1.405,1.309c-0.117,0.16-0.377,0.717-0.085,0.857c1.979,0.952,4.188,1.344,6.421,1.52   c-1.451,0.628-2.802,1.429-3.856,2.562c-0.36,0.386-0.191,1.033,0.038,1.437c0.785,1.387,2.286,2.197,3.727,2.743   c1.887,0.715,3.897,1.096,5.895,1.335c3.528,0.423,7.594,0.675,11.041-0.389c5.15-1.589,9.659-5.982,11.963-10.79   c0.583-1.216,0.956-2.523,1.195-3.865c0.251,0.406,0.498,0.83,0.741,1.282c8.319,15.491-3.44,30.471-3.44,30.471   c3.365,1.855,6.021,3.847,8.133,5.87c-3.869-0.305-7.722,0.199-11.448,1.328c-3.886,1.177-7.472,3.034-11.184,4.642   c-5.452,2.361-11.286,4.25-17.175,5.107c-3.261,0.475-6.748,0.689-9.965-0.168c-1.396-0.372-2.761-0.953-3.862-1.909   c-0.999-0.868-1.418-2.247-2.857-2.266c-0.165-0.002-0.292,0.201-0.31,0.339c-1.61,12.459-9.168,25.424-21.043,30.49   c-11.2,4.778-24.55,1.151-34.581-4.854c-5.516-3.302-10.916-7.949-12.951-14.253c-0.083-0.258-0.262-0.396-0.518-0.266   c-6.199,3.144-13.176,4.907-19.969,6.208c-8.098,1.551-16.371,2.291-24.616,2.174c-14.739-0.21-31.982-2.911-42.779-13.935   c-4.053-4.138-6.559-9.306-7.793-14.83c7.185-10.203,17.243-13.381,17.243-13.381c-0.18,0.026-5.064,1.492-6.848,0.959   c7.806-1.78,13.284-11.367,13.284-11.367s-3.287,1.37-7.806-0.137c3.008-0.752,5.846-2.79,8.583-6.269   c0.123,0.574,0.199,1.164,0.218,1.765c0.091,2.84-1.087,5.54-2.147,8.11c0,0-6.638,10.068,6.267,11.681   c12.906,1.613,12.445-2.535,5.301-12.445c4.379,2.535,3.687-0.23-0.461-6.453C149.014,119.715,150.724,115.516,145.375,109.664z"/>
	<path style="fill:#EAE8E4;" d="M259.996,272.763c-1.693,1.35-3.35-2.743-5.023-4.117c-2.79-2.291-5.612-4.587-8.034-7.275   c-3.278-3.639-6.158-7.654-8.389-12.02c-3.628-7.097-5.303-14.842-5.949-22.71c-4.34,11.125-5.782,22.956-6.221,34.895   c-0.014,0.393-0.595,0.33-0.832,0.254c-0.425-0.136-0.828-0.488-1.018-0.889c-3.78-7.98-7.888-15.97-10.417-24.46   c-0.358,9.475,2.58,18.734,5.449,27.733c0.341,1.07-1.665,0.325-1.946-0.204c-2.519-4.746-4.775-9.651-6.455-14.761   c-2.505-7.618-3.526-15.585-2.843-23.583c0.549-6.428,2.089-12.699,4.055-18.832c-1.146,1.417-2.324,2.811-3.488,4.216   c-2.321,2.801-4.54,5.712-6.08,9.028c-1.717,3.697-2.933,7.728-3.855,11.69c-1.934,8.306-2.297,16.858-2.657,25.346   c-0.043,1.02-1.437-0.097-1.596-0.52c-1.469-3.904-2.78-7.867-3.866-11.895c-3.044-11.29-4.111-22.895-3.639-34.514   c-0.474,1.487-0.95,2.974-1.428,4.46c-1.966,6.109-3.918,12.24-5.194,18.537c-1.335,6.589-1.831,13.301-1.492,20.015   c0.041,0.816-1.065,0.156-1.282-0.093c-3.715-4.254-6.809-9.046-8.975-14.27c-3.601-8.684-4.531-18.219-3.478-27.515   c0.934-8.239,3.314-16.256,6.541-23.884c-2.412,1.848-4.674,3.886-6.729,6.132c-10.034,10.972-14.373,25.642-16.609,40.031   c-0.139,0.897-1.199-0.085-1.394-0.435c-1.484-2.66-2.516-5.551-3.206-8.513c-1.332-5.721-1.539-11.667-1.097-17.509   c0.297-3.917,0.907-7.826,1.843-11.649c-6.397,8.34-11.604,17.774-12.92,28.329c-0.111,0.891-1.19-0.229-1.325-0.542   c-1.712-3.966-3.004-8.119-3.589-12.406c-0.901-6.598-0.03-13.221,2.145-19.492c1.938-5.587,4.771-10.819,7.798-15.894   c-6.731,2.863-13.04,7.098-16.168,13.954c-0.217,0.477-0.671,0.242-0.803-0.15c-2.931-8.718-5.674-17.694-5.537-26.972   c-0.976,1.469-1.764,2.994-2.338,4.721c-0.081,0.244-0.928,1.155-1.114,0.557c-1.375-4.422-2.014-9.002-1.908-13.631   c0.031-1.368,0.132-2.728,0.261-4.086c-0.346,0.75-0.68,1.518-0.988,2.323c-6.389,16.71-1.229,24.574,2.212,30.717   c-1.229-5.16,1.72-10.321,1.72-10.321s-3.057,16.205,8.984,27.017c0.492-3.686,2.811-5.147,2.811-5.147   s-10.321,27.768,10.567,40.055c-0.737-2.949,1.72-6.143,1.72-6.143s-1.72,16.219,22.116,20.642c0,0,14.253,13.761,26.294,11.058   c0,0,10.812,13.27,31.208,8.355c11.795,10.812,49.639,17.693,67.332,2.949c17.693-1.72,21.87-13.516,21.87-13.516   s17.201-1.474,21.379-20.642c0,0,6.881-2.949,5.898-15.236c8.012-3.059,11.186-19.589,7.53-36.997   c-0.48-0.155-0.942-0.35-1.359-0.554c-1.749-0.857-3.305-2.11-4.77-3.379c-1.639-1.42-3.186-2.94-4.739-4.452   c-0.331-0.322-0.668-0.638-1.001-0.958c2.674,9.024,5.124,18.219,4.703,27.709c-0.044,0.99-1.984,0.252-2.158-0.391   c-0.81-2.998-1.404-6.072-2.648-8.934c-1.055-2.425-2.671-4.738-5.409-4.925c0.663,3.018,1.262,6.051,1.732,9.106   c1.824,11.837,2.39,25.669-4.892,35.897c-0.414,0.581-1.891-0.099-2.065-0.629c-1.028-3.131-1.635-6.373-2.191-9.615   c-0.973-5.675-1.983-11.295-4.718-16.436c-1.548-2.909-3.431-5.611-5.328-8.305c0.458,1.524,0.863,3.064,1.21,4.605   c1.9,8.446,2.628,17.287,2.12,25.93c-0.239,4.06-0.772,8.136-1.914,12.047c-0.916,3.133-2.238,6.285-4.445,8.738   c-0.521,0.579-1.542-0.358-1.751-0.833c-3.849-8.725-4.599-18.305-7.142-27.405c-0.814,4.615-1.725,9.214-2.984,13.731   c-1.552,5.569-3.696,10.936-6.459,16.016c-0.439,0.808-1.675-0.799-1.429-1.447c4.187-11.025,1.486-22.784-1.204-33.931   c-0.092,3.24-0.234,6.478-0.536,9.707C278.993,242.019,267.047,267.139,259.996,272.763z"/>
	<path style="fill:#EAE8E4;" d="M128.12,106.833c0,0-1.507,1.78-3.972,2.465c4.434,3.484,9.106,4.678,12.46,3.291   c-0.516-1.39-1.371-2.629-2.597-3.568c-1.79-1.37-3.792-2.428-5.401-4.032c-1.419-1.415-2.346-3.119-2.851-4.988   c-1.02,0.743-2.194,1.226-3.516,1.24c-1.561,0.017-3.069-0.58-4.339-1.473c-1.783,0.166-3.792,0.141-6.082-0.193   C114.562,107.654,122.779,109.572,128.12,106.833z"/>
	<path style="fill:#EAE8E4;" d="M125.369,97.401c-1.355,0.835-3.069,1.596-5.225,2.047c0.335,0.085,0.681,0.136,1.039,0.137   C122.866,99.59,124.285,98.608,125.369,97.401z"/>
	<g>
		<g>
			<path style="fill:#FDDBC1;" d="M287.84,118.66c-0.046,4.914-6.225,7.536-21.952,0.983c-15.727-6.553-41.284-9.174-54.062-0.328     c-21.297,17.038-40.301,17.365-49.911,14.806c0,0-6.354-2.118-10.119-8.001c4.236,1.647,4.236,0,4.236,0     s-2.588-1.647-5.883-4.942c2.589,1.882,4.942,0.941,4.942,0.941s-1.412-0.706-4.706-5.883c2.353,2.118,4.471,1.647,2.824-1.176     c-5.648-5.883-1.412-8.942,4.942-13.649c6.354-4.706,0.471-4.942-2.118-10.589c-3.802-7.322,6.971-23.992,16.239-36.204     c13.441-6.881,27.071-10.288,39.575-11.919c11.236-1.466,21.304,0.593,29.223,4.13c13.454,10.633,16.729,28.265,17.284,34.48     c0.819,9.174,2.621,12.451,9.993,20.478C268.345,101.786,288.004,101.13,287.84,118.66z"/>
			<path style="fill:#C1846D;" d="M171.68,135.653c-4.621,0-8.028-0.686-9.861-1.175c-0.286-0.095-6.542-2.234-10.335-8.159     c-0.085-0.135-0.075-0.31,0.026-0.433c0.101-0.125,0.27-0.171,0.42-0.11c2.475,0.963,3.314,0.711,3.558,0.559     c0.037-0.024,0.068-0.048,0.091-0.072c-0.735-0.499-2.96-2.093-5.691-4.824c-0.137-0.136-0.144-0.355-0.02-0.502     c0.128-0.146,0.344-0.17,0.499-0.058c1.58,1.15,3.064,1.176,3.895,1.059c-0.73-0.674-2.08-2.186-4.19-5.503     c-0.1-0.156-0.068-0.362,0.074-0.481c0.137-0.118,0.348-0.116,0.485,0.007c1.313,1.182,2.367,1.371,2.663,1.129     c0.227-0.184,0.189-0.826-0.406-1.844c-1.931-1.997-2.823-3.852-2.676-5.601c0.254-3.004,3.483-5.395,7.57-8.422l0.147-0.109     c1.774-1.314,2.63-2.309,2.696-3.132c0.066-0.833-0.667-1.585-1.682-2.625c-1.042-1.069-2.341-2.399-3.249-4.382     c-3.854-7.423,6.726-23.992,16.28-36.582c0.033-0.044,0.076-0.08,0.125-0.105c11.958-6.121,24.942-10.032,39.696-11.956     c12.863-1.682,23.098,1.334,29.42,4.159c14.747,11.641,17.165,31.018,17.501,34.785c0.824,9.22,2.719,12.433,9.784,20.138     c1.388-0.02,9.82,0.102,15.253,5.404c3.001,2.931,4.5,6.916,4.454,11.846l0,0c-0.016,1.736-0.753,3.135-2.13,4.043     c-2.436,1.607-7.945,2.438-20.333-2.723c-16.283-6.786-41.45-8.853-53.71-0.365C195.558,132.802,181.096,135.652,171.68,135.653z      M152.743,126.844c3.688,5.007,9.23,6.906,9.289,6.926c5.463,1.455,25.246,4.711,49.563-14.744     c12.486-8.645,37.973-6.582,54.435,0.275c12.727,5.303,17.771,4.024,19.643,2.789c1.179-0.779,1.784-1.934,1.798-3.434l0,0     c0.043-4.719-1.378-8.523-4.229-11.307c-5.561-5.434-14.785-5.2-14.886-5.194c-0.069-0.002-0.211-0.04-0.284-0.12     c-7.293-7.941-9.24-11.205-10.089-20.694c-0.331-3.714-2.715-22.818-17.145-34.223c-6.156-2.738-16.246-5.709-28.945-4.053     c-14.638,1.909-27.519,5.782-39.379,11.843c-17.031,22.454-18.185,31.83-16.155,35.743c0.863,1.882,2.112,3.161,3.115,4.19     c1.107,1.136,1.982,2.033,1.888,3.201c-0.085,1.065-1.009,2.196-2.993,3.666l-0.147,0.11c-3.937,2.916-7.048,5.22-7.273,7.89     c-0.128,1.526,0.697,3.193,2.526,5.096c1.078,1.828,0.639,2.572,0.286,2.86c-0.456,0.374-1.196,0.334-2.035-0.061     c2.425,3.554,3.525,4.182,3.538,4.188c0.126,0.069,0.202,0.205,0.195,0.348c-0.009,0.143-0.097,0.27-0.229,0.323     c-0.075,0.03-1.375,0.535-3.119,0.071c2.383,2.158,4.1,3.262,4.121,3.275c0.107,0.068,0.172,0.186,0.172,0.312     c0,0.05-0.013,0.495-0.475,0.811C155.325,127.343,154.254,127.312,152.743,126.844z M287.84,118.659h0.009H287.84z"/>
		</g>
	</g>
	<g>
		<path style="fill:#FDD4B5;" d="M208.838,73.12c1.319-1.26,1.68-3.182,1.824-4.921c0.157-1.9-0.019-3.978-1.142-5.586    c-2.061-2.953-6.539-3.042-9.761-2.89c-2.475,0.117-4.873,0.516-7.208,1.368c-2.611,0.953-5.075,2.259-7.709,3.155    c-0.53,0.18-1.905-0.499-1.733-1.173c0.493-1.925,1.768-3.509,3.117-4.921c1.549-1.62,3.299-3.054,5.157-4.306    c1.654-1.115,3.41-2.021,5.243-2.8c1.04-0.442,2.071-0.919,2.934-1.661c0.562-0.483,1.053-1.067,1.511-1.672    c-0.04-1.383-0.889-2.214-2.081-2.7c-8.733,2.002-17.764,5.021-26.719,9.605c-9.268,12.213-20.04,28.882-16.239,36.204    c2.589,5.648,8.472,5.883,2.118,10.589c-6.354,4.706-10.59,7.766-4.942,13.649c1.647,2.824-0.471,3.295-2.824,1.176    c3.294,5.177,4.706,5.883,4.706,5.883s-2.353,0.941-4.942-0.941c3.295,3.294,5.883,4.942,5.883,4.942s0,1.647-4.236,0    c3.765,5.883,10.119,8.001,10.119,8.001c9.61,2.559,28.614,2.232,49.911-14.806c12.778-8.847,38.335-6.225,54.062,0.328    c15.727,6.553,21.952,3.932,21.952-0.983c0-1.754,0.63-3.98-0.819-5.242c-2.712,0.45-7.239,1.339-10.002,1.392    c-2.941,0.057-5.965-0.038-8.83-0.762c-2.563-0.647-5.104-1.954-5.897-4.664c-1.586-5.418,6.018-6.234,9.609-6.671    c0.932-0.113,1.852-0.245,2.771-0.374c-2.234-0.283-4.5-0.445-6.327-0.553c-7.372-8.027-9.174-11.304-9.993-20.478    c-0.555-6.215-3.83-23.847-17.284-34.48c-7.919-3.537-17.987-5.595-29.223-4.13c-1.792,0.234-3.612,0.516-5.446,0.828    c-1.108,2.037-2.284,4.031-3.764,5.825c-0.316,0.383-0.653,0.739-1.003,1.078c-0.305,1.123-0.679,2.228-0.935,3.21    c3.828-0.384,11.563-4.413,13.523-0.177c3.722-1.315,7.893-1.678,11.801-1.597c4.022,0.084,8.553,0.619,11.889,3.074    c0.256,0.188,1.205,1.23,0.606,1.554c-3.229,1.748-7.386,1.841-10.204,4.321c-2.696,2.372-3.93,6.439-2.549,9.824    c0.995,2.439,2.954,3.474,5.477,3.003c4.032-0.751,8.946-4.387,12.287-0.1c0.201,0.257,0.46,0.889-0.093,0.959    c-4.178,0.527-8.495,1.3-11.994,3.797c-1.507,1.075-2.798,2.405-3.921,3.872c-1.229,1.605-2.104,3.481-3.627,4.842    c-3.263,2.916-8.603,3.555-12.133,0.713c-1.441-1.16-2.221-2.777-2.869-4.466c-0.594-1.55-1.532-2.956-2.681-4.312    c-2.226-2.626-10.578-2.762-15.37-0.161c-3.697,1.917-1.232-4.655,7.805-4.382C207.679,74.681,208.838,73.12,208.838,73.12z     M205.758,119.438c-3.219,1.686-6.838,2.536-10.376,3.251c-2.692,0.544-5.343,1.12-8.101,1.151    c-3.16,0.036-6.687-0.272-9.485-1.873c-2.808-1.607-3.382-4.546-2.129-7.386c1.124-2.548,4.232-4.516,7.517-5.773    c3.705-1.418,7.812-2.875,11.755-2.977c1.967-0.051,3.935-0.031,5.894,0.158c1.576,0.152,3.132,0.419,4.704,0.589    c0.176,0.019,0.429,0.344,0.397,0.485c2.345,0.713,4.395,2.171,4.756,4.838C211.163,115.393,208.619,117.94,205.758,119.438z"/>
	</g>
	<g>
		<path style="fill:#FDD4B5;" d="M179.187,134.633c-4.336-2.636-7.969-6.866-10.3-11.345c-2.352-4.519-3.237-10.083-0.039-14.44    c2.409-3.281,6.077-4.574,9.937-4.905c-3.667-2.81-6.813-6.311-8.906-10.453c-4.046-8.007-3.581-17.338-0.687-25.634    c1.512-4.334,3.617-8.471,6.125-12.312c0.779-1.192,1.603-2.368,2.449-3.532c-1.833,0.811-3.667,1.667-5.497,2.604    c-9.268,12.213-20.04,28.882-16.239,36.204c2.589,5.648,8.472,5.883,2.118,10.589c-6.354,4.706-10.59,7.766-4.942,13.649    c1.647,2.824-0.471,3.295-2.824,1.176c3.294,5.177,4.706,5.883,4.706,5.883s-2.353,0.941-4.942-0.941    c3.295,3.294,5.883,4.942,5.883,4.942s0,1.647-4.236,0c3.765,5.883,10.119,8.001,10.119,8.001    c4.191,1.116,10.17,1.682,17.346,0.553C179.236,134.66,179.211,134.648,179.187,134.633z"/>
	</g>
	<g>
		<path style="fill:#FDDBC1;" d="M207.617,159.029c0,0,14.775,19.989,34.981,19.989c20.207,0,23.248-19.989,27.159-32.591    c-17.817-8.691-31.939-16.078-31.939-16.078S225.868,149.904,207.617,159.029z"/>
		<path style="fill:#C1846D;" d="M242.598,179.388c-20.16,0-35.13-19.938-35.278-20.14c-0.065-0.087-0.088-0.199-0.062-0.305    c0.026-0.106,0.097-0.195,0.195-0.245c17.943-8.971,29.931-28.348,30.051-28.542c0.101-0.166,0.315-0.223,0.486-0.135    c0.14,0.074,14.323,7.485,31.93,16.074c0.165,0.08,0.245,0.267,0.19,0.442c-0.447,1.445-0.885,2.988-1.338,4.586    C265.204,163.715,260.763,179.388,242.598,179.388z M208.182,159.157c2.09,2.651,16.097,19.492,34.415,19.492    c17.607,0,21.962-15.375,25.464-27.729c0.423-1.493,0.831-2.938,1.25-4.3c-16.07-7.843-29.228-14.675-31.363-15.787    C236.374,133.296,224.884,150.623,208.182,159.157z"/>
	</g>
	<path style="fill:#FDD4B5;" d="M226.042,170.722c1.478-1.759,3.916-0.986,5.745-0.329c4.244,1.524,9.03,1.802,13.441,0.82   c4.118-0.917,7.76-3.101,10.734-6.067c1.642-1.639,3.065-3.514,4.303-5.473c0.883-1.398,1.542-2.941,2.317-4.399   c1.184-2.226,3.244-6.544,6.372-6.135c0.268-0.932,0.534-1.841,0.804-2.711c-17.817-8.691-31.939-16.078-31.939-16.078   s-11.95,19.555-30.201,28.68c0,0,7.089,9.583,18.156,15.478C225.281,173.248,225.117,171.822,226.042,170.722z"/>
	<g>
		<path style="fill:#4C0001;" d="M242.163,169.675c15.53-0.675,21.484-17.738,23.368-25.32    c-15.768-7.759-27.714-14.007-27.714-14.007s-10.255,16.768-26.268,26.495C216.012,161.282,227.03,170.333,242.163,169.675z"/>
	</g>
	<g>
		<g>
			<path style="fill:#F9FDF9;" d="M232.224,144.219c3.023,0.758,6.059,0.28,8.986-0.656c3.021-0.967,5.844-2.539,8.307-4.531     c0.659-0.533,1.299-1.105,1.922-1.706c-8.259-4.174-13.621-6.977-13.621-6.977s-3.377,5.516-9.274,12.054     C229.602,143.243,230.84,143.872,232.224,144.219z"/>
			<path style="fill:#BCBEC0;" d="M235.345,144.967c-1.114,0-2.176-0.131-3.21-0.39l0,0c-1.401-0.351-2.687-0.985-3.82-1.885     c-0.081-0.064-0.13-0.157-0.139-0.259c-0.009-0.101,0.026-0.202,0.094-0.278c5.806-6.438,9.198-11.945,9.233-11.999     c0.101-0.166,0.315-0.223,0.486-0.135c0.053,0.028,5.454,2.85,13.616,6.975c0.107,0.054,0.182,0.157,0.199,0.274     c0.019,0.118-0.023,0.238-0.108,0.321c-0.65,0.628-1.305,1.21-1.947,1.728c-2.579,2.086-5.415,3.631-8.427,4.596     C239.122,144.618,237.165,144.967,235.345,144.967z M229.087,142.352c0.971,0.709,2.055,1.215,3.227,1.508l0,0     c2.582,0.649,5.373,0.442,8.782-0.65c2.925-0.936,5.679-2.439,8.188-4.466c0.502-0.405,1.012-0.849,1.52-1.326     c-6.828-3.453-11.637-5.951-12.855-6.585C237.178,132.041,234.022,136.834,229.087,142.352z"/>
		</g>
	</g>
	<g>
		<path style="fill:#EAE8E4;" d="M237.818,130.349c0,0-3.377,5.516-9.274,12.054c1.058,0.84,2.296,1.469,3.68,1.816    c1.118,0.28,2.238,0.39,3.353,0.371c0.291-0.994,0.696-1.954,1.188-2.904c0.408-0.787,0.885-1.524,1.369-2.265    c0.333-0.509,0.752-1.21,1.35-1.44c0.794-0.306,1.348,0.339,1.889,0.796c0.658,0.556,1.318,1.109,1.997,1.641    c0.625,0.489,1.265,0.975,1.945,1.388c1.484-0.792,2.896-1.72,4.201-2.775c0.659-0.533,1.299-1.105,1.922-1.706    C243.18,133.152,237.818,130.349,237.818,130.349z"/>
	</g>
	<g>
		<path style="fill:#B30027;" d="M234.342,153.38c-11.335-1.685-14.783,5.049-15.834,9.172c5.692,3.855,13.791,7.553,23.655,7.124    c6.117-0.266,10.743-3.079,14.225-6.849C253.835,151.512,238.627,147.462,234.342,153.38z"/>
	</g>
	<g>
		<path style="fill:#B30027;" d="M251.852,161.692c-2.704,3.008-6.445,4.653-10.466,4.84c-2.411,0.112-4.868-0.242-7.162-0.987    c-1.717-0.558-3.487-1.356-4.695-2.746c-1.758-2.025-1.631-5.08,0.974-6.282c2.58-1.19,5.529-0.401,8.008,0.937    c-0.476-1.102-0.751-2.275-0.667-3.495c0.085-1.226,0.538-2.272,1.21-3.153c-1.986,0.302-3.674,1.139-4.713,2.573    c-11.335-1.685-14.783,5.049-15.834,9.172c5.692,3.855,13.791,7.553,23.655,7.124c6.117-0.266,10.743-3.079,14.225-6.849    c-0.401-1.778-1.141-3.353-2.075-4.762C253.636,159.366,252.833,160.601,251.852,161.692z"/>
	</g>
	<g>
		<path style="fill:#F9FDF9;" d="M176.38,87.1c0,0,7.472-12.832,23.553-13.969c5.036,0,9.096-4.711,6.985-10.071    c-0.163,0.487-0.812,0.975-0.812,0.975s-0.975-1.787-2.437-2.599c0.487,1.137-1.299,1.299-1.299,1.299s-12.963-1.789-22.254,8.122    c-2.437,2.599-5.523,8.122-5.523,12.345c1.137-2.274,2.761-2.599,2.761-2.599S175.405,84.339,176.38,87.1z"/>
		<path style="fill:#BCBEC0;" d="M176.38,87.469c-0.012,0-0.023-0.001-0.035-0.002c-0.143-0.014-0.266-0.11-0.313-0.245    c-0.726-2.055,0.051-4.556,0.583-5.876c-0.501,0.331-1.149,0.936-1.692,2.021c-0.076,0.153-0.241,0.237-0.416,0.194    c-0.166-0.039-0.284-0.188-0.284-0.359c0-4.501,3.356-10.178,5.623-12.598c9.314-9.937,22.443-8.256,22.575-8.235    c0.177-0.027,0.769-0.164,0.927-0.427c0.022-0.037,0.079-0.134-0.017-0.361c-0.062-0.145-0.026-0.314,0.091-0.42    c0.118-0.107,0.289-0.125,0.427-0.049c1.121,0.623,1.957,1.755,2.344,2.353c0.165-0.164,0.32-0.359,0.375-0.523    c0.049-0.147,0.186-0.248,0.341-0.252c0.004,0,0.007,0,0.01,0c0.151,0,0.289,0.092,0.343,0.234    c0.99,2.514,0.752,5.046-0.668,7.134c-1.468,2.155-3.958,3.442-6.661,3.442c-15.664,1.108-23.161,13.659-23.234,13.786    C176.632,87.4,176.509,87.469,176.38,87.469z M177.355,80.233c0.116,0,0.225,0.053,0.296,0.148    c0.085,0.113,0.098,0.266,0.032,0.393c-0.017,0.032-1.515,2.952-1.149,5.412c1.899-2.757,9.519-12.445,23.373-13.425    c2.484-0.001,4.745-1.167,6.076-3.12c1.149-1.689,1.436-3.709,0.83-5.755c-0.222,0.242-0.445,0.411-0.485,0.443    c-0.087,0.065-0.193,0.09-0.3,0.065c-0.105-0.022-0.195-0.09-0.247-0.184c-0.007-0.015-0.684-1.238-1.718-2.063    c-0.023,0.066-0.052,0.123-0.082,0.173c-0.391,0.657-1.456,0.771-1.577,0.782c-0.212-0.022-12.974-1.642-22.017,8.006    c-1.951,2.082-4.738,6.651-5.317,10.667c1.055-1.287,2.156-1.523,2.214-1.535C177.308,80.235,177.331,80.233,177.355,80.233z"/>
	</g>
	<path style="fill:#EAE8E4;" d="M206.918,63.06c-0.162,0.487-0.812,0.975-0.812,0.975s-0.4-0.727-1.067-1.464   c0.041,0.323,0.061,0.651,0.05,0.986c-0.091,2.775-2.038,4.801-4.241,6.239c-0.333,0.217-0.496-0.241-0.496-0.481   c0.002-0.685-0.009-1.372-0.113-2.042c-0.336,1.098-0.905,2.076-1.993,2.703c-0.607,0.349-0.915-1.136-0.878-1.454   c0.035-0.307-0.01-0.61-0.078-0.913c-1.647,1.918-3.781,3.192-6.093,4.267c-2.269,1.055-4.622,1.962-6.652,3.455   c-2.417,1.777-4.234,4.188-6.47,6.163c-0.454,0.401-0.968,0.793-1.516,1.14c-0.395,1.305-0.69,3.019-0.178,4.468   c0,0,7.472-12.832,23.553-13.969C204.969,73.131,209.029,68.42,206.918,63.06z"/>
	<g>
		<path style="fill:#F9FDF9;" d="M233.557,70.694c5.22-2.03,16.243-2.924,23.228,9.584c0-12.183-9.421-23.228-20.629-20.792    c0.65,0.812,2.274,2.112,2.274,2.112s-3.086-1.949-5.523-0.487c1.787,0.487,1.787,0.487,1.787,0.487s-3.898-0.325-6.173,2.924    C226.897,67.445,230.633,71.831,233.557,70.694z"/>
		<path style="fill:#BCBEC0;" d="M256.785,80.647c-0.131,0-0.257-0.071-0.323-0.189c-6.187-11.082-16.132-12-22.771-9.42    c-1.448,0.562-3.23-0.05-4.545-1.558c-1.411-1.617-1.784-3.634-0.948-5.138c1.316-1.881,3.11-2.638,4.486-2.937    c-0.076-0.058-0.128-0.145-0.143-0.244c-0.02-0.146,0.049-0.291,0.176-0.367c1.267-0.759,2.663-0.683,3.784-0.397    c-0.244-0.237-0.468-0.473-0.634-0.68c-0.079-0.1-0.102-0.234-0.059-0.354c0.042-0.121,0.144-0.211,0.27-0.237    c4.529-0.987,9.13,0.168,12.948,3.245c5.014,4.041,8.129,10.902,8.129,17.907c0,0.168-0.114,0.315-0.277,0.357    C256.847,80.643,256.815,80.647,256.785,80.647z M240.205,69.162c4.822,0,11.248,1.794,16.166,9.687    c-0.387-6.279-3.305-12.274-7.808-15.904c-3.462-2.791-7.592-3.92-11.692-3.222c0.723,0.73,1.778,1.575,1.791,1.585    c0.153,0.123,0.183,0.343,0.071,0.502c-0.114,0.161-0.333,0.201-0.498,0.099c-0.026-0.016-2.168-1.347-4.18-0.87l0.736,0.201    c0.185,0.05,0.3,0.232,0.267,0.42c-0.035,0.188-0.206,0.313-0.394,0.305c-0.039-0.001-3.719-0.261-5.84,2.768    c-0.808,1.46-0.036,3.213,0.879,4.261c1.107,1.27,2.569,1.802,3.719,1.355l0,0C234.049,70.106,236.705,69.162,240.205,69.162z"/>
	</g>
	<path style="fill:#EAE8E4;" d="M252.593,71.64c-2.241-1.148-4.137-2.848-6.301-4.121c-1.174-0.69-2.383-1.197-3.746-1.348   c-0.434-0.048-0.868-0.038-1.302-0.072c-0.077-0.006-0.126-0.013-0.164-0.021c0.014,0.021,0.018,0.053-0.012,0.102   c-0.206,0.342-0.488,0.846-0.858,1.031c-0.529,0.265-0.907-0.249-1.294-0.555c-0.354-0.279-0.763-0.32-1.06-0.666   c-0.349-0.407-0.64-1.006-0.829-1.601c-1.389,1.021-3.007,1.849-4.767,1.741c-1.383-0.085-2.635-0.9-3.301-2.11   c-0.007-0.012-0.011-0.025-0.017-0.037c-0.145,0.168-0.285,0.345-0.42,0.537c-1.624,2.924,2.112,7.31,5.036,6.173   c5.22-2.03,16.243-2.924,23.228,9.584c0-2.682-0.479-5.297-1.311-7.736C254.479,72.471,253.495,72.102,252.593,71.64z"/>
	<g>
		<path style="fill:#E4E5E6;" d="M186.089,107.836c0,0-7.256-22.406,7.8-26.827c14.891-4.373,20.8,17.255,18.082,26.118    C211.97,107.127,199.325,103.7,186.089,107.836z"/>
		<path style="fill:#D6A174;" d="M186.089,108.206c-0.156,0-0.302-0.1-0.352-0.256c-0.167-0.521-4.08-12.851,0.257-21.061    c1.638-3.1,4.259-5.198,7.791-6.235c4.747-1.397,9.077-0.291,12.519,3.191c5.762,5.832,7.931,17.159,6.021,23.39    c-0.059,0.19-0.258,0.299-0.45,0.248c-0.126-0.033-12.701-3.35-25.676,0.706C186.162,108.201,186.125,108.206,186.089,108.206z     M197.726,80.794c-1.197,0-2.442,0.19-3.734,0.569c-3.333,0.979-5.803,2.954-7.344,5.87c-3.797,7.185-0.919,18.063-0.313,20.141    c11.832-3.578,23.25-1.194,25.38-0.691c1.632-5.988-0.546-16.86-5.939-22.318C203.428,81.988,200.731,80.794,197.726,80.794z"/>
	</g>
	<path style="fill:#FFFFFF;" d="M189,106.925c0,0-5.55-17.14,5.967-20.522c11.391-3.345,15.912,13.199,13.832,19.98   C208.799,106.383,199.125,103.761,189,106.925z"/>
	<g>
		<path style="fill:#E4E5E6;" d="M227.807,98.263c0,0-1.891-19.382,9.691-20.8c11.582-1.418,16.073,16.309,16.073,23.636    C253.571,101.1,244.825,92.827,227.807,98.263z"/>
		<path style="fill:#D6A174;" d="M253.571,101.469c-0.092,0-0.183-0.035-0.254-0.101c-0.022-0.02-2.202-2.044-6.402-3.387    c-3.878-1.241-10.321-2.137-18.995,0.634c-0.108,0.033-0.221,0.017-0.316-0.043c-0.092-0.061-0.153-0.162-0.165-0.273    c-0.004-0.049-0.466-4.957,0.508-9.975c1.309-6.744,4.597-10.627,9.507-11.228c3.084-0.377,5.899,0.533,8.357,2.708    c5.607,4.963,8.13,15.44,8.13,21.295c0,0.147-0.088,0.281-0.224,0.339C253.671,101.459,253.62,101.469,253.571,101.469z     M238.833,96.06c7.847,0,12.697,3.019,14.352,4.254c-0.218-5.702-2.734-15.414-7.864-19.956c-2.292-2.029-4.907-2.876-7.778-2.529    c-10.117,1.24-9.588,17.036-9.403,19.941C232.164,96.532,235.733,96.06,238.833,96.06z"/>
	</g>
	<path style="fill:#FFFFFF;" d="M230.877,97.723c0,0-1.487-15.237,7.618-16.352c9.105-1.115,12.636,12.821,12.636,18.582   C251.131,99.953,244.256,93.449,230.877,97.723z"/>
	<g>
		<path style="fill:#00799E;" d="M246.263,94.045c0,3.842-2.663,6.956-5.948,6.956c-3.285,0-5.949-3.114-5.949-6.956    c0-3.841,2.663-6.956,5.949-6.956C243.6,87.09,246.263,90.204,246.263,94.045z"/>
		<path style="fill:#00B2DE;" d="M245.852,94.032c0,3.576-2.479,6.475-5.537,6.475c-3.058,0-5.538-2.899-5.538-6.475    c0-3.576,2.479-6.475,5.538-6.475C243.373,87.557,245.852,90.456,245.852,94.032z"/>
		<path style="fill:#006B8F;" d="M243.859,94.045c0,2.289-1.587,4.144-3.544,4.144c-1.957,0-3.544-1.855-3.544-4.144    c0-2.289,1.587-4.144,3.544-4.144C242.272,89.901,243.859,91.757,243.859,94.045z"/>
		<path style="opacity:0.19;fill:#8DC3C4;" d="M244.916,91.478c-0.122-0.627-0.355-1.22-0.71-1.707    c-1.949-2.672-5.932-2.394-7.866,0.036c-0.777,0.977-1.192,2.468-1.28,3.811c-0.031,0.484-0.018,0.977,0.052,1.456    c0.067,0.458,0.184,0.944,0.437,1.31c0.266,0.384,0.654,0.523,1.061,0.437c0.596-0.125,1.062-0.642,1.575-0.983    c0.599-0.397,1.284-0.584,1.967-0.581c0.615,0.003,1.226,0.119,1.841,0.12c0.579,0.001,1.172-0.08,1.697-0.389    c0.534-0.314,0.997-0.833,1.189-1.516C245.06,92.833,245.043,92.128,244.916,91.478z"/>
		<path style="opacity:0.9;fill:#E9F6FC;" d="M239.504,90.334c-0.067-0.43-0.352-0.732-0.716-0.806    c-0.883-0.179-1.751,0.773-2.141,1.61c-0.234,0.502-0.383,1.414,0.097,1.791c0.421,0.33,1.058,0.072,1.457-0.184    C238.917,92.287,239.667,91.374,239.504,90.334z"/>
		<path style="opacity:0.9;fill:#E9F6FC;" d="M237.055,93.907c-0.066-0.125-0.176-0.193-0.294-0.214    c-0.184-0.1-0.42,0.028-0.566,0.173c-0.102,0.102-0.193,0.24-0.227,0.394c-0.03,0.134-0.018,0.266,0.033,0.391    c0.082,0.2,0.279,0.296,0.459,0.304c0.222,0.01,0.437-0.108,0.57-0.315C237.161,94.435,237.169,94.124,237.055,93.907z"/>
	</g>
	<g>
		<path style="fill:#FDD4B5;" d="M225.781,87.189c-3.091,2.937-7.426,4.273-11.632,3.482c-0.098-0.018-0.305,0.244-0.188,0.279    c4.236,1.273,9.096-0.161,11.969-3.53C226.091,87.23,226.03,86.952,225.781,87.189z"/>
		<path style="fill:#FDD4B5;" d="M225.504,91.64c-1.531,1.075-3.051,2.202-4.782,2.939c-1.824,0.777-3.829,1.131-5.795,0.792    c-0.138-0.024-0.417,0.341-0.256,0.382c3.974,1.017,8.042-1.013,10.891-3.686C225.721,91.917,225.883,91.373,225.504,91.64z"/>
		<path style="fill:#FDD4B5;" d="M180.52,104.215c-6.401-2.076-14.297-1.792-19.591,2.766c-0.221,0.19-0.227,0.589,0.107,0.316    c2.477-2.027,5.571-3.026,8.729-3.31c3.48-0.314,6.88,0.386,10.299,0.923C180.318,104.95,180.842,104.32,180.52,104.215z"/>
	</g>
	<g>
		<path style="fill:#F9FDF9;" d="M250.652,60.994c0,0,10.976,7.171,13.066,7.469c2.089,0.299-1.971-6.674-1.971-6.674    s2.912,2.233,4.077,1.359c1.165-0.874-3.106-8.057-8.251-9.319c5.145-0.291,5.727-7.281-0.874-6.698    c0-3.98-4.368-7.669-4.368-7.669s1.434-7.302-4.464-9.759c-1.475,0.164-0.983,5.242-0.983,5.242s-3.277-9.829-6.881-10.157    c-0.819,0.328,0,6.881,0,6.881s-4.751-8.847-7.536-8.027c-0.983,0.164,0,4.915,0,4.915s-4.915-6.881-7.372-6.389    c-2.457,0.491,0.655,4.587,0.655,4.587s-9.829-7.372-14.416-6.061c-2.621,0.819,2.949,4.259,2.949,4.259s-7.372-3.932-5.079,0.655    c-5.734-2.621-11.959-5.242-5.242,0.655c-11.14-2.949-16.874-2.294-11.304,0.983c-13.597-3.932-20.15-2.457-6.225,3.44    c-11.959-3.113-15.891-2.13-8.027,1.311c-11.468-0.655-13.27,2.13-9.502,2.785c-10.648-0.328-19.986,5.734-5.57,4.096    c-18.676,6.389-25.229,16.546-16.71,12.614c-9.338,4.587-20.314,14.089-16.219,14.58c-5.242,3.604-5.57,5.734-2.457,4.096    c-8.355,5.078-12.615,9.338-8.027,9.174c-6.553,5.406-7.536,8.683-1.147,6.389c-2.457,2.621-0.491,5.078,2.294,3.113    c-2.294,5.406,0.819,9.829,4.423,9.01c3.604-0.819,23.099-15.072,29.98-21.788c-0.328,3.113,3.604-1.966,7.7-6.062    c4.096-4.096,13.27-9.174,13.27-9.174s-1.638,3.44-0.492,4.096c1.147,0.655,4.915-8.846,27.195-15.727    c-5.079,3.768,1.638,1.474,11.632-0.983c-2.13,3.113,7.372,1.638,9.993,0.492c0.328,3.604,3.768,1.802,4.587,0    c2.949,4.751,7.208,4.587,9.174,2.293c0,0,3.932,4.751,8.519,5.57C245.901,58.373,250.652,60.994,250.652,60.994z"/>
		<path style="fill:#BCBEC0;" d="M124.618,98.323c-1.246,0-2.413-0.565-3.298-1.623c-1.162-1.389-1.951-3.914-0.95-7.041    c-1.176,0.492-2.138,0.234-2.641-0.343c-0.534-0.614-0.661-1.671,0.037-2.864c-1.97,0.58-3.131,0.511-3.539-0.203    c-0.82-1.44,2.324-4.52,4.728-6.577c-0.527-0.082-1.074-0.3-1.237-0.847c-0.551-1.838,4.605-5.52,8.192-7.82    c-0.095-0.054-0.172-0.13-0.231-0.228c-0.553-0.915,1.569-2.899,3.924-4.592c-0.302-0.206-0.401-0.483-0.434-0.672    c-0.4-2.349,7.325-8.724,14.365-12.784c-0.255-0.025-0.462-0.097-0.619-0.217c-0.159-0.12-0.411-0.4-0.325-0.935    c0.341-2.117,6.599-7.722,17.975-12.087c-2.781,0.146-4.403-0.113-4.848-0.779c-0.18-0.269-0.183-0.59-0.009-0.906    c0.753-1.358,5.652-3.192,11.353-3.387c-0.296-0.295-0.319-0.592-0.299-0.762c0.166-1.451,4.047-2.258,9.814-2.104    c-2.547-1.288-2.747-1.968-2.589-2.425c0.43-1.24,4.976-0.533,8.798,0.305c-4.916-2.452-4.554-3.472-4.419-3.848    c0.567-1.61,6.345-0.831,12.388,0.756c-0.56-0.541-0.739-1.014-0.559-1.446c0.675-1.624,6.814-0.732,12.414,0.646    c-1.889-1.78-2.122-2.452-1.836-2.894c0.417-0.649,1.715-0.474,7.732,2.241c-0.154-0.522-0.204-1.128,0.203-1.525    c0.54-0.524,1.686-0.359,2.822,0.003c-0.748-0.693-1.338-1.455-1.259-2.085c0.038-0.304,0.234-0.713,0.952-0.937    c3.637-1.036,10.229,3.003,13.213,5.033c-0.46-0.881-0.841-1.938-0.557-2.691c0.121-0.32,0.419-0.732,1.142-0.877    c1.99-0.398,5.217,3.268,6.817,5.303c-0.183-1.272-0.316-2.916,0.097-3.518c0.15-0.219,0.339-0.292,0.47-0.313    c2.278-0.669,5.467,4.046,7.029,6.654c-0.332-3.395-0.188-5.238,0.43-5.485c0.053-0.022,0.113-0.03,0.17-0.025    c2.726,0.247,5.174,5.281,6.391,8.261c0.04-1.552,0.335-3.227,1.4-3.346c0.062-0.009,0.124,0.002,0.182,0.026    c5.523,2.302,4.9,8.702,4.719,9.957c0.782,0.701,4.092,3.864,4.327,7.417c2.647-0.131,3.828,0.976,4.301,1.667    c0.674,0.984,0.74,2.255,0.178,3.401c-0.494,1.006-1.394,1.751-2.523,2.127c3.825,1.675,6.889,6.094,7.322,8.218    c0.127,0.621,0.03,1.056-0.286,1.295c-0.828,0.621-2.215,0.062-3.243-0.519c0.992,1.857,2.315,4.686,1.715,5.578    c-0.104,0.152-0.356,0.391-0.853,0.326c-2.132-0.304-12.613-7.131-13.205-7.518c-0.408-0.226-3.462-1.97-3.906-3.708    c-0.068-0.266-0.074-0.52-0.019-0.759c-3.831-0.888-7.071-4.234-8.017-5.291c-1,0.979-2.357,1.481-3.835,1.359    c-1.983-0.152-3.852-1.39-5.314-3.504c-0.738,1.033-2.146,1.914-3.289,1.723c-0.504-0.085-1.339-0.452-1.615-1.909    c-2.405,0.844-8.829,2.034-10.125,0.47c-0.169-0.203-0.307-0.509-0.218-0.932c-1.572,0.391-3.054,0.774-4.412,1.125    c-6.385,1.652-8.24,2.091-8.619,1.289c-0.137-0.286-0.036-0.606,0.382-1.053c-15.258,5.026-21.098,11.16-23.645,13.835    c-1.046,1.099-1.524,1.6-2.064,1.292c-0.989-0.565-0.533-2.361-0.087-3.557c-2.441,1.409-9.003,5.333-12.246,8.577    c-0.984,0.984-1.944,2.009-2.872,3.001c-2.897,3.094-4.214,4.446-5.036,4.071c-0.201-0.091-0.315-0.256-0.377-0.45    c-7.075,6.656-25.828,20.476-29.574,21.327C125.251,98.287,124.932,98.323,124.618,98.323z M121.067,88.475    c0.082,0,0.164,0.027,0.232,0.082c0.128,0.104,0.172,0.28,0.108,0.432c-1.384,3.26-0.66,5.876,0.479,7.237    c0.924,1.105,2.208,1.564,3.522,1.268c3.416-0.776,22.915-14.968,29.804-21.693c0.113-0.11,0.28-0.135,0.42-0.069    c0.14,0.068,0.222,0.216,0.206,0.372c-0.051,0.469,0.025,0.584,0.025,0.584c0.001,0,0.003,0,0.004,0    c0.475,0,2.514-2.177,4.152-3.928c0.932-0.996,1.896-2.025,2.889-3.018c4.085-4.085,12.975-9.028,13.352-9.236    c0.143-0.078,0.316-0.054,0.432,0.054c0.117,0.11,0.15,0.283,0.081,0.428c-0.624,1.313-1.195,3.3-0.642,3.616    c0.107-0.052,0.644-0.616,1.163-1.161c2.682-2.819,8.966-9.418,25.738-14.598c0.172-0.057,0.358,0.025,0.439,0.186    c0.082,0.16,0.036,0.356-0.108,0.463c-1.033,0.766-1.396,1.153-1.523,1.329c0.841,0.12,4.168-0.748,7.685-1.657    c1.572-0.406,3.309-0.856,5.16-1.311c0.149-0.039,0.306,0.023,0.391,0.148c0.088,0.126,0.088,0.293,0.001,0.419    c-0.374,0.547-0.219,0.733-0.169,0.794c0.888,1.068,7.31,0.2,9.709-0.85c0.108-0.048,0.234-0.04,0.336,0.02    c0.102,0.061,0.169,0.167,0.18,0.285c0.065,0.716,0.303,1.598,1.07,1.727c0.996,0.168,2.371-0.877,2.813-1.847    c0.056-0.124,0.176-0.207,0.312-0.216c0.175-0.015,0.268,0.059,0.338,0.174c1.377,2.216,3.178,3.517,5.075,3.662    c1.348,0.111,2.645-0.411,3.507-1.414c0.069-0.083,0.147-0.109,0.283-0.129c0.11,0.001,0.212,0.05,0.281,0.134    c0.039,0.047,3.901,4.657,8.299,5.443c0.121,0.022,0.224,0.102,0.273,0.215c0.051,0.112,0.04,0.243-0.026,0.347    c-0.124,0.194-0.152,0.401-0.088,0.65c0.313,1.227,2.674,2.762,3.559,3.251c0.007,0.004,0.016,0.009,0.023,0.014    c3.034,1.982,11.269,7.178,12.916,7.413c0.079,0.011,0.124,0.001,0.133-0.003c0.368-0.345-0.811-3.261-2.474-6.118    c-0.089-0.153-0.058-0.346,0.075-0.463c0.13-0.117,0.328-0.125,0.469-0.016c0.879,0.672,2.923,1.891,3.63,1.356    c0.022-0.015,0.087-0.162,0.007-0.555c-0.403-1.967-3.888-7.07-8.124-8.11c-0.178-0.043-0.297-0.211-0.28-0.393    c0.017-0.183,0.164-0.325,0.348-0.335c1.51-0.085,2.75-0.826,3.317-1.982c0.444-0.903,0.398-1.896-0.124-2.657    c-0.699-1.02-2.12-1.487-4.015-1.322c-0.098,0.006-0.205-0.026-0.281-0.095c-0.076-0.07-0.12-0.169-0.12-0.273    c0-3.759-4.194-7.35-4.236-7.386c-0.103-0.087-0.15-0.222-0.124-0.353c0.055-0.284,1.285-6.949-4.137-9.302    c-0.605,0.248-0.792,2.631-0.58,4.821c0.017,0.187-0.107,0.358-0.292,0.397c-0.195,0.037-0.367-0.068-0.427-0.245    c-0.875-2.624-3.703-9.412-6.42-9.887c-0.253,0.547-0.085,3.724,0.255,6.447c0.022,0.176-0.085,0.344-0.254,0.398    c-0.17,0.053-0.354-0.02-0.439-0.177c-1.781-3.319-5.306-8.377-7.105-7.847c-0.309,0.261-0.182,2.358,0.258,4.485    c0.035,0.171-0.055,0.344-0.214,0.413c-0.163,0.071-0.346,0.02-0.449-0.123c-1.846-2.585-5.375-6.574-7-6.241    c-0.424,0.085-0.543,0.277-0.595,0.414c-0.303,0.8,0.742,2.625,1.472,3.587c0.111,0.147,0.098,0.354-0.032,0.484    c-0.131,0.131-0.338,0.144-0.485,0.035c-0.095-0.074-9.726-7.25-14.092-6.002c-0.18,0.057-0.41,0.161-0.43,0.322    c-0.082,0.643,1.739,2.197,3.473,3.268c0.169,0.105,0.225,0.326,0.126,0.499c-0.098,0.174-0.319,0.238-0.494,0.142    c-1.964-1.046-4.383-1.87-4.886-1.39c-0.196,0.192-0.081,0.772,0.31,1.554c0.071,0.14,0.045,0.309-0.065,0.422    c-0.108,0.112-0.276,0.144-0.419,0.079c-1.671-0.764-6.607-3.058-7.618-2.881c0.082,0.227,0.521,0.945,2.773,2.922    c0.128,0.113,0.163,0.3,0.082,0.452c-0.079,0.152-0.254,0.225-0.421,0.183c-8.648-2.29-12.727-2.071-12.988-1.445    c-0.056,0.133,0.189,0.706,1.967,1.752c0.16,0.094,0.225,0.293,0.152,0.464c-0.074,0.172-0.264,0.263-0.442,0.209    c-8.937-2.583-13.261-2.424-13.493-1.773c-0.004,0.011-0.32,1.199,7.515,4.518c0.177,0.075,0.268,0.276,0.205,0.459    c-0.062,0.183-0.257,0.289-0.442,0.239c-8.761-2.282-11.418-1.953-11.663-1.66c0.001,0,0.001,0,0.001,0    c0.019,0,0.188,0.662,3.875,2.275c0.163,0.071,0.253,0.25,0.211,0.424c-0.042,0.175-0.211,0.296-0.381,0.283    c-8.129-0.465-10.826,0.844-10.887,1.373c-0.016,0.13,0.333,0.481,1.469,0.679c0.191,0.033,0.323,0.209,0.305,0.401    c-0.022,0.193-0.175,0.331-0.38,0.332c-6.255-0.188-11.885,1.837-12.536,3.011c-0.052,0.095-0.035,0.121-0.025,0.137    c0.065,0.095,0.803,0.912,6.961,0.211c0.208-0.02,0.361,0.103,0.403,0.286c0.04,0.184-0.062,0.369-0.241,0.43    c-13.476,4.611-19.863,10.786-20.133,12.467c-0.029,0.176,0.022,0.214,0.04,0.229c0.206,0.153,1.084,0.167,3.107-0.767    c0.179-0.085,0.4-0.007,0.488,0.177c0.087,0.183,0.012,0.401-0.17,0.491c-8.214,4.035-17.214,11.644-16.888,13.564    c0.012,0.071,0.043,0.257,0.55,0.318c0.153,0.018,0.279,0.129,0.316,0.279c0.036,0.149-0.023,0.305-0.15,0.393    c-3.099,2.13-4.196,3.556-4.284,3.983c0.117,0.012,0.606-0.078,1.445-0.519c0.176-0.095,0.395-0.029,0.494,0.145    c0.098,0.173,0.04,0.394-0.13,0.498c-7.54,4.583-9.94,7.372-9.713,8.129c0.076,0.257,0.628,0.393,1.482,0.36    c0.167,0.004,0.302,0.09,0.358,0.238c0.056,0.148,0.013,0.315-0.11,0.416c-4.418,3.644-5.581,5.737-5.287,6.256    c0.042,0.073,0.498,0.678,3.779-0.5c0.163-0.057,0.342,0.002,0.434,0.145c0.094,0.143,0.078,0.331-0.039,0.455    c-1.153,1.23-1.201,2.337-0.758,2.846c0.408,0.47,1.36,0.566,2.568-0.287C120.918,88.497,120.992,88.475,121.067,88.475z"/>
	</g>
	<path style="fill:#EAE8E4;" d="M259.733,58.86c-5.148-0.512-8.479-5.248-9.942-9.862c-1.371,1.461-3.409,2.542-5.293,1.292   c-1.372-0.911-1.899-2.448-1.894-4.013c-3.292,1.83-6.835-1.54-9.003-4.533c-1.834,2.335-5.2,3.34-8.061,3.069   c-2.564-0.243-4.519-1.834-5.211-4.037c-1.953,1.923-4.634,3.03-7.267,3.721c-3.442,0.902-7.035,1.186-10.583,1.192   c-0.448,0.001-0.898-0.508-1.06-1.006c-2.435,1.521-5.064,2.846-7.78,3.386c-1.533,0.305-3.162,0.27-4.382-0.835   c-0.212-0.192-0.384-0.402-0.538-0.618c-1.725,3.933-4.342,7.557-8.718,8.65c-0.599,0.15-1.533-0.431-1.66-1.037   c-0.087-0.417-0.208-0.825-0.316-1.237c-0.974,1.739-2.435,3.296-4.105,4.074c-1.221,0.568-2.561,0.532-3.653-0.317   c-0.231-0.18-0.42-0.385-0.592-0.601c-1.945,4.261-5.917,7.736-9.821,9.997c-0.641,0.371-1.638-0.403-1.808-1.003   c-0.142-0.501-0.353-0.974-0.573-1.443c-2.031,3.082-4.478,5.969-6.972,8.642c-1.425,1.526-2.919,3.001-4.562,4.293   c-1.128,0.887-2.421,1.829-3.873,2.068c-2.673,0.44-5.468-1.198-5.09-4.133c0.182-1.409,0.843-2.772,1.499-4.014   c0.811-1.535,1.764-2.993,2.763-4.411c1.228-1.744,2.551-3.423,3.92-5.061c-0.454-0.232-0.849-0.709-0.843-1.163   c0.095-7.595,9.006-11.979,15.615-12.765c-0.053-1.933,0.526-3.75,1.879-5.193c2.863-3.054,7.433-4.207,11.422-4.836   c3.613-0.57,7.364-0.752,11.02-0.386c-0.687-1.655-0.665-3.396,0.821-4.724c1.579-1.412,3.935-1.947,5.958-2.317   c2.799-0.511,5.656-0.692,8.496-0.769c2.736-0.074,5.473-0.033,8.209,0.035c1.495,0.037,3.011,0.133,4.511,0.081   c-0.081-0.651-0.253-1.3-0.525-1.89c-0.069-0.149-0.039-0.405,0.113-0.501c3.417-2.154,7.232-0.472,10.402,1.68   c-0.73-1.67-1.395-3.371-1.972-5.102c-3.031-1.68-6.637-3.196-8.931-2.541c-2.621,0.819,2.949,4.259,2.949,4.259   s-7.372-3.932-5.079,0.655c-5.734-2.621-11.959-5.242-5.242,0.655c-11.14-2.949-16.874-2.294-11.304,0.983   c-13.597-3.932-20.15-2.457-6.225,3.44c-11.959-3.113-15.891-2.13-8.027,1.311c-11.468-0.655-13.27,2.13-9.502,2.785   c-10.648-0.328-19.986,5.734-5.57,4.096c-18.676,6.389-25.229,16.546-16.71,12.614c-9.338,4.587-20.314,14.089-16.219,14.58   c-5.242,3.604-5.57,5.734-2.457,4.096c-8.355,5.078-12.614,9.338-8.027,9.174c-6.553,5.406-7.536,8.683-1.147,6.389   c-2.457,2.621-0.491,5.079,2.294,3.113c-2.294,5.406,0.819,9.829,4.423,9.01c3.604-0.819,23.099-15.072,29.98-21.788   c-0.328,3.113,3.604-1.966,7.7-6.062c4.096-4.096,13.27-9.174,13.27-9.174s-1.638,3.44-0.492,4.096   c1.147,0.655,4.915-8.847,27.195-15.727c-5.079,3.768,1.638,1.474,11.631-0.983c-2.13,3.113,7.372,1.638,9.993,0.492   c0.328,3.604,3.768,1.802,4.587,0c2.949,4.751,7.208,4.587,9.174,2.293c0,0,3.932,4.751,8.519,5.57   c-1.147,1.802,3.604,4.423,3.604,4.423s10.976,7.171,13.066,7.469c2.089,0.299-1.971-6.674-1.971-6.674s2.912,2.233,4.077,1.359   c0.593-0.445-0.228-2.527-1.853-4.629C262.632,58.986,261.077,58.993,259.733,58.86z"/>
	<path style="fill:#EAE8E4;" d="M160.861,69.808c-2.825,2.208-3.943,5.932-7.363,7.483c-0.942,0.427-1.768,0.372-2.758,0.45   c-0.986,0.078-1.772,0.652-2.411,1.365c-1.266,1.412-2.019,3.253-3.482,4.496c-1.797,1.526-4.253,2.803-6.546,3.337   c-1.05,0.245-2.218,0.286-3.117-0.403c-0.455-0.349-0.739-0.8-0.939-1.287c-1.685,1.318-3.345,2.661-5.26,3.655   c-1.93,1.002-4.442,1.737-5.993-0.287c-1.32-1.721-0.735-3.723,0.306-5.411c1.389-2.255,3.351-4.181,5.241-6.014   c0.531-0.515,1.095-1.024,1.659-1.537c-0.103-0.099-0.203-0.21-0.298-0.35c-1.234-1.814-0.14-4.254,0.847-5.893   c1.167-1.938,2.691-3.675,4.317-5.238c0.885-0.85,1.824-1.671,2.82-2.41c-1.529-0.14-2.889-0.765-3.335-2.362   c-4.085,3.404-6.395,6.401-4.143,6.671c-5.242,3.604-5.57,5.734-2.457,4.096c-8.355,5.078-12.614,9.338-8.027,9.174   c-6.553,5.406-7.536,8.683-1.147,6.389c-2.457,2.621-0.491,5.079,2.294,3.113c-2.294,5.406,0.819,9.829,4.423,9.01   c3.604-0.819,23.099-15.072,29.98-21.788c-0.328,3.113,3.604-1.966,7.7-6.062c0.893-0.893,2.033-1.831,3.261-2.755   C164.65,68.274,162.502,68.525,160.861,69.808z"/>
	<g>
		<path style="fill:#F9FDF9;" d="M216.085,118.004c0,0-12.533-0.246-25.065,9.338c-10.321,7.863-15.236,3.686-16.218,2.457    c-1.475,3.44,0.983,4.423,0.983,4.423s-7.372-2.212-8.355-5.898c-0.737,2.949,0.983,4.915,0.983,4.915s-8.109-5.161-1.229-16.956    c-8.846,2.949-9.338,19.167,0,22.853c-14.007,3.44-44.97,10.075-51.359-10.075c-3.686,8.601,0.983,29.243,32.191,36.369    c31.208,7.126,76.915-0.737,90.676-30.717c0,0,20.15,18.184,57.256,15.481c37.106-2.703,39.809-23.591,38.089-38.089    c-1.72,12.041-21.625,19.167-43.987,12.041C267.689,117.021,246.065,107.929,216.085,118.004z"/>
		<path style="fill:#BCBEC0;" d="M170.973,168.305c-7.908,0-15.73-0.844-23.039-2.514c-10.595-2.419-24.549-7.906-30.859-20.307    c-3.478-6.835-3.102-13.039-1.589-16.568c0.059-0.142,0.164-0.252,0.358-0.223c0.153,0.007,0.287,0.11,0.333,0.257    c6.376,20.109,38.003,12.98,49.89,10.08c-3.859-2.038-6.211-6.557-6.068-11.836c0.149-5.459,2.921-9.879,7.066-11.261    c0.149-0.046,0.307-0.002,0.404,0.118c0.097,0.12,0.11,0.286,0.032,0.419c-2.752,4.718-3.425,9.065-1.944,12.571    c0.455,1.075,1.045,1.92,1.585,2.542c-0.269-0.875-0.404-2.016-0.071-3.349c0.04-0.165,0.228-0.276,0.358-0.28    c0.167,0,0.313,0.113,0.356,0.274c0.647,2.423,4.36,4.217,6.529,5.076c-0.042-0.079-0.081-0.162-0.118-0.25    c-0.388-0.94-0.3-2.085,0.266-3.402c0.05-0.119,0.16-0.203,0.29-0.22c0.125-0.017,0.257,0.035,0.338,0.135    c0.482,0.601,5.002,5.635,15.706-2.52c12.02-9.192,24.215-9.412,25.229-9.414c27.319-9.16,48.007-2.384,68.011,4.171    c2.041,0.669,4.082,1.338,6.128,1.99c13.654,4.352,27.571,3.645,36.32-1.845c4.149-2.603,6.635-6.025,7.189-9.896    c0.026-0.183,0.182-0.318,0.365-0.318c0.001,0,0.003,0,0.004,0c0.186,0.002,0.341,0.142,0.362,0.326    c1.28,10.799-0.634,19.122-5.851,25.444c-6.226,7.543-17.187,11.936-32.578,13.057c-19.255,1.405-33.852-2.901-42.717-6.757    c-8.152-3.545-13.088-7.38-14.437-8.497C228.269,157.613,199.101,168.303,170.973,168.305z M115.811,130.156    c-1.124,3.478-1.145,8.967,1.923,14.994c3.412,6.704,11.448,15.602,30.365,19.922c33.193,7.576,77.139-1.93,90.258-30.511    c0.049-0.107,0.147-0.183,0.261-0.207c0.113-0.026,0.235,0.009,0.322,0.087c0.051,0.045,5.127,4.568,14.646,8.704    c8.784,3.815,23.256,8.071,42.336,6.683c15.183-1.105,25.971-5.409,32.063-12.79c4.727-5.728,6.667-13.171,5.905-22.704    c-1.069,3.196-3.458,6.014-7.012,8.243c-8.93,5.603-23.084,6.339-36.938,1.923c-2.048-0.653-4.09-1.322-6.133-1.992    c-19.903-6.522-40.486-13.267-67.604-4.154c-0.042,0.014-0.082,0.017-0.126,0.02c-0.115,0.011-12.564-0.12-24.832,9.262    c-9.825,7.483-14.836,4.235-16.309,2.847c-0.294,0.889-0.315,1.653-0.061,2.278c0.332,0.815,1.019,1.108,1.048,1.12    c0.182,0.075,0.274,0.28,0.208,0.465c-0.066,0.185-0.261,0.286-0.453,0.23c-0.274-0.082-6.072-1.854-8.061-4.953    c-0.066,2.027,1.019,3.311,1.074,3.374c0.12,0.139,0.121,0.345,0.001,0.483c-0.123,0.14-0.326,0.168-0.478,0.071    c-0.088-0.056-2.139-1.385-3.337-4.222c-1.044-2.469-1.589-6.568,1.469-12.307c-3.314,1.607-5.482,5.485-5.609,10.193    c-0.147,5.398,2.436,9.943,6.58,11.579c0.15,0.059,0.244,0.208,0.232,0.369c-0.01,0.16-0.124,0.295-0.28,0.333    C156.311,142.189,123.304,150.298,115.811,130.156z"/>
	</g>
	<path style="fill:#EAE8E4;" d="M326.801,122.178c-1.393,2.072-3,3.976-5.046,5.48c-4.68,3.441-10.584,4.954-16.26,5.67   c-4.578,0.577-9.189,0.667-13.797,0.75c0.525,0.137,1.053,0.264,1.584,0.375c4.014,0.844,8.191,1.078,12.278,0.749   c3.517-0.283,7.352-0.978,10.269-3.092c0.546-0.396,2.454,0.516,1.924,1.2c-3.914,5.057-9.474,8.048-15.66,9.393   c-5.382,1.17-10.972,1.338-16.462,1.278c-3.914-0.043-7.839-0.386-11.71-0.958c-4.56-0.674-9.167-1.671-13.428-3.468   c-3.535-1.491-7.152-3.748-8.765-7.387c-0.158-0.356-0.148-0.838,0.341-0.839c2.041-0.005,4.083-0.016,6.124-0.026   c-1.296-0.641-2.581-1.301-3.76-2.159c-0.382-0.278-1.037-1.812-0.12-1.809c1.973,0.008,3.944,0.087,5.9-0.046   c-1.512-0.631-2.988-1.344-4.383-2.21c-0.517-0.321-0.047-1.399,0.379-1.574c2.335-0.957,4.193-2.597,5.215-4.927   c0.385-0.878,0.629-1.801,0.822-2.739c-13.725-3.051-28.49-3.773-46.158,2.165c0,0-3.758-0.062-9.201,1.437   c-0.61,1.893-0.917,3.855-0.836,5.856c2.146-0.18,4.122-1.131,6.166-1.752c0.706-0.215,0.589,1.384,0.408,1.677   c-0.842,1.363-1.316,2.876-1.603,4.435c2.519,0.672,5.423,0.053,6.703-2.419c0.433-0.837,1.522,0.792,1.472,1.286   c-0.233,2.322-0.986,4.545-2.238,6.516c-2.285,3.597-5.848,6.155-9.516,8.204c-0.459,0.257-0.932,0.485-1.398,0.726   c2.111-0.722,4.184-1.555,6.18-2.539c3.157-1.557,6.466-3.573,8.369-6.632c0.396-0.636,1.882,0.759,1.612,1.387   c-2.347,5.473-5.667,10.557-10.18,14.487c-7.267,6.329-16.775,8.956-26.289,8.701c-9.678-0.26-19.156-3.319-27.649-7.895   c0.88,1.353,2.146,2.441,3.411,3.443c1.761,1.394,3.643,2.636,5.317,4.139c0.395,0.355,0.89,1.48-0.098,1.301   c-4.419-0.803-8.198-3.417-11.848-5.882c-3.401-2.297-6.994-4.763-11.176-5.163c0.015,1.49,0.042,3.213-0.734,4.481   c-0.704,1.149-2.102,1.226-3.309,1.062c-1.953-0.264-3.881-0.99-5.767-1.54c-2.158-0.629-4.304-1.382-6.296-2.434   c-1.945-1.027-3.732-2.336-5.172-4.007c-1.463-1.697-2.347-3.718-3.005-5.841c-0.726-2.344-1.127-4.767-1.31-7.212   c-0.931-1.392-1.704-2.967-2.274-4.765c-3.686,8.601,0.983,29.242,32.191,36.369c31.208,7.126,76.915-0.737,90.676-30.717   c0,0,20.15,18.184,57.256,15.481c37.106-2.703,39.809-23.591,38.089-38.089C333.463,116.13,330.85,119.6,326.801,122.178z"/>
	<g>
		<path style="fill:#FDDBC1;" d="M226.223,98.47c0,0-13.382,4.248-14.019,16.356c-0.637,12.108,27.23,12.018,40.146,4.886    C266.582,111.853,253.597,89.128,226.223,98.47z"/>
		<path style="fill:#C1846D;" d="M230.372,124.972c-5.691,0-11.009-0.967-14.534-3.174c-2.809-1.758-4.155-4.11-4.004-6.991    c0.638-12.137,13.952-16.583,14.271-16.687c15.927-5.435,27.874-0.125,31.442,7.934c2.422,5.472,0.452,10.961-5.018,13.982    C247.018,123.079,238.331,124.972,230.372,124.972z M238.568,96.643c-3.691,0-7.798,0.666-12.226,2.178    c-0.003,0.001-0.006,0.001-0.007,0.002c-0.131,0.042-13.147,4.317-13.762,16.023c-0.137,2.592,1.092,4.721,3.656,6.326    c7.596,4.755,25.734,3.854,35.942-1.783c5.112-2.822,6.957-7.939,4.701-13.036C254.42,100.815,247.803,96.643,238.568,96.643z     M226.222,98.471h0.009H226.222z"/>
	</g>
	<path style="fill:#FDD4B5;" d="M251.861,116.587c-5.421,2.619-11.68,3.955-17.688,3.182c-6.159-0.792-13.256-4.337-15.321-10.607   c-0.779-2.365-0.611-4.662,0.19-6.723c-3.29,2.59-6.533,6.575-6.839,12.387c-0.637,12.108,27.23,12.018,40.147,4.885   c3.171-1.751,4.982-4.241,5.593-6.948C256.062,114.27,253.998,115.555,251.861,116.587z"/>
	<path style="fill:#EF4956;" d="M235.315,159.575c0,0,1.915-3.198,8.812-0.018c0,0-2.838-2.558-1.417-3.989   c1.42-1.432,8.887-0.873,7.726,3.58C248.671,165.91,234.091,164.222,235.315,159.575z"/>
	<ellipse style="fill:#FDDBC1;" cx="240.689" cy="104.804" rx="11.387" ry="6.164"/>
	<path style="fill:#FDDBC1;" d="M265.586,155.361c-0.989,1.504-1.75,3.171-2.625,4.743c-0.82,1.474-1.69,2.922-2.654,4.307   c-1.722,2.478-3.771,4.79-6.248,6.535c-2.644,1.863-5.793,2.881-8.991,3.237c-3.621,0.403-7.11-0.266-10.698-0.631   c-0.286-0.029-1.082,0.698-0.697,0.927c2.456,1.459,5.416,1.812,8.231,1.818c2.857,0.007,5.737-0.469,8.396-1.531   c5.104-2.038,8.94-6.046,11.75-10.677c1.665-2.745,3.337-5.763,4.332-8.825C266.585,154.642,265.725,155.15,265.586,155.361z"/>
	<g>
		<path style="fill:#FDDBC1;" d="M209.285,109.904c-0.602-1.872-2.726-2.871-4.5-3.358c-2.207-0.607-4.583-0.629-6.851-0.481    c-5.148,0.336-10.167,1.997-14.496,4.798c-0.124,0.08-0.356,0.584-0.074,0.427c4.313-2.395,9.121-3.817,14.056-4.035    c2.097-0.092,4.249-0.023,6.284,0.536c0.945,0.26,1.873,0.618,2.693,1.161c0.758,0.503,1.368,1.192,2.043,1.794    C208.783,111.053,209.387,110.22,209.285,109.904z"/>
		<path style="fill:#FDDBC1;" d="M210.078,112.606c-0.012-0.447-0.086-0.886-0.174-1.325c-0.015-0.077-0.123-0.103-0.186-0.093    c-0.09,0.015-0.17,0.061-0.242,0.115c-0.17,0.128-0.332,0.333-0.34,0.554c-0.018,0.448-0.063,0.895-0.102,1.342    c-0.004,0.049-0.009,0.097-0.013,0.146c-0.002,0.019-0.002,0.017-0.002,0.026c-0.001,0.007-0.001,0.009-0.004,0.036    c-0.013,0.112-0.027,0.223-0.043,0.334c-0.017,0.122-0.044,0.247-0.032,0.37c0.013,0.128,0.077,0.306,0.218,0.343    c0.378,0.099,0.683-0.479,0.801-0.701c0.095-0.178,0.116-0.357,0.12-0.555C210.084,113.001,210.084,112.803,210.078,112.606z"/>
	</g>
	<g>
		<path style="fill:#FDDBC1;" d="M283.931,108.781c-0.16-1.779-1.606-2.963-2.869-3.638c-1.571-0.84-3.361-1.171-5.097-1.333    c-3.94-0.369-7.99,0.482-11.7,2.457c-0.106,0.057-0.361,0.484-0.123,0.378c3.634-1.609,7.487-2.271,11.248-1.822    c1.598,0.191,3.212,0.535,4.66,1.309c0.672,0.359,1.317,0.806,1.85,1.407c0.493,0.556,0.845,1.261,1.26,1.896    C283.371,109.759,283.958,109.082,283.931,108.781z"/>
		<path style="fill:#FDDBC1;" d="M284.105,111.338c0.061-0.408,0.075-0.816,0.077-1.225c0-0.072-0.077-0.11-0.125-0.109    c-0.071,0.002-0.138,0.033-0.201,0.073c-0.148,0.093-0.303,0.259-0.344,0.458c-0.084,0.405-0.188,0.804-0.288,1.205    c-0.011,0.043-0.022,0.087-0.033,0.13c-0.004,0.017-0.004,0.015-0.006,0.023c-0.002,0.006-0.003,0.008-0.009,0.032    c-0.027,0.1-0.055,0.199-0.085,0.298c-0.032,0.108-0.072,0.218-0.082,0.332c-0.01,0.118,0.01,0.288,0.11,0.34    c0.269,0.14,0.591-0.346,0.715-0.532c0.1-0.15,0.144-0.309,0.178-0.488C284.047,111.697,284.078,111.518,284.105,111.338z"/>
	</g>
	<g>
		<path style="fill:#C1846D;" d="M256.002,103.17c4.935-2.379,10.827-2.682,16.09-1.257    C266.767,102.534,261.373,102.781,256.002,103.17L256.002,103.17z"/>
		<path style="fill:#C1846D;" d="M169.18,116.464c11.27-9.945,27.848-13.526,42.302-9.606c0.964,0.255,1.922,0.527,2.873,0.811    C198.841,104.719,182.341,107.604,169.18,116.464L169.18,116.464z"/>
	</g>
	<g>
		<defs>
			<path id="SVGID_1_" d="M189,106.925c0,0-5.55-17.14,5.967-20.522c11.391-3.345,15.912,13.199,13.832,19.98     C208.799,106.383,199.125,103.761,189,106.925z"/>
		</defs>
		<clipPath id="SVGID_00000089533919266025850340000001097871588114655634_">
			<use xlink:href="#SVGID_1_" style="overflow:visible;"/>
		</clipPath>
		<g style="clip-path:url(#SVGID_00000089533919266025850340000001097871588114655634_);">
			<ellipse style="fill:#00799E;" cx="198.557" cy="101.676" rx="5.948" ry="6.956"/>
			<path style="fill:#00B2DE;" d="M204.095,101.662c0,3.576-2.479,6.475-5.538,6.475c-3.058,0-5.538-2.899-5.538-6.475     s2.479-6.475,5.538-6.475C201.616,95.187,204.095,98.086,204.095,101.662z"/>
			<ellipse style="fill:#006B8F;" cx="198.557" cy="101.676" rx="3.544" ry="4.144"/>
			<path style="opacity:0.19;fill:#8DC3C4;" d="M203.159,99.108c-0.122-0.627-0.355-1.22-0.71-1.707     c-1.949-2.672-5.932-2.394-7.866,0.036c-0.777,0.977-1.192,2.468-1.28,3.811c-0.031,0.484-0.018,0.977,0.052,1.456     c0.067,0.459,0.184,0.945,0.437,1.31c0.266,0.384,0.654,0.523,1.061,0.437c0.596-0.125,1.061-0.642,1.575-0.983     c0.599-0.397,1.284-0.584,1.967-0.581c0.615,0.003,1.226,0.119,1.841,0.12c0.579,0.001,1.172-0.08,1.697-0.389     c0.534-0.314,0.997-0.833,1.189-1.516C203.303,100.463,203.286,99.758,203.159,99.108z"/>
			<path style="opacity:0.9;fill:#E9F6FC;" d="M197.746,97.965c-0.067-0.43-0.352-0.732-0.716-0.806     c-0.883-0.179-1.751,0.772-2.141,1.61c-0.234,0.502-0.383,1.414,0.097,1.791c0.421,0.33,1.058,0.072,1.457-0.184     C197.159,99.918,197.909,99.004,197.746,97.965z"/>
			<path style="opacity:0.9;fill:#E9F6FC;" d="M195.297,101.537c-0.066-0.125-0.176-0.193-0.294-0.214     c-0.184-0.1-0.42,0.028-0.566,0.173c-0.102,0.102-0.193,0.24-0.228,0.394c-0.03,0.135-0.018,0.266,0.033,0.391     c0.082,0.2,0.279,0.296,0.459,0.304c0.222,0.01,0.437-0.108,0.57-0.315C195.404,102.065,195.412,101.754,195.297,101.537z"/>
		</g>
	</g>
</g>
</svg>