<svg width="72" height="72" viewBox="0 0 72 72" fill="none" xmlns="http://www.w3.org/2000/svg">
<g clip-path="url(#clip0_283_457)">
<path d="M40.5 11.2498C40.5 10.8072 40.3694 10.3745 40.1247 10.0058C39.88 9.6371 39.532 9.34873 39.1242 9.17678C38.7165 9.00484 38.267 8.95696 37.8322 9.03913C37.3974 9.12131 36.9964 9.32989 36.6795 9.63878L23.508 22.4638H15.75C13.9598 22.4638 12.2429 23.1749 10.977 24.4408C9.71116 25.7067 9 27.4236 9 29.2138V42.6688C9 44.459 9.71116 46.1759 10.977 47.4417C12.2429 48.7076 13.9598 49.4188 15.75 49.4188H23.5035L36.675 62.3563C36.9914 62.6664 37.3924 62.8762 37.8275 62.9594C38.2627 63.0426 38.7128 62.9955 39.1213 62.8239C39.5298 62.6523 39.8785 62.364 40.1238 61.995C40.3691 61.626 40.4999 61.1928 40.5 60.7498V11.2498ZM45.4995 23.3503C45.6835 23.1188 45.9113 22.9258 46.1699 22.7824C46.4285 22.639 46.7128 22.548 47.0066 22.5145C47.3004 22.4811 47.598 22.5059 47.8822 22.5875C48.1664 22.6692 48.4317 22.806 48.663 22.9903L48.672 22.9948L48.681 23.0038L48.7035 23.0218L48.771 23.0803L48.978 23.2603C49.14 23.4133 49.3605 23.6203 49.617 23.8993C50.1255 24.4528 50.787 25.2583 51.4395 26.3293C52.749 28.4893 54.018 31.6978 54.018 35.9953C54.018 40.2883 52.749 43.5013 51.4395 45.6613C50.9145 46.5314 50.304 47.3469 49.617 48.0958C49.3308 48.4066 49.0274 48.7011 48.708 48.9778L48.672 49.0093H48.6675C48.6675 49.0093 46.656 50.1028 45.504 48.6583C45.1336 48.1948 44.9612 47.6038 45.0244 47.0138C45.0876 46.4239 45.3813 45.8828 45.8415 45.5083L45.8505 45.4993L45.9315 45.4273C46.0125 45.3508 46.1475 45.2248 46.314 45.0448C46.7959 44.5155 47.224 43.9397 47.592 43.3258C48.537 41.7733 49.518 39.3568 49.518 35.9908C49.518 32.6293 48.537 30.2173 47.592 28.6693C47.1293 27.9055 46.573 27.2026 45.936 26.5768C45.6899 26.3978 45.4827 26.1707 45.327 25.9093C45.1712 25.6479 45.07 25.3576 45.0296 25.056C44.9892 24.7544 45.0105 24.4477 45.092 24.1545C45.1735 23.8613 45.3137 23.5877 45.504 23.3503M53.163 13.9903C52.9327 13.7996 52.6666 13.6568 52.3804 13.5702C52.0943 13.4836 51.7937 13.4548 51.4963 13.4857C51.1989 13.5165 50.9106 13.6064 50.6483 13.7499C50.386 13.8934 50.155 14.0878 49.9687 14.3217C49.7824 14.5555 49.6445 14.8242 49.5632 15.1119C49.4819 15.3997 49.4588 15.7007 49.4952 15.9975C49.5316 16.2943 49.6268 16.5808 49.7752 16.8404C49.9236 17.1 50.1222 17.3274 50.3595 17.5093L50.409 17.5543L50.643 17.7568C50.8545 17.9458 51.165 18.2383 51.5475 18.6343C52.3125 19.4308 53.3475 20.6278 54.3825 22.2073C56.4525 25.3618 58.5225 30.0058 58.5225 36.0178C58.5341 40.9231 57.0936 45.7222 54.3825 49.8103C53.3475 51.3853 52.3125 52.5733 51.5475 53.3653C51.1857 53.7419 50.8073 54.1022 50.4135 54.4453L50.364 54.4903H50.3595C49.9054 54.8661 49.6169 55.4052 49.556 55.9915C49.4952 56.5778 49.6669 57.1646 50.0342 57.6257C50.4015 58.0867 50.9351 58.3852 51.5202 58.4569C52.1053 58.5287 52.6952 58.3679 53.163 58.0093L53.3115 57.8878L53.649 57.5953C53.9325 57.3388 54.324 56.9743 54.7875 56.4928C56.0348 55.196 57.1587 53.7859 58.1445 52.2808C61.3357 47.4583 63.0312 41.8005 63.018 36.0178C63.0294 30.2297 61.3342 24.5667 58.1445 19.7368C57.159 18.2298 56.0367 16.8169 54.792 15.5158C54.3216 15.027 53.8291 14.56 53.316 14.1163L53.2125 14.0308L53.181 14.0038L53.172 13.9948L53.163 13.9903Z" fill="#282828"/>
<path d="M81 85L-1 0" stroke="black" stroke-width="5"/>
</g>
<defs>
<clipPath id="clip0_283_457">
<rect width="72" height="72" fill="white"/>
</clipPath>
</defs>
</svg>
