<svg width="72" height="72" viewBox="0 0 72 72" fill="none" xmlns="http://www.w3.org/2000/svg">
<path d="M56.0751 29.249C56.0765 29.8367 55.9259 30.4146 55.6377 30.9268C55.3496 31.4389 54.9339 31.8678 54.4309 32.1717L23.2613 51.2396C22.7358 51.5613 22.1339 51.737 21.5178 51.7484C20.9017 51.7598 20.2937 51.6066 19.7566 51.3045C19.2247 51.007 18.7816 50.5733 18.4728 50.0478C18.1641 49.5224 18.0009 48.9241 18 48.3147V10.1834C18.0009 9.5739 18.1641 8.97569 18.4728 8.45022C18.7816 7.92476 19.2247 7.49102 19.7566 7.19359C20.2937 6.89148 20.9017 6.73821 21.5178 6.74962C22.1339 6.76103 22.7358 6.9367 23.2613 7.25849L54.4309 26.3263C54.9339 26.6302 55.3496 27.0591 55.6377 27.5712C55.9259 28.0834 56.0765 28.6614 56.0751 29.249Z" fill="white"/>
</svg>
