<svg width="72" height="72" viewBox="0 0 72 72" fill="none" xmlns="http://www.w3.org/2000/svg">
<path fill-rule="evenodd" clip-rule="evenodd" d="M26.257 7.16867C22.0204 8.60083 18.1867 10.9365 15 13.9759V8.07422C15 6.69351 13.8807 5.57422 12.5 5.57422H11.5C10.1193 5.57422 9 6.69351 9 8.07422V22.291C9 23.7875 10.0958 25.0286 11.5293 25.2544C12.0242 25.4503 12.5722 25.4843 13.0927 25.3457C13.1529 25.3297 13.2122 25.3115 13.2706 25.2911H26.2143C27.595 25.2911 28.7143 24.1718 28.7143 22.7911V21.791C28.7143 20.4102 27.595 19.291 26.2143 19.291H18.1765C20.9101 16.3741 24.3381 14.1511 28.1784 12.8529C33.791 10.9556 39.9018 11.163 45.3729 13.4366C50.844 15.7102 55.3026 19.8951 57.9185 25.2121C60.5344 30.5291 61.1292 36.6158 59.5922 42.3388C58.0551 48.0619 54.4909 53.031 49.5634 56.3212C44.636 59.6113 38.681 60.9982 32.8073 60.2238C26.9336 59.4493 21.5413 56.5662 17.6347 52.1112C13.728 47.6562 11.5731 41.9329 11.5714 36.0069L11.5713 35.5068C11.5709 34.1261 10.4513 33.0072 9.07058 33.0075L8.07058 33.0078C7.40754 33.008 6.77173 33.2716 6.30302 33.7406C5.83431 34.2095 5.5711 34.8455 5.57129 35.5085L5.57143 36.0086C5.57353 43.3895 8.25745 50.5182 13.1236 56.0673C17.9897 61.6164 24.7063 65.2078 32.023 66.1725C39.3396 67.1372 46.7574 65.4095 52.8952 61.3113C59.0329 57.213 63.4723 51.0235 65.3868 43.8952C67.3013 36.767 66.5604 29.1858 63.3022 22.5632C60.044 15.9406 54.4904 10.7279 47.6753 7.89581C40.8603 5.0637 33.2484 4.80528 26.257 7.16867Z" fill="#282828"/>
</svg>
