<svg width="33" height="33" viewBox="0 0 33 33" fill="none" xmlns="http://www.w3.org/2000/svg">
<rect x="0.5" y="0.5" width="32" height="32" rx="16" fill="white"/>
<path fill-rule="evenodd" clip-rule="evenodd" d="M15.6759 25.9343C15.4493 25.9343 15.2656 25.7506 15.2656 25.524V7.47276C15.2656 7.24618 15.4493 7.0625 15.6759 7.0625H17.3169C17.5435 7.0625 17.7272 7.24618 17.7272 7.47276V25.524C17.7272 25.7506 17.5435 25.9343 17.3169 25.9343H15.6759Z" fill="black"/>
<path fill-rule="evenodd" clip-rule="evenodd" d="M15.6759 25.9343C15.4493 25.9343 15.2656 25.7506 15.2656 25.524V7.47276C15.2656 7.24618 15.4493 7.0625 15.6759 7.0625H17.3169C17.5435 7.0625 17.7272 7.24618 17.7272 7.47276V25.524C17.7272 25.7506 17.5435 25.9343 17.3169 25.9343H15.6759Z" fill="black" fill-opacity="0.2"/>
<path fill-rule="evenodd" clip-rule="evenodd" d="M7.0657 15.6759C7.0657 15.4493 7.24938 15.2656 7.47596 15.2656L25.5272 15.2656C25.7538 15.2656 25.9375 15.4493 25.9375 15.6759L25.9375 17.3169C25.9375 17.5435 25.7538 17.7272 25.5272 17.7272L7.47596 17.7272C7.24938 17.7272 7.0657 17.5435 7.0657 17.3169L7.0657 15.6759Z" fill="black"/>
<path fill-rule="evenodd" clip-rule="evenodd" d="M7.0657 15.6759C7.0657 15.4493 7.24938 15.2656 7.47596 15.2656L25.5272 15.2656C25.7538 15.2656 25.9375 15.4493 25.9375 15.6759L25.9375 17.3169C25.9375 17.5435 25.7538 17.7272 25.5272 17.7272L7.47596 17.7272C7.24938 17.7272 7.0657 17.5435 7.0657 17.3169L7.0657 15.6759Z" fill="black" fill-opacity="0.2"/>
</svg>
