<svg width="41" height="41" viewBox="0 0 41 41" fill="none" xmlns="http://www.w3.org/2000/svg">
<circle cx="20.0508" cy="20.5" r="20" fill="#FDFDFF"/>
<path d="M17.4535 22.4545V22.1136C17.4535 21.3324 17.515 20.7098 17.6381 20.2457C17.7612 19.7817 17.9435 19.41 18.185 19.1307C18.4265 18.8466 18.7224 18.5909 19.0728 18.3636C19.3758 18.1648 19.6457 17.973 19.8825 17.7884C20.1239 17.6037 20.3133 17.4072 20.4506 17.1989C20.5927 16.9905 20.6637 16.7538 20.6637 16.4886C20.6637 16.2519 20.6069 16.0436 20.4933 15.8636C20.3796 15.6837 20.2257 15.544 20.0316 15.4446C19.8375 15.3452 19.622 15.2955 19.3853 15.2955C19.1296 15.2955 18.8929 15.3546 18.6751 15.473C18.462 15.5914 18.2892 15.7547 18.1566 15.9631C18.0288 16.1714 17.9648 16.4129 17.9648 16.6875H14.3285C14.3379 15.6458 14.5747 14.8007 15.0387 14.152C15.5027 13.4986 16.1183 13.0204 16.8853 12.7173C17.6523 12.4096 18.4951 12.2557 19.4137 12.2557C20.427 12.2557 21.3313 12.4048 22.1268 12.7031C22.9222 12.9967 23.5496 13.4418 24.0089 14.0384C24.4682 14.6302 24.6978 15.3712 24.6978 16.2614C24.6978 16.8343 24.5984 17.3385 24.3995 17.7741C24.2054 18.205 23.9331 18.5862 23.5827 18.9176C23.2371 19.2443 22.8323 19.5426 22.3683 19.8125C22.0273 20.0114 21.7409 20.2173 21.5089 20.4304C21.2769 20.6387 21.1017 20.8778 20.9833 21.1477C20.8649 21.4129 20.8058 21.7348 20.8058 22.1136V22.4545H17.4535ZM19.1864 27.2273C18.6372 27.2273 18.1661 27.0355 17.7731 26.652C17.3848 26.2637 17.1931 25.7926 17.1978 25.2386C17.1931 24.6989 17.3848 24.2372 17.7731 23.8537C18.1661 23.4702 18.6372 23.2784 19.1864 23.2784C19.7073 23.2784 20.1665 23.4702 20.5643 23.8537C20.9667 24.2372 21.1703 24.6989 21.1751 25.2386C21.1703 25.608 21.0733 25.9441 20.8839 26.2472C20.6992 26.5455 20.4577 26.7846 20.1594 26.9645C19.8612 27.1397 19.5368 27.2273 19.1864 27.2273Z" fill="black"/>
</svg>
