<svg width="22" height="22" viewBox="0 0 22 22" fill="none" xmlns="http://www.w3.org/2000/svg">
<path d="M7.79167 10.5417C8.15634 10.5417 8.50608 10.3968 8.76394 10.1389C9.0218 9.88108 9.16667 9.53134 9.16667 9.16667C9.16667 8.80199 9.0218 8.45226 8.76394 8.1944C8.50608 7.93653 8.15634 7.79167 7.79167 7.79167C7.42699 7.79167 7.07726 7.93653 6.81939 8.1944C6.56153 8.45226 6.41667 8.80199 6.41667 9.16667C6.41667 9.53134 6.56153 9.88108 6.81939 10.1389C7.07726 10.3968 7.42699 10.5417 7.79167 10.5417ZM7.58267 14.0562C7.50273 13.9652 7.40557 13.891 7.29679 13.8378C7.188 13.7846 7.06976 13.7535 6.94888 13.7462C6.82801 13.739 6.70689 13.7558 6.59254 13.7956C6.47818 13.8354 6.37286 13.8975 6.28264 13.9783C6.19242 14.0591 6.1191 14.1569 6.06691 14.2662C6.01472 14.3755 5.9847 14.494 5.97858 14.6149C5.97247 14.7359 5.99037 14.8568 6.03126 14.9708C6.07216 15.0848 6.13523 15.1895 6.21683 15.279C6.81887 15.9517 7.55608 16.4899 8.38031 16.8582C9.20453 17.2266 10.0972 17.4169 11 17.4167C11.9028 17.4169 12.7955 17.2266 13.6197 16.8582C14.4439 16.4899 15.1811 15.9517 15.7832 15.279C15.9427 15.0975 16.0241 14.8603 16.0096 14.6191C15.9952 14.3779 15.8861 14.1522 15.706 13.991C15.526 13.8298 15.2896 13.7462 15.0483 13.7584C14.8069 13.7706 14.5802 13.8776 14.4173 14.0562C13.9872 14.5368 13.4605 14.9213 12.8717 15.1845C12.2828 15.4477 11.645 15.5836 11 15.5833C9.64333 15.5833 8.42417 14.9948 7.58267 14.0562ZM15.5833 9.16667C15.5833 9.53134 15.4385 9.88108 15.1806 10.1389C14.9227 10.3968 14.573 10.5417 14.2083 10.5417C13.8437 10.5417 13.4939 10.3968 13.2361 10.1389C12.9782 9.88108 12.8333 9.53134 12.8333 9.16667C12.8333 8.80199 12.9782 8.45226 13.2361 8.1944C13.4939 7.93653 13.8437 7.79167 14.2083 7.79167C14.573 7.79167 14.9227 7.93653 15.1806 8.1944C15.4385 8.45226 15.5833 8.80199 15.5833 9.16667ZM22 11C22 9.55546 21.7155 8.12506 21.1627 6.79048C20.6099 5.4559 19.7996 4.24327 18.7782 3.22183C17.7567 2.20038 16.5441 1.39013 15.2095 0.837325C13.8749 0.284523 12.4445 0 11 0C9.55546 0 8.12506 0.284523 6.79048 0.837325C5.4559 1.39013 4.24327 2.20038 3.22183 3.22183C2.20038 4.24327 1.39013 5.4559 0.837325 6.79048C0.284523 8.12506 -2.15253e-08 9.55546 0 11C4.34724e-08 13.9174 1.15893 16.7153 3.22183 18.7782C5.28473 20.8411 8.08262 22 11 22C13.9174 22 16.7153 20.8411 18.7782 18.7782C20.8411 16.7153 22 13.9174 22 11ZM1.83333 11C1.83333 8.56885 2.7991 6.23727 4.51819 4.51819C6.23727 2.7991 8.56885 1.83333 11 1.83333C13.4312 1.83333 15.7627 2.7991 17.4818 4.51819C19.2009 6.23727 20.1667 8.56885 20.1667 11C20.1667 13.4312 19.2009 15.7627 17.4818 17.4818C15.7627 19.2009 13.4312 20.1667 11 20.1667C8.56885 20.1667 6.23727 19.2009 4.51819 17.4818C2.7991 15.7627 1.83333 13.4312 1.83333 11Z" fill="black"/>
</svg>
