<svg width="486" height="412" viewBox="0 0 486 412" fill="none" xmlns="http://www.w3.org/2000/svg">
<path d="M448.036 342.257C447.933 342.257 449.545 335.227 449.694 334.792C451.454 329.797 457.81 321.166 463.743 321.326C464.729 321.379 465.693 321.639 466.572 322.09C467.451 322.541 468.225 323.172 468.843 323.942C469.461 324.713 469.91 325.605 470.16 326.561C470.41 327.516 470.455 328.514 470.293 329.488C469.755 333.638 465.926 337.102 462.485 339.068C458.438 341.377 448.047 342.257 448.036 342.257Z" fill="#263238"/>
<path d="M448.698 313.656C448.595 313.656 451.247 306.935 451.465 306.534C453.968 301.848 461.547 294.28 467.388 295.343C468.354 295.545 469.267 295.949 470.067 296.527C470.867 297.105 471.537 297.845 472.032 298.699C472.527 299.554 472.836 300.502 472.94 301.484C473.044 302.465 472.94 303.458 472.635 304.397C471.492 308.432 467.16 311.256 463.49 312.684C459.112 314.365 448.71 313.656 448.698 313.656Z" fill="#263238"/>
<path d="M456.152 281.866C456.038 281.866 458.69 275.144 458.907 274.744C461.41 270.069 469.001 262.501 474.842 263.553C475.809 263.756 476.721 264.161 477.521 264.74C478.321 265.32 478.989 266.062 479.483 266.917C479.977 267.772 480.286 268.722 480.388 269.704C480.49 270.687 480.385 271.679 480.078 272.618C478.934 276.642 474.602 279.477 470.933 280.906C466.566 282.575 456.152 281.866 456.152 281.866Z" fill="#263238"/>
<path d="M461.718 251.55C461.604 251.55 464.256 244.828 464.473 244.417C466.977 239.741 474.567 232.174 480.409 233.237C481.375 233.439 482.288 233.842 483.088 234.42C483.888 234.999 484.557 235.739 485.052 236.593C485.547 237.447 485.856 238.396 485.96 239.377C486.064 240.359 485.96 241.352 485.655 242.29C484.512 246.326 480.168 249.149 476.51 250.578C472.132 252.247 461.718 251.55 461.718 251.55Z" fill="#263238"/>
<path d="M459.353 225.201C459.239 225.201 460.028 218.045 460.13 217.599C461.274 212.421 466.623 203.116 472.545 202.601C473.53 202.543 474.516 202.692 475.439 203.039C476.363 203.386 477.203 203.924 477.904 204.617C478.606 205.311 479.154 206.144 479.513 207.063C479.872 207.982 480.033 208.966 479.986 209.952C479.986 214.147 476.557 218.022 473.334 220.366C469.584 223.086 459.353 225.201 459.353 225.201Z" fill="#263238"/>
<path d="M445.155 341.48C445.258 341.48 444.114 334.369 444.012 333.935C442.583 328.825 436.81 319.795 430.877 319.566C429.889 319.555 428.91 319.752 428.004 320.144C427.098 320.537 426.284 321.116 425.616 321.844C424.949 322.572 424.442 323.433 424.129 324.37C423.817 325.307 423.705 326.299 423.801 327.282C424.064 331.466 427.665 335.17 430.969 337.353C434.832 339.925 445.143 341.48 445.155 341.48Z" fill="#263238"/>
<path d="M448.287 309.678C448.402 309.678 446.184 302.819 446.001 302.385C443.806 297.55 436.731 289.502 430.832 290.177C429.855 290.316 428.918 290.66 428.082 291.186C427.246 291.711 426.53 292.407 425.982 293.228C425.433 294.048 425.063 294.976 424.896 295.949C424.729 296.922 424.769 297.919 425.014 298.876C425.905 302.968 430.032 306.089 433.621 307.746C437.851 309.701 448.276 309.678 448.287 309.678Z" fill="#263238"/>
<path d="M455.374 279.705C455.477 279.705 453.271 272.846 453.088 272.423C450.905 267.588 443.829 259.54 437.93 260.215C436.953 260.353 436.016 260.695 435.18 261.22C434.344 261.744 433.627 262.439 433.077 263.258C432.527 264.078 432.156 265.004 431.988 265.976C431.819 266.949 431.858 267.946 432.1 268.902C433.003 273.006 437.118 276.115 440.719 277.784C444.937 279.728 455.363 279.705 455.374 279.705Z" fill="#263238"/>
<path d="M460.553 251.813C460.667 251.813 458.45 244.955 458.267 244.52C456.072 239.696 449.008 231.649 443.098 232.323C442.121 232.461 441.184 232.803 440.348 233.328C439.512 233.852 438.797 234.547 438.248 235.367C437.699 236.187 437.329 237.113 437.162 238.086C436.995 239.058 437.035 240.055 437.279 241.011C438.171 245.115 442.297 248.224 445.898 249.881C450.116 251.836 460.553 251.813 460.553 251.813Z" fill="#263238"/>
<path d="M459.135 226.059C459.249 226.059 456.3 219.463 456.06 219.063C453.351 214.491 445.441 207.277 439.645 208.603C438.689 208.848 437.795 209.292 437.021 209.906C436.248 210.52 435.613 211.29 435.158 212.166C434.703 213.042 434.437 214.004 434.379 214.99C434.321 215.975 434.472 216.962 434.821 217.886C436.158 221.852 440.594 224.504 444.355 225.75C448.767 227.225 459.135 226.059 459.135 226.059Z" fill="#263238"/>
<path d="M452.894 203.265C452.986 203.265 453.409 196.097 453.386 195.64C453.077 190.336 449.385 180.276 443.635 178.779C442.673 178.557 441.676 178.54 440.707 178.729C439.739 178.918 438.821 179.308 438.013 179.876C437.205 180.443 436.526 181.174 436.02 182.021C435.513 182.868 435.191 183.812 435.073 184.792C434.433 188.941 437.154 193.331 439.908 196.223C443.144 199.515 452.883 203.253 452.894 203.265Z" fill="#263238"/>
<path d="M447.098 380.666C447.098 380.666 446.721 377.637 446.263 372.378C445.806 367.12 445.28 359.598 445.04 350.556C444.914 345.984 444.869 341.137 444.96 335.947C444.96 333.341 445.097 330.734 445.2 327.945C445.292 326.596 445.395 325.236 445.486 323.853C445.578 322.469 445.806 321.052 445.955 319.635C446.738 313.864 447.833 308.14 449.236 302.488C450.642 296.715 452.242 290.919 453.808 285.135C455.374 279.351 456.917 273.567 458.129 267.817C459.362 262.202 460.191 256.506 460.61 250.773C460.904 245.406 460.72 240.023 460.061 234.689C459.52 229.854 458.691 225.056 457.58 220.32C456.574 215.942 455.397 211.987 454.322 208.5C453.248 205.014 452.139 202.019 451.225 199.561C449.361 194.645 448.092 191.925 448.092 191.925C448.092 191.925 449.418 194.623 451.385 199.492C452.368 201.927 453.499 204.911 454.688 208.374C455.877 211.838 457.112 215.782 458.209 220.16C459.443 224.863 460.401 229.634 461.078 234.449C461.865 239.837 462.171 245.285 461.993 250.727C461.687 256.539 460.973 262.322 459.855 268.034C458.712 273.864 457.34 279.717 455.888 285.547C454.437 291.377 452.916 297.218 451.647 302.934C450.387 308.524 449.433 314.18 448.79 319.875C448.675 321.258 448.47 322.572 448.424 323.967C448.378 325.362 448.287 326.722 448.218 328.071C448.218 330.677 448.138 333.375 448.161 335.924C448.161 341.057 448.332 345.904 448.561 350.373C448.984 359.324 449.704 366.766 450.241 371.955C450.779 377.145 451.236 380.072 451.236 380.072C451.276 380.342 451.262 380.619 451.195 380.884C451.128 381.15 451.009 381.399 450.846 381.619C450.682 381.839 450.477 382.024 450.242 382.165C450.007 382.305 449.747 382.398 449.476 382.438C449.205 382.478 448.928 382.464 448.663 382.397C448.397 382.33 448.148 382.211 447.928 382.048C447.708 381.884 447.523 381.679 447.382 381.444C447.242 381.209 447.149 380.948 447.109 380.677V380.666H447.098Z" fill="#263238"/>
<path d="M434.387 368.857H462.885V374.756H460.404L455.26 406.946H442.023L436.867 374.756H434.387V368.857Z" fill="#263238" stroke="#263238" stroke-linecap="round" stroke-linejoin="round"/>
<path d="M246.605 390.383C246.605 390.383 245.622 396.179 246.342 397.482C247.062 398.785 248.217 400.5 248.217 400.5H257.293L257.785 397.699C259.036 399.089 260.572 400.192 262.288 400.934C264.7 401.792 267.032 400.934 269.856 401.152C272.245 401.334 277.858 401.152 277.858 401.152L277.698 398.122L261.317 390.783L255.453 386.211C255.453 386.211 250.308 390.852 246.605 390.383Z" fill="#263238" stroke="#263238" stroke-linecap="round" stroke-linejoin="round"/>
<path d="M179.001 390.383C179.001 390.383 180.556 395.104 179.984 396.396C179.412 397.687 178.475 400.499 178.475 400.499H169.41L168.61 397.699C167.506 399.094 166.083 400.204 164.46 400.934C162.174 401.791 159.705 400.934 156.916 401.151C154.55 401.334 148.914 401.151 148.914 401.151L148.754 398.122L164.335 390.783L170.519 387.354C170.519 387.354 175.343 390.851 179.001 390.383Z" fill="#263238" stroke="#263238" stroke-linecap="round" stroke-linejoin="round"/>
<path d="M251.498 167.52C251.498 167.52 255.247 216.057 256.55 239.262C257.853 262.467 258.459 272.996 258.608 289.331C258.756 305.666 259.477 337.948 259.477 350.076C259.489 362.458 258.683 374.827 257.065 387.102L246.102 392.943C246.102 392.943 242.558 361.805 241.129 350.648C239.838 340.554 235.117 299.482 232.979 286.782C230.841 274.082 221.102 229.923 221.102 229.923C221.102 229.923 208.105 276.253 204.744 294.761C201.383 313.268 188.74 355.003 186.031 365.154C183.322 375.305 179.001 390.36 179.001 390.36C177.477 390.807 175.877 390.932 174.302 390.726C173.596 390.67 172.914 390.442 172.316 390.061C171.718 389.681 171.222 389.159 170.873 388.542C170.873 388.542 174.062 358.158 175.377 343.389C177.012 325.099 177.526 300.819 179.515 290.657C181.504 280.494 181.436 261.027 183.745 247.961C185.059 240.542 191.746 169.566 191.746 169.566C191.746 169.566 228.829 184.575 251.498 167.52Z" fill="#263238" stroke="#263238" stroke-linecap="round" stroke-linejoin="round"/>
<path d="M257.065 387.103L248.525 394.03" stroke="white" stroke-width="0.5" stroke-linecap="round" stroke-linejoin="round"/>
<path d="M170.531 387.331L177.31 392.532" stroke="white" stroke-width="0.5" stroke-linecap="round" stroke-linejoin="round"/>
<path d="M226.703 183.854L226.018 212.158L230.819 207.369" stroke="white" stroke-width="0.5" stroke-linecap="round" stroke-linejoin="round"/>
<path d="M223.709 229.1L237.346 212.136" stroke="white" stroke-width="0.5" stroke-linecap="round" stroke-linejoin="round"/>
<path d="M241.13 213.37L229.756 224.527" stroke="white" stroke-width="0.5" stroke-linecap="round" stroke-linejoin="round"/>
<path d="M215.592 214.616C212.073 206.827 206.06 200.431 198.502 196.44" stroke="white" stroke-width="0.5" stroke-linecap="round" stroke-linejoin="round"/>
<path d="M232.934 176.196L232.283 179.511L226.979 180.746L227.584 176.619" stroke="white" stroke-width="0.5" stroke-linecap="round" stroke-linejoin="round"/>
<path d="M226.979 180.746C226.979 180.746 217.045 180.334 212.004 178.677L213.067 175.373" stroke="white" stroke-width="0.5" stroke-linecap="round" stroke-linejoin="round"/>
<path d="M208.471 174.55L207.465 178.676C207.465 178.676 199.589 178.265 198.32 177.03" stroke="white" stroke-width="0.5" stroke-linecap="round" stroke-linejoin="round"/>
<path d="M232.281 179.477C234.985 179.397 237.634 178.693 240.02 177.419L243.621 175.35L242.226 172.458" stroke="white" stroke-width="0.5" stroke-linecap="round" stroke-linejoin="round"/>
<path d="M256.39 72.5371C256.39 72.5371 263.568 78.7671 265.718 82.8824C267.867 86.9976 296.079 144.52 295.965 148.452C295.85 152.384 291.678 159.883 284.316 159.883C276.954 159.883 249.051 115.05 249.051 115.05L256.39 72.5371Z" fill="white"/>
<mask id="mask0_9587_28925" style="mask-type:luminance" maskUnits="userSpaceOnUse" x="249" y="72" width="47" height="88">
<path d="M256.39 72.5371C256.39 72.5371 263.568 78.7671 265.718 82.8824C267.867 86.9976 296.079 144.52 295.965 148.452C295.85 152.384 291.678 159.883 284.316 159.883C276.954 159.883 249.051 115.05 249.051 115.05L256.39 72.5371Z" fill="white"/>
</mask>
<g mask="url(#mask0_9587_28925)">
<g style="mix-blend-mode:multiply" opacity="0.5">
<path d="M257.27 79.442L257.75 79.705C258.596 80.1965 260.494 81.3053 262.574 82.6885C264.925 84.4918 267.068 86.5506 268.964 88.8271C268.964 88.8271 266.381 81.9683 262.597 78.6876C260.493 76.8797 258.536 74.9073 256.744 72.7891L257.27 79.442Z" fill="#D9E0F5"/>
</g>
</g>
<path d="M256.39 72.5371C256.39 72.5371 263.568 78.7671 265.718 82.8824C267.867 86.9976 296.079 144.52 295.965 148.452C295.85 152.384 291.678 159.883 284.316 159.883C276.954 159.883 249.051 115.05 249.051 115.05L256.39 72.5371Z" stroke="#263238" stroke-linecap="round" stroke-linejoin="round"/>
<path opacity="0.5" d="M274.371 132.688C273.422 131.545 266.369 120.194 265.649 115.953C264.929 111.712 266.792 106.282 266.792 103.447C266.792 100.612 262.311 108.397 262.071 107.459C261.831 106.522 259.008 96.3711 259.008 96.3711L250.354 107.562L249.062 115.073C249.062 115.073 259.991 132.62 269.982 145.754C277.092 143.468 287.826 139.981 290.135 138.587C293.713 136.472 275.32 133.877 274.371 132.688Z" fill="#D9E0F5"/>
<path d="M221.926 64.7646L256.437 72.5379C256.437 72.5379 258.838 90.222 258.563 99.7785C258.289 109.335 251.179 168.435 251.179 168.435C251.179 168.435 232.889 187.09 191.828 169.578C191.828 169.578 190.399 166.823 189.862 146.224C189.347 125.91 174.075 88.1873 175.298 83.8891C177.813 75.0756 208.014 66.6051 211.981 66.365C215.327 66.0469 218.649 65.5123 221.926 64.7646Z" fill="white" stroke="#263238" stroke-linecap="round" stroke-linejoin="round"/>
<g style="mix-blend-mode:multiply" opacity="0.5">
<path d="M225.047 168.332L193.439 155.94L198.904 95.9033L234.855 112.73L256.403 103.036L240.993 165.691L225.047 168.332Z" fill="#D9E0F5"/>
</g>
<g style="mix-blend-mode:multiply" opacity="0.5">
<path d="M234.396 75.132C235.871 75.132 249.508 77.864 257.259 79.4416C256.813 75.3949 256.424 72.5828 256.424 72.5828L221.913 64.8096C218.637 65.5611 215.315 66.0995 211.968 66.4214C208.002 66.6614 177.8 75.132 175.285 83.9454C174.885 85.3743 176.28 90.4498 178.349 97.3429C181.367 89.5582 184.065 83.1453 184.99 82.2422C187.071 80.1617 207.853 74.7662 207.853 74.7662L234.396 75.132Z" fill="#D9E0F5"/>
</g>
<path d="M231.299 82.4139L226.555 93.0221L236.958 166.525L229.333 176.813L222.097 168.423L224.12 93.9595L214.541 82.7797L220.668 71.1885L231.299 82.4139Z" fill="#263238"/>
<path d="M268.05 106.168L240.397 121.508L204.835 102.898L199.199 155.425L234.419 172.4L261.088 156.351L268.05 106.168Z" fill="#D9E0F5" stroke="#263238" stroke-linecap="round" stroke-linejoin="round"/>
<path d="M239.346 133.305L240.397 124.869" stroke="#263238" stroke-width="0.5" stroke-linecap="round" stroke-linejoin="round"/>
<path d="M234.42 172.401L238.764 137.936" stroke="#263238" stroke-width="0.5" stroke-linecap="round" stroke-linejoin="round"/>
<path d="M225.138 61.8146C225.138 61.8146 231.368 61.8146 234.077 65.9298C236.786 70.045 241.988 86.3117 241.988 86.3117L223.24 81.0419L211.878 92.7818C211.878 92.7818 201.464 77.3496 205.705 67.553C209.946 57.7565 225.138 61.8146 225.138 61.8146Z" fill="white" stroke="#263238" stroke-linecap="round" stroke-linejoin="round"/>
<g style="mix-blend-mode:multiply" opacity="0.5">
<path d="M235.975 69.7366C235.438 68.4221 234.804 67.1497 234.077 65.93C231.368 61.7576 225.138 61.8147 225.138 61.8147C225.138 61.8147 209.969 57.7566 205.705 67.5304C204.333 70.6968 204.562 74.4577 205.35 78.0928C206.094 76.1495 207.774 72.2514 209.923 70.0909C212.827 67.1874 213.169 69.7137 213.169 69.7137L229.425 68.422C231.578 68.9996 233.766 69.4387 235.975 69.7366Z" fill="#D9E0F5"/>
</g>
<path d="M227.812 52.3496C227.812 52.3496 228.864 73.9775 226.131 78.2414C223.399 82.5052 220.29 80.8705 218.015 78.2414C215.74 75.6122 213.168 69.7365 213.168 69.7365L210.391 53.7328C210.391 53.7328 226.577 56.7163 227.812 52.3496Z" fill="white" stroke="#263238" stroke-linecap="round" stroke-linejoin="round"/>
<g style="mix-blend-mode:multiply" opacity="0.5">
<path d="M221.947 69.7369C224.302 69.0624 226.392 67.6819 227.937 65.7817C227.937 64.5586 227.937 63.3468 227.937 62.1694C225.274 59.1173 219.158 53.356 212.345 55.2078C211.762 55.3678 211.202 55.5507 210.688 55.7336L213.157 69.7369C213.157 69.7369 215.74 75.6583 218.003 78.2418L215.717 68.0336C216.515 68.8394 217.51 69.421 218.604 69.72C219.698 70.0189 220.851 70.0248 221.947 69.7369Z" fill="#D9E0F5"/>
</g>
<path d="M237.347 32.6762C237.347 32.6762 240.479 32.4476 240.548 37.6717C240.616 42.8957 237.541 47.2853 235.426 45.4678C233.312 43.6502 236.764 30.2985 237.347 32.6762Z" fill="white" stroke="#263238" stroke-linecap="round" stroke-linejoin="round"/>
<path d="M215.843 5.63013C201.588 8.99091 197.77 18.2045 197.885 26.5493C197.885 29.7386 199.359 35.2599 201.314 41.0784L201.063 40.5526C201.063 40.5526 196.776 33.0765 196.147 37.569C195.518 42.0615 199.759 46.714 201.165 48.2115C201.556 48.5709 202.059 48.7834 202.588 48.8126C203.118 48.8418 203.642 48.6859 204.069 48.3715C206.904 55.2303 210.07 61.3688 212.139 63.0378C216.62 66.6615 222.919 68.5248 227.926 64.1809C232.933 59.837 237.883 35.0656 237.883 35.0656C239.071 10.0083 230.098 2.29221 215.843 5.63013Z" fill="white"/>
<mask id="mask1_9587_28925" style="mask-type:luminance" maskUnits="userSpaceOnUse" x="196" y="4" width="42" height="63">
<path d="M215.843 5.63013C201.588 8.99091 197.77 18.2045 197.885 26.5493C197.885 29.7386 199.359 35.2599 201.314 41.0784L201.063 40.5526C201.063 40.5526 196.776 33.0765 196.147 37.569C195.518 42.0615 199.759 46.714 201.165 48.2115C201.556 48.5709 202.059 48.7834 202.588 48.8126C203.118 48.8418 203.642 48.6859 204.069 48.3715C206.904 55.2303 210.07 61.3688 212.139 63.0378C216.62 66.6615 222.919 68.5248 227.926 64.1809C232.933 59.837 237.883 35.0656 237.883 35.0656C239.071 10.0083 230.098 2.29221 215.843 5.63013Z" fill="white"/>
</mask>
<g mask="url(#mask1_9587_28925)">
<g style="mix-blend-mode:multiply" opacity="0.5">
<path d="M208.253 32.0131C208.253 32.0131 213.225 27.8636 218.209 27.8636C223.193 27.8636 233.573 32.436 234.808 36.1626C235.562 38.4489 234.67 45.822 233.836 51.4233C236.236 43.5358 237.928 35.0995 237.928 35.0995C239.071 10.0537 230.086 2.31474 215.843 5.67553C201.6 9.03631 197.77 18.2499 197.885 26.5947C197.885 29.784 199.359 35.3053 201.314 41.1238L201.063 40.598C201.063 40.598 196.776 33.1219 196.147 37.6144C195.518 42.1069 199.759 46.7594 201.165 48.2569C201.556 48.6163 202.059 48.8288 202.588 48.858C203.118 48.8872 203.642 48.7313 204.069 48.4169C206.904 55.2757 210.07 61.4142 212.139 63.0832C212.139 63.0832 207.373 52.3493 205.715 47.7882C204.058 43.2271 204.515 35.2939 208.253 32.0131Z" fill="#D9E0F5"/>
</g>
</g>
<path d="M215.843 5.63013C201.588 8.99091 197.77 18.2045 197.885 26.5493C197.885 29.7386 199.359 35.2599 201.314 41.0784L201.063 40.5526C201.063 40.5526 196.776 33.0765 196.147 37.569C195.518 42.0615 199.759 46.714 201.165 48.2115C201.556 48.5709 202.059 48.7834 202.588 48.8126C203.118 48.8418 203.642 48.6859 204.069 48.3715C206.904 55.2303 210.07 61.3688 212.139 63.0378C216.62 66.6615 222.919 68.5248 227.926 64.1809C232.933 59.837 237.883 35.0656 237.883 35.0656C239.071 10.0083 230.098 2.29221 215.843 5.63013Z" stroke="#263238" stroke-linecap="round" stroke-linejoin="round"/>
<path d="M232.602 42.3594C231.888 43.4328 230.781 44.1829 229.52 44.4481C228.258 44.7132 226.943 44.4721 225.857 43.7768" stroke="#263238" stroke-linecap="round" stroke-linejoin="round"/>
<path d="M217.387 43.8682C216.673 44.9416 215.566 45.6917 214.305 45.9569C213.043 46.222 211.728 45.9809 210.643 45.2856" stroke="#263238" stroke-linecap="round" stroke-linejoin="round"/>
<path d="M218.119 40.4159C216.276 39.4913 214.282 38.9066 212.231 38.6898C209.511 38.5755 206.836 40.7932 206.836 40.7932" stroke="#263238" stroke-linecap="round" stroke-linejoin="round"/>
<path d="M224.681 51.9609C224.584 52.6556 224.218 53.2844 223.663 53.712C223.107 54.1396 222.405 54.3318 221.709 54.2472C220.982 54.2693 220.263 54.0898 219.631 53.7287C219 53.3676 218.481 52.8389 218.131 52.201" stroke="#263238" stroke-linecap="round" stroke-linejoin="round"/>
<path d="M227.082 57.4824C227.082 57.4824 220.406 59.4715 216.119 57.7453C216.679 58.7522 217.445 59.6298 218.367 60.3211C219.289 61.0124 220.346 61.5019 221.469 61.7577C224.007 62.4321 227.082 57.4824 227.082 57.4824Z" fill="#263238"/>
<path d="M233.437 37.4089C233.437 37.4089 230.933 37.1917 228.567 37.2146C226.395 37.2146 224.235 40.0381 224.235 40.0381L223.469 43.4675" stroke="#263238" stroke-linecap="round" stroke-linejoin="round"/>
<path d="M212.837 25.0749C218.021 29.4163 223.686 33.1482 229.721 36.1975C239.552 41.113 247.096 31.625 242.489 26.9611C237.883 22.2972 248.491 32.0823 250.16 26.2295C251.829 20.3767 236.557 0.292028 221.216 0.00624749C205.875 -0.279533 202.16 9.33414 202.16 9.33414C202.16 9.33414 200.354 4.38441 198.994 7.11648C198.202 8.60338 197.75 10.2467 197.668 11.929C197.668 11.929 194.558 14.2153 193.187 15.5756C191.815 16.9359 193.575 18.3762 193.575 18.3762C193.575 18.3762 190.832 25.235 192.295 30.5276L200.171 41.9589C201.121 41.9281 202.051 41.6791 202.89 41.2311C203.728 40.7831 204.453 40.1482 205.006 39.3754C207.064 36.6777 205.555 28.2643 205.555 28.2643C205.555 28.2643 205.681 37.3178 208.093 35.3288C210.505 33.3397 206.95 24.492 206.95 24.492L212.837 25.0749Z" fill="#263238"/>
<path d="M205.99 15.7246C205.99 15.7246 213.009 21.0058 218.084 25.8298C223.16 30.6538 230.899 32.5057 233.197 31.4426" stroke="white" stroke-width="0.5" stroke-miterlimit="10" stroke-linecap="round"/>
<path d="M227.676 22.3655C227.676 22.3655 217.617 20.0793 215.25 15.7125C212.884 11.3458 205.557 11.8602 205.557 11.8602C207.387 10.1723 209.62 8.98307 212.042 8.40657C214.464 7.83007 216.994 7.88567 219.388 8.56803" stroke="white" stroke-width="0.5" stroke-miterlimit="10" stroke-linecap="round"/>
<path d="M202.172 17.8848C202.172 17.8848 210.037 29.739 205.075 33.3855" stroke="white" stroke-width="0.5" stroke-miterlimit="10" stroke-linecap="round"/>
<path d="M175.296 83.9004C175.296 83.9004 153.954 142.085 154.937 148.578C155.92 155.071 167.123 152.488 170.655 151.608C174.187 150.727 187.802 129.122 187.893 124.47C188.773 123.92 189.526 123.189 190.101 122.325C190.677 121.462 191.062 120.486 191.231 119.463C192.066 115.714 192.637 102.316 187.219 92.2681" fill="white"/>
<mask id="mask2_9587_28925" style="mask-type:luminance" maskUnits="userSpaceOnUse" x="154" y="83" width="38" height="70">
<path d="M175.296 83.9004C175.296 83.9004 153.954 142.085 154.937 148.578C155.92 155.071 167.123 152.488 170.655 151.608C174.187 150.727 187.802 129.122 187.893 124.47C188.773 123.92 189.526 123.189 190.101 122.325C190.677 121.462 191.062 120.486 191.231 119.463C192.066 115.714 192.637 102.316 187.219 92.2681" fill="white"/>
</mask>
<g mask="url(#mask2_9587_28925)">
<g style="mix-blend-mode:multiply" opacity="0.5">
<path d="M175.296 83.9004C175.296 83.9004 153.954 142.085 154.937 148.578C155.486 152.133 159.098 152.956 162.825 152.842C165.431 145.492 166.448 132.06 168.403 125.407C170.564 117.965 177.605 98.7038 181.892 88.5758L175.296 83.9004Z" fill="#D9E0F5"/>
</g>
</g>
<path d="M175.296 83.9004C175.296 83.9004 153.954 142.085 154.937 148.578C155.92 155.071 167.123 152.488 170.655 151.608C174.187 150.727 187.802 129.122 187.893 124.47C188.773 123.92 189.526 123.189 190.101 122.325C190.677 121.462 191.062 120.486 191.231 119.463C192.066 115.714 192.637 102.316 187.219 92.2681" stroke="#263238" stroke-linecap="round" stroke-linejoin="round"/>
<path d="M191.426 143.263C191.426 143.263 163.991 141.594 160.471 141.308C156.95 141.022 152.732 145.88 156.047 152.602C159.362 159.324 164.632 159.712 171.102 158.489C177.572 157.266 191.861 148.544 191.861 148.544L191.426 143.263Z" fill="white"/>
<mask id="mask3_9587_28925" style="mask-type:luminance" maskUnits="userSpaceOnUse" x="154" y="141" width="38" height="19">
<path d="M191.426 143.263C191.426 143.263 163.991 141.594 160.471 141.308C156.95 141.022 152.732 145.88 156.047 152.602C159.362 159.324 164.632 159.712 171.102 158.489C177.572 157.266 191.861 148.544 191.861 148.544L191.426 143.263Z" fill="white"/>
</mask>
<g mask="url(#mask3_9587_28925)">
<path opacity="0.5" d="M191.426 143.263C191.426 143.263 163.991 141.594 160.471 141.308C156.95 141.022 152.732 145.88 156.047 152.602C159.362 159.324 164.632 159.712 171.102 158.489C177.572 157.266 191.861 148.544 191.861 148.544L191.426 143.263Z" fill="#D9E0F5" stroke="#263238" stroke-linecap="round" stroke-linejoin="round"/>
</g>
<path d="M191.426 143.263C191.426 143.263 163.991 141.594 160.471 141.308C156.95 141.022 152.732 145.88 156.047 152.602C159.362 159.324 164.632 159.712 171.102 158.489C177.572 157.266 191.861 148.544 191.861 148.544L191.426 143.263Z" stroke="#263238" stroke-linecap="round" stroke-linejoin="round"/>
<path d="M195.805 136.576C195.805 136.576 199.348 132.815 200.286 132.895C201.223 132.975 208.105 132.598 208.688 134.209C209.271 135.821 208.345 135.112 207.396 135.65C206.447 136.187 201.738 136.793 201.738 136.793C201.738 136.793 205.796 137.124 207.019 137.845C208.242 138.565 213.42 143.343 213.397 144.28C213.375 145.218 212.746 145.423 211.488 145.423C210.231 145.423 211.157 146.327 210.814 147.23C210.471 148.133 207.991 147.938 207.991 147.938C207.991 147.938 208.208 151.07 206.333 150.91C204.458 150.75 201.097 148.304 201.097 148.304C201.097 148.304 194.159 150.842 191.667 150.648C190.03 150.574 188.403 150.941 186.957 151.711C189.053 146.213 192.042 141.099 195.805 136.576Z" fill="white"/>
<mask id="mask4_9587_28925" style="mask-type:luminance" maskUnits="userSpaceOnUse" x="186" y="132" width="28" height="20">
<path d="M195.805 136.576C195.805 136.576 199.348 132.815 200.286 132.895C201.223 132.975 208.105 132.598 208.688 134.209C209.271 135.821 208.345 135.112 207.396 135.65C206.447 136.187 201.738 136.793 201.738 136.793C201.738 136.793 205.796 137.124 207.019 137.845C208.242 138.565 213.42 143.343 213.397 144.28C213.375 145.218 212.746 145.423 211.488 145.423C210.231 145.423 211.157 146.327 210.814 147.23C210.471 148.133 207.991 147.938 207.991 147.938C207.991 147.938 208.208 151.07 206.333 150.91C204.458 150.75 201.097 148.304 201.097 148.304C201.097 148.304 194.159 150.842 191.667 150.648C190.03 150.574 188.403 150.941 186.957 151.711C189.053 146.213 192.042 141.099 195.805 136.576Z" fill="white"/>
</mask>
<g mask="url(#mask4_9587_28925)">
<g style="mix-blend-mode:multiply" opacity="0.5">
<path d="M195.805 136.576C192.052 141.068 189.063 146.146 186.957 151.608C188.403 150.838 190.03 150.471 191.667 150.545C192.486 150.558 193.304 150.47 194.102 150.282C194.598 148.096 194.893 145.869 194.982 143.629C194.982 140.302 200.286 132.895 200.286 132.895C199.337 132.815 195.805 136.576 195.805 136.576Z" fill="#D9E0F5"/>
</g>
</g>
<path d="M195.805 136.576C195.805 136.576 199.348 132.815 200.286 132.895C201.223 132.975 208.105 132.598 208.688 134.209C209.271 135.821 208.345 135.112 207.396 135.65C206.447 136.187 201.738 136.793 201.738 136.793C201.738 136.793 205.796 137.124 207.019 137.845C208.242 138.565 213.42 143.343 213.397 144.28C213.375 145.218 212.746 145.423 211.488 145.423C210.231 145.423 211.157 146.327 210.814 147.23C210.471 148.133 207.991 147.938 207.991 147.938C207.991 147.938 208.208 151.07 206.333 150.91C204.458 150.75 201.097 148.304 201.097 148.304C201.097 148.304 194.159 150.842 191.667 150.648C190.03 150.574 188.403 150.941 186.957 151.711C189.053 146.213 192.042 141.099 195.805 136.576Z" stroke="#263238" stroke-linecap="round" stroke-linejoin="round"/>
<path d="M211.488 145.32L205.373 140.461L200.389 139.741" stroke="#263238" stroke-linecap="round" stroke-linejoin="round"/>
<path d="M207.98 147.835L201.201 144.166L198.092 143.605" stroke="#263238" stroke-linecap="round" stroke-linejoin="round"/>
<path d="M270.931 131.945C270.931 131.945 267.387 128.196 266.45 128.265C265.512 128.333 258.631 127.979 258.048 129.579C257.465 131.18 258.391 130.482 259.339 131.031C261.188 131.566 263.082 131.929 264.998 132.117C264.998 132.117 260.94 132.448 259.717 133.18C258.493 133.912 253.315 138.678 253.338 139.604C253.361 140.53 253.99 140.748 255.247 140.748C256.504 140.748 255.578 141.651 255.921 142.554C256.264 143.457 258.745 143.251 258.745 143.251C258.745 143.251 258.528 146.383 260.402 146.235C262.277 146.086 265.638 143.628 265.638 143.628C265.638 143.628 272.577 146.166 275.069 145.914C276.707 145.838 278.335 146.21 279.778 146.989C277.674 141.523 274.685 136.441 270.931 131.945Z" fill="white" stroke="#263238" stroke-linecap="round" stroke-linejoin="round"/>
<path d="M255.248 140.69L261.352 135.843L266.336 135.123" stroke="#263238" stroke-linecap="round" stroke-linejoin="round"/>
<path d="M258.746 143.205L265.525 139.547L268.634 138.976" stroke="#263238" stroke-linecap="round" stroke-linejoin="round"/>
<path d="M275.012 137.638C275.012 137.638 286.774 136.289 290.81 139.319C294.845 142.348 294.17 150.064 294.17 150.064" stroke="#263238" stroke-linecap="round" stroke-linejoin="round"/>
<path d="M182.088 386.382C182.088 386.382 183.345 383.878 187.358 384.381C191.37 384.884 193.885 389.651 191.119 391.149C188.352 392.646 182.088 386.382 182.088 386.382Z" fill="#D9E0F5" stroke="#263238" stroke-linecap="round" stroke-linejoin="round"/>
<path d="M188.021 269.966C188.021 269.966 197.463 271.864 202.001 274.882C206.54 277.9 207.283 278.654 208.414 284.701C209.546 290.748 205.397 306.981 205.397 315.291C205.397 323.602 199.349 374.208 199.349 378.38C199.349 382.552 203.51 391.217 203.133 394.235C202.973 396.405 203.229 398.586 203.888 400.66C203.888 400.66 206.528 402.546 203.133 402.946C199.738 403.346 199.349 403.7 196.332 402.191C193.314 400.682 191.759 393.126 189.153 390.863C186.546 388.6 185.003 385.959 185.003 384.061C185.003 382.164 191.039 375.008 191.039 375.008C191.039 375.008 190.284 364.434 189.896 355.369C189.507 346.304 185.323 326.288 185.323 317.646C185.323 309.004 191.039 288.565 191.039 288.565C191.039 288.565 176.373 290.36 170.657 286.587C164.941 282.815 171.411 266.194 188.021 269.966Z" fill="white" stroke="#263238" stroke-linecap="round" stroke-linejoin="round"/>
<path d="M189.154 390.817C189.154 390.817 182.295 384.93 182.089 386.428C181.883 387.925 181.838 399.733 182.341 400.979C182.844 402.225 196.39 403.494 203.42 404.752C210.45 406.009 207.684 401.482 206.175 400.476C204.666 399.471 189.154 390.817 189.154 390.817Z" fill="#D9E0F5" stroke="#263238" stroke-linecap="round" stroke-linejoin="round"/>
<path opacity="0.2" d="M189.154 390.817C189.154 390.817 182.295 384.93 182.089 386.428C181.883 387.925 181.838 399.733 182.341 400.979C182.844 402.225 196.39 403.494 203.42 404.752C210.45 406.009 207.684 401.482 206.175 400.476C204.666 399.471 189.154 390.817 189.154 390.817Z" fill="black"/>
<path d="M191.119 397.47C192.492 395.824 194.098 394.388 195.886 393.206C198.01 391.698 200.393 390.594 202.916 389.948L206.174 396.213C203.928 396.743 201.744 397.509 199.658 398.499C198.076 399.458 196.64 400.64 195.394 402.008C195.394 402.008 191.622 399.482 191.119 397.47Z" fill="#263238" stroke="#263238" stroke-linecap="round" stroke-linejoin="round"/>
<path d="M197.897 390.452C197.58 390.491 197.275 390.596 197 390.758C196.724 390.92 196.485 391.137 196.297 391.395C196.108 391.653 195.975 391.947 195.904 392.258C195.833 392.57 195.827 392.892 195.885 393.207C196.137 395.721 196.388 403.746 197.394 403.998C198.4 404.249 210.94 406.284 215.456 406.501C219.971 406.718 224.989 406.753 224.989 404.501C224.989 402.249 224.235 401.243 223.24 401.243C222.246 401.243 219.971 400.488 216.965 398.739C213.958 396.99 206.677 390.212 204.39 389.96C202.104 389.709 199.155 388.188 197.897 390.452Z" fill="#D9E0F5" stroke="#263238" stroke-linecap="round" stroke-linejoin="round"/>
<path opacity="0.2" d="M197.897 390.452C197.58 390.491 197.275 390.596 197 390.758C196.724 390.92 196.485 391.137 196.297 391.395C196.108 391.653 195.975 391.947 195.904 392.258C195.833 392.57 195.827 392.892 195.885 393.207C196.137 395.721 196.388 403.746 197.394 403.998C198.4 404.249 210.94 406.284 215.456 406.501C219.971 406.718 224.989 406.753 224.989 404.501C224.989 402.249 224.235 401.243 223.24 401.243C222.246 401.243 219.971 400.488 216.965 398.739C213.958 396.99 206.677 390.212 204.39 389.96C202.104 389.709 199.155 388.188 197.897 390.452Z" fill="black"/>
<path d="M92.7086 401.243C92.7086 400.113 92.3734 399.007 91.7453 398.068C91.1173 397.128 90.2246 396.395 89.1802 395.962C88.1358 395.53 86.9866 395.417 85.8779 395.637C84.7692 395.858 83.7508 396.402 82.9514 397.201C82.1521 398.001 81.6077 399.019 81.3872 400.128C81.1666 401.237 81.2798 402.386 81.7124 403.43C82.145 404.475 82.8776 405.367 83.8175 405.995C84.7575 406.623 85.8625 406.959 86.993 406.959C88.5088 406.959 89.9626 406.356 91.0345 405.285C92.1064 404.213 92.7086 402.759 92.7086 401.243Z" fill="#263238" stroke="#263238" stroke-linecap="round" stroke-linejoin="round"/>
<path d="M86.9926 404.089C88.5709 404.089 89.8504 402.809 89.8504 401.231C89.8504 399.653 88.5709 398.373 86.9926 398.373C85.4143 398.373 84.1348 399.653 84.1348 401.231C84.1348 402.809 85.4143 404.089 86.9926 404.089Z" fill="white" stroke="#263238" stroke-linecap="round" stroke-linejoin="round"/>
<path d="M153.957 401.243C153.957 400.113 153.621 399.007 152.993 398.068C152.365 397.128 151.473 396.395 150.428 395.962C149.384 395.53 148.235 395.417 147.126 395.637C146.017 395.858 144.999 396.402 144.199 397.201C143.4 398.001 142.856 399.019 142.635 400.128C142.415 401.237 142.528 402.386 142.96 403.43C143.393 404.475 144.126 405.367 145.066 405.995C146.006 406.623 147.111 406.959 148.241 406.959C149.757 406.959 151.211 406.356 152.283 405.285C153.354 404.213 153.957 402.759 153.957 401.243Z" fill="#263238" stroke="#263238" stroke-linecap="round" stroke-linejoin="round"/>
<path d="M151.098 401.243C151.098 400.677 150.931 400.125 150.617 399.655C150.303 399.185 149.856 398.819 149.334 398.602C148.812 398.386 148.237 398.329 147.683 398.44C147.129 398.55 146.62 398.822 146.22 399.222C145.82 399.621 145.548 400.131 145.438 400.685C145.327 401.239 145.384 401.814 145.6 402.336C145.817 402.858 146.183 403.305 146.653 403.619C147.123 403.933 147.675 404.1 148.241 404.1C148.999 404.1 149.725 403.799 150.261 403.263C150.797 402.727 151.098 402.001 151.098 401.243Z" fill="white" stroke="#263238" stroke-linecap="round" stroke-linejoin="round"/>
<path d="M173.972 401.243C173.972 400.113 173.637 399.007 173.009 398.068C172.381 397.128 171.488 396.395 170.444 395.962C169.4 395.53 168.25 395.417 167.142 395.637C166.033 395.858 165.014 396.402 164.215 397.201C163.416 398.001 162.871 399.019 162.651 400.128C162.43 401.237 162.543 402.386 162.976 403.43C163.409 404.475 164.141 405.367 165.081 405.995C166.021 406.623 167.126 406.959 168.257 406.959C169.772 406.959 171.226 406.356 172.298 405.285C173.37 404.213 173.972 402.759 173.972 401.243Z" fill="#263238" stroke="#263238" stroke-linecap="round" stroke-linejoin="round"/>
<path d="M171.115 401.243C171.118 400.674 170.951 400.118 170.637 399.645C170.322 399.171 169.874 398.801 169.349 398.583C168.825 398.364 168.247 398.307 167.689 398.417C167.132 398.527 166.619 398.801 166.217 399.203C165.815 399.605 165.542 400.117 165.432 400.675C165.321 401.232 165.379 401.81 165.598 402.335C165.816 402.86 166.186 403.308 166.659 403.622C167.133 403.936 167.689 404.103 168.258 404.101C169.016 404.101 169.742 403.8 170.278 403.264C170.814 402.728 171.115 402.001 171.115 401.243Z" fill="white" stroke="#263238" stroke-linecap="round" stroke-linejoin="round"/>
<path d="M139.37 303.117H127.275V394.693H139.37V303.117Z" fill="#263238" stroke="#263238" stroke-linecap="round" stroke-linejoin="round"/>
<path d="M142.606 350.968H124.064V394.692H142.606V350.968Z" fill="#263238" stroke="#263238" stroke-linecap="round" stroke-linejoin="round"/>
<path d="M85.8147 392.967H171.24C172.453 392.967 173.616 393.449 174.474 394.306C175.331 395.164 175.813 396.327 175.813 397.539V398.145H81.2422V397.539C81.2422 396.327 81.7239 395.164 82.5814 394.306C83.439 393.449 84.602 392.967 85.8147 392.967Z" fill="#263238" stroke="#263238" stroke-linecap="round" stroke-linejoin="round"/>
<path d="M120.976 267.703H105.43V292.76H120.976V267.703Z" fill="#263238" stroke="#263238" stroke-linecap="round" stroke-linejoin="round"/>
<path d="M183.689 289.297H82.9572C78.3296 289.297 74.5781 293.048 74.5781 297.676V299.928C74.5781 304.556 78.3296 308.307 82.9572 308.307H183.689C188.317 308.307 192.068 304.556 192.068 299.928V297.676C192.068 293.048 188.317 289.297 183.689 289.297Z" fill="#D9E0F5" stroke="#263238" stroke-linecap="round" stroke-linejoin="round"/>
<path opacity="0.1" d="M183.689 289.297H82.9572C78.3296 289.297 74.5781 293.048 74.5781 297.676V299.928C74.5781 304.556 78.3296 308.307 82.9572 308.307H183.689C188.317 308.307 192.068 304.556 192.068 299.928V297.676C192.068 293.048 188.317 289.297 183.689 289.297Z" fill="black"/>
<path d="M192.067 298.796C192.067 296.277 191.067 293.86 189.285 292.079C187.504 290.298 185.088 289.297 182.568 289.297H130.739C129.463 289.252 128.191 289.466 126.999 289.923C125.807 290.381 124.72 291.074 123.802 291.961C122.883 292.848 122.153 293.911 121.654 295.086C121.155 296.261 120.898 297.525 120.898 298.802C120.898 300.079 121.155 301.342 121.654 302.517C122.153 303.693 122.883 304.756 123.802 305.643C124.72 306.53 125.807 307.223 126.999 307.68C128.191 308.138 129.463 308.351 130.739 308.307H182.568C185.089 308.304 187.505 307.3 189.286 305.517C191.067 303.734 192.067 301.317 192.067 298.796Z" fill="#D9E0F5" stroke="#263238" stroke-miterlimit="10"/>
<path opacity="0.1" d="M192.067 299.093C192.067 297.846 191.822 296.61 191.344 295.458C190.867 294.305 190.167 293.258 189.285 292.376C188.403 291.494 187.356 290.794 186.203 290.317C185.051 289.839 183.816 289.594 182.568 289.594H130.739C129.463 289.549 128.191 289.762 126.999 290.22C125.807 290.678 124.72 291.371 123.802 292.258C122.883 293.145 122.153 294.208 121.654 295.383C121.155 296.558 120.898 297.822 120.898 299.099C120.898 300.375 121.155 301.639 121.654 302.814C122.153 303.99 122.883 305.052 123.802 305.939C124.72 306.826 125.807 307.519 126.999 307.977C128.191 308.435 129.463 308.648 130.739 308.604H182.568C183.817 308.604 185.053 308.358 186.206 307.88C187.359 307.401 188.407 306.701 189.289 305.817C190.171 304.934 190.871 303.886 191.348 302.732C191.824 301.578 192.069 300.341 192.067 299.093Z" fill="black"/>
<path d="M143.828 267.715H83.2426C81.8261 267.715 80.4239 267.432 79.1186 266.882C77.8134 266.332 76.6315 265.526 75.6428 264.511C74.654 263.497 73.8785 262.295 73.3618 260.976C72.8451 259.657 72.5978 258.248 72.6344 256.832L74.1319 197.767C74.1976 194.999 75.3446 192.366 77.3272 190.432C79.3099 188.499 81.9707 187.418 84.7401 187.422H134.729C137.265 187.417 139.719 188.323 141.645 189.974C143.57 191.624 144.84 193.911 145.223 196.418L154.311 255.529C154.537 257.038 154.436 258.578 154.014 260.044C153.591 261.51 152.857 262.868 151.862 264.025C150.867 265.181 149.635 266.11 148.248 266.747C146.862 267.384 145.354 267.714 143.828 267.715Z" fill="#D9E0F5" stroke="#263238" stroke-linecap="round" stroke-linejoin="round"/>
<path opacity="0.1" d="M143.828 267.715H83.2426C81.8261 267.715 80.4239 267.432 79.1186 266.882C77.8134 266.332 76.6315 265.526 75.6428 264.511C74.654 263.497 73.8785 262.295 73.3618 260.976C72.8451 259.657 72.5978 258.248 72.6344 256.832L74.1319 197.767C74.1976 194.999 75.3446 192.366 77.3272 190.432C79.3099 188.499 81.9707 187.418 84.7401 187.422H134.729C137.265 187.417 139.719 188.323 141.645 189.974C143.57 191.624 144.84 193.911 145.223 196.418L154.311 255.529C154.537 257.038 154.436 258.578 154.014 260.044C153.591 261.51 152.857 262.868 151.862 264.025C150.867 265.181 149.635 266.11 148.248 266.747C146.862 267.384 145.354 267.714 143.828 267.715Z" fill="black"/>
<path d="M124.041 305.277L97.4746 322.767" stroke="#263238" stroke-linecap="round" stroke-linejoin="round"/>
<path d="M96.4685 320.081L91.896 323.156C91.538 323.4 91.2384 323.721 91.0187 324.094C90.7991 324.468 90.6647 324.885 90.6254 325.317C90.5861 325.748 90.6427 326.183 90.7912 326.59C90.9398 326.998 91.1765 327.367 91.4845 327.672L91.8732 328.037C92.3868 328.543 93.0695 328.84 93.7893 328.872C94.5091 328.903 95.2152 328.667 95.7712 328.209L99.9551 324.779C100.266 324.523 100.52 324.204 100.701 323.844C100.883 323.485 100.989 323.091 101.011 322.689C101.034 322.286 100.973 321.883 100.832 321.505C100.692 321.128 100.475 320.783 100.195 320.493C99.7216 319.997 99.0884 319.684 98.4068 319.608C97.7252 319.533 97.0389 319.701 96.4685 320.081Z" fill="#263238" stroke="#263238" stroke-linecap="round" stroke-linejoin="round"/>
<path d="M128.189 392.967H154.401C155.614 392.967 156.777 393.449 157.635 394.306C158.492 395.164 158.974 396.327 158.974 397.539V398.145H128.189V392.967Z" fill="#263238" stroke="#263238" stroke-linecap="round" stroke-linejoin="round"/>
<path d="M149.179 237.273C154.349 237.273 158.541 234.888 158.541 231.946C158.541 229.004 154.349 226.619 149.179 226.619C144.008 226.619 139.816 229.004 139.816 231.946C139.816 234.888 144.008 237.273 149.179 237.273Z" fill="white" stroke="#263238" stroke-linecap="round" stroke-linejoin="round"/>
<path d="M175.23 275.637C175.23 275.637 190.331 276.391 193.738 284.324C194.439 287.041 194.823 289.83 194.881 292.635C194.881 296.784 208.85 376.849 209.227 378.369C209.604 379.89 217.915 391.584 219.046 394.224C220.178 396.865 221.333 399.14 221.333 399.14C221.333 399.14 224.762 400.649 224.362 401.78C223.962 402.912 216.051 403.289 212.656 403.289C209.261 403.289 205.477 394.99 203.214 394.224C200.951 393.458 198.299 390.795 198.299 389.32C198.299 387.846 199.442 376.86 199.442 376.86C197.993 367.899 195.46 359.147 191.897 350.797C186.845 339.286 180.557 322.47 179.803 314.549C179.048 306.627 179.048 299.059 179.048 299.059L169.515 297.539C169.515 297.539 168.372 277.9 175.23 275.637Z" fill="white" stroke="#263238" stroke-linecap="round" stroke-linejoin="round"/>
<path d="M205.922 397.974C205.922 397.974 208.94 385.685 216.713 390.452L219.971 395.962C219.971 395.962 212.701 395.962 210.437 402.992C209.332 402.588 208.342 401.92 207.555 401.045C206.768 400.17 206.207 399.116 205.922 397.974Z" fill="#263238" stroke="#263238" stroke-linecap="round" stroke-linejoin="round"/>
<path d="M143.977 252.705L143.611 252.762C140.182 238.793 135.552 224.516 135.552 224.516C135.552 224.516 112.838 230.517 99.7378 226.448C99.7378 226.448 93.0734 259.267 93.0734 267.84C93.0734 274.699 91.6559 281.672 96.8457 285.696C97.3477 286.434 97.9928 287.065 98.7428 287.55C99.4929 288.035 100.333 288.365 101.212 288.519C115.376 291.183 139.781 290.257 143.851 291.068C147.92 291.88 169.514 297.538 169.514 297.538C169.514 297.538 170.806 285.627 174.464 277.9C178.122 270.172 194.823 271.487 194.823 271.487L143.977 252.705Z" fill="#263238" stroke="#263238" stroke-linecap="round" stroke-linejoin="round"/>
<path d="M138.73 161.187C138.73 161.187 135.598 157.254 132.214 161.587C128.83 165.919 131.517 180.963 133.186 186.976C134.854 192.988 163.044 217.931 165.696 219.783C168.348 221.635 202.905 229.443 205.922 228.014C208.94 226.585 209.809 219.349 208.094 215.439C206.38 211.53 174.086 203.231 174.086 203.231L138.73 161.187Z" fill="white"/>
<mask id="mask5_9587_28925" style="mask-type:luminance" maskUnits="userSpaceOnUse" x="130" y="159" width="79" height="70">
<path d="M138.73 161.187C138.73 161.187 135.598 157.254 132.214 161.587C128.83 165.919 131.517 180.963 133.186 186.976C134.854 192.988 163.044 217.931 165.696 219.783C168.348 221.635 202.905 229.443 205.922 228.014C208.94 226.585 209.809 219.349 208.094 215.439C206.38 211.53 174.086 203.231 174.086 203.231L138.73 161.187Z" fill="white"/>
</mask>
<g mask="url(#mask5_9587_28925)">
<g style="mix-blend-mode:multiply" opacity="0.5">
<path d="M165.696 219.806C168.348 221.647 202.904 229.466 205.922 228.037C207.66 227.214 208.677 224.448 208.906 221.51C203.568 219.361 197.235 217.909 194.297 218.08C190.033 218.32 192.891 222.298 186.055 221.178C179.219 220.058 171.423 216.606 164.336 212.559C157.248 208.512 144.525 196.555 144.525 196.555L154.505 197.698L143.131 194.189L153.019 190.474L144.525 189.971C145.069 188.625 145.322 187.18 145.268 185.73C145.268 182.792 139.667 171.887 139.667 171.887L133.723 188.222C137.872 195.675 163.192 218.057 165.696 219.806Z" fill="#D9E0F5"/>
</g>
</g>
<path d="M138.73 161.187C138.73 161.187 135.598 157.254 132.214 161.587C128.83 165.919 131.517 180.963 133.186 186.976C134.854 192.988 163.044 217.931 165.696 219.783C168.348 221.635 202.905 229.443 205.922 228.014C208.94 226.585 209.809 219.349 208.094 215.439C206.38 211.53 174.086 203.231 174.086 203.231L138.73 161.187Z" stroke="#263238" stroke-linecap="round" stroke-linejoin="round"/>
<path d="M149.83 192.771L142.068 195.778L155.123 200.122" stroke="#263238" stroke-width="0.5" stroke-linecap="round" stroke-linejoin="round"/>
<path d="M206.002 215.405C205.004 215.61 204.091 216.111 203.383 216.843C202.676 217.576 202.206 218.505 202.035 219.509C201.361 223.087 204.881 226.139 204.881 226.139C204.881 226.139 212.3 228.688 214.518 222.71C216.736 216.731 209.591 215.176 206.002 215.405Z" fill="white"/>
<mask id="mask6_9587_28925" style="mask-type:luminance" maskUnits="userSpaceOnUse" x="201" y="215" width="14" height="12">
<path d="M206.002 215.405C205.004 215.61 204.091 216.111 203.383 216.843C202.676 217.576 202.206 218.505 202.035 219.509C201.361 223.087 204.881 226.139 204.881 226.139C204.881 226.139 212.3 228.688 214.518 222.71C216.736 216.731 209.591 215.176 206.002 215.405Z" fill="white"/>
</mask>
<g mask="url(#mask6_9587_28925)">
<g style="mix-blend-mode:multiply" opacity="0.5">
<path d="M204.881 226.139C204.881 226.139 211.214 228.299 213.924 223.944C210.202 221.873 206.224 220.301 202.092 219.269C202.068 219.347 202.049 219.427 202.035 219.509C201.361 223.087 204.881 226.139 204.881 226.139Z" fill="#D9E0F5"/>
</g>
</g>
<path d="M206.002 215.405C205.004 215.61 204.091 216.111 203.383 216.843C202.676 217.576 202.206 218.505 202.035 219.509C201.361 223.087 204.881 226.139 204.881 226.139C204.881 226.139 212.3 228.688 214.518 222.71C216.736 216.731 209.591 215.176 206.002 215.405Z" stroke="#263238" stroke-linecap="round" stroke-linejoin="round"/>
<path d="M227.915 223.67C229.988 224.002 231.897 224.997 233.357 226.505C235.517 228.94 233.757 229.934 232.374 229.58C230.991 229.225 226.441 222.504 227.915 223.67Z" fill="white" stroke="#263238" stroke-linecap="round" stroke-linejoin="round"/>
<path d="M226.476 223.224C228.483 223.841 230.236 225.092 231.471 226.791C233.277 229.489 231.391 230.22 230.077 229.694C228.762 229.168 225.173 221.864 226.476 223.224Z" fill="white" stroke="#263238" stroke-linecap="round" stroke-linejoin="round"/>
<path d="M213.536 217.897C213.536 217.897 210.107 219.155 209.729 221.327C209.667 222.005 209.747 222.688 209.963 223.334C210.18 223.979 210.529 224.573 210.987 225.076C210.987 225.076 214.416 227.82 215.719 228.106C217.023 228.391 219.949 230.06 220.292 228.471C220.635 226.882 217.16 225.476 217.16 225.476C217.16 225.476 223.801 225.876 224.019 227.214C224.236 228.551 226.636 229.935 228.762 229.969C230.889 230.003 228.317 225.705 227.802 224.63C227.288 223.556 217.788 217.977 213.536 217.897Z" fill="white" stroke="#263238" stroke-linecap="round" stroke-linejoin="round"/>
<path d="M104.676 150.522C104.676 150.522 83.7793 162.673 82.1446 163.473C80.51 164.273 78.8867 176.848 78.8867 178.037C78.8867 179.225 99.783 226.448 99.783 226.448C99.783 226.448 104.927 230.803 119.982 230.803C135.037 230.803 136.203 228.517 136.203 228.517L137.403 208.592C137.403 208.592 142.547 195.126 142.947 192.749C143.347 190.371 138.729 161.187 138.729 161.187L117.353 146.932C117.353 146.932 108.642 141.811 104.676 150.522Z" fill="white"/>
<mask id="mask7_9587_28925" style="mask-type:luminance" maskUnits="userSpaceOnUse" x="78" y="145" width="65" height="86">
<path d="M104.676 150.522C104.676 150.522 83.7793 162.673 82.1446 163.473C80.51 164.273 78.8867 176.848 78.8867 178.037C78.8867 179.225 99.783 226.448 99.783 226.448C99.783 226.448 104.927 230.803 119.982 230.803C135.037 230.803 136.203 228.517 136.203 228.517L137.403 208.592C137.403 208.592 142.547 195.126 142.947 192.749C143.347 190.371 138.729 161.187 138.729 161.187L117.353 146.932C117.353 146.932 108.642 141.811 104.676 150.522Z" fill="white"/>
</mask>
<g mask="url(#mask7_9587_28925)">
<g style="mix-blend-mode:multiply" opacity="0.5">
<path d="M84.2708 172.115C85.9055 169.498 100.949 159.69 100.949 159.69L106.505 156.42L113.626 145.618C110.768 145.092 106.95 145.526 104.676 150.522C104.676 150.522 83.7336 162.673 82.1446 163.462C80.5557 164.251 78.8867 176.836 78.8867 178.025C78.8867 178.288 79.8698 180.712 81.4016 184.358C81.996 178.951 83.1277 173.944 84.2708 172.115Z" fill="#D9E0F5"/>
</g>
</g>
<path d="M104.676 150.522C104.676 150.522 83.7793 162.673 82.1446 163.473C80.51 164.273 78.8867 176.848 78.8867 178.037C78.8867 179.225 99.783 226.448 99.783 226.448C99.783 226.448 104.927 230.803 119.982 230.803C135.037 230.803 136.203 228.517 136.203 228.517L137.403 208.592C137.403 208.592 142.547 195.126 142.947 192.749C143.347 190.371 138.729 161.187 138.729 161.187L117.353 146.932C117.353 146.932 108.642 141.811 104.676 150.522Z" stroke="#263238" stroke-linecap="round" stroke-linejoin="round"/>
<path d="M111.683 169.371L117.776 175.944L116.507 203.894L125.424 206.248L126.361 194.04L129.642 206.717L136.215 200.144L122.006 175.476L123.881 167.965L115.902 159.049L110.746 171.257" fill="#263238"/>
<path d="M111.683 169.371L117.776 175.944L116.507 203.894L125.424 206.248L126.361 194.04L129.642 206.717L136.215 200.144L122.006 175.476L123.881 167.965L115.902 159.049L110.746 171.257" stroke="#263238" stroke-linecap="round" stroke-linejoin="round"/>
<path d="M100.596 150.59C100.596 150.59 101.899 159.289 103.636 163.164C105.374 167.039 109.295 173.612 109.295 173.612L117.56 165.336L125.836 171.052C125.836 171.052 124.967 156.694 121.915 150.167C118.863 143.64 104.071 137.101 100.596 150.59Z" fill="white" stroke="#263238" stroke-linecap="round" stroke-linejoin="round"/>
<g style="mix-blend-mode:multiply" opacity="0.5">
<path d="M106.506 156.42L114.77 143.845C113.262 143.185 111.648 142.798 110.004 142.702C108.586 142.988 106.986 143.342 105.294 143.72C103.225 144.863 101.51 147.012 100.596 150.578C100.596 150.578 101.247 154.968 102.253 158.912L106.506 156.42Z" fill="#D9E0F5"/>
</g>
<path d="M121.045 147.973C119.926 150.437 119.335 153.108 119.308 155.814C119.308 160.158 120.176 164.959 120.176 167.131V173.659C120.176 173.659 114.952 167.131 111.032 162.342C107.111 157.552 104.07 153.197 104.504 149.287C104.939 145.378 108.86 130.128 108.86 130.128C110.931 130.11 112.966 130.67 114.735 131.747C116.505 132.824 117.938 134.373 118.873 136.221C122.348 142.748 121.045 147.973 121.045 147.973Z" fill="white" stroke="#263238" stroke-linecap="round" stroke-linejoin="round"/>
<g style="mix-blend-mode:multiply" opacity="0.5">
<path d="M107.488 140.405L106.185 141.033C105.385 144.463 104.676 147.743 104.505 149.287C104.082 153.059 106.905 157.289 110.621 161.861L111.089 152.865L121.046 148.006L113.044 140.107L107.488 140.405Z" fill="#D9E0F5"/>
</g>
<path d="M129.505 143.297C129.505 143.297 126.625 148.635 129.734 148.853C132.843 149.07 132.169 146.406 132.614 145.526C133.06 144.646 135.061 146.669 133.952 150.853C132.843 155.037 127.288 157.963 123.95 154.625C120.612 151.287 121.515 147.767 122.624 145.08C123.732 142.394 128.202 141.079 129.505 143.297Z" fill="#263238" stroke="#263238" stroke-linecap="round" stroke-linejoin="round"/>
<path d="M123.264 96.1092C122.292 95.972 121.275 95.8691 120.223 95.8119C116.394 95.6176 112.221 95.8691 109.238 98.2582C103.042 103.219 104.082 113.187 104.528 120.126C105.031 128.002 104.928 139.491 110.838 145.195C120.818 154.82 136.421 144.52 136.421 133.112C136.421 128.288 136.604 120.938 136.924 119.292C137.341 117.258 137.627 115.2 137.782 113.13C138.467 102.625 132.512 97.4238 123.264 96.1092Z" fill="white" stroke="#263238" stroke-linecap="round" stroke-linejoin="round"/>
<g style="mix-blend-mode:multiply" opacity="0.5">
<path d="M126.945 147.252C124.152 147.213 121.365 146.999 118.6 146.612C114.359 145.96 108.472 139.09 111.41 129.614C114.347 120.137 114.359 115.222 114.359 115.222L104.357 108.969C104.127 112.687 104.188 116.417 104.539 120.126C105.042 128.002 104.94 139.49 110.849 145.194C115.696 149.881 121.869 149.835 126.945 147.252Z" fill="#D9E0F5"/>
</g>
<path d="M121.274 126.516C121.899 126.516 122.406 125.645 122.406 124.572C122.406 123.499 121.899 122.629 121.274 122.629C120.649 122.629 120.143 123.499 120.143 124.572C120.143 125.645 120.649 126.516 121.274 126.516Z" fill="#263238"/>
<path d="M132.442 125.053C132.373 126.127 131.802 126.962 131.185 126.916C130.567 126.87 130.11 125.979 130.179 124.904C130.247 123.83 130.807 122.995 131.436 123.041C132.065 123.087 132.511 123.978 132.442 125.053Z" fill="#263238"/>
<path d="M117.766 119.921C117.766 119.921 120.052 115.097 123.721 117.371L117.766 119.921Z" fill="white"/>
<path d="M117.766 119.921C117.766 119.921 120.052 115.097 123.721 117.371" stroke="#263238" stroke-linecap="round" stroke-linejoin="round"/>
<path d="M129.676 118.217C129.676 118.217 132.385 115.108 133.928 120.206L129.676 118.217Z" fill="white"/>
<path d="M129.676 118.217C129.676 118.217 132.385 115.108 133.928 120.206" stroke="#263238" stroke-linecap="round" stroke-linejoin="round"/>
<path d="M127.915 128.437C127.915 128.631 127.915 128.825 127.915 128.997C128.201 130.986 129.618 132.426 129.058 133.249C128.498 134.072 125.629 134.392 125.629 134.392" fill="white"/>
<path d="M127.915 128.437C127.915 128.631 127.915 128.825 127.915 128.997C128.201 130.986 129.618 132.426 129.058 133.249C128.498 134.072 125.629 134.392 125.629 134.392" stroke="#263238" stroke-linecap="round" stroke-linejoin="round"/>
<path d="M124.566 138.93C124.566 138.93 119.57 140.474 117.707 136.438L124.566 138.93Z" fill="white"/>
<path d="M124.566 138.93C124.566 138.93 119.57 140.474 117.707 136.438" stroke="#263238" stroke-linecap="round" stroke-linejoin="round"/>
<path d="M120.303 129.328C123.548 129.328 126.179 126.698 126.179 123.453C126.179 120.208 123.548 117.577 120.303 117.577C117.058 117.577 114.428 120.208 114.428 123.453C114.428 126.698 117.058 129.328 120.303 129.328Z" stroke="#263238" stroke-width="0.5" stroke-linecap="round" stroke-linejoin="round"/>
<path d="M133.598 129.328C136.508 129.328 138.868 126.698 138.868 123.453C138.868 120.208 136.508 117.577 133.598 117.577C130.687 117.577 128.328 120.208 128.328 123.453C128.328 126.698 130.687 129.328 133.598 129.328Z" stroke="#263238" stroke-width="0.5" stroke-linecap="round" stroke-linejoin="round"/>
<path d="M114.428 123.452L106.037 123.807" stroke="#263238" stroke-width="0.5" stroke-linecap="round" stroke-linejoin="round"/>
<path d="M138.868 123.452H136.719" stroke="#263238" stroke-width="0.5" stroke-linecap="round" stroke-linejoin="round"/>
<path d="M126.166 121.657H128.601" stroke="#263238" stroke-width="0.5" stroke-linecap="round" stroke-linejoin="round"/>
<path d="M133.632 89.17C129.246 88.404 124.811 87.9457 120.361 87.7983C120.361 87.7983 112.576 84.1289 102.071 88.2555C87.0386 94.1312 87.3701 114.204 91.0966 126.996C92.2398 130.86 94.9261 136.724 92.457 140.599C90.9023 143.045 86.4556 141.742 87.13 138.382C87.8044 135.021 88.9018 136.164 89.7935 135.718C90.6851 135.272 89.3477 134.826 87.3472 134.163C85.3467 133.5 83.5978 135.307 83.3463 139.708C82.6833 151.71 100.367 159.655 107.112 149.161C109.855 144.589 107.42 136.644 106.232 130.871C105.854 128.873 105.598 126.853 105.466 124.824C107.6 124.62 109.579 123.62 111.01 122.023C112.069 120.571 112.974 119.012 113.708 117.371C114.508 117.371 115.342 117.428 116.257 117.52C125.402 118.434 128.168 102.865 128.168 102.865C128.168 102.865 132.741 111.564 134.112 114.776L135.484 117.977C135.484 117.977 139.154 118.434 142.812 110.649C146.47 102.865 142.331 90.5761 133.632 89.17Z" fill="#263238" stroke="#263238" stroke-linecap="round" stroke-linejoin="round"/>
<path d="M127.641 99.207C127.641 99.207 138.889 103.071 139.232 109.747C139.575 116.422 137.826 116.765 137.826 116.765" stroke="white" stroke-width="0.5" stroke-miterlimit="10" stroke-linecap="round"/>
<path d="M126.246 96.7491C126.246 96.7491 136.774 94.2914 140.295 101.322" stroke="white" stroke-width="0.5" stroke-miterlimit="10" stroke-linecap="round"/>
<path d="M113.249 89.7188C113.249 89.7188 123.777 94.9885 125.537 99.9154C127.298 104.842 118.164 114.307 112.186 116.068C106.207 117.828 101.657 115.713 97.4393 118.88C93.2211 122.046 94.9816 130.814 94.9816 130.814" stroke="white" stroke-width="0.5" stroke-miterlimit="10" stroke-linecap="round"/>
<path d="M91.7818 120.983C91.7818 120.983 88.9697 114.308 94.9483 110.798C100.927 107.289 106.185 110.798 112.861 106.58C119.537 102.362 120.589 97.1035 120.589 97.1035" stroke="white" stroke-width="0.5" stroke-miterlimit="10" stroke-linecap="round"/>
<path d="M107.249 127.041C107.249 127.041 103.557 118.068 99.8531 121.234C96.1494 124.401 102.494 132.848 106.712 131.797" fill="white"/>
<path d="M107.249 127.041C107.249 127.041 103.557 118.068 99.8531 121.234C96.1494 124.401 102.494 132.848 106.712 131.797" stroke="#263238" stroke-linecap="round" stroke-linejoin="round"/>
<g opacity="0.37">
<path d="M107.249 127.041C107.249 127.041 103.557 118.068 99.8531 121.234C96.1494 124.401 102.494 132.848 106.712 131.797" fill="#D9E0F5"/>
<path d="M107.249 127.041C107.249 127.041 103.557 118.068 99.8531 121.234C96.1494 124.401 102.494 132.848 106.712 131.797" stroke="#263238" stroke-linecap="round" stroke-linejoin="round"/>
</g>
<path d="M84.6944 164.376C84.6944 164.376 82.8997 163.027 78.9102 166.033C74.9207 169.04 71.2056 182.712 73.6976 188.507C76.1896 194.303 82.8426 224.436 85.9404 226.082C89.0383 227.728 122.349 227.591 126.281 226.665C130.214 225.739 132.957 220.595 132.294 216.148C131.631 211.701 127.242 210.547 125.95 210.512C124.658 210.478 98.1262 208.969 98.1262 208.969L89.8842 174.15" fill="white"/>
<mask id="mask8_9587_28925" style="mask-type:luminance" maskUnits="userSpaceOnUse" x="72" y="164" width="61" height="64">
<path d="M84.6944 164.376C84.6944 164.376 82.8997 163.027 78.9102 166.033C74.9207 169.04 71.2056 182.712 73.6976 188.507C76.1896 194.303 82.8426 224.436 85.9404 226.082C89.0383 227.728 122.349 227.591 126.281 226.665C130.214 225.739 132.957 220.595 132.294 216.148C131.631 211.701 127.242 210.547 125.95 210.512C124.658 210.478 98.1262 208.969 98.1262 208.969L89.8842 174.15" fill="white"/>
</mask>
<g mask="url(#mask8_9587_28925)">
<g style="mix-blend-mode:multiply" opacity="0.5">
<path d="M127.333 219.2C125.435 216.856 95.234 220.937 92.0104 219.2C88.7868 217.462 87.2322 214.159 89.587 211.93C91.9418 209.701 85.0831 209.198 85.1403 207.231C85.1974 205.265 89.1298 204.728 88.8783 202.099C88.6268 199.47 80.1334 198.921 80.3391 191.399C80.5449 183.877 82.4311 174.778 84.1343 172.206C85.0775 171.121 86.1617 170.168 87.3579 169.371L84.6944 164.364C84.6944 164.364 82.8997 163.015 78.9102 166.022C74.9207 169.028 71.2056 182.711 73.6976 188.507C76.1896 194.303 82.8426 224.435 85.9404 226.081C89.0383 227.728 122.349 227.59 126.281 226.664C127.552 226.258 128.708 225.553 129.65 224.608C130.593 223.663 131.296 222.507 131.7 221.235C129.585 220.629 127.893 219.886 127.333 219.2Z" fill="#D9E0F5"/>
</g>
</g>
<path d="M84.6944 164.376C84.6944 164.376 82.8997 163.027 78.9102 166.033C74.9207 169.04 71.2056 182.712 73.6976 188.507C76.1896 194.303 82.8426 224.436 85.9404 226.082C89.0383 227.728 122.349 227.591 126.281 226.665C130.214 225.739 132.957 220.595 132.294 216.148C131.631 211.701 127.242 210.547 125.95 210.512C124.658 210.478 98.1262 208.969 98.1262 208.969L89.8842 174.15" stroke="#263238" stroke-linecap="round" stroke-linejoin="round"/>
<path d="M88.0332 215.393C89.9994 209.609 98.1156 209.495 98.1156 209.495C94.8785 208.647 91.494 208.526 88.2047 209.141" stroke="#263238" stroke-width="0.5" stroke-linecap="round" stroke-linejoin="round"/>
<path d="M130.853 211.953C129.652 212.467 128.627 213.321 127.904 214.409C127.181 215.498 126.792 216.774 126.784 218.08C126.647 222.767 129.756 223.636 130.522 224.173C131.288 224.71 135.906 227.191 137.769 225.671C139.632 224.15 141.827 220.058 140.055 216.628C138.284 213.199 132.671 211.999 130.853 211.953Z" fill="white"/>
<mask id="mask9_9587_28925" style="mask-type:luminance" maskUnits="userSpaceOnUse" x="126" y="211" width="15" height="16">
<path d="M130.853 211.953C129.652 212.467 128.627 213.321 127.904 214.409C127.181 215.498 126.792 216.774 126.784 218.08C126.647 222.767 129.756 223.636 130.522 224.173C131.288 224.71 135.906 227.191 137.769 225.671C139.632 224.15 141.827 220.058 140.055 216.628C138.284 213.199 132.671 211.999 130.853 211.953Z" fill="white"/>
</mask>
<g mask="url(#mask9_9587_28925)">
<g style="mix-blend-mode:multiply" opacity="0.5">
<path d="M137.769 225.671C138.244 225.268 138.666 224.807 139.026 224.299L135.14 222.23C131.573 221.247 128.178 220.241 127.332 219.201C127.185 219.045 127 218.931 126.795 218.869C127.012 222.87 129.79 223.67 130.521 224.173C131.253 224.676 135.906 227.191 137.769 225.671Z" fill="#D9E0F5"/>
</g>
</g>
<path d="M130.853 211.953C129.652 212.467 128.627 213.321 127.904 214.409C127.181 215.498 126.792 216.774 126.784 218.08C126.647 222.767 129.756 223.636 130.522 224.173C131.288 224.71 135.906 227.191 137.769 225.671C139.632 224.15 141.827 220.058 140.055 216.628C138.284 213.199 132.671 211.999 130.853 211.953Z" stroke="#263238" stroke-linecap="round" stroke-linejoin="round"/>
<path d="M137.29 216.148C137.29 216.148 134.455 217.234 134.067 219.372C133.678 221.51 133.815 222.664 134.307 222.801C134.798 222.939 136.433 223.682 136.433 223.682L141.474 226.299C141.474 226.299 145.475 230.872 146.79 231.238C148.104 231.603 146.973 230.746 146.79 229.752C146.218 228.327 145.477 226.976 144.584 225.728L150.551 231.009C150.551 231.009 152.517 231.718 152.06 230.22C151.602 228.723 148.55 225.648 148.55 225.648L154.186 230.758C154.186 230.758 155.329 231.283 155.329 230.62C155.393 230.288 155.37 229.945 155.262 229.624C155.154 229.304 154.964 229.017 154.712 228.791C154.071 228.277 150.231 223.876 150.231 223.876L155.58 227.157C155.58 227.157 156.723 228.677 157.524 228.7C158.324 228.723 157.867 228.208 157.261 226.414C156.655 224.619 152.585 221.99 151.134 220.961C149.682 219.932 141.749 216.274 137.29 216.148Z" fill="white" stroke="#263238" stroke-linecap="round" stroke-linejoin="round"/>
<path d="M393.051 214.776H348.4L356.437 188.713H401.087L393.051 214.776Z" fill="#263238" stroke="#263238" stroke-linecap="round" stroke-linejoin="round"/>
<path d="M389.541 217.234H344.902L352.938 191.159H397.577L389.541 217.234Z" fill="white" stroke="#263238" stroke-linecap="round" stroke-linejoin="round"/>
<path d="M325.389 206.911H398.96C400.779 206.911 402.524 207.634 403.81 208.92C405.096 210.206 405.819 211.951 405.819 213.77V232.951H325.389V206.911Z" fill="#263238" stroke="#263238" stroke-linecap="round" stroke-linejoin="round"/>
<path d="M392.65 206.911H312.186V232.986H392.65V206.911Z" fill="white" stroke="#263238" stroke-linecap="round" stroke-linejoin="round"/>
<path d="M374.543 225.99H310.266V229.431H374.543V225.99Z" fill="white" stroke="#263238" stroke-linecap="round" stroke-linejoin="round"/>
<path d="M374.545 222.549H323.984V225.99H374.545V222.549Z" fill="#263238" stroke="#263238" stroke-linecap="round" stroke-linejoin="round"/>
<path d="M310.529 230.448H259.809V232.815H310.529V230.448Z" fill="white" stroke="#263238" stroke-linecap="round" stroke-linejoin="round"/>
<path d="M349.531 146.691H240.203V217.199H349.531V146.691Z" fill="white" stroke="#263238" stroke-linecap="round" stroke-linejoin="round"/>
<path d="M349.533 146.691H246.172V217.199H349.533V146.691Z" fill="#263238" stroke="#263238" stroke-linecap="round" stroke-linejoin="round"/>
<path d="M311.707 179.453H287.781V233.889H311.707V179.453Z" fill="white" stroke="#263238" stroke-linecap="round" stroke-linejoin="round"/>
<path d="M313.912 179.453H289.986V233.889H313.912V179.453Z" fill="#263238" stroke="#263238" stroke-linecap="round" stroke-linejoin="round"/>
<path d="M288.398 180.094H314.473V217.371" stroke="white" stroke-linejoin="round"/>
<path d="M239.449 229.18H166.209V233.009H239.449V229.18Z" fill="white" stroke="#263238" stroke-linecap="round" stroke-linejoin="round"/>
<path d="M258.381 229.18H185.141V233.009H258.381V229.18Z" fill="white" stroke="#263238" stroke-linecap="round" stroke-linejoin="round"/>
<path d="M163.387 239.318H51.1661L45.8392 403.311C45.8098 403.765 45.8712 404.221 46.0197 404.651C46.1681 405.081 46.4008 405.477 46.704 405.817C47.0073 406.156 47.375 406.432 47.7859 406.628C48.1967 406.824 48.6425 406.936 49.0971 406.957C49.9379 406.933 50.7389 406.594 51.3421 406.008C51.9453 405.422 52.3067 404.631 52.355 403.791L63.066 269.783C63.2019 267.393 64.2278 265.14 65.9415 263.469C67.6553 261.797 69.9327 260.828 72.3253 260.752H142.227C144.619 260.828 146.895 261.798 148.607 263.47C150.319 265.141 151.342 267.394 151.475 269.783L162.198 403.768C162.246 404.606 162.606 405.395 163.206 405.981C163.807 406.567 164.605 406.907 165.444 406.935C165.899 406.914 166.345 406.804 166.756 406.609C167.167 406.415 167.536 406.14 167.84 405.802C168.145 405.464 168.379 405.068 168.528 404.638C168.678 404.209 168.741 403.754 168.714 403.299L163.387 239.318Z" fill="#D9E0F5" stroke="#263238" stroke-linecap="round" stroke-linejoin="round"/>
<path d="M163.637 246.863L163.386 239.318H126.68H87.8712H51.1656L50.9141 246.863H163.637Z" fill="#263238" stroke="#263238" stroke-linecap="round" stroke-linejoin="round"/>
<path d="M418.942 239.318H306.687L301.372 403.311C301.344 403.764 301.406 404.218 301.556 404.647C301.705 405.076 301.938 405.471 302.241 405.809C302.544 406.148 302.911 406.422 303.321 406.617C303.731 406.812 304.176 406.924 304.63 406.946C305.468 406.919 306.267 406.579 306.867 405.993C307.468 405.407 307.828 404.617 307.876 403.78L318.621 269.783C318.757 267.393 319.783 265.14 321.497 263.469C323.211 261.797 325.488 260.828 327.881 260.752H397.783C400.174 260.828 402.45 261.798 404.162 263.47C405.874 265.141 406.897 267.394 407.031 269.783L417.753 403.768C417.796 404.61 418.153 405.405 418.754 405.996C419.356 406.587 420.157 406.93 421 406.957C421.453 406.936 421.898 406.824 422.308 406.629C422.718 406.434 423.085 406.159 423.388 405.821C423.691 405.483 423.924 405.088 424.073 404.659C424.223 404.23 424.285 403.776 424.257 403.322L418.942 239.318Z" fill="#D9E0F5" stroke="#263238" stroke-linecap="round" stroke-linejoin="round"/>
<path d="M419.687 246.863L419.447 239.318H382.741H343.92H307.215L306.975 246.863H419.687Z" fill="#263238" stroke="#263238" stroke-linecap="round" stroke-linejoin="round"/>
<path d="M426.339 232.985H42.0664V241.627H426.339V232.985Z" fill="white" stroke="#263238" stroke-linecap="round" stroke-linejoin="round"/>
<path d="M426.35 232.985H150.926V241.627H426.35V232.985Z" fill="white" stroke="#263238" stroke-linecap="round" stroke-linejoin="round"/>
</svg>
