<svg width="48" height="48" viewBox="0 0 48 48" fill="none" xmlns="http://www.w3.org/2000/svg">
<rect width="48" height="48" rx="8" fill="#D9E0F5"/>
<g clip-path="url(#clip0_9186_22401)">
<path d="M12.7337 20.6311L12.7337 20.6311C11.9021 24.8341 13.3784 28.4983 15.7852 31.0098C18.2064 33.5363 21.5179 34.8474 24.2978 34.4165C25.8361 34.1775 26.6795 32.328 25.9211 30.8391L25.921 30.8389C24.666 28.3724 26.4639 25.4997 29.2213 25.4997H32.9572C34.353 25.4997 35.4947 24.3424 35.4994 22.9389C35.4761 15.8616 29.0369 10.2906 21.6718 11.7248L12.7337 20.6311ZM12.7337 20.6311C13.613 16.1853 17.2113 12.5954 21.6716 11.7248L12.7337 20.6311ZM12.2432 20.5341L12.2432 20.534L12.2432 20.5341ZM14.4994 24.4997C14.4994 25.6055 15.3936 26.4997 16.4994 26.4997C17.6053 26.4997 18.4994 25.6055 18.4994 24.4997C18.4994 23.3939 17.6053 22.4997 16.4994 22.4997C15.3936 22.4997 14.4994 23.3939 14.4994 24.4997ZM15.9994 18.4997C15.9994 19.6055 16.8936 20.4997 17.9994 20.4997C19.1053 20.4997 19.9994 19.6055 19.9994 18.4997C19.9994 17.3939 19.1053 16.4997 17.9994 16.4997C16.8936 16.4997 15.9994 17.3939 15.9994 18.4997ZM21.9994 15.4997C21.9994 16.6055 22.8936 17.4997 23.9994 17.4997C25.1053 17.4997 25.9994 16.6055 25.9994 15.4997C25.9994 14.3939 25.1053 13.4997 23.9994 13.4997C22.8936 13.4997 21.9994 14.3939 21.9994 15.4997ZM27.9994 18.4997C27.9994 19.6055 28.8936 20.4997 29.9994 20.4997C31.1053 20.4997 31.9994 19.6055 31.9994 18.4997C31.9994 17.3939 31.1053 16.4997 29.9994 16.4997C28.8936 16.4997 27.9994 17.3939 27.9994 18.4997Z" stroke="#0233BD"/>
</g>
<defs>
<clipPath id="clip0_9186_22401">
<rect width="24" height="24" fill="white" transform="translate(12 11)"/>
</clipPath>
</defs>
</svg>
