<svg width="48" height="48" viewBox="0 0 48 48" fill="none" xmlns="http://www.w3.org/2000/svg">
<rect width="48" height="48" rx="8" fill="#D9E0F5"/>
<path d="M30.1667 14.9997V15.4997H30.6667H35C35.278 15.4997 35.5 15.7216 35.5 15.9997V18.333C35.5 19.6058 34.6866 21.0012 33.1287 22.1231L33.1279 22.1236C31.8936 23.0159 30.3803 23.587 28.7808 23.7696L28.5363 23.7975L28.4093 24.0082C27.7839 25.0458 27.1076 25.7757 26.5921 26.2435C26.3344 26.4773 26.1172 26.6454 25.9673 26.7533C25.8923 26.8073 25.8343 26.8461 25.7965 26.8706C25.7776 26.8828 25.7637 26.8915 25.7554 26.8966L25.7473 26.9016L25.747 26.9017L25.747 26.9017L25.7468 26.9019L25.7464 26.9021L25.7461 26.9023L25.5 27.0464V27.333V30.333V30.833H26H28C28.6419 30.833 29.1891 31.0214 29.5662 31.3333C29.9337 31.6375 30.1667 32.0794 30.1667 32.6663V33.1663H17.8333V32.6663C17.8333 32.0794 18.0663 31.6375 18.4338 31.3333C18.8109 31.0214 19.3581 30.833 20 30.833H22H22.5V30.333V27.333V27.0464L22.2539 26.9023L22.2536 26.9021L22.2532 26.9019L22.253 26.9017L22.253 26.9017L22.2527 26.9016L22.2446 26.8966C22.2363 26.8915 22.2224 26.8828 22.2035 26.8706C22.1657 26.8461 22.1077 26.8073 22.0327 26.7533C21.8828 26.6454 21.6656 26.4773 21.4079 26.2435C20.8924 25.7757 20.2161 25.0458 19.5907 24.0082L19.4638 23.7975L19.2193 23.7696C17.6241 23.587 16.1104 23.016 14.8715 22.1232L14.8709 22.1227C13.3097 21.0014 12.5 19.6063 12.5 18.333V15.9997C12.5 15.7216 12.722 15.4997 13 15.4997H17.3333H17.8333V14.9997V13.333C17.8333 13.055 18.0553 12.833 18.3333 12.833H29.6667C29.9447 12.833 30.1667 13.055 30.1667 13.333V14.9997ZM15.845 20.7719L15.8453 20.7721C16.4081 21.1773 17.0396 21.4991 17.7122 21.7308L18.6135 22.0411L18.3565 21.1232C18.0757 20.1203 17.8819 18.9687 17.8414 17.651L17.8266 17.1663H17.3417H14.6667H14.1667V17.6663V18.333C14.1667 18.713 14.3365 19.136 14.6065 19.5358C14.884 19.9467 15.2951 20.3752 15.845 20.7719ZM32.1547 20.7721L32.1551 20.7718C32.5541 20.4838 32.9588 20.1106 33.269 19.7079C33.568 19.3198 33.8333 18.8344 33.8333 18.333V17.6663V17.1663H33.3333H30.6542H30.1693L30.1544 17.651C30.114 18.9687 29.9202 20.1203 29.6394 21.1232L29.3823 22.0411L30.2836 21.7308C30.9553 21.4995 31.5912 21.1778 32.1547 20.7721Z" stroke="#0233BD"/>
</svg>
