<svg width="48" height="48" viewBox="0 0 48 48" fill="none" xmlns="http://www.w3.org/2000/svg">
<rect width="48" height="48" rx="8" fill="#D9E0F5"/>
<g clip-path="url(#clip0_9186_22385)">
<g clip-path="url(#clip1_9186_22385)">
<mask id="path-2-inside-1_9186_22385" fill="white">
<path d="M28.5 16.5C28.5 14.0147 26.4853 12 24 12C21.5147 12 19.5 14.0147 19.5 16.5C19.5 18.9853 21.5147 21 24 21C26.4853 21 28.5 18.9853 28.5 16.5ZM22.9495 23.3016C20.1684 21.5991 15.6637 21.1313 13.3969 21.0023C12.6352 20.9592 12 21.5395 12 22.2722V32.7159C12 33.3877 12.5433 33.9478 13.2417 33.9839C15.2883 34.0912 19.4288 34.4845 22.2905 35.9259C22.7297 36.1472 23.2505 35.8458 23.2505 35.3695V23.8387C23.25 23.6198 23.1417 23.4192 22.9495 23.3016ZM34.6031 21.0023C32.3367 21.1308 27.8316 21.5991 25.0509 23.3016C24.8588 23.4192 24.7505 23.6278 24.7505 23.8467V35.3681C24.7505 35.8458 25.2727 36.1477 25.7133 35.9259C28.5745 34.4859 32.7127 34.0927 34.7587 33.9853C35.4572 33.9487 36.0005 33.3886 36.0005 32.7169V22.2722C36 21.5395 35.3648 20.9592 34.6031 21.0023Z"/>
</mask>
<path d="M28.5 16.5C28.5 14.0147 26.4853 12 24 12C21.5147 12 19.5 14.0147 19.5 16.5C19.5 18.9853 21.5147 21 24 21C26.4853 21 28.5 18.9853 28.5 16.5ZM22.9495 23.3016C20.1684 21.5991 15.6637 21.1313 13.3969 21.0023C12.6352 20.9592 12 21.5395 12 22.2722V32.7159C12 33.3877 12.5433 33.9478 13.2417 33.9839C15.2883 34.0912 19.4288 34.4845 22.2905 35.9259C22.7297 36.1472 23.2505 35.8458 23.2505 35.3695V23.8387C23.25 23.6198 23.1417 23.4192 22.9495 23.3016ZM34.6031 21.0023C32.3367 21.1308 27.8316 21.5991 25.0509 23.3016C24.8588 23.4192 24.7505 23.6278 24.7505 23.8467V35.3681C24.7505 35.8458 25.2727 36.1477 25.7133 35.9259C28.5745 34.4859 32.7127 34.0927 34.7587 33.9853C35.4572 33.9487 36.0005 33.3886 36.0005 32.7169V22.2722C36 21.5395 35.3648 20.9592 34.6031 21.0023Z" stroke="#0233BD" stroke-width="2" mask="url(#path-2-inside-1_9186_22385)"/>
</g>
</g>
<defs>
<clipPath id="clip0_9186_22385">
<rect width="24" height="24" fill="white" transform="translate(12 12)"/>
</clipPath>
<clipPath id="clip1_9186_22385">
<rect width="24" height="24" fill="white" transform="translate(12 12)"/>
</clipPath>
</defs>
</svg>
