<svg width="48" height="48" viewBox="0 0 48 48" fill="none" xmlns="http://www.w3.org/2000/svg">
<rect width="48" height="48" rx="8" fill="#D9E0F5"/>
<g clip-path="url(#clip0_9186_22381)">
<path d="M20.7511 31H27.249L27.2477 32.2971C27.2477 32.2972 27.2477 32.2972 27.2477 32.2972C27.2474 32.4939 27.1892 32.6861 27.0802 32.8499L27.0801 32.85L26.279 34.0542L26.2789 34.0543C26.1877 34.1915 26.064 34.3041 25.9188 34.3819C25.7735 34.4598 25.6113 34.5005 25.4466 34.5005H22.5539C22.3891 34.5005 22.2269 34.4598 22.0817 34.3819C21.9365 34.3041 21.8128 34.1915 21.7215 34.0543L21.7215 34.0542L20.9204 32.85L20.9202 32.8497C20.8114 32.6864 20.7531 32.4938 20.7528 32.2969L20.7511 31ZM18.1679 24.3477L18.1679 24.3477C16.9738 22.9853 16.25 21.2038 16.25 19.25C16.25 15.148 19.4861 11.5137 23.9757 11.5L23.9758 11.5C28.2673 11.4868 31.75 14.9615 31.75 19.25C31.75 21.2038 31.0262 22.9853 29.8321 24.3477L29.8321 24.3477C29.0785 25.2075 27.9298 26.9331 27.3851 28.5005H20.6149C20.0702 26.9331 18.9215 25.2075 18.1679 24.3477ZM27.7608 28.9639C28.2225 27.4068 29.4338 25.5608 30.2081 24.6772L27.7608 28.9639ZM20.75 19.25C20.75 17.4585 22.2085 16 24 16C24.6905 16 25.25 15.4406 25.25 14.75C25.25 14.0595 24.6905 13.5 24 13.5C20.8289 13.5 18.25 16.0789 18.25 19.25C18.25 19.9406 18.8095 20.5 19.5 20.5C20.1905 20.5 20.75 19.9406 20.75 19.25Z" stroke="#0233BD"/>
</g>
<defs>
<clipPath id="clip0_9186_22381">
<rect width="24" height="24" fill="white" transform="translate(12 11)"/>
</clipPath>
</defs>
</svg>
