<svg width="48" height="48" viewBox="0 0 48 48" fill="none" xmlns="http://www.w3.org/2000/svg">
<rect width="48" height="48" rx="8" fill="#D9E0F5"/>
<g clip-path="url(#clip0_9186_22390)">
<mask id="path-2-inside-1_9186_22390" fill="white">
<path d="M19.8295 25.5003C17.9489 25.6213 16.2422 26.3375 15.2738 28.8894C15.1636 29.1805 14.8988 29.3572 14.5898 29.3572C14.0691 29.3572 12.4589 28.0602 12 27.747C12.0005 31.6072 13.7784 35 18.0005 35C21.5564 35 24.0005 32.9483 24.0005 29.3661C24.0005 29.2203 23.97 29.0811 23.955 28.9381L19.8295 25.5003ZM33.4641 11C32.7534 11 32.0873 11.3145 31.5792 11.7711C21.9975 20.3305 21.0005 20.5316 21.0005 23.0511C21.0005 23.6933 21.1528 24.3055 21.4097 24.8652L24.4012 27.358C24.7392 27.4423 25.0875 27.5 25.4508 27.5C28.3622 27.5 30.0497 25.3686 35.3489 15.4784C35.6948 14.8058 36.0005 14.0792 36.0005 13.3227C36.0005 11.9675 34.7817 11 33.4641 11Z"/>
</mask>
<path d="M19.8295 25.5003C17.9489 25.6213 16.2422 26.3375 15.2738 28.8894C15.1636 29.1805 14.8988 29.3572 14.5898 29.3572C14.0691 29.3572 12.4589 28.0602 12 27.747C12.0005 31.6072 13.7784 35 18.0005 35C21.5564 35 24.0005 32.9483 24.0005 29.3661C24.0005 29.2203 23.97 29.0811 23.955 28.9381L19.8295 25.5003ZM33.4641 11C32.7534 11 32.0873 11.3145 31.5792 11.7711C21.9975 20.3305 21.0005 20.5316 21.0005 23.0511C21.0005 23.6933 21.1528 24.3055 21.4097 24.8652L24.4012 27.358C24.7392 27.4423 25.0875 27.5 25.4508 27.5C28.3622 27.5 30.0497 25.3686 35.3489 15.4784C35.6948 14.8058 36.0005 14.0792 36.0005 13.3227C36.0005 11.9675 34.7817 11 33.4641 11Z" stroke="#0233BD" stroke-width="2" mask="url(#path-2-inside-1_9186_22390)"/>
</g>
<defs>
<clipPath id="clip0_9186_22390">
<rect width="24" height="24" fill="white" transform="translate(12 11)"/>
</clipPath>
</defs>
</svg>
