<svg width="48" height="48" viewBox="0 0 48 48" fill="none" xmlns="http://www.w3.org/2000/svg">
<rect width="48" height="48" rx="8" fill="#D9E0F5"/>
<g clip-path="url(#clip0_9186_22397)">
<path d="M35.449 31.139L35.4493 31.14C35.593 31.497 35.4197 31.9043 35.059 32.0494L35.0559 32.0507C34.975 32.0839 34.8901 32.0995 34.7995 32.0995C34.5206 32.0995 34.259 31.9324 34.15 31.6601L34.15 31.66L33.1578 29.1812L33.2017 28.781L34.1001 27.7668L35.449 31.139ZM33.4498 20.1909L33.4498 20.1912L34.1435 23.1983C34.2796 23.7899 34.12 24.4204 33.7156 24.8818C33.7154 24.882 33.7152 24.8823 33.7149 24.8826L31.1965 27.727L31.0911 27.8461L31.0738 28.0042L30.6951 31.4762C30.6559 31.8338 30.3523 32.0995 29.9997 32.0995C29.9808 32.0995 29.963 32.0981 29.917 32.0943C29.5393 32.0503 29.2628 31.707 29.3044 31.322L29.6827 27.8458C29.6828 27.8453 29.6828 27.8448 29.6829 27.8442C29.7276 27.4598 29.8869 27.1018 30.1459 26.8068C30.1461 26.8066 30.1463 26.8063 30.1466 26.8061L31.7693 24.9697L31.9436 24.7725L31.8797 24.5172L31.2197 21.8811L30.803 20.2165L30.2603 21.8444L30.0053 22.6093L30.0042 22.6127C29.8869 22.9733 29.6656 23.2911 29.2786 23.577L27.3782 24.7856C27.378 24.7858 27.3778 24.7859 27.3776 24.786C27.3047 24.8316 27.1271 24.8817 26.9782 24.8961H21.0218C20.8728 24.8817 20.6952 24.8316 20.6224 24.786C20.6222 24.7859 20.622 24.7857 20.6218 24.7856L18.7215 23.577C18.3353 23.2917 18.1131 22.9704 17.9954 22.6116L17.9946 22.6093L17.7397 21.8444L17.197 20.2165L16.7803 21.8811L16.1203 24.5172L16.0564 24.7725L16.2307 24.9697L17.8534 26.8061C17.8536 26.8062 17.8537 26.8064 17.8539 26.8066C18.113 27.1016 18.2724 27.4597 18.3171 27.8443C18.3172 27.8448 18.3172 27.8453 18.3173 27.8458L18.6956 31.322C18.7373 31.7083 18.4631 32.0504 18.0831 32.0943C18.037 32.0981 18.0192 32.0995 18.0003 32.0995C17.6463 32.0995 17.3444 31.8325 17.3049 31.4764C17.3049 31.4762 17.3048 31.4761 17.3048 31.4759L16.9262 28.0042L16.9089 27.8461L16.8035 27.727L14.2839 24.8812C13.8776 24.4216 13.72 23.7918 13.8565 23.1983L13.8566 23.198L14.5465 20.1909C14.5465 20.1908 14.5465 20.1908 14.5465 20.1907C14.5465 20.1907 14.5465 20.1907 14.5466 20.1906C14.6834 19.596 15.1007 19.0954 15.6624 18.8547L15.6639 18.8541C16.2109 18.6175 16.8083 18.6556 17.3163 18.9503C18.0642 19.3923 18.6257 20.0831 18.8982 20.9038L18.8984 20.9044L19.3221 22.1756L19.3784 22.3445L19.5289 22.4399L20.1326 22.8223L20.9002 23.3086V22.4V18.8001C20.9002 18.7463 20.9463 18.7002 21.0001 18.7002H26.9999C27.0537 18.7002 27.0998 18.7463 27.0998 18.8001V22.4V23.3117L27.8686 22.8216L28.4686 22.4391L28.6181 22.3438L28.6741 22.1756L29.0973 20.9061C29.0974 20.9058 29.0975 20.9055 29.0976 20.9052C29.3746 20.0849 29.9342 19.3908 30.6806 18.9499C31.1839 18.656 31.7847 18.6173 32.3324 18.8541L32.3339 18.8547C32.8956 19.0955 33.313 19.5961 33.4498 20.1909ZM12.551 31.139L13.8999 27.7668L14.7983 28.781L14.8422 29.1812L13.8506 31.6586C13.8505 31.6588 13.8504 31.6591 13.8503 31.6593C13.7076 32.0116 13.3089 32.1928 12.939 32.0486C12.5797 31.9028 12.4073 31.4963 12.5507 31.14L12.551 31.139ZM18.1003 15.2003C18.1003 15.9179 17.5179 16.5002 16.8003 16.5002C16.0828 16.5002 15.5004 15.9179 15.5004 15.2003C15.5004 14.4827 16.0828 13.9004 16.8003 13.9004C17.5179 13.9004 18.1003 14.4827 18.1003 15.2003ZM32.4996 15.2003C32.4996 15.9179 31.9172 16.5002 31.1997 16.5002C30.4821 16.5002 29.8997 15.9179 29.8997 15.2003C29.8997 14.4827 30.4821 13.9004 31.1997 13.9004C31.9172 13.9004 32.4996 14.4827 32.4996 15.2003Z" stroke="#0233BD"/>
</g>
<defs>
<clipPath id="clip0_9186_22397">
<rect width="24" height="24" fill="white" transform="translate(12 11)"/>
</clipPath>
</defs>
</svg>
