<?xml version="1.0" encoding="utf-8"?><!-- Uploaded to: SVG Repo, www.svgrepo.com, Generator: SVG Repo Mixer Tools -->
<svg width="800px" height="800px" viewBox="0 0 80 80" fill="none" xmlns="http://www.w3.org/2000/svg">
<path d="M38.738 31.651C38.9137 31.2946 39.1044 30.9081 39.3002 30.4914C42.5482 23.7043 48.5221 9.78361 49.6315 8.09184C50.8062 6.29465 52.508 5.32581 55.3243 6.54067C58.1406 7.75552 58.3865 10.9633 56.5341 14.3418C54.6817 17.7203 51.1627 30.3057 49.5211 36.3599C46.6396 46.9824 43.1255 53.7946 43.1255 53.7946L34.486 42.2836L38.738 31.651Z" fill="url(#paint0_linear)"/>
<path opacity="0.16" d="M52.2921 6.93728C52.7439 6.16921 54.6716 6.93728 55.4748 7.866C56.278 8.79471 56.5692 10.1702 56.1123 10.9383C55.6605 11.7064 54.516 11.104 53.5019 10.5869C51.765 9.69331 51.8403 7.70535 52.2921 6.93728Z" fill="url(#paint1_radial)"/>
<path d="M49.6315 8.09128C49.0592 8.96979 47.1817 13.1214 45.0532 17.8704C43.0702 22.288 42.9648 27.4638 47.7791 13.8242C49.7821 8.14651 52.6134 6.013 53.6576 6.0632C51.8001 5.80216 50.5501 6.68566 49.6315 8.09128Z" fill="url(#paint2_linear)"/>
<path d="M49.5161 36.3594C51.1576 30.3052 54.6767 17.7199 56.5291 14.3364C57.5332 12.499 57.8996 10.7269 57.5934 9.28613C55.7058 14.3865 50.9619 21.1687 49.1898 28.1064C45.8514 41.1536 47.6386 43.2871 49.5161 36.3594Z" fill="url(#paint3_linear)"/>
<path d="M38.738 31.651C38.9137 31.2946 39.1044 30.9081 39.3002 30.4914C42.5482 23.7043 48.5221 9.78361 49.6315 8.09184C50.8062 6.29465 52.508 5.32581 55.3243 6.54067C58.1406 7.75552 58.3865 10.9633 56.5341 14.3418C54.6817 17.7203 51.1627 30.3057 49.5211 36.3599C46.6396 46.9824 43.1255 53.7946 43.1255 53.7946L34.486 42.2836L38.738 31.651Z" fill="url(#paint4_linear)"/>
<path d="M49.1998 8.875C48.4518 10.3258 47.0964 13.3177 45.5402 16.7766L46.4137 18.8298L50.751 30.9633C50.751 30.9633 50.8765 30.893 51.0622 30.7826C51.8705 27.9262 52.7942 24.7735 53.6928 21.9472C51.3886 18.7796 49.4357 13.1471 49.1998 8.875Z" fill="url(#paint5_linear)"/>
<path d="M42.6285 23.2578C41.9609 24.7438 41.3032 26.1895 40.6908 27.5148C42.5532 31.1092 41.5743 38.4184 39.9629 40.9034C38.5773 43.0419 43.989 44.0961 46.9709 44.5027C47.8093 42.1483 48.6878 39.4174 49.5161 36.3602C49.5713 36.1494 49.6366 35.9084 49.7018 35.6825L50.0331 32.314L42.6285 23.2578Z" fill="url(#paint6_linear)"/>
<path d="M46.3733 41.4742C46.308 41.0826 45.3191 36.1228 45.2387 35.671C43.8783 28.2714 39.5912 13.2514 39.4907 11.2333C39.3853 9.08973 40.1885 7.30759 43.1805 6.62988C46.1725 5.95217 48.2558 8.40697 48.7478 12.2323C49.2397 16.0576 54.2247 27.8196 56.5389 33.6479C60.7257 44.1801 61.0921 52.0314 61.0921 52.0314L47.3371 47.7995L46.3733 41.4742Z" fill="url(#paint7_linear)"/>
<path opacity="0.16" d="M40.9669 8.7339C40.8815 7.84535 42.8896 7.33833 44.0894 7.61444C45.2891 7.89054 46.3283 8.83431 46.4136 9.72287C46.499 10.6114 45.2189 10.7972 44.0994 10.9729C42.1566 11.2691 41.0522 9.62246 40.9669 8.7339Z" fill="url(#paint8_radial)"/>
<path d="M41.5492 7.22363C39.8976 8.10215 39.4056 9.55294 39.4859 11.2296C39.5863 13.2527 43.8735 28.2678 45.2339 35.6674C45.3192 36.1192 46.3032 41.079 46.3684 41.4706L47.2319 47.1282C49.3453 50.5369 51.5843 45.1553 41.3584 16.9576C39.3052 11.2949 40.6807 7.80094 41.5492 7.22363Z" fill="url(#paint9_linear)"/>
<path d="M56.5292 33.6139C54.2049 27.7755 49.235 16.0486 48.7481 12.2284V12.2233C48.6828 11.7163 48.5874 11.2394 48.467 10.7876C48.4469 10.7173 48.4218 10.6621 48.4017 10.5918C48.2862 10.2002 48.1607 9.82373 48.0101 9.48236C48.0001 9.45726 47.985 9.43716 47.975 9.41206C47.6236 8.64399 47.1718 8.00146 46.6396 7.51953C48.1105 12.7555 48.2611 21.0285 50.9017 27.6851C55.8716 40.2002 53.0503 41.1239 51.6647 42.9562C54.5965 42.901 58.7179 51.0686 61.0924 52.0325C60.8013 51.5807 60.6557 50.6721 60.6005 49.4673C60.4699 45.7022 58.6828 39.7183 56.5292 33.6139Z" fill="url(#paint10_linear)"/>
<path d="M18.4117 50.6274C18.4117 52.9366 19.5412 53.9708 20.1085 54.3473C20.2993 54.4728 20.4248 54.523 20.4248 54.523L30.977 62.1535L50.2892 58.1977L49.6968 45.9788C42.4629 45.0501 35.7109 42.3493 28.6426 40.4919C28.5222 40.4618 28.1507 37.4497 28.0252 37.4196C27.8344 37.3694 27.8946 40.3011 27.7039 40.2509C24.8876 39.5431 22.0212 38.9909 19.0442 38.7449C17.8545 42.6204 18.4117 47.9366 18.4117 50.6274Z" fill="url(#paint11_linear)"/>
<path d="M38.9789 50.9872C43.738 50.4852 46.755 54.3807 47.1315 56.4038L48.6878 55.8366L47.9799 48.0655L42.9398 44.8175L36.2028 43.1207L29.3705 39.5414L28.0653 35.4601C28.0302 35.4601 27.7039 35.4551 27.6687 35.4551L21.1175 36.1227C20.4097 36.3838 19.8976 36.7302 19.6667 37.187C18.7982 38.8838 18.4619 41.0926 18.3464 43.2964C19.3705 45.3546 21.6647 46.4189 23.6727 46.4189C26.0272 46.4189 27.4428 44.6267 28.2912 43.1207C28.2912 43.1207 28.4468 45.8516 32.232 46.8908C32.2269 46.8908 35.0432 51.4038 38.9789 50.9872Z" fill="url(#paint12_linear)"/>
<path d="M23.6175 45.4768C20.8414 45.4768 18.5472 43.2178 18.1607 38.9759C18.1205 38.514 17.3424 30.2158 22.0864 30.2158C26.489 30.2158 27.734 31.9126 28.0201 37.5652C28.3062 43.2178 26.489 45.4768 23.6175 45.4768Z" fill="url(#paint13_linear)"/>
<path d="M34.1294 46.1384C30.7007 46.1384 28.9889 44.6323 28.512 40.3452C28.0351 36.058 25.9718 28.3322 32.267 27.9155C38.2961 27.5189 38.4116 31.2488 38.4116 37.4687C38.4116 43.6886 37.0812 46.1384 34.1294 46.1384Z" fill="url(#paint14_linear)"/>
<path d="M33.9388 40.2003C31.3233 41.5206 29.5612 41.5457 28.4418 39.7485C28.4669 39.9493 28.497 40.1551 28.5171 40.3459C28.994 44.633 30.7058 46.139 34.1345 46.139C36.5442 46.139 37.8745 44.5025 38.2811 40.5166C37.6034 39.3519 35.4799 39.4222 33.9388 40.2003Z" fill="url(#paint15_linear)"/>
<path d="M23.522 40.015C21.1876 40.015 19.2549 38.5642 18.9336 35.8433C19.0591 36.8975 18.0852 30.2158 22.2368 30.2158C25.9417 30.2158 26.9858 31.3052 27.2318 34.9347C27.4678 38.5642 25.9366 40.015 23.522 40.015Z" fill="url(#paint16_linear)"/>
<path d="M33.6576 39.7293C30.8464 39.7293 29.5813 38.2484 29.1044 35.2112C28.8584 33.65 27.262 28.1982 32.4227 27.907C37.3725 27.6259 37.3725 31.2403 37.4729 34.3126C37.6235 38.7303 36.0773 39.7293 33.6576 39.7293Z" fill="url(#paint17_linear)"/>
<path d="M32.0863 45.8821C32.6887 46.0478 33.3614 46.1382 34.1295 46.1382C37.0813 46.1382 38.4116 43.6884 38.4116 37.4685C38.4116 31.4745 38.2911 27.8049 32.8795 27.9003C35.008 29.1703 36.7399 32.0569 36.7399 37.2777C36.7449 44.7075 35.0783 45.8671 32.0863 45.8821Z" fill="url(#paint18_linear)"/>
<path d="M32.2269 43.8444C32.2269 41.3344 34.004 41.2541 38.758 40.8274C42.1616 40.5262 45.8564 39.6326 50.5652 41.4549C55.9417 43.5332 60.9919 46.5402 61.0572 51.9468C61.1124 56.7812 57.3523 73.995 40.8965 73.995C24.4407 73.995 18.9136 65.1998 18.4116 50.6316L47.1315 56.4097C47.1315 56.4097 47.7439 51.2741 44.2248 49.7531C42.7238 49.1055 39.516 49.6276 37.3775 49.6276C35.2439 49.6225 32.2269 47.238 32.2269 43.8444Z" fill="url(#paint19_linear)"/>
<path d="M52.6435 63.0958C45.6706 68.1812 46.2379 71.0125 39.7369 71.0125C33.2359 71.0125 29.0441 67.5737 26.0773 64.6069C23.1104 61.64 20.6104 56.6903 19.3855 52.9252C19.0943 52.0366 18.758 51.2936 18.4116 50.6611C18.9186 65.2143 24.4508 73.9995 40.8965 73.9995C57.3523 73.9995 61.1174 56.7906 61.0572 51.9513C61.0321 49.8378 60.2339 48.0909 58.9638 46.625C59.3252 53.5276 58.3664 58.9141 52.6435 63.0958Z" fill="url(#paint20_radial)"/>
<path d="M23.6426 42.841C20.8213 42.841 18.4869 40.597 18 36.4053C18.0201 37.2486 18.0803 38.1171 18.1606 38.9756C18.5422 43.2175 20.8414 45.4766 23.6175 45.4766C26.3132 45.4766 28.0552 43.4485 28.0251 38.5338C27.4478 41.5509 25.8464 42.841 23.6426 42.841Z" fill="url(#paint21_linear)"/>
<path d="M28.0201 37.5648C27.749 32.1783 26.5994 30.3911 22.6837 30.2305C24.7369 30.5668 28.7078 38.4734 23.2409 45.4413C23.3665 45.4513 23.492 45.4814 23.6175 45.4814C26.4889 45.4764 28.3062 43.2174 28.0201 37.5648Z" fill="url(#paint22_linear)"/>
<path d="M48.8082 51.3804C48.6827 48.3633 44.9779 45.3513 41.9006 45.6625C39.2449 45.9336 34.4307 46.295 32.2821 44.3271C32.5582 47.4547 35.3494 49.6233 37.3775 49.6233C39.511 49.6233 42.7239 49.1012 44.2249 49.7488C47.7439 51.2699 47.1315 56.4055 47.1315 56.4055C47.1315 56.4055 48.9337 54.3974 48.8082 51.3804Z" fill="url(#paint23_linear)"/>
<path d="M61.0571 51.9468C60.9969 46.5452 55.9417 43.5382 50.5652 41.4549C45.8563 39.6326 42.1565 40.5262 38.7579 40.8274C35.1284 41.1487 33.2459 41.2792 32.5481 42.4338C37.021 41.3294 41.2077 40.8776 46.3684 41.4699C53.0953 42.238 58.1806 46.3846 59.1043 49.5573C60.0179 52.6898 59.8824 58.5281 59.8824 58.6687C60.7559 55.8625 61.0772 53.3675 61.0571 51.9468Z" fill="url(#paint24_linear)"/>
<path d="M47.1315 56.4057C47.2168 55.1858 47.1164 53.9358 46.7249 52.7762C46.3534 51.6266 45.6154 50.5423 44.5261 50.0051C43.4668 49.4127 42.1716 49.5232 40.9718 49.5483C39.7469 49.5985 38.5271 49.744 37.2821 49.734C34.7269 49.5081 32.6486 47.3344 32.1817 44.8746C32.0662 44.2571 32.0361 43.6196 32.1616 42.982C32.2972 42.3394 32.7841 41.7571 33.3865 41.5161C34.5763 41.0091 35.8263 40.9489 37.0411 40.8033C39.4959 40.6527 41.9106 40.2109 44.3955 40.1959C46.8754 40.1607 49.3503 40.733 51.5993 41.737C53.8584 42.6959 56.0923 43.8254 57.9548 45.472C59.8122 47.0885 61.1023 49.4579 61.0572 51.9428C61.0371 49.4529 59.7068 47.1537 57.8393 45.6025C55.9869 44.0011 53.768 42.8917 51.509 41.9579C49.265 40.979 46.8453 40.4419 44.4006 40.4921C41.9658 40.5222 39.5261 40.984 37.0763 41.1547C35.8664 41.2853 34.6114 41.3505 33.5221 41.8073C32.9749 42.0282 32.5933 42.485 32.4628 43.0473C32.3423 43.6145 32.3624 44.232 32.4678 44.8143C32.8745 47.1436 34.8925 49.2722 37.2871 49.4931C38.502 49.5131 39.7319 49.3776 40.9568 49.3375C42.1666 49.3274 43.4819 49.2069 44.6064 49.8495C45.7259 50.4418 46.4538 51.5764 46.8052 52.7461C47.1716 53.9358 47.2419 55.1858 47.1315 56.4057Z" fill="#975500"/>
<path d="M27.8394 35.4512C28.0653 37.2484 28.2912 39.0757 28.01 40.898C27.8845 41.8016 27.6636 42.7102 27.2219 43.5385C26.8002 44.3719 26.0572 45.0596 25.1636 45.401C23.3614 45.9933 21.2681 45.4411 20.0331 44.0305C18.748 42.66 18.2661 40.7725 18.1606 38.9753C18.4016 40.7574 18.9639 42.5697 20.2038 43.8648C21.4086 45.1851 23.4016 45.6419 25.0432 45.0646C26.75 44.4873 27.5281 42.5897 27.7791 40.8628C28.0703 39.0857 27.9297 37.2634 27.8394 35.4512Z" fill="#975500"/>
<path d="M32.7791 46.0233C32.2018 46.209 31.6696 45.953 31.1877 45.702C30.7008 45.446 30.259 45.0896 29.9026 44.6729C29.1747 43.8345 28.7982 42.7803 28.5672 41.7361C28.3564 40.6769 28.3313 39.6227 28.1807 38.5785C28.0502 37.5293 27.9347 36.4801 27.8895 35.4209C28.0251 36.4701 28.2058 37.5092 28.3765 38.5484C28.5773 39.5876 28.6676 40.6518 28.9136 41.6558C29.1496 42.6599 29.5261 43.6538 30.1988 44.4118C30.5301 44.7883 30.9317 45.1046 31.3785 45.3355C31.8303 45.5815 32.3222 45.6418 32.7791 46.0233Z" fill="#975500"/>
<path d="M35.1084 28.1162C35.6857 28.2618 36.253 28.5027 36.7349 28.8893C37.2118 29.2758 37.5482 29.813 37.7941 30.3702C38.2911 31.4947 38.4217 32.7196 38.5271 33.9194C38.5823 35.1242 38.5873 36.324 38.5622 37.5238C38.5522 38.1212 38.5672 38.7186 38.5371 39.326C38.517 39.6272 38.512 39.9334 38.4467 40.2346C38.3915 40.5007 38.256 40.9425 37.8895 40.9124C38.1907 40.8069 38.1807 40.4656 38.2459 40.1995C38.2811 39.9134 38.3162 39.6172 38.3162 39.321C38.3263 38.7287 38.2911 38.1313 38.2761 37.5289C38.2409 36.3291 38.256 35.1343 38.1757 33.9445C38.1104 32.7648 38.0301 31.555 37.5984 30.4606C37.2018 29.3361 36.258 28.4777 35.1084 28.1162Z" fill="#975500"/>
<path d="M38.9788 49.5718C35.0431 49.9885 32.2318 45.4754 32.2318 45.4754C28.4467 44.4413 28.2911 41.7054 28.2911 41.7054C27.4427 43.2114 26.0321 45.0035 23.6726 45.0035C21.6696 45.0035 19.3704 43.9343 18.3463 41.8811C18.3714 41.4243 18.4116 40.9674 18.4568 40.5156H18.4417C18.3112 41.7556 18.281 43.0206 18.2911 44.2355C20.3192 46.5598 23.4919 46.8861 25.52 46.2887C26.0672 46.1281 28.6324 44.1903 30.6104 46.1381C32.7589 48.2465 35.2539 50.9423 39.5411 50.8469C43.8282 50.7515 47.1364 54.9935 47.1364 54.9935C46.7549 52.9654 43.7328 49.0698 38.9788 49.5718Z" fill="url(#paint25_linear)"/>
<path opacity="0.16" d="M21.4438 51.1245C19.9328 52.9418 24.5262 63.4187 29.0643 66.0592C33.6025 68.6998 39.2802 67.8865 40.3896 65.7932C41.4991 63.6948 36.7852 60.4367 32.9298 56.8273C26.2681 50.5974 22.9549 49.3072 21.4438 51.1245Z" fill="url(#paint26_radial)"/>
<path opacity="0.16" d="M58.3965 52.465C59.1997 51.3856 55.1837 44.6788 51.9758 42.8666C48.768 41.0593 42.4578 42.1336 41.9407 43.4037C41.4287 44.6738 47.508 46.1045 50.3694 48.4941C55.3142 52.6256 57.5933 53.5493 58.3965 52.465Z" fill="url(#paint27_radial)"/>
<path d="M42.4779 23.749L44.6566 31.9719C44.9829 33.3524 45.3193 34.7329 45.5853 36.1285C45.7209 36.8263 45.8464 37.5241 45.9568 38.2269C46.0622 38.9297 46.2128 39.6275 46.1576 40.3504C45.9317 39.6627 45.8765 38.9599 45.7359 38.2671C45.6054 37.5743 45.4598 36.8815 45.2992 36.1888C44.9829 34.8082 44.6616 33.4327 44.3153 32.0572C43.6978 29.2862 42.9749 26.5402 42.4779 23.749Z" fill="#975500"/>
<defs>
<linearGradient id="paint0_linear" x1="24.8698" y1="77.9331" x2="35.395" y2="54.869" gradientUnits="userSpaceOnUse">
<stop offset="0.00132565" stop-color="#BE8D68"/>
<stop offset="1" stop-color="#CD9870"/>
</linearGradient>
<radialGradient id="paint1_radial" cx="0" cy="0" r="1" gradientUnits="userSpaceOnUse" gradientTransform="translate(54.1858 9.02708) rotate(-131.033) scale(2.78955 1.48287)">
<stop stop-color="#F8DBBA"/>
<stop offset="1" stop-color="#CD9870" stop-opacity="0"/>
</radialGradient>
<linearGradient id="paint2_linear" x1="133.685" y1="-74.5082" x2="164.412" y2="-106.262" gradientUnits="userSpaceOnUse">
<stop stop-color="#D2A374" stop-opacity="0"/>
<stop offset="1" stop-color="#B88653"/>
</linearGradient>
<linearGradient id="paint3_linear" x1="451.914" y1="-90.475" x2="494.367" y2="-102.731" gradientUnits="userSpaceOnUse">
<stop stop-color="#D2A374" stop-opacity="0"/>
<stop offset="1" stop-color="#B88653"/>
</linearGradient>
<linearGradient id="paint4_linear" x1="44.8255" y1="9.41291" x2="52.0853" y2="104.853" gradientUnits="userSpaceOnUse">
<stop stop-color="#473226" stop-opacity="0"/>
<stop offset="1" stop-color="#3D2A20"/>
</linearGradient>
<linearGradient id="paint5_linear" x1="51.7462" y1="8.40022" x2="48.0158" y2="27.5918" gradientUnits="userSpaceOnUse">
<stop stop-color="#A46C3F" stop-opacity="0"/>
<stop offset="1" stop-color="#804B24"/>
</linearGradient>
<linearGradient id="paint6_linear" x1="34.4359" y1="10.6354" x2="54.6218" y2="61.6314" gradientUnits="userSpaceOnUse">
<stop stop-color="#A46C3F" stop-opacity="0"/>
<stop offset="1" stop-color="#804B24"/>
</linearGradient>
<linearGradient id="paint7_linear" x1="59.1061" y1="55.0907" x2="50.261" y2="34.5995" gradientUnits="userSpaceOnUse">
<stop offset="0.00132565" stop-color="#BE8D68"/>
<stop offset="1" stop-color="#CD9870"/>
</linearGradient>
<radialGradient id="paint8_radial" cx="0" cy="0" r="1" gradientUnits="userSpaceOnUse" gradientTransform="translate(43.7157 9.32748) rotate(-167.041) scale(2.78984 1.48338)">
<stop stop-color="#F8DBBA"/>
<stop offset="1" stop-color="#CD9870" stop-opacity="0"/>
</radialGradient>
<linearGradient id="paint9_linear" x1="43.2927" y1="30.3309" x2="30.8979" y2="55.2387" gradientUnits="userSpaceOnUse">
<stop stop-color="#B37E53"/>
<stop offset="1" stop-color="#CD9870"/>
</linearGradient>
<linearGradient id="paint10_linear" x1="55.9817" y1="24.9419" x2="21.7037" y2="103.206" gradientUnits="userSpaceOnUse">
<stop stop-color="#D2A374" stop-opacity="0"/>
<stop offset="1" stop-color="#B88653"/>
</linearGradient>
<linearGradient id="paint11_linear" x1="19.4901" y1="49.7848" x2="59.3364" y2="49.7848" gradientUnits="userSpaceOnUse">
<stop offset="0.00132565" stop-color="#BE8D68"/>
<stop offset="1" stop-color="#CD9870"/>
</linearGradient>
<linearGradient id="paint12_linear" x1="34.4718" y1="27.2084" x2="32.7897" y2="66.5178" gradientUnits="userSpaceOnUse">
<stop stop-color="#473226" stop-opacity="0"/>
<stop offset="1" stop-color="#3D2A20"/>
</linearGradient>
<linearGradient id="paint13_linear" x1="23.0685" y1="36.5274" x2="23.0685" y2="53.983" gradientUnits="userSpaceOnUse">
<stop offset="0.00132565" stop-color="#BE8D68"/>
<stop offset="1" stop-color="#CD9870"/>
</linearGradient>
<linearGradient id="paint14_linear" x1="33.1136" y1="36.5263" x2="33.1136" y2="53.9819" gradientUnits="userSpaceOnUse">
<stop offset="0.00132565" stop-color="#BE8D68"/>
<stop offset="1" stop-color="#CD9870"/>
</linearGradient>
<linearGradient id="paint15_linear" x1="33.3597" y1="36.0915" x2="33.3597" y2="59.222" gradientUnits="userSpaceOnUse">
<stop stop-color="#8D562E" stop-opacity="0"/>
<stop offset="1" stop-color="#8D562E"/>
</linearGradient>
<linearGradient id="paint16_linear" x1="23.0825" y1="44.2268" x2="23.0825" y2="28.1569" gradientUnits="userSpaceOnUse">
<stop offset="0.00132565" stop-color="#BE8D68"/>
<stop offset="1" stop-color="#CD9870"/>
</linearGradient>
<linearGradient id="paint17_linear" x1="33.0802" y1="44.2273" x2="33.0802" y2="28.1573" gradientUnits="userSpaceOnUse">
<stop offset="0.00132565" stop-color="#BE8D68"/>
<stop offset="1" stop-color="#CD9870"/>
</linearGradient>
<linearGradient id="paint18_linear" x1="26.359" y1="32.822" x2="69.3981" y2="57.2717" gradientUnits="userSpaceOnUse">
<stop stop-color="#8D562E" stop-opacity="0"/>
<stop offset="1" stop-color="#8D562E"/>
</linearGradient>
<linearGradient id="paint19_linear" x1="19.4899" y1="57.1687" x2="59.3363" y2="57.1687" gradientUnits="userSpaceOnUse">
<stop offset="0.00132565" stop-color="#BE8D68"/>
<stop offset="1" stop-color="#CD9870"/>
</linearGradient>
<radialGradient id="paint20_radial" cx="0" cy="0" r="1" gradientUnits="userSpaceOnUse" gradientTransform="translate(39.912 38.6941) scale(29.5447 39.8115)">
<stop offset="0.6147" stop-color="#B37E53" stop-opacity="0"/>
<stop offset="1" stop-color="#B37E53"/>
</radialGradient>
<linearGradient id="paint21_linear" x1="22.9191" y1="36.0852" x2="24.1132" y2="55.8824" gradientUnits="userSpaceOnUse">
<stop stop-color="#8D562E" stop-opacity="0"/>
<stop offset="1" stop-color="#8D562E"/>
</linearGradient>
<linearGradient id="paint22_linear" x1="12.4524" y1="30.5772" x2="78.873" y2="72.753" gradientUnits="userSpaceOnUse">
<stop stop-color="#8D562E" stop-opacity="0"/>
<stop offset="1" stop-color="#8D562E"/>
</linearGradient>
<linearGradient id="paint23_linear" x1="40.5486" y1="54.9751" x2="40.5486" y2="27.3499" gradientUnits="userSpaceOnUse">
<stop stop-color="#B37E53"/>
<stop offset="1" stop-color="#CD9870"/>
</linearGradient>
<linearGradient id="paint24_linear" x1="41.2618" y1="39.6175" x2="72.6621" y2="73.8509" gradientUnits="userSpaceOnUse">
<stop stop-color="#8D562E" stop-opacity="0"/>
<stop offset="1" stop-color="#8D562E"/>
</linearGradient>
<linearGradient id="paint25_linear" x1="29.908" y1="56.5277" x2="39.047" y2="28.6395" gradientUnits="userSpaceOnUse">
<stop stop-color="#A46C3F" stop-opacity="0"/>
<stop offset="1" stop-color="#804B24"/>
</linearGradient>
<radialGradient id="paint26_radial" cx="0" cy="0" r="1" gradientUnits="userSpaceOnUse" gradientTransform="translate(30.3808 60.1682) rotate(-138.967) scale(13.2034 6.02487)">
<stop stop-color="#F8DBBA"/>
<stop offset="1" stop-color="#CD9870" stop-opacity="0"/>
</radialGradient>
<radialGradient id="paint27_radial" cx="0" cy="0" r="1" gradientUnits="userSpaceOnUse" gradientTransform="translate(50.6751 45.9397) rotate(38.2129) scale(10.1808 3.74864)">
<stop stop-color="#F8DBBA"/>
<stop offset="1" stop-color="#CD9870" stop-opacity="0"/>
</radialGradient>
</defs>
</svg>