<?xml version="1.0" ?>
<!DOCTYPE svg  PUBLIC '-//W3C//DTD SVG 1.1//EN'  'http://www.w3.org/Graphics/SVG/1.1/DTD/svg11.dtd'>
<!-- Uploaded to: SVG Repo, www.svgrepo.com, Generator: SVG Repo Mixer Tools -->
<svg width="800px" height="800px" viewBox="0 0 8.66 8.66" style="shape-rendering:geometricPrecision; text-rendering:geometricPrecision; image-rendering:optimizeQuality; fill-rule:evenodd; clip-rule:evenodd" version="1.1" xml:space="preserve" xmlns="http://www.w3.org/2000/svg" xmlns:xlink="http://www.w3.org/1999/xlink" xmlns:xodm="http://www.corel.com/coreldraw/odm/2003">
<defs>
<style type="text/css">
   <![CDATA[
    .fil0 {fill:none}
    .fil2 {fill:#2554B0;fill-rule:nonzero}
    .fil1 {fill:#479DFF;fill-rule:nonzero}
   ]]>
  </style>
</defs>
<g id="Layer_x0020_1">
<rect class="fil0" height="8.66" width="8.66"/>
<path class="fil1" d="M2.88 4.08l0 -0.95c0,-0.1 0.04,-0.19 0.11,-0.26l0 0c0.07,-0.07 0.17,-0.11 0.27,-0.11l1.46 0c0.06,0 0.11,0.03 0.13,0.08l0.24 0.43 0.77 0c0.1,0 0.19,0.04 0.26,0.11l0 0c0.07,0.07 0.11,0.17 0.11,0.27l0 2.11 -0.28 0 0 -2.11c0,-0.03 -0.01,-0.05 -0.02,-0.07 -0.02,-0.02 -0.05,-0.03 -0.07,-0.03l-0.86 0 0 0c-0.05,0 -0.09,-0.02 -0.12,-0.07l-0.24 -0.44 -1.38 0c-0.03,0 -0.05,0.01 -0.07,0.02 -0.02,0.02 -0.03,0.05 -0.03,0.07l0 0.95 -0.28 0z"/>
<path class="fil2" d="M6.09 5.9l-2.89 0c-0.08,0 -0.16,-0.03 -0.23,-0.08 -0.06,-0.05 -0.11,-0.11 -0.13,-0.2l-0.33 -1.2c-0.02,-0.06 -0.02,-0.12 -0.01,-0.17l0 0c0.01,-0.06 0.04,-0.11 0.07,-0.16 0.04,-0.05 0.09,-0.08 0.14,-0.11 0.05,-0.02 0.1,-0.04 0.16,-0.04l2.58 0c0.09,0 0.17,0.03 0.23,0.08 0.07,0.05 0.12,0.12 0.14,0.2l0.41 1.5c0.02,0.08 -0.03,0.16 -0.1,0.18 -0.01,0 -0.02,0 -0.04,0l0 0zm-2.89 -0.28l2.71 0 -0.36 -1.33c-0.01,-0.02 -0.02,-0.04 -0.04,-0.05 -0.01,-0.01 -0.03,-0.02 -0.06,-0.02l-2.58 0c-0.01,0 -0.03,0.01 -0.04,0.01 -0.01,0.01 -0.02,0.02 -0.03,0.03 -0.01,0.01 -0.02,0.03 -0.02,0.04 0,0.02 0,0.03 0,0.05l0.33 1.2c0,0.02 0.02,0.04 0.03,0.05 0.02,0.01 0.04,0.02 0.06,0.02z"/>
</g>
</svg>