<?xml version="1.0" ?>
<!DOCTYPE svg  PUBLIC '-//W3C//DTD SVG 1.1//EN'  'http://www.w3.org/Graphics/SVG/1.1/DTD/svg11.dtd'>
<!-- Uploaded to: SVG Repo, www.svgrepo.com, Generator: SVG Repo Mixer Tools -->
<svg width="800px" height="800px" viewBox="0 0 11.32 11.32" style="shape-rendering:geometricPrecision; text-rendering:geometricPrecision; image-rendering:optimizeQuality; fill-rule:evenodd; clip-rule:evenodd" version="1.1" xml:space="preserve" xmlns="http://www.w3.org/2000/svg" xmlns:xlink="http://www.w3.org/1999/xlink" xmlns:xodm="http://www.corel.com/coreldraw/odm/2003">
<defs>
<style type="text/css">
   <![CDATA[
    .fil0 {fill:none}
    .fil1 {fill:#2554B0;fill-rule:nonzero}
    .fil2 {fill:#479DFF;fill-rule:nonzero}
   ]]>
  </style>
</defs>
<g id="Layer_x0020_1">
<rect class="fil0" height="11.32" width="11.32"/>
<path class="fil1" d="M5.66 8.08c-0.67,0 -1.27,-0.27 -1.71,-0.71 -0.44,-0.43 -0.71,-1.04 -0.71,-1.71 0,-0.67 0.27,-1.27 0.71,-1.71 0.44,-0.44 1.04,-0.71 1.71,-0.71 0.67,0 1.28,0.27 1.71,0.71 0.44,0.44 0.71,1.04 0.71,1.71 0,0.67 -0.27,1.28 -0.71,1.71 -0.43,0.44 -1.04,0.71 -1.71,0.71zm-1.45 -0.96c0.37,0.37 0.88,0.6 1.45,0.6 0.57,0 1.08,-0.23 1.46,-0.6 0.37,-0.38 0.6,-0.89 0.6,-1.46 0,-0.57 -0.23,-1.08 -0.6,-1.45 -0.38,-0.37 -0.89,-0.6 -1.46,-0.6 -0.57,0 -1.08,0.23 -1.45,0.6 -0.37,0.37 -0.6,0.88 -0.6,1.45 0,0.57 0.23,1.08 0.6,1.46z"/>
<path class="fil1" d="M5.66 8.08c-0.45,0 -0.85,-0.28 -1.14,-0.74 -0.26,-0.43 -0.43,-1.03 -0.43,-1.68 0,-0.65 0.17,-1.24 0.43,-1.68 0.29,-0.46 0.69,-0.74 1.14,-0.74 0.45,0 0.86,0.28 1.14,0.74 0.27,0.44 0.43,1.03 0.43,1.68 0,0.65 -0.16,1.25 -0.43,1.68 -0.28,0.46 -0.69,0.74 -1.14,0.74zm-0.82 -0.93c0.21,0.35 0.51,0.57 0.82,0.57 0.32,0 0.61,-0.22 0.83,-0.57 0.23,-0.38 0.38,-0.9 0.38,-1.49 0,-0.58 -0.15,-1.11 -0.38,-1.48 -0.22,-0.36 -0.51,-0.57 -0.83,-0.57 -0.31,0 -0.61,0.21 -0.82,0.57 -0.24,0.37 -0.38,0.9 -0.38,1.48 0,0.59 0.14,1.11 0.38,1.49z"/>
<polygon class="fil1" points="5.85,3.42 5.85,7.9 5.48,7.9 5.48,3.42 "/>
<polygon class="fil1" points="7.9,5.85 3.42,5.85 3.42,5.48 7.9,5.48 "/>
<path class="fil1" d="M7.51 4.43c-0.23,0.14 -0.51,0.25 -0.83,0.33 -0.31,0.07 -0.66,0.11 -1.02,0.11 -0.35,0 -0.7,-0.04 -1.01,-0.11 -0.32,-0.08 -0.61,-0.19 -0.84,-0.33l0.19 -0.31c0.2,0.12 0.45,0.21 0.73,0.28 0.29,0.07 0.6,0.11 0.93,0.11 0.33,0 0.65,-0.04 0.93,-0.11 0.29,-0.07 0.54,-0.16 0.73,-0.28l0.19 0.31z"/>
<path class="fil2" d="M8.12 4.55c-0.1,-0.02 -0.16,-0.12 -0.14,-0.22 0.02,-0.1 0.12,-0.16 0.22,-0.14 0.13,0.03 0.25,0.08 0.33,0.14 0.11,0.06 0.18,0.15 0.21,0.25 0.12,0.33 -0.15,0.74 -0.68,1.14 -0.48,0.36 -1.18,0.73 -2,1.03 -0.82,0.3 -1.59,0.47 -2.19,0.51 -0.67,0.03 -1.14,-0.11 -1.26,-0.44 -0.03,-0.09 -0.04,-0.19 -0.01,-0.3l0 0c0.02,-0.1 0.07,-0.2 0.15,-0.3 0.05,-0.08 0.17,-0.1 0.25,-0.04 0.08,0.05 0.1,0.17 0.04,0.25 -0.04,0.06 -0.07,0.12 -0.08,0.18l0 0c-0.01,0.03 -0.01,0.06 0,0.09 0.05,0.16 0.39,0.22 0.89,0.19 0.56,-0.03 1.3,-0.19 2.09,-0.48 0.78,-0.29 1.45,-0.64 1.9,-0.98 0.4,-0.3 0.62,-0.57 0.56,-0.72 -0.01,-0.03 -0.03,-0.05 -0.07,-0.08 -0.05,-0.03 -0.12,-0.06 -0.21,-0.08z"/>
</g>
</svg>