<?xml version="1.0" encoding="utf-8"?><!-- Uploaded to: SVG Repo, www.svgrepo.com, Generator: SVG Repo Mixer Tools -->
<svg width="800px" height="800px" viewBox="0 0 80 80" fill="none" xmlns="http://www.w3.org/2000/svg">
<path d="M30.8833 36.4135C34.7826 40.861 34.3285 47.6365 29.8706 51.5463C25.4127 55.4561 18.6319 55.0229 14.7325 50.5754C10.8332 46.128 11.2873 39.3524 15.7452 35.4426C20.2083 31.5328 26.9839 31.966 30.8833 36.4135Z" fill="url(#paint0_linear)"/>
<path d="M30.8833 36.4135C34.7826 40.861 34.3285 47.6365 29.8706 51.5463C25.4127 55.4561 18.6319 55.0229 14.7325 50.5754C10.8332 46.128 11.2873 39.3524 15.7452 35.4426C20.2083 31.5328 26.9839 31.966 30.8833 36.4135Z" fill="url(#paint1_linear)"/>
<path d="M30.8833 36.4135C34.7826 40.861 34.3285 47.6365 29.8706 51.5463C25.4127 55.4561 18.6319 55.0229 14.7325 50.5754C10.8332 46.128 11.2873 39.3524 15.7452 35.4426C20.2083 31.5328 26.9839 31.966 30.8833 36.4135Z" fill="url(#paint2_linear)"/>
<path d="M61.0811 40.4436C66.9746 38.2355 73.9694 17.0005 68.812 17.0005C63.6546 17.0005 38.7395 20.6806 32.9713 19.9446C27.2032 19.2086 15.2337 17.7939 10.139 22.8887C5.04422 27.9834 6.08822 45.5957 6.08822 49.5264C6.08822 53.4571 9.523 55.1745 13.3284 54.5585C17.1338 53.9426 28.1167 43.205 28.1167 39.3996C28.1167 39.3996 22.286 38.1102 20.4485 38.7262C18.6111 39.3422 19.3419 41.5502 19.3419 41.5502C19.3419 41.5502 15.8444 45.0477 15.2911 45.601C15.2911 45.601 18.1151 42.5316 18.1151 40.4436C18.1151 38.3556 18.3605 35.4115 16.0271 33.6941C16.0271 33.6941 19.8952 38.1155 23.6379 38.1155C28.3046 38.1155 27.506 37.3168 28.3046 38.1155L61.0811 40.4436Z" fill="url(#paint3_linear)"/>
<path d="M68.8172 17C73.9746 17 74.7106 28.9069 73.4839 34.5549C72.2572 40.203 66.9798 38.235 61.0864 40.4483C55.193 42.6616 52.2228 50.0688 46.6008 54.3179C41.5687 58.1233 39.6269 55.4454 23.6484 63.1554C20.9809 64.4395 13.3388 63.4269 15.218 53.8012C23.1577 49.8966 29.1085 38.9136 28.3151 38.115C28.3151 38.115 36.474 38.115 40.0079 38.115C43.5419 38.115 59.1184 17 68.8172 17Z" fill="url(#paint4_linear)"/>
<path d="M15.0875 58.3841V58.4259C16.0898 63.7242 21.4925 64.1888 23.6484 63.15C39.6268 55.44 41.5687 58.1179 46.6008 54.3125C52.2228 50.0582 55.193 42.651 61.0864 40.4429C66.9798 38.2348 72.2572 40.1976 73.4839 34.5495C73.6562 33.7665 73.7815 32.853 73.8702 31.8769C69.5532 32.8582 64.7717 31.1147 60.2251 31.1147C54.577 31.1147 47.8275 49.1551 36.6567 54.6831C25.4858 60.2059 15.0875 58.3841 15.0875 58.3841Z" fill="url(#paint5_linear)"/>
<path d="M29.7819 53.9112C26.8743 53.7807 21.837 54.214 19.8221 50.6278C18.397 51.8859 16.8519 52.9978 15.2128 53.8016C13.3336 63.4274 20.9757 64.44 23.6431 63.1559C39.6216 55.4459 41.5634 58.1238 46.5956 54.3184C51.3928 50.6905 54.269 44.771 58.6695 41.7382L58.6799 41.7173C58.6799 41.7173 55.8037 43.2102 49.1795 49.2863C42.5553 55.3624 33.3419 54.0731 29.7819 53.9112Z" fill="url(#paint6_linear)"/>
<path d="M73.5153 34.3618C71.2498 34.6646 67.9977 34.8734 64.1506 34.4349C56.665 33.5736 48.929 51.1285 44.6329 53.9526C40.3368 56.7766 26.4672 59.6006 22.0459 59.6006C18.7781 59.6006 16.3195 58.1808 14.9623 55.7065C14.3985 63.5522 21.1637 64.3561 23.6432 63.1607C39.6217 55.4507 41.5635 58.1286 46.5956 54.3232C52.2176 50.0689 55.1878 42.6617 61.0812 40.4536C66.9746 38.2455 72.252 40.2083 73.4787 34.5602C73.4944 34.4923 73.4996 34.4245 73.5153 34.3618Z" fill="url(#paint7_linear)"/>
<path d="M6.08826 49.5313C6.08826 53.4568 9.52304 55.1794 13.3284 54.5634C15.5365 54.2084 20.1458 50.45 23.638 46.6081C17.1077 51.588 13.7513 51.4993 11.2404 51.2487C6.2031 50.7424 8.05099 43.1472 8.05099 39.6498C8.05099 36.1524 6.82429 29.168 10.139 22.8936C5.04948 27.9883 6.08826 45.6006 6.08826 49.5313Z" fill="url(#paint8_linear)"/>
<path d="M69.2766 17.0679C69.1356 17.0261 68.9791 17 68.812 17C63.6546 17 38.7395 20.6801 32.9713 19.9441C27.2032 19.2081 15.2337 17.7987 10.139 22.8882C9.3664 23.6607 16.6431 18.2215 30.022 20.6801C40.1802 22.5437 55.1877 17.2453 71.7926 18.8844C71.1297 17.8978 70.3049 17.2245 69.2766 17.0679Z" fill="url(#paint9_linear)"/>
<path d="M15.2129 53.8015C20.1301 55.2213 31.7447 42.2861 31.7447 34.9206C31.7447 33.3233 27.0936 35.474 23.0272 35.474C19.8535 35.474 17.6872 33.386 15.4791 32.5299C14.0227 31.9661 18.1204 39.7752 14.8214 44.9587C12.4567 48.6702 16.5857 45.6008 17.4157 44.4994C18.2457 43.3927 21.6178 42.8446 21.6178 42.8446C21.6178 42.8446 20.8192 39.7126 23.0272 40.0832C25.2353 40.4539 27.078 40.3077 27.078 40.3077C27.078 40.3077 19.8169 51.7761 15.2129 53.8015Z" fill="url(#paint10_linear)"/>
<path d="M28.9519 37.2852C27.9706 35.3224 25.9139 38.0316 22.4843 36.9459C19.8587 36.1159 17.1129 33.2762 16.4291 34.3567C15.7453 35.4373 17.2904 38.538 17.2904 40.2293C17.2904 41.9153 15.3277 44.8333 14.8683 45.538C14.409 46.2427 16.5596 45.2353 17.661 44.0033C18.4597 43.1107 19.6499 42.145 20.1562 42.0772C20.6626 42.0093 20.365 39.3158 22.3434 39.3158C24.3166 39.3158 26.9579 39.1331 27.9967 39.7281C26.9631 42.2181 23.9251 47.0101 19.8639 50.6014C19.8482 50.6119 19.8378 50.6275 19.8221 50.638C19.5142 50.9094 19.2009 51.1704 18.8773 51.4262C18.8199 51.468 18.7677 51.5149 18.7155 51.5619C18.4284 51.7916 18.1308 52.0056 17.8333 52.2144C17.7498 52.2771 17.6663 52.3397 17.5775 52.4023C17.2904 52.6007 16.9981 52.7834 16.7058 52.9661C16.6066 53.0288 16.5126 53.0966 16.4135 53.154C16.0272 53.3837 15.6357 53.5925 15.2442 53.7909C15.2337 53.7961 15.2285 53.8013 15.2181 53.8013C14.8213 55.8215 14.8631 57.4397 15.1763 58.7603C15.6461 55.3099 20.2606 51.6559 23.6797 47.9653C27.1093 44.2487 29.9333 39.2479 28.9519 37.2852ZM20.4537 38.7259C18.6111 39.3419 19.3471 41.5499 19.3471 41.5499C19.3471 41.5499 15.8497 45.0473 15.2964 45.6007C15.2964 45.6007 18.1204 42.5313 18.1204 40.4433C18.1204 38.705 18.2718 36.3717 16.972 34.649C18.3449 35.9488 21.0227 38.1099 23.6432 38.1099C28.3099 38.1099 27.5112 37.3113 28.3099 38.1099C28.4508 38.2509 28.3725 38.7207 28.1167 39.3993C28.0593 39.3888 22.286 38.1151 20.4537 38.7259Z" fill="url(#paint11_linear)"/>
<path d="M28.122 39.3993C26.2689 39.227 24.4627 38.7886 22.6149 38.7103C21.717 38.6842 20.72 38.6111 19.9944 39.1018C19.2636 39.6081 19.201 40.6678 19.4411 41.5082V41.5134C19.4515 41.5499 19.4411 41.5917 19.415 41.6178L15.3799 45.6842C15.3329 45.7312 15.2546 45.7312 15.2024 45.6842C15.1554 45.6372 15.1554 45.5589 15.1972 45.5119C15.9228 44.6872 16.5857 43.7998 17.139 42.8549C17.7028 41.8997 18.0682 40.8922 17.969 39.7699C17.9743 38.6685 17.9377 37.5619 17.6193 36.5231C17.3217 35.4791 16.7006 34.5603 15.9071 33.8243L16.1577 33.579C17.1338 34.623 18.2248 35.5887 19.415 36.3821C20.5999 37.1651 21.931 37.8333 23.3404 37.9168C24.7707 37.9638 26.2167 37.9064 27.6417 37.6036C27.8505 37.5305 28.1637 37.708 28.2577 37.8385C28.3308 37.922 28.3778 37.9272 28.4665 38.0734C28.5552 38.2248 28.5291 38.324 28.5344 38.4336C28.4978 38.8407 28.3725 39.1853 28.242 39.535C27.9758 40.224 27.6417 40.8766 27.292 41.5186C25.8721 44.0712 24.1287 46.4307 22.1451 48.5709C20.1614 50.6902 17.8959 52.6529 15.2076 53.8065C17.7289 52.3554 19.9631 50.4971 21.931 48.3725C23.8885 46.2427 25.6164 43.8937 27.0101 41.3672C27.3546 40.7304 27.6783 40.0883 27.9341 39.4202C28.0593 39.0913 28.1742 38.7416 28.2003 38.4232C28.2055 38.2509 28.1951 38.2457 28.028 38.0891C27.8766 37.9586 27.8453 37.9116 27.6835 37.9429C26.2689 38.2509 24.7812 38.3188 23.3196 38.2718C21.811 38.183 20.4329 37.4888 19.2166 36.6953C17.9847 35.8862 16.8885 34.9048 15.8967 33.8191C15.834 33.746 15.834 33.6364 15.9071 33.5738C15.975 33.5111 16.0794 33.5163 16.1472 33.579C16.972 34.3567 17.6245 35.3433 17.9325 36.4448C18.2561 37.5358 18.2822 38.6789 18.2718 39.7856C18.2718 40.3232 18.277 40.9288 18.0839 41.4716C17.9116 42.0145 17.6663 42.5261 17.3792 43.0115C16.805 43.9773 16.1316 44.8647 15.3851 45.6999L15.2076 45.5276L19.274 41.4925L19.2479 41.5969L19.2427 41.5865C18.9713 40.7147 18.966 39.5298 19.8378 38.9034C20.6991 38.3396 21.7118 38.4492 22.6253 38.4701C23.5597 38.5223 24.4836 38.6424 25.4023 38.7886C26.3211 38.9191 27.2398 39.0861 28.122 39.3993Z" fill="#804B24"/>
<path d="M19.2323 41.0073L19.4307 41.5241L19.3837 41.4667C20.0466 41.6755 20.673 41.9835 21.2316 42.4063C21.7745 42.8187 22.3121 43.3772 22.4374 44.0767C22.0772 43.4868 21.5657 43.0744 21.0228 42.6882C20.4799 42.3071 19.9057 41.9574 19.321 41.6233L19.2949 41.6076C19.2793 41.5972 19.2688 41.5815 19.2688 41.5659L19.2323 41.0073Z" fill="#804B24"/>
<path d="M9.40302 52.0475C5.2792 50.7269 6.76169 36.2726 7.06967 30.3218L6.97571 30.3897C5.5924 37.5359 6.0883 46.8118 6.0883 49.5315C6.0883 53.4569 9.52308 55.1795 13.3285 54.5636C14.7483 54.3339 17.1704 52.6843 19.6447 50.518C17.2487 51.9379 13.0727 53.222 9.40302 52.0475Z" fill="url(#paint12_linear)"/>
<path d="M72.941 36.1055C69.3862 37.28 65.3407 36.2725 62.6785 36.2725C59.3638 36.2725 51.2623 49.4061 47.2115 52.9661C43.1608 56.5262 31.8699 58.4889 26.4672 60.697C21.2106 62.8476 16.7945 61.7253 15.0875 58.3845C16.0689 63.7194 21.4821 64.1944 23.6431 63.1556C39.6216 55.4456 41.5635 58.1235 46.5956 54.3181C52.2175 50.0638 55.1877 42.6566 61.0811 40.4485C66.3429 38.4701 71.1088 39.8117 72.941 36.1055Z" fill="url(#paint13_linear)"/>
<path d="M12.9265 37.0975C13.4328 32.8067 11.9033 26.4695 12.8638 21.0303C11.8355 21.5262 10.9011 22.1265 10.139 22.8938C5.04422 27.9886 6.08822 45.6009 6.08822 49.5316C6.08822 53.457 9.523 55.1796 13.3284 54.5637C14.3463 54.4019 15.8862 53.4936 17.5879 52.2095C7.56549 48.6703 12.0704 44.3429 12.9265 37.0975Z" fill="url(#paint14_linear)"/>
<path opacity="0.16" d="M48.1511 29.2354C51.2466 31.313 49.1951 37.4099 45.5985 43.2198C42.6596 47.97 36.4896 51.3683 33.5194 49.2646C30.5492 47.1609 28.2942 44.7493 35.1428 35.3637C39.1831 29.8253 45.1287 27.2048 48.1511 29.2354Z" fill="url(#paint15_radial)"/>
<path opacity="0.16" d="M69.1775 22.0478C69.689 24.2768 55.9082 26.5736 40.5404 28.1344C27.9758 29.4081 13.4067 28.7712 13.1144 26.5788C12.8221 24.3812 14.0697 22.3036 40.3368 20.1791C55.8142 18.9263 68.6816 19.8711 69.1775 22.0478Z" fill="url(#paint16_radial)"/>
<path opacity="0.16" d="M22.8393 43.9878C23.7476 45.1049 22.1294 47.2712 19.9526 49.1713C18.1726 50.7269 15.3329 51.4316 14.4768 50.3197C13.6207 49.2078 13.0779 48.0438 16.9981 45.0736C19.3001 43.3249 21.9519 42.8968 22.8393 43.9878Z" fill="url(#paint17_radial)"/>
<defs>
<linearGradient id="paint0_linear" x1="14.7329" y1="50.5825" x2="30.8847" y2="36.4204" gradientUnits="userSpaceOnUse">
<stop offset="0.00132565" stop-color="#FFCB4B"/>
<stop offset="1" stop-color="#FFD748"/>
</linearGradient>
<linearGradient id="paint1_linear" x1="22.2663" y1="42.1538" x2="27.1148" y2="54.1217" gradientUnits="userSpaceOnUse">
<stop offset="0.00132565" stop-color="#BE8D68"/>
<stop offset="1" stop-color="#CD9870"/>
</linearGradient>
<linearGradient id="paint2_linear" x1="24.961" y1="28.7801" x2="23.2118" y2="40.7481" gradientUnits="userSpaceOnUse">
<stop stop-color="#A46C3F" stop-opacity="0"/>
<stop offset="1" stop-color="#804B24"/>
</linearGradient>
<linearGradient id="paint3_linear" x1="9.4884" y1="-7.12923" x2="33.7925" y2="28.2222" gradientUnits="userSpaceOnUse">
<stop offset="0.00132565" stop-color="#BE8D68"/>
<stop offset="1" stop-color="#CD9870"/>
</linearGradient>
<linearGradient id="paint4_linear" x1="46.855" y1="53.2493" x2="44.4" y2="41.4655" gradientUnits="userSpaceOnUse">
<stop offset="0.00132565" stop-color="#BE8D68"/>
<stop offset="1" stop-color="#CD9870"/>
</linearGradient>
<linearGradient id="paint5_linear" x1="37.0232" y1="31.8806" x2="66.4827" y2="85.8284" gradientUnits="userSpaceOnUse">
<stop stop-color="#A46C3F" stop-opacity="0"/>
<stop offset="1" stop-color="#804B24"/>
</linearGradient>
<linearGradient id="paint6_linear" x1="29.23" y1="56.0975" x2="17.0779" y2="69.1702" gradientUnits="userSpaceOnUse">
<stop stop-color="#D2A374" stop-opacity="0"/>
<stop offset="1" stop-color="#B88653"/>
</linearGradient>
<linearGradient id="paint7_linear" x1="43.5933" y1="42.7063" x2="54.7634" y2="100.766" gradientUnits="userSpaceOnUse">
<stop stop-color="#A46C3F" stop-opacity="0"/>
<stop offset="1" stop-color="#804B24"/>
</linearGradient>
<linearGradient id="paint8_linear" x1="18.7839" y1="10.4893" x2="5.03616" y2="119.858" gradientUnits="userSpaceOnUse">
<stop stop-color="#D2A374" stop-opacity="0"/>
<stop offset="1" stop-color="#B88653"/>
</linearGradient>
<linearGradient id="paint9_linear" x1="41.5517" y1="27.2265" x2="37.5011" y2="-14.5078" gradientUnits="userSpaceOnUse">
<stop stop-color="#B37E53"/>
<stop offset="1" stop-color="#CD9870"/>
</linearGradient>
<linearGradient id="paint10_linear" x1="37.2206" y1="24.7227" x2="-29.3089" y2="85.6058" gradientUnits="userSpaceOnUse">
<stop stop-color="#A46C3F" stop-opacity="0"/>
<stop offset="1" stop-color="#804B24"/>
</linearGradient>
<linearGradient id="paint11_linear" x1="48.3872" y1="27.9684" x2="2.18355" y2="54.278" gradientUnits="userSpaceOnUse">
<stop stop-color="#A46C3F" stop-opacity="0"/>
<stop offset="1" stop-color="#804B24"/>
</linearGradient>
<linearGradient id="paint12_linear" x1="19.9767" y1="-30.4889" x2="6.96542" y2="106.007" gradientUnits="userSpaceOnUse">
<stop stop-color="#D2A374" stop-opacity="0"/>
<stop offset="1" stop-color="#B88653"/>
</linearGradient>
<linearGradient id="paint13_linear" x1="36.1977" y1="7.86253" x2="52.8501" y2="91.7652" gradientUnits="userSpaceOnUse">
<stop stop-color="#A46C3F" stop-opacity="0"/>
<stop offset="1" stop-color="#804B24"/>
</linearGradient>
<linearGradient id="paint14_linear" x1="19.4915" y1="37.3747" x2="-21.3836" y2="40.1979" gradientUnits="userSpaceOnUse">
<stop stop-color="#D2A374" stop-opacity="0"/>
<stop offset="1" stop-color="#B88653"/>
</linearGradient>
<radialGradient id="paint15_radial" cx="0" cy="0" r="1" gradientUnits="userSpaceOnUse" gradientTransform="translate(40.5737 39.0639) rotate(-53.8439) scale(12.7303 6.65798)">
<stop stop-color="#F8DBBA"/>
<stop offset="1" stop-color="#CD9870" stop-opacity="0"/>
</radialGradient>
<radialGradient id="paint16_radial" cx="0" cy="0" r="1" gradientUnits="userSpaceOnUse" gradientTransform="translate(41.1238 24.1246) rotate(-4.61835) scale(28.8709 4.04572)">
<stop stop-color="#F8DBBA"/>
<stop offset="1" stop-color="#CD9870" stop-opacity="0"/>
</radialGradient>
<radialGradient id="paint17_radial" cx="0" cy="0" r="1" gradientUnits="userSpaceOnUse" gradientTransform="translate(18.5751 47.0505) rotate(-37.1319) scale(5.38479 2.57216)">
<stop stop-color="#F8DBBA"/>
<stop offset="1" stop-color="#CD9870" stop-opacity="0"/>
</radialGradient>
</defs>
</svg>