<?xml version="1.0" ?>
<!DOCTYPE svg  PUBLIC '-//W3C//DTD SVG 1.1//EN'  'http://www.w3.org/Graphics/SVG/1.1/DTD/svg11.dtd'>
<!-- Uploaded to: SVG Repo, www.svgrepo.com, Generator: SVG Repo Mixer Tools -->
<svg width="800px" height="800px" viewBox="0 0 10.51 10.51" style="shape-rendering:geometricPrecision; text-rendering:geometricPrecision; image-rendering:optimizeQuality; fill-rule:evenodd; clip-rule:evenodd" version="1.1" xml:space="preserve" xmlns="http://www.w3.org/2000/svg" xmlns:xlink="http://www.w3.org/1999/xlink" xmlns:xodm="http://www.corel.com/coreldraw/odm/2003">
<defs>
<style type="text/css">
   <![CDATA[
    .fil0 {fill:none}
    .fil1 {fill:#2554B0;fill-rule:nonzero}
    .fil2 {fill:#479DFF;fill-rule:nonzero}
   ]]>
  </style>
</defs>
<g id="Layer_x0020_1">
<rect class="fil0" height="10.51" width="10.51"/>
<path class="fil1" d="M3.82 6.75l-0.84 0c-0.13,0 -0.24,-0.06 -0.33,-0.14l0 0c-0.08,-0.08 -0.13,-0.2 -0.13,-0.32l0 -1.91c0,-0.13 0.05,-0.24 0.13,-0.32l0 0c0.09,-0.09 0.2,-0.14 0.33,-0.14l4.56 0c0.12,0 0.24,0.05 0.32,0.14l0 0c0.08,0.08 0.14,0.2 0.14,0.32l0 1.91c0,0.12 -0.06,0.24 -0.14,0.32l0 0c-0.08,0.08 -0.2,0.14 -0.32,0.14l-0.84 0 0 -0.34 0.84 0c0.03,0 0.06,-0.02 0.08,-0.04 0.02,-0.02 0.04,-0.05 0.04,-0.08l0 -1.91c0,-0.03 -0.02,-0.06 -0.04,-0.08l0 0c-0.02,-0.02 -0.05,-0.04 -0.08,-0.04l-4.56 0c-0.04,0 -0.07,0.02 -0.09,0.04l0 0c-0.02,0.02 -0.03,0.05 -0.03,0.08l0 1.91c0,0.03 0.01,0.06 0.03,0.08 0.02,0.02 0.05,0.04 0.09,0.04l0.84 0 0 0.34z"/>
<path class="fil2" d="M6.87 5.18l0 2.2c0,0.12 -0.06,0.24 -0.14,0.32l0 0c-0.08,0.08 -0.2,0.13 -0.32,0.13l-2.3 0c-0.13,0 -0.24,-0.05 -0.33,-0.13l-0.01 -0.01c-0.07,-0.08 -0.12,-0.19 -0.12,-0.31l0 -2.2 0.34 0 0 2.2c0,0.03 0.01,0.05 0.03,0.07l0 0.01c0.03,0.02 0.06,0.03 0.09,0.03l2.3 0c0.03,0 0.06,-0.01 0.08,-0.03l0 0c0.02,-0.02 0.04,-0.05 0.04,-0.08l0 -2.2 0.34 0z"/>
<path class="fil1" d="M4.11 2.68l2.3 0c0.12,0 0.24,0.05 0.32,0.13l0.01 0.02c0.08,0.08 0.13,0.19 0.13,0.31l0 0.95c0,0.1 -0.08,0.17 -0.17,0.17l-2.88 0c-0.1,0 -0.17,-0.07 -0.17,-0.17l0 -0.95c0,-0.13 0.05,-0.24 0.13,-0.33l0 0c0.09,-0.08 0.2,-0.13 0.33,-0.13zm2.3 0.34l-2.3 0c-0.03,0 -0.06,0.01 -0.09,0.04l0 0c-0.02,0.02 -0.03,0.05 -0.03,0.08l0 0.78 2.54 0 0 -0.78c0,-0.03 -0.02,-0.06 -0.03,-0.08l-0.01 0c-0.02,-0.03 -0.05,-0.04 -0.08,-0.04z"/>
<path class="fil1" d="M3.43 5.35c-0.09,0 -0.17,-0.08 -0.17,-0.17 0,-0.09 0.08,-0.17 0.17,-0.17l3.65 0c0.1,0 0.18,0.08 0.18,0.17 0,0.09 -0.08,0.17 -0.18,0.17l-3.65 0z"/>
<path class="fil2" d="M4.54 6.29c-0.09,0 -0.17,-0.08 -0.17,-0.17 0,-0.09 0.08,-0.17 0.17,-0.17l1.43 0c0.09,0 0.17,0.08 0.17,0.17 0,0.09 -0.08,0.17 -0.17,0.17l-1.43 0z"/>
<path class="fil2" d="M4.54 6.98c-0.09,0 -0.17,-0.08 -0.17,-0.17 0,-0.09 0.08,-0.17 0.17,-0.17l1.06 0c0.09,0 0.17,0.08 0.17,0.17 0,0.09 -0.08,0.17 -0.17,0.17l-1.06 0z"/>
</g>
</svg>