<?xml version="1.0" ?>
<!DOCTYPE svg  PUBLIC '-//W3C//DTD SVG 1.1//EN'  'http://www.w3.org/Graphics/SVG/1.1/DTD/svg11.dtd'>
<!-- Uploaded to: SVG Repo, www.svgrepo.com, Generator: SVG Repo Mixer Tools -->
<svg width="800px" height="800px" viewBox="0 0 8.66 8.66" style="shape-rendering:geometricPrecision; text-rendering:geometricPrecision; image-rendering:optimizeQuality; fill-rule:evenodd; clip-rule:evenodd" version="1.1" xml:space="preserve" xmlns="http://www.w3.org/2000/svg" xmlns:xlink="http://www.w3.org/1999/xlink" xmlns:xodm="http://www.corel.com/coreldraw/odm/2003">
<defs>
<style type="text/css">
   <![CDATA[
    .fil0 {fill:none}
    .fil1 {fill:#2554B0;fill-rule:nonzero}
    .fil2 {fill:#479DFF;fill-rule:nonzero}
   ]]>
  </style>
</defs>
<g id="Layer_x0020_1">
<rect class="fil0" height="8.66" width="8.66"/>
<path class="fil1" d="M2.8 4.55c-0.17,0 -0.33,-0.07 -0.45,-0.18 -0.11,-0.12 -0.19,-0.28 -0.19,-0.46 0,-0.17 0.08,-0.33 0.19,-0.45 0.12,-0.11 0.28,-0.18 0.45,-0.18 0.18,0 0.34,0.07 0.45,0.18 0.12,0.12 0.19,0.28 0.19,0.45 0,0.18 -0.07,0.34 -0.19,0.46 -0.11,0.11 -0.27,0.18 -0.45,0.18zm-0.25 -0.38c0.06,0.06 0.15,0.1 0.25,0.1 0.1,0 0.19,-0.04 0.26,-0.1 0.06,-0.07 0.1,-0.16 0.1,-0.26 0,-0.1 -0.04,-0.18 -0.1,-0.25 -0.07,-0.06 -0.16,-0.1 -0.26,-0.1 -0.1,0 -0.19,0.04 -0.25,0.1 -0.07,0.07 -0.11,0.15 -0.11,0.25 0,0.1 0.04,0.19 0.11,0.26z"/>
<path class="fil1" d="M2.8 5.76l-0.8 0c-0.08,0 -0.14,-0.06 -0.14,-0.14l0 -0.34c0,-0.29 0.25,-0.47 0.58,-0.55 0.12,-0.02 0.24,-0.04 0.36,-0.04 0.12,0 0.25,0.02 0.36,0.04 0.11,0.03 0.21,0.06 0.3,0.11 -0.11,0.05 -0.2,0.12 -0.26,0.19 -0.03,-0.01 -0.06,-0.02 -0.1,-0.03 -0.09,-0.02 -0.19,-0.03 -0.3,-0.03 -0.1,0 -0.2,0.01 -0.3,0.03 -0.2,0.05 -0.36,0.14 -0.36,0.28l0 0.2 1 0 0 0.14 0.61 0c0,0.08 -0.06,0.14 -0.14,0.14l-0.81 0z"/>
<path class="fil1" d="M5.85 4.55c-0.17,0 -0.33,-0.07 -0.45,-0.18 -0.11,-0.12 -0.18,-0.28 -0.18,-0.46 0,-0.17 0.07,-0.33 0.18,-0.45 0.12,-0.11 0.28,-0.18 0.45,-0.18 0.18,0 0.34,0.07 0.46,0.18 0.11,0.12 0.18,0.28 0.18,0.45 0,0.18 -0.07,0.34 -0.18,0.46 -0.12,0.11 -0.28,0.18 -0.46,0.18zm-0.25 -0.38c0.07,0.06 0.16,0.1 0.25,0.1 0.1,0 0.19,-0.04 0.26,-0.1 0.06,-0.07 0.1,-0.16 0.1,-0.26 0,-0.1 -0.04,-0.18 -0.1,-0.25 -0.07,-0.06 -0.16,-0.1 -0.26,-0.1 -0.09,0 -0.18,0.04 -0.25,0.1 -0.06,0.07 -0.1,0.15 -0.1,0.25 0,0.1 0.04,0.19 0.1,0.26z"/>
<path class="fil1" d="M5.85 5.76l-0.8 0c-0.08,0 -0.14,-0.06 -0.14,-0.14l0.6 0 0 -0.14 1.01 0 0 -0.2c0,-0.14 -0.16,-0.23 -0.37,-0.28 -0.09,-0.02 -0.19,-0.03 -0.3,-0.03 -0.1,0 -0.2,0.01 -0.29,0.03 -0.04,0.01 -0.07,0.02 -0.11,0.03 -0.05,-0.07 -0.14,-0.14 -0.25,-0.19 0.08,-0.05 0.19,-0.08 0.29,-0.11 0.12,-0.02 0.24,-0.04 0.36,-0.04 0.13,0 0.25,0.02 0.36,0.04 0.33,0.08 0.59,0.26 0.59,0.55l0 0.34c0,0.08 -0.06,0.14 -0.14,0.14l-0.81 0z"/>
<path class="fil2" d="M4.33 4.36c-0.2,0 -0.39,-0.08 -0.52,-0.21l0 0c-0.13,-0.14 -0.21,-0.32 -0.21,-0.52 0,-0.2 0.08,-0.39 0.21,-0.52l0 0c0.13,-0.13 0.32,-0.21 0.52,-0.21 0.2,0 0.38,0.08 0.52,0.21 0.13,0.13 0.21,0.32 0.21,0.52 0,0.2 -0.08,0.39 -0.21,0.52 -0.14,0.13 -0.32,0.21 -0.52,0.21zm-0.32 -0.41c0.08,0.08 0.19,0.13 0.32,0.13 0.12,0 0.24,-0.05 0.32,-0.13 0.08,-0.08 0.13,-0.2 0.13,-0.32 0,-0.13 -0.05,-0.24 -0.13,-0.32 -0.08,-0.08 -0.2,-0.13 -0.32,-0.13 -0.13,0 -0.24,0.05 -0.32,0.13l0 0c-0.08,0.08 -0.13,0.19 -0.13,0.32 0,0.12 0.05,0.24 0.13,0.32l0 0z"/>
<path class="fil2" d="M4.33 5.76l-1.19 0c-0.07,0 -0.14,-0.06 -0.14,-0.14l0 -0.4c0,-0.34 0.36,-0.55 0.82,-0.63 0.16,-0.03 0.34,-0.05 0.51,-0.05 0.17,0 0.35,0.02 0.51,0.05 0.46,0.08 0.81,0.29 0.81,0.63l0 0.4c0,0.08 -0.06,0.14 -0.14,0.14l-1.18 0zm-1.05 -0.28l2.09 0 0 -0.26c0,-0.18 -0.25,-0.3 -0.58,-0.36 -0.14,-0.02 -0.3,-0.04 -0.46,-0.04 -0.16,0 -0.32,0.02 -0.46,0.04 -0.33,0.06 -0.59,0.18 -0.59,0.36l0 0.26z"/>
</g>
</svg>