<?xml version="1.0" encoding="utf-8"?><!-- Uploaded to: SVG Repo, www.svgrepo.com, Generator: SVG Repo Mixer Tools -->
<svg width="800px" height="800px" viewBox="0 0 80 80" fill="none" xmlns="http://www.w3.org/2000/svg">
<path d="M39.8084 8.00098C37.3296 8.00098 36.3871 9.98493 36.5803 13.8256C36.7075 16.3563 37.5605 23.4204 33.9837 26.9972C30.6472 30.3336 29.6764 30.0368 25.8781 34.344C22.0798 38.6513 18.913 37.7653 14.4785 37.3836C8.9083 36.9076 10.8075 67.8077 14.733 67.2704C17.5181 66.8887 23.8517 66.13 24.8649 66.13C25.8781 66.13 32.8244 71.5164 38.9224 71.5777C48.7999 71.6814 54.2475 69.933 54.2475 69.933L57.141 63.3685L58.1071 43.3449L53.4841 33.7125C53.4841 33.7125 47.2777 34.7257 45.5058 31.9406C43.7339 29.1555 46.9007 25.7342 46.9007 17.7559C46.9007 9.7776 41.076 8.00098 39.8084 8.00098Z" fill="url(#paint0_linear)"/>
<path d="M54.5916 69.8707L54.2146 68.4994C53.1024 68.3816 51.6698 68.8858 49.7141 68.8717C40.3739 68.801 31.4436 66.1195 27.6124 63.0847C25.1053 61.1007 24.0026 58.4523 22.2306 59.2157C20.044 60.1535 13.8376 61.6097 11.5568 58.7256C12.193 63.669 13.3334 67.4626 14.733 67.2694C17.5181 66.8877 23.8518 66.129 24.8649 66.129C25.8781 66.129 32.6312 71.3693 38.9224 71.5767C47.061 71.8406 54.29 70.441 54.29 70.441L54.5916 69.8707Z" fill="url(#paint1_linear)"/>
<path d="M45.5104 31.9398C43.7385 29.1547 46.9053 25.7334 46.9053 17.7551C46.9053 9.77681 41.0807 8.00488 39.813 8.00488C39.4784 8.00488 39.1815 8.04257 38.9176 8.11326C44.0825 8.43843 47.1975 14.9512 45.4162 21.6712C43.9694 27.1236 43.2531 31.4921 45.6094 34.0605C47.1363 35.7193 50.1711 35.4365 53.4935 33.7164C53.4887 33.7117 47.2823 34.7249 45.5104 31.9398Z" fill="url(#paint2_linear)"/>
<path d="M45.8546 34.7812C42.815 35.7944 35.1383 38.179 29.323 43.4523C14.587 56.8123 39.7472 58.49 44.9404 69.9132C45.9347 72.0998 51.7405 58.457 51.7405 58.457L53.6161 55.2996L48.192 40.8557L45.8546 34.7812Z" fill="url(#paint3_linear)"/>
<path d="M46.3022 35.9355C43.2626 36.9487 30.8451 44.9035 30.8451 48.829C30.8451 60.1626 39.4455 54.5689 44.092 67.9431C44.7376 69.7951 47.0091 71.3549 47.0091 71.3549C48.8941 69.8186 51.7452 58.452 51.7452 58.452L53.6208 55.2946L48.1966 40.8507L46.3022 35.9355Z" fill="url(#paint4_linear)"/>
<path d="M53.3191 70.6813L59.1391 64.0319L60.4209 36.2468L45.8591 34.7812C42.518 36.5814 42.1315 39.0414 43.3709 42.9905C43.894 44.654 41.7687 45.13 41.632 49.9697C41.5378 53.325 43.7338 53.3439 43.7338 54.3383C43.7338 55.3373 42.6405 55.2478 42.2776 58.1365C41.7592 62.2694 45.223 62.3495 45.223 63.2355C45.223 64.1215 43.3002 64.6446 43.4181 68.014C43.5689 72.2883 35.6282 71.4259 30.2607 67.5333C28.0552 65.9358 26.1325 65.7708 24.6339 66.1337C24.7282 66.129 24.8083 66.1243 24.8648 66.1243C25.878 66.1243 32.6829 71.44 38.9223 71.572C46.3021 71.7322 51.2644 71.1525 53.3191 70.6813Z" fill="url(#paint5_linear)"/>
<path d="M54.6575 36.6094C50.1618 36.6094 47.6924 41.0015 49.4031 44.3804C51.1137 47.7545 46.2363 52.222 46.7452 54.4227C47.2494 56.6235 48.1401 62.189 48.8329 63.1079C49.5303 64.0269 47.6924 66.1192 47.6924 66.1192L53.3899 66.8167L58.7103 64.4699L58.5218 48.386L59.092 38.3153L54.6575 36.6094Z" fill="url(#paint6_linear)"/>
<path d="M39.8083 8C37.3295 8 36.387 9.98396 36.5802 13.8247C36.7074 16.3553 37.5604 23.4194 33.9836 26.9962C30.6471 30.3327 29.6764 30.0358 25.8781 34.343C23.4087 37.1423 21.2079 37.7455 18.7574 37.7219C17.4332 37.7078 16.0336 37.5146 14.4832 37.3826C14.4832 38.344 14.7659 38.3204 18.437 39.3336C18.8564 39.4514 19.2569 39.5268 19.6434 39.5786C19.8319 40.1583 19.9356 40.7521 19.9073 41.3364C19.7753 44.5362 20.4775 48.4759 21.0147 44.376C21.2221 42.7879 21.8771 41.0065 22.8008 39.2063C24.191 38.6503 25.3173 37.6088 26.3163 36.393C28.1825 34.1263 29.7989 32.1187 34.4831 29.0791C39.1674 26.0396 38.5689 17.6795 38.1872 14.8944C37.8102 12.1046 38.0647 8 39.8083 8Z" fill="url(#paint7_linear)"/>
<path d="M58.06 33.5847C52.7442 33.3821 43.1872 33.0805 42.9751 38.6507C42.8196 42.6893 45.6849 44.0136 50.1146 44.1832C54.5444 44.3529 56.7593 44.4377 58.5925 44.5084C60.4256 44.579 66.1985 44.5414 66.255 39.6686C66.3304 33.5706 58.06 33.5847 58.06 33.5847Z" fill="url(#paint8_linear)"/>
<path d="M49.3182 53.717C47.895 53.6746 43.6631 54.7444 43.2673 57.4305C42.9563 59.5464 44.0354 62.275 47.7159 62.9206C52.3813 63.7359 60.1523 64.1647 63.0599 63.0761C64.3559 62.5907 65.4869 61.2335 65.5481 59.1741C65.6094 57.1148 64.0778 54.3438 60.7555 54.2448C57.4331 54.1506 55.6989 54.2024 53.8045 53.9762C51.5283 53.7076 50.4586 53.75 49.3182 53.717Z" fill="url(#paint9_linear)"/>
<path d="M47.8338 63.1074C46.2174 63.1074 44.224 64.5306 44.224 66.9057C44.224 69.2809 44.8413 71.0386 48.3098 71.7031C51.7782 72.3676 57.3343 71.7973 59.4219 71.1329C61.0477 70.6145 61.6556 69.0924 61.6556 66.5759C61.6556 64.0594 60.0864 63.6211 58.3804 63.6211C56.6745 63.6211 54.5963 63.9321 53.4087 63.8709C50.1005 63.6918 49.4502 63.1074 47.8338 63.1074Z" fill="url(#paint10_linear)"/>
<path d="M57.6075 34.71C52.9657 34.5309 44.6198 34.267 44.4549 38.6685C44.3323 41.8589 46.8394 42.9192 50.7084 43.0653C54.5774 43.2113 64.7517 43.3998 64.7847 39.545C64.8271 34.7241 57.6075 34.71 57.6075 34.71Z" fill="url(#paint11_linear)"/>
<path d="M49.7471 54.8525C48.5077 54.8148 45.0345 55.1117 44.7 57.68C44.4738 59.419 45.3738 61.648 48.5831 62.1805C52.6453 62.8544 59.4125 63.2173 61.9384 62.3313C63.0647 61.9355 64.0496 60.8233 64.0967 59.1409C64.1438 57.4538 62.5934 55.385 59.6999 55.3002C56.8064 55.2154 55.2702 55.484 53.6208 55.3002C51.6368 55.074 50.7367 54.8808 49.7471 54.8525Z" fill="url(#paint12_linear)"/>
<path d="M48.5265 63.9756C47.1316 63.9756 45.4021 65.1207 45.4021 67.034C45.4021 68.9473 45.9346 70.361 48.9365 70.8983C51.9384 71.4355 56.7404 70.9737 58.5501 70.4412C59.9591 70.0218 60.4822 68.7965 60.4822 66.7701C60.4822 64.7437 59.125 64.3903 57.65 64.3903C56.1749 64.3903 54.3748 64.64 53.3521 64.5929C50.4822 64.4468 49.9214 63.9756 48.5265 63.9756Z" fill="url(#paint13_linear)"/>
<path d="M18.1825 66.831C14.4454 65.224 10.9488 43.2165 17.8432 37.6887C16.7923 37.6227 15.6848 37.4861 14.4832 37.3824C8.91294 36.9064 10.8121 67.8065 14.7376 67.2692C15.6189 67.1514 16.863 66.9912 18.1825 66.831Z" fill="url(#paint14_linear)"/>
<path d="M47.6735 38.6692C47.7913 35.6343 50.2089 34.1829 53.2626 33.5137C48.3851 33.6268 43.1307 34.5363 42.9751 38.6503C42.8196 42.689 45.6849 44.0132 50.1146 44.1829C50.6 44.2017 51.0618 44.2205 51.5001 44.2347C49.0119 43.5042 47.551 41.8643 47.6735 38.6692Z" fill="url(#paint15_linear)"/>
<path opacity="0.16" d="M40.5341 65.9681C39.7848 67.6928 36.2127 67.8012 32.5558 66.2084C28.8989 64.6155 26.5426 61.9294 27.2966 60.2046C28.0459 58.4799 31.618 58.3714 35.2749 59.9643C38.9271 61.5571 41.2834 64.2433 40.5341 65.9681Z" fill="url(#paint16_radial)"/>
<path opacity="0.16" d="M62.042 39.4842C62.0043 41.8122 58.8893 42.9196 55.4775 43.127C52.6876 43.2966 49.5962 41.3221 49.6763 39.0459C49.7564 36.7698 50.1617 34.7528 55.9534 34.9555C59.37 35.0686 62.0797 37.2033 62.042 39.4842Z" fill="url(#paint17_radial)"/>
<path opacity="0.16" d="M62.664 59.9654C62.6452 63.1935 59.0967 62.5715 55.6895 62.7977C51.3681 63.0804 48.5029 61.7373 48.4982 59.4612C48.4935 57.185 50.1381 55.5262 55.9346 55.5168C59.3511 55.5074 62.6876 55.8184 62.664 59.9654Z" fill="url(#paint18_radial)"/>
<path opacity="0.16" d="M59.535 68.0993C59.5161 70.8514 56.2927 71.2237 53.239 71.2284C50.1853 71.2331 46.8677 69.612 46.8677 67.6704C46.8677 65.7289 48.3333 64.3151 53.5171 64.3057C56.5755 64.301 59.5585 64.5649 59.535 68.0993Z" fill="url(#paint19_radial)"/>
<path d="M47.2305 58.0806C47.7159 54.4096 50.534 54.6216 53.7668 54.2399C50.0486 53.9619 48.4888 53.9195 48.4888 53.9195C48.1401 53.8865 47.7536 53.8818 47.3484 53.9242C46.1419 54.1881 44.7706 54.7394 43.96 55.7715C43.682 56.1626 43.4605 56.6292 43.3144 57.1758C43.3003 57.256 43.2862 57.336 43.272 57.4209C43.0081 59.5415 44.0402 62.2653 47.7206 62.911C48.2532 63.0052 48.8234 63.0901 49.4266 63.1749C49.714 63.2126 50.0251 63.2503 50.3644 63.2927C50.4539 63.3021 50.5434 63.3163 50.6377 63.3257C48.5972 62.3691 46.8724 60.7809 47.2305 58.0806Z" fill="url(#paint20_linear)"/>
<path opacity="0.5" d="M51.3257 63.6682C49.7046 63.4326 49.0354 63.1074 47.8384 63.1074C46.222 63.1074 44.2286 64.5306 44.2286 66.9057C44.2286 67.7681 44.3088 68.5504 44.5821 69.2243C44.8554 69.7851 45.2513 70.3082 45.7979 70.7465C46.3964 71.1659 47.2117 71.4863 48.3144 71.6984C49.0543 71.8397 49.8931 71.9246 50.7696 71.967C49.0731 70.9821 46.2032 70.4543 46.8064 67.1602C47.4709 63.5268 49.6386 64.017 51.3257 63.6682Z" fill="url(#paint21_linear)"/>
<path d="M47.7631 63.1074C46.1608 63.1498 44.224 64.5636 44.224 66.9057C44.224 69.0829 44.7424 70.737 47.4992 71.5099C43.2014 68.7483 44.5822 64.0876 47.7631 63.1074Z" fill="url(#paint22_linear)"/>
<path d="M66.2598 39.6628C66.2645 39.1162 66.2032 38.6213 66.0901 38.1689C66.519 40.0728 64.8225 41.9625 60.3267 42.8815C57.3484 43.4894 49.436 44.2481 43.9601 42.0757C45.1429 43.5035 47.3154 44.0738 50.1194 44.1822C54.5491 44.3518 56.764 44.4366 58.5972 44.5073C60.4304 44.5733 66.2032 44.5403 66.2598 39.6628Z" fill="url(#paint23_linear)"/>
<path d="M65.5482 59.0463C65.5434 57.0011 64.0072 54.3432 60.7555 54.249C57.4332 54.1547 55.699 54.2066 53.8045 53.9804C51.5284 53.7117 50.4586 53.7542 49.3182 53.7212C48.4558 53.6976 46.3352 53.9568 44.8884 54.8522C46.5143 55.4177 49.158 56.2612 52.8809 56.0256C61.8064 55.446 64.3465 56.5251 65.5482 59.0463Z" fill="url(#paint24_linear)"/>
<path d="M47.405 44.5032C45.5058 44.4655 42.4898 45.5824 42.4097 49.5268C42.3296 53.4664 45.7792 54.409 47.3013 54.4372C48.8235 54.4655 54.1345 54.8284 60.6849 54.9604C67.2353 55.0923 68.1165 51.5767 68.1542 49.7341C68.1919 47.8915 67.0232 44.5598 63.0836 44.4797C51.684 44.2488 47.405 44.5032 47.405 44.5032Z" fill="url(#paint25_linear)"/>
<path d="M48.4228 45.6434C46.7734 45.6104 44.1533 46.4681 44.092 49.5077C44.0307 52.5473 47.0326 53.2824 48.3521 53.306C49.6716 53.3342 53.7998 53.9705 59.9874 53.7348C65.6801 53.5181 66.4388 51.1382 66.4671 49.715C66.4954 48.2918 66.2974 45.7188 62.8714 45.6528C52.9704 45.4596 48.4228 45.6434 48.4228 45.6434Z" fill="url(#paint26_linear)"/>
<path d="M46.486 49.1454C46.6745 45.0973 49.5021 45.0879 52.6924 44.3857C48.9648 44.4093 47.405 44.5036 47.405 44.5036C45.5058 44.4659 42.4898 45.5827 42.4097 49.5271C42.3296 53.4668 45.7792 54.4093 47.3013 54.4376C47.848 54.447 48.8894 54.5036 50.3032 54.5742C48.2014 53.7024 46.3494 52.1237 46.486 49.1454Z" fill="url(#paint27_linear)"/>
<path opacity="0.16" d="M64.8177 49.5649C64.9496 52.7883 61.3681 53.3961 57.9562 53.5564C54.5444 53.7213 50.7508 51.9965 50.6424 49.7204C50.534 47.4442 52.0986 45.71 57.8856 45.432C61.2974 45.267 64.648 45.4226 64.8177 49.5649Z" fill="url(#paint28_radial)"/>
<path opacity="0.5" d="M68.1448 49.334C67.3201 55.1681 51.9007 54.0984 43.569 52.8448C44.6953 54.0512 46.3682 54.4141 47.306 54.433C48.8234 54.4612 54.1392 54.8241 60.6896 54.956C67.24 55.088 68.1213 51.5725 68.159 49.7299C68.1542 49.6026 68.1542 49.4706 68.1448 49.334Z" fill="url(#paint29_linear)"/>
<path opacity="0.5" d="M60.4162 62.3216C57.4284 62.4536 49.5255 63.4338 43.7621 60.3471C44.403 61.5393 45.6518 62.5573 47.7112 62.9154C52.3766 63.7307 60.1476 64.1595 63.0552 63.0709C64.3511 62.5855 65.4821 61.2283 65.5434 59.1689C65.3549 60.9644 63.649 62.1802 60.4162 62.3216Z" fill="url(#paint30_linear)"/>
<path d="M61.4247 68.8008C59.469 70.2899 56.0854 71.1712 51.2032 70.3465C48.1872 69.8376 46.1231 69.6632 44.7659 69.6255C45.3078 70.6057 46.3587 71.3267 48.3097 71.7037C51.7781 72.3682 57.3342 71.798 59.4218 71.1335C60.4963 70.7942 61.1231 70.0119 61.4247 68.8008Z" fill="url(#paint31_linear)"/>
<path d="M44.865 64.7709C48.4795 63.4561 50.2561 65.4071 54.1251 65.4071C58.1449 65.4071 60.0582 63.7861 61.4861 65.3271C61.0384 63.9039 59.7566 63.6164 58.3805 63.6164C56.6699 63.6164 54.5964 63.9274 53.4088 63.8662C50.1006 63.6918 49.4503 63.1074 47.8386 63.1074C46.7924 63.1074 45.586 63.7059 44.865 64.7709Z" fill="url(#paint32_linear)"/>
<path d="M14.7329 67.269C17.518 66.8872 23.8517 66.1286 24.8649 66.1286C15.6802 59.564 19.7659 45.6008 23.1542 38.5367C23.6302 37.5471 23.9224 36.7318 24.0826 36.0391C21.0242 38.3718 18.2014 37.6978 14.4832 37.3774C8.91296 36.9061 10.8074 67.8062 14.7329 67.269Z" fill="url(#paint33_linear)"/>
<path d="M20.5247 60.9269C19.5727 59.6592 20.3974 62.383 21.1561 64.3481C21.8018 66.0164 16.8489 65.0315 13.0553 65.4415C13.5501 66.6667 14.1156 67.3548 14.733 67.2747C17.5181 66.8929 23.8517 66.1342 24.8649 66.1342C23.437 64.9184 21.4766 62.1945 20.5247 60.9269Z" fill="url(#paint34_linear)"/>
<path d="M24.865 66.1339C24.078 65.4647 23.126 64.3337 22.2731 63.2451C22.2731 63.2451 17.6642 65.6061 12.7161 64.4939C13.2863 66.2988 13.9696 67.378 14.733 67.2743C17.5181 66.8926 23.8518 66.1339 24.865 66.1339Z" fill="url(#paint35_linear)"/>
<path opacity="0.16" d="M42.7632 19.6175C40.9583 20.0086 39.4974 17.5157 38.668 14.6033C37.9941 12.2235 38.9083 9.19333 40.685 8.85403C42.4616 8.51473 44.0921 8.4959 45.0723 13.5383C45.6473 16.5119 44.5304 19.2358 42.7632 19.6175Z" fill="url(#paint36_radial)"/>
<path d="M47.8008 63.0946C46.8064 63.1983 45.9063 63.7308 45.289 64.4612C44.6622 65.2011 44.3701 66.1625 44.4313 67.1332C44.436 68.1087 44.5821 69.1031 45.1382 69.8948C45.6849 70.6912 46.6085 71.1672 47.5369 71.5018C46.5802 71.285 45.5765 70.8891 44.9356 70.0503C44.2852 69.2209 44.1344 68.137 44.1014 67.1474C44.059 66.1295 44.3842 65.0503 45.1005 64.301C45.7932 63.5376 46.797 63.071 47.8008 63.0946Z" fill="#804B24"/>
<path d="M46.2079 54.2578C45.5528 54.5406 44.9496 54.9317 44.4548 55.4124C43.9459 55.8883 43.6772 56.5434 43.4887 57.2078V57.1984C43.2484 58.4096 43.451 59.6961 44.1626 60.6999C44.8554 61.7178 45.9817 62.3869 47.1787 62.7734C45.944 62.5377 44.7046 61.9345 43.927 60.8648C43.5406 60.337 43.272 59.7243 43.1447 59.0787C43.0128 58.4331 43.074 57.7639 43.1966 57.1371L43.2013 57.1278C43.3945 56.4303 43.7432 55.7328 44.3134 55.2616C44.8601 54.7762 45.534 54.4746 46.2079 54.2578Z" fill="#804B24"/>
<path d="M47.0891 44.4902C45.9157 44.6222 44.78 45.1123 43.9694 45.9323C43.1589 46.7522 42.7206 47.8833 42.6499 49.0378C42.5321 50.1877 42.7159 51.3847 43.3757 52.3366C44.0213 53.2932 45.0816 53.9341 46.2173 54.264C45.058 54.0519 43.9035 53.4817 43.1683 52.4827C42.419 51.493 42.2211 50.2018 42.3201 49.0048C42.419 47.8031 42.8903 46.5779 43.7951 45.7437C44.6857 44.9096 45.9063 44.5044 47.0891 44.4902Z" fill="#804B24"/>
<path d="M48.1259 34.042C46.8724 34.386 45.6236 34.862 44.6339 35.6725C43.6349 36.4831 43.0929 37.7319 43.1778 39.0137C43.1636 40.2861 43.5783 41.582 44.5444 42.4303C45.4963 43.2833 46.7828 43.6979 48.0552 43.9666C46.7687 43.8158 45.4256 43.4906 44.3794 42.6235C43.305 41.7658 42.8526 40.3379 42.8479 39.0184C42.7772 37.68 43.3804 36.2757 44.4737 35.4746C45.5482 34.6594 46.8441 34.2682 48.1259 34.042Z" fill="#804B24"/>
<path d="M43.8044 60.3291C44.6668 61.8277 46.3304 62.6006 47.9703 62.822C49.6386 63.0812 51.3209 63.2556 53.008 63.364C54.6904 63.5054 56.3822 63.5949 58.0693 63.5902C58.9128 63.5808 59.7611 63.5572 60.5999 63.4771C61.4387 63.4111 62.287 63.3216 63.0928 63.0577C61.4953 63.6562 59.7611 63.7551 58.074 63.8117C56.3775 63.8541 54.6762 63.8069 52.9797 63.6986C51.2879 63.5525 49.6009 63.3404 47.9279 63.0435C47.0891 62.9069 46.2502 62.643 45.5104 62.1953C44.7847 61.7429 44.1814 61.0878 43.8044 60.3291Z" fill="#804B24"/>
<path d="M43.6019 52.8262C44.2475 53.4718 45.0817 53.896 45.9535 54.1127C46.8206 54.3719 47.7301 54.3153 48.6443 54.3577L54.1062 54.5133L59.568 54.7819C61.3776 54.8903 63.2249 54.9186 64.9591 54.3248C63.2673 55.0458 61.3682 55.1023 59.5633 55.0034L54.1014 54.8432L48.6396 54.5745C47.7395 54.5133 46.797 54.5557 45.9111 54.2682C45.0298 53.9949 44.2098 53.5095 43.6019 52.8262Z" fill="#804B24"/>
<path d="M63.1164 44.4563C61.8111 44.461 60.501 44.4987 59.1956 44.4845L55.2748 44.494L51.3587 44.5458C50.0533 44.5553 48.7479 44.5599 47.4473 44.6118H47.4378C46.1513 44.5929 44.8224 45.0312 43.894 45.9502C42.9515 46.8597 42.5038 48.1839 42.4473 49.5034C42.4567 48.8436 42.5274 48.1745 42.73 47.5336C42.9374 46.8974 43.2861 46.2989 43.7621 45.8182C44.714 44.8427 46.0853 44.3573 47.4378 44.3526H47.4284C50.0439 44.1971 52.6593 44.1924 55.2748 44.2348C57.8949 44.2631 60.5057 44.3149 63.1164 44.4563Z" fill="#804B24"/>
<defs>
<linearGradient id="paint0_linear" x1="53.6922" y1="39.2638" x2="34.6401" y2="40.0287" gradientUnits="userSpaceOnUse">
<stop offset="0.00132565" stop-color="#BE8D68"/>
<stop offset="1" stop-color="#CD9870"/>
</linearGradient>
<linearGradient id="paint1_linear" x1="22.0707" y1="92.0009" x2="33.0889" y2="64.2654" gradientUnits="userSpaceOnUse">
<stop stop-color="#B37E53"/>
<stop offset="1" stop-color="#CD9870"/>
</linearGradient>
<linearGradient id="paint2_linear" x1="58.1908" y1="6.77171" x2="19.3105" y2="52.6175" gradientUnits="userSpaceOnUse">
<stop stop-color="#A46C3F" stop-opacity="0"/>
<stop offset="1" stop-color="#804B24"/>
</linearGradient>
<linearGradient id="paint3_linear" x1="87.7653" y1="51.9804" x2="21.6561" y2="52.7403" gradientUnits="userSpaceOnUse">
<stop stop-color="#B37E53"/>
<stop offset="1" stop-color="#CD9870"/>
</linearGradient>
<linearGradient id="paint4_linear" x1="75.9638" y1="52.8746" x2="18.4032" y2="54.3944" gradientUnits="userSpaceOnUse">
<stop stop-color="#B37E53"/>
<stop offset="1" stop-color="#CD9870"/>
</linearGradient>
<linearGradient id="paint5_linear" x1="16.5626" y1="50.9121" x2="112.307" y2="59.3658" gradientUnits="userSpaceOnUse">
<stop stop-color="#473226" stop-opacity="0"/>
<stop offset="1" stop-color="#3D2A20"/>
</linearGradient>
<linearGradient id="paint6_linear" x1="45.0348" y1="52.866" x2="58.1857" y2="51.1381" gradientUnits="userSpaceOnUse">
<stop stop-color="#643800" stop-opacity="0"/>
<stop offset="1" stop-color="#643800"/>
</linearGradient>
<linearGradient id="paint7_linear" x1="3.01749" y1="14.6139" x2="49.3699" y2="35.8905" gradientUnits="userSpaceOnUse">
<stop stop-color="#B37E53"/>
<stop offset="1" stop-color="#CD9870"/>
</linearGradient>
<linearGradient id="paint8_linear" x1="54.626" y1="42.1771" x2="54.5627" y2="26.188" gradientUnits="userSpaceOnUse">
<stop offset="0.00132565" stop-color="#BE8D68"/>
<stop offset="1" stop-color="#CD9870"/>
</linearGradient>
<linearGradient id="paint9_linear" x1="71.7609" y1="60.1868" x2="51.4818" y2="58.4296" gradientUnits="userSpaceOnUse">
<stop offset="0.00132565" stop-color="#BE8D68"/>
<stop offset="1" stop-color="#CD9870"/>
</linearGradient>
<linearGradient id="paint10_linear" x1="70.0569" y1="67.9283" x2="52.1049" y2="67.5959" gradientUnits="userSpaceOnUse">
<stop offset="0.00132565" stop-color="#BE8D68"/>
<stop offset="1" stop-color="#CD9870"/>
</linearGradient>
<linearGradient id="paint11_linear" x1="51.9444" y1="48.9743" x2="56.187" y2="33.2702" gradientUnits="userSpaceOnUse">
<stop stop-color="#B37E53"/>
<stop offset="1" stop-color="#CD9870"/>
</linearGradient>
<linearGradient id="paint12_linear" x1="51.1065" y1="68.7643" x2="55.6025" y2="54.8966" gradientUnits="userSpaceOnUse">
<stop stop-color="#B37E53"/>
<stop offset="1" stop-color="#CD9870"/>
</linearGradient>
<linearGradient id="paint13_linear" x1="49.1003" y1="84.0535" x2="53.7545" y2="63.6318" gradientUnits="userSpaceOnUse">
<stop stop-color="#B37E53"/>
<stop offset="1" stop-color="#CD9870"/>
</linearGradient>
<linearGradient id="paint14_linear" x1="20.4093" y1="47.1771" x2="3.59711" y2="65.6991" gradientUnits="userSpaceOnUse">
<stop offset="0.3105" stop-color="#D2A374" stop-opacity="0"/>
<stop offset="1" stop-color="#B88653"/>
</linearGradient>
<linearGradient id="paint15_linear" x1="52.9172" y1="38.7408" x2="39.3344" y2="40.2606" gradientUnits="userSpaceOnUse">
<stop offset="0.3131" stop-color="#8D562E" stop-opacity="0"/>
<stop offset="1" stop-color="#8D562E"/>
</linearGradient>
<radialGradient id="paint16_radial" cx="0" cy="0" r="1" gradientUnits="userSpaceOnUse" gradientTransform="translate(33.9456 63.0875) rotate(7.56189) scale(5.64393 2.68239)">
<stop stop-color="#F8DBBA"/>
<stop offset="1" stop-color="#CD9870" stop-opacity="0"/>
</radialGradient>
<radialGradient id="paint17_radial" cx="0" cy="0" r="1" gradientUnits="userSpaceOnUse" gradientTransform="translate(55.8996 39.0561) rotate(2.02657) scale(6.34898 4.1659)">
<stop stop-color="#F8DBBA"/>
<stop offset="1" stop-color="#CD9870" stop-opacity="0"/>
</radialGradient>
<radialGradient id="paint18_radial" cx="0" cy="0" r="1" gradientUnits="userSpaceOnUse" gradientTransform="translate(55.5702 59.5059) rotate(-0.0543808) scale(6.81944 3.67442)">
<stop stop-color="#F8DBBA"/>
<stop offset="1" stop-color="#CD9870" stop-opacity="0"/>
</radialGradient>
<radialGradient id="paint19_radial" cx="0" cy="0" r="1" gradientUnits="userSpaceOnUse" gradientTransform="translate(53.2376 67.7656) rotate(-0.053942) scale(6.24297 3.90581)">
<stop stop-color="#F8DBBA"/>
<stop offset="1" stop-color="#CD9870" stop-opacity="0"/>
</radialGradient>
<linearGradient id="paint20_linear" x1="51.0354" y1="58.595" x2="34.6031" y2="58.7849" gradientUnits="userSpaceOnUse">
<stop stop-color="#8D562E" stop-opacity="0"/>
<stop offset="1" stop-color="#8D562E"/>
</linearGradient>
<linearGradient id="paint21_linear" x1="62.6247" y1="65.9636" x2="37.1689" y2="68.9557" gradientUnits="userSpaceOnUse">
<stop offset="0.3131" stop-color="#8D562E" stop-opacity="0"/>
<stop offset="1" stop-color="#8D562E"/>
</linearGradient>
<linearGradient id="paint22_linear" x1="49.7849" y1="62.8705" x2="38.1018" y2="79.9676" gradientUnits="userSpaceOnUse">
<stop stop-color="#D2A374" stop-opacity="0"/>
<stop offset="1" stop-color="#99643E"/>
</linearGradient>
<linearGradient id="paint23_linear" x1="54.5524" y1="37.8328" x2="56.9586" y2="49.4843" gradientUnits="userSpaceOnUse">
<stop stop-color="#A46C3F" stop-opacity="0"/>
<stop offset="1" stop-color="#804B24"/>
</linearGradient>
<linearGradient id="paint24_linear" x1="58.7661" y1="48.2896" x2="51.9905" y2="64.817" gradientUnits="userSpaceOnUse">
<stop stop-color="#A46C3F" stop-opacity="0"/>
<stop offset="1" stop-color="#804B24"/>
</linearGradient>
<linearGradient id="paint25_linear" x1="73.0179" y1="52.6491" x2="56.1106" y2="49.6096" gradientUnits="userSpaceOnUse">
<stop offset="0.00132565" stop-color="#BE8D68"/>
<stop offset="1" stop-color="#CD9870"/>
</linearGradient>
<linearGradient id="paint26_linear" x1="51.8423" y1="63.0415" x2="57.1614" y2="42.2082" gradientUnits="userSpaceOnUse">
<stop stop-color="#B37E53"/>
<stop offset="1" stop-color="#CD9870"/>
</linearGradient>
<linearGradient id="paint27_linear" x1="49.4319" y1="49.4788" x2="38.7518" y2="49.4788" gradientUnits="userSpaceOnUse">
<stop offset="0.2173" stop-color="#8D562E" stop-opacity="0"/>
<stop offset="1" stop-color="#8D562E"/>
</linearGradient>
<radialGradient id="paint28_radial" cx="0" cy="0" r="1" gradientUnits="userSpaceOnUse" gradientTransform="translate(57.6501 49.5032) rotate(-2.73364) scale(7.24677 4.75256)">
<stop stop-color="#F8DBBA"/>
<stop offset="1" stop-color="#CD9870" stop-opacity="0"/>
</radialGradient>
<linearGradient id="paint29_linear" x1="55.438" y1="48.4384" x2="57.4644" y2="61.3246" gradientUnits="userSpaceOnUse">
<stop stop-color="#A46C3F" stop-opacity="0"/>
<stop offset="1" stop-color="#804B24"/>
</linearGradient>
<linearGradient id="paint30_linear" x1="54.8092" y1="57.4575" x2="54.1918" y2="66.861" gradientUnits="userSpaceOnUse">
<stop stop-color="#A46C3F" stop-opacity="0"/>
<stop offset="1" stop-color="#804B24"/>
</linearGradient>
<linearGradient id="paint31_linear" x1="52.9974" y1="68.2932" x2="53.7573" y2="75.4171" gradientUnits="userSpaceOnUse">
<stop stop-color="#A46C3F" stop-opacity="0"/>
<stop offset="1" stop-color="#804B24"/>
</linearGradient>
<linearGradient id="paint32_linear" x1="53.1769" y1="67.2117" x2="53.1769" y2="62.0586" gradientUnits="userSpaceOnUse">
<stop stop-color="#B37E53"/>
<stop offset="1" stop-color="#A46C3F"/>
</linearGradient>
<linearGradient id="paint33_linear" x1="18.3689" y1="52.9858" x2="2.22158" y2="77.3968" gradientUnits="userSpaceOnUse">
<stop offset="0.3105" stop-color="#D2A374" stop-opacity="0"/>
<stop offset="1" stop-color="#B88653"/>
</linearGradient>
<linearGradient id="paint34_linear" x1="18.2287" y1="56.3489" x2="20.1284" y2="80.855" gradientUnits="userSpaceOnUse">
<stop stop-color="#B37E53"/>
<stop offset="1" stop-color="#CD9870"/>
</linearGradient>
<linearGradient id="paint35_linear" x1="18.0974" y1="56.3588" x2="19.9971" y2="80.8648" gradientUnits="userSpaceOnUse">
<stop stop-color="#B37E53"/>
<stop offset="1" stop-color="#CD9870"/>
</linearGradient>
<radialGradient id="paint36_radial" cx="0" cy="0" r="1" gradientUnits="userSpaceOnUse" gradientTransform="translate(41.8352 14.2213) rotate(79.0615) scale(5.24755 3.18567)">
<stop stop-color="#F8DBBA"/>
<stop offset="1" stop-color="#CD9870" stop-opacity="0"/>
</radialGradient>
</defs>
</svg>