<svg width="27" height="26" viewBox="0 0 27 26" fill="none" xmlns="http://www.w3.org/2000/svg">
<path d="M9.65833 1.63178C7.98784 2.19648 6.47621 3.11745 5.2197 4.31589V1.98883C5.2197 1.44442 4.77837 1.00308 4.23395 1.00308H3.83965C3.29523 1.00308 2.8539 1.44442 2.8539 1.98883V7.59454C2.8539 8.18459 3.28597 8.67395 3.85122 8.76301C4.04635 8.84024 4.2624 8.85365 4.46765 8.79899C4.49138 8.79267 4.51478 8.78549 4.53782 8.77748H9.64151C10.1859 8.77748 10.6273 8.33614 10.6273 7.79173V7.39736C10.6273 6.85294 10.1859 6.4116 9.64151 6.4116H6.47221C7.55005 5.26147 8.90173 4.38493 10.4159 3.87306C12.629 3.12495 15.0385 3.20675 17.1958 4.10323C19.353 4.99972 21.1111 6.64981 22.1425 8.74631C23.174 10.8428 23.4085 13.2428 22.8024 15.4994C22.1964 17.756 20.791 19.7153 18.8481 21.0127C16.9052 22.31 14.5571 22.8568 12.2411 22.5515C9.92512 22.2461 7.79896 21.1093 6.25855 19.3527C4.71814 17.596 3.86848 15.3393 3.86782 13.0027L3.86776 12.8055C3.8676 12.2611 3.42614 11.8199 2.88173 11.8201L2.48743 11.8202C2.22599 11.8203 1.97529 11.9242 1.79048 12.1091C1.60566 12.294 1.50188 12.5448 1.50195 12.8062L1.50201 13.0034C1.50284 15.9137 2.56111 18.7245 4.47982 20.9126C6.39853 23.1006 9.04692 24.5166 11.9319 24.897C14.8168 25.2774 17.7417 24.5962 20.1618 22.9803C22.5819 21.3643 24.3324 18.9238 25.0873 16.1131C25.8422 13.3024 25.55 10.3132 24.2653 7.70186C22.9806 5.09056 20.7908 3.03519 18.1036 1.91848C15.4164 0.801783 12.415 0.699887 9.65833 1.63178Z" fill="#0542CC" stroke="#0542CC" stroke-width="1.125" stroke-linecap="square" stroke-linejoin="round"/>
</svg>
