<svg width="11" height="12" viewBox="0 0 11 12" fill="none" xmlns="http://www.w3.org/2000/svg">
<path d="M10.4738 6C10.4742 6.15354 10.4348 6.30456 10.3596 6.43838C10.2843 6.57219 10.1757 6.68425 10.0442 6.76366L1.90008 11.7458C1.76278 11.8299 1.60551 11.8758 1.44453 11.8788C1.28356 11.8817 1.1247 11.8417 0.984376 11.7627C0.845386 11.685 0.729603 11.5717 0.648934 11.4344C0.568266 11.2971 0.525623 11.1408 0.525391 10.9816V1.01843C0.525623 0.859191 0.568266 0.702887 0.648934 0.565591C0.729603 0.428296 0.845386 0.314965 0.984376 0.237253C1.1247 0.158314 1.28356 0.118268 1.44453 0.121249C1.60551 0.12423 1.76278 0.170131 1.90008 0.25421L10.0442 5.23634C10.1757 5.31575 10.2843 5.42781 10.3596 5.56162C10.4348 5.69544 10.4742 5.84646 10.4738 6Z" fill="#0D4CFF"/>
</svg>
