<svg width="42" height="42" viewBox="0 0 42 42" fill="none" xmlns="http://www.w3.org/2000/svg">
<path d="M41.9882 20.3343C41.9667 19.5391 41.8893 18.7525 41.769 17.9831L37.6125 17.304L36.2027 13.4269L38.9708 10.2978C38.1326 8.92231 37.1311 7.65431 36.0006 6.51096L32.231 8.37642L28.7795 6.06393L29.1534 1.92036C27.7221 1.32289 26.2048 0.87587 24.6316 0.609375L22.6759 4.29733L18.4979 4.39189L16.3531 0.807097C14.7455 1.16816 13.211 1.70544 11.7711 2.40177L12.3857 6.51525L9.06313 9.01687L5.19465 7.37062C4.13297 8.56985 3.20453 9.88943 2.44373 11.3122L5.38807 14.278L4.20174 18.2239L0.0882535 19.1351C0.0151822 19.9518 -0.0192044 20.7856 0.0108838 21.6324C0.040972 22.4061 0.109745 23.1669 0.217203 23.9148L4.37367 24.6068L5.77062 28.4882L2.98102 31.6174C3.82349 32.9972 4.82069 34.278 5.95115 35.4214L9.72937 33.5688L13.1766 35.8942L12.7855 40.0378C14.2641 40.6524 15.8244 41.1167 17.4448 41.3918L19.392 37.6995L23.5699 37.5877L25.7234 41.1682C27.3267 40.7986 28.8612 40.257 30.3011 39.5564L29.6735 35.4472L32.9832 32.9284L36.856 34.566C37.9177 33.3582 38.8418 32.0386 39.5983 30.6159L36.6368 27.6587L37.8102 23.6999L41.928 22.7801C41.9882 21.9677 42.0183 21.1553 41.9882 20.3343ZM27.2063 27.9552C23.3077 31.3294 17.3589 30.9726 13.9202 27.1085C10.4988 23.2486 10.877 17.3986 14.7885 14.0244C18.6827 10.633 24.6316 11.0113 28.0617 14.8583C31.5132 18.7139 31.1178 24.5811 27.2063 27.9552Z" fill="white"/>
</svg>
