<svg width="43" height="42" viewBox="0 0 43 42" fill="none" xmlns="http://www.w3.org/2000/svg">
<path d="M39.8701 5.25H37.2451V36.75H39.8701V5.25Z" fill="white"/>
<path d="M7.05762 36.7497C6.70952 36.7497 6.37568 36.6114 6.12954 36.3653C5.8834 36.1191 5.74512 35.7853 5.74512 35.4372V6.56218C5.74517 6.33168 5.80593 6.10527 5.92127 5.90571C6.03661 5.70615 6.20247 5.54049 6.40216 5.42538C6.60186 5.31028 6.82834 5.24979 7.05884 5.25C7.28933 5.25021 7.5157 5.31112 7.71518 5.4266L32.6527 19.8641C32.8516 19.9795 33.0167 20.1451 33.1314 20.3443C33.2462 20.5436 33.3066 20.7695 33.3066 20.9994C33.3066 21.2293 33.2462 21.4552 33.1314 21.6545C33.0167 21.8537 32.8516 22.0194 32.6527 22.1347L7.71518 36.5722C7.51549 36.6883 7.28862 36.7496 7.05762 36.7497Z" fill="white"/>
</svg>
