<svg width="466" height="465" viewBox="0 0 466 465" fill="none" xmlns="http://www.w3.org/2000/svg">
<mask id="path-1-inside-1_297_1453" fill="white">
<path d="M0.046875 0H465.047V465H0.046875V0Z"/>
</mask>
<path d="M465.047 463H0.046875V467H465.047V463Z" fill="#EAEAEA" mask="url(#path-1-inside-1_297_1453)"/>
<g clip-path="url(#clip0_297_1453)">
<rect width="465" height="465" transform="translate(0.046875)" fill="url(#paint0_radial_297_1453)"/>
<path d="M202.002 265.92C173.407 289.319 142.428 309.718 109.663 326.518C74.5141 345.117 37.5784 360.116 0.046875 370.916V408.714C42.3443 391.915 83.4502 370.916 120.982 345.717C152.556 324.718 182.343 300.719 209.151 274.32C235.959 247.921 260.384 218.523 280.639 187.324C257.406 216.123 230.597 242.521 202.002 265.92ZM138.854 357.116C96.5564 390.715 49.4931 417.714 0.046875 438.713V469.911H23.8764C70.9397 442.912 115.024 411.114 153.747 373.316C181.151 346.917 206.172 317.518 227.619 286.319C249.065 255.121 266.937 221.522 281.235 186.724C263.959 220.322 242.512 250.921 218.683 279.72C194.853 308.518 168.045 334.317 138.854 357.116ZM172.215 379.315C147.79 406.914 120.982 432.113 92.3862 454.912C85.8331 460.312 79.28 465.111 72.1311 470.511H124.556C148.386 446.512 169.832 421.313 189.491 393.715C212.13 362.516 231.193 329.518 246.682 294.719C262.171 259.921 274.086 223.922 281.235 186.724C270.512 222.722 255.023 256.921 236.555 289.319C218.087 322.318 196.045 352.316 172.215 379.315ZM87.6203 292.319C59.0249 301.319 29.238 307.319 0.046875 312.118V345.117C32.2167 337.317 64.3866 327.118 94.7692 313.918C129.918 299.519 163.279 281.52 194.853 259.921C226.427 238.922 255.023 214.323 280.639 187.324C252.044 211.923 221.661 232.922 188.896 250.321C156.726 267.72 122.769 282.12 87.6203 292.319ZM169.832 191.524C132.896 189.124 96.5564 183.724 60.8121 174.725C39.9613 169.325 19.7062 162.725 0.046875 155.525V185.524C18.5147 190.324 37.5784 193.924 56.642 196.924C94.1734 202.923 132.301 204.723 169.832 202.923C207.364 201.123 244.895 195.724 281.235 187.324C244.299 192.124 206.768 193.924 169.832 191.524ZM71.5354 254.521C47.7059 256.921 23.8764 258.121 0.046875 258.121V288.119C25.0679 285.72 50.0889 282.12 75.1098 276.72C112.046 268.92 148.386 257.521 182.938 242.521C217.491 227.522 250.852 208.923 280.639 187.324C248.47 205.923 213.917 220.922 178.768 231.722C144.215 243.121 107.875 250.321 71.5354 254.521ZM209.747 397.314C194.853 423.113 177.577 447.112 159.109 470.511H196.64C209.151 450.112 219.874 429.113 230.002 408.114C246.087 373.316 258.597 336.717 266.937 300.119C275.873 262.921 280.639 225.122 281.235 187.924C276.469 225.122 268.129 261.721 256.214 297.119C243.704 331.917 228.214 365.516 209.747 397.314ZM329.49 403.914C330.086 426.113 329.49 448.312 327.107 470.511H356.298C356.298 447.712 354.511 424.913 351.532 402.114C346.766 364.316 338.426 326.518 326.511 290.519C314.596 254.521 299.107 219.722 280.639 187.324C296.129 221.522 307.448 257.521 315.788 293.519C324.128 330.118 328.894 366.716 329.49 403.914ZM435.531 345.717C461.148 384.715 481.403 426.713 497.488 469.911H537.998C515.956 420.113 487.36 373.916 453.999 331.917C406.34 272.52 347.362 222.722 281.831 186.724C342.596 229.322 395.021 284.52 435.531 345.717ZM402.766 372.116C415.872 403.914 425.999 436.913 433.148 470.511H467.701C455.786 433.313 440.893 397.314 423.021 362.516C405.149 328.918 384.298 296.519 361.064 267.12C337.234 237.722 310.426 210.723 281.235 187.324C308.043 213.723 331.277 242.521 351.532 273.72C371.787 304.919 389.064 337.917 402.766 372.116ZM461.148 315.118C501.658 358.316 535.019 407.514 562.423 459.712V390.115C536.211 357.116 507.615 325.918 476.637 298.919C448.042 273.72 417.063 251.521 384.298 232.922C351.532 213.723 316.979 198.123 281.235 187.324C315.788 201.723 347.958 220.322 378.34 241.921C408.127 263.52 435.531 288.119 461.148 315.118ZM277.065 298.919C271.108 336.117 261.576 372.116 249.065 406.314C240.725 427.913 231.789 449.512 221.066 469.911H252.64C259.193 451.312 265.746 432.113 270.512 412.914C280.044 375.715 286.001 337.917 288.384 300.119C290.171 262.321 287.788 223.922 281.831 187.324C283.618 224.522 282.427 262.321 277.065 298.919ZM562.423 348.117V305.519C540.977 288.719 517.743 273.72 494.509 259.921C427.787 222.122 355.107 197.523 281.235 187.324C353.915 205.323 422.425 236.522 481.999 279.12C511.19 299.519 537.998 322.918 562.423 348.117ZM287.192 408.714C283.618 429.713 278.852 450.112 273.491 470.511H302.682C305.66 450.712 308.043 431.513 309.235 411.714C311.618 373.316 311.022 335.517 306.256 297.719C301.49 259.921 293.15 223.322 281.235 187.924C289.575 224.522 294.341 261.721 295.533 298.919C296.129 335.517 293.15 372.116 287.192 408.714ZM379.532 470.511H410.51C405.744 441.712 398.595 413.514 389.659 385.315C366.426 312.118 329.49 244.321 280.639 187.324C323.532 249.121 352.724 319.318 367.617 391.315C374.17 417.114 377.745 443.512 379.532 470.511ZM67.3652 133.926C44.1315 123.127 21.4934 110.527 0.046875 96.728V130.926C19.1105 139.926 38.7698 148.326 58.4292 155.525C94.1734 168.125 131.109 177.724 168.641 183.124C206.172 188.524 243.704 190.324 280.639 187.924C243.704 186.124 206.768 180.124 171.024 171.125C135.279 162.125 100.131 149.526 67.3652 133.926ZM62.5993 215.523C41.7485 213.723 20.8977 211.323 0.046875 207.723V237.122C20.8977 238.922 41.7485 239.522 62.0036 238.922C100.131 237.722 137.662 233.522 174.598 225.122C211.534 216.723 247.278 204.123 280.639 187.924C245.491 200.523 209.151 208.923 172.215 213.723C136.471 217.923 99.5351 218.523 62.5993 215.523ZM390.851 -5.26736C420.042 -39.4658 452.808 -69.4645 488.552 -95.8633H436.723C413.489 -71.8644 392.042 -46.6655 373.574 -19.0667C351.532 12.1318 333.064 45.7303 317.575 79.9288C302.086 114.727 290.171 150.726 281.831 187.324C293.746 151.926 309.235 117.727 327.703 85.3286C345.575 52.93 367.021 22.3314 390.851 -5.26736ZM475.446 82.3287C504.041 73.3291 533.232 66.7294 562.423 61.9296V28.9311C529.658 37.3307 498.084 47.5302 467.701 60.7297C432.553 75.729 399.191 93.7282 368.213 115.327C337.234 136.326 308.043 160.325 281.235 187.324C310.426 163.325 341.405 142.926 373.574 124.927C406.34 107.528 440.297 93.1282 475.446 82.3287ZM361.064 109.327C389.659 85.9285 420.638 66.1294 453.403 48.7302C488.552 30.131 524.892 15.1317 562.423 3.73223V-34.0661C520.126 -17.2668 479.616 3.73223 442.084 28.9311C410.51 49.9301 380.723 73.9291 353.915 100.328C327.107 126.727 302.682 155.525 281.831 186.724C305.065 158.525 331.873 132.726 361.064 109.327ZM424.212 18.1316C466.51 -16.0669 512.977 -44.2656 562.423 -65.2647V-95.8633H536.807C489.743 -69.4645 446.85 -36.466 409.319 1.33234C355.107 55.3299 311.618 118.927 281.235 187.324C318.171 121.927 367.021 64.3295 424.212 18.1316ZM562.423 115.327V85.3286C537.402 88.3284 512.381 92.5282 487.956 97.928C414.085 115.327 344.383 146.526 281.831 187.324C347.958 153.125 419.446 129.727 492.126 120.127C514.764 117.127 538.594 115.327 562.423 115.327ZM494.509 241.921C517.743 252.721 540.381 265.32 562.423 279.12V245.521C542.764 236.522 523.105 228.122 502.85 220.922C467.105 208.323 430.17 199.323 393.234 193.324C356.298 187.924 318.767 185.524 281.235 186.724C318.171 189.124 355.107 195.124 390.851 204.123C426.595 213.723 461.148 226.322 494.509 241.921ZM392.042 181.924C428.978 184.324 465.318 190.924 500.467 200.523C521.317 205.923 541.573 213.123 561.828 220.922V190.924C543.36 186.124 524.296 181.924 505.233 178.924C467.701 172.925 429.574 169.925 392.042 171.125C354.511 172.325 316.979 177.724 280.639 187.324C318.171 181.324 355.107 179.524 392.042 181.924ZM499.871 159.125C520.722 160.325 541.573 163.325 562.423 166.925V138.126C541.573 136.926 520.722 136.326 500.467 136.926C424.212 139.326 349.745 156.125 281.235 187.324C352.128 163.325 426.595 154.325 499.871 159.125ZM355.107 -21.4666C370 -47.8655 387.276 -72.4643 405.744 -95.8633H368.213C355.702 -75.4642 344.383 -53.8652 334.852 -32.2661C318.767 2.53228 306.256 38.5307 297.32 75.129C288.384 111.727 282.427 149.526 280.639 186.724C286.597 149.526 295.533 113.527 308.043 78.1289C321.15 43.9304 336.639 10.3319 355.107 -21.4666ZM195.449 115.327C169.832 88.3284 146.598 59.5297 126.939 28.3311C101.918 -10.6671 81.663 -52.6652 66.1738 -95.8633H25.6636C47.7059 -46.6655 75.7056 0.13238 109.067 41.5305C132.896 71.5292 159.109 99.1279 188.3 123.727C216.895 148.326 248.47 169.325 281.235 187.324C250.257 166.325 221.661 142.326 195.449 115.327ZM126.939 -95.8633H92.3862C104.301 -58.065 119.79 -22.0666 138.258 12.1318C174.598 79.3288 223.449 139.326 281.235 186.724C228.81 133.326 187.109 70.3292 158.513 1.9323C144.811 -29.2663 134.684 -62.2648 126.939 -95.8633ZM100.727 59.5297C60.2164 16.9316 25.6636 -31.0662 0.046875 -82.6639V-13.067C25.6636 19.3315 54.259 49.3302 85.2374 75.729C143.024 124.927 210.342 163.325 281.235 186.724C212.725 156.725 151.364 112.327 100.727 59.5297ZM181.747 -95.8633H150.769C155.534 -67.0646 162.683 -38.8659 171.619 -11.2671C195.449 61.3296 232.98 129.127 280.639 186.724C238.938 124.327 209.151 54.7299 193.066 -17.2668C187.704 -43.0657 184.13 -69.4645 181.747 -95.8633ZM235.959 -95.8633H206.768C207.364 -73.0643 208.555 -50.2653 211.534 -28.0663C221.066 48.1302 244.895 121.327 281.235 186.724C252.044 117.727 235.959 43.3304 234.172 -29.8663C232.98 -51.4653 233.576 -73.6643 235.959 -95.8633ZM80.4715 96.1281C51.2803 75.129 24.4721 51.1301 0.046875 25.3313V68.5293C21.4934 85.3285 44.1315 100.928 67.961 114.727C100.727 133.926 135.279 150.126 171.619 162.125C207.364 174.125 244.299 182.524 281.235 186.724C244.895 178.924 209.151 166.925 175.79 151.326C141.832 136.326 109.663 117.727 80.4715 96.1281ZM315.192 -32.2661C322.937 -53.8652 331.873 -75.4642 342 -95.8633H311.022C304.469 -77.2641 299.107 -58.065 294.341 -38.2659C276.469 36.1308 272.299 112.927 281.831 187.324C279.448 112.327 290.767 37.3307 315.192 -32.2661ZM272.299 -34.666C275.278 -55.6651 280.044 -76.0642 285.405 -95.8633H256.214C253.235 -76.6641 250.852 -56.865 249.661 -37.0659C247.278 1.33233 249.065 39.7306 254.427 77.5289C259.789 115.327 268.725 151.926 281.235 187.924C272.299 151.326 266.937 114.127 265.746 76.9289C263.959 39.1306 266.342 1.9323 272.299 -34.666Z" fill="#0F62FE" fill-opacity="0.1"/>
<g filter="url(#filter0_dd_297_1453)">
<path d="M-37.7031 -277.359C-37.7031 -284.61 -31.8249 -290.488 -24.5737 -290.488H219.415C226.666 -290.488 232.544 -284.61 232.544 -277.359V-101.753C232.544 -94.5018 226.666 -88.6236 219.415 -88.6236H-24.5737C-31.8249 -88.6236 -37.7031 -94.5018 -37.7031 -101.753V-277.359Z" fill="white"/>
</g>
</g>
<defs>
<filter id="filter0_dd_297_1453" x="-85.2972" y="-290.488" width="365.438" height="368.169" filterUnits="userSpaceOnUse" color-interpolation-filters="sRGB">
<feFlood flood-opacity="0" result="BackgroundImageFix"/>
<feColorMatrix in="SourceAlpha" type="matrix" values="0 0 0 0 0 0 0 0 0 0 0 0 0 0 0 0 0 0 127 0" result="hardAlpha"/>
<feOffset dy="66.7412"/>
<feGaussianBlur stdDeviation="19.9676"/>
<feColorMatrix type="matrix" values="0 0 0 0 0.0196078 0 0 0 0 0.00392157 0 0 0 0 0.215686 0 0 0 0.05 0"/>
<feBlend mode="normal" in2="BackgroundImageFix" result="effect1_dropShadow_297_1453"/>
<feColorMatrix in="SourceAlpha" type="matrix" values="0 0 0 0 0 0 0 0 0 0 0 0 0 0 0 0 0 0 127 0" result="hardAlpha"/>
<feOffset dy="118.712"/>
<feGaussianBlur stdDeviation="23.7971"/>
<feColorMatrix type="matrix" values="0 0 0 0 0.0196078 0 0 0 0 0.00392157 0 0 0 0 0.215686 0 0 0 0.01 0"/>
<feBlend mode="normal" in2="effect1_dropShadow_297_1453" result="effect2_dropShadow_297_1453"/>
<feBlend mode="normal" in="SourceGraphic" in2="effect2_dropShadow_297_1453" result="shape"/>
</filter>
<radialGradient id="paint0_radial_297_1453" cx="0" cy="0" r="1" gradientUnits="userSpaceOnUse" gradientTransform="translate(376.924 100.272) rotate(128.64) scale(550.186 553.247)">
<stop stop-color="#0F62FE"/>
<stop offset="0.501963" stop-color="#0233BD"/>
</radialGradient>
<clipPath id="clip0_297_1453">
<rect width="465" height="465" fill="white" transform="translate(0.046875)"/>
</clipPath>
</defs>
</svg>
