<svg width="54" height="54" viewBox="0 0 54 54" fill="none" xmlns="http://www.w3.org/2000/svg">
<g clip-path="url(#clip0_6390_24228)">
<rect width="53.8803" height="53.5" transform="translate(0.0507812)" fill="url(#paint0_radial_6390_24228)"/>
<path d="M23.4517 30.5953C20.1383 33.2874 16.5487 35.6344 12.7521 37.5672C8.67942 39.7071 4.39962 41.4328 0.0507812 42.6754V47.0242C4.95185 45.0914 9.71486 42.6754 14.0637 39.7761C17.7222 37.3601 21.1737 34.599 24.28 31.5617C27.3863 28.5244 30.2165 25.142 32.5635 21.5525C29.8714 24.8659 26.7651 27.9031 23.4517 30.5953ZM16.1346 41.0877C11.2335 44.9533 5.7802 48.0596 0.0507812 50.4757V54.0652H2.81195C8.26525 50.9589 13.3734 47.3003 17.8603 42.9515C21.0356 39.9142 23.9349 36.5318 26.4199 32.9423C28.905 29.3527 30.9758 25.4871 32.6325 21.4834C30.6307 25.3491 28.1456 28.8695 25.3845 32.1829C22.6233 35.4963 19.517 38.4646 16.1346 41.0877ZM20.0002 43.6418C17.17 46.8171 14.0637 49.7163 10.7503 52.3395C9.99098 52.9607 9.23166 53.5129 8.40331 54.1342H14.4779C17.239 51.373 19.7241 48.4738 22.002 45.2985C24.6252 41.709 26.8341 37.9124 28.6288 33.9087C30.4236 29.905 31.8042 25.7632 32.6325 21.4834C31.39 25.6252 29.5953 29.5598 27.4554 33.2874C25.3154 37.084 22.7614 40.5355 20.0002 43.6418ZM10.1981 33.6326C6.88467 34.668 3.43321 35.3583 0.0507812 35.9105V39.7071C3.77835 38.8097 7.50593 37.6362 11.0264 36.1176C15.0991 34.4609 18.9648 32.39 22.6233 29.905C26.2819 27.489 29.5953 24.6588 32.5635 21.5525C29.2501 24.3827 25.7296 26.7987 21.933 28.8005C18.2054 30.8024 14.2708 32.4591 10.1981 33.6326ZM19.7241 22.0357C15.4443 21.7595 11.2335 21.1383 7.09175 20.1028C4.67573 19.4816 2.32874 18.7223 0.0507812 17.8939V21.3454C2.19068 21.8976 4.39962 22.3118 6.60855 22.6569C10.9574 23.3472 15.3752 23.5543 19.7241 23.3472C24.0729 23.1401 28.4218 22.5189 32.6325 21.5525C28.3527 22.1047 24.0039 22.3118 19.7241 22.0357ZM8.33428 29.2837C5.57311 29.5598 2.81195 29.6979 0.0507812 29.6979V33.1494C2.95001 32.8732 5.84923 32.4591 8.74845 31.8378C13.0283 30.9404 17.239 29.6289 21.2427 27.9031C25.2464 26.1774 29.112 24.0375 32.5635 21.5525C28.8359 23.6924 24.8322 25.4181 20.7595 26.6606C16.7558 27.9722 12.5451 28.8005 8.33428 29.2837ZM24.349 45.7127C22.6233 48.6809 20.6215 51.4421 18.4816 54.1342H22.8304C24.28 51.7872 25.5225 49.3712 26.696 46.9552C28.5598 42.9515 30.0094 38.7407 30.9758 34.5299C32.0113 30.2501 32.5635 25.9013 32.6325 21.6215C32.0803 25.9013 31.1139 30.1121 29.7333 34.1848C28.2837 38.1885 26.4889 42.0541 24.349 45.7127ZM38.2239 46.472C38.2929 49.0261 38.2239 51.5801 37.9478 54.1342H41.3302C41.3302 51.5111 41.1231 48.888 40.778 46.2649C40.2257 41.9161 39.2593 37.5672 37.8787 33.4255C36.4982 29.2837 34.7034 25.28 32.5635 21.5525C34.3583 25.4871 35.6698 29.6289 36.6362 33.7706C37.6026 37.9814 38.1549 42.1922 38.2239 46.472ZM50.5111 39.7761C53.4793 44.263 55.8263 49.0951 57.6901 54.0652H62.3841C59.83 48.3358 56.5166 43.0205 52.651 38.1885C47.1287 31.3546 40.2948 25.6252 32.7016 21.4834C39.7425 26.3845 45.8171 32.7352 50.5111 39.7761ZM46.7145 42.8134C48.2331 46.472 49.4066 50.2686 50.235 54.1342H54.2387C52.8581 49.8544 51.1323 45.7127 49.0615 41.709C46.9906 37.8433 44.5746 34.1158 41.8824 30.7333C39.1213 27.3509 36.015 24.2446 32.6325 21.5525C35.7388 24.5897 38.431 27.9031 40.778 31.4927C43.125 35.0822 45.1268 38.8788 46.7145 42.8134ZM53.4793 36.2557C58.1733 41.2258 62.0389 46.8862 65.2143 52.8917V44.8843C62.177 41.0877 58.8636 37.4982 55.2741 34.3919C51.9607 31.4927 48.3712 28.9386 44.5746 26.7987C40.778 24.5897 36.7743 22.795 32.6325 21.5525C36.6362 23.2092 40.3638 25.3491 43.8843 27.8341C47.3357 30.3192 50.5111 33.1493 53.4793 36.2557ZM32.1493 34.3919C31.459 38.6717 30.3546 42.8134 28.905 46.7481C27.9386 49.2331 26.9031 51.7182 25.6606 54.0652H29.3191C30.0785 51.9253 30.8378 49.7163 31.39 47.5074C32.4945 43.2276 33.1848 38.8788 33.4609 34.5299C33.668 30.1811 33.3919 25.7632 32.7016 21.5525C32.9087 25.8323 32.7706 30.1811 32.1493 34.3919ZM65.2143 40.0523V35.1512C62.7292 33.2184 60.0371 31.4926 57.345 29.905C49.6137 25.5561 41.1921 22.726 32.6325 21.5525C41.0541 23.6233 48.9924 27.2128 55.8954 32.1139C59.2778 34.4609 62.3841 37.153 65.2143 40.0523ZM33.3228 47.0242C32.9087 49.4402 32.3564 51.7872 31.7352 54.1342H35.1176C35.4627 51.8563 35.7388 49.6473 35.8769 47.3694C36.153 42.9515 36.084 38.6026 35.5318 34.2538C34.9795 29.905 34.0131 25.6942 32.6325 21.6215C33.5989 25.8323 34.1512 30.1121 34.2892 34.3919C34.3583 38.6027 34.0131 42.8134 33.3228 47.0242ZM44.0223 54.1342H47.6119C47.0596 50.8208 46.2313 47.5764 45.1958 44.3321C42.5037 35.9105 38.2239 28.1102 32.5635 21.5525C37.5336 28.6625 40.916 36.7389 42.6418 45.0224C43.4011 47.9906 43.8153 51.0279 44.0223 54.1342ZM7.85107 15.4089C5.15894 14.1663 2.53583 12.7167 0.0507812 11.1291V15.0637C2.25971 16.0992 4.53768 17.0656 6.81564 17.8939C10.9574 19.3435 15.2372 20.448 19.586 21.0693C23.9349 21.6905 28.2837 21.8976 32.5635 21.6215C28.2837 21.4144 24.0039 20.7241 19.8621 19.6887C15.7204 18.6532 11.6477 17.2036 7.85107 15.4089ZM7.29884 24.7968C4.88282 24.5897 2.4668 24.3136 0.0507812 23.8994V27.2819C2.4668 27.489 4.88282 27.558 7.22981 27.489C11.6477 27.3509 15.9965 26.8677 20.2763 25.9013C24.5561 24.9349 28.6979 23.4853 32.5635 21.6215C28.4908 23.0711 24.28 24.0375 20.0002 24.5897C15.8585 25.0729 11.5786 25.142 7.29884 24.7968ZM45.3339 -0.605896C48.7163 -4.54056 52.5129 -7.99201 56.6547 -11.0293H50.6491C47.957 -8.26813 45.472 -5.36891 43.3321 -2.19357C40.778 1.39595 38.6381 5.26158 36.8433 9.19624C35.0486 13.1999 33.668 17.3417 32.7016 21.5525C34.0821 17.4797 35.8769 13.5451 38.0168 9.8175C40.0877 6.08993 42.5727 2.56944 45.3339 -0.605896ZM55.136 9.47236C58.4494 8.43692 61.8319 7.6776 65.2143 7.12537V3.32876C61.4177 4.29517 57.7591 5.46867 54.2387 6.98731C50.1659 8.71304 46.3003 10.7839 42.7108 13.269C39.1213 15.685 35.7388 18.4461 32.6325 21.5525C36.015 18.7913 39.6045 16.4443 43.3321 14.3734C47.1287 12.3716 51.0633 10.7149 55.136 9.47236ZM41.8824 12.5787C45.1958 9.88653 48.7854 7.60857 52.582 5.60673C56.6547 3.46682 60.8655 1.74109 65.2143 0.42954V-3.9193C60.3132 -1.98648 55.6192 0.42954 51.2704 3.32876C47.6119 5.74478 44.1604 8.50595 41.0541 11.5432C37.9478 14.5805 35.1176 17.8939 32.7016 21.4834C35.3937 18.2391 38.5 15.2708 41.8824 12.5787ZM49.1995 2.08624C54.1006 -1.84842 59.4849 -5.09279 65.2143 -7.50881V-11.0293H62.246C56.7927 -7.99201 51.8226 -4.19541 47.4738 0.153424C41.1921 6.36605 36.153 13.6831 32.6325 21.5525C36.9123 14.0283 42.5727 7.40148 49.1995 2.08624ZM65.2143 13.269V9.8175C62.3151 10.1626 59.4158 10.6459 56.5856 11.2671C48.026 13.269 39.9496 16.8585 32.7016 21.5525C40.3638 17.6178 48.6473 14.9257 57.0689 13.8212C59.692 13.476 62.4531 13.269 65.2143 13.269ZM57.345 27.8341C60.0371 29.0766 62.6602 30.5262 65.2143 32.1139V28.2483C62.9363 27.2128 60.6584 26.2464 58.3114 25.4181C54.1696 23.9685 49.8898 22.933 45.61 22.2427C41.3302 21.6215 36.9814 21.3454 32.6325 21.4834C36.9123 21.7595 41.1921 22.4498 45.3339 23.4853C49.4756 24.5897 53.4793 26.0393 57.345 27.8341ZM45.472 20.9312C49.7518 21.2073 53.9625 21.9666 58.0353 23.0711C60.4513 23.6924 62.7983 24.5207 65.1453 25.4181V21.9666C63.0054 21.4144 60.7964 20.9312 58.5875 20.586C54.2387 19.8958 49.8208 19.5506 45.472 19.6887C41.1231 19.8267 36.7743 20.448 32.5635 21.5525C36.9123 20.8622 41.1922 20.6551 45.472 20.9312ZM57.9662 18.3081C60.3822 18.4461 62.7983 18.7913 65.2143 19.2055V15.8921C62.7983 15.754 60.3822 15.685 58.0353 15.754C49.1995 16.0301 40.5709 17.9629 32.6325 21.5525C40.847 18.7913 49.4756 17.7559 57.9662 18.3081ZM41.1921 -2.46968C42.9179 -5.50697 44.9197 -8.33716 47.0596 -11.0293H42.7108C41.2612 -8.68231 39.9496 -6.19726 38.8452 -3.71221C36.9814 0.291482 35.5318 4.43323 34.4963 8.64401C33.4609 12.8548 32.7706 17.2036 32.5635 21.4834C33.2538 17.2036 34.2892 13.0619 35.7388 8.98915C37.2575 5.05449 39.0522 1.18886 41.1921 -2.46968ZM22.6923 13.269C19.7241 10.1626 17.0319 6.84925 14.754 3.25974C11.8548 -1.22716 9.50777 -6.0592 7.71302 -11.0293H3.01903C5.57311 -5.36891 8.81748 0.0153646 12.6831 4.77837C15.4443 8.22983 18.4816 11.4052 21.864 14.2354C25.1774 17.0656 28.8359 19.4816 32.6325 21.5525C29.043 19.1364 25.7296 16.3753 22.6923 13.269ZM14.754 -11.0293H10.7503C12.1309 -6.68046 13.9256 -2.53871 16.0655 1.39595C20.2763 9.12721 25.9367 16.0301 32.6325 21.4834C26.558 15.3398 21.7259 8.09177 18.4125 0.222452C16.8249 -3.36706 15.6514 -7.16367 14.754 -11.0293ZM11.7167 6.84925C7.02272 1.94818 3.01903 -3.57415 0.0507812 -9.51066V-1.50328C3.01903 2.2243 6.33243 5.67575 9.92195 8.71304C16.6178 14.3734 24.4181 18.7913 32.6325 21.4834C24.6942 18.032 17.5842 12.9238 11.7167 6.84925ZM21.1047 -11.0293H17.5152C18.0674 -7.7159 18.8957 -4.47153 19.9312 -1.29619C22.6923 7.05634 27.0412 14.8566 32.5635 21.4834C27.7315 14.3044 24.28 6.29702 22.4162 -1.98648C21.795 -4.95473 21.3808 -7.99201 21.1047 -11.0293ZM27.3863 -11.0293H24.0039C24.0729 -8.40619 24.211 -5.78308 24.5561 -3.229C25.6606 5.5377 28.4218 13.9592 32.6325 21.4834C29.2501 13.5451 27.3863 4.98546 27.1792 -3.43609C27.0412 -5.92114 27.1102 -8.47522 27.3863 -11.0293ZM9.36972 11.06C5.98729 8.64401 2.88098 5.88284 0.0507812 2.91459V7.88469C2.53583 9.8175 5.15894 11.6123 7.9201 13.1999C11.7167 15.4089 15.7204 17.2726 19.9312 18.6532C24.0729 20.0338 28.3527 21.0002 32.6325 21.4834C28.4218 20.586 24.28 19.2055 20.4144 17.4107C16.4797 15.685 12.7521 13.5451 9.36972 11.06ZM36.5672 -3.71221C37.4646 -6.19726 38.5 -8.68231 39.6735 -11.0293H36.084C35.3247 -8.88939 34.7034 -6.68046 34.1512 -4.4025C32.0803 4.15711 31.5971 12.9928 32.7016 21.5525C32.4254 12.9238 33.737 4.29517 36.5672 -3.71221ZM31.5971 -3.98833C31.9422 -6.40435 32.4945 -8.75134 33.1157 -11.0293H29.7333C29.3882 -8.82036 29.1121 -6.5424 28.974 -4.26444C28.6979 0.153423 28.905 4.57129 29.5262 8.92012C30.1475 13.269 31.1829 17.4797 32.6325 21.6215C31.5971 17.4107 30.9758 13.1309 30.8378 8.8511C30.6307 4.50226 30.9068 0.222452 31.5971 -3.98833Z" fill="#0F62FE" fill-opacity="0.1"/>
<g filter="url(#filter0_dd_6390_24228)">
<path d="M-4.32422 -32.1388C-4.32422 -32.979 -3.6431 -33.6602 -2.80289 -33.6602H25.4684C26.3086 -33.6602 26.9898 -32.979 26.9898 -32.1388V-11.7911C26.9898 -10.9509 26.3086 -10.2698 25.4684 -10.2698H-2.80289C-3.6431 -10.2698 -4.32422 -10.9509 -4.32422 -11.7911V-32.1388Z" fill="white"/>
</g>
</g>
<defs>
<filter id="filter0_dd_6390_24228" x="-9.83903" y="-33.6602" width="42.3441" height="42.6608" filterUnits="userSpaceOnUse" color-interpolation-filters="sRGB">
<feFlood flood-opacity="0" result="BackgroundImageFix"/>
<feColorMatrix in="SourceAlpha" type="matrix" values="0 0 0 0 0 0 0 0 0 0 0 0 0 0 0 0 0 0 127 0" result="hardAlpha"/>
<feOffset dy="7.73341"/>
<feGaussianBlur stdDeviation="2.31369"/>
<feColorMatrix type="matrix" values="0 0 0 0 0.0196078 0 0 0 0 0.00392157 0 0 0 0 0.215686 0 0 0 0.05 0"/>
<feBlend mode="normal" in2="BackgroundImageFix" result="effect1_dropShadow_6390_24228"/>
<feColorMatrix in="SourceAlpha" type="matrix" values="0 0 0 0 0 0 0 0 0 0 0 0 0 0 0 0 0 0 127 0" result="hardAlpha"/>
<feOffset dy="13.7553"/>
<feGaussianBlur stdDeviation="2.75741"/>
<feColorMatrix type="matrix" values="0 0 0 0 0.0196078 0 0 0 0 0.00392157 0 0 0 0 0.215686 0 0 0 0.01 0"/>
<feBlend mode="normal" in2="effect1_dropShadow_6390_24228" result="effect2_dropShadow_6390_24228"/>
<feBlend mode="normal" in="SourceGraphic" in2="effect2_dropShadow_6390_24228" result="shape"/>
</filter>
<radialGradient id="paint0_radial_6390_24228" cx="0" cy="0" r="1" gradientUnits="userSpaceOnUse" gradientTransform="translate(43.6748 11.5367) rotate(128.839) scale(63.4768 63.9281)">
<stop stop-color="#0F62FE"/>
<stop offset="0.501963" stop-color="#0233BD"/>
</radialGradient>
<clipPath id="clip0_6390_24228">
<rect width="53.8803" height="53.5" fill="white" transform="translate(0.0507812)"/>
</clipPath>
</defs>
</svg>
