<svg width="25" height="25" viewBox="0 0 25 25" fill="none" xmlns="http://www.w3.org/2000/svg">
<path d="M7.58084 0.808626C6.30405 0.868826 5.43215 1.07263 4.66985 1.37202C3.88105 1.67952 3.21236 2.09202 2.54706 2.75972C1.88186 3.42742 1.47206 4.09652 1.16686 4.88671C0.871462 5.65051 0.671262 6.52321 0.614863 7.80071C0.558463 9.0782 0.545963 9.4889 0.552263 12.7477C0.558463 16.0063 0.572863 16.4148 0.634763 17.695C0.695762 18.9715 0.898762 19.8432 1.19826 20.6057C1.50626 21.3946 1.91826 22.063 2.58626 22.7285C3.25416 23.394 3.92275 23.8028 4.71475 24.1085C5.47795 24.4035 6.35085 24.6046 7.62814 24.6605C8.90544 24.7165 9.31654 24.7295 12.5743 24.7232C15.8321 24.717 16.2423 24.7025 17.5221 24.6418C18.8021 24.5811 19.6691 24.3766 20.4319 24.0785C21.2208 23.7699 21.8897 23.3585 22.5547 22.6904C23.2197 22.0222 23.6292 21.3526 23.9342 20.562C24.2299 19.7988 24.4308 18.926 24.4862 17.6496C24.5422 16.3687 24.5554 15.9598 24.5492 12.7016C24.5429 9.4433 24.5282 9.0348 24.4675 7.75511C24.4068 6.47541 24.2035 5.60641 23.9042 4.84341C23.5958 4.05452 23.1842 3.38662 22.5166 2.72062C21.8489 2.05462 21.1787 1.64542 20.3885 1.34112C19.6247 1.04563 18.7524 0.844326 17.4751 0.789126C16.1978 0.733926 15.7867 0.719626 12.5277 0.726026C9.26874 0.732226 8.86074 0.746226 7.58084 0.808626ZM7.72104 22.5017C6.55105 22.4508 5.91575 22.2564 5.49235 22.0937C4.93175 21.8777 4.53235 21.6166 4.11045 21.1987C3.68845 20.7809 3.42935 20.3801 3.21046 19.8207C3.04606 19.3973 2.84806 18.7627 2.79336 17.5927C2.73386 16.3282 2.72136 15.9485 2.71436 12.7447C2.70736 9.541 2.71966 9.1617 2.77506 7.89671C2.82506 6.72771 3.02066 6.09171 3.18306 5.66851C3.39905 5.10721 3.65925 4.70851 4.07805 4.28692C4.49685 3.86522 4.89645 3.60552 5.45635 3.38662C5.87935 3.22152 6.51385 3.02522 7.68334 2.96952C8.94884 2.90952 9.32804 2.89752 12.5313 2.89052C15.7346 2.88352 16.1148 2.89552 17.3808 2.95132C18.5498 3.00212 19.1861 3.19582 19.6088 3.35932C20.1696 3.57532 20.5688 3.83472 20.9904 4.25432C21.4121 4.67371 21.672 5.07191 21.8909 5.63301C22.0562 6.05471 22.2526 6.68901 22.3078 7.85931C22.368 9.1248 22.3817 9.5043 22.3874 12.7073C22.3932 15.9103 22.3819 16.2907 22.3264 17.5553C22.2754 18.7253 22.0814 19.3608 21.9184 19.7847C21.7024 20.3451 21.4421 20.7447 21.023 21.1661C20.604 21.5876 20.2049 21.8472 19.6447 22.0661C19.2223 22.231 18.587 22.4278 17.4185 22.4835C16.1529 22.543 15.7737 22.5555 12.5692 22.5625C9.36474 22.5695 8.98654 22.5565 7.72104 22.5017ZM17.5037 6.31101C17.5042 6.59584 17.5891 6.87413 17.7478 7.11068C17.9064 7.34724 18.1317 7.53143 18.395 7.63996C18.6583 7.7485 18.948 7.7765 19.2272 7.72042C19.5065 7.66434 19.7628 7.52671 19.9638 7.32493C20.1649 7.12314 20.3015 6.86628 20.3566 6.58681C20.4116 6.30735 20.3825 6.01785 20.273 5.75491C20.1635 5.49198 19.9784 5.26743 19.7413 5.10967C19.5041 4.95191 19.2255 4.86802 18.9407 4.86861C18.5589 4.86941 18.193 5.0218 17.9236 5.29229C17.6541 5.56277 17.5031 5.9292 17.5037 6.31101ZM6.38925 12.7366C6.39595 16.1398 9.15984 18.8923 12.5622 18.8859C15.9648 18.8794 18.7192 16.1158 18.7128 12.7126C18.7063 9.3094 15.9418 6.55611 12.5388 6.56281C9.13584 6.56951 6.38285 9.3338 6.38925 12.7366ZM8.55074 12.7323C8.54918 11.9412 8.78224 11.1674 9.22047 10.5087C9.65869 9.85005 10.2824 9.33613 11.0127 9.03193C11.743 8.72774 12.5471 8.64693 13.3233 8.79973C14.0995 8.95253 14.813 9.33207 15.3735 9.89037C15.934 10.4487 16.3164 11.1606 16.4723 11.9362C16.6282 12.7118 16.5506 13.5163 16.2493 14.2478C15.948 14.9793 15.4365 15.605 14.7796 16.0458C14.1227 16.4867 13.3498 16.7228 12.5587 16.7244C12.0334 16.7255 11.513 16.6231 11.0273 16.4231C10.5416 16.223 10.1 15.9293 9.72781 15.5586C9.35562 15.1878 9.06011 14.7474 8.85814 14.2625C8.65618 13.7776 8.55172 13.2576 8.55074 12.7323Z" fill="#E4405F"/>
</svg>
