<svg width="25" height="25" viewBox="0 0 25 25" fill="none" xmlns="http://www.w3.org/2000/svg">
<path d="M20.9977 21.1765H17.4437V15.6076C17.4437 14.2796 17.4167 12.5706 15.5917 12.5706C13.7387 12.5706 13.4557 14.0156 13.4557 15.5096V21.1765H9.90175V9.72458H13.3157V11.2856H13.3617C13.8387 10.3856 14.9987 9.43559 16.7317 9.43559C20.3327 9.43559 20.9987 11.8056 20.9987 14.8906L20.9977 21.1765ZM5.88777 8.15759C4.74377 8.15759 3.82477 7.23159 3.82477 6.09259C3.82477 4.9546 4.74477 4.0296 5.88777 4.0296C7.02776 4.0296 7.95176 4.9546 7.95176 6.09259C7.95176 7.23159 7.02676 8.15759 5.88777 8.15759ZM7.66976 21.1765H4.10577V9.72458H7.66976V21.1765ZM22.7757 0.724609H2.32178C1.34278 0.724609 0.550781 1.49861 0.550781 2.4536V22.9955C0.550781 23.9515 1.34278 24.7245 2.32178 24.7245H22.7727C23.7507 24.7245 24.5507 23.9515 24.5507 22.9955V2.4536C24.5507 1.49861 23.7507 0.724609 22.7727 0.724609H22.7757Z" fill="#ADADAD"/>
</svg>
