<svg width="19" height="14" viewBox="0 0 19 14" fill="none" xmlns="http://www.w3.org/2000/svg">
<path d="M18.9635 7.20591C18.2537 9.04182 17.0216 10.6295 15.4193 11.7728C13.817 12.916 11.9149 13.5647 9.94795 13.6387C7.98102 13.5647 6.07888 12.916 4.47661 11.7728C2.87434 10.6295 1.64219 9.04182 0.932435 7.20591C0.884501 7.07333 0.884501 6.92815 0.932435 6.79557C1.64219 4.95967 2.87434 3.37197 4.47661 2.22872C6.07888 1.08547 7.98102 0.436776 9.94795 0.36281C11.9149 0.436776 13.817 1.08547 15.4193 2.22872C17.0216 3.37197 18.2537 4.95967 18.9635 6.79557C19.0114 6.92815 19.0114 7.07333 18.9635 7.20591ZM9.94795 1.56971C6.74968 1.56971 3.37037 3.94126 2.14537 7.00074C3.37037 10.0602 6.74968 12.4318 9.94795 12.4318C13.1462 12.4318 16.5255 10.0602 17.7505 7.00074C16.5255 3.94126 13.1462 1.56971 9.94795 1.56971Z" fill="white"/>
<path d="M9.94686 10.6211C9.23076 10.6211 8.53073 10.4087 7.93532 10.0109C7.3399 9.61305 6.87582 9.04758 6.60178 8.38598C6.32774 7.72439 6.25604 6.99639 6.39574 6.29404C6.53545 5.5917 6.88029 4.94655 7.38665 4.44019C7.89301 3.93383 8.53816 3.58899 9.2405 3.44928C9.94285 3.30958 10.6708 3.38128 11.3324 3.65532C11.994 3.92936 12.5595 4.39344 12.9574 4.98886C13.3552 5.58428 13.5676 6.2843 13.5676 7.0004C13.5676 7.96067 13.1861 8.88161 12.5071 9.56062C11.8281 10.2396 10.9071 10.6211 9.94686 10.6211ZM9.94686 4.58661C9.46946 4.58661 9.00278 4.72818 8.60583 4.99341C8.20889 5.25864 7.8995 5.63562 7.71681 6.07669C7.53411 6.51775 7.48631 7.00308 7.57945 7.47131C7.67259 7.93954 7.90248 8.36964 8.24005 8.70721C8.57763 9.04479 9.00773 9.27468 9.47596 9.36782C9.94419 9.46095 10.4295 9.41315 10.8706 9.23046C11.3116 9.04776 11.6886 8.73838 11.9539 8.34144C12.2191 7.94449 12.3607 7.47781 12.3607 7.0004C12.3607 6.36023 12.1063 5.74627 11.6537 5.2936C11.201 4.84092 10.587 4.58661 9.94686 4.58661Z" fill="white"/>
</svg>
