<svg width="28" height="22" viewBox="0 0 28 22" fill="none" xmlns="http://www.w3.org/2000/svg">
<path d="M28 22V16.2105C28 14.4522 27.6966 12.5867 27.0897 10.614C26.4619 8.61988 25.562 6.70078 24.3901 4.85673C23.1973 2.99123 21.7638 1.37232 20.0897 0L16.0717 3.34503C17.3901 5.27485 18.5411 7.29045 19.5247 9.39181C20.4873 11.4717 20.9686 13.7018 20.9686 16.0819V22H28ZM11.9283 22V16.2105C11.9283 14.4522 11.6248 12.5867 11.0179 10.614C10.3901 8.61988 9.49029 6.70078 8.31839 4.85673C7.12556 2.99123 5.69208 1.37232 4.01794 0L0 3.34503C1.31839 5.27485 2.46936 7.29045 3.45292 9.39181C4.41555 11.4717 4.89686 13.7018 4.89686 16.0819V22H11.9283Z" fill="#CE02CE"/>
</svg>
