<svg width="26" height="26" viewBox="0 0 26 26" fill="none" xmlns="http://www.w3.org/2000/svg">
<path d="M25.2092 12.4093C25.1963 11.9318 25.1499 11.4596 25.0776 10.9976L22.5821 10.5899L21.7356 8.26207L23.3976 6.38332C22.8943 5.55749 22.293 4.79618 21.6143 4.10972L19.351 5.22974L17.2787 3.84132L17.5032 1.35352C16.6439 0.994804 15.7329 0.72641 14.7883 0.566406L13.6141 2.78065L11.1057 2.83743L9.81789 0.685119C8.85271 0.901898 7.9314 1.22449 7.06686 1.64256L7.4359 4.1123L5.44101 5.61427L3.11838 4.62586C2.48094 5.34587 1.92351 6.13815 1.46673 6.99237L3.23451 8.77305L2.52224 11.1421L0.0524992 11.6893C0.00862714 12.1796 -0.0120186 12.6802 0.00604636 13.1886C0.0241113 13.6532 0.0654027 14.11 0.12992 14.559L2.62546 14.9745L3.46419 17.3049L1.78931 19.1836C2.29513 20.012 2.89386 20.7811 3.57258 21.4676L5.84102 20.3553L7.91075 21.7514L7.67591 24.2392C8.56367 24.6083 9.50047 24.887 10.4734 25.0522L11.6425 22.8353L14.1509 22.7682L15.4438 24.918C16.4064 24.696 17.3277 24.3708 18.1923 23.9502L17.8155 21.483L19.8026 19.9707L22.1279 20.954C22.7653 20.2288 23.3201 19.4365 23.7744 18.5823L21.9962 16.8068L22.7008 14.43L25.1731 13.8777C25.2092 13.3899 25.2273 12.9022 25.2092 12.4093ZM16.3342 16.9849C13.9935 19.0107 10.4218 18.7965 8.35721 16.4765C6.30297 14.159 6.53007 10.6466 8.87852 8.62079C11.2166 6.58461 14.7883 6.81172 16.8477 9.12145C18.92 11.4363 18.6826 14.959 16.3342 16.9849Z" fill="white"/>
</svg>
