<svg width="80" height="80" viewBox="0 0 80 80" fill="none" xmlns="http://www.w3.org/2000/svg">
<path opacity="0.2" d="M65 27.5H47.5V10L65 27.5Z" fill="#0233BD"/>
<path d="M66.7688 25.7313L49.2688 8.23125C49.0364 7.99916 48.7606 7.81513 48.4571 7.68966C48.1536 7.56419 47.8284 7.49974 47.5 7.5H17.5C16.1739 7.5 14.9021 8.02678 13.9645 8.96447C13.0268 9.90215 12.5 11.1739 12.5 12.5V67.5C12.5 68.8261 13.0268 70.0979 13.9645 71.0355C14.9021 71.9732 16.1739 72.5 17.5 72.5H62.5C63.8261 72.5 65.0979 71.9732 66.0355 71.0355C66.9732 70.0979 67.5 68.8261 67.5 67.5V27.5C67.5003 27.1716 67.4358 26.8464 67.3103 26.5429C67.1849 26.2394 67.0008 25.9636 66.7688 25.7313ZM50 16.0344L58.9656 25H50V16.0344ZM62.5 67.5H17.5V12.5H45V27.5C45 28.163 45.2634 28.7989 45.7322 29.2678C46.2011 29.7366 46.837 30 47.5 30H62.5V67.5ZM49.2688 43.2312C49.501 43.4635 49.6853 43.7393 49.811 44.0428C49.9367 44.3462 50.0014 44.6715 50.0014 45C50.0014 45.3285 49.9367 45.6538 49.811 45.9572C49.6853 46.2607 49.501 46.5365 49.2688 46.7688C49.0365 47.001 48.7607 47.1853 48.4572 47.311C48.1538 47.4367 47.8285 47.5014 47.5 47.5014C47.1715 47.5014 46.8462 47.4367 46.5428 47.311C46.2393 47.1853 45.9635 47.001 45.7312 46.7688L42.5 43.5344V57.5C42.5 58.163 42.2366 58.7989 41.7678 59.2678C41.2989 59.7366 40.663 60 40 60C39.337 60 38.7011 59.7366 38.2322 59.2678C37.7634 58.7989 37.5 58.163 37.5 57.5V43.5344L34.2688 46.7688C34.0365 47.001 33.7607 47.1853 33.4572 47.311C33.1538 47.4367 32.8285 47.5014 32.5 47.5014C32.1715 47.5014 31.8462 47.4367 31.5428 47.311C31.2393 47.1853 30.9635 47.001 30.7312 46.7688C30.499 46.5365 30.3147 46.2607 30.189 45.9572C30.0633 45.6538 29.9986 45.3285 29.9986 45C29.9986 44.6715 30.0633 44.3462 30.189 44.0428C30.3147 43.7393 30.499 43.4635 30.7312 43.2312L38.2312 35.7312C38.4634 35.4988 38.7392 35.3144 39.0426 35.1886C39.3461 35.0628 39.6715 34.998 40 34.998C40.3285 34.998 40.6539 35.0628 40.9574 35.1886C41.2608 35.3144 41.5366 35.4988 41.7688 35.7312L49.2688 43.2312Z" fill="#0233BD"/>
</svg>
