<svg width="20" height="20" viewBox="0 0 20 20" fill="none" xmlns="http://www.w3.org/2000/svg">
<circle cx="10.1602" cy="9.43977" r="9.17119" transform="rotate(1.6909 10.1602 9.43977)" fill="#0233BD"/>
<path d="M11.3852 5.35419C11.4728 5.03967 11.9232 5.05297 11.9921 5.3721L12.6384 8.36772C12.6629 8.48123 12.7483 8.57182 12.8602 8.60297L15.8125 9.42493C16.127 9.51249 16.1137 9.96289 15.7945 10.0317L12.7989 10.6781C12.6854 10.7026 12.5948 10.788 12.5637 10.8999L11.7417 13.8522C11.6542 14.1667 11.2038 14.1534 11.1349 13.8342L10.4885 10.8386C10.464 10.7251 10.3786 10.6345 10.2668 10.6034L7.31449 9.78141C6.99998 9.69385 7.01328 9.24345 7.33241 9.17459L10.328 8.52822C10.4415 8.50372 10.5321 8.41833 10.5633 8.30646L11.3852 5.35419Z" fill="white"/>
<path d="M5.91584 5.19179C6.00341 4.87727 6.4538 4.89057 6.52266 5.2097L6.70599 6.05932C6.73048 6.17284 6.81588 6.26343 6.92775 6.29458L7.76508 6.5277C8.0796 6.61527 8.0663 7.06566 7.74717 7.13452L6.89754 7.31785C6.78403 7.34234 6.69344 7.42774 6.66229 7.53961L6.42916 8.37694C6.3416 8.69146 5.8912 8.67816 5.82234 8.35903L5.63902 7.50941C5.61452 7.39589 5.52913 7.3053 5.41726 7.27415L4.57992 7.04103C4.26541 6.95346 4.27871 6.50307 4.59784 6.43421L5.44746 6.25088C5.56098 6.22639 5.65157 6.14099 5.68272 6.02912L5.91584 5.19179Z" fill="white"/>
<path d="M5.74983 10.8148C5.83739 10.5003 6.28779 10.5136 6.35665 10.8327L6.53997 11.6824C6.56447 11.7959 6.64986 11.8865 6.76174 11.9176L7.59907 12.1508C7.91358 12.2383 7.90028 12.6887 7.58115 12.7576L6.73153 12.9409C6.61801 12.9654 6.52742 13.0508 6.49627 13.1627L6.26315 14C6.17558 14.3145 5.72519 14.3012 5.65633 13.9821L5.473 13.1325C5.44851 13.0189 5.36311 12.9283 5.25124 12.8972L4.41391 12.6641C4.0994 12.5765 4.11269 12.1261 4.43182 12.0573L5.28145 11.8739C5.39496 11.8494 5.48555 11.764 5.5167 11.6522L5.74983 10.8148Z" fill="white"/>
</svg>
