<svg width="24" height="24" viewBox="0 0 24 24" fill="none" xmlns="http://www.w3.org/2000/svg">
<g clip-path="url(#clip0_6689_21993)">
<path d="M16.5 18H7.5C7.1023 17.9996 6.72101 17.8414 6.4398 17.5602C6.15859 17.279 6.00042 16.8977 6 16.5V7.5C6.00042 7.1023 6.15859 6.72101 6.4398 6.4398C6.72101 6.15859 7.1023 6.00042 7.5 6H16.5C16.8977 6.00042 17.279 6.15859 17.5602 6.4398C17.8414 6.72101 17.9996 7.1023 18 7.5V16.5C17.9996 16.8977 17.8414 17.279 17.5602 17.5602C17.279 17.8414 16.8977 17.9996 16.5 18ZM7.5 7.5V16.5H16.5V7.5H7.5Z" fill="#0233BD"/>
<path d="M6 22.5H3C2.6023 22.4996 2.22101 22.3414 1.9398 22.0602C1.65859 21.779 1.50042 21.3977 1.5 21V3C1.50042 2.6023 1.65859 2.22101 1.9398 1.9398C2.22101 1.65859 2.6023 1.50042 3 1.5H6V3H3V21H6V22.5Z" fill="#0233BD"/>
<path d="M21 22.5H18V21H21V3H18V1.5H21C21.3977 1.50042 21.779 1.65859 22.0602 1.9398C22.3414 2.22101 22.4996 2.6023 22.5 3V21C22.4996 21.3977 22.3414 21.779 22.0602 22.0602C21.779 22.3414 21.3977 22.4996 21 22.5Z" fill="#0233BD"/>
</g>
<defs>
<clipPath id="clip0_6689_21993">
<rect width="24" height="24" fill="white"/>
</clipPath>
</defs>
</svg>
