<svg width="33" height="24" viewBox="0 0 33 24" fill="none" xmlns="http://www.w3.org/2000/svg">
<path d="M26.153 12.5745C29.5145 12.5745 32.2395 9.84943 32.2395 6.48791C32.2395 3.1264 29.5145 0.401367 26.153 0.401367C22.7915 0.401367 20.0664 3.1264 20.0664 6.48791C20.0664 9.84943 22.7915 12.5745 26.153 12.5745Z" fill="#0542CC"/>
<path d="M32.3048 14.9824V23.8112H18.9277V20.6008C18.9277 17.5241 21.4025 14.9824 24.5461 14.9824H32.3048Z" fill="#0542CC"/>
<path d="M16.7213 0.401367V23.8112H11.7049C8.49443 23.8112 5.55148 22.4735 3.41115 20.4001C1.27082 18.2598 0 15.3168 0 12.1063C0 5.61842 5.21705 0.401367 11.7049 0.401367H16.7213Z" fill="#0542CC"/>
</svg>
