<svg width="28" height="21" viewBox="0 0 28 21" fill="none" xmlns="http://www.w3.org/2000/svg">
<path d="M22.3809 11.2833C25.2534 11.2833 27.5821 8.95456 27.5821 6.08203C27.5821 3.20949 25.2534 0.880859 22.3809 0.880859C19.5083 0.880859 17.1797 3.20949 17.1797 6.08203C17.1797 8.95456 19.5083 11.2833 22.3809 11.2833Z" fill="blue"/>
<path d="M27.6392 13.3398V20.8844H16.208V18.141C16.208 15.5118 18.3228 13.3398 21.0091 13.3398H27.6392Z" fill="blue"/>
<path d="M14.3222 0.880859V20.8854H10.0355C7.292 20.8854 4.77714 19.7423 2.94816 17.9705C1.11917 16.1415 0.0332031 13.6266 0.0332031 10.8831C0.0332031 5.33902 4.49136 0.880859 10.0355 0.880859H14.3222Z" fill="blue"/>
</svg>
