<svg width="182" height="30" viewBox="0 0 182 30" fill="none" xmlns="http://www.w3.org/2000/svg">
<path d="M15 0L18.3677 10.3647H29.2658L20.4491 16.7705L23.8168 27.1353L15 20.7295L6.18322 27.1353L9.55093 16.7705L0.734152 10.3647H11.6323L15 0Z" fill="#FFC107"/>
<path d="M53 0L56.3677 10.3647H67.2658L58.4491 16.7705L61.8168 27.1353L53 20.7295L44.1832 27.1353L47.5509 16.7705L38.7342 10.3647H49.6323L53 0Z" fill="#FFC107"/>
<path d="M91 0L94.3677 10.3647H105.266L96.4491 16.7705L99.8168 27.1353L91 20.7295L82.1832 27.1353L85.5509 16.7705L76.7342 10.3647H87.6323L91 0Z" fill="#FFC107"/>
<path d="M129 0L132.368 10.3647H143.266L134.449 16.7705L137.817 27.1353L129 20.7295L120.183 27.1353L123.551 16.7705L114.734 10.3647H125.632L129 0Z" fill="#FFC107"/>
<path d="M167 0L170.368 10.3647H181.266L172.449 16.7705L175.817 27.1353L167 20.7295L158.183 27.1353L161.551 16.7705L152.734 10.3647H163.632L167 0Z" fill="url(#paint0_linear_425_7501)"/>
<defs>
<linearGradient id="paint0_linear_425_7501" x1="156" y1="19.5" x2="180" y2="20.5" gradientUnits="userSpaceOnUse">
<stop offset="0.596621" stop-color="#FFC107"/>
<stop offset="1" stop-color="white" stop-opacity="0"/>
</linearGradient>
</defs>
</svg>
