<svg width="26" height="26" viewBox="0 0 26 26" fill="none" xmlns="http://www.w3.org/2000/svg">
<rect x="1" y="0.630737" width="24" height="24.7385" rx="12" fill="white"/>
<rect x="1" y="0.630737" width="24" height="24.7385" rx="12" stroke="#EAEAEA" stroke-width="0.52635"/>
<path d="M19.4979 16.3003H19.7057L19.6813 16.094C19.6209 15.5847 19.3838 15.1232 18.9739 14.7906C18.5647 14.4585 17.9961 14.2647 17.2876 14.2647C15.7814 14.2647 14.6792 15.4281 14.6792 16.9558C14.6792 18.4914 15.7962 19.6606 17.3151 19.6606C18.0049 19.6606 18.5714 19.4935 18.9882 19.1731C19.4074 18.8508 19.6577 18.3865 19.7359 17.8283L19.7653 17.6181H19.553H18.7612H18.6205L18.5832 17.7537C18.525 17.9649 18.4221 18.1574 18.2368 18.299C18.0511 18.441 17.7619 18.5477 17.3014 18.5477C16.4549 18.5477 15.8196 17.9094 15.8196 16.9627C15.8196 16.008 16.4559 15.3707 17.2945 15.3707C17.7394 15.3707 18.0175 15.4783 18.1964 15.62C18.3759 15.7623 18.4765 15.9554 18.5352 16.1654L18.5729 16.3003H18.713H19.4979Z" fill="#9747FF" stroke="#9747FF" stroke-width="0.369231"/>
<path d="M9.94507 19.3017L9.85279 19.5505H10.1182H10.9514H11.0816L11.1253 19.4279L11.6875 17.8497H13.0905L13.7058 19.4328L13.7515 19.5505H13.8778H14.7041H14.9738L14.8763 19.2991L13.0033 14.4722L12.9576 14.3543H12.8312H11.9085H11.7801L11.7354 14.4747L9.94507 19.3017ZM11.9321 16.8745L12.3706 15.8367L12.8189 16.8745H11.9321Z" fill="#9747FF" stroke="#9747FF" stroke-width="0.369231"/>
<path d="M8.64565 19.5571H8.83026V19.3725V15.4531H9.9815H10.1661V15.2685V14.5524V14.3678H9.9815H6.53857H6.35396V14.5524V15.2685V15.4531H6.53857H7.68982V19.3725V19.5571H7.87443H8.64565Z" fill="#9747FF" stroke="#9747FF" stroke-width="0.369231"/>
<path d="M19.7394 9.60292H19.9472L19.9228 9.39658C19.8467 8.75465 19.5481 8.1743 19.0326 7.75591C18.5178 7.33808 17.7993 7.09175 16.8983 7.09175C14.9931 7.09175 13.5981 8.5617 13.5981 10.4981C13.5981 12.4445 15.0119 13.9222 16.9337 13.9222C17.8121 13.9222 18.528 13.7094 19.0521 13.3064C19.5786 12.9016 19.8943 12.3179 19.9931 11.6124L20.0225 11.4022H19.8102H18.7924H18.6517L18.6144 11.5378C18.5376 11.8168 18.4003 12.0755 18.1503 12.2666C17.9 12.4579 17.516 12.5971 16.916 12.5971C15.7964 12.5971 14.9586 11.7505 14.9586 10.507C14.9586 9.25362 15.7973 8.40804 16.9071 8.40804C17.4877 8.40804 17.8576 8.54854 18.0991 8.73988C18.3413 8.93172 18.4753 9.19114 18.5526 9.46799L18.5903 9.60292H18.7304H19.7394Z" fill="#9747FF" stroke="#9747FF" stroke-width="0.369231"/>
<path d="M11.8378 13.6048V13.7894H12.0225H13.0226H13.2072V13.6048V7.40906V7.22444H13.0226H12.0225H11.8378V7.40906V13.6048Z" fill="#9747FF" stroke="#9747FF" stroke-width="0.369231"/>
<path d="M9.24698 13.7894H9.4316V13.6048V8.51418H10.9641H11.1487V8.32956V7.40906V7.22444H10.9641H6.53857H6.35396V7.40906V8.32956V8.51418H6.53857H8.07105V13.6048V13.7894H8.25567H9.24698Z" fill="#9747FF" stroke="#9747FF" stroke-width="0.369231"/>
</svg>
