<svg width="94" height="96" viewBox="0 0 94 96" fill="none" xmlns="http://www.w3.org/2000/svg">
<rect width="93.1343" height="96" rx="46.5672" fill="white"/>
<path d="M71.7842 60.8119H72.5905L72.4956 60.0111C72.2614 58.0348 71.3411 56.2441 69.7506 54.9532C68.1627 53.6644 65.956 52.9125 63.2067 52.9125C57.3617 52.9125 53.0844 57.4271 53.0844 63.3554C53.0844 69.3147 57.4192 73.8518 63.3135 73.8518C65.9904 73.8518 68.1887 73.2032 69.8059 71.9598C71.4326 70.7091 72.4042 68.9074 72.7074 66.7415L72.8216 65.9257H71.9979H68.925H68.3792L68.2343 66.452C68.0086 67.2715 67.6094 68.0183 66.89 68.568C66.1694 69.1188 65.0473 69.5331 63.2601 69.5331C59.9754 69.5331 57.51 67.0562 57.51 63.3822C57.51 59.6775 59.9791 57.2045 63.2334 57.2045C64.9601 57.2045 66.039 57.622 66.7332 58.1719C67.4299 58.7238 67.8202 59.4732 68.048 60.2882L68.1943 60.8119H68.7379H71.7842Z" fill="#9747FF" stroke="#9747FF" stroke-width="1.43284"/>
<path d="M34.7111 72.459L34.353 73.4246H35.3828H38.6161H39.1214L39.2909 72.9486L41.4728 66.8244H46.9172L49.3049 72.9677L49.4824 73.4246H49.9726H53.1792H54.2256L53.8471 72.449L46.5789 53.7174L46.4015 53.2601H45.911H42.3303H41.8319L41.6586 53.7274L34.7111 72.459ZM42.4221 63.0401L44.1238 59.0128L45.8633 63.0401H42.4221Z" fill="#9747FF" stroke="#9747FF" stroke-width="1.43284"/>
<path d="M29.6689 73.4525H30.3853V72.7361V57.5267H34.8528H35.5692V56.8103V54.0312V53.3148H34.8528H21.4922H20.7758V54.0312V56.8103V57.5267H21.4922H25.9597V72.7361V73.4525H26.6761H29.6689Z" fill="#9747FF" stroke="#9747FF" stroke-width="1.43284"/>
<path d="M72.7172 34.8214H73.5235L73.4286 34.0207C73.1334 31.5296 71.9748 29.2775 69.9744 27.6539C67.9766 26.0324 65.1884 25.0766 61.6918 25.0766C54.2987 25.0766 48.8851 30.7808 48.8851 38.2953C48.8851 45.8484 54.3715 51.5828 61.8292 51.5828C65.238 51.5828 68.016 50.7569 70.0498 49.1932C72.093 47.6222 73.3182 45.3572 73.7015 42.6194L73.8157 41.8036H72.992H69.0421H68.4962L68.3513 42.3298C68.0532 43.4125 67.5205 44.4166 66.5505 45.158C65.5792 45.9003 64.0891 46.4405 61.7605 46.4405C57.4158 46.4405 54.1649 43.1552 54.1649 38.3297C54.1649 33.4659 57.4195 30.1845 61.7261 30.1845C63.979 30.1845 65.4144 30.7298 66.3518 31.4723C67.2915 32.2167 67.8114 33.2234 68.1116 34.2978L68.2579 34.8214H68.8016H72.7172Z" fill="#9747FF" stroke="#9747FF" stroke-width="1.43284"/>
<path d="M42.057 50.3516V51.068H42.7734H46.6547H47.3711V50.3516V26.3086V25.5922H46.6547H42.7734H42.057V26.3086V50.3516Z" fill="#9747FF" stroke="#9747FF" stroke-width="1.43284"/>
<path d="M32.0024 51.068H32.7188V50.3516V30.5971H38.6658H39.3822V29.8807V26.3086V25.5922H38.6658H21.4922H20.7758V26.3086V29.8807V30.5971H21.4922H27.4391V50.3516V51.068H28.1555H32.0024Z" fill="#9747FF" stroke="#9747FF" stroke-width="1.43284"/>
</svg>
