<svg
  width="1444"
  height="1628"
  viewBox="0 0 1444 1628"
  fill="none"
  xmlns="http://www.w3.org/2000/svg"
>
  <style type="text/css">
  #dash { 
    stroke-dasharray: 1000;
    stroke-dashoffset: 1000;
    animation: dash 5s linear alternate infinite;
  }

          
  @keyframes dash {
    from {
      stroke-dashoffset: 900;
    }
    to {
      stroke-dashoffset: 0;
    }
  }
  </style>
  <path
    id="dash"
    d="M1368.6 84.9V-16H1365.6V84.9H1276.7V-16H1273.7V84.9H1184.8V-16H1181.8V84.9H1092.9V-16H1089.9V84.9H1001V-16H998V84.9H909.1V-16H906.1V84.9H817.2V-16H814.2V84.9H725.3V-16H722.3V84.9H633.4V-16H630.4V84.9H541.5V-16H538.5V84.9H449.6V-16H446.6V84.9H357.7V-16H354.7V84.9H265.8V-16H262.8V84.9H173.9V-16H170.9V84.9H81.9V-16H78.9V84.9H-10V87.9H78.9V188.8H-10V191.8H78.9V292.7H-10V295.7H78.9V396.6H-10V399.6H78.9V500.5H-10V503.5H78.9V604.4H-10V607.4H78.9V708.3H-10V711.3H78.9V812.2H-10V815.2H78.9V916.1H-10V919.1H78.9V1020H-10V1023H78.9V1124H-10V1127H78.9V1227.9H-10V1230.9H78.9V1331.8H-10V1334.8H78.9V1435.7H-10V1438.7H78.9V1539.6H-10V1542.6H78.9V1643.5H81.9V1542.6H170.8V1643.5H173.8V1542.6H262.7V1643.5H265.7V1542.6H354.6V1643.5H357.6V1542.6H446.5V1643.5H449.5V1542.6H538.4V1643.5H541.4V1542.6H630.3V1643.5H633.3V1542.6H722.2V1643.5H725.2V1542.6H814.1V1643.5H817.1V1542.6H906V1643.5H909V1542.6H997.9V1643.5H1000.9V1542.6H1089.8V1643.5H1092.8V1542.6H1181.7V1643.5H1184.7V1542.6H1273.6V1643.5H1276.6V1542.6H1365.5V1643.5H1368.5V1542.6H1457.4V1539.6H1368.5V1438.7H1457.4V1435.7H1368.5V1334.8H1457.4V1331.8H1368.5V1230.9H1457.4V1227.9H1368.5V1127H1457.4V1124H1368.5V1023.1H1457.4V1020.1H1368.5V919.2H1457.4V916.2H1368.5V815.3H1457.4V812.3H1368.5V711.4H1457.4V708.4H1368.5V607.5H1457.4V604.5H1368.5V503.5H1457.4V500.5H1368.5V399.6H1457.4V396.6H1368.5V295.7H1457.4V292.7H1368.5V191.8H1457.4V188.8H1368.5V87.9H1457.4V84.9H1368.6ZM170.8 1539.6H81.9V1438.7H170.8V1539.6ZM170.8 1435.7H81.9V1334.8H170.8V1435.7ZM170.8 1331.8H81.9V1230.9H170.8V1331.8ZM170.8 1227.9H81.9V1127H170.8V1227.9ZM170.8 1124H81.9V1023.1H170.8V1124ZM170.8 1020.1H81.9V919.2H170.8V1020.1ZM170.8 916.2H81.9V815.3H170.8V916.2ZM170.8 812.3H81.9V711.4H170.8V812.3ZM170.8 708.4H81.9V607.5H170.8V708.4ZM170.8 604.5H81.9V503.5H170.8V604.5ZM170.8 500.5H81.9V399.6H170.8V500.5ZM170.8 396.6H81.9V295.7H170.8V396.6ZM170.8 292.7H81.9V191.8H170.8V292.7ZM170.8 188.8H81.9V87.9H170.8V188.8ZM262.7 1539.6H173.8V1438.7H262.7V1539.6ZM262.7 1435.7H173.8V1334.8H262.7V1435.7ZM262.7 1331.8H173.8V1230.9H262.7V1331.8ZM262.7 1227.9H173.8V1127H262.7V1227.9ZM262.7 1124H173.8V1023.1H262.7V1124ZM262.7 1020.1H173.8V919.2H262.7V1020.1ZM262.7 916.2H173.8V815.3H262.7V916.2ZM262.7 812.3H173.8V711.4H262.7V812.3ZM262.7 708.4H173.8V607.5H262.7V708.4ZM262.7 604.5H173.8V503.5H262.7V604.5ZM262.7 500.5H173.8V399.6H262.7V500.5ZM262.7 396.6H173.8V295.7H262.7V396.6ZM262.7 292.7H173.8V191.8H262.7V292.7ZM262.7 188.8H173.8V87.9H262.7V188.8ZM354.6 1539.6H265.7V1438.7H354.6V1539.6ZM354.6 1435.7H265.7V1334.8H354.6V1435.7ZM354.6 1331.8H265.7V1230.9H354.6V1331.8ZM354.6 1227.9H265.7V1127H354.6V1227.9ZM354.6 1124H265.7V1023.1H354.6V1124ZM354.6 1020.1H265.7V919.2H354.6V1020.1ZM354.6 916.2H265.7V815.3H354.6V916.2ZM354.6 812.3H265.7V711.4H354.6V812.3ZM354.6 708.4H265.7V607.5H354.6V708.4ZM354.6 604.5H265.7V503.5H354.6V604.5ZM354.6 500.5H265.7V399.6H354.6V500.5ZM354.6 396.6H265.7V295.7H354.6V396.6ZM354.6 292.7H265.7V191.8H354.6V292.7ZM354.6 188.8H265.7V87.9H354.6V188.8ZM446.5 1539.6H357.6V1438.7H446.5V1539.6ZM446.5 1435.7H357.6V1334.8H446.5V1435.7ZM446.5 1331.8H357.6V1230.9H446.5V1331.8ZM446.5 1227.9H357.6V1127H446.5V1227.9ZM446.5 1124H357.6V1023.1H446.5V1124ZM446.5 1020.1H357.6V919.2H446.5V1020.1ZM446.5 916.2H357.6V815.3H446.5V916.2ZM446.5 812.3H357.6V711.4H446.5V812.3ZM446.5 708.4H357.6V607.5H446.5V708.4ZM446.5 604.5H357.6V503.5H446.5V604.5ZM446.5 500.5H357.6V399.6H446.5V500.5ZM446.5 396.6H357.6V295.7H446.5V396.6ZM446.5 292.7H357.6V191.8H446.5V292.7ZM446.5 188.8H357.6V87.9H446.5V188.8ZM538.5 1539.6H449.6V1438.7H538.5V1539.6ZM538.5 1435.7H449.6V1334.8H538.5V1435.7ZM538.5 1331.8H449.6V1230.9H538.5V1331.8ZM538.5 1227.9H449.6V1127H538.5V1227.9ZM538.5 1124H449.6V1023.1H538.5V1124ZM538.5 1020.1H449.6V919.2H538.5V1020.1ZM538.5 916.2H449.6V815.3H538.5V916.2ZM538.5 812.3H449.6V711.4H538.5V812.3ZM538.5 708.4H449.6V607.5H538.5V708.4ZM538.5 604.5H449.6V503.5H538.5V604.5ZM538.5 500.5H449.6V399.6H538.5V500.5ZM538.5 396.6H449.6V295.7H538.5V396.6ZM538.5 292.7H449.6V191.8H538.5V292.7ZM538.5 188.8H449.6V87.9H538.5V188.8ZM630.4 1539.6H541.5V1438.7H630.4V1539.6ZM630.4 1435.7H541.5V1334.8H630.4V1435.7ZM630.4 1331.8H541.5V1230.9H630.4V1331.8ZM630.4 1227.9H541.5V1127H630.4V1227.9ZM630.4 1124H541.5V1023.1H630.4V1124ZM630.4 1020.1H541.5V919.2H630.4V1020.1ZM630.4 916.2H541.5V815.3H630.4V916.2ZM630.4 812.3H541.5V711.4H630.4V812.3ZM630.4 708.4H541.5V607.5H630.4V708.4ZM630.4 604.5H541.5V503.5H630.4V604.5ZM630.4 500.5H541.5V399.6H630.4V500.5ZM630.4 396.6H541.5V295.7H630.4V396.6ZM630.4 292.7H541.5V191.8H630.4V292.7ZM630.4 188.8H541.5V87.9H630.4V188.8ZM722.3 1539.6H633.4V1438.7H722.3V1539.6ZM722.3 1435.7H633.4V1334.8H722.3V1435.7ZM722.3 1331.8H633.4V1230.9H722.3V1331.8ZM722.3 1227.9H633.4V1127H722.3V1227.9ZM722.3 1124H633.4V1023.1H722.3V1124ZM722.3 1020.1H633.4V919.2H722.3V1020.1ZM722.3 916.2H633.4V815.3H722.3V916.2ZM722.3 812.3H633.4V711.4H722.3V812.3ZM722.3 708.4H633.4V607.5H722.3V708.4ZM722.3 604.5H633.4V503.5H722.3V604.5ZM722.3 500.5H633.4V399.6H722.3V500.5ZM722.3 396.6H633.4V295.7H722.3V396.6ZM722.3 292.7H633.4V191.8H722.3V292.7ZM722.3 188.8H633.4V87.9H722.3V188.8ZM814.2 1539.6H725.3V1438.7H814.2V1539.6ZM814.2 1435.7H725.3V1334.8H814.2V1435.7ZM814.2 1331.8H725.3V1230.9H814.2V1331.8ZM814.2 1227.9H725.3V1127H814.2V1227.9ZM814.2 1124H725.3V1023.1H814.2V1124ZM814.2 1020.1H725.3V919.2H814.2V1020.1ZM814.2 916.2H725.3V815.3H814.2V916.2ZM814.2 812.3H725.3V711.4H814.2V812.3ZM814.2 708.4H725.3V607.5H814.2V708.4ZM814.2 604.5H725.3V503.5H814.2V604.5ZM814.2 500.5H725.3V399.6H814.2V500.5ZM814.2 396.6H725.3V295.7H814.2V396.6ZM814.2 292.7H725.3V191.8H814.2V292.7ZM814.2 188.8H725.3V87.9H814.2V188.8ZM906.1 1539.6H817.2V1438.7H906.1V1539.6ZM906.1 1435.7H817.2V1334.8H906.1V1435.7ZM906.1 1331.8H817.2V1230.9H906.1V1331.8ZM906.1 1227.9H817.2V1127H906.1V1227.9ZM906.1 1124H817.2V1023.1H906.1V1124ZM906.1 1020.1H817.2V919.2H906.1V1020.1ZM906.1 916.2H817.2V815.3H906.1V916.2ZM906.1 812.3H817.2V711.4H906.1V812.3ZM906.1 708.4H817.2V607.5H906.1V708.4ZM906.1 604.5H817.2V503.5H906.1V604.5ZM906.1 500.5H817.2V399.6H906.1V500.5ZM906.1 396.6H817.2V295.7H906.1V396.6ZM906.1 292.7H817.2V191.8H906.1V292.7ZM906.1 188.8H817.2V87.9H906.1V188.8ZM998 1539.6H909.1V1438.7H998V1539.6ZM998 1435.7H909.1V1334.8H998V1435.7ZM998 1331.8H909.1V1230.9H998V1331.8ZM998 1227.9H909.1V1127H998V1227.9ZM998 1124H909.1V1023.1H998V1124ZM998 1020.1H909.1V919.2H998V1020.1ZM998 916.2H909.1V815.3H998V916.2ZM998 812.3H909.1V711.4H998V812.3ZM998 708.4H909.1V607.5H998V708.4ZM998 604.5H909.1V503.5H998V604.5ZM998 500.5H909.1V399.6H998V500.5ZM998 396.6H909.1V295.7H998V396.6ZM998 292.7H909.1V191.8H998V292.7ZM998 188.8H909.1V87.9H998V188.8ZM1089.9 1539.6H1001V1438.7H1089.9V1539.6ZM1089.9 1435.7H1001V1334.8H1089.9V1435.7ZM1089.9 1331.8H1001V1230.9H1089.9V1331.8ZM1089.9 1227.9H1001V1127H1089.9V1227.9ZM1089.9 1124H1001V1023.1H1089.9V1124ZM1089.9 1020.1H1001V919.2H1089.9V1020.1ZM1089.9 916.2H1001V815.3H1089.9V916.2ZM1089.9 812.3H1001V711.4H1089.9V812.3ZM1089.9 708.4H1001V607.5H1089.9V708.4ZM1089.9 604.5H1001V503.5H1089.9V604.5ZM1089.9 500.5H1001V399.6H1089.9V500.5ZM1089.9 396.6H1001V295.7H1089.9V396.6ZM1089.9 292.7H1001V191.8H1089.9V292.7ZM1089.9 188.8H1001V87.9H1089.9V188.8ZM1181.8 1539.6H1092.9V1438.7H1181.8V1539.6ZM1181.8 1435.7H1092.9V1334.8H1181.8V1435.7ZM1181.8 1331.8H1092.9V1230.9H1181.8V1331.8ZM1181.8 1227.9H1092.9V1127H1181.8V1227.9ZM1181.8 1124H1092.9V1023.1H1181.8V1124ZM1181.8 1020.1H1092.9V919.2H1181.8V1020.1ZM1181.8 916.2H1092.9V815.3H1181.8V916.2ZM1181.8 812.3H1092.9V711.4H1181.8V812.3ZM1181.8 708.4H1092.9V607.5H1181.8V708.4ZM1181.8 604.5H1092.9V503.5H1181.8V604.5ZM1181.8 500.5H1092.9V399.6H1181.8V500.5ZM1181.8 396.6H1092.9V295.7H1181.8V396.6ZM1181.8 292.7H1092.9V191.8H1181.8V292.7ZM1181.8 188.8H1092.9V87.9H1181.8V188.8ZM1273.7 1539.6H1184.8V1438.7H1273.7V1539.6ZM1273.7 1435.7H1184.8V1334.8H1273.7V1435.7ZM1273.7 1331.8H1184.8V1230.9H1273.7V1331.8ZM1273.7 1227.9H1184.8V1127H1273.7V1227.9ZM1273.7 1124H1184.8V1023.1H1273.7V1124ZM1273.7 1020.1H1184.8V919.2H1273.7V1020.1ZM1273.7 916.2H1184.8V815.3H1273.7V916.2ZM1273.7 812.3H1184.8V711.4H1273.7V812.3ZM1273.7 708.4H1184.8V607.5H1273.7V708.4ZM1273.7 604.5H1184.8V503.5H1273.7V604.5ZM1273.7 500.5H1184.8V399.6H1273.7V500.5ZM1273.7 396.6H1184.8V295.7H1273.7V396.6ZM1273.7 292.7H1184.8V191.8H1273.7V292.7ZM1273.7 188.8H1184.8V87.9H1273.7V188.8ZM1365.6 1539.6H1276.7V1438.7H1365.6V1539.6ZM1365.6 1435.7H1276.7V1334.8H1365.6V1435.7ZM1365.6 1331.8H1276.7V1230.9H1365.6V1331.8ZM1365.6 1227.9H1276.7V1127H1365.6V1227.9ZM1365.6 1124H1276.7V1023.1H1365.6V1124ZM1365.6 1020.1H1276.7V919.2H1365.6V1020.1ZM1365.6 916.2H1276.7V815.3H1365.6V916.2ZM1365.6 812.3H1276.7V711.4H1365.6V812.3ZM1365.6 708.4H1276.7V607.5H1365.6V708.4ZM1365.6 604.5H1276.7V503.5H1365.6V604.5ZM1365.6 500.5H1276.7V399.6H1365.6V500.5ZM1365.6 396.6H1276.7V295.7H1365.6V396.6ZM1365.6 292.7H1276.7V191.8H1365.6V292.7ZM1365.6 188.8H1276.7V87.9H1365.6V188.8Z"
    stroke="url(#paint0_radial_4830_21534)"
    stroke-width="2"
  />
  <defs>
    <radialGradient
      id="paint0_radial_4830_21534"
      cx="0"
      cy="0"
      r="1"
      gradientUnits="userSpaceOnUse"
      gradientTransform="translate(723.779 813.774) scale(783.249 783.249)"
    >
      <stop offset="0.175" stop-color="white" />
      <stop offset="0.855" stop-color="#E8EFFF" />
      <stop offset="0.86" stop-color="#E8EFFF" />
    </radialGradient>
  </defs>
</svg>