<?xml version="1.0" encoding="UTF-8"?>
<svg xmlns="http://www.w3.org/2000/svg" xmlns:xlink="http://www.w3.org/1999/xlink" width="32px" height="24px" viewBox="0 0 32 24" version="1.1">
<g id="surface1">
<path style=" stroke:none;fill-rule:nonzero;fill:rgb(0, 0, 255);fill-opacity:1;" d="M 25.578125 12.894531 C 28.859375 12.894531 31.523438 10.234375 31.523438 6.949219 C 31.523438 3.667969 28.859375 1.007812 25.578125 1.007812 C 22.296875 1.007812 19.632812 3.667969 19.632812 6.949219 C 19.632812 10.234375 22.296875 12.894531 25.578125 12.894531 Z M 25.578125 12.894531 "/>
<path style=" stroke:none;fill-rule:nonzero;fill:rgb(0, 0, 255);fill-opacity:1;" d="M 31.585938 15.246094 L 31.585938 23.867188 L 18.523438 23.867188 L 18.523438 20.734375 C 18.523438 17.726562 20.941406 15.246094 24.011719 15.246094 Z M 31.585938 15.246094 "/>
<path style=" stroke:none;fill-rule:nonzero;fill:rgb(0, 0, 255);fill-opacity:1;" d="M 16.367188 1.007812 L 16.367188 23.867188 L 11.46875 23.867188 C 8.332031 23.867188 5.460938 22.5625 3.371094 20.539062 C 1.277344 18.449219 0.0390625 15.574219 0.0390625 12.4375 C 0.0390625 6.101562 5.132812 1.007812 11.46875 1.007812 Z M 16.367188 1.007812 "/>
</g>
</svg>
