<?xml version="1.0" encoding="UTF-8"?>
<svg xmlns="http://www.w3.org/2000/svg" xmlns:xlink="http://www.w3.org/1999/xlink" width="16px" height="12px" viewBox="0 0 16 12" version="1.1">
<g id="surface1">
<path style=" stroke:none;fill-rule:nonzero;fill:rgb(0, 0, 255);fill-opacity:1;" d="M 12.789062 6.449219 C 14.429688 6.449219 15.761719 5.117188 15.761719 3.476562 C 15.761719 1.835938 14.429688 0.503906 12.789062 0.503906 C 11.148438 0.503906 9.816406 1.835938 9.816406 3.476562 C 9.816406 5.117188 11.148438 6.449219 12.789062 6.449219 Z M 12.789062 6.449219 "/>
<path style=" stroke:none;fill-rule:nonzero;fill:rgb(0, 0, 255);fill-opacity:1;" d="M 15.792969 7.621094 L 15.792969 11.933594 L 9.261719 11.933594 L 9.261719 10.367188 C 9.261719 8.863281 10.46875 7.621094 12.003906 7.621094 Z M 15.792969 7.621094 "/>
<path style=" stroke:none;fill-rule:nonzero;fill:rgb(0, 0, 255);fill-opacity:1;" d="M 8.183594 0.503906 L 8.183594 11.933594 L 5.734375 11.933594 C 4.167969 11.933594 2.730469 11.28125 1.683594 10.269531 C 0.640625 9.222656 0.0195312 7.785156 0.0195312 6.21875 C 0.0195312 3.050781 2.566406 0.503906 5.734375 0.503906 Z M 8.183594 0.503906 "/>
</g>
</svg>
