<?xml version="1.0" encoding="UTF-8"?>
<!-- Generator: visioncortex VTracer 0.6.3 -->
<svg version="1.1" xmlns="http://www.w3.org/2000/svg" width="1280" height="1280">
<path d="M0 0 C0 64.68 0 129.36 0 196 C-20 199 -20 199 -25.44 199.38 C-50.98 201.49 -77.22 212.8 -98.19 227.19 C-101 229 -101 229 -103 229 C-103 229.66 -103 230.32 -103 231 C-104.64 232.51 -104.64 232.51 -106.81 234.12 C-107.52 234.66 -108.23 235.2 -108.96 235.76 C-111 237 -111 237 -114 237 C-114.25 237.56 -114.5 238.11 -114.75 238.69 C-117.59 243.95 -121.61 247.47 -126.1 251.29 C-128.35 253.32 -130.13 255.62 -132 258 C-132.66 258 -133.32 258 -134 258 C-134 258.66 -134 259.32 -134 260 C-134.66 260 -135.32 260 -136 260 C-136 261.32 -136 262.64 -136 264 C-136.99 264.66 -137.98 265.32 -139 266 C-140.09 267.96 -141.11 269.97 -142.06 272 C-144.8 277.8 -144.8 277.8 -147 280 C-148.85 284.26 -150.38 288.65 -152 293 C-152.37 293.9 -152.73 294.81 -153.11 295.74 C-159.44 311.76 -159.43 327.83 -159.39 344.79 C-159.39 347.29 -159.4 349.79 -159.4 352.29 C-159.42 357.7 -159.42 363.11 -159.41 368.52 C-159.4 376.56 -159.41 384.61 -159.42 392.65 C-159.44 407.03 -159.44 421.4 -159.44 435.77 C-159.43 448.35 -159.43 460.93 -159.44 473.5 C-159.44 475.19 -159.44 476.88 -159.44 478.57 C-159.44 481.12 -159.44 483.66 -159.45 486.21 C-159.46 509.87 -159.46 533.53 -159.45 557.18 C-159.45 558.07 -159.45 558.97 -159.45 559.88 C-159.45 567.12 -159.45 574.35 -159.45 581.59 C-159.43 609.81 -159.44 638.04 -159.47 666.26 C-159.49 698 -159.51 729.74 -159.5 761.47 C-159.5 764.86 -159.5 768.24 -159.5 771.63 C-159.5 772.46 -159.5 773.3 -159.5 774.16 C-159.49 786.72 -159.5 799.29 -159.51 811.86 C-159.53 826.15 -159.53 840.45 -159.51 854.74 C-159.5 862.74 -159.5 870.73 -159.52 878.72 C-159.53 884.7 -159.52 890.67 -159.51 896.65 C-159.5 899.06 -159.51 901.47 -159.52 903.88 C-159.57 916.59 -159.2 927.92 -155 940 C-154.51 941.56 -154.03 943.13 -153.54 944.69 C-153.1 945.98 -152.65 947.28 -152.19 948.56 C-151.94 949.27 -151.68 949.97 -151.42 950.7 C-144.9 968.43 -134.8 984.36 -123 999 C-122.29 999.89 -121.59 1000.78 -120.86 1001.7 C-117 1006.52 -117 1006.52 -112 1010 C-108.51 1011.74 -105.63 1014.46 -104.14 1018.09 C-103.15 1020.2 -103.15 1020.2 -100.84 1020.83 C-100.02 1020.97 -99.21 1021.11 -98.38 1021.25 C-97.56 1021.4 -96.74 1021.55 -95.9 1021.7 C-95.27 1021.8 -94.65 1021.9 -94 1022 C-94 1022.66 -94 1023.32 -94 1024 C-83.13 1032.5 -69.92 1036.59 -56.88 1040.44 C-55.85 1040.74 -55.85 1040.74 -54.8 1041.06 C-52.54 1041.72 -50.27 1042.36 -48 1043 C-47.14 1043.25 -46.28 1043.51 -45.39 1043.77 C-36.47 1046.24 -27.57 1046.94 -18.38 1047.62 C-16.05 1047.81 -13.73 1047.99 -11.4 1048.18 C-9.97 1048.29 -8.54 1048.4 -7.1 1048.51 C-2.22 1048.89 -2.22 1048.89 0 1050 C0 1114.02 0 1178.04 0 1244 C-15.84 1244 -31.68 1244 -48 1244 C-48.33 1243.67 -48.66 1243.34 -49 1243 C-52.25 1242.76 -55.49 1242.61 -58.75 1242.48 C-62.14 1242.32 -64.99 1242 -68.27 1241.03 C-71.57 1240.12 -74.28 1239.77 -77.67 1239.55 C-84.1 1239.1 -90.09 1237.75 -96.31 1236.12 C-97.34 1235.87 -98.38 1235.61 -99.44 1235.35 C-103.65 1234.27 -107.76 1233.22 -111.74 1231.43 C-115.41 1229.82 -118.99 1228.9 -122.88 1228 C-131.03 1226.04 -138.47 1223.76 -146 1220 C-147.2 1219.67 -148.39 1219.34 -149.62 1219 C-153 1218 -153 1218 -154.95 1216.51 C-157.13 1214.91 -158.58 1214.46 -161.19 1213.88 C-166.37 1212.43 -170.9 1210.15 -175.62 1207.62 C-176.33 1207.25 -177.03 1206.87 -177.76 1206.49 C-181.28 1204.57 -184.71 1202.57 -188.09 1200.4 C-190.57 1198.82 -192.78 1197.67 -195.52 1196.5 C-199.59 1194.74 -203.04 1192.5 -206.69 1190 C-207.66 1189.34 -207.66 1189.34 -208.66 1188.67 C-210.45 1187.46 -212.23 1186.23 -214 1185 C-214.81 1184.44 -215.62 1183.89 -216.46 1183.31 C-217.22 1182.66 -217.22 1182.66 -218 1182 C-218 1181.34 -218 1180.68 -218 1180 C-219.07 1179.73 -220.14 1179.46 -221.25 1179.19 C-224.75 1178.08 -226.31 1177.35 -229 1175 C-230.02 1174.12 -231.04 1173.25 -232.06 1172.38 C-232.67 1171.85 -233.27 1171.33 -233.9 1170.79 C-236.29 1168.75 -238.74 1166.78 -241.19 1164.81 C-245.88 1160.99 -250.36 1157 -254.79 1152.88 C-257.41 1150.45 -260.05 1148.08 -262.81 1145.81 C-266.64 1142.58 -269.78 1138.82 -273 1135 C-277.65 1129.6 -277.65 1129.6 -282.56 1124.44 C-286.68 1120.32 -290.76 1115.86 -294 1111 C-294 1110.34 -294 1109.68 -294 1109 C-294.66 1109 -295.32 1109 -296 1109 C-297.81 1106.74 -299.51 1104.48 -301.19 1102.12 C-301.68 1101.44 -302.18 1100.75 -302.69 1100.04 C-304.13 1098.03 -305.57 1096.02 -307 1094 C-307.67 1093.06 -308.34 1092.13 -309.04 1091.16 C-317.39 1079.41 -324.75 1067.02 -331.88 1054.5 C-332.28 1053.79 -332.69 1053.09 -333.1 1052.36 C-336 1047.23 -336 1047.23 -336 1045 C-336.66 1044.67 -337.32 1044.34 -338 1044 C-339.07 1041.68 -340.05 1039.37 -341 1037 C-341.45 1035.95 -341.91 1034.9 -342.38 1033.81 C-343.76 1030.57 -345.13 1027.32 -346.5 1024.06 C-347.1 1022.63 -347.1 1022.63 -347.72 1021.16 C-351.47 1011.9 -354.77 1002.46 -358 993 C-358.39 991.88 -358.77 990.75 -359.17 989.59 C-361.81 981.23 -362.97 972.87 -363.96 964.17 C-364.12 962.76 -364.12 962.76 -364.29 961.32 C-364.38 960.49 -364.47 959.66 -364.56 958.8 C-364.96 955.86 -364.96 955.86 -366.01 952.52 C-367.32 947.33 -367.28 942.26 -367.25 936.93 C-367.25 935.83 -367.26 934.74 -367.26 933.6 C-367.27 929.91 -367.26 926.22 -367.25 922.53 C-367.26 919.86 -367.26 917.19 -367.26 914.52 C-367.27 908.71 -367.27 902.9 -367.27 897.09 C-367.26 888.45 -367.26 879.82 -367.27 871.18 C-367.28 855.75 -367.28 840.32 -367.27 824.89 C-367.27 811.39 -367.27 797.89 -367.27 784.39 C-367.27 783.5 -367.27 782.6 -367.27 781.68 C-367.27 778.04 -367.27 774.41 -367.27 770.78 C-367.28 736.68 -367.27 702.58 -367.26 668.49 C-367.25 638.19 -367.25 607.89 -367.26 577.59 C-367.27 543.56 -367.28 509.53 -367.27 475.49 C-367.27 471.86 -367.27 468.24 -367.27 464.61 C-367.27 463.72 -367.27 462.82 -367.27 461.9 C-367.26 448.41 -367.27 434.92 -367.27 421.42 C-367.28 406.08 -367.28 390.74 -367.27 375.4 C-367.26 366.81 -367.26 358.22 -367.27 349.64 C-367.27 343.9 -367.27 338.17 -367.26 332.43 C-367.26 329.17 -367.26 325.9 -367.26 322.63 C-367.27 319.11 -367.26 315.59 -367.25 312.07 C-367.26 310.54 -367.26 310.54 -367.27 308.99 C-367.24 303.3 -366.56 298.47 -365 293 C-364.84 291.05 -364.74 289.09 -364.69 287.12 C-364.13 278.41 -361.52 270.31 -359 262 C-358.56 260.51 -358.56 260.51 -358.11 258.98 C-357.42 256.65 -356.71 254.32 -356 252 C-355.5 250.31 -355 248.63 -354.5 246.94 C-351.44 236.75 -347.8 227.38 -342.83 217.97 C-340.76 213.92 -339.67 210.54 -339 206 C-338.34 205.67 -337.68 205.34 -337 205 C-336.63 203.68 -336.31 202.34 -336 201 C-335.36 199.65 -334.7 198.31 -334 197 C-333.34 197 -332.68 197 -332 197 C-330.25 192.7 -328.62 188.35 -327 184 C-326.34 184 -325.68 184 -325 184 C-324.73 183.28 -324.47 182.56 -324.2 181.81 C-322.99 178.97 -321.57 176.58 -319.88 174 C-317.83 170.86 -315.81 167.71 -313.87 164.5 C-313.51 163.92 -313.16 163.33 -312.8 162.73 C-311.79 161.07 -310.8 159.41 -309.8 157.75 C-308.31 155.48 -306.93 153.85 -305 152 C-304.57 151.11 -304.13 150.23 -303.69 149.31 C-300.74 143.52 -296.78 138.41 -292 134 C-292.33 133.34 -292.66 132.68 -293 132 C-292.01 131.67 -291.02 131.34 -290 131 C-288.43 128.68 -287.17 126.39 -286.06 123.81 C-284.72 121.52 -283.36 121.11 -281 120 C-280.01 118.52 -280.01 118.52 -279 117 C-278.34 117 -277.68 117 -277 117 C-276.71 116.26 -276.42 115.52 -276.12 114.75 C-273.62 108.62 -273.62 108.62 -271 106 C-268.88 105.38 -268.88 105.38 -267 105 C-266.85 104.12 -266.85 104.12 -266.71 103.23 C-265.85 100.54 -264.7 99.33 -262.69 97.38 C-262.09 96.78 -261.5 96.19 -260.89 95.59 C-259.01 94.01 -257.23 93 -255 92 C-255 91.34 -255 90.68 -255 90 C-254.32 89.81 -253.64 89.63 -252.94 89.44 C-249.38 87.7 -247.23 85.42 -244.55 82.56 C-243 81 -243 81 -241 80 C-240.77 79.38 -240.55 78.76 -240.31 78.12 C-238.65 75.43 -236.83 75.01 -233.95 73.92 C-230.51 72.3 -227.57 69.8 -225 67 C-225 66.34 -225 65.68 -225 65 C-223.68 65 -222.36 65 -221 65 C-221 64.34 -221 63.68 -221 63 C-220.34 63 -219.68 63 -219 63 C-218.67 62.01 -218.34 61.02 -218 60 C-217.15 59.73 -216.31 59.46 -215.44 59.19 C-211.49 57.82 -208.95 55.84 -205.73 53.24 C-204 52 -204 52 -202 52 C-201.67 51.34 -201.34 50.68 -201 50 C-197.4 47.83 -193.76 45.86 -190 44 C-189.15 43.57 -188.3 43.15 -187.42 42.71 C-184.95 41.47 -182.47 40.24 -180 39 C-180 38.34 -180 37.68 -180 37 C-178.35 37 -176.7 37 -175 37 C-174.67 36.34 -174.34 35.68 -174 35 C-172.34 34.33 -170.67 33.66 -169 33 C-168.07 32.23 -168.07 32.23 -167.12 31.44 C-165 30 -165 30 -161.75 29.56 C-157.94 28.99 -155.71 27.96 -152.38 26.19 C-146.31 23.16 -139.83 20 -133 20 C-132.67 19.01 -132.34 18.02 -132 17 C-129.36 17 -126.72 17 -124 17 C-124 16.34 -124 15.68 -124 15 C-122.35 15 -120.7 15 -119 15 C-118.67 14.34 -118.34 13.68 -118 13 C-118 13.66 -118 14.32 -118 15 C-116.9 14.56 -115.79 14.12 -114.66 13.66 C-109.7 11.8 -104.65 10.61 -99.5 9.44 C-97.7 9.02 -95.9 8.6 -94.09 8.18 C-93.22 7.98 -92.35 7.78 -91.45 7.58 C-89.31 7.07 -87.19 6.52 -85.07 5.94 C-79.91 4.64 -74.65 4.11 -69.38 3.5 C-45.59 0.69 -24.92 0 0 0 Z " fill="#194DD5" transform="translate(546,2)"/>
<path d="M0 0 C3.4 1.25 3.4 1.25 6.54 1.1 C6.54 1.76 6.54 2.42 6.54 3.1 C8.3 3.41 8.3 3.41 10.1 3.73 C19.96 5.92 29.39 10.37 38.31 15 C41.63 16.64 45.05 17.86 48.54 19.1 C51.06 20.36 53.35 21.89 55.72 23.41 C58.97 25.5 62.22 27.54 65.6 29.41 C68.54 31.1 68.54 31.1 70.54 33.1 C73.79 34.58 77.04 35.93 80.41 37.1 C81.11 37.43 81.81 37.76 82.54 38.1 C82.87 39.09 83.2 40.08 83.54 41.1 C85.2 41.78 86.86 42.45 88.54 43.1 C89.2 44.09 89.86 45.08 90.54 46.1 C92.53 47.12 94.53 48.12 96.54 49.1 C101.23 52 105.7 55.09 109.89 58.7 C115.22 63.24 120.78 67.53 126.35 71.79 C129.67 74.36 132.61 77.09 135.54 80.1 C136.55 80.93 137.56 81.75 138.6 82.6 C141.54 85.1 141.54 85.1 143.41 87.48 C145.23 89.72 146.92 91.37 149.1 93.23 C152.7 96.32 156.15 99.53 159.54 102.85 C160.03 103.32 160.52 103.8 161.03 104.28 C162.26 105.5 163.4 106.8 164.54 108.1 C164.54 109.09 164.54 110.08 164.54 111.1 C165.53 111.1 166.52 111.1 167.54 111.1 C169.48 113.12 169.48 113.12 171.66 115.91 C172.46 116.92 173.25 117.93 174.07 118.96 C174.88 120 175.7 121.04 176.54 122.1 C178.05 123.94 179.57 125.77 181.1 127.6 C184.8 132.12 188.28 136.77 191.68 141.53 C193.39 143.89 195.17 146.18 196.97 148.48 C199.11 151.29 200.31 153.48 200.54 157.1 C201.53 157.43 202.52 157.76 203.54 158.1 C205.17 160.51 206.65 162.89 208.1 165.41 C208.5 166.09 208.9 166.77 209.31 167.47 C214.43 176.21 214.43 176.21 214.91 180.16 C215.21 183.19 215.21 183.19 217.43 184.49 C219.95 186.42 220.67 187.95 221.91 190.85 C222.33 191.83 222.75 192.8 223.18 193.81 C225.18 198.67 227.14 203.53 229.06 208.42 C230.35 211.63 231.71 214.8 233.1 217.98 C238.78 231.54 242.33 246.34 245.07 260.75 C245.51 262.98 246.05 265.15 246.6 267.35 C247.78 272.5 248.01 277.7 248.29 282.96 C248.41 285.9 248.41 285.9 249.04 287.88 C249.71 290.89 249.65 293.75 249.63 296.84 C249.63 298.13 249.63 299.43 249.62 300.76 C249.61 302.13 249.61 303.49 249.6 304.85 C249.59 306.23 249.59 307.61 249.58 308.99 C249.57 312.36 249.56 315.73 249.54 319.1 C242.55 321.29 235.59 323.44 228.47 325.16 C222.81 326.54 222.81 326.54 217.17 327.98 C212.05 329.33 207.16 330.44 201.86 330.7 C199.03 331.19 196.5 332.26 193.83 333.3 C189.62 334.77 185.26 335.61 180.91 336.54 C173.33 338.2 165.89 340.06 158.44 342.26 C152.95 343.85 147.6 345.04 141.91 345.54 C138.42 345.88 135.76 346.78 132.57 348.29 C129.98 349.32 127.4 349.88 124.68 350.48 C119.96 351.54 115.25 352.66 110.56 353.86 C108.81 354.3 108.81 354.3 107.03 354.76 C104.65 355.36 102.28 355.97 99.91 356.58 C93.34 358.25 86.84 359.61 80.15 360.66 C76.9 361.21 73.81 362.06 70.66 363.04 C65.77 364.48 60.88 365.82 55.91 366.98 C54.78 367.24 53.66 367.51 52.5 367.78 C49.25 368.13 48.29 367.65 45.54 366.1 C45.52 365.02 45.5 363.94 45.48 362.82 C45.4 358.71 45.31 354.6 45.22 350.48 C45.18 348.72 45.15 346.96 45.11 345.2 C44.37 304.69 37.2 268.09 7.54 238.1 C6.88 237.77 6.22 237.44 5.54 237.1 C5.54 236.44 5.54 235.78 5.54 235.1 C4.88 235.1 4.22 235.1 3.54 235.1 C2.09 233.6 2.09 233.6 0.41 231.54 C-10.55 218.7 -24.94 210.43 -39.47 202.25 C-41.08 201.32 -42.66 200.36 -44.23 199.38 C-46.58 198.04 -48.74 197.27 -51.34 196.54 C-52.64 196.17 -52.64 196.17 -53.96 195.79 C-55.49 195.37 -57.01 194.95 -58.53 194.54 C-63.18 193.25 -63.18 193.25 -65.25 192.13 C-68.1 190.8 -70.88 190.32 -73.96 189.73 C-91.23 186.18 -91.23 186.18 -97.46 182.1 C-98.86 178.38 -98.61 174.43 -98.6 170.51 C-98.6 169.74 -98.6 168.97 -98.61 168.18 C-98.61 165.61 -98.61 163.03 -98.61 160.45 C-98.61 158.61 -98.62 156.76 -98.62 154.91 C-98.63 149.9 -98.63 144.88 -98.63 139.87 C-98.63 135.68 -98.64 131.49 -98.64 127.31 C-98.65 117.44 -98.65 107.57 -98.65 97.7 C-98.65 87.51 -98.66 77.32 -98.68 67.13 C-98.69 58.38 -98.69 49.64 -98.69 40.89 C-98.69 35.67 -98.7 30.44 -98.71 25.22 C-98.72 20.31 -98.72 15.4 -98.71 10.48 C-98.71 8.68 -98.71 6.88 -98.72 5.07 C-98.72 2.61 -98.72 0.15 -98.71 -2.31 C-98.72 -3.02 -98.72 -3.74 -98.73 -4.48 C-98.7 -8.07 -98.65 -10.95 -96.46 -13.9 C-67.48 -21.44 -27.39 -9.22 0 0 Z " fill="#194DD5" transform="translate(736.46484375,15.8984375)"/>
<path d="M0 0 C11.23 2.16 22.41 4.49 33.56 7.06 C34.63 7.31 35.7 7.55 36.8 7.81 C42.75 9.19 48.66 10.69 54.54 12.35 C57.02 13 59.49 13.52 62 14 C100.89 21.87 100.89 21.87 119.62 27.06 C126.81 29.04 134.07 30.51 141.37 32 C152.37 34.25 163.3 36.8 174.24 39.36 C176.75 39.94 179.26 40.5 181.78 41.04 C187.94 42.4 193.95 44.24 200 46 C200.02 50.06 200.04 54.11 200.05 58.17 C200.06 59.55 200.07 60.93 200.08 62.31 C200.09 64.29 200.09 66.28 200.1 68.27 C200.11 70.06 200.11 70.06 200.11 71.88 C200.02 74.5 199.7 76.51 199 79 C198.78 82.3 198.61 85.59 198.48 88.89 C198.25 93.53 197.37 97.54 196 102 C195.68 103.81 195.38 105.62 195.12 107.44 C192.52 123.69 188.07 140.6 181.45 155.69 C180.28 158.36 179.15 161.05 178.05 163.75 C177.7 164.59 177.35 165.44 176.99 166.31 C176.31 167.98 175.62 169.65 174.94 171.33 C173.03 175.92 170.91 179.93 168 184 C165.61 187.89 163.76 191.53 162.19 195.81 C160.33 200.65 157.73 204.51 154.68 208.67 C152.52 211.66 150.78 214.77 149 218 C148.34 218.99 147.68 219.98 147 221 C146.34 221 145.68 221 145 221 C144.63 222.07 144.63 222.07 144.25 223.15 C142.86 226.32 141.13 228.79 139.06 231.56 C138.03 232.96 138.03 232.96 136.97 234.38 C136.32 235.24 135.67 236.11 135 237 C134.19 238.16 134.19 238.16 133.37 239.34 C132.69 240.16 132.69 240.16 132 241 C131.34 241 130.68 241 130 241 C129.75 241.56 129.5 242.11 129.25 242.69 C127.44 246.04 125.47 249.27 122 251 C122 251.66 122 252.32 122 253 C121.34 253 120.68 253 120 253 C120 253.66 120 254.32 120 255 C118.68 255 117.36 255 116 255 C116.33 256.32 116.66 257.64 117 259 C116.34 259 115.68 259 115 259 C114.61 259.88 114.61 259.88 114.21 260.77 C112.91 263.16 111.51 264.73 109.59 266.64 C108.91 267.32 108.23 268 107.53 268.7 C106.82 269.4 106.11 270.09 105.38 270.81 C104.69 271.5 104 272.19 103.29 272.89 C99.27 276.88 95.14 280.68 90.85 284.38 C89.17 285.85 87.55 287.36 85.95 288.91 C85.06 289.76 84.17 290.62 83.25 291.5 C82.35 292.38 81.45 293.25 80.52 294.16 C78 296 78 296 75.67 295.78 C75.12 295.52 74.57 295.27 74 295 C74 296.32 74 297.64 74 299 C71.75 300.5 71.75 300.5 69 302 C68.32 302.74 67.64 303.49 66.94 304.25 C65.98 305.12 65.98 305.12 65 306 C62.75 305.75 62.75 305.75 61 305 C61 305.66 61 306.32 61 307 C60.34 307 59.68 307 59 307 C58.88 307.89 58.88 307.89 58.75 308.8 C57.77 311.69 56.48 312.48 53.98 314.21 C53.15 314.79 52.32 315.37 51.46 315.97 C50.57 316.58 49.67 317.19 48.75 317.81 C47.84 318.44 46.93 319.07 45.99 319.71 C40.12 323.7 34.23 327.27 27.89 330.48 C24.85 332.08 22 333.87 19.12 335.75 C12.67 339.93 3.9 345 -4 345 C-4.33 345.99 -4.66 346.98 -5 348 C-7.34 349.25 -7.34 349.25 -10.38 350.44 C-12 351.08 -12 351.08 -13.66 351.73 C-18.42 353.54 -23.19 355.31 -28 357 C-29.01 357.37 -30.02 357.74 -31.06 358.12 C-33.74 358.92 -36.32 359.44 -39.06 359.94 C-43 360.68 -45.6 361.85 -49 364 C-50.88 364.53 -52.76 365.04 -54.66 365.47 C-57.29 366.07 -59.89 366.75 -62.5 367.44 C-74.05 370.3 -85.3 372.27 -97.18 372.79 C-99.9 372.68 -99.9 372.68 -101 374 C-102.44 374.09 -103.89 374.12 -105.34 374.11 C-106.72 374.11 -106.72 374.11 -108.13 374.11 C-109.13 374.11 -110.13 374.1 -111.16 374.1 C-112.18 374.1 -113.2 374.09 -114.25 374.09 C-117.52 374.09 -120.79 374.08 -124.06 374.06 C-126.27 374.06 -128.49 374.05 -130.7 374.05 C-136.13 374.04 -141.57 374.02 -147 374 C-148.5 371.01 -148.14 367.94 -148.13 364.66 C-148.14 363.89 -148.14 363.12 -148.14 362.34 C-148.15 359.75 -148.15 357.17 -148.15 354.59 C-148.15 352.75 -148.15 350.91 -148.16 349.06 C-148.16 344.04 -148.17 339.02 -148.17 334 C-148.17 329.81 -148.17 325.62 -148.18 321.44 C-148.18 311.56 -148.19 301.68 -148.19 291.8 C-148.18 281.6 -148.2 271.41 -148.21 261.21 C-148.22 252.46 -148.23 243.71 -148.23 234.97 C-148.23 229.74 -148.23 224.51 -148.24 219.28 C-148.25 214.37 -148.25 209.45 -148.24 204.53 C-148.24 202.73 -148.25 200.92 -148.25 199.12 C-148.26 196.65 -148.25 194.19 -148.25 191.73 C-148.25 191.01 -148.26 190.29 -148.26 189.56 C-148.24 185.61 -147.86 182.51 -146 179 C-142.36 176.79 -138.45 176.64 -134.28 176.34 C-131.63 175.94 -129.49 175 -127 174 C-124.72 173.46 -122.42 172.96 -120.12 172.5 C-112.9 171 -106.46 169.51 -100 165.88 C-98 165 -98 165 -94 165 C-93.67 164.34 -93.34 163.68 -93 163 C-92.34 163 -91.68 163 -91 163 C-88.63 161.94 -86.32 160.84 -84 159.69 C-83.36 159.38 -82.72 159.07 -82.05 158.75 C-78.75 157.11 -77.09 156.13 -75 153 C-72.25 151.12 -69.59 149.83 -66.5 148.56 C-63.09 147.04 -60.8 145.43 -58 143 C-49.8 136.4 -49.8 136.4 -47 135 C-46.67 134.34 -46.34 133.68 -46 133 C-44.21 131.42 -42.36 129.93 -40.5 128.44 C-40 127.96 -39.51 127.49 -39 127 C-39 126.34 -39 125.68 -39 125 C-38.01 125 -37.02 125 -36 125 C-35.79 124.28 -35.59 123.56 -35.38 122.81 C-33.6 119.19 -31.14 117.48 -28 115 C-27.01 113.51 -27.01 113.51 -26 112 C-26.33 111.34 -26.66 110.68 -27 110 C-26.01 110 -25.02 110 -24 110 C-23.88 109.4 -23.75 108.8 -23.62 108.19 C-23 106 -23 106 -21 103 C-15.7 94.95 -12.82 87.43 -11 78 C-10.34 78 -9.68 78 -9 78 C-9.06 76.97 -9.12 75.94 -9.19 74.88 C-9.2 70.96 -8.48 67.51 -7.56 63.71 C-5.8 55.74 -5.27 47.89 -4.88 39.75 C-4.77 37.65 -4.65 35.56 -4.54 33.46 C-4.44 31.59 -4.34 29.72 -4.25 27.85 C-4 25 -4 25 -3 23 C-2.87 21.51 -2.8 20.03 -2.75 18.54 C-2.7 17.21 -2.7 17.21 -2.65 15.86 C-2.59 14 -2.54 12.14 -2.48 10.28 C-2.45 9.39 -2.41 8.51 -2.38 7.6 C-2.34 6.38 -2.34 6.38 -2.3 5.14 C-2 3 -2 3 0 0 Z " fill="#194DD5" transform="translate(786,872)"/>
<path d="M0 0 C1.43 1.1 1.43 1.1 2.89 2.22 C5.08 4.07 5.75 5.49 7 8 C8.88 9.11 8.88 9.11 11 10 C13.79 11.89 15.09 13.13 17 16 C19.16 18.58 21.34 21.15 23.54 23.71 C27 27.78 27 27.78 27 30 C27.66 30 28.32 30 29 30 C30.55 32.16 30.55 32.16 32.31 35.06 C34.27 38.25 36.21 41.36 38.5 44.31 C41.79 48.79 44.04 53.9 46.45 58.89 C47.95 62.06 47.95 62.06 50 65 C51.06 67.98 51.99 70.98 52.94 74 C53.92 77 53.92 77 55.4 79.64 C57.29 83.62 58.47 87.57 59.62 91.81 C59.84 92.57 60.06 93.32 60.28 94.1 C61.58 98.82 62.37 103.38 62.77 108.26 C62.82 110.03 62.82 110.03 64 111 C64.81 115.62 65.13 120.08 65.15 124.76 C65.15 126.71 65.15 126.71 65.16 128.7 C65.17 130.1 65.17 131.51 65.17 132.91 C65.17 134.37 65.17 135.82 65.18 137.28 C65.18 140.32 65.19 143.36 65.19 146.4 C65.19 150.28 65.2 154.17 65.22 158.05 C65.23 161.06 65.23 164.06 65.23 167.06 C65.23 168.49 65.23 169.92 65.24 171.36 C65.25 173.36 65.25 175.37 65.24 177.37 C65.24 178.51 65.25 179.65 65.25 180.82 C64.99 184.18 64.15 186.85 63 190 C62.69 192.12 62.42 194.25 62.19 196.38 C61.11 204.58 58.66 212.18 56 220 C55.01 220 54.02 220 53 220 C52.96 220.65 52.93 221.3 52.89 221.98 C52.48 227.36 51.79 231.28 49 236 C48.29 237.49 48.29 237.49 47.56 239 C46.25 241.52 44.79 243.76 43.18 246.09 C40.97 249.68 39.21 253.51 37.37 257.29 C36 260 36 260 34 263 C33.34 263 32.68 263 32 263 C31.63 263.77 31.63 263.77 31.25 264.56 C30.84 265.37 30.42 266.17 30 267 C29.48 268.03 28.95 269.06 28.41 270.12 C25.68 274.87 21.97 278.63 18.19 282.56 C17.5 283.29 16.81 284.02 16.11 284.77 C12.41 288.66 8.62 292.32 4.48 295.74 C2.78 297.14 2.78 297.14 0.56 299.5 C-10.24 310.04 -26.3 321.28 -40.75 325.88 C-43.54 326.84 -45.85 327.94 -48.44 329.31 C-57.82 334.09 -67.51 337.14 -78 338 C-78.62 338.32 -79.24 338.65 -79.88 338.98 C-82.53 340.26 -84.76 340.38 -87.69 340.56 C-91.16 340.51 -91.16 340.51 -94 342 C-103.65 344.94 -114.1 344.3 -124.08 344.26 C-127.06 344.25 -130.04 344.26 -133.02 344.27 C-134.94 344.27 -136.86 344.27 -138.79 344.27 C-139.66 344.27 -140.54 344.27 -141.44 344.28 C-156.84 344.16 -156.84 344.16 -160 341 C-163.26 340.71 -166.53 340.55 -169.8 340.38 C-172.84 340.02 -174.35 339.38 -177 338 C-178.93 337.7 -180.87 337.46 -182.81 337.25 C-190.82 336.12 -197.63 333.17 -205 330 C-206.62 329.39 -208.25 328.79 -209.88 328.19 C-221.3 323.6 -232.17 317.39 -242 310 C-243.96 308.58 -245.92 307.17 -247.88 305.75 C-249.59 304.5 -251.29 303.25 -253 302 C-253.77 301.47 -254.53 300.94 -255.32 300.39 C-255.87 299.93 -256.43 299.47 -257 299 C-257 298.34 -257 297.68 -257 297 C-257.54 296.77 -258.07 296.55 -258.62 296.31 C-263.18 293.79 -267.24 290.45 -270 286 C-270 285.34 -270 284.68 -270 284 C-270.66 284 -271.32 284 -272 284 C-272 283.34 -272 282.68 -272 282 C-272.66 282 -273.32 282 -274 282 C-274 281.34 -274 280.68 -274 280 C-274.99 279.67 -275.98 279.34 -277 279 C-278.8 276.85 -278.8 276.85 -280.75 274.06 C-281.45 273.07 -282.16 272.07 -282.88 271.05 C-283.58 270.04 -284.28 269.04 -285 268 C-285.63 267.12 -286.26 266.24 -286.9 265.33 C-297 251.1 -297 251.1 -297 248 C-297.66 247.67 -298.32 247.34 -299 247 C-298.67 246.34 -298.34 245.68 -298 245 C-298.66 245 -299.32 245 -300 245 C-302.82 238.91 -305.55 232.82 -307.97 226.56 C-308.67 224.82 -309.42 223.1 -310.22 221.41 C-314.23 212.68 -315.87 203.74 -317.49 194.33 C-317.98 191.88 -317.98 191.88 -319 189.14 C-320.86 183.29 -321.12 177.15 -321.69 171.06 C-321.75 170.36 -321.82 169.65 -321.89 168.92 C-323.17 155.2 -324.43 140.48 -321 127 C-320.74 123.76 -320.56 120.53 -320.38 117.29 C-319.99 113.94 -319.08 111.18 -318 108 C-317.8 106.21 -317.65 104.42 -317.56 102.62 C-317.16 97.54 -315.99 93.65 -314 89 C-313.18 86.88 -312.37 84.75 -311.56 82.62 C-305.61 67.19 -305.61 67.19 -303.91 63.88 C-302.87 61.95 -302.87 61.95 -302.56 59.44 C-301.91 56.63 -301.07 55.91 -299 54 C-297.82 51.9 -297.82 51.9 -297 50 C-296.34 50 -295.68 50 -295 50 C-294.67 47.69 -294.34 45.38 -294 43 C-293.34 43 -292.68 43 -292 43 C-291.5 41.51 -291.5 41.51 -291 40 C-290.32 39.15 -289.64 38.31 -288.94 37.44 C-286.79 35.26 -286.79 35.26 -287 33 C-286.22 32.26 -285.43 31.51 -284.62 30.75 C-281.86 27.85 -280.98 25.83 -280 22 C-279.01 22 -278.02 22 -277 22 C-275.27 20.06 -273.6 18.05 -272 16 C-271.34 15.34 -270.68 14.68 -270 14 C-269.5 13.01 -269.5 13.01 -269 12 C-268.01 12.5 -268.01 12.5 -267 13 C-267 12.01 -267 11.02 -267 10 C-266.01 10 -265.02 10 -264 10 C-264 9.34 -264 8.68 -264 8 C-262.39 6.45 -262.39 6.45 -260.25 4.69 C-257.09 2.01 -254.54 -0.71 -252 -4 C-249.08 -5.95 -247.37 -6.45 -244 -7 C-244 -7.66 -244 -8.32 -244 -9 C-242.04 -10.38 -240.03 -11.71 -238 -13 C-236.64 -13.97 -235.3 -14.95 -234 -16 C-234 -16.33 -234 -16.66 -234 -17 C-233.2 -17.12 -232.39 -17.25 -231.56 -17.38 C-230.72 -17.58 -229.87 -17.79 -229 -18 C-228.67 -18.66 -228.34 -19.32 -228 -20 C-227.15 -20.28 -226.3 -20.56 -225.42 -20.85 C-221.33 -22.23 -217.95 -24.24 -214.25 -26.44 C-208.28 -29.9 -202.73 -32.36 -196 -34 C-194.47 -34.51 -192.95 -35.03 -191.44 -35.56 C-187.83 -36.78 -184.23 -37.69 -180.5 -38.47 C-177.55 -39.1 -174.62 -39.8 -171.69 -40.5 C-110.57 -54.51 -48.84 -38.14 0 0 Z M-169 4 C-170.15 4.14 -171.31 4.29 -172.5 4.44 C-176.21 5.03 -177.13 5.8 -180 8 C-181.48 8.66 -182.98 9.26 -184.5 9.81 C-190.54 12.13 -196.25 15.04 -202 18 C-202 18.66 -202 19.32 -202 20 C-202.85 20.22 -203.7 20.45 -204.57 20.68 C-208.66 22.26 -211.51 24.43 -214.88 27.19 C-215.49 27.68 -216.1 28.17 -216.73 28.68 C-218.5 30.11 -220.25 31.55 -222 33 C-222.84 33.69 -223.68 34.39 -224.55 35.11 C-228.14 38.16 -231.13 41.24 -234 45 C-234.77 45.76 -235.53 46.51 -236.32 47.29 C-243.78 54.83 -249.48 63.41 -254.62 72.62 C-255.28 73.8 -255.28 73.8 -255.95 74.99 C-258.36 79.24 -258.36 79.24 -259 84 C-259.66 84 -260.32 84 -261 84 C-262.13 87.31 -263.25 90.62 -264.38 93.94 C-264.69 94.86 -265.01 95.79 -265.34 96.74 C-267.06 101.87 -268.54 106.92 -269.59 112.22 C-270 114 -270 114 -271 116 C-271.2 117.66 -271.36 119.33 -271.5 121 C-271.89 125.78 -271.89 125.78 -273 128 C-273.09 129.51 -273.13 131.02 -273.13 132.53 C-273.13 133.46 -273.14 134.4 -273.14 135.37 C-273.14 136.38 -273.13 137.4 -273.13 138.44 C-273.13 139.48 -273.13 140.52 -273.14 141.59 C-273.14 143.78 -273.13 145.98 -273.13 148.18 C-273.13 151.55 -273.13 154.93 -273.14 158.3 C-273.14 160.43 -273.13 162.56 -273.13 164.69 C-273.13 165.71 -273.14 166.72 -273.14 167.77 C-273.14 168.71 -273.13 169.64 -273.13 170.6 C-273.13 171.43 -273.13 172.26 -273.13 173.11 C-273.21 175.01 -273.21 175.01 -272 176 C-271.67 177.45 -271.39 178.91 -271.12 180.38 C-269.58 188.4 -267.35 196.15 -264.68 203.87 C-264.01 205.98 -263.49 208.09 -263 210.25 C-262.03 213.89 -260.97 215.84 -259 219 C-258.15 220.46 -257.31 221.93 -256.48 223.4 C-256.01 224.21 -255.55 225.02 -255.07 225.85 C-254.11 227.52 -253.16 229.2 -252.2 230.88 C-249.38 235.79 -246.5 240.53 -243 245 C-242.34 245 -241.68 245 -241 245 C-240.75 245.74 -240.5 246.48 -240.24 247.24 C-238.89 250.24 -237.45 251.91 -235.11 254.21 C-233.95 255.37 -233.95 255.37 -232.77 256.54 C-231.96 257.33 -231.15 258.12 -230.31 258.94 C-229.52 259.72 -228.73 260.51 -227.92 261.32 C-219.06 270.12 -219.06 270.12 -208.74 277.01 C-206.94 278.03 -205.34 279.19 -203.69 280.44 C-197.73 284.78 -190.99 287.79 -184.06 290.25 C-181.68 291.12 -179.34 292.09 -177 293.06 C-172.73 294.77 -168.5 296.07 -164 297 C-162.29 297.37 -162.29 297.37 -160.54 297.75 C-132.43 303.62 -100.47 302.88 -74 291 C-73.01 290.67 -72.02 290.34 -71 290 C-71 289.34 -71 288.68 -71 288 C-69.02 288 -67.04 288 -65 288 C-64.67 287.01 -64.34 286.02 -64 285 C-63.12 284.89 -62.24 284.78 -61.34 284.67 C-52.89 282.98 -45.63 277.27 -39 272 C-38.35 271.52 -37.7 271.03 -37.03 270.54 C-30.45 265.65 -30.45 265.65 -25.44 259.31 C-23.31 255.89 -20.56 254.82 -17 253 C-17 252.01 -17 251.02 -17 250 C-16.34 250 -15.68 250 -15 250 C-14.63 249.15 -14.26 248.31 -13.88 247.44 C-12.03 244.06 -10.02 241.58 -7.5 238.73 C-3.37 234 -3.37 234 -1.75 228.12 C-1.83 227.42 -1.91 226.72 -2 226 C-1.01 225.67 -0.02 225.34 1 225 C1.33 224.01 1.66 223.02 2 222 C2.93 220.41 3.87 218.83 4.81 217.25 C8.55 210.48 10.25 203.49 12 196 C12.54 193.85 13.08 191.71 13.62 189.56 C13.98 188.11 13.98 188.11 14.34 186.64 C14.74 185.03 15.16 183.43 15.59 181.83 C18.22 172.15 18.19 162.25 18.19 152.29 C18.19 150.2 18.21 148.12 18.22 146.03 C18.26 137.52 17.58 129.37 16 121 C15.87 120.26 15.74 119.51 15.6 118.75 C11.49 95.82 2.84 74.75 -11 56 C-11.33 55.34 -11.66 54.68 -12 54 C-12.66 54 -13.32 54 -14 54 C-14.33 52.68 -14.66 51.36 -15 50 C-15.66 50 -16.32 50 -17 50 C-17 49.34 -17 48.68 -17 48 C-18.64 46.31 -20.31 44.65 -22 43 C-22.56 42.24 -23.11 41.47 -23.69 40.69 C-24.12 40.13 -24.55 39.57 -25 39 C-25.66 39 -26.32 39 -27 39 C-27 38.34 -27 37.68 -27 37 C-28.61 35.68 -30.29 34.45 -32 33.25 C-33 32.54 -34.01 31.83 -35.04 31.09 C-36.02 30.4 -36.99 29.71 -38 29 C-39.44 27.92 -40.88 26.84 -42.31 25.75 C-48.24 21.31 -54.24 17.79 -60.9 14.56 C-64 13 -64 13 -67.38 10.98 C-71.11 8.82 -74.93 7.57 -79.06 6.38 C-80.43 5.97 -81.79 5.56 -83.16 5.15 C-83.81 4.96 -84.47 4.76 -85.14 4.57 C-86.82 4.05 -88.49 3.49 -90.16 2.92 C-110.06 -3.51 -149.67 -6.16 -169 4 Z " fill="#194DD5" transform="translate(1019,494)"/>
<path d="M0 0 C4.16 2.71 6.39 5.81 9 10 C9.5 10.5 9.5 10.5 10 11 C10.1 12.86 10.13 14.73 10.13 16.59 C10.14 17.82 10.14 19.04 10.15 20.3 C10.15 21.67 10.15 23.04 10.15 24.42 C10.15 25.86 10.15 27.31 10.16 28.76 C10.17 32.75 10.17 36.74 10.17 40.73 C10.18 45.03 10.19 49.33 10.2 53.63 C10.22 64.01 10.23 74.4 10.24 84.79 C10.24 89.68 10.25 94.57 10.25 99.46 C10.27 115.69 10.28 131.93 10.29 148.17 C10.29 152.39 10.29 156.6 10.3 160.82 C10.3 161.87 10.3 162.92 10.3 164 C10.3 180.98 10.33 197.97 10.36 214.96 C10.4 232.38 10.41 249.81 10.42 267.23 C10.42 277.02 10.43 286.81 10.45 296.6 C10.48 304.94 10.48 313.28 10.47 321.61 C10.47 325.87 10.47 330.12 10.49 334.38 C10.51 338.27 10.51 342.16 10.49 346.06 C10.49 347.47 10.49 348.88 10.51 350.29 C10.52 352.2 10.51 354.12 10.49 356.03 C10.5 357.63 10.5 357.63 10.5 359.25 C9.88 362.69 8.59 363.75 6 366 C5.5 366.85 5.01 367.69 4.5 368.56 C1.93 372.74 -1.13 374.44 -5.88 375.65 C-14.6 377.1 -21.95 376.15 -29.5 371.44 C-30 370.96 -30.49 370.49 -31 370 C-31 369.34 -31 368.68 -31 368 C-31.93 367.66 -31.93 367.66 -32.88 367.31 C-36.17 365.28 -36.68 362.23 -37.62 358.59 C-39.06 351.07 -39.28 343.78 -39.25 336.13 C-39.26 334.76 -39.26 333.39 -39.26 332.02 C-39.27 328.27 -39.27 324.53 -39.26 320.79 C-39.26 316.74 -39.26 312.69 -39.27 308.64 C-39.28 300.73 -39.28 292.81 -39.27 284.89 C-39.27 278.45 -39.27 272.02 -39.27 265.58 C-39.27 264.67 -39.27 263.75 -39.27 262.8 C-39.27 260.94 -39.27 259.08 -39.27 257.21 C-39.28 239.75 -39.27 222.29 -39.26 204.84 C-39.25 189.86 -39.25 174.89 -39.26 159.92 C-39.27 142.52 -39.28 125.12 -39.27 107.72 C-39.27 105.86 -39.27 104.01 -39.27 102.15 C-39.27 101.24 -39.27 100.32 -39.27 99.38 C-39.26 92.96 -39.27 86.53 -39.27 80.1 C-39.28 72.27 -39.28 64.43 -39.27 56.6 C-39.26 52.6 -39.26 48.61 -39.27 44.61 C-39.27 40.95 -39.27 37.29 -39.26 33.63 C-39.25 31.69 -39.26 29.74 -39.27 27.8 C-39.24 21.21 -38.72 15.37 -37 9 C-36.34 9 -35.68 9 -35 9 C-34.73 8.4 -34.47 7.81 -34.19 7.19 C-31.45 2.15 -26.82 -0.96 -21.5 -2.88 C-13.37 -5.17 -7.43 -3.66 0 0 Z " fill="#194DD5" transform="translate(596,455)"/>
<path d="M0 0 C3.89 3.25 6.41 6.1 8 11 C8.99 12.49 8.99 12.49 10 14 C11.44 22.07 13.33 35.08 8.56 42.12 C7.79 43.05 7.79 43.05 7 44 C6.77 44.76 6.55 45.53 6.31 46.31 C3.85 51.36 -0.3 54.72 -5.34 57.11 C-13.87 59.89 -23.13 59.49 -32 59 C-32.5 58.5 -32.5 58.5 -33 58 C-34.35 57.75 -35.71 57.53 -37.06 57.31 C-43.32 55.94 -47.92 53.03 -51.57 47.71 C-55.46 40.87 -56.21 35.58 -56.25 27.81 C-56.27 26.89 -56.29 25.97 -56.31 25.02 C-56.36 16.75 -54.71 9.93 -49.01 3.67 C-36.29 -6.9 -14.15 -9.21 0 0 Z " fill="#194DD5" transform="translate(605,347)"/>
<path d="M0 0 C0.33 0 0.66 0 1 0 C1 196.02 1 392.04 1 594 C0.67 594 0.34 594 0 594 C0 397.98 0 201.96 0 0 Z " fill="#1A4ED6" transform="translate(177,326)"/>
<path d="M0 0 C10.23 0 20.46 0 31 0 C31 0.33 31 0.66 31 1 C20.77 1 10.54 1 0 1 C0 0.67 0 0.34 0 0 Z " fill="#000002" transform="translate(640,1247)"/>
<path d="M0 0 C9.9 0 19.8 0 30 0 C30 0.33 30 0.66 30 1 C20.1 1 10.2 1 0 1 C0 0.67 0 0.34 0 0 Z " fill="#000002" transform="translate(515,1247)"/>
<path d="M0 0 C0.33 0 0.66 0 1 0 C1 8.58 1 17.16 1 26 C0.67 26 0.34 26 0 26 C0 17.42 0 8.84 0 0 Z " fill="#000002" transform="translate(1085,631)"/>
<path d="M0 0 C2.64 0 5.28 0 8 0 C8 0.33 8 0.66 8 1 C5.36 1 2.72 1 0 1 C0 0.67 0 0.34 0 0 Z " fill="#1A4ED6" transform="translate(885,447)"/>
<path d="M0 0 C0.33 0 0.66 0 1 0 C1 2.31 1 4.62 1 7 C0.67 7 0.34 7 0 7 C0 4.69 0 2.38 0 0 Z " fill="#1A4ED6" transform="translate(547,368)"/>
<path d="M0 0 C0.33 0 0.66 0 1 0 C1 1.98 1 3.96 1 6 C0.67 6 0.34 6 0 6 C0 4.02 0 2.04 0 0 Z " fill="#1A4ED6" transform="translate(177,926)"/>
<path d="M0 0 C0.33 0 0.66 0 1 0 C1 1.65 1 3.3 1 5 C0.67 5 0.34 5 0 5 C0 3.35 0 1.7 0 0 Z " fill="#1A4ED6" transform="translate(694,640)"/>
<path d="M0 0 C1 4 1 4 1 4 Z " fill="#000002" transform="translate(1072,716)"/>
<path d="M0 0 C3 1 3 1 3 1 Z " fill="#000002" transform="translate(744,1232)"/>
<path d="M0 0 C3 1 3 1 3 1 Z " fill="#1A4ED6" transform="translate(557,347)"/>
<path d="M0 0 C3 1 3 1 3 1 Z " fill="#1A4ED6" transform="translate(264,117)"/>
<path d="M0 0 C2 1 2 1 2 1 Z " fill="#000002" transform="translate(429,1232)"/>
<path d="M0 0 C2 1 2 1 2 1 Z " fill="#1A4ED6" transform="translate(703,1029)"/>
<path d="" fill="#1A4ED6" transform="translate(0,0)"/>
<path d="M0 0 C2 1 2 1 2 1 Z " fill="#1A4ED6" transform="translate(765,970)"/>
<path d="M0 0 C2 1 2 1 2 1 Z " fill="#1A4ED6" transform="translate(881,892)"/>
<path d="" fill="#1A4ED6" transform="translate(0,0)"/>
<path d="M0 0 C2 1 2 1 2 1 Z " fill="#000002" transform="translate(941,832)"/>
<path d="M0 0 C2 1 2 1 2 1 Z " fill="#000002" transform="translate(840,832)"/>
<path d="M0 0 C2 1 2 1 2 1 Z " fill="#1A4ED6" transform="translate(966,772)"/>
<path d="" fill="#1A4ED6" transform="translate(0,0)"/>
<path d="" fill="#1A4ED6" transform="translate(0,0)"/>
<path d="" fill="#1A4ED6" transform="translate(0,0)"/>
<path d="" fill="#000002" transform="translate(0,0)"/>
<path d="" fill="#000002" transform="translate(0,0)"/>
<path d="" fill="#000002" transform="translate(0,0)"/>
<path d="" fill="#000002" transform="translate(0,0)"/>
<path d="M0 0 C2 1 2 1 2 1 Z " fill="#1A4ED6" transform="translate(752,500)"/>
<path d="M0 0 C2 1 2 1 2 1 Z " fill="#000002" transform="translate(854,497)"/>
<path d="M0 0 C2 1 2 1 2 1 Z " fill="#1A4ED6" transform="translate(972,464)"/>
<path d="M0 0 C2 1 2 1 2 1 Z " fill="#1A4ED6" transform="translate(948,455)"/>
<path d="M0 0 C2 1 2 1 2 1 Z " fill="#000002" transform="translate(874,362)"/>
<path d="" fill="#1A4ED6" transform="translate(0,0)"/>
<path d="" fill="#000002" transform="translate(0,0)"/>
<path d="M0 0 C2 1 2 1 2 1 Z " fill="#1A4ED6" transform="translate(216,187)"/>
<path d="" fill="#1A4ED6" transform="translate(0,0)"/>
<path d="" fill="#1A4ED6" transform="translate(0,0)"/>
<path d="" fill="#1A4ED6" transform="translate(0,0)"/>
<path d="M0 0 C2 1 2 1 2 1 Z " fill="#1A4ED6" transform="translate(710,7)"/>
<path d="" fill="#000002" transform="translate(0,0)"/>
<path d="" fill="#000002" transform="translate(0,0)"/>
<path d="" fill="#000002" transform="translate(0,0)"/>
<path d="" fill="#000002" transform="translate(0,0)"/>
<path d="" fill="#1A4ED6" transform="translate(0,0)"/>
<path d="" fill="#000002" transform="translate(0,0)"/>
<path d="" fill="#000002" transform="translate(0,0)"/>
<path d="" fill="#1A4ED6" transform="translate(0,0)"/>
<path d="" fill="#1A4ED6" transform="translate(0,0)"/>
<path d="" fill="#000002" transform="translate(0,0)"/>
<path d="" fill="#1A4ED6" transform="translate(0,0)"/>
<path d="" fill="#1A4ED6" transform="translate(0,0)"/>
<path d="" fill="#1A4ED6" transform="translate(0,0)"/>
<path d="" fill="#1A4ED6" transform="translate(0,0)"/>
<path d="" fill="#1A4ED6" transform="translate(0,0)"/>
<path d="" fill="#1A4ED6" transform="translate(0,0)"/>
<path d="" fill="#1A4ED6" transform="translate(0,0)"/>
<path d="" fill="#1A4ED6" transform="translate(0,0)"/>
<path d="" fill="#1A4ED6" transform="translate(0,0)"/>
<path d="" fill="#000002" transform="translate(0,0)"/>
<path d="" fill="#1A4ED6" transform="translate(0,0)"/>
<path d="" fill="#1A4ED6" transform="translate(0,0)"/>
<path d="" fill="#000002" transform="translate(0,0)"/>
<path d="" fill="#000002" transform="translate(0,0)"/>
<path d="" fill="#1A4ED6" transform="translate(0,0)"/>
<path d="" fill="#1A4ED6" transform="translate(0,0)"/>
<path d="" fill="#1A4ED6" transform="translate(0,0)"/>
<path d="" fill="#1A4ED6" transform="translate(0,0)"/>
<path d="" fill="#000002" transform="translate(0,0)"/>
<path d="" fill="#1A4ED6" transform="translate(0,0)"/>
<path d="" fill="#1A4ED6" transform="translate(0,0)"/>
<path d="" fill="#1A4ED6" transform="translate(0,0)"/>
<path d="" fill="#1A4ED6" transform="translate(0,0)"/>
<path d="" fill="#1A4ED6" transform="translate(0,0)"/>
<path d="" fill="#000002" transform="translate(0,0)"/>
<path d="" fill="#1A4ED6" transform="translate(0,0)"/>
<path d="" fill="#1A4ED6" transform="translate(0,0)"/>
<path d="" fill="#000002" transform="translate(0,0)"/>
<path d="" fill="#000002" transform="translate(0,0)"/>
<path d="" fill="#000002" transform="translate(0,0)"/>
<path d="" fill="#1A4ED6" transform="translate(0,0)"/>
<path d="" fill="#1A4ED6" transform="translate(0,0)"/>
<path d="" fill="#000002" transform="translate(0,0)"/>
<path d="" fill="#1A4ED6" transform="translate(0,0)"/>
<path d="" fill="#1A4ED6" transform="translate(0,0)"/>
<path d="" fill="#1A4ED6" transform="translate(0,0)"/>
<path d="" fill="#1A4ED6" transform="translate(0,0)"/>
<path d="" fill="#1A4ED6" transform="translate(0,0)"/>
<path d="" fill="#1A4ED6" transform="translate(0,0)"/>
<path d="" fill="#1A4ED6" transform="translate(0,0)"/>
<path d="" fill="#1A4ED6" transform="translate(0,0)"/>
<path d="" fill="#1A4ED6" transform="translate(0,0)"/>
<path d="" fill="#1A4ED6" transform="translate(0,0)"/>
<path d="" fill="#000002" transform="translate(0,0)"/>
<path d="" fill="#000002" transform="translate(0,0)"/>
<path d="" fill="#1A4ED6" transform="translate(0,0)"/>
<path d="" fill="#1A4ED6" transform="translate(0,0)"/>
<path d="" fill="#000002" transform="translate(0,0)"/>
<path d="" fill="#000002" transform="translate(0,0)"/>
<path d="" fill="#000002" transform="translate(0,0)"/>
<path d="" fill="#1A4ED6" transform="translate(0,0)"/>
<path d="" fill="#000002" transform="translate(0,0)"/>
<path d="" fill="#1A4ED6" transform="translate(0,0)"/>
<path d="" fill="#1A4ED6" transform="translate(0,0)"/>
<path d="" fill="#000002" transform="translate(0,0)"/>
<path d="" fill="#1A4ED6" transform="translate(0,0)"/>
<path d="" fill="#000002" transform="translate(0,0)"/>
<path d="" fill="#1A4ED6" transform="translate(0,0)"/>
<path d="" fill="#1A4ED6" transform="translate(0,0)"/>
<path d="" fill="#000002" transform="translate(0,0)"/>
<path d="" fill="#1A4ED6" transform="translate(0,0)"/>
<path d="" fill="#1A4ED6" transform="translate(0,0)"/>
<path d="" fill="#1A4ED6" transform="translate(0,0)"/>
<path d="" fill="#1A4ED6" transform="translate(0,0)"/>
<path d="" fill="#1A4ED6" transform="translate(0,0)"/>
<path d="" fill="#1A4ED6" transform="translate(0,0)"/>
<path d="" fill="#1A4ED6" transform="translate(0,0)"/>
<path d="" fill="#1A4ED6" transform="translate(0,0)"/>
<path d="" fill="#1A4ED6" transform="translate(0,0)"/>
<path d="" fill="#1A4ED6" transform="translate(0,0)"/>
<path d="" fill="#1A4ED6" transform="translate(0,0)"/>
<path d="" fill="#1A4ED6" transform="translate(0,0)"/>
<path d="" fill="#1A4ED6" transform="translate(0,0)"/>
<path d="" fill="#1A4ED6" transform="translate(0,0)"/>
<path d="" fill="#1A4ED6" transform="translate(0,0)"/>
<path d="" fill="#1A4ED6" transform="translate(0,0)"/>
<path d="" fill="#1A4ED6" transform="translate(0,0)"/>
<path d="" fill="#1A4ED6" transform="translate(0,0)"/>
<path d="" fill="#1A4ED6" transform="translate(0,0)"/>
<path d="" fill="#000002" transform="translate(0,0)"/>
<path d="" fill="#1A4ED6" transform="translate(0,0)"/>
<path d="" fill="#1A4ED6" transform="translate(0,0)"/>
<path d="" fill="#1A4ED6" transform="translate(0,0)"/>
<path d="" fill="#1A4ED6" transform="translate(0,0)"/>
<path d="" fill="#1A4ED6" transform="translate(0,0)"/>
<path d="" fill="#1A4ED6" transform="translate(0,0)"/>
<path d="" fill="#1A4ED6" transform="translate(0,0)"/>
<path d="" fill="#1A4ED6" transform="translate(0,0)"/>
<path d="" fill="#1A4ED6" transform="translate(0,0)"/>
<path d="" fill="#1A4ED6" transform="translate(0,0)"/>
<path d="" fill="#000002" transform="translate(0,0)"/>
<path d="" fill="#000002" transform="translate(0,0)"/>
</svg>
