<svg width="12" height="12" viewBox="0 0 12 12" fill="none" xmlns="http://www.w3.org/2000/svg">
<g clip-path="url(#clip0_5040_22071)">
<path d="M9 0C7.343 0 6 1.343 6 3C6 4.657 7.343 6 9 6C10.657 6 12 4.657 12 3C12 1.343 10.657 0 9 0ZM10.768 4.0605L10.061 4.7675L9.0005 3.707L7.94 4.7675L7.233 4.0605L8.2935 3L7.233 1.9395L7.94 1.2325L9.0005 2.293L10.061 1.2325L10.768 1.9395L9.7075 3L10.768 4.0605ZM7.448 6.686L7.0005 7.1895V11.9995L4.0005 9.7495V7.1895L0 2.69V1.5C0 0.673 0.673 0 1.5 0H6.363C5.5295 0.7335 5 1.805 5 3C5 4.6555 6.0115 6.0785 7.448 6.686Z" fill="#040F2D"/>
</g>
<defs>
<clipPath id="clip0_5040_22071">
<rect width="12" height="12" fill="white"/>
</clipPath>
</defs>
</svg>
