<?xml version="1.0" encoding="utf-8"?><!-- Uploaded to: SVG Repo, www.svgrepo.com, Generator: SVG Repo Mixer Tools -->
<svg width="800px" height="800px" viewBox="0 0 80 80" fill="none" xmlns="http://www.w3.org/2000/svg">
<path d="M49.1167 36.4135C45.2174 40.861 45.6715 47.6365 50.1294 51.5463C54.5873 55.4561 61.3681 55.0229 65.2675 50.5754C69.1668 46.128 68.7127 39.3524 64.2548 35.4426C59.7917 31.5328 53.0161 31.966 49.1167 36.4135Z" fill="url(#paint0_linear)"/>
<path d="M49.1167 36.4135C45.2174 40.861 45.6715 47.6365 50.1294 51.5463C54.5873 55.4561 61.3681 55.0229 65.2675 50.5754C69.1668 46.128 68.7127 39.3524 64.2548 35.4426C59.7917 31.5328 53.0161 31.966 49.1167 36.4135Z" fill="url(#paint1_linear)"/>
<path d="M49.1167 36.4135C45.2174 40.861 45.6715 47.6365 50.1294 51.5463C54.5873 55.4561 61.3681 55.0229 65.2675 50.5754C69.1668 46.128 68.7127 39.3524 64.2548 35.4426C59.7917 31.5328 53.0161 31.966 49.1167 36.4135Z" fill="url(#paint2_linear)"/>
<path d="M18.9189 40.4436C13.0254 38.2355 6.03062 17.0005 11.188 17.0005C16.3454 17.0005 41.2605 20.6806 47.0287 19.9446C52.7968 19.2086 64.7663 17.7939 69.861 22.8887C74.9558 27.9834 73.9118 45.5957 73.9118 49.5264C73.9118 53.4571 70.477 55.1745 66.6716 54.5585C62.8662 53.9426 51.8833 43.205 51.8833 39.3996C51.8833 39.3996 57.714 38.1102 59.5515 38.7262C61.3889 39.3422 60.6581 41.5502 60.6581 41.5502C60.6581 41.5502 64.1556 45.0477 64.7089 45.601C64.7089 45.601 61.8849 42.5316 61.8849 40.4436C61.8849 38.3556 61.6395 35.4115 63.9729 33.6941C63.9729 33.6941 60.1048 38.1155 56.3621 38.1155C51.6954 38.1155 52.494 37.3168 51.6954 38.1155L18.9189 40.4436Z" fill="url(#paint3_linear)"/>
<path d="M11.1828 17C6.0254 17 5.28937 28.9069 6.51608 34.5549C7.74278 40.203 13.0202 38.235 18.9136 40.4483C24.807 42.6616 27.7772 50.0688 33.3992 54.3179C38.4313 58.1233 40.3731 55.4454 56.3516 63.1554C59.0191 64.4395 66.6612 63.4269 64.782 53.8012C56.8423 49.8966 50.8915 38.9136 51.6849 38.115C51.6849 38.115 43.526 38.115 39.9921 38.115C36.4581 38.115 20.8816 17 11.1828 17Z" fill="url(#paint4_linear)"/>
<path d="M64.9125 58.3841V58.4259C63.9102 63.7242 58.5075 64.1888 56.3516 63.15C40.3732 55.44 38.4313 58.1179 33.3992 54.3125C27.7772 50.0582 24.807 42.651 18.9136 40.4429C13.0202 38.2348 7.74279 40.1976 6.51608 34.5495C6.34382 33.7665 6.21855 32.853 6.12981 31.8769C10.4468 32.8582 15.2283 31.1147 19.7749 31.1147C25.423 31.1147 32.1725 49.1551 43.3433 54.6831C54.5142 60.2059 64.9125 58.3841 64.9125 58.3841Z" fill="url(#paint5_linear)"/>
<path d="M50.2181 53.9112C53.1257 53.7807 58.163 54.214 60.1779 50.6278C61.603 51.8859 63.1481 52.9978 64.7872 53.8016C66.6664 63.4274 59.0243 64.44 56.3569 63.1559C40.3784 55.4459 38.4366 58.1238 33.4044 54.3184C28.6072 50.6905 25.731 44.771 21.3305 41.7382L21.3201 41.7173C21.3201 41.7173 24.1963 43.2102 30.8205 49.2863C37.4447 55.3624 46.6581 54.0731 50.2181 53.9112Z" fill="url(#paint6_linear)"/>
<path d="M6.48473 34.3618C8.75022 34.6646 12.0023 34.8734 15.8494 34.4349C23.335 33.5736 31.071 51.1285 35.3671 53.9526C39.6632 56.7766 53.5328 59.6006 57.9541 59.6006C61.2219 59.6006 63.6805 58.1808 65.0377 55.7065C65.6015 63.5522 58.8363 64.3561 56.3568 63.1607C40.3783 55.4507 38.4365 58.1286 33.4044 54.3232C27.7824 50.0689 24.8122 42.6617 18.9188 40.4536C13.0254 38.2455 7.74797 40.2083 6.52127 34.5602C6.50561 34.4923 6.50039 34.4245 6.48473 34.3618Z" fill="url(#paint7_linear)"/>
<path d="M73.9117 49.5313C73.9117 53.4568 70.477 55.1794 66.6716 54.5634C64.4635 54.2084 59.8542 50.45 56.362 46.6081C62.8923 51.588 66.2487 51.4993 68.7596 51.2487C73.7969 50.7424 71.949 43.1472 71.949 39.6498C71.949 36.1524 73.1757 29.168 69.861 22.8936C74.9505 27.9883 73.9117 45.6006 73.9117 49.5313Z" fill="url(#paint8_linear)"/>
<path d="M10.7234 17.0679C10.8644 17.0261 11.0209 17 11.188 17C16.3454 17 41.2605 20.6801 47.0287 19.9441C52.7968 19.2081 64.7663 17.7987 69.861 22.8882C70.6336 23.6607 63.3569 18.2215 49.978 20.6801C39.8198 22.5437 24.8123 17.2453 8.20736 18.8844C8.8703 17.8978 9.69507 17.2245 10.7234 17.0679Z" fill="url(#paint9_linear)"/>
<path d="M64.7871 53.8015C59.8699 55.2213 48.2553 42.2861 48.2553 34.9206C48.2553 33.3233 52.9064 35.474 56.9728 35.474C60.1465 35.474 62.3128 33.386 64.5209 32.5299C65.9773 31.9661 61.8796 39.7752 65.1786 44.9587C67.5433 48.6702 63.4143 45.6008 62.5843 44.4994C61.7543 43.3927 58.3822 42.8446 58.3822 42.8446C58.3822 42.8446 59.1808 39.7126 56.9728 40.0832C54.7647 40.4539 52.922 40.3077 52.922 40.3077C52.922 40.3077 60.1831 51.7761 64.7871 53.8015Z" fill="url(#paint10_linear)"/>
<path d="M51.0481 37.2852C52.0294 35.3224 54.0861 38.0316 57.5157 36.9459C60.1413 36.1159 62.8871 33.2762 63.5709 34.3567C64.2547 35.4373 62.7096 38.538 62.7096 40.2293C62.7096 41.9153 64.6723 44.8333 65.1317 45.538C65.591 46.2427 63.4404 45.2353 62.339 44.0033C61.5403 43.1107 60.3501 42.145 59.8438 42.0772C59.3374 42.0093 59.635 39.3158 57.6566 39.3158C55.6834 39.3158 53.0421 39.1331 52.0033 39.7281C53.0369 42.2181 56.0749 47.0101 60.1361 50.6014C60.1518 50.6119 60.1622 50.6275 60.1779 50.638C60.4858 50.9094 60.7991 51.1704 61.1227 51.4262C61.1801 51.468 61.2323 51.5149 61.2845 51.5619C61.5716 51.7916 61.8692 52.0056 62.1667 52.2144C62.2502 52.2771 62.3337 52.3397 62.4225 52.4023C62.7096 52.6007 63.0019 52.7834 63.2942 52.9661C63.3934 53.0288 63.4874 53.0966 63.5865 53.154C63.9728 53.3837 64.3643 53.5925 64.7558 53.7909C64.7663 53.7961 64.7715 53.8013 64.7819 53.8013C65.1787 55.8215 65.1369 57.4397 64.8237 58.7603C64.3539 55.3099 59.7394 51.6559 56.3203 47.9653C52.8907 44.2487 50.0667 39.2479 51.0481 37.2852ZM59.5463 38.7259C61.3889 39.3419 60.6529 41.5499 60.6529 41.5499C60.6529 41.5499 64.1503 45.0473 64.7036 45.6007C64.7036 45.6007 61.8796 42.5313 61.8796 40.4433C61.8796 38.705 61.7282 36.3717 63.028 34.649C61.6551 35.9488 58.9773 38.1099 56.3568 38.1099C51.6901 38.1099 52.4888 37.3113 51.6901 38.1099C51.5492 38.2509 51.6275 38.7207 51.8833 39.3993C51.9407 39.3888 57.714 38.1151 59.5463 38.7259Z" fill="url(#paint11_linear)"/>
<path d="M51.878 39.3993C53.7311 39.227 55.5373 38.7886 57.3851 38.7103C58.283 38.6842 59.28 38.6111 60.0056 39.1018C60.7364 39.6081 60.799 40.6678 60.5589 41.5082V41.5134C60.5485 41.5499 60.5589 41.5917 60.585 41.6178L64.6201 45.6842C64.6671 45.7312 64.7454 45.7312 64.7976 45.6842C64.8446 45.6372 64.8446 45.5589 64.8028 45.5119C64.0772 44.6872 63.4143 43.7998 62.861 42.8549C62.2972 41.8997 61.9318 40.8922 62.031 39.7699C62.0257 38.6685 62.0623 37.5619 62.3807 36.5231C62.6783 35.4791 63.2994 34.5603 64.0929 33.8243L63.8423 33.579C62.8662 34.623 61.7752 35.5887 60.585 36.3821C59.4001 37.1651 58.069 37.8333 56.6596 37.9168C55.2293 37.9638 53.7833 37.9064 52.3583 37.6036C52.1495 37.5305 51.8363 37.708 51.7423 37.8385C51.6692 37.922 51.6222 37.9272 51.5335 38.0734C51.4448 38.2248 51.4709 38.324 51.4656 38.4336C51.5022 38.8407 51.6275 39.1853 51.758 39.535C52.0242 40.224 52.3583 40.8766 52.708 41.5186C54.1279 44.0712 55.8713 46.4307 57.8549 48.5709C59.8386 50.6902 62.1041 52.6529 64.7924 53.8065C62.2711 52.3554 60.0369 50.4971 58.069 48.3725C56.1115 46.2427 54.3836 43.8937 52.9899 41.3672C52.6454 40.7304 52.3217 40.0883 52.0659 39.4202C51.9407 39.0913 51.8258 38.7416 51.7997 38.4232C51.7945 38.2509 51.8049 38.2457 51.972 38.0891C52.1234 37.9586 52.1547 37.9116 52.3165 37.9429C53.7311 38.2509 55.2188 38.3188 56.6804 38.2718C58.189 38.183 59.5671 37.4888 60.7834 36.6953C62.0153 35.8862 63.1115 34.9048 64.1033 33.8191C64.166 33.746 64.166 33.6364 64.0929 33.5738C64.025 33.5111 63.9206 33.5163 63.8528 33.579C63.028 34.3567 62.3755 35.3433 62.0675 36.4448C61.7439 37.5358 61.7178 38.6789 61.7282 39.7856C61.7282 40.3232 61.723 40.9288 61.9161 41.4716C62.0884 42.0145 62.3337 42.5261 62.6208 43.0115C63.195 43.9773 63.8684 44.8647 64.6149 45.6999L64.7924 45.5276L60.726 41.4925L60.7521 41.5969L60.7573 41.5865C61.0287 40.7147 61.034 39.5298 60.1622 38.9034C59.3009 38.3396 58.2882 38.4492 57.3747 38.4701C56.4403 38.5223 55.5164 38.6424 54.5977 38.7886C53.6789 38.9191 52.7602 39.0861 51.878 39.3993Z" fill="#804B24"/>
<path d="M60.7677 41.0073L60.5693 41.5241L60.6163 41.4667C59.9534 41.6755 59.327 41.9835 58.7684 42.4063C58.2255 42.8187 57.6879 43.3772 57.5626 44.0767C57.9228 43.4868 58.4343 43.0744 58.9772 42.6882C59.5201 42.3071 60.0943 41.9574 60.679 41.6233L60.7051 41.6076C60.7207 41.5972 60.7312 41.5815 60.7312 41.5659L60.7677 41.0073Z" fill="#804B24"/>
<path d="M70.597 52.0475C74.7208 50.7269 73.2383 36.2726 72.9303 30.3218L73.0243 30.3897C74.4076 37.5359 73.9117 46.8118 73.9117 49.5315C73.9117 53.4569 70.4769 55.1795 66.6715 54.5636C65.2517 54.3339 62.8296 52.6843 60.3553 50.518C62.7513 51.9379 66.9273 53.222 70.597 52.0475Z" fill="url(#paint12_linear)"/>
<path d="M7.05898 36.1055C10.6138 37.28 14.6593 36.2725 17.3215 36.2725C20.6362 36.2725 28.7377 49.4061 32.7885 52.9661C36.8392 56.5262 48.1301 58.4889 53.5328 60.697C58.7894 62.8476 63.2055 61.7253 64.9125 58.3845C63.9311 63.7194 58.5179 64.1944 56.3569 63.1556C40.3784 55.4456 38.4365 58.1235 33.4044 54.3181C27.7825 50.0638 24.8123 42.6566 18.9189 40.4485C13.6571 38.4701 8.8912 39.8117 7.05898 36.1055Z" fill="url(#paint13_linear)"/>
<path d="M67.0735 37.0975C66.5672 32.8067 68.0967 26.4695 67.1362 21.0303C68.1645 21.5262 69.0989 22.1265 69.861 22.8938C74.9558 27.9886 73.9118 45.6009 73.9118 49.5316C73.9118 53.457 70.477 55.1796 66.6716 54.5637C65.6537 54.4019 64.1138 53.4936 62.4121 52.2095C72.4345 48.6703 67.9296 44.3429 67.0735 37.0975Z" fill="url(#paint14_linear)"/>
<path opacity="0.16" d="M31.8489 29.2354C28.7534 31.313 30.8049 37.4099 34.4015 43.2198C37.3404 47.97 43.5104 51.3683 46.4806 49.2646C49.4508 47.1609 51.7058 44.7493 44.8572 35.3637C40.8169 29.8253 34.8713 27.2048 31.8489 29.2354Z" fill="url(#paint15_radial)"/>
<path opacity="0.16" d="M10.8225 22.0478C10.311 24.2768 24.0918 26.5736 39.4596 28.1344C52.0242 29.4081 66.5933 28.7712 66.8856 26.5788C67.1779 24.3812 65.9303 22.3036 39.6632 20.1791C24.1858 18.9263 11.3184 19.8711 10.8225 22.0478Z" fill="url(#paint16_radial)"/>
<path opacity="0.16" d="M57.1607 43.9878C56.2524 45.1049 57.8706 47.2712 60.0474 49.1713C61.8274 50.7269 64.6671 51.4316 65.5232 50.3197C66.3793 49.2078 66.9221 48.0438 63.0019 45.0736C60.6999 43.3249 58.0481 42.8968 57.1607 43.9878Z" fill="url(#paint17_radial)"/>
<defs>
<linearGradient id="paint0_linear" x1="65.2671" y1="50.5825" x2="49.1153" y2="36.4204" gradientUnits="userSpaceOnUse">
<stop offset="0.00132565" stop-color="#FFCB4B"/>
<stop offset="1" stop-color="#FFD748"/>
</linearGradient>
<linearGradient id="paint1_linear" x1="57.7337" y1="42.1538" x2="52.8852" y2="54.1217" gradientUnits="userSpaceOnUse">
<stop offset="0.00132565" stop-color="#BE8D68"/>
<stop offset="1" stop-color="#CD9870"/>
</linearGradient>
<linearGradient id="paint2_linear" x1="55.039" y1="28.7801" x2="56.7882" y2="40.7481" gradientUnits="userSpaceOnUse">
<stop stop-color="#A46C3F" stop-opacity="0"/>
<stop offset="1" stop-color="#804B24"/>
</linearGradient>
<linearGradient id="paint3_linear" x1="70.5116" y1="-7.12923" x2="46.2075" y2="28.2222" gradientUnits="userSpaceOnUse">
<stop offset="0.00132565" stop-color="#BE8D68"/>
<stop offset="1" stop-color="#CD9870"/>
</linearGradient>
<linearGradient id="paint4_linear" x1="33.145" y1="53.2493" x2="35.6" y2="41.4655" gradientUnits="userSpaceOnUse">
<stop offset="0.00132565" stop-color="#BE8D68"/>
<stop offset="1" stop-color="#CD9870"/>
</linearGradient>
<linearGradient id="paint5_linear" x1="42.9768" y1="31.8806" x2="13.5173" y2="85.8284" gradientUnits="userSpaceOnUse">
<stop stop-color="#A46C3F" stop-opacity="0"/>
<stop offset="1" stop-color="#804B24"/>
</linearGradient>
<linearGradient id="paint6_linear" x1="50.77" y1="56.0975" x2="62.9221" y2="69.1702" gradientUnits="userSpaceOnUse">
<stop stop-color="#D2A374" stop-opacity="0"/>
<stop offset="1" stop-color="#B88653"/>
</linearGradient>
<linearGradient id="paint7_linear" x1="36.4067" y1="42.7063" x2="25.2366" y2="100.766" gradientUnits="userSpaceOnUse">
<stop stop-color="#A46C3F" stop-opacity="0"/>
<stop offset="1" stop-color="#804B24"/>
</linearGradient>
<linearGradient id="paint8_linear" x1="61.2161" y1="10.4893" x2="74.9638" y2="119.858" gradientUnits="userSpaceOnUse">
<stop stop-color="#D2A374" stop-opacity="0"/>
<stop offset="1" stop-color="#B88653"/>
</linearGradient>
<linearGradient id="paint9_linear" x1="38.4483" y1="27.2265" x2="42.4989" y2="-14.5078" gradientUnits="userSpaceOnUse">
<stop stop-color="#B37E53"/>
<stop offset="1" stop-color="#CD9870"/>
</linearGradient>
<linearGradient id="paint10_linear" x1="42.7794" y1="24.7227" x2="109.309" y2="85.6058" gradientUnits="userSpaceOnUse">
<stop stop-color="#A46C3F" stop-opacity="0"/>
<stop offset="1" stop-color="#804B24"/>
</linearGradient>
<linearGradient id="paint11_linear" x1="31.6128" y1="27.9684" x2="77.8164" y2="54.278" gradientUnits="userSpaceOnUse">
<stop stop-color="#A46C3F" stop-opacity="0"/>
<stop offset="1" stop-color="#804B24"/>
</linearGradient>
<linearGradient id="paint12_linear" x1="60.0233" y1="-30.4889" x2="73.0346" y2="106.007" gradientUnits="userSpaceOnUse">
<stop stop-color="#D2A374" stop-opacity="0"/>
<stop offset="1" stop-color="#B88653"/>
</linearGradient>
<linearGradient id="paint13_linear" x1="43.8023" y1="7.86253" x2="27.1499" y2="91.7652" gradientUnits="userSpaceOnUse">
<stop stop-color="#A46C3F" stop-opacity="0"/>
<stop offset="1" stop-color="#804B24"/>
</linearGradient>
<linearGradient id="paint14_linear" x1="60.5085" y1="37.3747" x2="101.384" y2="40.1979" gradientUnits="userSpaceOnUse">
<stop stop-color="#D2A374" stop-opacity="0"/>
<stop offset="1" stop-color="#B88653"/>
</linearGradient>
<radialGradient id="paint15_radial" cx="0" cy="0" r="1" gradientUnits="userSpaceOnUse" gradientTransform="translate(39.4263 39.0639) rotate(-126.156) scale(12.7303 6.65798)">
<stop stop-color="#F8DBBA"/>
<stop offset="1" stop-color="#CD9870" stop-opacity="0"/>
</radialGradient>
<radialGradient id="paint16_radial" cx="0" cy="0" r="1" gradientUnits="userSpaceOnUse" gradientTransform="translate(38.8762 24.1246) rotate(-175.382) scale(28.8709 4.04572)">
<stop stop-color="#F8DBBA"/>
<stop offset="1" stop-color="#CD9870" stop-opacity="0"/>
</radialGradient>
<radialGradient id="paint17_radial" cx="0" cy="0" r="1" gradientUnits="userSpaceOnUse" gradientTransform="translate(61.4249 47.0505) rotate(-142.868) scale(5.38479 2.57216)">
<stop stop-color="#F8DBBA"/>
<stop offset="1" stop-color="#CD9870" stop-opacity="0"/>
</radialGradient>
</defs>
</svg>