<?xml version="1.0" standalone="no"?>
<!DOCTYPE svg PUBLIC "-//W3C//DTD SVG 1.0//EN" "http://www.w3.org/TR/2001/REC-SVG-20010904/DTD/svg10.dtd">
<svg xmlns="http://www.w3.org/2000/svg" xmlns:xlink="http://www.w3.org/1999/xlink" id="body_1"
	width="158" height="38">

	<g transform="matrix(1 0 0 1 0 0)">
		<g transform="matrix(0.78606963 0 0 0.7916667 0 0)">
			<g transform="matrix(0.34358975 0 0 0.34285718 0 0)">
				<g>
					<g>
						<path
							d="M28.141 93.69301C 27.803001 93.87001 27.474 94.08901 27.154001 94.34401L27.154001 94.34401L0.042001724 94.34401L0.042001724 122.23301L17.177002 139.50201L74.854004 139.50201L91.65401 122.721016L91.65401 70.610016L74.24501 53.78602L52.48801 53.78602C 52.41501 52.190018 52.75001 50.781017 52.75001 50.781017C 55.07601 49.636017 57.45101 52.52202 57.45101 52.52202C 58.56201 52.428017 59.96601 53.231018 59.96601 53.231018C 61.616013 52.68902 66.56701 53.968018 66.79201 53.606018C 66.98101 50.650017 65.77501 48.84702 64.78601 47.88202L64.78601 47.88202L91.66001 47.88202L91.66001 19.585018L72.516014 1.9073486E-05L19.966015 1.9073486E-05L1.5258789E-05 19.82902L1.5258789E-05 70.84102L17.342014 88.183014L33.116013 88.183014C 32.754013 89.10902 32.379013 89.875015 32.379013 89.875015L32.379013 89.875015L28.141014 93.693016L28.141 93.69301zM57.253 43.187008C 56.684 42.925007 55.932 42.919006 55.932 42.919006L55.932 42.919006L54.891 41.795006C 54.891 39.457005 52.346 40.093006 52.346 40.093006L52.346 40.093006L52.559002 38.821007C 53.256 38.821007 55.190002 39.097008 57.260002 39.384007L57.260002 39.384007L57.260002 43.186005L57.253002 43.186005L57.253002 43.187004zM55.295 97.29201L58.799 97.43201L58.799 105.884L50.469 105.884L50.463 104.453L50.554 96.78001C 50.697002 94.92901 52.076 96.031006 52.076 96.031006C 53.244 97.20701 55.295002 97.29201 55.295002 97.29201zM57.253 34.905006C 57.153 34.869007 57.052 34.817005 56.952 34.774006L56.952 34.774006L57.253 34.774006L57.253 34.905006zM18.275997 85.92401L2.289997 69.93901L2.289997 20.85701L20.870996 2.3580093L71.52599 2.3580093L89.577995 20.869009L89.577995 45.612007L61.977997 45.612007C 61.779995 45.293007 61.649 45.043007 61.649 45.043007C 61.162 44.157005 60.306 43.828007 59.532997 43.716007L59.532997 43.716007L59.532997 39.694008C 61.715996 39.980007 63.6 40.181007 63.822998 39.95601C 64.846 38.92701 62.209 37.27401 59.532997 35.958008L59.532997 35.958008L59.532997 32.530006L52.063995 32.530006C 50.206997 31.281006 49.917995 30.204006 49.917995 30.204006C 49.281994 26.170006 53.735996 27.817005 53.735996 27.817005C 56.091995 27.997005 56.578995 26.657005 56.578995 26.657005C 55.668995 24.023005 52.343994 23.177006 51.813995 22.951006C 51.183994 22.689007 51.083996 22.451006 51.326996 21.968006C 51.493996 21.636005 53.284996 22.446007 53.865997 21.874006C 55.192997 20.540007 50.572 17.590006 50.572 17.590006C 53.579998 17.423006 50.260998 14.348005 50.260998 14.348005C 48.260998 12.765005 48.957996 11.373005 48.957996 11.373005C 51.070995 11.586005 51.064995 9.373005 50.735996 9.290005C 47.623997 8.578005 48.153996 7.3630047 48.153996 7.3630047C 48.153996 6.3030047 47.635994 5.2050047 47.635994 5.2050047C 48.058994 3.2990046 47.197994 3.6800046 47.197994 3.6800046C 45.927994 3.6800046 46.661995 4.8160048 46.661995 4.8160048C 46.202995 6.734005 44.880997 8.061005 44.880997 8.061005C 42.01 8.006004 43.507996 10.701005 43.507996 10.701005L43.507996 10.701005L45.291996 10.540005L44.874996 12.284004C 40.733997 14.093004 41.866997 17.073004 44.226997 17.347004C 44.436996 17.883003 44.101997 18.364004 44.101997 18.364004C 41.644997 18.470005 42.135 19.412004 40.059 20.423004C 38.450996 21.220005 38.488 22.042004 38.613 22.624004C 38.85 23.784004 40.403 22.679005 40.403 22.679005L40.403 22.679005L38.875 24.755005C 33.763 27.029005 38.272 28.515005 38.272 28.515005C 42.294 26.110004 43.864998 27.029005 43.864998 27.029005C 44.501 29.556005 43.239998 31.346004 41.769997 32.518005L41.769997 32.518005L33.862995 32.518005C 33.862995 33.240005 33.862995 34.494007 33.862995 36.071007C 31.386995 37.785007 30.483995 40.080006 30.483995 40.080006C 28.787996 41.782005 29.633995 42.626007 29.633995 42.626007C 30.476995 43.049007 32.263996 42.364006 33.856995 41.57501C 33.856995 43.161007 33.856995 44.814007 33.856995 46.410007C 33.725994 46.47101 33.637993 46.516006 33.637993 46.516006C 32.57799 48.635006 28.544992 50.337006 28.544992 50.337006C 23.667992 52.449005 25.999992 55.220005 25.999992 55.220005C 26.778992 55.351006 30.831993 54.513004 33.857994 53.859005C 33.857994 54.833004 33.857994 55.619003 33.857994 56.136005C 34.816994 56.136005 37.486996 56.136005 40.997993 56.136005C 40.099995 57.661007 38.522995 59.247005 38.522995 59.247005C 37.879993 61.366005 35.340996 62.222004 35.340996 62.222004C 28.550995 63.915005 28.968996 66.247 28.968996 66.247L28.968996 66.247L34.061996 65.824005C 35.547997 64.55401 36.612995 65.824005 36.612995 65.824005L36.612995 65.824005L38.308994 66.247C 39.164993 67.520004 37.903996 71.289 37.903996 71.289L37.903996 71.289L34.511997 71.289C 34.298996 72.568 31.966997 72.556 31.966997 72.556C 30.906998 72.142 29.628998 73.414 29.628998 73.414C 29.205997 74.261 27.296997 75.113 27.296997 75.113C 25.600998 75.527 26.873997 76.38 26.873997 76.38C 28.362997 75.32 28.362997 77.646996 28.362997 77.646996C 27.939997 78.712 24.486998 78.663994 24.541996 79.559C 24.648996 81.142 36.214996 76.368 36.214996 76.368C 37.696995 75.114 38.756996 75.746994 38.756996 75.746994C 39.818996 77.439995 36.637997 79.55899 36.637997 79.55899C 35.365997 81.04399 33.295 81.86099 33.295 81.86099C 28.395998 82.65299 27.844997 85.48999 27.795998 85.90999C 22.246998 85.92399 18.275997 85.92399 18.275997 85.92399zM36.851997 39.88401C 39.19 37.54501 40.885998 39.88401 40.885998 39.88401C 44.92 41.37201 42.164997 42.84901 42.164997 42.84901C 41.635 42.84901 38.517998 44.25301 36.204 45.31901L36.204 45.31901L36.204 40.289013C 36.607998 40.051014 36.851997 39.884014 36.851997 39.884014zM36.203 34.894012L36.203 34.775013L36.544 34.775013C 36.425 34.81201 36.315 34.857014 36.203 34.894012zM37.25 53.094013C 41.071 51.617012 41.284 53.742012 41.284 53.742012C 41.296 53.755013 41.303 53.761013 41.315 53.77901L41.315 53.77901L36.203 53.77901L36.203 53.34301C 36.851997 53.19401 37.25 53.09401 37.25 53.09401zM44.384 97.14601C 45.074997 98.570015 45.205997 102.45501 45.205997 102.45501L45.205997 102.45501L45.205997 103.24701L45.129997 105.89601L37.482 105.89601L37.482 98.94201C 39.166 97.71801 40.297997 95.41601 40.297997 95.41601C 42.456997 94.51601 43.688995 95.72101 44.383995 97.14601zM28.064999 85.92401L33.265 84.85801C 33.682 84.91401 33.788 85.33401 33.739998 85.92401C 31.742998 85.92401 29.830997 85.92401 28.064999 85.92401zM33.233997 100.69501C 33.87 99.618004 34.929996 99.63601 34.929996 99.63601C 35.005997 99.64801 35.072998 99.642006 35.142998 99.65401C 35.142998 102.43101 35.142998 106.425 35.142998 108.25801C 36.643997 108.25801 40.724 108.25801 45.236 108.25801L45.236 108.25801L45.056 112.27101C 45.007 114.07401 44.889 117.92101 44.742 119.01701C 44.313 122.27502 43.57 122.73201 43.11 123.03101C 42.462 123.43901 41.509 123.60902 40.111 124.20602C 36.673 125.655014 36.969 129.27802 35.31 130.33202C 33.282 131.62302 33.839 131.20901 32.037003 131.61002C 30.228003 132.01201 29.254002 134.01501 29.254002 134.01501L29.254002 134.01501L66.099 134.01501C 65.956 132.876 66.205 131.84702 61.889 130.41602C 57.681 129.02101 59.806 128.26701 54.384 125.50902C 52.432 124.52202 51.403 121.015015 50.867 118.390015C 50.462 116.39301 50.702 115.48001 50.702 115.48001L50.702 115.48001L50.492 109.433014L50.486 108.25801C 55.199 108.25801 59.52 108.25801 61.072 108.25801C 61.072 106.571014 61.078 102.10801 61.078 97.55301C 63.599 97.98601 67.812996 101.323006 67.812996 101.323006C 72.27 103.87501 71.423996 101.103004 71.423996 101.103004C 70.15099 91.994 64.843994 91.142006 64.843994 91.142006C 61.664993 90.28801 63.783993 88.37601 63.783993 88.37601C 67.607994 85.41101 63.092995 84.59501 63.092995 84.59501C 60.124996 85.003006 56.975994 83.00001 56.975994 83.00001C 51.668995 78.963005 53.608994 76.37501 53.608994 76.37501C 54.031994 73.616005 60.337994 77.70801 60.337994 77.70801C 62.033993 79.19401 63.729992 77.909004 63.729992 77.909004C 63.93999 77.063 65.91899 75.522 65.91899 75.522C 69.52699 72.763 60.82199 72.136 60.82199 72.136C 56.680992 69.548004 54.138992 68.671005 52.90899 65.426C 52.56199 64.515 52.543987 63.909004 52.543987 63.909004C 52.543987 63.909004 59.064987 64.51501 59.427986 64.59701C 59.792988 64.67601 62.143986 64.93801 62.082985 64.116005C 62.040985 63.513004 60.892986 61.735004 58.228985 60.536003C 55.896984 59.494003 53.901985 57.446003 53.098984 56.121002C 63.118984 56.121002 73.23299 56.121002 73.23299 56.121002L73.23299 56.121002L89.582985 71.812004L89.582985 121.518005L73.60799 137.502L18.361988 137.502L2.3259888 121.283L2.3259888 96.707L24.95299 96.707C 22.346989 100.294 20.78799 105.317 20.78799 105.317C 20.574991 107.863 24.130991 105.744 24.130991 105.744C 24.130991 105.744 24.486992 105.104004 24.602991 104.89101C 25.86399 102.76501 29.279991 102.55801 29.279991 102.55801C 30.96899 102.967 33.23399 100.69501 33.23399 100.69501z"
							stroke="none" fill="#111827" fill-rule="nonzero" />
						<path
							d="M49.139 7.22801C 49.27 7.34001 49.708 7.67801 51.036 7.9770103C 51.773 8.144011 52.251 8.83001 52.263 9.64201C 52.263 9.76101 52.251 9.89201 52.239002 10.01701C 52.102 10.83901 51.478 12.10001 50.4 12.410009C 50.47 12.459009 50.960003 12.84001 50.960003 12.84001C 52.802002 14.27401 54.303 16.97401 52.762 17.48601C 54.851 18.91401 55.545002 20.39101 55.569 20.96601C 55.63 22.26301 54.863 22.567009 54.726 22.756008C 55.944 23.347008 57.284 24.519009 57.871002 26.227009L57.871002 26.227009L58.026 26.690008L57.861 27.143007C 57.557 27.999008 56.318 29.403008 53.629 29.202007L53.629 29.202007L53.468002 29.178007L53.31 29.135008C 52.5 28.880009 51.672 28.779007 51.34 29.072008C 51.255 29.154009 51.149 29.279009 51.149 29.553009C 51.149 29.65901 51.267998 29.821009 51.28 29.939009C 51.322 30.022009 51.423 30.17701 51.591 30.381008L51.591 30.381008L61.86 30.381008L61.86 35.632008C 63.72 36.710007 65.115 37.876007 65.364 39.01201C 65.394 39.14901 65.416 39.292007 65.422 39.43501C 65.422 39.98301 65.209 40.51301 64.792 40.93301C 64.335 41.39301 63.836 41.54801 61.86 41.36901L61.86 41.36901L61.86 43.25101C 61.943 43.32101 62.015 43.388012 62.098 43.470013L62.098 43.470013L87.277 43.470013L87.277 21.997013L70.584 4.8310127L48.947998 4.8310127C 48.934998 4.8920126 48.924 4.947013 48.917 4.9920125C 49.146 5.3400126 49.477 7.185013 49.139 7.2280126L49.139 7.2280126L49.139 7.22801z"
							stroke="none" fill="#111827" fill-rule="nonzero" />
						<path
							d="M35.585 78.68901L35.71 78.54901L35.858997 78.43901C 36.226997 78.196014 36.549995 77.91001 36.838997 77.62401C 36.781 77.64801 36.725998 77.66701 36.725998 77.66701C 25.831997 82.143005 24.458998 81.27701 23.941998 80.95501C 23.475998 80.68101 23.201998 80.20601 23.162998 79.67601C 23.162998 79.63401 23.156998 79.59701 23.156998 79.56101C 23.144999 78.07501 24.791998 77.64301 25.893997 77.363014C 25.445997 77.00401 25.053997 76.444016 25.040997 75.780014C 25.034996 75.67602 25.046997 75.56702 25.058996 75.457016C 25.153996 74.92101 25.545996 74.21502 26.785995 73.85001C 27.479996 73.53401 28.207996 73.138016 28.356995 72.90701C 28.375994 72.877014 28.545994 72.627014 28.545994 72.627014L28.545994 72.627014L28.682993 72.486015C 28.874992 72.292015 30.515993 70.556015 32.129993 71.22002C 32.586994 71.22002 32.966995 71.07902 33.170994 70.94002C 33.210995 70.73302 33.340992 69.929016 33.340992 69.929016L33.340992 69.929016L36.86999 69.929016C 37.10699 69.00902 37.24499 68.09302 37.23799 67.51102C 37.23799 67.46902 37.22599 67.45602 37.21999 67.405014C 36.750988 67.28601 36.27599 67.17602 36.27599 67.17602L36.27599 67.17602L35.85899 67.030014L35.58499 66.750015C 35.49099 66.65801 35.37199 66.527016 34.95499 66.88101L34.95499 66.88101L34.61999 67.17001L27.845991 67.736015L27.623991 66.51202C 27.47499 65.67101 27.553991 62.791016 34.90599 60.934017C 35.44199 60.739017 36.85799 60.02102 37.20499 58.864017L37.20499 58.864017L37.28099 58.602016L31.56299 58.602016L31.56299 55.764015C 28.932991 56.300014 26.529991 56.699017 25.78399 56.580017L25.78399 56.580017L25.28499 56.492016L24.95899 56.105015C 24.85199 55.983013 24.08499 55.039017 24.07299 53.688015C 24.07299 53.414017 24.09999 53.119015 24.17399 52.814014C 24.529991 51.286015 25.82099 50.041016 28.02199 49.079014C 29.01799 48.656013 30.55799 47.815014 31.56299 46.930016L31.56299 46.930016L31.56299 43.955017C 30.59199 44.186016 29.69999 44.205017 29.02399 43.867016L29.02399 43.867016L28.831991 43.767017L28.66999 43.61202C 28.62499 43.58802 28.064991 43.009018 28.05199 42.03502C 28.04599 41.33802 28.34999 40.433018 29.31199 39.38602C 29.54099 38.89202 30.22199 37.56502 31.56199 36.22902L31.56199 36.22902L31.56199 30.38002L42.01099 30.38002C 42.41199 29.80702 42.66799 29.13402 42.65299 28.36102C 42.65299 28.337019 42.65299 28.30902 42.646988 28.278019C 42.003986 28.33602 40.843987 28.60402 38.968987 29.724018L38.968987 29.724018L38.475986 30.026018L37.915985 29.880018C 37.260986 29.713018 35.090984 29.003017 34.947987 27.232018C 34.941986 27.183018 34.935986 27.131018 34.935986 27.083017C 34.923985 25.655018 36.274986 24.495018 37.541985 23.865017C 37.541985 23.865017 37.529984 23.859016 37.529984 23.852016C 37.328983 23.615017 37.024982 22.625017 37.06098 22.467016C 37.11898 20.746016 39.20098 19.437016 41.051983 18.022017C 41.134983 17.943016 41.218983 17.848017 41.301983 17.766016C 41.057983 17.605017 40.83898 17.410015 40.683983 17.123016C 40.534985 16.849016 40.461983 16.581017 40.461983 16.301016C 40.445984 15.235016 40.342983 13.676016 42.74198 12.048016C 42.628983 11.893016 42.36698 11.518016 42.36698 11.518016C 42.22998 11.320016 41.69998 10.023016 41.69398 9.085016C 41.68798 8.738016 41.76398 8.382016 41.94398 8.026016C 42.23598 7.4600163 42.47998 6.798016 44.00198 6.759016C 43.98998 6.759016 44.38898 6.759016 44.38898 6.759016C 44.43098 6.753016 44.94298 5.656016 45.31098 4.944016C 45.29898 4.907016 45.29898 4.871016 45.286983 4.840016L45.286983 4.840016L21.810984 4.840016L4.6149845 22.006016L4.6149845 69.14902L19.246984 83.79402L26.711985 83.79402C 27.308985 82.66702 28.855984 80.956024 32.846985 80.28602C 32.895985 80.27302 34.631985 79.81602 35.584984 78.68902L35.584984 78.68902L35.585 78.68901z"
							stroke="none" fill="#111827" fill-rule="nonzero" />
						<path
							d="M25.791 105.61601L25.155 106.74802L24.835001 106.93702C 23.995 107.44202 21.879002 108.51402 20.445002 107.61902C 20.052002 107.36302 19.425001 106.78502 19.403002 105.58602C 19.403002 105.470024 19.409002 105.35402 19.418001 105.22702L19.418001 105.22702L19.43 105.08602L19.473 104.94002C 19.628 104.429016 20.459 101.89602 21.848 99.19202L21.848 99.19202L4.6399994 99.19202L4.6399994 120.499016L19.3 135.38701L27.081999 135.38701L28.016998 133.445C 28.147999 133.18901 29.343998 130.839 31.724998 130.315L31.724998 130.315L32.779 130.114C 33.272 130.035 33.272 130.035 34.563 129.213C 34.956 128.97 35.367 128.29399 35.704998 127.465996C 36.371998 125.84 37.063 124.036995 39.559 122.979C 40.337997 122.649994 40.572998 122.503 41.226997 122.33299C 41.646996 122.22399 42.194996 121.99899 42.356 121.90699C 42.538998 121.79199 43.017 121.49299 43.367 118.87499C 43.455 118.19199 43.586002 116.578995 43.623 114.61199C 43.623 114.61199 43.665 112.26199 43.665 112.23699C 43.665 112.23699 43.671 112.10999 43.671 112.10299C 43.659 112.11599 43.54 112.27399 43.54 112.27399L43.54 112.27399L43.585 110.75198L32.848 110.75198L32.848 102.816986C 31.907 103.48099 30.617 104.12698 29.326 103.96799C 28.546 104.00198 26.494 104.40999 25.791 105.61599L25.791 105.61599L25.791 105.61601z"
							stroke="none" fill="#111827" fill-rule="nonzero" />
						<path
							d="M67.434 133.60701L67.641 135.38501L72.664 135.38501L87.281 120.73501L87.281 72.93501L72.259995 58.620014L57.514996 58.620014C 57.919994 58.882015 58.330994 59.131016 58.781994 59.329014C 61.679993 60.620014 63.351994 62.727013 63.442993 64.058014C 63.442993 64.08801 63.442993 64.11901 63.442993 64.155014C 63.448994 64.70602 63.180992 65.38502 62.38299 65.75901C 61.83499 66.02101 59.80099 66.35001 58.77199 65.90801C 57.830994 65.808014 56.21099 65.64601 54.457993 65.49101C 55.325993 67.24201 56.77199 68.15801 59.25299 69.62302C 59.25299 69.62302 60.81199 70.56102 61.25599 70.82802C 64.11799 71.07202 67.49099 71.76602 68.06899 73.709015C 68.118 73.88502 68.15699 74.09202 68.15699 74.29901C 68.16899 74.95701 67.86199 75.78501 66.75399 76.63201C 65.98599 77.24601 65.16499 78.05101 65.03399 78.34301C 64.99999 78.44001 64.89699 78.76901 64.89699 78.76901L64.89699 78.76901L64.552986 79.03801C 63.672985 79.69501 61.534985 80.475006 59.565987 78.87301C 57.80599 77.72301 55.717987 76.81501 54.913986 76.810005C 54.894985 76.895004 54.867985 76.992004 54.867985 76.992004L54.867985 76.992004L54.736984 77.187004C 54.663982 77.315 54.620983 77.492004 54.620983 77.71001C 54.632984 78.53801 55.293983 80.00001 57.76298 81.89901C 58.04298 82.05701 60.61298 83.58701 62.898983 83.26301L62.898983 83.26301L63.111984 83.227005L63.330986 83.269005C 63.802986 83.354004 66.15999 83.872 66.61599 85.717C 66.90799 86.928 66.25999 88.18301 64.70699 89.412C 64.65199 89.474 64.593994 89.534004 64.551994 89.607C 64.671 89.668 64.868 89.741005 65.175995 89.833C 66.062 90.021 71.453995 91.557 72.774994 100.909C 72.964 101.663994 72.88799 102.687 72.08399 103.33199C 70.76899 104.385994 68.746994 103.466995 67.13999 102.54099L67.13999 102.54099L67.051994 102.49199L66.966995 102.41899C 65.87399 101.54899 64.576996 100.68399 63.398994 100.00799L63.398994 100.00799L63.398994 110.736984L51.909996 110.736984L52.076996 115.52399L52.076996 115.595985C 52.076996 115.61498 51.857994 116.35799 52.213997 118.14198C 52.857 121.27198 53.879997 123.74398 55.014996 124.32298C 57.980995 125.82698 58.911995 126.581985 59.651997 127.45198C 60.246 128.15298 60.595997 128.57298 62.333996 129.13998C 66.38699 130.48999 67.23599 131.71399 67.434 133.60698L67.434 133.60698L67.434 133.60701z"
							stroke="none" fill="#111827" fill-rule="nonzero" />
						<path d="M54.696 77.23401L54.732 77.186035L54.732 77.17401L54.696 77.23401"
							stroke="none" fill="#111827" fill-rule="nonzero" />
						<path
							d="M244.293 85.74701C 233.95999 89.54701 232.757 97.40801 232.757 101.84701C 232.757 105.62201 234.002 117.94101 250.227 117.94101C 257.753 117.94101 262.56702 114.50601 265.206 111.76001C 266.30798 115.56001 269.61398 117.81301 274.37 117.81301C 279.862 117.81301 282.944 115.05501 286.186 111.15101L286.186 111.15101L286.841 110.30501L284.871 108.05801L283.906 108.88601C 283.419 109.30001 282.825 109.48301 281.948 109.48301C 278.438 109.48301 277.762 106.20801 277.762 101.975006C 277.762 100.29401 277.826 97.536 277.899 94.35801C 278.00497 89.74201 278.12997 83.99401 278.12997 78.84801C 278.12997 72.98501 277.938 67.379005 275.42297 63.327007C 272.05 58.215008 266.62097 55.837006 258.27597 55.837006C 245.42497 55.837006 239.56396 63.750008 238.09297 68.408005L238.09297 68.408005L237.79497 69.33L240.79396 71.127L241.44196 69.903C 241.46596 69.841 244.78795 63.671 252.87796 63.671C 258.37695 63.671 262.43497 66.326004 263.85696 70.555C 264.56396 72.765 264.56396 73.617 264.56396 77.186L264.56396 77.186L264.56396 79.086C 257.23596 81.375 254.95596 81.826 244.29297 85.747L244.29297 85.747L244.293 85.74701zM264.577 106.74201C 261.371 109.03801 257.705 109.50701 255.142 109.50701C 247.366 109.50701 246.206 104.06901 246.206 100.83601C 246.206 96.695015 248.00899 93.17001 251.43399 91.42802C 253.90298 90.193016 256.607 88.85902 264.578 86.46602L264.578 86.46602L264.578 106.74202L264.577 106.74202z"
							stroke="none" fill="#111827" fill-rule="nonzero" />
						<path
							d="M131.398 114.95101C 137.469 116.92401 143.375 117.77501 151.14499 117.77501C 159.83398 117.77501 180.04399 115.43701 180.04399 93.74801C 180.04399 80.94201 172.773 76.08401 165.049 70.93201L165.049 70.93201L155.983 64.92901C 148.082 59.71101 144.47101 57.31701 144.47101 50.27201C 144.47101 45.14501 146.01701 38.30401 159.30402 38.30401C 164.95502 38.30401 170.29802 39.446007 172.71202 41.86001C 174.46303 43.62901 175.39201 45.919006 175.61002 49.097008L175.61002 49.097008L175.68301 50.272007L178.72202 50.272007L178.62802 48.400005C 178.52702 45.888004 178.57303 43.449005 178.57303 40.648006C 178.57303 37.107006 178.65804 33.840008 178.65804 33.810005L178.65804 33.810005L178.69803 32.742004L177.61703 32.550003C 177.28804 32.508003 169.35704 31.153004 159.05403 31.153004C 133.97003 31.153004 132.03003 48.002007 132.03003 53.153004C 132.03003 63.696003 137.09303 68.985 147.04002 75.561005L147.04002 75.561005L154.19803 80.341L155.28102 81.084C 162.06102 85.65 166.97202 88.963 166.97202 96.892C 166.97202 106.171 161.66202 110.483 150.251 110.483C 144.813 110.483 138.953 108.765 136.40701 105.885C 134.74701 104.016 133.84901 101.361 133.69402 98.663L133.69402 98.663L133.63301 97.409004L130.098 97.402L130.272 100.398C 130.397 102.249 130.522 104.514 130.522 110.317L130.522 110.317L130.522 114.659004L131.39801 114.951004L131.398 114.95101z"
							stroke="none" fill="#111827" fill-rule="nonzero" />
						<path
							d="M226.909 64.98601L226.909 57.578007L206.537 57.578007L206.537 44.115005L203.925 44.115005L202.57901 46.405006C 202.509 46.509007 198.53001 54.047005 192.77501 58.507008C 191.149 59.765007 189.746 60.800007 186.07101 62.322006L186.07101 62.322006L185.292 62.641006L185.292 64.98601L193.199 64.98601L193.15001 69.16C 193.04901 78.051 192.964 85.722 192.964 95.283005C 192.964 98.754005 192.964 104.525 193.91101 107.47201C 196.173 114.865005 201.31201 118.16 210.565 118.16C 221.44 118.16 226.05301 112.143005 226.266 111.906006L226.266 111.906006L226.78401 111.328L225.73701 108.886L224.50102 109.520004C 224.47702 109.55601 221.30402 111.151 217.17603 111.151C 208.28203 111.151 206.53802 105.805 206.53802 96.404L206.53802 96.404L206.53802 64.993L226.91002 64.993L226.91002 64.98599L226.90901 64.98599L226.909 64.98601z"
							stroke="none" fill="#111827" fill-rule="nonzero" />
						<path
							d="M337.887 101.93201C 337.746 105.909004 337.63098 110.506004 335.695 112.45401C 334.66 113.48301 333.052 114.13501 330.732 114.50001L330.732 114.50001L329.655 114.63401L329.655 117.405014L331.037 117.277016C 336.37698 116.766014 340.201 116.766014 344.62198 116.766014C 348.49496 116.766014 352.197 116.973015 356.50198 117.19202L356.50198 117.19202L359.468 117.34402L359.468 114.54902L358.28598 114.46302C 356.56897 114.35402 354.58997 113.64802 353.658 112.78302C 351.801 111.05402 351.418 108.27702 351.418 98.40002L351.418 98.40002L351.418 80.93702C 351.418 78.01402 351.217 72.49802 350.639 70.23302C 348.635 61.084015 341.596 56.051018 330.80002 56.051018C 322.55502 56.051018 316.479 59.54902 313.458 61.79302L313.458 61.79302L313.458 57.05602L312.282 56.36202L311.59402 56.669018C 310.864 57.017017 308.81802 58.240017 305.29803 58.794018C 300.69403 59.692017 296.33102 59.929016 294.48602 59.929016C 294.105 59.929016 293.81302 59.929016 293.575 59.899017L293.575 59.899017L292.22302 59.798016L292.22302 63.214016L293.34903 63.339016C 293.49802 63.345016 293.66803 63.369015 293.84204 63.376015C 295.28806 63.476013 297.99405 63.662014 299.21603 65.42802C 300.29004 67.02302 300.40002 70.18401 300.40002 77.53902L300.40002 77.53902L300.40002 94.63702C 300.40002 104.83601 300.29102 109.93401 298.437 112.00401C 296.66702 113.99401 294.134 114.391014 293.13303 114.47601L293.13303 114.47601L291.98502 114.56101L291.98502 117.41101L293.325 117.27701C 298.686 116.77801 302.739 116.77801 307.074 116.77801C 310.825 116.77801 314.42902 116.97301 318.57 117.18001L318.57 117.18001L321.76102 117.350006L321.76102 114.55501L320.58502 114.47001C 318.85004 114.35401 316.90103 113.64801 315.958 112.78301C 314.112 111.06501 313.711 108.28301 313.711 98.40601L313.711 98.40601L313.711 66.986015C 316.226 65.68902 319.574 64.46802 324.915 64.46802C 332.685 64.46802 336.716 68.070015 337.616 75.80302C 338.103 80.376015 338.103 85.016014 338.103 89.486015C 338.103 92.92502 338.103 97.627014 337.999 99.861015C 337.936 100.59202 337.899 101.27402 337.887 101.932014L337.887 101.932014L337.887 101.93201z"
							stroke="none" fill="#111827" fill-rule="nonzero" />
						<path
							d="M391.362 31.93801C 392.945 30.342009 395.515 29.78201 397.39 29.78201C 401.902 29.78201 405.19702 31.76401 407.474 36.840008L407.474 36.840008L407.79 37.58901L409.221 37.570007L415.152 29.320007L414.976 28.053007L414.513 27.681007C 411.28 25.060007 405.744 23.120007 399.911 23.120007C 386.338 23.120007 378.264 29.383007 375.89502 41.73401C 375.17603 45.44901 375.018 52.29601 375.005 57.59601C 373.471 58.799007 371.376 59.910007 367.99 61.30401L367.99 61.30401L367.211 61.64201L367.211 64.99101L375.005 64.99101L375.005 94.64801C 375.005 104.84701 374.92 109.88901 373.06302 111.96001C 371.29703 113.95701 368.77002 114.353004 367.74802 114.41401L367.74802 114.41401L366.58502 114.518005L366.58502 117.422005L367.967 117.288C 373.32 116.788 378.367 116.788 382.80002 116.788C 386.34402 116.788 391.239 116.946 397.828 117.288L397.828 117.288L399.155 117.367004L399.155 114.170006L397.888 114.170006C 396.391 114.170006 391.294 113.98701 389.638 111.467C 388.584 109.920006 388.328 106.084 388.328 98.181L388.328 98.181L388.328 64.997L401.663 64.997L401.663 57.59L388.33 57.59L388.33 46.024002C 388.33 38.379 388.76797 34.513 391.362 31.938002L391.362 31.938002L391.362 31.93801z"
							stroke="none" fill="#111827" fill-rule="nonzero" />
						<path
							d="M435.392 118.40901C 457.855 118.40901 465.826 101.15201 465.826 86.34401C 465.826 67.30601 454.91498 55.92601 436.65298 55.92601C 414.184 55.92601 406.232 73.19201 406.232 87.99501C 406.232 107.04101 417.143 118.40901 435.392 118.40901zM427.677 65.55901C 429.76 63.756012 432.615 62.846012 436.142 62.846012C 450.865 62.846012 451.608 82.95801 451.608 86.99001C 451.608 97.42702 449.185 104.77001 444.386 108.78902C 442.267 110.59202 439.40598 111.50502 435.909 111.50502C 421.168 111.50502 420.43 91.387024 420.43 87.36802C 420.444 76.93002 422.86798 69.58002 427.677 65.55902z"
							stroke="none" fill="#111827" fill-rule="nonzero" />
						<path
							d="M499.882 66.11201C 505.314 66.11201 508.121 68.727005 509.516 70.920006L509.516 70.920006L509.89398 71.49801L512.31696 71.49801L517.35895 62.279007L517.35895 60.39401L516.9509 60.007008C 514.4849 57.80301 511.09894 56.680008 506.92892 56.680008C 500.51694 56.680008 495.9619 59.548008 493.09393 62.24801L493.09393 62.24801L493.09393 57.05401L492.04092 56.49701L491.34692 56.81001C 490.33594 57.291008 487.84592 58.03701 484.94092 58.51801C 480.3369 59.42201 475.98392 59.65401 474.12692 59.65401C 473.7499 59.65401 473.36594 59.64801 473.14792 59.623013L473.14792 59.623013L471.8629 59.589012L471.8629 63.212013L473.03192 63.337013C 473.15393 63.343014 473.3239 63.367012 473.49493 63.374012C 474.94992 63.47401 477.64694 63.66001 478.87094 65.42601C 479.93695 67.02101 480.02194 70.18201 480.02194 77.53701L480.02194 77.53701L480.02194 94.63501C 480.02194 104.83401 479.94894 109.74801 478.09094 111.81901C 476.34393 113.81701 473.78595 114.21801 472.78094 114.28601L472.78094 114.28601L471.60596 114.377014L471.60596 117.40901L472.99496 117.27501C 478.34097 116.77601 483.36996 116.77601 487.82797 116.77601C 491.34796 116.77601 496.261 116.934006 502.84396 117.27501L502.84396 117.27501L504.17096 117.35401L504.17096 114.03601L502.92297 114.03601C 501.40698 114.03601 496.35297 113.84101 494.65997 111.33901C 493.63098 109.792015 493.369 106.071014 493.369 98.17401L493.369 98.17401L493.369 68.02701C 495.25497 66.73001 497.39798 66.11201 499.882 66.11201z"
							stroke="none" fill="#111827" fill-rule="nonzero" />
						<path
							d="M583.542 112.08901C 582.123 111.973015 579.518 111.68701 578.287 109.89701C 577.227 108.45901 577.131 103.94201 577.131 96.64701L577.131 96.64701L577.131 47.888012C 577.131 39.975014 577.18 29.444012 577.581 24.506012L577.581 24.506012L577.63 23.922012L576.607 23.304012L576.01 23.535013C 574.792 23.982014 572.454 24.506014 570.092 24.887012C 564.477 25.998013 557.56696 26.577013 557.27997 26.577013L557.27997 26.577013L556.014 26.577013L555.75195 29.253014L556.8909 29.362013C 557.0239 29.378014 557.1829 29.389013 557.3659 29.396013C 558.7909 29.509014 561.4149 29.707014 562.6269 31.454014C 563.6869 33.049015 563.7899 37.035015 563.7899 44.491013L563.7899 44.491013L563.7899 57.199013C 561.2139 56.648014 556.9149 56.06301 552.10394 56.06301C 538.97595 56.06301 528.56396 62.28001 523.55896 73.13701C 521.433 77.81901 520.29395 83.38501 520.29395 89.23101C 520.29395 106.88901 530.91394 118.27601 547.32996 118.27601C 555.19696 118.27601 561.079 114.85401 564.05096 112.66201L564.05096 112.66201L564.05096 117.71601L565.65295 118.252014L566.19495 118.00902C 567.25494 117.52202 569.38495 117.10102 572.29694 116.626015C 577.36194 115.76202 582.57495 115.402016 583.9149 115.402016L583.9149 115.402016L585.16895 115.402016L585.16895 112.18601L584.03595 112.138016C 583.90094 112.113014 583.7299 112.10101 583.54193 112.08901L583.54193 112.08901L583.542 112.08901zM563.783 107.291016C 560.354 109.42201 556.40204 109.738014 554.296 109.738014L554.296 109.738014L553.74805 109.738014C 536.382 109.738014 534.494 94.265015 534.494 87.610016C 534.494 71.20602 540.187 63.220016 551.84204 63.220016C 559.18005 63.220016 562.809 66.264015 563.783 67.236015L563.783 67.236015L563.783 107.291016z"
							stroke="none" fill="#111827" fill-rule="nonzero" />
					</g>
					<g>
					</g>
					<g>
					</g>
					<g>
					</g>
					<g>
					</g>
					<g>
					</g>
					<g>
					</g>
					<g>
					</g>
					<g>
					</g>
					<g>
					</g>
					<g>
					</g>
					<g>
					</g>
					<g>
					</g>
					<g>
					</g>
					<g>
					</g>
					<g>
					</g>
				</g>
			</g>
		</g>
	</g>
</svg>