<?xml version="1.0" encoding="UTF-8"?>
<svg xmlns="http://www.w3.org/2000/svg" xmlns:xlink="http://www.w3.org/1999/xlink" width="285px" height="38px" viewBox="0 0 285 38" version="1.1">
<g id="surface1">
<path style=" stroke:none;fill-rule:nonzero;fill:rgb(6.666667%,9.411765%,15.294118%);fill-opacity:1;" d="M 100.777344 37.621094 L 97.121094 31.285156 C 98.832031 28.007812 98.832031 24.144531 98.832031 19.0625 C 98.832031 12.730469 98.832031 7.980469 95.175781 4.132812 C 92.625 1.347656 88.972656 -0.164062 85.199219 0 C 81.441406 -0.0820312 77.820312 1.417969 75.222656 4.132812 C 71.566406 7.804688 71.566406 12.460938 71.566406 19 C 71.566406 25.539062 71.375 30.082031 75.222656 33.914062 C 76.5 35.277344 78.046875 36.359375 79.769531 37.082031 C 81.488281 37.785156 83.339844 38.117188 85.199219 38.046875 C 86.238281 38.03125 87.273438 37.90625 88.285156 37.667969 Z M 80.417969 29.464844 C 79.085938 27.882812 78.707031 26.171875 78.707031 19 C 78.707031 11.828125 79.167969 10.070312 80.417969 8.535156 C 81.027344 7.925781 81.746094 7.441406 82.539062 7.109375 C 83.324219 6.773438 84.171875 6.601562 85.023438 6.601562 C 85.882812 6.605469 86.734375 6.777344 87.527344 7.109375 C 88.3125 7.441406 89.03125 7.925781 89.632812 8.535156 C 90.960938 10.117188 91.34375 11.828125 91.34375 19 C 91.34375 26.171875 90.960938 27.914062 89.632812 29.464844 C 89.042969 30.089844 88.332031 30.585938 87.542969 30.921875 C 86.742188 31.238281 85.886719 31.394531 85.023438 31.382812 C 84.167969 31.398438 83.316406 31.238281 82.523438 30.90625 C 81.730469 30.574219 81.015625 30.085938 80.417969 29.464844 Z M 80.417969 29.464844 "/>
<path style=" stroke:none;fill-rule:nonzero;fill:rgb(6.666667%,9.411765%,15.294118%);fill-opacity:1;" d="M 184.980469 0.378906 L 192.058594 0.378906 L 192.058594 37.621094 L 184.980469 37.621094 Z M 184.980469 0.378906 "/>
<path style=" stroke:none;fill-rule:nonzero;fill:rgb(6.666667%,9.411765%,15.294118%);fill-opacity:1;" d="M 13.441406 38 C 7.917969 38 3.671875 36.84375 0 33.15625 L 4.609375 28.5 C 7.011719 30.691406 10.191406 31.832031 13.441406 31.667969 C 17.671875 31.667969 19.964844 30.082031 19.964844 27.011719 C 19.988281 26.441406 19.894531 25.871094 19.695312 25.332031 C 19.503906 24.800781 19.203125 24.316406 18.808594 23.910156 C 17.894531 23.121094 16.753906 22.644531 15.546875 22.546875 L 11.082031 21.929688 C 8.433594 21.703125 5.9375 20.585938 4.003906 18.761719 C 3.117188 17.777344 2.429688 16.625 1.980469 15.375 C 1.507812 14.105469 1.296875 12.753906 1.363281 11.398438 C 1.328125 4.84375 6.128906 0.191406 14.25 0.191406 C 19.238281 0.191406 23.085938 1.328125 26.171875 4.449219 L 21.515625 8.929688 C 19.488281 7.054688 16.765625 6.109375 14.011719 6.332031 C 10.164062 6.332031 8.265625 8.488281 8.265625 11.082031 C 8.296875 12.089844 8.703125 13.050781 9.40625 13.773438 C 10.398438 14.601562 11.597656 15.148438 12.871094 15.359375 L 17.289062 15.929688 C 19.929688 16 22.449219 17.042969 24.367188 18.859375 C 25.351562 19.921875 26.113281 21.171875 26.617188 22.53125 C 27.105469 23.90625 27.328125 25.363281 27.265625 26.820312 C 27.265625 33.960938 21.136719 38.046875 13.425781 38.046875 "/>
<path style=" stroke:none;fill-rule:nonzero;fill:rgb(6.666667%,9.411765%,15.294118%);fill-opacity:1;" d="M 37.605469 37.621094 L 37.605469 0.378906 L 61.972656 0.378906 L 61.972656 6.714844 L 44.871094 6.714844 L 44.871094 15.5 L 59.4375 15.5 L 59.4375 22.167969 L 44.886719 22.167969 L 44.886719 31.300781 L 61.988281 31.300781 L 61.988281 37.636719 L 37.605469 37.636719 "/>
<path style=" stroke:none;fill-rule:nonzero;fill:rgb(6.666667%,9.411765%,15.294118%);fill-opacity:1;" d="M 123.199219 38 C 115.695312 38 109.566406 32.773438 109.566406 24.828125 L 109.566406 0.378906 L 116.898438 0.378906 L 116.898438 24.605469 C 116.898438 28.878906 119.414062 31.382812 123.230469 31.382812 C 127.046875 31.382812 129.5625 28.832031 129.5625 24.605469 L 129.5625 0.378906 L 136.640625 0.378906 L 136.640625 24.796875 C 136.640625 32.710938 130.75 37.96875 123.246094 37.96875 "/>
<path style=" stroke:none;fill-rule:nonzero;fill:rgb(6.666667%,9.411765%,15.294118%);fill-opacity:1;" d="M 170.777344 33.914062 C 168.222656 36.691406 164.574219 38.199219 160.804688 38.03125 C 157.050781 38.132812 153.429688 36.636719 150.84375 33.914062 C 147.25 30.226562 147.25 25.570312 147.25 19 C 147.25 12.429688 147.058594 7.917969 150.921875 4.085938 C 153.453125 1.332031 157.070312 -0.164062 160.804688 0 C 164.550781 -0.0507812 168.15625 1.4375 170.777344 4.117188 C 174.4375 7.804688 174.4375 12.460938 174.4375 19.03125 C 174.4375 25.601562 174.4375 30.082031 170.777344 33.914062 Z M 165.410156 8.582031 C 164.195312 7.355469 162.539062 6.664062 160.8125 6.664062 C 159.082031 6.664062 157.429688 7.355469 156.210938 8.582031 C 154.867188 10.164062 154.5 11.875 154.5 19.046875 C 154.5 26.21875 154.867188 27.960938 156.210938 29.496094 C 157.421875 30.734375 159.082031 31.429688 160.8125 31.429688 C 162.542969 31.429688 164.199219 30.734375 165.410156 29.496094 C 166.742188 27.914062 167.121094 26.21875 167.121094 19.046875 C 167.121094 11.875 166.789062 10.070312 165.410156 8.535156 Z M 165.410156 8.582031 "/>
<path style=" stroke:none;fill-rule:nonzero;fill:rgb(6.666667%,9.411765%,15.294118%);fill-opacity:1;" d="M 226.066406 37.621094 L 223.960938 31.035156 L 210.898438 31.035156 L 208.621094 37.621094 L 201.082031 37.621094 L 214.574219 0.378906 L 220.082031 0.378906 L 233.527344 37.621094 Z M 217.40625 11.226562 L 212.800781 24.796875 L 222.015625 24.796875 Z M 217.40625 11.226562 "/>
<path style=" stroke:none;fill-rule:nonzero;fill:rgb(6.666667%,9.411765%,15.294118%);fill-opacity:1;" d="M 275.785156 0.378906 L 285 0.378906 L 285 9.691406 L 275.785156 9.691406 Z M 275.785156 0.378906 "/>
<path style=" stroke:none;fill-rule:nonzero;fill:rgb(6.666667%,9.411765%,15.294118%);fill-opacity:1;" d="M 252.746094 29.609375 L 252.746094 0.378906 L 248.140625 0.378906 L 248.140625 34.3125 Z M 252.746094 29.609375 "/>
<path style=" stroke:none;fill-rule:nonzero;fill:rgb(6.666667%,9.411765%,15.294118%);fill-opacity:1;" d="M 255.976562 32.964844 L 251.371094 37.621094 L 285 37.621094 L 285 32.964844 Z M 255.976562 32.964844 "/>
<path style=" stroke:none;fill-rule:nonzero;fill:rgb(6.666667%,9.411765%,15.294118%);fill-opacity:1;" d="M 261.960938 20.347656 L 261.960938 0.378906 L 257.355469 0.378906 L 257.355469 25 Z M 261.960938 20.347656 "/>
<path style=" stroke:none;fill-rule:nonzero;fill:rgb(6.666667%,9.411765%,15.294118%);fill-opacity:1;" d="M 265.191406 23.65625 L 260.570312 28.308594 L 285 28.308594 L 285 23.65625 Z M 265.191406 23.65625 "/>
<path style=" stroke:none;fill-rule:nonzero;fill:rgb(6.666667%,9.411765%,15.294118%);fill-opacity:1;" d="M 271.160156 11.082031 L 271.160156 0.378906 L 266.554688 0.378906 L 266.554688 15.691406 Z M 271.160156 11.082031 "/>
<path style=" stroke:none;fill-rule:nonzero;fill:rgb(6.666667%,9.411765%,15.294118%);fill-opacity:1;" d="M 274.40625 14.34375 L 269.816406 19 L 285 19 L 285 14.34375 Z M 274.40625 14.34375 "/>
</g>
</svg>
