<?xml version="1.0" standalone="no"?>
<!DOCTYPE svg PUBLIC "-//W3C//DTD SVG 1.0//EN" "http://www.w3.org/TR/2001/REC-SVG-20010904/DTD/svg10.dtd">
<svg xmlns="http://www.w3.org/2000/svg" xmlns:xlink="http://www.w3.org/1999/xlink" id="body_1" width="152" height="38">

<g transform="matrix(0.038164105 0 0 0.038164105 0.28814086 -0)">
    <path d="M828.4 0L166.2 0C 74.4 0 0 74.4 0 166.2L0 166.2L0 828.4C 0 920.2 74.4 994.60004 166.2 994.60004L166.2 994.60004L828.4 994.60004C 920.2 994.60004 994.60004 920.2 994.60004 828.4L994.60004 828.4L994.60004 166.2C 994.6 74.4 920.2 0 828.4 0zM813.8 761.3C 813.8 790.3 790.3 813.8 761.3 813.8L761.3 813.8L233.29999 813.8C 204.29999 813.8 180.79999 790.3 180.79999 761.3L180.79999 761.3L180.79999 233.29999C 180.79999 204.29999 204.29999 180.79999 233.29999 180.79999L233.29999 180.79999L761.3 180.79999C 790.3 180.79999 813.8 204.29999 813.8 233.29999L813.8 233.29999L813.8 761.3zM391.8 632.3C 375.09998 632.3 361.69998 618.8 361.69998 602.1L361.69998 602.1L361.69998 391.3C 361.69998 374.59998 375.09998 361 391.8 361L391.8 361L602.9 361C 619.5 361 633 374.5 633 391.3L633 391.3L633 602C 633 618.7 619.5 632.2 602.9 632.2L602.9 632.2L391.8 632.2zM1258.3 617.9L1366.9 617.9C 1372.3 679.4 1414 727.4 1498.1 727.4C 1573.2 727.4 1619.4 690.30005 1619.4 634.2C 1619.4 581.7 1583.2001 558.2 1518 542.8L1518 542.8L1433.8 524.7C 1342.4 504.80002 1273.6001 446 1273.6001 350C 1273.6001 244.1 1367.7001 171.7 1489.9001 171.7C 1619.3002 171.7 1702.6001 239.6 1709.8002 340L1709.8002 340L1604.8002 340C 1592.3 293 1553.3 265 1490 265C 1423 265 1376.9 301.2 1376.9 347.4C 1376.9 393.59998 1416.7001 421.59998 1485.5 437L1485.5 437L1568.8 455.1C 1660.2001 475 1722.6001 530.2 1722.6001 627C 1722.6001 750.1 1630.3 823.4 1498.2001 823.4C 1349.7 823.3 1267.4 742.8 1258.3 617.9zM2111.1 994.6L2111.1 814.5L2118.2002 735.5L2111.1 735.5C 2086.2002 792.3 2033.9001 823.4 1962.9001 823.4C 1848.4001 823.4 1763.2002 730.2 1763.2002 587.30005C 1763.2002 444.40005 1848.4001 351.20004 1962.9001 351.20004C 2033.0001 351.20004 2082.7002 384.00003 2111.1 435.50006L2111.1 435.50006L2118.2002 435.50006L2118.2002 360L2212.3003 360L2212.3003 994.6L2111.1 994.6zM2114.6 587.2C 2114.6 495.80002 2058.7002 442.5 1990.3 442.5C 1921.8999 442.5 1866 495.8 1866 587.2C 1866 678.60004 1921.9 731.9 1990.3 731.9C 2058.7002 731.9 2114.6 678.7 2114.6 587.2zM2287.4 634.3L2287.4 360L2388.5999 360L2388.5999 625.4C 2388.5999 697.30005 2423.2 731.9 2480.9 731.9C 2551.9 731.9 2598.0999 681.30005 2598.0999 602.30005L2598.0999 602.30005L2598.0999 360L2699.2998 360L2699.2998 814.4L2605.1997 814.4L2605.1997 720.30005L2598.0996 720.30005C 2575.8997 780.7001 2527.0996 823.30005 2451.6997 823.30005C 2343.3 823.3 2287.4 754.1 2287.4 634.3zM2760.9 687.5C 2760.9 602.3 2820.4 552.6 2926 546.4L2926 546.4L3051.1 538.4L3051.1 502.90002C 3051.1 460.30002 3020 434.60004 2965 434.60004C 2914.4 434.60004 2884.2 460.30005 2876.2 496.70004L2876.2 496.70004L2775 496.70004C 2785.7 404.40002 2862 351.10004 2964.9 351.10004C 3081.2 351.10004 3152.2 400.80005 3152.2 496.70004L3152.2 496.70004L3152.2 814.4L3058.0999 814.4L3058.0999 730.10004L3050.9998 730.10004C 3029.6997 786.00006 2985.2998 823.30005 2900.0999 823.30005C 2818.6 823.3 2760.9 768.3 2760.9 687.5zM3051.2 631.6L3051.2 607.6L2949.0999 614.69995C 2894.0999 618.19995 2869.2 638.69995 2869.2 679.49994C 2869.2 714.0999 2897.5999 738.99994 2937.5 738.99994C 3009.5 739 3051.2 692.9 3051.2 631.6zM3227.7 814.5L3227.7 360L3321.8 360L3321.8 447L3328.9001 447C 3342.2002 387.5 3387.5002 360 3454.9001 360L3454.9001 360L3501.1 360L3501.1 451.4L3443.4001 451.4C 3377.7002 451.4 3328.9001 494 3328.9001 574.8L3328.9001 574.8L3328.9001 814.4L3227.7 814.4zM3964.1 605.9L3618.8 605.9C 3624.1 689.30005 3682.7 736.4 3747.5 736.4C 3802.5 736.4 3837.1 714.2 3856.7 676.9L3856.7 676.9L3957 676.9C 3929.5 769.2 3848.7 823.30005 3746.6 823.30005C 3612.6 823.30005 3518.5 723.00006 3518.5 587.2001C 3518.5 451.4001 3615.2 351.10007 3747.5 351.10007C 3880.6 351.10007 3967.6 442.50006 3967.6 556.1001C 3967.7 578.4 3965.9 589.9 3964.1 605.9zM3867.4 535.8C 3863.9 472.8 3811.5 430.19998 3747.5999 430.19998C 3687.2 430.19998 3636.7 468.4 3624.2 535.8L3624.2 535.8L3867.4 535.8z" stroke="none" fill="#111827" fill-rule="nonzero" />
</g>
</svg>