<svg width="384" height="946" viewBox="0 0 384 946" fill="none" xmlns="http://www.w3.org/2000/svg">
<path d="M401.927 8.80726C407.623 84.1489 413.319 159.49 416.916 234.932C420.513 310.274 422.112 385.715 419.414 461.157C417.216 524.308 414.018 588.558 398.83 650.111C385.74 703.27 362.458 755.329 319.691 791.201C282.52 822.277 233.058 833.769 185.495 828.473C179.799 827.873 174.104 826.974 168.508 825.875C170.207 812.185 170.806 798.496 170.407 784.806C169.507 758.427 164.711 732.047 155.418 707.366C145.026 679.788 127.24 651.01 99.4615 638.12C74.1811 626.429 44.0044 633.024 29.016 657.205C16.2259 677.789 16.8255 704.968 23.0207 727.651C36.5102 777.712 82.4747 814.583 129.039 832.969C135.334 835.467 141.729 837.665 148.224 839.464C144.527 859.449 138.531 878.934 130.438 897.319C110.653 942.384 78.8774 982.753 37.2097 1009.33C26.9177 1015.93 16.126 1021.62 4.93468 1026.42C0.43816 1028.42 -0.561067 1035.01 1.63723 1038.91C4.33514 1043.61 9.53112 1044.11 14.1276 1042.21C62.9897 1021.02 103.259 982.853 130.338 937.288C147.424 908.611 159.515 876.735 165.71 843.861C203.681 851.455 243.95 849.057 279.922 835.167C333.58 814.483 372.45 769.518 395.233 717.758C419.813 662.001 428.507 600.849 433.203 540.496C439.298 461.956 439.998 383.017 437.8 304.278C435.501 225.04 430.305 145.901 424.41 66.8622C423.011 47.5771 421.512 28.1922 420.013 8.90711C419.214 -2.78381 401.028 -2.88378 401.927 8.80726ZM62.69 764.122C48.401 746.836 38.7085 726.152 37.2097 703.569C36.0106 684.384 40.5071 663.101 58.2934 653.908C82.7744 641.317 108.255 662.201 121.844 681.386C136.833 702.57 144.826 728.35 149.223 753.631C153.02 775.913 153.52 798.796 150.922 821.378C116.748 811.186 85.3724 791.601 62.69 764.122Z" fill="#0F62FE"/>
</svg>
