<svg width="346" height="302" viewBox="0 0 346 302" fill="none" xmlns="http://www.w3.org/2000/svg">
<path d="M330.802 -469.586C318.782 -405.831 306.762 -342.076 292.979 -278.705C279.219 -215.416 263.779 -152.489 244.775 -90.5164C228.917 -38.6268 211.986 13.9523 185.709 61.629C163.039 102.81 132.159 140.815 88.7151 161.063C50.9786 178.577 7.40086 177.116 -30.8715 162.153C-35.4623 160.39 -39.9864 158.378 -44.3832 156.223C-39.932 145.246 -36.3924 134.025 -33.6816 122.582C-28.5649 100.503 -26.6804 77.5575 -28.9028 55.0217C-31.3929 29.8382 -39.7495 2.01689 -59.9245 -14.8477C-78.2942 -30.1626 -104.789 -31.3992 -122.594 -14.674C-137.777 -0.443844 -143.32 22.2319 -143.223 42.4217C-143.16 86.9409 -113.231 127.738 -78.6962 153.335C-74.0301 156.806 -69.2146 160.051 -64.2273 162.986C-71.7351 178.74 -81.038 193.568 -91.8371 207.019C-118.262 239.999 -153.588 266.42 -194.055 279.205C-204.057 282.387 -214.273 284.713 -224.621 286.204C-228.795 286.862 -231.089 292.11 -230.132 295.831C-228.938 300.325 -224.74 301.895 -220.505 301.341C-175.271 294.631 -133.389 271.921 -100.803 240.147C-80.2574 220.159 -63.1454 196.408 -50.701 170.519C-20.8955 185.256 13.0368 192.216 45.9592 188.691C95.0608 183.46 137.293 154.804 167.692 116.937C200.471 76.1547 221.272 27.3662 238.58 -21.6477C261.09 -85.4343 279.213 -150.751 294.889 -216.547C310.593 -282.779 323.871 -349.572 336.547 -416.438C339.672 -432.744 342.737 -449.155 345.78 -465.483C347.715 -475.358 332.654 -479.482 330.802 -469.586ZM-118.426 81.4878C-126.436 63.9746 -129.878 44.665 -126.102 25.6018C-122.833 9.42295 -114.374 -7.2305 -97.5784 -10.9024C-74.4756 -15.9042 -57.9832 7.07978 -50.9757 26.0123C-43.252 46.9132 -42.3512 70.0719 -44.3229 92.0169C-46.1257 111.342 -50.7967 130.432 -57.9702 148.585C-84.049 132.537 -105.72 109.32 -118.426 81.4878Z" fill="#0F62FE"/>
</svg>
