<svg width="12" height="12" viewBox="0 0 12 12" fill="none" xmlns="http://www.w3.org/2000/svg">
<g clip-path="url(#clip0_5040_22067)">
<path d="M7.49997 7H11V8.181L8.65097 11H11V12H7.49997V10.819L9.84897 8H7.49997V7ZM11 1.75V5H9.99997V3.5H8.49997V5H7.49997V1.75C7.49997 0.785 8.28497 0 9.24997 0C10.215 0 11 0.785 11 1.75ZM9.99997 2.5V1.75C9.99997 1.3365 9.66347 1 9.24997 1C8.83647 1 8.49997 1.3365 8.49997 1.75V2.5H9.99997ZM3.49997 10.5V0H2.49997V10.5L0.749969 8.75L0.0429688 9.457L2.29297 11.707C2.48797 11.902 2.74397 11.9995 2.99997 11.9995C3.25597 11.9995 3.51197 11.902 3.70697 11.707L5.95697 9.457L5.24997 8.75L3.49997 10.5Z" fill="black"/>
</g>
<defs>
<clipPath id="clip0_5040_22067">
<rect width="12" height="12" fill="white"/>
</clipPath>
</defs>
</svg>
