<svg xmlns="http://www.w3.org/2000/svg" viewBox="0 0 762 762" fill="none" shape-rendering="auto"><desc>"Adventurer" by "Lisa Wischofsky", licensed under "CC BY 4.0". / Remix of the original. - Created with dicebear.com</desc><metadata xmlns:dc="http://purl.org/dc/elements/1.1/" xmlns:cc="http://creativecommons.org/ns#" xmlns:rdf="http://www.w3.org/1999/02/22-rdf-syntax-ns#"><rdf:RDF><cc:Work><dc:title>Adventurer</dc:title><dc:creator><cc:Agent rdf:about="https://www.instagram.com/lischi_art/"><dc:title>Lisa Wischofsky</dc:title></cc:Agent></dc:creator><dc:source>https://www.figma.com/community/file/1184595184137881796</dc:source><cc:license rdf:resource="https://creativecommons.org/licenses/by/4.0/" /></cc:Work></rdf:RDF></metadata><mask id="viewboxMask"><rect width="762" height="762" rx="0" ry="0" x="0" y="0" fill="#fff" /></mask><g mask="url(#viewboxMask)"><path d="M396 164.8a224.8 224.8 0 0 1 104.8 42.4c6.2 4.9 12.5 9.4 18 15a225.4 225.4 0 0 1 71.8 149 58.5 58.5 0 0 1 50.9 42.2 71 71 0 0 1-27.6 76.5c-11 7.7-24.5 12-38 11.7-5 0-10-1.6-15-1.8-1.9 2.2-3.3 4.9-4.8 7.3A223.3 223.3 0 0 1 389 609.8c-11 .7-21.9 2-33 .7a223.7 223.7 0 0 1-178.8-342.3A223.4 223.4 0 0 1 352 163.5c14.6-1.4 29.4-.3 44 1.3Z" fill="#000"/><path fill-rule="evenodd" clip-rule="evenodd" d="M498.8 213.2A216 216 0 0 0 363 169c-13-.2-26.2 1.6-39 4a218 218 0 0 0-113.6 365.5 218.5 218.5 0 0 0 260.4 40.2c35-18.8 64.2-47.3 84.4-81.5l-3-1.6c-2.8-1.4-5.7-3-8-5-2.2-2-.3-5.8 2.7-4.7 1.5.7 3 1.6 4.4 2.4a55 55 0 0 0 59.6-3.6 64.5 64.5 0 0 0 25-69.8 53.1 53.1 0 0 0-24-31 52.6 52.6 0 0 0-47-2.8c-1.6.8-3.4 1.5-5 1.3-2.5-.2-2.8-4.2-.6-5.2 8-4 16.5-5.6 25.4-6.4a217 217 0 0 0-72-146.4c-4.4-4-8.7-8.1-13.9-11.3Zm107.6 196.2c2-1.2 1.3-5.1-1.4-5-2 0-4.2.8-6.2 1.6l-1.4.4a95.1 95.1 0 0 0-25.5 12.4c-2.2 2-2.2 4.4.1 6.2a92 92 0 0 0 5.2 2.8 36 36 0 0 1 13 9.2c-.2 1.9-2 3.4-3.4 4.5l-.2.2c-3.9 3-8.8 5-13.6 7-2.5 1-4.9 2-7.1 3.1-1.7.8-2.6 2.2-1.6 3.9 1 2 3.2 1.1 5 .5l.6-.2 5.4-2.3c5.4-2.3 11-4.5 15.4-8 2.7-2.1 5.1-5.1 5.4-8.7-.5-3.4-2.7-5.7-5.3-7.8a83 83 0 0 0-11.6-7.2l-1.1-.6c5.4-3 10.8-5.6 16.6-7.7l5-1.7a52 52 0 0 0 6.7-2.6Z" fill="#f2d3b1"/><g transform="translate(-161 -83)"><path d="M494.8 474.6c2.5.2 5 1.4 7.4 2.2 9.3 3.7 18.8 6.1 28.5 8.4 21 5 42.8 8.8 64.3 6.9 7.4-1 14.8-2.4 22-3.9 2.6-.6 5.5.8 5.2 3.7a65.5 65.5 0 0 1-113 42 72.5 72.5 0 0 1-15.4-26.8c1.2 8 2.5 15.7 6.2 23 3 6 7.3 11 11.6 16-1.1 1.3-2.5 3.2-4.5 2-3.6-2.7-6.2-6.8-8.8-10.4-6.2-9-8.8-19.5-10-30.2-1-7.3 0-15 1.3-22.2.7-3.6 1.9-8.7 5.2-10.7ZM436.1 479.8c2.2.8 3.2 3 4.1 5 5.6 12 7.8 26.2 4.8 39.3a41.1 41.1 0 0 1-12 23c-1.6 1.6-3.5 1.5-5.6 1.4v-3.1c2.1-2.6 4.8-4.6 6.5-7.5a52.5 52.5 0 0 0 7-25.2 54.7 54.7 0 0 1-86.3 33.7c-9-6.6-16-16-19.7-26.5-.6-2-1.2-4.4-.5-6.3a9 9 0 0 1 5.6-2c8.8-.7 17.4-2.7 26.1-4.5 7.5-1.5 14.6-3.9 22-6 9.5-3.2 18.9-7.8 28-11.9 5.3-2.3 10.3-5 15.3-7.8 1.4-.7 3-1.8 4.7-1.6Z" fill="#000"/><path d="M497.9 481c5 2 9.7 3.9 14.8 5.2 13.9 3.7 28.1 7.8 42.3 9.6 2.6.4 5.2 1 7.7 1.5a23.5 23.5 0 0 0 41.1 14.5 26 26 0 0 0 6-16.4l6.5-1a59.9 59.9 0 0 1-73.5 52.8 59.7 59.7 0 0 1-45-66.1ZM433.8 486.2A49.4 49.4 0 1 1 340 517c14.8-1.8 29.7-4.5 44-8.8a24 24 0 0 0 21 18c10.1 1 20-5 23.9-14.3 3-7.1 2.3-15.8-1.9-22.3l6.8-3.4Z" fill="#fff"/></g><g transform="translate(-161 -83)"><path d="M613.5 401.5c1.6 1 1.1 2.9 1.3 4.5l-.1 34c.3 2.8-2.5 4.2-4.7 5l-120 41.1c-2.5.2-2.9-1.7-3.5-3.6l-5-18c1 5.8 1 11.7 1.3 17.5 0 1.4.5 4-1 4.9-2 1.4-4 0-4.6-2l-10.6-38.4c-.4-1.8-.7-3.9 1.3-4.9 2.2-.5 3.5.5 4 2.5 1.3 4.5 2.6 9 3.7 13.7-.7-5.3-1-10.5-1.2-15.8 0-1.3-.1-3.7 1.7-3.8l4.4-.7 123.6-35.2c3.3-.9 6-2.1 9.4-.8ZM324 433.9c13.6 1.4 27.4 1.4 41 2.6 21 1 42.1 2.6 63.1 3.4 7.8.8 15.6 1 23.5 1.7 2.8 2.1 1 8 1.9 11.3.6-3 .2-7 2-9.5 2-1.8 5-.1 4.7 2.6-2.4 14-4.8 28.1-7 42.2-.8 2.9-4.5 2.5-5.3-.2-.3-5-.2-9.9-.3-14.8-1 4.3-1.5 8.7-2.5 13-.4 1.6-1.2 2.8-3 2.4l-119-21.3c-1.8-.2-2.8-1.5-3-3.3-1.5-8-2.6-16-4.2-24-.2-1.7-.7-3.1.6-4.6 2.1-2.2 4.7-1.6 7.5-1.5Z" fill="#000"/></g><g transform="translate(-161 -83)"><path d="M521.2 567.2c1.5-.3 3.3-1 5-.7 2 .8 2 3 1 4.6-4.2 2.7-10 2.9-14.3 5a79.2 79.2 0 0 1 0 40.9 55.4 55.4 0 0 1-20.7 31.3c-7 5-15.6 7.4-24.2 6.5a41.8 41.8 0 0 1-28.6-17.3 72.2 72.2 0 0 1-11.3-60.2c-2.4-.8-5.6-1.2-7.5-2.9-.6-1.2-.2-2.8-.3-4.1 4.5 0 8.3 1.6 12.7 2.5 29.5 6 59.5 3 88.2-5.5Z" fill="#000"/><path d="M507 577.1a67.7 67.7 0 0 1-6.8 54.2c-4 6.5-9.6 12-16.7 15.2-8 3.7-17.5 3.4-25.4-.6-8-4-14.6-11.4-18.7-19.3a69.5 69.5 0 0 1-5.5-48c10.5 2.4 21 3 31.8 3.2-1 6.8-1 13.4-1.2 20.2 0 2-.2 4 .5 6 1 1.6 4.6 1.1 4.7-1.1.6-8.4 0-16.8 1.6-25.2 12-.2 24-2.2 35.6-4.6Z" fill="#EA869E"/></g><g transform="translate(-161 -83)"></g><g transform="translate(-161 -83)"></g><g transform="translate(-161 -83)"><g fill="#000"><path d="M440.2 189.2c1.8-.1 3.6-1 4.7 1 1.6 2 1.1 3.4-.6 5a62.2 62.2 0 0 0-18.3 29.3c30-13.1 63.4-19.6 96-21 9.4-.7 18.6-.7 28 0a281 281 0 0 1 80.5 14.8c18.5 6.5 37 15.6 52 28.3a77.8 77.8 0 0 1 26.5 39.1c3.8-.2 7.3-.4 10.7 1.6 7.3 3.8 12.4 12 16 19.1a182.4 182.4 0 0 1 14.5 46.6c3.3 17.2 4.8 34.6 5.8 52 .1 13 .6 26.1-.8 39-.4 4.3-.3 8.7-1.3 12.9-1 3-4.4 2.7-6.9 3-8.3.3-17.8 1.7-25 6.2-1.3 2.5-1.5 5.6-2.7 8.2-2 2.3-4.8 4-7.2 5.8-6.3 4.3-12.3 9.1-18.5 13.5-1.8 1.1-4.1 2.7-6 .6-1.3-1.2-1.3-2.5-1-4.2 3.2-19.6 2.9-40.2 2.2-60 .1-7.8-.9-15.4-1.3-23.2a53.7 53.7 0 0 1-19.3-5A77.9 77.9 0 0 1 634 369c-6-11-9.4-23.4-8.2-36A1013.5 1013.5 0 0 1 466 346.2c-10.8-.3-21.5 0-32.2-1-14.4-.6-28.6-1.8-42.8-4-11.2-1.7-22.6-4-33.3-8-4.9 5-8 10.7-11.9 16.5-2.3 3.5-4 7.4-6.3 10.7-1 1.6-3.2 1.8-4.4.3-1.2-2.3-1.6-5.2-2.1-7.8a61.6 61.6 0 0 1 4-37c-2.4-4.5-4.6-9-5.8-14a62 62 0 0 1 6.5-44.3c9.3-17.8 24.9-32.5 41.6-43.4a182.2 182.2 0 0 1 61-25Z"/><path d="M340.5 321.2c3.1 4.3 7.2 7.2 11.8 9.7-5 6.6-9.6 13.5-14 20.5-1.2-9-1.5-17.8 1.2-26.6l1-3.6ZM718.2 480.6c2 1.1 1.6 3.3 0 4.6-8 6.8-16.4 13-25 19-1.5 1-3.2 2-4.6.2-1.8-1.7 0-3.3 1.3-4.5 3.7-3 7.8-5.5 11.6-8.4 4-2.9 7.9-6.2 11.8-9.2 1.6-1 3-2.3 5-1.7Z"/></g><path d="M436 196.1a63 63 0 0 0-15.4 27c-.3 2-1.3 4.7-.2 6.5 1.5.8 3 1.2 4.6 1.7 41.8-19 88.5-24.5 134-21.5 29 2.2 58.4 8.3 85.1 20.1 15.2 6.8 30.4 16 42 28a63.7 63.7 0 0 1 18 33l1.8 1.3c4.1-.7 7.6-1.8 11.5.4 6.4 3.7 10.8 11.5 14 18a198.7 198.7 0 0 1 14.4 50.4c2 12.6 3.5 25.3 4 38 .1 8 .9 16 .6 24-.4 10.5-.6 21-1.8 31.4-7.8.3-15.2 1-22.6 3.7-2.8 1-6.4 2.2-8.4 4.5-1.5 2.7-2 6-3 9L693 487.2c1.6-9.3 1.4-18.7 2.1-28.2.5-9.4-.6-18.6-.7-28-.2-5.4-.2-10.7-.8-16-.5-4.7-.5-9-2-13.5-5.7-.8-11.2-1-16.6-3.2a70.6 70.6 0 0 1-37-34.2 52 52 0 0 1-5.5-34.7c-2.6-3.4-7.3-2.2-10.9-1.7A964.5 964.5 0 0 1 447 340c-10-.1-20-.5-30-1.4-17-1.5-34.6-3.6-51-8.6a57 57 0 0 1-17-8 47.7 47.7 0 0 1-12.7-43c3-16 12.6-30.5 23.9-41.8a165 165 0 0 1 75.7-41Z" fill="#592454"/></g><g transform="translate(-161 -83)"></g></g></svg>