<svg xmlns="http://www.w3.org/2000/svg" viewBox="0 0 762 762" fill="none" shape-rendering="auto"><desc>"Adventurer" by "Lisa Wischofsky", licensed under "CC BY 4.0". / Remix of the original. - Created with dicebear.com</desc><metadata xmlns:dc="http://purl.org/dc/elements/1.1/" xmlns:cc="http://creativecommons.org/ns#" xmlns:rdf="http://www.w3.org/1999/02/22-rdf-syntax-ns#"><rdf:RDF><cc:Work><dc:title>Adventurer</dc:title><dc:creator><cc:Agent rdf:about="https://www.instagram.com/lischi_art/"><dc:title>Lisa Wischofsky</dc:title></cc:Agent></dc:creator><dc:source>https://www.figma.com/community/file/1184595184137881796</dc:source><cc:license rdf:resource="https://creativecommons.org/licenses/by/4.0/" /></cc:Work></rdf:RDF></metadata><mask id="viewboxMask"><rect width="762" height="762" rx="0" ry="0" x="0" y="0" fill="#fff" /></mask><g mask="url(#viewboxMask)"><path d="M396 164.8a224.8 224.8 0 0 1 104.8 42.4c6.2 4.9 12.5 9.4 18 15a225.4 225.4 0 0 1 71.8 149 58.5 58.5 0 0 1 50.9 42.2 71 71 0 0 1-27.6 76.5c-11 7.7-24.5 12-38 11.7-5 0-10-1.6-15-1.8-1.9 2.2-3.3 4.9-4.8 7.3A223.3 223.3 0 0 1 389 609.8c-11 .7-21.9 2-33 .7a223.7 223.7 0 0 1-178.8-342.3A223.4 223.4 0 0 1 352 163.5c14.6-1.4 29.4-.3 44 1.3Z" fill="#000"/><path fill-rule="evenodd" clip-rule="evenodd" d="M498.8 213.2A216 216 0 0 0 363 169c-13-.2-26.2 1.6-39 4a218 218 0 0 0-113.6 365.5 218.5 218.5 0 0 0 260.4 40.2c35-18.8 64.2-47.3 84.4-81.5l-3-1.6c-2.8-1.4-5.7-3-8-5-2.2-2-.3-5.8 2.7-4.7 1.5.7 3 1.6 4.4 2.4a55 55 0 0 0 59.6-3.6 64.5 64.5 0 0 0 25-69.8 53.1 53.1 0 0 0-24-31 52.6 52.6 0 0 0-47-2.8c-1.6.8-3.4 1.5-5 1.3-2.5-.2-2.8-4.2-.6-5.2 8-4 16.5-5.6 25.4-6.4a217 217 0 0 0-72-146.4c-4.4-4-8.7-8.1-13.9-11.3Zm107.6 196.2c2-1.2 1.3-5.1-1.4-5-2 0-4.2.8-6.2 1.6l-1.4.4a95.1 95.1 0 0 0-25.5 12.4c-2.2 2-2.2 4.4.1 6.2a92 92 0 0 0 5.2 2.8 36 36 0 0 1 13 9.2c-.2 1.9-2 3.4-3.4 4.5l-.2.2c-3.9 3-8.8 5-13.6 7-2.5 1-4.9 2-7.1 3.1-1.7.8-2.6 2.2-1.6 3.9 1 2 3.2 1.1 5 .5l.6-.2 5.4-2.3c5.4-2.3 11-4.5 15.4-8 2.7-2.1 5.1-5.1 5.4-8.7-.5-3.4-2.7-5.7-5.3-7.8a83 83 0 0 0-11.6-7.2l-1.1-.6c5.4-3 10.8-5.6 16.6-7.7l5-1.7a52 52 0 0 0 6.7-2.6Z" fill="#9e5622"/><g transform="translate(-161 -83)"><path d="M558.2 453.2c11.5-1.6 23.7.2 34 5.5 7.6 4 14.3 10.3 18.1 18a32.5 32.5 0 0 1 2.1 21.8c-2 8-7.2 15.2-13.7 20.2a57.4 57.4 0 0 1-54.2 7.8 43.6 43.6 0 0 1-21.4-16.6 34.2 34.2 0 0 1-5.4-15.9 34.5 34.5 0 0 1 10.3-26c8-8.4 18.9-13 30.2-14.8Z" fill="#000"/><path d="M559.2 459.1c14-2 29.7 1.6 39.8 11.9 6.6 6.5 10.4 17 7.7 26-2 8.2-7.7 14.5-14.6 19.2a52 52 0 0 1-43 5.6c-8.7-2.7-17.1-8.2-21.8-16.1-3-5-4.1-11-3.5-16.7.7-6.8 4.5-13.1 9.3-17.9 7-6.7 16.5-10.7 26-12Z" fill="#fff"/><path d="M369.5 468.7c17.6-2.7 37.9 3.4 47.7 19.1 5.5 8.6 6.3 20 2 29.2-3 6.3-8 11.6-13.8 15.4a52 52 0 0 1-24.4 7.8 48.4 48.4 0 0 1-39.4-15.8 31.3 31.3 0 0 1-7.5-22.4c.5-8.3 4.6-15.7 10.5-21.4 6.9-6.5 15.6-10.3 24.9-11.9Z" fill="#000"/><path d="M376.6 474.1c9.6-.3 19.5 2.3 27.3 8 5.2 3.8 9.5 9.2 11.2 15.4a25 25 0 0 1-2.1 18.6 36.6 36.6 0 0 1-23 16.7 44.9 44.9 0 0 1-40.8-9 26.8 26.8 0 0 1-9.2-22.3c.7-5.4 3.1-10.6 6.8-14.7a41 41 0 0 1 29.8-12.7Z" fill="#fff"/><path d="M551.5 477.6a16 16 0 0 1 19.9 18.4A15.8 15.8 0 0 1 556 509a15.9 15.9 0 0 1-4.5-31.3Z" fill="#000"/><path d="M553.6 483.2c4-.7 7.8.6 10.2 4 3 4 2.3 9.8-1.4 13.2-4.4 4-11.8 3.4-15.1-1.7a10 10 0 0 1 6.3-15.5Z" fill="#fff"/><path d="M618.7 484.2c1.7.3 3.6-.2 4.6 1.4 1.6 2.5 2.4 5.6 2.9 8.5a35 35 0 0 1-9.8 29.2c-3.3 3-7.9 6-12.4 6.2-2.8 0-4.3-2.7-2.4-4.8 3.3-1.7 6.6-2.2 9.5-4.6 6.3-5.3 9.6-14 9.6-22.1 0-4-1.6-7.2-2.7-11l.7-2.8ZM380.4 488.5c4.5-.9 9.2.5 12.7 3.3a17 17 0 0 1 4.7 19.8c-2.6 5.9-8.2 10.2-14.8 10.2-8.5.6-16-6.4-16.4-14.8-1-8.7 5.2-17 13.8-18.5Z" fill="#000"/><path d="M379.5 494.8c5.1-2 11 .6 13 5.7 2.8 6.4-1.6 14.7-8.7 15.4a9.9 9.9 0 0 1-10-4.8 11.4 11.4 0 0 1 5.7-16.3Z" fill="#fff"/><path d="M330.4 503.6c.5 4-1.4 7.4-1.6 11.4-.3 6 2.4 12.1 7.3 15.9 2.4 1.9 5 2.8 7.7 4.3 2 .8 1.9 2 1.6 3.9-1.5 1.8-3.3 1.4-5.3.8a26.3 26.3 0 0 1-16-16 25 25 0 0 1 1.4-19.4c1.3-1.9 3-.9 5-.9Z" fill="#000"/></g><g transform="translate(-161 -83)"><path d="M397 373.1c6.9.2 14.2 2.9 18 9 1 1.4.6 3.6.7 5.3-6.3.2-12.5.4-18.6 1.9a112 112 0 0 0-41.7 20.1 90 90 0 0 0-22 23c-1.3 2.3-2.3 5.1-4.2 7-1.2.2-2.6.2-3.8.3 0-1.8-.3-3.4.2-5.2a88.7 88.7 0 0 1 38-50.8c10-5.8 21.8-11 33.5-10.6ZM578.5 411.7a71.4 71.4 0 0 1 30 10l-.2 4.7c-4 1.6-7.3-.1-11.3-.8-6.8-1.2-13.9-1.2-20.8-1a197.5 197.5 0 0 0-84 23.7c-1.4.6-3 1-4.4 1.5-2.6-5.4-3.6-11-.1-16.2 5-7.6 15.2-12.4 23.6-15.4 21.3-7.4 44.9-9 67.2-6.5Z" fill="#000"/></g><g transform="translate(-161 -83)"><path d="M516.5 555.6c6 4.4 11.7 10 15.3 16.6 2.6 4.8 3.2 11.7-.4 16.1-4.2 5.4-11.5 7.6-18 8.8a151 151 0 0 1-47.4-1.6c-5.7-1.1-10.2 1.6-16 2.6-8.7 1.5-18.4 2.9-27 1-5.2-1-10.3-3.2-13.4-7.7-2.8-3.9-2.6-9.3-1.1-13.7 1.6-4 4.1-8 7-11.2 1.4-1.7 3.1-1 5-1.1.3 1.8 1 3.2-.4 4.8-2.6 3.3-5.2 6.4-6.4 10.5-1.1 3.3-.3 7 2.4 9.2 3 2.4 7.2 3.5 11 3.9a76 76 0 0 0 23-1.8c5.7-1 10-3.5 15.9-2.5 12 2 23.8 3.5 36 2.8 7-.2 14-1 20.3-4 3.2-1.9 6-4.2 5.7-8.3-.3-6-6.1-11.8-10.3-15.7-2.5-2.6-6.7-4-6-8.4 1.8-.9 3-1.8 4.8-.3Z" fill="#000"/></g><g transform="translate(-161 -83)"></g><g transform="translate(-161 -83)"></g><g transform="translate(-161 -83)"><path d="M484 203.3c31.3-2 63.4.1 93.9 8 21.5 5.4 42.2 13.8 60.9 26.1 23.4-3.9 47.9.9 69.4 10.4a172.1 172.1 0 0 1 60.1 45.8 164.6 164.6 0 0 1 38.8 87.4c1 12.2.9 25-1.8 37a91.5 91.5 0 0 1-26.1 48.2c-1.9 1.5-3 2.2-5.4 1a61.1 61.1 0 0 0-49.6-3c1 10.6.3 21-4.5 30.6a33 33 0 0 1-15.7 15.6c-2.7.9-4.6-1.4-3.5-4 3.3-8.1 3-16.7 2.8-25.4a149 149 0 0 0-2.9-23.5c-7.6.9-15.3.3-22.5-2.4a87.2 87.2 0 0 1-37-29 205 205 0 0 1-27.8-49.2c-9.5-23.3-16-48-20.2-72.8-.7-3.9-1-7.7-2.1-11.4-20.3-1.1-40.6-1-60.8-.4a631.8 631.8 0 0 0-65 7 452.8 452.8 0 0 0-96.2 25.6c-2.5 1.1-5 1.9-6.9 4a145.6 145.6 0 0 0-16.2 21.8 258.6 258.6 0 0 0-27 59.1c-1.1 3.2-1.6 6.8-3.2 9.7-1.4 1.6-3.4 1-4.8-.2a102.5 102.5 0 0 1-29.8-41.3 83.1 83.1 0 0 1-4.4-39.8c2.6-19 11.3-36.6 23.2-51.6 19-24 45.9-42.4 73.5-55.3a317.4 317.4 0 0 1 110.8-28Z" fill="#000"/><path d="M517 208.5c7.7.7 15.3.7 23 1.8 33.2 3.7 67.5 13.5 95.6 32 .8.5 1.6 1 2.4 1.2 16.3-3.4 34-1.6 49.8 3a160 160 0 0 1 77.4 52.4 162.1 162.1 0 0 1 34.3 71c3.1 16.7 3.5 33.6-.7 50.1a86.2 86.2 0 0 1-23.1 41.5 67.8 67.8 0 0 0-52.2-3.1c-2 .8-5.6 1.7-5.4 4.5 2.1 13 0 28-9.7 37.6 1.7-15.1.5-30.6-2.5-45.5-.7-3-1.8-3.8-4.9-3.4-9 1.4-17.6-.1-25.8-4a84 84 0 0 1-28.4-23.4c-12.3-15-21.6-33-28.9-51-10-25.1-16.6-51.6-20.6-78.2-.5-2.2.3-6.8-2.4-7.6-7.3-.7-14.6-.8-21.9-1.4-13.6 0-27.4-.6-41 .6A560.9 560.9 0 0 0 414.1 304c-20 5.3-40 11.9-58.7 20.6a153 153 0 0 0-32.3 19.6 53 53 0 0 0-15.6 19.3c-.6 1.9-1.6 3.8-.8 5.8 1.8 2 4.6 1.4 5.4-1.2 2-5.6 5.2-10.3 9.4-14.5 8.1-8.3 18.6-14.7 28.9-20-4 5-7.6 10.4-11 16a265.7 265.7 0 0 0-27.7 63 96.2 96.2 0 0 1-25.4-36.8 80.5 80.5 0 0 1 2-58.5 133 133 0 0 1 38.2-49.7 225 225 0 0 1 52-32.2c32.2-14.5 67.3-23 102.5-25.9 12-.6 23.9-1.8 36-.9Z" fill="#562306"/></g><g transform="translate(-161 -83)"><path d="M790.7 496.2c.6 4.4-4 8.1-8.1 6.2-2.5-1-3-3.2-4.2-5.4 1.3-2.2 1.8-4.4 4.3-5.3 3.4-1.5 7.5 1 8 4.5ZM787.3 513.3c4.5-2.2 9.6 2.2 8 7-1.3 4.2-6.8 5.7-9.9 2.2a5.8 5.8 0 0 1 1.9-9.2Z" fill="#000"/></g></g></svg>