<svg xmlns="http://www.w3.org/2000/svg" viewBox="0 0 762 762" fill="none" shape-rendering="auto"><desc>"Adventurer" by "Lisa Wischofsky", licensed under "CC BY 4.0". / Remix of the original. - Created with dicebear.com</desc><metadata xmlns:dc="http://purl.org/dc/elements/1.1/" xmlns:cc="http://creativecommons.org/ns#" xmlns:rdf="http://www.w3.org/1999/02/22-rdf-syntax-ns#"><rdf:RDF><cc:Work><dc:title>Adventurer</dc:title><dc:creator><cc:Agent rdf:about="https://www.instagram.com/lischi_art/"><dc:title>Lisa Wischofsky</dc:title></cc:Agent></dc:creator><dc:source>https://www.figma.com/community/file/1184595184137881796</dc:source><cc:license rdf:resource="https://creativecommons.org/licenses/by/4.0/" /></cc:Work></rdf:RDF></metadata><mask id="viewboxMask"><rect width="762" height="762" rx="0" ry="0" x="0" y="0" fill="#fff" /></mask><g mask="url(#viewboxMask)"><path d="M396 164.8a224.8 224.8 0 0 1 104.8 42.4c6.2 4.9 12.5 9.4 18 15a225.4 225.4 0 0 1 71.8 149 58.5 58.5 0 0 1 50.9 42.2 71 71 0 0 1-27.6 76.5c-11 7.7-24.5 12-38 11.7-5 0-10-1.6-15-1.8-1.9 2.2-3.3 4.9-4.8 7.3A223.3 223.3 0 0 1 389 609.8c-11 .7-21.9 2-33 .7a223.7 223.7 0 0 1-178.8-342.3A223.4 223.4 0 0 1 352 163.5c14.6-1.4 29.4-.3 44 1.3Z" fill="#000"/><path fill-rule="evenodd" clip-rule="evenodd" d="M498.8 213.2A216 216 0 0 0 363 169c-13-.2-26.2 1.6-39 4a218 218 0 0 0-113.6 365.5 218.5 218.5 0 0 0 260.4 40.2c35-18.8 64.2-47.3 84.4-81.5l-3-1.6c-2.8-1.4-5.7-3-8-5-2.2-2-.3-5.8 2.7-4.7 1.5.7 3 1.6 4.4 2.4a55 55 0 0 0 59.6-3.6 64.5 64.5 0 0 0 25-69.8 53.1 53.1 0 0 0-24-31 52.6 52.6 0 0 0-47-2.8c-1.6.8-3.4 1.5-5 1.3-2.5-.2-2.8-4.2-.6-5.2 8-4 16.5-5.6 25.4-6.4a217 217 0 0 0-72-146.4c-4.4-4-8.7-8.1-13.9-11.3Zm107.6 196.2c2-1.2 1.3-5.1-1.4-5-2 0-4.2.8-6.2 1.6l-1.4.4a95.1 95.1 0 0 0-25.5 12.4c-2.2 2-2.2 4.4.1 6.2a92 92 0 0 0 5.2 2.8 36 36 0 0 1 13 9.2c-.2 1.9-2 3.4-3.4 4.5l-.2.2c-3.9 3-8.8 5-13.6 7-2.5 1-4.9 2-7.1 3.1-1.7.8-2.6 2.2-1.6 3.9 1 2 3.2 1.1 5 .5l.6-.2 5.4-2.3c5.4-2.3 11-4.5 15.4-8 2.7-2.1 5.1-5.1 5.4-8.7-.5-3.4-2.7-5.7-5.3-7.8a83 83 0 0 0-11.6-7.2l-1.1-.6c5.4-3 10.8-5.6 16.6-7.7l5-1.7a52 52 0 0 0 6.7-2.6Z" fill="#f2d3b1"/><g transform="translate(-161 -83)"><path d="M550.3 424.4a65.9 65.9 0 0 1 62 30.4A64.9 64.9 0 0 1 598 540a65.4 65.4 0 1 1-47.7-115.6Z" fill="#000"/><path d="M549.2 430.3a59.7 59.7 0 1 1 15.1 118.3 59.7 59.7 0 0 1-15-118.3Z" fill="#fff"/><path d="M521.2 467.3a22.2 22.2 0 1 1 10.8 43 22.2 22.2 0 0 1-10.8-43ZM333 478.5c14.4.7 28.8 1.5 43 3.9 21.1 3.4 42.9 9 62.1 18.4 2.9 1.6 2.5 3.3 1.6 6.1-2.4 0-4.4-.2-6.7-1-11.1-3.4-22.5-5.3-34-7.2-10.4-1.4-20.6-3.2-31-3.7-11-1-21.9-.7-33-.6-2-.1-5 .6-6.6-.8-.7-2.1.8-4.7 1.3-6.8-.9-1.6-3-3.4-2.4-5.4 1-2.4 3.4-3 5.7-3Z" fill="#000"/></g><g transform="translate(-161 -83)"><path d="M607 397.6c1.5-.4 3.2.6 4.7 1 0 1.2-.1 2.4-.4 3.6-1.6 1.5-3.6 2.6-5.4 3.8a803.6 803.6 0 0 1-70.4 40.6A289.9 289.9 0 0 1 500 462a50 50 0 0 1-21 3.5c-3.3-.4-6.2-3-6.2-6.5 0-4.2 3-8.6 5-12.1 1.3-2.7 4.5-3 7-4.1l111.7-41.5c3.5-1.2 7-2.8 10.5-3.7ZM339 432.6l90 18c2.3.4 4.6.1 6.9.5 2.4 2.3 3.6 6.2 4.5 9.4 1.2 4-.1 8.8-4 11-4 2.6-9.8 2.1-14.4 1.9-8.8-1-17.4-3.8-25.7-6.8a418 418 0 0 1-57-27c-1.6-.9-3.6-1.9-4.8-3.5-.3-2.9 1.9-4.1 4.5-3.5Z" fill="#000"/></g><g transform="translate(-161 -83)"><path d="M535 563a31.4 31.4 0 0 1 22.7 17.3 48 48 0 0 1 3.5 23.7 53 53 0 0 1-15 30.2 65.7 65.7 0 0 1-33.2 18.9 140.5 140.5 0 0 1-62 .3 85.4 85.4 0 0 1-38.6-19.8c-4.5-4.2-9-9.1-11-15A30 30 0 0 1 403 595c3.3-6.3 9.9-10.5 17-10.7 12.7-.7 23.9 4.2 36 4.8 7.8 0 15.9-1.1 23.2-4 11.3-4.8 21.3-14.5 32.8-19.1 7.4-3 15.1-4.6 23-3Z" fill="#000"/><path d="M538 569.9c7 2.5 12.7 7.9 15.1 15-3 2.5-5.8 5-9 7.3-3.6 2.6-7.2 4.4-9.9 8-3.2 4-6 9.9-10.4 12.5-3.4-.4-6.6-2.9-9.8-4-2.4-.7-5.4.4-7.8 1a167.3 167.3 0 0 1-37.2 5.9 46 46 0 0 0-9.6 1c0 1.2 0 2.4.3 3.6 1.9 1.5 5 1.3 7.3 1.5 15.3-.6 30.3-3.2 45-7.3 3.7 0 9.4 5.2 13.9 3.5 5.3-2.5 9-9 12.4-13.6 1.9-2.8 4.5-4 7.1-5.9 3.4-2.2 6.5-4.7 9.6-7.3a46 46 0 0 1-.4 17c-2.2 9.3-8.1 17.9-15 24.5a66.5 66.5 0 0 1-37.1 16.6 141 141 0 0 1-36.5.8 87.2 87.2 0 0 1-48.4-19.6c-5-4.7-9.8-8.9-11.2-16-2.3-8.6.4-20.7 10.1-23.5 8.2-2 17.8.5 26 2.2 12 2.8 25 2.4 36.7-1.7 14-4.9 25-17 38.8-21.3a30 30 0 0 1 20-.2Z" fill="#fff"/></g><g transform="translate(-161 -83)"></g><g transform="translate(-161 -83)"></g><g transform="translate(-161 -83)"><path d="M659.4 36.4c1.9-.6 3.6-1.2 5.6-.6l2.4 3c-3.4 5-6 10.5-8.7 16a180.5 180.5 0 0 0-19.5 82.3 383.4 383.4 0 0 1 105 5.6c2 .4 3.5 1 3.7 3.3.1 3-2.8 3.5-5 5a177.5 177.5 0 0 0-30.9 25 201.2 201.2 0 0 0-36.5 51.2c30 5.2 59 20 83.1 38.2 2 1.5 4.5 3.2 5.7 5.5-.5 4.2-4.6 4.3-7.7 5.7a254.4 254.4 0 0 0-54 27.4c12.8 8 25 17 36.2 27.2 1.7 1.7 3.6 3 3 5.7-.1 1.8-2.9 2.9-4.3 3.6-7.8 3.4-15.8 6.4-23.8 9.1-2.3.8-3.3 0-4.5-1.9a194.1 194.1 0 0 0-39.8-44 215.2 215.2 0 0 0-39.3-26.8c-2.6-1.3-5-2.6-8-2.5-5.7 0-11.4.2-17.1.5-32 2.5-63.6 10.3-93 23.2-15.6 6.9-31.3 15.5-44.4 26.5-2 1.6-4 4.1-6.6 5-5.8-1-11.5-3.4-17-5.5-18.8-7-35.1-19.9-49-34.1-11-11-20.3-23.3-28.7-36.3-6.2-9.5-12-19.1-16.4-29.6-1.4-3.2-3.2-6.6-3.7-10.1 0-1.3 1.2-3.6 2.8-3.2 3 1 6 2.9 9 4.2 5.9 2.9 12.1 4.7 18.5 6.3 12 3.4 24.6 5.8 36.9 8.3-1.2-7.7-1.2-15.4-.8-23.2a202 202 0 0 1 15.3-63.4 230 230 0 0 1 24.3-44.8 212.6 212.6 0 0 1 36.6-41.5c2.6-1.9 5.4-4.4 8.7-2.2 2.2 1 1.1 3.7 1 5.5-3.7 17-.4 34.6 4.3 51.2 2.6 9.3 6.7 17.9 11 26.5 3.5-4.7 7.4-9.1 11.5-13.3A420 420 0 0 1 595.1 69a344.4 344.4 0 0 1 64.3-32.7Z" fill="#000"/><path d="M658.7 42.9a192.5 192.5 0 0 0-25.1 81.1c-.2 5.4 0 10.9-.1 16.3 1 .8 2 2.5 3.5 2.5 6.3-.5 12.6-1.5 19-1.5 11.3 0 22.5-.3 33.8.7 16.3.4 32.3 2.8 48.4 5.6a202 202 0 0 0-38.6 33A234.2 234.2 0 0 0 670 225c-.8 1.7-2.1 3.8-1 5.8 1 1.2 2.5 1.1 4 1.4 6 .8 12 2.3 17.8 4.1a213.3 213.3 0 0 1 65.5 34.6 250.2 250.2 0 0 0-55.9 27.4c-2.3 1.8-7.8 4-5.6 7.7 3.2 2 6.6 3.3 9.6 5.5 10.6 7.1 21 15 30.3 23.8-7 3-14 5.6-21.2 8.2a201.2 201.2 0 0 0-36.2-40.9 218.3 218.3 0 0 0-48.8-33c-2-1-4.2-1.1-6.5-1.1-37.5 0-75 8.4-109.5 22.9-19 8.2-37 18.2-52.6 32A119.3 119.3 0 0 1 411 297a204 204 0 0 1-32.4-35.6c-9.3-13.5-18.3-26.5-24.8-41.7 18.1 8 38.8 11.3 58.2 15 2.6 0 6.4 1.9 7.4-1.5-.1-2.8-.8-5.5-1.1-8.2-1.4-9.7 0-20.3 1-30a225.9 225.9 0 0 1 38.3-94.5C467.8 86 479 72.5 492.7 61c-1.4 8.9-1.3 18-.6 27 2 16.2 6.5 32.3 13.8 47 1.8 3.2 3.1 6.9 5.4 9.7 1 1.3 3.5 1.7 4.4 0 5.2-8.9 12.8-15.6 20.2-22.8A455.5 455.5 0 0 1 598 74c19.3-12 39.5-23.2 60.7-31.2Z" fill="#6a4e35"/></g><g transform="translate(-161 -83)"></g></g></svg>