<svg xmlns="http://www.w3.org/2000/svg" viewBox="0 0 762 762" fill="none" shape-rendering="auto"><desc>"Adventurer" by "Lisa Wischofsky", licensed under "CC BY 4.0". / Remix of the original. - Created with dicebear.com</desc><metadata xmlns:dc="http://purl.org/dc/elements/1.1/" xmlns:cc="http://creativecommons.org/ns#" xmlns:rdf="http://www.w3.org/1999/02/22-rdf-syntax-ns#"><rdf:RDF><cc:Work><dc:title>Adventurer</dc:title><dc:creator><cc:Agent rdf:about="https://www.instagram.com/lischi_art/"><dc:title>Lisa Wischofsky</dc:title></cc:Agent></dc:creator><dc:source>https://www.figma.com/community/file/1184595184137881796</dc:source><cc:license rdf:resource="https://creativecommons.org/licenses/by/4.0/" /></cc:Work></rdf:RDF></metadata><mask id="viewboxMask"><rect width="762" height="762" rx="0" ry="0" x="0" y="0" fill="#fff" /></mask><g mask="url(#viewboxMask)"><path d="M396 164.8a224.8 224.8 0 0 1 104.8 42.4c6.2 4.9 12.5 9.4 18 15a225.4 225.4 0 0 1 71.8 149 58.5 58.5 0 0 1 50.9 42.2 71 71 0 0 1-27.6 76.5c-11 7.7-24.5 12-38 11.7-5 0-10-1.6-15-1.8-1.9 2.2-3.3 4.9-4.8 7.3A223.3 223.3 0 0 1 389 609.8c-11 .7-21.9 2-33 .7a223.7 223.7 0 0 1-178.8-342.3A223.4 223.4 0 0 1 352 163.5c14.6-1.4 29.4-.3 44 1.3Z" fill="#000"/><path fill-rule="evenodd" clip-rule="evenodd" d="M498.8 213.2A216 216 0 0 0 363 169c-13-.2-26.2 1.6-39 4a218 218 0 0 0-113.6 365.5 218.5 218.5 0 0 0 260.4 40.2c35-18.8 64.2-47.3 84.4-81.5l-3-1.6c-2.8-1.4-5.7-3-8-5-2.2-2-.3-5.8 2.7-4.7 1.5.7 3 1.6 4.4 2.4a55 55 0 0 0 59.6-3.6 64.5 64.5 0 0 0 25-69.8 53.1 53.1 0 0 0-24-31 52.6 52.6 0 0 0-47-2.8c-1.6.8-3.4 1.5-5 1.3-2.5-.2-2.8-4.2-.6-5.2 8-4 16.5-5.6 25.4-6.4a217 217 0 0 0-72-146.4c-4.4-4-8.7-8.1-13.9-11.3Zm107.6 196.2c2-1.2 1.3-5.1-1.4-5-2 0-4.2.8-6.2 1.6l-1.4.4a95.1 95.1 0 0 0-25.5 12.4c-2.2 2-2.2 4.4.1 6.2a92 92 0 0 0 5.2 2.8 36 36 0 0 1 13 9.2c-.2 1.9-2 3.4-3.4 4.5l-.2.2c-3.9 3-8.8 5-13.6 7-2.5 1-4.9 2-7.1 3.1-1.7.8-2.6 2.2-1.6 3.9 1 2 3.2 1.1 5 .5l.6-.2 5.4-2.3c5.4-2.3 11-4.5 15.4-8 2.7-2.1 5.1-5.1 5.4-8.7-.5-3.4-2.7-5.7-5.3-7.8a83 83 0 0 0-11.6-7.2l-1.1-.6c5.4-3 10.8-5.6 16.6-7.7l5-1.7a52 52 0 0 0 6.7-2.6Z" fill="#ecad80"/><g transform="translate(-161 -83)"><path d="M550.3 424.4a65.9 65.9 0 0 1 62 30.4A64.9 64.9 0 0 1 598 540a65.4 65.4 0 1 1-47.7-115.6Z" fill="#000"/><path d="M549.2 430.3a59.7 59.7 0 1 1 15.1 118.3 59.7 59.7 0 0 1-15-118.3Z" fill="#fff"/><path d="M521.2 467.3a22.2 22.2 0 1 1 10.8 43 22.2 22.2 0 0 1-10.8-43ZM333 478.5c14.4.7 28.8 1.5 43 3.9 21.1 3.4 42.9 9 62.1 18.4 2.9 1.6 2.5 3.3 1.6 6.1-2.4 0-4.4-.2-6.7-1-11.1-3.4-22.5-5.3-34-7.2-10.4-1.4-20.6-3.2-31-3.7-11-1-21.9-.7-33-.6-2-.1-5 .6-6.6-.8-.7-2.1.8-4.7 1.3-6.8-.9-1.6-3-3.4-2.4-5.4 1-2.4 3.4-3 5.7-3Z" fill="#000"/></g><g transform="translate(-161 -83)"><path d="M613.5 401.5c1.6 1 1.1 2.9 1.3 4.5l-.1 34c.3 2.8-2.5 4.2-4.7 5l-120 41.1c-2.5.2-2.9-1.7-3.5-3.6l-5-18c1 5.8 1 11.7 1.3 17.5 0 1.4.5 4-1 4.9-2 1.4-4 0-4.6-2l-10.6-38.4c-.4-1.8-.7-3.9 1.3-4.9 2.2-.5 3.5.5 4 2.5 1.3 4.5 2.6 9 3.7 13.7-.7-5.3-1-10.5-1.2-15.8 0-1.3-.1-3.7 1.7-3.8l4.4-.7 123.6-35.2c3.3-.9 6-2.1 9.4-.8ZM324 433.9c13.6 1.4 27.4 1.4 41 2.6 21 1 42.1 2.6 63.1 3.4 7.8.8 15.6 1 23.5 1.7 2.8 2.1 1 8 1.9 11.3.6-3 .2-7 2-9.5 2-1.8 5-.1 4.7 2.6-2.4 14-4.8 28.1-7 42.2-.8 2.9-4.5 2.5-5.3-.2-.3-5-.2-9.9-.3-14.8-1 4.3-1.5 8.7-2.5 13-.4 1.6-1.2 2.8-3 2.4l-119-21.3c-1.8-.2-2.8-1.5-3-3.3-1.5-8-2.6-16-4.2-24-.2-1.7-.7-3.1.6-4.6 2.1-2.2 4.7-1.6 7.5-1.5Z" fill="#000"/></g><g transform="translate(-161 -83)"><path d="M524.2 555.9c.6 7-.9 13.2-1.6 20.1-2.7 24.2-9.3 48-19.1 70.2-3.7 7.4-6.7 15.8-14 20.4-3.8 2.8-9 2-13.2.1a44 44 0 0 1-12.4-8.6 171.3 171.3 0 0 1-30-42.1c-6.7-12.6-11.6-25.8-17-38.9-1-2.1-1.2-4.1 1-5.4 4.4-.1 8.7 1.4 13.1 1.4 9.9.4 20 .5 29.8-.9 17.7-2 35.1-7.1 51.6-13.9 4.2-1.5 7-4.3 11.8-2.4Z" fill="#000"/><path d="M519 562a298 298 0 0 1-9 48 52 52 0 0 0-26.4 6.6 67 67 0 0 0-27.3 23.9A197.7 197.7 0 0 1 437 609c-5.4-10.1-9.4-20.7-14-31.2 9.4.8 18.5 2 28 1 23.2-.7 46.7-7.7 68-16.8Z" fill="#8F2E45"/><path d="M508.2 616.1a184 184 0 0 1-15.6 38.5 17.5 17.5 0 0 1-6.7 7.4c-4 1.7-9-1.2-12.4-3.5-5.4-3.4-8.6-8.3-12.9-12.7A36 36 0 0 1 471 632c7.8-6.7 17.1-12 27-15 3.4-1 6.7-1.1 10.2-1Z" fill="#EA869E"/></g><g transform="translate(-161 -83)"></g><g transform="translate(-161 -83)"></g><g transform="translate(-161 -83)"><path d="M653 99c3 1 6.2 1.6 7.2 5-.3 3.2-4 3.6-6.3 5-14.1 6.6-25.1 20.6-32.6 33.9 27-6.7 56.8-1.5 78.6 16.2 3.2 2.4 5.7 5.8 9 8 4 1 8 1.5 12 3a59.2 59.2 0 0 1 36.8 38.1 61.4 61.4 0 0 1-1.5 40.8 63.2 63.2 0 0 1-32 34.1c4.1 6.2 8.1 12.5 11.5 19.2 1.2 2.4 2.5 4.6 4.5 6.5 5 5.2 9.2 10.9 13.2 16.8a235.7 235.7 0 0 1 24 48A232.2 232.2 0 0 1 791 427c.8 9.6 1.3 20-.5 29.5-1 5.1-3 11.3-7 14.9-2.4 1.4-4.2-.6-6.1-1.8a50.3 50.3 0 0 0-32-9.5c.3 21.5-3.7 44.9-14.6 63.7a62.1 62.1 0 0 1-37.8 30.6c-2.6.3-3.8.6-3.9-2.4.9-5.5 3.1-10.8 4.4-16.2 5-17.8 6-37.5 6.8-55.8.1-14.9.4-30-1.1-44.8-.6-9.4-1.5-19-3-28.3-2.3 14.5-6 28.6-12.5 41.8-1.3 2.2-2.4 4.8-5.5 4-2-.5-1.8-2.2-2.2-3.9a114 114 0 0 0-8.8-44.3c-1.9 4.1-3 8.6-5 12.6-1 1.7-1.9 3.6-4.1 3.7-6-1.2-11.5-3.8-17.3-5.4-2-.7-5.1-1.1-5.8-3.5-.6-3.5 0-7.3 0-10.9.2-4.5-.4-8.9-1.3-13.2A88 88 0 0 1 626 405c-1.3 2.2-3 4.6-5.2 5.8-3 .2-6.3-1-9.3-1.5-10.7-2.1-21.3-4-31.8-7-7.5-2-15-4.2-22.7-6-1.6-.6-4.2-1-3.9-3.2 1-6.7 2-13.3 1.8-20.1-.2-10 .4-20.1-.6-30-.4-6.1-1.6-12.2-1.9-18.3-.3 5.8-.8 11.5-1 17.3a96.6 96.6 0 0 1-10.7 40.7c-1 1.8-2.3 4.6-4.7 5-2.2.8-4.6-.2-6.8-.9-25.3-9.2-51-17.9-77-25.2-2.7-.8-5.2-1.5-6.7-4.1a78.6 78.6 0 0 1-9.7-45.7 86.2 86.2 0 0 0-8.3 41.2c0 2.6 1 6.2-2.7 6.6-18-.5-36 2.5-53 8.1-11 3.6-21.7 8.2-31.2 14.9-4.1-2.8-4.8-8.2-6.7-12.6-3.7 7.8-6.7 15.8-10.2 23.6-2.8 6.2-3.8 12.4-6 19-1.2 3.6-1.6 7.6-2.8 11.3-.3 2.2-3.4 2.4-4.8 1-3.2-3.3-4-8.4-4.3-12.9-1.3-17.3.4-34.5 7.6-50.4-1.9 2-3.8 6.7-7.2 4.4a41.2 41.2 0 0 1-16.5-32c-1-17.4 6.8-34.6 17-48.4a153.8 153.8 0 0 1 77.6-54 195 195 0 0 0-35.3 3.6 134.8 134.8 0 0 0-32.2 9.5c-3 1.4-6.4 4.5-9.8 4.5-1.6-1-2.7-2-1.9-4a79 79 0 0 1 9.8-17.3 107 107 0 0 1 102.6-41.2c15.2 2.6 29.5 9 41.2 19.1 14.3-5.3 30.4-8.6 45.6-7a55.7 55.7 0 0 1 .3-56.2c8-15 21.8-26.6 37.9-32 1.9-.5 4.2-1.5 6 0 1.6 1.2.7 4-.5 5.4a64.7 64.7 0 0 0-13.2 48.7c4.1-2.6 8.3-4.8 13-6.3a116 116 0 0 1 61-55.6A72 72 0 0 1 653 99ZM720 576.4c2.3.1 4.7 1 7 1.5 4.7 1.1 9.9 1.2 14.7 1.7.8 3.4.7 4.9-1.2 7.8-4 6-7.3 12.2-11 18.2 11 .2 21.5 1.5 31.4 6.5a29.2 29.2 0 0 1 15 16c2.4 7.5 1 15.4-2.5 22.3a68.8 68.8 0 0 1-19.1 21.9c-2.7 2-5.4 4.2-8.5 5.6-1.5.7-3.4-.5-4.3-1.7-.2-2.7 2.2-5 3.5-7.2a24 24 0 0 0 2.6-18.8 39 39 0 0 0-15.7-21c-6.5-4.7-14-7.8-21.9-9.3-5.7-1.4-12 2-18 1.2-1.7-1-2.9-1.9-2.4-4.1 1.7-2.9 4.6-5 6.7-7.7 3.6-4.1 6.8-8.6 10-13 3.4-5.3 7.3-10.1 10.3-15.7 1-1.4 1.8-3.4 3.3-4.2Z" fill="#000"/><g fill="#85c2c6"><path d="M650 104.1a79.6 79.6 0 0 0-23.4 20.5 108.3 108.3 0 0 0-22.9 54.4c-1 10 .1 19.2 4.2 28.5-2.1-.6-4.1-1.3-6.2-2.2a99.8 99.8 0 0 0-43.8-7c-4-2-7.9-4.1-11.2-7.3.1-5.7.2-11.2 1.6-16.8a83.1 83.1 0 0 1 14.5-29.4 112.8 112.8 0 0 1 42-34A71 71 0 0 1 650 104Z"/><path d="M538.9 118.2c-2.2 4.5-4.6 8.8-6.2 13.5a68.4 68.4 0 0 0 1.5 51.1 43.7 43.7 0 0 0 13.7 16.7c-7.8 1.2-15.4 3.3-22.9 5.6-4-2.7-8.5-3.4-12.7-5.3a41 41 0 0 1-8.8-19.8c-.8-7.7-.8-15.8 1.5-23.2 5-17 17.7-31.4 33.9-38.6ZM676.2 151.8A72.4 72.4 0 0 1 708 176a58.4 58.4 0 0 1 1.3 67.4c-1.3 1.6-2 5 .8 5.4 1.6.5 2.8-.7 3.7-2a64.3 64.3 0 0 0 0-72.9 53.7 53.7 0 0 1 40.8 49 56.1 56.1 0 0 1-9.7 35 61 61 0 0 1-24.2 20.7c-6.5-8.4-13.6-16-22-22.5a61.6 61.6 0 0 0-37.7-14.5 63.7 63.7 0 0 0-16.4-13.5c-2.7-7.7-7-14.5-14.5-18.3-4.8-2.6-9.8-3-15.1-3.7-.8 0-1.4-.4-1.8-1.3a40 40 0 0 1-4.2-19.8c.2-12 3.8-24.2 8.7-35 19-6 39.8-5.6 58.4 1.8Z"/><path d="M545 165c-2 6.2-3.5 12.4-3.9 18.8a59.2 59.2 0 0 1-5.3-13.5c3-1.9 6-3.7 9.2-5.2ZM402 191.1c18-.2 36.4 5.9 50.6 17.2a156.4 156.4 0 0 0-74.3 67c-2.7 5.3-5.6 11-6.7 16.8 1 3.1 4.4 3.1 5.5.1 5.5-15.2 14.3-29 25.2-40.9 18.3-20 42.3-35.8 68.4-43.4 15.4-4.3 32-5.7 47.2 0a137 137 0 0 0-77 79c-1.6 4-1.9 9.2-4.6 12.4-3.2 4-5.2 9.2-7.2 14a87.1 87.1 0 0 0-6.9 40.6c-5 0-10.1-.1-15.2.5a164.6 164.6 0 0 0-65.2 20.4c-3.3-8.4-6-17-7.6-25.8a95.9 95.9 0 0 1 1.6-49.3c1.2-4.1 4-6.8 2.7-11.3-1.2 0-2.5 0-3.7.3-2.7 3-3.9 7.4-5.1 11a113.6 113.6 0 0 0 2 63.4c-5.3 9.1-8.8 18.9-13.2 28.4-3.3 7.1-4.5 14.5-7 21.8-1.4-19 .6-38 9.7-55 .9-2 2.5-4.2 2.4-6.3-.1-2.2-2.7-3.3-4.5-2a52 52 0 0 0-11.4 10 38.9 38.9 0 0 1-12-34.8c2.5-18.4 13.7-35.9 26.4-49a149 149 0 0 1 71.2-41c2.8-.7 6-.9 8.6-2.4 1.3-.8 1.1-2.1.9-3.5-.8-1.2-2.7-1.7-4-2.1-11-2.1-21.7-1.3-32.8-.4a186.7 186.7 0 0 0-51.7 12.5 100.4 100.4 0 0 1 87.7-48.2Z"/><path d="M599.2 210.4c-3.3 2.6-6.8 5-9.2 8.6-1 1.6-2 3-.7 4.7.9 1.7 3.2 1.3 4.2-.1 4.5-5.2 9.5-10 16.5-11.2 8.3-1 17.2 0 23.2 6.4 4 3.9 5.5 8.7 7.4 13.7a64.8 64.8 0 0 1 26.9 29 202.8 202.8 0 0 1 17.3 48c5.5 21.4 8.2 43.4 8 65.5-.1 21.8-3.2 44.5-11.3 64.9-2-15.3-4.1-29.6-12.5-43 4.9-19.4 3.6-38.8.1-58.4-.6-3.2-.9-7.1-2.6-10-1.3-.4-2.8-.3-4.2-.3-.3 2.5-.2 4.8.4 7.3 2.3 11 3.4 22.3 4 33.5 0 15.8-3.2 31.5-9.4 46-5.8-1.7-11.6-3.7-17.5-5.5 1-10.3.8-22.1-3.2-31.9 4.7-21.8 5.9-44.4 4.4-66.7-1.4-16.1-3.5-33-9.7-48.1-1-2.8-5.6-2-5.3 1 1.4 5.8 3.9 11.3 5 17.2 5.1 23.8 6 48.8 3.6 73-2.1 17.6-5 35.8-14.8 51-11.4-2.2-23-4.2-34.3-6.8-8.8-2.2-17.5-4.6-26.3-6.9 1.8-10.2 1.5-20.2 1.5-30.5.1-19-2.5-38.1-7-56.6-.8-2.4-1.2-6.1-3.6-7.5-2.5-.5-4 .7-3.9 3.2a572 572 0 0 1-.4 41c-.5 14.6-4 29-11 41.7-15.6-5.5-31.5-11.3-47.3-16.2-12-3.8-24.2-7.2-36.3-10.6a75 75 0 0 1-8.7-51.8 114 114 0 0 1 29-56.6c18.6-20.4 43.8-35.5 71-41a98 98 0 0 1 56.7 4Z"/><path d="M665.9 247.5c5.5.8 10.9 2.3 16 4.8 15.2 7.3 27.4 20 37.1 33.7 17.4 24.8 28.1 54.6 32 84.6.6 4.6.8 9.1 1.5 13.7l2.5 1 2.6-1.2c.3-7.7-1-15.5-2.2-23-1.9-12.3-5.6-24-9.2-35.7a217 217 0 0 1 23.7 44.6c8.1 20.4 14.2 42.1 16 64 .6 10.6.3 22-4.8 31.6a59.9 59.9 0 0 0-35.8-11.4c-.7-14.1-2.8-28-6.6-41.7-1.5-5.4-2.9-11.2-5.5-16.1-1.2.2-2.5.5-3.6 1-1.4 1.8-.4 3.2 0 5a189 189 0 0 1 9.5 46.1c1 8.7 1 17.8 0 26.5a109.7 109.7 0 0 1-14 47.2 58.3 58.3 0 0 1-29 25.3c2.6-8.7 5.2-17.2 6.5-26.3 1.5-10.3 2.7-20.8 2.9-31.2a371.2 371.2 0 0 0-5.5-91.1c-.7-3.2-2-6-2-9.1.1-4 .6-7.9.7-11.8.2-10.6-.6-21.4-1.5-32-2-19.8-6.5-39-12.4-58-4.4-14.2-10.8-28-19-40.5ZM721.8 582.3c4.7 1 9.4 1.9 14.3 2.2-5.3 7.6-9.5 16-15 23.5 2.5 2.3 4.5 3.4 8 3.4 9 0 17.7 1 26.1 4.4 4.6 1.9 9.2 4.8 12.3 8.7a18.8 18.8 0 0 1 3.2 16.5 51.7 51.7 0 0 1-17.7 25c1.4-5.7 1.8-11.5.2-17.3a44.4 44.4 0 0 0-19.7-25.3 45.8 45.8 0 0 0-34.4-8.5 170 170 0 0 0 12.2-16.5c3.7-5.3 7.4-10.4 10.5-16.1Z"/></g></g><g transform="translate(-161 -83)"></g></g></svg>