<svg xmlns="http://www.w3.org/2000/svg" viewBox="0 0 762 762" fill="none" shape-rendering="auto"><desc>"Adventurer" by "Lisa Wischofsky", licensed under "CC BY 4.0". / Remix of the original. - Created with dicebear.com</desc><metadata xmlns:dc="http://purl.org/dc/elements/1.1/" xmlns:cc="http://creativecommons.org/ns#" xmlns:rdf="http://www.w3.org/1999/02/22-rdf-syntax-ns#"><rdf:RDF><cc:Work><dc:title>Adventurer</dc:title><dc:creator><cc:Agent rdf:about="https://www.instagram.com/lischi_art/"><dc:title>Lisa Wischofsky</dc:title></cc:Agent></dc:creator><dc:source>https://www.figma.com/community/file/1184595184137881796</dc:source><cc:license rdf:resource="https://creativecommons.org/licenses/by/4.0/" /></cc:Work></rdf:RDF></metadata><mask id="viewboxMask"><rect width="762" height="762" rx="0" ry="0" x="0" y="0" fill="#fff" /></mask><g mask="url(#viewboxMask)"><path d="M396 164.8a224.8 224.8 0 0 1 104.8 42.4c6.2 4.9 12.5 9.4 18 15a225.4 225.4 0 0 1 71.8 149 58.5 58.5 0 0 1 50.9 42.2 71 71 0 0 1-27.6 76.5c-11 7.7-24.5 12-38 11.7-5 0-10-1.6-15-1.8-1.9 2.2-3.3 4.9-4.8 7.3A223.3 223.3 0 0 1 389 609.8c-11 .7-21.9 2-33 .7a223.7 223.7 0 0 1-178.8-342.3A223.4 223.4 0 0 1 352 163.5c14.6-1.4 29.4-.3 44 1.3Z" fill="#000"/><path fill-rule="evenodd" clip-rule="evenodd" d="M498.8 213.2A216 216 0 0 0 363 169c-13-.2-26.2 1.6-39 4a218 218 0 0 0-113.6 365.5 218.5 218.5 0 0 0 260.4 40.2c35-18.8 64.2-47.3 84.4-81.5l-3-1.6c-2.8-1.4-5.7-3-8-5-2.2-2-.3-5.8 2.7-4.7 1.5.7 3 1.6 4.4 2.4a55 55 0 0 0 59.6-3.6 64.5 64.5 0 0 0 25-69.8 53.1 53.1 0 0 0-24-31 52.6 52.6 0 0 0-47-2.8c-1.6.8-3.4 1.5-5 1.3-2.5-.2-2.8-4.2-.6-5.2 8-4 16.5-5.6 25.4-6.4a217 217 0 0 0-72-146.4c-4.4-4-8.7-8.1-13.9-11.3Zm107.6 196.2c2-1.2 1.3-5.1-1.4-5-2 0-4.2.8-6.2 1.6l-1.4.4a95.1 95.1 0 0 0-25.5 12.4c-2.2 2-2.2 4.4.1 6.2a92 92 0 0 0 5.2 2.8 36 36 0 0 1 13 9.2c-.2 1.9-2 3.4-3.4 4.5l-.2.2c-3.9 3-8.8 5-13.6 7-2.5 1-4.9 2-7.1 3.1-1.7.8-2.6 2.2-1.6 3.9 1 2 3.2 1.1 5 .5l.6-.2 5.4-2.3c5.4-2.3 11-4.5 15.4-8 2.7-2.1 5.1-5.1 5.4-8.7-.5-3.4-2.7-5.7-5.3-7.8a83 83 0 0 0-11.6-7.2l-1.1-.6c5.4-3 10.8-5.6 16.6-7.7l5-1.7a52 52 0 0 0 6.7-2.6Z" fill="#763900"/><g transform="translate(-161 -83)"><path d="M619.4 468.6c3.8 2.6 8 5.3 11.1 8.9.3 1.6.1 3.4 0 5-1.9.7-3.3 1.1-5.3.3a142.2 142.2 0 0 0-91.4 0c-12.5 4.2-25 10.3-35.2 18.8-1.4 1-4 2.9-5.3 1.1-1.8-1.6-.7-3.5.1-5.2a80.6 80.6 0 0 1 30.7-30.4 94.1 94.1 0 0 1 95.3 1.5ZM405.5 480.4a56.6 56.6 0 0 1 31.2 18c2.8 3.8 6.5 8 5.9 13.1-1.6 0-3.3.7-4.6-.5a50.8 50.8 0 0 0-13.9-8 99.8 99.8 0 0 0-48.6-5.1 75 75 0 0 0-36 13.7c-1.9 1.2-3.1 2.8-5.6 1.8-1.2-1.9-1-4.5.3-6.2 16-21.8 45-31.8 71.3-26.8Z" fill="#000"/></g><g transform="translate(-161 -83)"><path d="M397 373.1c6.9.2 14.2 2.9 18 9 1 1.4.6 3.6.7 5.3-6.3.2-12.5.4-18.6 1.9a112 112 0 0 0-41.7 20.1 90 90 0 0 0-22 23c-1.3 2.3-2.3 5.1-4.2 7-1.2.2-2.6.2-3.8.3 0-1.8-.3-3.4.2-5.2a88.7 88.7 0 0 1 38-50.8c10-5.8 21.8-11 33.5-10.6ZM578.5 411.7a71.4 71.4 0 0 1 30 10l-.2 4.7c-4 1.6-7.3-.1-11.3-.8-6.8-1.2-13.9-1.2-20.8-1a197.5 197.5 0 0 0-84 23.7c-1.4.6-3 1-4.4 1.5-2.6-5.4-3.6-11-.1-16.2 5-7.6 15.2-12.4 23.6-15.4 21.3-7.4 44.9-9 67.2-6.5Z" fill="#000"/></g><g transform="translate(-161 -83)"><path d="m525 563.7 1.2 2.3c.4 2.7-2 3.4-3.8 4.4a184 184 0 0 1-85.8 17c-5-.6-10.2-.7-15-2-2.3-1-2.6-4-.3-5.2 2.7 0 5.5.9 8.2 1 7.2 1 14.3.7 21.5.7 22.5-.8 45-6.8 65.7-15.5 2.8-1.2 5.2-2.6 8.3-2.7Z" fill="#000"/></g><g transform="translate(-161 -83)"></g><g transform="translate(-161 -83)"></g><g transform="translate(-161 -83)"><path fill-rule="evenodd" clip-rule="evenodd" d="M612.6 233.1c-12-1.4-24-3-36-4-21.7-2-44-3.5-65.8-2.3-8.7.9-17.3 2.1-25.8 4.1l-.3.1c-6.3 1.4-13.5 3-18.7 7-16.1-3.5-33.7-1-49.3 3.6a177 177 0 0 0-50 25c-29.3 20.7-54 48-72.4 78.7a206.8 206.8 0 0 0-31 94.7c-.9 21.5 3 44 16.3 61.4 1.4 1.8 2 4.2 2.4 6.5l.6 2.6c1.8 7.3 5.4 14 10 20 3.4 4.2 7.8 7.1 12.3 10.1l.4.2c-1 13.2-.4 26 1.2 39.2a190.2 190.2 0 0 0 28.5 80 83.3 83.3 0 0 0 34.9 31.2c1.9.8 5.6 2 6.8-.5a116 116 0 0 1 4.9-15.3c14.6 4.8 31.4 4.7 46.6 2.8l3.4-.7c3.2-.5 6.5-1 9.3-2.5 1.8-.8 2.2-3.4.6-4.5-1.4-1.1-3.2-1.8-5-2.5l-2.4-1a202.3 202.3 0 0 1-72-56 218.5 218.5 0 0 1-44.5-85.1 81.9 81.9 0 0 0 22.4 1.7c3.5-.2 6.7.7 9.9 1.5 3 .8 5.9 1.5 9.1 1.5 6.3.4 12.4-.6 18.5-2.2 2.2-.8 2.6-3.3.9-4.9A75.3 75.3 0 0 1 363 495c-4.4-14.7-5.1-29.8-4-45 3-32.2 14-63.6 28.7-92.3 8-15.6 17-30.6 26.9-45.1a226.8 226.8 0 0 0-1.2 96.9c7 34.7 21.4 68.9 43.3 96.8a159.6 159.6 0 0 0 36.6 34.3c1 .6 2 1.2 3.3 1 2.2-.2 2.8-3.2 1.5-4.6l-.7-.7a21.9 21.9 0 0 1-4.1-5.6c-3-6.1-5.3-12.7-7.5-19.2v-.3a675 675 0 0 1-14.4-50.6c8 20.7 18.6 39.8 34.3 55.7 3.9 3.9 8.2 7.2 12.6 10.6l1 .8A66.3 66.3 0 0 0 535 536c1.6.8 3.6 0 5.3-.7l1.5-.6c2.2-1 4.6-1.8 7-2.6l5.4-1.9c1.4-2 .5-3.8-1-5.3a100.8 100.8 0 0 1-15.7-20.4 278 278 0 0 1-26.9-70.3 718.3 718.3 0 0 1-15.1-77.7l2.9 7.9 2.2 6c4.1 11.1 9 22 14.5 32.5 14.5 27.6 30.3 54 49.4 78.6a240.6 240.6 0 0 0 44.2 44.5c1.2.8 2.8 1.8 4.2.9 1.5-1 3.5-2.9 3.5-4.9a416 416 0 0 0-.1-61A523.2 523.2 0 0 0 596 350l-.9-2.7c-.7-2.4-1.5-4.8-2-7.2a611.8 611.8 0 0 1 22 59.8c9.1 29.3 16.2 59.6 19.3 90.1 1 8.7 1 17.8 1 26.6v.4c0 1.4.4 2.4 1.8 2.8a35 35 0 0 0 8.3 1.5l.1.9c.1 1.3.3 3.2 1.7 3.5 7.6 2 16 1.9 23.7.6a247 247 0 0 0 22.8-3.8l-2.7 19.4a683.2 683.2 0 0 1-15 83.2c-.5 2.1-1 4.2-1.8 6.2a59.3 59.3 0 0 1-10.8 10.1l-3 2.1a28.4 28.4 0 0 0-5.1 3.9c-1.7 2.6-2.6 6-3.4 9.2l-.8 3.4-.1.3c-1.6 5.4-3.2 11-5.6 16.1l-.3.6c-.6 1.6-1.3 3.1.2 4.5 2.8 1.3 5.6 1.5 8.6 1.2l8.7-.7 10.5-.9c7.6-1.1 15.3-2.8 22.6-5.3 12.2-4 24-8.4 35.3-14.8a90.6 90.6 0 0 1-9.9 25.1c-.5 3.5 3 4.5 5.4 2.5 26.8-18 47.3-44.8 61.7-73.4a298.4 298.4 0 0 0 30.2-121l.6-10.2c.2-24.2-1.8-48.7-6.5-72.5-8.3-41.8-25.1-83.6-52.2-117-20.7-25.4-48-46.2-80.4-53.8-8.6-2.5-17.1-2.9-26-3.2-13.9-1-27.6-2.7-41.4-4.4ZM799.2 516a55.6 55.6 0 0 0-31.4-51.8c-1-.4-1.5-.1-1.3.9A431 431 0 0 1 753 569c-.8 2.7-1.5 5.3-2 8 27.6-6 48.3-33 48.2-61.1Z" fill="#000"/><g fill="#0e0e0e"><path d="M543 232.8c13.8.6 27.3 1.4 41 3.1 25.2 2.2 49.5 6.8 75 7.3 6.6 0 12.5 2 19 3.2 29.8 6.8 55 25.1 74.6 48 26.4 30.9 43.3 70.3 52.3 109.6a311 311 0 0 1 7.2 50c1 7 .5 14 1 21 .1 50.1-10.2 101.3-34.4 145.6A183.5 183.5 0 0 1 732 677c1.9-6.6 5-14.2 5-21.2.2-2-2.2-3.8-4-3-2.3 1-4.3 2.6-6.5 3.7a193.1 193.1 0 0 1-45.8 17.2c-9.7 2.5-19.6 2.8-29.3 3.5 2.8-7.2 4.8-14.8 6.6-22.3.5-1.6.8-3.6 2.3-4.6 3.5-2.4 7-4.9 10.3-7.4-2 6.5-4.6 13-7.8 19-1.3 2.2.2 4.8 2.6 5.3 4 .7 8.4.5 12.5.5 1.4-.1 2.7 0 3.9-1 8.8-7.4 16.1-16.6 22.5-26.2 4.8-1.4 9.4-3.9 13.6-6.5 7.2-5 12.7-12.5 17.2-20 5-8.7 9.1-18 12.4-27.6.7-1.5.6-2.9 2.5-3a69.4 69.4 0 0 0 49.7-94.3 60.3 60.3 0 0 0-33.1-32c-.6-17.5-1-34.9-3.4-52.2-2.6-20.7-7-41.9-15-61.2-1-2.1-1.3-4.8-4.3-4.7-2.8.1-3 2.8-2.1 4.9a220 220 0 0 1 15 57.8c3.3 25 4.4 50 3.4 75.2-1.2 29.7-5 60-12.6 88.8a190.2 190.2 0 0 1-17.3 44.7 49.6 49.6 0 0 1-20.4 21.3A259.8 259.8 0 0 0 743.4 517c0-3.7-5.2-4.4-5.9-.6a250.3 250.3 0 0 1-35.8 117.3 121.2 121.2 0 0 1-23.8 28.6h-8.3c5.2-11.9 9.4-24.2 12.6-36.8a566.4 566.4 0 0 0 13.4-74.5c1-9.9 2.6-19.7 3.7-29.6 3.3-1 7 0 8.3-3.8a210.7 210.7 0 0 0 .5-167.6 176.6 176.6 0 0 0-63.7-77.4c-2.7-1.7-5.4-3.7-8.4-4.8-2.6 0-4.2 2.6-2.5 4.7 2.7 2.4 6.1 3.9 9 6 33.1 22.3 56.4 57 68 95 14 46 11.2 96.8-8 141-1.5.5-3 1-4.5 1.3-11.6 2.3-23.1 4.8-35 5.9-3.7.1-7.1-.3-10.8-.6 10.7-28.4 13.2-58 11.8-88-1-18.6-3.8-37.1-8.2-55.1a251.2 251.2 0 0 0-33.3-78.5c-.9-1-2-3.2-3.5-3-2.9-.4-4 3-2.4 5 23.7 35.2 36.5 78.7 40.7 120.6.8 12.7 2 25 .8 37.7-.8 19.1-4 38.2-10.4 56.2-2.2-.1-4.3-.3-6.4-1 .7-14.2-1.1-28.9-3-43-4.7-30.2-12.5-60-22.3-89a500.5 500.5 0 0 0-40-90c-2.8-4.6-5.1-9.2-9-13-8.9-14.9-19.6-31-34-41.1-2.7-1.8-4.3-.7-5.5 2 1.5 2.9 4 4.2 6.4 6.2a115 115 0 0 1 18.7 21.3 250 250 0 0 1 24.9 47c16 39.7 25.9 82.2 30.8 124.6 3.2 26.6 4 53.4 2.5 80.1-6-4.6-11.6-9.6-17-14.8a372.7 372.7 0 0 1-58-77.2 405 405 0 0 1-29-58 279.8 279.8 0 0 1-13.4-43.6c-.5-1.6-1.9-2.9-2-4.5-.7-6-1-12-1.2-18-.2-12.5-.5-24.7 1.3-37.1-2-3.4-5.3-1-5.6 2-3.5 26.2-1 52.3 2.4 78.3 2.6 19 5.4 38 9.3 56.8 7.2 34.9 16.4 71 34 102.2 4.5 7.2 9.4 14.4 15 20.7-3.2 1-6.3 3-9.6 3.5a79.4 79.4 0 0 1-26-17.3c-12.4-12-22-27.3-29-43a354.7 354.7 0 0 1-15-39.1 304 304 0 0 1-13.7-98.8c.2-4.8 1-9.5 1-14.3-.6-2.7-3.6-2.9-4.8-.5-2.4 12.3-2.1 24.1-2 36.6.4 19 4 36.7 6.8 55.2 2.4 13.4 5.2 26.7 8.2 40 6.2 26.3 13 52.5 22.6 77.9-13.6-11.2-25-25-34.5-39.7A238.3 238.3 0 0 1 414.5 361c.4-20.8 3.3-42.3 10.7-61.8 2.4-4.3 3.2-9.1 5.6-13.4 10-20.3 25-37.6 46.2-46.7 21.4-6.2 43.8-8.1 66-6.3Z"/><path d="M458 242.7c-2.9 2.9-6.3 5.2-9.2 8a118 118 0 0 0-27.2 41c-.7 1.6-1.4 3-2.4 4.4a383.6 383.6 0 0 0-48.6 84.7c-11.2 27.5-19.1 58.3-17.8 88.2a97.3 97.3 0 0 0 18.2 55.2 40.7 40.7 0 0 1-20.5-.8 61 61 0 0 1-22.3-19.6 92.9 92.9 0 0 1-15-51.8 150 150 0 0 1 1.5-24.5c5.5-36.3 22-71.5 43.6-101.1 15.5-21 33.6-39.9 54.8-55.3 1.5-1.3 3.2-2.9 1.6-5-1.2-2-3.8-1-5.3.2a267.7 267.7 0 0 0-78 92.2 216 216 0 0 0-23.6 76.5c-1 14.5-1 29 2.6 43.2 4.1 17 12.9 32.5 26.5 43.6a63.7 63.7 0 0 1-48-18.7 76.6 76.6 0 0 1-19.2-45c-1.6-15.9 0-31.7 3.6-47a242.7 242.7 0 0 1 55.3-102.5c22-24.4 48.7-45.5 79.4-57.7 15.8-6.1 33-9.9 50-8.2ZM288.6 511.1a71.4 71.4 0 0 0 21.8 12.6c1.7 2.2 1.8 5.7 2.7 8.3a231 231 0 0 0 56.1 95.8 201.6 201.6 0 0 0 60.6 43.8 82 82 0 0 1-19.8 1.9c-9.4.2-19-1-28-3.7-2-.5-4.2 0-5 2-2 4.5-3.2 9.3-4.7 13.9a76.7 76.7 0 0 1-32.6-29.3 182.3 182.3 0 0 1-26.5-71.4 195.7 195.7 0 0 1-2-44c0-1.8.5-4.5-1.7-5.3-10.6-3.8-17.6-14.2-21-24.6Z"/></g></g><g transform="translate(-161 -83)"></g></g></svg>