<svg width="48" height="48" viewBox="0 0 48 48" fill="none" xmlns="http://www.w3.org/2000/svg">
<rect width="48" height="48" rx="8" fill="#D9E0F5"/>
<g clip-path="url(#clip0_9388_22107)">
<path d="M23.8711 11.2617C24.5229 11.2617 25.2604 11.7855 25.9559 13.0026C26.5705 14.0779 27.0845 15.5862 27.4243 17.3867H20.3179C20.6577 15.5862 21.1717 14.0779 21.7863 13.0026C22.4818 11.7855 23.2193 11.2617 23.8711 11.2617ZM27.7569 24.8867H19.9806C19.9103 24.0806 19.8711 23.2483 19.8711 22.3867C19.8711 21.5252 19.9103 20.6928 19.9806 19.8867H27.7569C27.8272 20.6928 27.8664 21.5252 27.8664 22.3867C27.8664 23.2483 27.8272 24.0806 27.7569 24.8867ZM28.348 12.2067C30.7152 13.2474 32.6489 15.0883 33.8096 17.3867H29.954C29.6229 15.4538 29.0898 13.6556 28.348 12.2067ZM17.7875 17.3867H13.9316C15.0893 15.0892 17.0243 13.2484 19.3892 12.2075C18.6477 13.6562 18.1155 15.454 17.7875 17.3867ZM30.2643 24.8867C30.3328 24.0632 30.3711 23.2255 30.3711 22.3867C30.3711 21.5479 30.3328 20.7103 30.2643 19.8867H34.7015C34.8874 20.6942 34.9914 21.5262 34.9914 22.3867C34.9914 23.2477 34.8873 24.0798 34.6984 24.8867H30.2643ZM13.0405 19.8867H17.4779C17.4094 20.7103 17.3711 21.5479 17.3711 22.3867C17.3711 23.226 17.4094 24.0637 17.4753 24.8867H13.0405C12.8534 24.0781 12.7461 23.2461 12.7461 22.3867C12.7461 21.5273 12.8534 20.6954 13.0405 19.8867ZM23.8711 33.5117C23.2193 33.5117 22.4818 32.988 21.7863 31.7709C21.1717 30.6955 20.6577 29.1872 20.3179 27.3867H27.4243C27.0845 29.1872 26.5705 30.6955 25.9559 31.7709C25.2604 32.988 24.5229 33.5117 23.8711 33.5117ZM29.9587 27.3867H33.8142C32.6534 29.6844 30.7178 31.525 28.3531 32.5659C29.0947 31.1171 29.6276 29.3193 29.9587 27.3867ZM17.7882 27.3867C18.1193 29.3197 18.6524 31.1178 19.3942 32.5667C17.027 31.5261 15.0933 29.6852 13.9326 27.3867H17.7882Z" stroke="#0233BD"/>
</g>
<defs>
<clipPath id="clip0_9388_22107">
<rect width="24" height="24" fill="white" transform="translate(11.8711 10.3867)"/>
</clipPath>
</defs>
</svg>
