<svg width="48" height="48" viewBox="0 0 48 48" fill="none" xmlns="http://www.w3.org/2000/svg">
<rect width="48" height="48" rx="8" fill="#D9E0F5"/>
<mask id="path-2-inside-1_9388_22085" fill="white">
<path d="M33.75 13.5H14.25C13.0078 13.5 12 14.5078 12 15.75V32.25C12 33.4922 13.0078 34.5 14.25 34.5H33.75C34.9922 34.5 36 33.4922 36 32.25V15.75C36 14.5078 34.9922 13.5 33.75 13.5ZM33 21H15V17.0625C15 16.7531 15.2531 16.5 15.5625 16.5H32.4375C32.7469 16.5 33 16.7531 33 17.0625V21Z"/>
</mask>
<path d="M33.75 13.5H14.25C13.0078 13.5 12 14.5078 12 15.75V32.25C12 33.4922 13.0078 34.5 14.25 34.5H33.75C34.9922 34.5 36 33.4922 36 32.25V15.75C36 14.5078 34.9922 13.5 33.75 13.5ZM33 21H15V17.0625C15 16.7531 15.2531 16.5 15.5625 16.5H32.4375C32.7469 16.5 33 16.7531 33 17.0625V21Z" stroke="#0233BD" stroke-width="2" mask="url(#path-2-inside-1_9388_22085)"/>
</svg>
