<svg width="48" height="48" viewBox="0 0 48 48" fill="none" xmlns="http://www.w3.org/2000/svg">
<rect width="48" height="48" rx="8" fill="#D9E0F5"/>
<g clip-path="url(#clip0_9388_22097)">
<mask id="path-2-inside-1_9388_22097" fill="white">
<path d="M27.31 20.6902C30.1106 23.4938 30.0722 27.9886 27.3268 30.7491C27.3217 30.7548 27.3156 30.7609 27.31 30.7665L24.16 33.9165C21.3817 36.6948 16.8616 36.6944 14.0837 33.9165C11.3054 31.1387 11.3054 26.618 14.0837 23.8402L15.8231 22.1009C16.2843 21.6396 17.0786 21.9462 17.1025 22.598C17.1328 23.4288 17.2818 24.2634 17.5567 25.0693C17.6498 25.3422 17.5833 25.6441 17.3794 25.848L16.7659 26.4615C15.4522 27.7752 15.411 29.9143 16.7118 31.2409C18.0254 32.5805 20.1845 32.5885 21.5082 31.2648L24.6582 28.1152C25.9797 26.7938 25.9742 24.6579 24.6582 23.3419C24.4848 23.1688 24.31 23.0343 24.1735 22.9403C24.0769 22.874 23.9972 22.786 23.9407 22.6834C23.8841 22.5808 23.8524 22.4664 23.8479 22.3494C23.8293 21.854 24.0048 21.3436 24.3962 20.9522L25.3831 19.9653C25.6419 19.7065 26.0479 19.6747 26.348 19.8841C26.6917 20.1241 27.0136 20.3938 27.31 20.6902ZM33.9163 14.0836C31.1384 11.3057 26.6183 11.3053 23.84 14.0836L20.69 17.2336C20.6844 17.2392 20.6783 17.2453 20.6732 17.2509C17.9279 20.0115 17.8894 24.5063 20.69 27.3098C20.9864 27.6062 21.3083 27.8759 21.652 28.1159C21.9521 28.3253 22.3581 28.2935 22.6168 28.0347L23.6037 27.0478C23.9951 26.6564 24.1706 26.146 24.1521 25.6506C24.1476 25.5336 24.1158 25.4192 24.0593 25.3166C24.0027 25.214 23.923 25.126 23.8264 25.0597C23.6899 24.9657 23.5152 24.8312 23.3417 24.6581C22.0258 23.3421 22.0203 21.2062 23.3417 19.8848L26.4917 16.7352C27.8154 15.4115 29.9745 15.4195 31.2882 16.7591C32.589 18.0857 32.5478 20.2248 31.2341 21.5385L30.6206 22.152C30.4167 22.3559 30.3502 22.6578 30.4433 22.9307C30.7181 23.7366 30.8671 24.5712 30.8975 25.402C30.9214 26.0538 31.7156 26.3604 32.1769 25.8991L33.9162 24.1598C36.6946 21.382 36.6946 16.8614 33.9163 14.0836Z"/>
</mask>
<path d="M27.31 20.6902C30.1106 23.4938 30.0722 27.9886 27.3268 30.7491C27.3217 30.7548 27.3156 30.7609 27.31 30.7665L24.16 33.9165C21.3817 36.6948 16.8616 36.6944 14.0837 33.9165C11.3054 31.1387 11.3054 26.618 14.0837 23.8402L15.8231 22.1009C16.2843 21.6396 17.0786 21.9462 17.1025 22.598C17.1328 23.4288 17.2818 24.2634 17.5567 25.0693C17.6498 25.3422 17.5833 25.6441 17.3794 25.848L16.7659 26.4615C15.4522 27.7752 15.411 29.9143 16.7118 31.2409C18.0254 32.5805 20.1845 32.5885 21.5082 31.2648L24.6582 28.1152C25.9797 26.7938 25.9742 24.6579 24.6582 23.3419C24.4848 23.1688 24.31 23.0343 24.1735 22.9403C24.0769 22.874 23.9972 22.786 23.9407 22.6834C23.8841 22.5808 23.8524 22.4664 23.8479 22.3494C23.8293 21.854 24.0048 21.3436 24.3962 20.9522L25.3831 19.9653C25.6419 19.7065 26.0479 19.6747 26.348 19.8841C26.6917 20.1241 27.0136 20.3938 27.31 20.6902ZM33.9163 14.0836C31.1384 11.3057 26.6183 11.3053 23.84 14.0836L20.69 17.2336C20.6844 17.2392 20.6783 17.2453 20.6732 17.2509C17.9279 20.0115 17.8894 24.5063 20.69 27.3098C20.9864 27.6062 21.3083 27.8759 21.652 28.1159C21.9521 28.3253 22.3581 28.2935 22.6168 28.0347L23.6037 27.0478C23.9951 26.6564 24.1706 26.146 24.1521 25.6506C24.1476 25.5336 24.1158 25.4192 24.0593 25.3166C24.0027 25.214 23.923 25.126 23.8264 25.0597C23.6899 24.9657 23.5152 24.8312 23.3417 24.6581C22.0258 23.3421 22.0203 21.2062 23.3417 19.8848L26.4917 16.7352C27.8154 15.4115 29.9745 15.4195 31.2882 16.7591C32.589 18.0857 32.5478 20.2248 31.2341 21.5385L30.6206 22.152C30.4167 22.3559 30.3502 22.6578 30.4433 22.9307C30.7181 23.7366 30.8671 24.5712 30.8975 25.402C30.9214 26.0538 31.7156 26.3604 32.1769 25.8991L33.9162 24.1598C36.6946 21.382 36.6946 16.8614 33.9163 14.0836Z" stroke="#0233BD" stroke-width="2" mask="url(#path-2-inside-1_9388_22097)"/>
</g>
<defs>
<clipPath id="clip0_9388_22097">
<rect width="24" height="24" fill="white" transform="translate(12 12)"/>
</clipPath>
</defs>
</svg>
