<svg width="48" height="48" viewBox="0 0 48 48" fill="none" xmlns="http://www.w3.org/2000/svg">
<rect width="48" height="48" rx="8" fill="#D9E0F5"/>
<path d="M21.003 26.8175L21.003 26.8174C21.9972 26.1605 23.449 25.7003 24.6547 25.7003C26.3001 25.7003 27.8539 25.9931 28.9763 26.5485C30.0977 27.1032 30.7 27.865 30.7 28.8003C30.7 30.1464 29.532 31.981 25.5232 32.8422C24.3767 33.0885 23.1905 33.1486 22.0042 33.0648C21.0269 32.9957 20.0575 32.7858 19.0912 32.5174L19.0911 32.5174L17.3 32.0202V28.0904C18.2114 28.0528 18.8834 27.9108 19.4405 27.6976C20.0119 27.479 20.4447 27.1899 20.8465 26.9216C20.8991 26.8865 20.9512 26.8517 21.003 26.8175ZM30.3232 15.1588L30.3233 15.1588C34.332 16.0196 35.5 17.8542 35.5 19.2003C35.5 20.1356 34.8977 20.8974 33.7763 21.4521C32.6539 22.0075 31.1001 22.3003 29.4548 22.3003C28.249 22.3003 26.7972 21.8401 25.803 21.1832L25.803 21.1831C25.7513 21.149 25.6993 21.1142 25.6467 21.0792C25.2449 20.8108 24.8119 20.5217 24.2403 20.303C23.6833 20.0899 23.0112 19.9478 22.1 19.9102V15.9804L23.891 15.4832C24.8575 15.2152 25.8269 15.0053 26.8043 14.9362L26.8044 14.9362C27.9904 14.852 29.1766 14.9125 30.3232 15.1588ZM19.9 16.1003V19.9003H19.2C18.1505 19.9003 17.3 19.0498 17.3 18.0003C17.3 16.9508 18.1505 16.1003 19.2 16.1003H19.9ZM14.4 31.9003C13.3505 31.9003 12.5 31.0498 12.5 30.0003C12.5 28.9508 13.3505 28.1003 14.4 28.1003H15.1V31.9003H14.4Z" stroke="#0233BD"/>
</svg>
