<svg width="48" height="48" viewBox="0 0 48 48" fill="none" xmlns="http://www.w3.org/2000/svg">
<rect width="48" height="48" rx="8" fill="#D9E0F5"/>
<mask id="path-2-inside-1_9415_23143" fill="white">
<path d="M18 34.5H30V15.75C30 14.5078 28.9922 13.5 27.75 13.5H20.25C19.0078 13.5 18 14.5078 18 15.75V34.5ZM21 16.5H27V18H21V16.5ZM36 20.25V32.25C36 33.4922 34.9922 34.5 33.75 34.5H31.5V18H33.75C34.9922 18 36 19.0078 36 20.25ZM16.5 34.5H14.25C13.0078 34.5 12 33.4922 12 32.25V20.25C12 19.0078 13.0078 18 14.25 18H16.5V34.5Z"/>
</mask>
<path d="M18 34.5H30V15.75C30 14.5078 28.9922 13.5 27.75 13.5H20.25C19.0078 13.5 18 14.5078 18 15.75V34.5ZM21 16.5H27V18H21V16.5ZM36 20.25V32.25C36 33.4922 34.9922 34.5 33.75 34.5H31.5V18H33.75C34.9922 18 36 19.0078 36 20.25ZM16.5 34.5H14.25C13.0078 34.5 12 33.4922 12 32.25V20.25C12 19.0078 13.0078 18 14.25 18H16.5V34.5Z" stroke="#0233BD" stroke-width="2" mask="url(#path-2-inside-1_9415_23143)"/>
</svg>
