<svg width="48" height="48" viewBox="0 0 48 48" fill="none" xmlns="http://www.w3.org/2000/svg">
<rect width="48" height="48" rx="8" fill="#D9E0F5"/>
<path d="M26.5 15V15.5H27H30.75C31.716 15.5 32.5 16.284 32.5 17.25V33.75C32.5 34.716 31.716 35.5 30.75 35.5H17.25C16.284 35.5 15.5 34.716 15.5 33.75V17.25C15.5 16.284 16.284 15.5 17.25 15.5H21H21.5V15C21.5 13.6215 22.6215 12.5 24 12.5C25.3785 12.5 26.5 13.6215 26.5 15ZM30.0333 25.0957L30.0348 25.0942C30.447 24.682 30.4572 24.0167 30.0432 23.5939L30.0432 23.5939L30.0407 23.5914L28.7189 22.2602L28.7176 22.2589C28.3078 21.8491 27.6355 21.8333 27.2145 22.2534C27.2142 22.2537 27.2139 22.254 27.2136 22.2543L22.6013 26.8318L20.7973 25.012L20.7957 25.0105C20.3858 24.6006 19.7135 24.5849 19.2925 25.0051C19.2923 25.0053 19.292 25.0056 19.2918 25.0058L17.9618 26.3264L17.9605 26.3277C17.5506 26.7376 17.5349 27.4099 17.955 27.8309C17.9553 27.8311 17.9556 27.8314 17.9558 27.8317L21.8262 31.7349L21.8277 31.7364C22.2376 32.1463 22.91 32.162 23.331 31.7417C23.3312 31.7415 23.3315 31.7413 23.3317 31.7411L30.0333 25.0957ZM25.625 15C25.625 14.1004 24.8996 13.375 24 13.375C23.1004 13.375 22.375 14.1004 22.375 15C22.375 15.8996 23.1004 16.625 24 16.625C24.8996 16.625 25.625 15.8996 25.625 15Z" stroke="#0233BD"/>
</svg>
