<svg width="48" height="48" viewBox="0 0 48 48" fill="none" xmlns="http://www.w3.org/2000/svg">
<rect width="48" height="48" rx="8" fill="#D9E0F5"/>
<g clip-path="url(#clip0_9394_22467)">
<mask id="path-2-inside-1_9394_22467" fill="white">
<path d="M19.8243 27.6699C19.7309 27.6699 19.6376 27.6836 19.5485 27.7125C19.0423 27.877 18.5098 27.9824 17.9493 27.9824C17.3887 27.9824 16.8563 27.877 16.3497 27.7125C16.2606 27.6836 16.1676 27.6699 16.0743 27.6699C13.6501 27.6699 11.6864 29.6418 11.6993 32.0691C11.7048 33.0949 12.5481 33.9199 13.5743 33.9199H22.3243C23.3505 33.9199 24.1938 33.0949 24.1993 32.0691C24.2122 29.6418 22.2485 27.6699 19.8243 27.6699ZM17.9493 26.4199C20.0204 26.4199 21.6993 24.741 21.6993 22.6699C21.6993 20.5988 20.0204 18.9199 17.9493 18.9199C15.8782 18.9199 14.1993 20.5988 14.1993 22.6699C14.1993 24.741 15.8782 26.4199 17.9493 26.4199ZM34.8243 13.9199H19.8243C18.7903 13.9199 17.9493 14.7891 17.9493 15.857V17.6699C18.8641 17.6699 19.711 17.9348 20.4493 18.3652V16.4199H34.1993V27.6699H31.6993V25.1699H26.6993V27.6699H23.7212C24.4673 28.3219 25.0149 29.1828 25.2715 30.1699H34.8243C35.8583 30.1699 36.6993 29.3008 36.6993 28.2328V15.857C36.6993 14.7891 35.8583 13.9199 34.8243 13.9199Z"/>
</mask>
<path d="M19.8243 27.6699C19.7309 27.6699 19.6376 27.6836 19.5485 27.7125C19.0423 27.877 18.5098 27.9824 17.9493 27.9824C17.3887 27.9824 16.8563 27.877 16.3497 27.7125C16.2606 27.6836 16.1676 27.6699 16.0743 27.6699C13.6501 27.6699 11.6864 29.6418 11.6993 32.0691C11.7048 33.0949 12.5481 33.9199 13.5743 33.9199H22.3243C23.3505 33.9199 24.1938 33.0949 24.1993 32.0691C24.2122 29.6418 22.2485 27.6699 19.8243 27.6699ZM17.9493 26.4199C20.0204 26.4199 21.6993 24.741 21.6993 22.6699C21.6993 20.5988 20.0204 18.9199 17.9493 18.9199C15.8782 18.9199 14.1993 20.5988 14.1993 22.6699C14.1993 24.741 15.8782 26.4199 17.9493 26.4199ZM34.8243 13.9199H19.8243C18.7903 13.9199 17.9493 14.7891 17.9493 15.857V17.6699C18.8641 17.6699 19.711 17.9348 20.4493 18.3652V16.4199H34.1993V27.6699H31.6993V25.1699H26.6993V27.6699H23.7212C24.4673 28.3219 25.0149 29.1828 25.2715 30.1699H34.8243C35.8583 30.1699 36.6993 29.3008 36.6993 28.2328V15.857C36.6993 14.7891 35.8583 13.9199 34.8243 13.9199Z" stroke="#0233BD" stroke-width="2" mask="url(#path-2-inside-1_9394_22467)"/>
</g>
<defs>
<clipPath id="clip0_9394_22467">
<rect width="25" height="25" fill="white" transform="translate(11.6992 11.4199)"/>
</clipPath>
</defs>
</svg>
